<svg width="16" height="16" viewBox="0 0 16 16" fill="none" xmlns="http://www.w3.org/2000/svg">
<g clip-path="url(#clip0_1_1351)">
<path d="M15.4 8.60039H0.6C0.268799 8.60039 0 8.33159 0 8.00039C0 7.66919 0.268799 7.40039 0.6 7.40039H15.4C15.7312 7.40039 16 7.66919 16 8.00039C16 8.33159 15.7312 8.60039 15.4 8.60039Z" fill="#2D6CFE"/>
<path d="M7.99996 16C7.66876 16 7.39996 15.7312 7.39996 15.4V0.6C7.39996 0.268799 7.66876 0 7.99996 0C8.33116 0 8.59996 0.268799 8.59996 0.6V15.4C8.59996 15.7312 8.33116 16 7.99996 16Z" fill="#2D6CFE"/>
</g>
<defs>
<clipPath id="clip0_1_1351">
<rect width="16" height="16" fill="white"/>
</clipPath>
</defs>
</svg>
