<svg width="20" height="20" viewBox="0 0 20 20" fill="none" xmlns="http://www.w3.org/2000/svg">
<g id="material-symbols:close">
<g id="Group">
<path id="Vector" d="M12.2897 11.4584L11.673 11.5609C11.6582 11.4714 11.663 11.3797 11.6871 11.2922C11.7112 11.2047 11.7541 11.1235 11.8128 11.0543C11.8715 10.985 11.9446 10.9294 12.0269 10.8913C12.1093 10.8531 12.199 10.8334 12.2897 10.8334V11.4584ZM3.12305 11.4584V12.0834C2.95729 12.0834 2.79832 12.0175 2.68111 11.9003C2.56389 11.7831 2.49805 11.6242 2.49805 11.4584H3.12305ZM4.78971 2.50006H14.2564V3.75006H4.78971V2.50006ZM15.2564 12.0834H12.2897V10.8334H15.2564V12.0834ZM12.9064 11.3559L13.578 15.3851L12.3447 15.5909L11.673 11.5609L12.9064 11.3559ZM12.1397 17.0834H11.9614V15.8334H12.1389L12.1397 17.0834ZM9.36055 15.6917L7.26471 12.5476L8.30471 11.8542L10.4005 14.9984L9.36055 15.6917ZM6.39805 12.0834H3.12305V10.8334H6.39805V12.0834ZM2.49805 11.4584V4.79173H3.74805V11.4584H2.49805ZM16.5039 4.34173L17.5039 9.34173L16.2789 9.58756L15.2789 4.58756L16.5039 4.34256V4.34173ZM7.26471 12.5476C7.16963 12.4048 7.04077 12.2886 6.88958 12.2076C6.7384 12.1267 6.56955 12.0843 6.39805 12.0842V10.8342C7.16471 10.8342 7.87971 11.2167 8.30471 11.8542L7.26471 12.5476ZM13.578 15.3851C13.6128 15.5939 13.6016 15.8087 13.5453 16.0128C13.489 16.2169 13.389 16.4063 13.2521 16.5678C13.1152 16.7294 12.9448 16.8592 12.7527 16.9482C12.5606 17.0372 12.3514 17.0834 12.1397 17.0834L12.1389 15.8334C12.1691 15.8333 12.1997 15.8267 12.2271 15.8139C12.2545 15.8012 12.2788 15.7826 12.2983 15.7596C12.3178 15.7365 12.3321 15.7095 12.3401 15.6803C12.3481 15.6512 12.3497 15.6207 12.3447 15.5909L13.578 15.3851ZM15.2564 10.8342C15.9147 10.8342 16.4064 10.2326 16.278 9.58839L17.5039 9.34256C17.5702 9.67498 17.5619 10.0188 17.4797 10.3477C17.3975 10.6765 17.2433 10.983 17.0283 11.2451C16.8134 11.5072 16.5429 11.7183 16.2365 11.8633C15.9301 12.0082 15.5954 12.0834 15.2564 12.0834V10.8334V10.8342ZM14.2564 2.50006C14.7861 2.49996 15.2996 2.68423 15.7093 3.01999C16.1191 3.35576 16.3999 3.82312 16.5039 4.34256L15.2789 4.5884C15.2316 4.35206 15.1039 4.13942 14.9175 3.98671C14.731 3.83399 14.4974 3.74982 14.2564 3.75006V2.50006ZM11.9614 17.0834C11.4469 17.0834 10.9405 16.9571 10.4869 16.7144C10.0333 16.4716 9.64673 16.1206 9.36138 15.6926L10.4005 14.9984C10.5718 15.2553 10.8039 15.4668 11.0762 15.6125C11.3485 15.7582 11.6526 15.8335 11.9614 15.8334V17.0834ZM4.78971 3.75006C4.21471 3.75006 3.74805 4.21673 3.74805 4.79173H2.49805C2.49805 4.18394 2.73949 3.60105 3.16926 3.17128C3.59903 2.74151 4.18193 2.50006 4.78971 2.50006V3.75006Z" fill="#E33737"/>
<path id="Vector_2" d="M6.24805 12.0842V3.7509" stroke="#E33737"/>
</g>
</g>
</svg>
