<svg width="16" height="16" viewBox="0 0 16 16" fill="none" xmlns="http://www.w3.org/2000/svg">
<path d="M7.06634 9.20016L5.63301 7.76683C5.51079 7.64461 5.35523 7.5835 5.16634 7.5835C4.97745 7.5835 4.8219 7.64461 4.69967 7.76683C4.57745 7.88905 4.51634 8.04461 4.51634 8.2335C4.51634 8.42238 4.57745 8.57794 4.69967 8.70016L6.59967 10.6002C6.73301 10.7335 6.88856 10.8002 7.06634 10.8002C7.24412 10.8002 7.39967 10.7335 7.53301 10.6002L11.2997 6.8335C11.4219 6.71127 11.483 6.55572 11.483 6.36683C11.483 6.17794 11.4219 6.02239 11.2997 5.90016C11.1775 5.77794 11.0219 5.71683 10.833 5.71683C10.6441 5.71683 10.4886 5.77794 10.3663 5.90016L7.06634 9.20016ZM7.99967 14.6668C7.07745 14.6668 6.21079 14.4917 5.39967 14.1415C4.58856 13.7913 3.88301 13.3164 3.28301 12.7168C2.68301 12.1168 2.20812 11.4113 1.85834 10.6002C1.50856 9.78905 1.33345 8.92238 1.33301 8.00016C1.33301 7.07794 1.50812 6.21127 1.85834 5.40016C2.20856 4.58905 2.68345 3.8835 3.28301 3.2835C3.88301 2.6835 4.58856 2.20861 5.39967 1.85883C6.21079 1.50905 7.07745 1.33394 7.99967 1.3335C8.9219 1.3335 9.78856 1.50861 10.5997 1.85883C11.4108 2.20905 12.1163 2.68394 12.7163 3.2835C13.3163 3.8835 13.7915 4.58905 14.1417 5.40016C14.4919 6.21127 14.6668 7.07794 14.6663 8.00016C14.6663 8.92238 14.4912 9.78905 14.141 10.6002C13.7908 11.4113 13.3159 12.1168 12.7163 12.7168C12.1163 13.3168 11.4108 13.7919 10.5997 14.1422C9.78856 14.4924 8.9219 14.6673 7.99967 14.6668Z" fill="white"/>
</svg>
