<svg width="12" height="12" viewBox="0 0 12 12" fill="none" xmlns="http://www.w3.org/2000/svg">
<path d="M2.68601 12H0.19817V3.98839H2.68601V12ZM1.44075 2.89554C0.645392 2.89554 0 2.23661 0 1.44107C0 0.645536 0.645392 0 1.44075 0C2.23611 0 2.8815 0.645536 2.8815 1.44107C2.8815 2.23661 2.23611 2.89554 1.44075 2.89554ZM11.9973 12H9.51484V8.1C9.51484 7.17054 9.49609 5.97857 8.22138 5.97857C6.92792 5.97857 6.72975 6.98839 6.72975 8.03304V12H4.24459V3.98839H6.63066V5.08125H6.66548C6.99754 4.45179 7.80897 3.7875 9.01941 3.7875C11.5367 3.7875 12 5.44554 12 7.59911V12H11.9973Z" fill="#084C8D"/>
</svg>
