<svg width="12" height="12" viewBox="0 0 12 12" fill="none" xmlns="http://www.w3.org/2000/svg">
<path d="M6 0C2.6916 0 0 2.69164 0 6.00004C0 9.30844 2.6916 12 6 12C9.3084 12 12 9.30844 12 6.00004C12 2.69164 9.3084 0 6 0ZM6 10.9091C3.29309 10.9091 1.09091 8.70691 1.09091 6.00004C1.09091 3.29316 3.29309 1.09091 6 1.09091C8.70691 1.09091 10.9091 3.29316 10.9091 6.00004C10.9091 8.70691 8.70687 10.9091 6 10.9091Z" fill="#757575"/>
<path d="M5.99992 2.54541C5.59898 2.54541 5.2728 2.87181 5.2728 3.27301C5.2728 3.67385 5.59898 3.99996 5.99992 3.99996C6.40087 3.99996 6.72705 3.67385 6.72705 3.27301C6.72705 2.87181 6.40087 2.54541 5.99992 2.54541Z" fill="#757575"/>
<path d="M6 5.09082C5.69876 5.09082 5.45454 5.33504 5.45454 5.63627V8.909C5.45454 9.21024 5.69876 9.45446 6 9.45446C6.30123 9.45446 6.54545 9.21024 6.54545 8.909V5.63627C6.54545 5.33504 6.30123 5.09082 6 5.09082Z" fill="#757575"/>
</svg>
