<svg xmlns="http://www.w3.org/2000/svg" viewBox="0 0 19 24" width="19" height="24">
	<style>
		tspan { white-space:pre }
		.shp0 { fill: #dfdfdf } 
	</style>
	<path id="Shape 10" class="shp0" d="M17.67,20.1l-3.39,-3.48l-0.02,-0.01c-0.12,-0.12 -0.29,-0.21 -0.53,-0.28c-0.33,-0.09 -0.66,-0.06 -0.97,0.1l-1.52,0.9c-0.04,0.02 -0.09,0.03 -0.16,0.04c-0.07,0 -0.12,0 -0.14,-0.01l-0.25,-0.12c-0.16,-0.08 -0.39,-0.25 -0.67,-0.51c-0.28,-0.26 -0.62,-0.63 -1.01,-1.12c-0.39,-0.49 -0.82,-1.14 -1.27,-1.95c-0.47,-0.8 -0.82,-1.49 -1.04,-2.07c-0.22,-0.58 -0.37,-1.06 -0.45,-1.44c-0.09,-0.43 -0.13,-0.8 -0.11,-1.11c0.01,-0.04 0.04,-0.09 0.07,-0.15c0.04,-0.06 0.07,-0.1 0.11,-0.12l1.3,-0.75c0.23,-0.13 0.41,-0.33 0.53,-0.58c0.13,-0.25 0.16,-0.51 0.09,-0.76l-1.1,-4.87c-0.06,-0.18 -0.14,-0.34 -0.25,-0.48c-0.11,-0.14 -0.26,-0.24 -0.44,-0.29c-0.25,-0.07 -0.5,-0.03 -0.75,0.11l-3.53,2.05c-0.17,0.09 -0.34,0.22 -0.49,0.4c-0.15,0.18 -0.27,0.36 -0.35,0.55c-0.01,0.03 -0.05,0.17 -0.13,0.42c-0.08,0.25 -0.15,0.6 -0.19,1.06c-0.05,0.46 -0.06,1.02 -0.02,1.68c0.03,0.66 0.14,1.42 0.33,2.28c0.19,0.86 0.49,1.81 0.89,2.87c0.41,1.06 0.97,2.2 1.68,3.43c0.89,1.58 1.79,2.87 2.68,3.88c0.9,1.01 1.73,1.81 2.49,2.39c0.76,0.59 1.43,1.01 1.99,1.26c0.57,0.25 0.98,0.41 1.25,0.48c0.11,0.03 0.2,0.05 0.27,0.06c0.07,0.01 0.11,0.02 0.13,0.02c0.2,0.02 0.42,0.01 0.65,-0.03c0.23,-0.04 0.42,-0.12 0.59,-0.23l3.52,-2.03c0.3,-0.17 0.47,-0.43 0.52,-0.76c0.02,-0.3 -0.09,-0.57 -0.34,-0.83z" />
</svg>