<svg width="114" height="106" viewBox="0 0 114 106" fill="none" xmlns="http://www.w3.org/2000/svg">
<path fill-rule="evenodd" clip-rule="evenodd" d="M36.7223 63.6905C34.1107 66.0564 30.7356 67.4618 26.5161 67.4326C13.4633 67.3418 6.1454 59.7005 2.6358 49.2582C-2.48827 34.0104 0.635151 12.7195 5.45622 1.26198C5.6839 0.719096 6.32742 0.443182 6.89022 0.64358C7.45572 0.843255 7.72967 1.44504 7.50199 1.98792C2.82196 13.1082 -0.232552 33.7708 4.73933 48.5693C7.96217 58.1573 14.6112 65.2565 26.6 65.3383C30.168 65.3651 33.0123 64.1701 35.2257 62.1749C33.9171 60.8213 32.6672 59.4492 31.4793 58.0605C28.2015 54.2262 21.7917 42.8594 20.5577 33.5688C19.6744 26.904 21.4478 21.3132 28.1644 19.6932C31.8978 18.7936 35.163 20.2491 37.7309 23.2691C41.264 27.4189 43.4697 34.636 43.7504 42.0421C43.9852 48.2083 42.8924 54.4932 40.2219 59.2299C39.6327 60.2698 38.9725 61.239 38.2331 62.1178C56.7684 80.5537 85.803 94.6572 112.308 96.7843C112.912 96.8349 113.348 97.3388 113.277 97.9159C113.209 98.4924 112.661 98.9196 112.058 98.8715C85.1201 96.7078 55.6147 82.4119 36.7223 63.6905ZM36.7263 60.5858C35.4996 59.311 34.3262 58.0191 33.2094 56.7121C30.0696 53.0368 23.9295 42.1478 22.7476 33.2461C22.0215 27.7834 23.1421 23.0482 28.6468 21.7202C31.5381 21.0244 34.0082 22.2764 35.9995 24.6124C38.187 27.1843 39.7907 31.0316 40.7067 35.3463C42.0975 41.897 41.894 49.5254 39.5852 55.5046C38.8548 57.3991 37.9086 59.1256 36.7263 60.5858Z" fill="#FF6600"/>
<path fill-rule="evenodd" clip-rule="evenodd" d="M84.3595 68.9612C89.6849 80.221 101.283 90.6223 112.482 96.976C112.997 97.2681 113.152 97.9101 112.828 98.4079C112.504 98.9057 111.823 99.0745 111.308 98.7823C99.7586 92.2314 87.8337 81.4739 82.3429 69.8664C82.0967 69.347 82.3485 68.7214 82.9063 68.4712C83.4614 68.2218 84.1133 68.4418 84.3595 68.9612Z" fill="#FF6600"/>
<path fill-rule="evenodd" clip-rule="evenodd" d="M111.228 99.0317C100.674 96.5452 86.3405 99.6509 76.6986 104.927C76.1639 105.22 75.4918 105.054 75.2017 104.555C74.909 104.056 75.1047 103.416 75.6394 103.123C85.7406 97.5955 100.764 94.395 111.82 96.9999C112.406 97.1368 112.75 97.7064 112.588 98.2671C112.423 98.8285 111.815 99.1712 111.228 99.0317Z" fill="#FF6600"/>
</svg>
