<svg width="70" height="70" viewBox="0 0 70 70" fill="none" xmlns="http://www.w3.org/2000/svg">
<path d="M33.1122 38.4891V34.9763C33.1122 33.9404 32.2679 33.0962 31.2307 33.0962C30.1948 33.0962 29.3506 33.9404 29.3506 34.9763V44.5218H30.2431C30.8753 42.3446 31.8528 40.3121 33.1122 38.4891Z" fill="#6495FB"/>
<path d="M10.3008 25.3521H17.8615V44.5218H10.3008V25.3521Z" fill="#6495FB"/>
<path d="M5.1508 21.5428H55.8359C56.0323 20.9881 55.9095 21.061 55.9472 15.8268C55.9472 14.7751 55.0946 13.9225 54.0429 13.9225H48.913L32.254 2.8197C31.6135 2.39301 30.7793 2.39339 30.1396 2.82109L13.5315 13.9225H6.94374C5.89207 13.9225 5.03946 14.7751 5.03946 15.8268C5.07717 21.0656 4.95466 20.9888 5.1508 21.5428V21.5428Z" fill="#6495FB"/>
<path d="M6.30888 50.2344V53.1276L5.52051 53.916H29.7162C29.3989 52.0757 29.3327 50.1804 29.5118 48.3301H7.42478C7.14524 48.6807 6.30888 49.147 6.30888 50.2344V50.2344Z" fill="#6495FB"/>
<path d="M2.50049 57.7246V61.4062C2.50049 62.4574 3.3536 63.3105 4.40476 63.3105H33.9058C32.5855 61.636 31.514 59.7546 30.7498 57.7246H2.50049Z" fill="#6495FB"/>
<path d="M36.8856 34.3364C38.0624 33.3449 39.3497 32.4804 40.7259 31.7657V25.3521H21.6704V44.5218H25.5424V34.9763C25.5424 31.8393 28.0942 29.2876 31.2311 29.2876C34.1523 29.2876 36.5657 31.4991 36.8856 34.3364Z" fill="#6495FB"/>
<path d="M52.1513 29.4907V25.3521H44.5342V30.2397C47.0846 29.4998 49.686 29.2787 52.1513 29.4907Z" fill="#6495FB"/>
<path d="M50.3611 33.2231C40.911 33.2231 33.2227 40.9115 33.2227 50.3616C33.2227 59.8118 40.911 67.5001 50.3611 67.5001C59.8113 67.5001 67.4996 59.8118 67.4996 50.3616C67.4996 40.9115 59.8114 33.2231 50.3611 33.2231ZM44.8462 44.8505C45.5874 44.1094 46.7891 44.1094 47.5302 44.8505C48.2714 45.5917 48.2714 46.7934 47.5302 47.5345C46.7891 48.2757 45.5874 48.2757 44.8462 47.5345C44.1051 46.7934 44.1051 45.5917 44.8462 44.8505ZM55.6185 55.6226C54.8773 56.3638 53.6756 56.3638 52.9344 55.6226C52.1933 54.8815 52.1933 53.6798 52.9344 52.9386C53.6756 52.1975 54.8773 52.1975 55.6185 52.9386C56.3596 53.6798 56.3596 54.8815 55.6185 55.6226ZM55.7082 47.6422L47.629 55.7214C46.8853 56.4652 45.6795 56.4651 44.936 55.7214C44.1923 54.9777 44.1923 53.7721 44.936 53.0284L53.0152 44.9492C53.7587 44.2055 54.9645 44.2055 55.7082 44.9492C56.452 45.6928 56.452 46.8985 55.7082 47.6422Z" fill="white"/>
</svg>
