<svg width="85" height="86" viewBox="0 0 85 86" fill="none" xmlns="http://www.w3.org/2000/svg">
<path d="M49.359 58.9304C45.547 58.9304 42.45 57.3694 42.45 55.4464C42.45 53.5204 45.547 51.9624 49.359 51.9624C52.597 51.9624 55.314 53.0834 56.066 54.5994" stroke="#197FFF" stroke-width="3" stroke-miterlimit="10"/>
<path d="M49.359 58.9384C53.177 58.9384 56.271 60.4994 56.271 62.4224C56.271 64.3454 53.177 65.9064 49.359 65.9064C45.951 65.9064 43.113 64.6604 42.55 63.0214" stroke="#197FFF" stroke-width="3" stroke-miterlimit="10"/>
<path d="M49.457 48.0674V69.8444" stroke="#197FFF" stroke-width="3" stroke-miterlimit="10"/>
<path d="M28.805 21.1814C31.9834 21.1814 34.56 18.6048 34.56 15.4264C34.56 12.248 31.9834 9.67142 28.805 9.67142C25.6266 9.67142 23.05 12.248 23.05 15.4264C23.05 18.6048 25.6266 21.1814 28.805 21.1814Z" stroke="#024892" stroke-width="3" stroke-miterlimit="10"/>
<path d="M39.25 39.3854L38.354 30.4954C38.131 28.2724 36.119 26.4534 33.885 26.4534H23.724C21.49 26.4534 19.478 28.2724 19.255 30.4954L17.528 47.6334C17.305 49.8564 19.829 51.6214 21.945 52.3834L22.491 74.9044" stroke="#024892" stroke-width="3" stroke-miterlimit="10" stroke-linecap="round" stroke-linejoin="round"/>
<path d="M66.236 59.0984C66.236 68.4184 58.681 75.9714 49.359 75.9714C40.038 75.9714 32.485 68.4184 32.485 59.0984C32.485 49.7764 40.038 42.2214 49.359 42.2214C58.682 42.2214 66.236 49.7764 66.236 59.0984Z" stroke="#0F66CD" stroke-width="3" stroke-miterlimit="10" stroke-linecap="round" stroke-linejoin="round"/>
</svg>
