<svg width="115" height="116" viewBox="0 0 115 116" fill="none" xmlns="http://www.w3.org/2000/svg">
<path d="M92.6683 63.78V97.7659H16.9212V54.7654H64.1172" stroke="#084C8D" stroke-width="4" stroke-miterlimit="10" stroke-linecap="round"/>
<path d="M27.7447 66.2166H56.1565" stroke="#197FFF" stroke-width="4" stroke-miterlimit="10" stroke-linecap="round"/>
<path d="M27.7447 75.6642H56.1565" stroke="#197FFF" stroke-width="4" stroke-miterlimit="10" stroke-linecap="round"/>
<path d="M60.4359 87.1588H78.6613" stroke="#197FFF" stroke-width="4" stroke-miterlimit="10" stroke-linecap="round"/>
<path d="M71.3311 74.9269L69.28 79.6676" stroke="#0F66CD" stroke-width="4" stroke-miterlimit="10" stroke-linecap="round"/>
<path d="M70.3081 65.9312L69.3043 74.0312L73.3523 75.7752L78.5841 69.4677" stroke="#0F66CD" stroke-width="4" stroke-miterlimit="10" stroke-linecap="round" stroke-linejoin="round"/>
<path d="M86.2445 24.8951L79.6205 21.5656C79.6205 21.5656 73.3347 30.0539 69.5235 39.1673" stroke="#0F66CD" stroke-width="4" stroke-miterlimit="10" stroke-linecap="round" stroke-linejoin="round"/>
<path d="M77.9293 39.4202L92.6317 45.7655" stroke="#0F66CD" stroke-width="4" stroke-miterlimit="10" stroke-linecap="round" stroke-linejoin="round"/>
<path d="M69.7604 64.9245C72.1889 48.2861 79.3947 32.6961 90.5564 20.0691C91.5549 19.0477 93.5397 18.7202 94.917 19.3142C95.1551 19.417 95.3959 19.5225 95.6327 19.624C97.01 20.2166 98.1383 21.8821 98.0774 23.3081C96.5364 40.0169 90.0897 56.0668 79.7045 69.2134L69.7604 64.9245Z" stroke="#197FFF" stroke-width="4" stroke-miterlimit="10" stroke-linecap="round" stroke-linejoin="round"/>
</svg>
