<?xml version="1.0" encoding="utf-8"?>
<!-- Generator: Adobe Illustrator 18.0.0, SVG Export Plug-In . SVG Version: 6.00 Build 0)  -->
<!DOCTYPE svg PUBLIC "-//W3C//DTD SVG 1.1//EN" "http://www.w3.org/Graphics/SVG/1.1/DTD/svg11.dtd">
<svg version="1.1" id="Layer_1" xmlns="http://www.w3.org/2000/svg" xmlns:xlink="http://www.w3.org/1999/xlink" x="0px" y="0px"
	 width="24px" height="24px" viewBox="0 0 24 24" enable-background="new 0 0 24 24" xml:space="preserve">
<g>
	<path fill="#FFFFFF" d="M11.5,0C5.2,0,0,5.2,0,11.5C0,17.8,5.2,23,11.5,23S23,17.8,23,11.5C23,5.2,17.8,0,11.5,0z M11.5,22
		C5.7,22,1,17.3,1,11.5S5.7,1,11.5,1S22,5.7,22,11.5S17.3,22,11.5,22z"/>
	<path fill="#FFFFFF" d="M16.2,7.2l-5.7,7.6l-3.9-3.1c-0.2-0.2-0.5-0.1-0.7,0.1C5.8,12,5.8,12.3,6,12.5l4.3,3.4c0,0,0,0,0,0
		c0,0,0,0,0,0c0,0,0,0,0,0c0.1,0.1,0.2,0.1,0.3,0.1c0.1,0,0.2,0,0.2-0.1c0,0,0,0,0.1,0c0,0,0.1-0.1,0.1-0.1c0,0,0,0,0,0c0,0,0,0,0,0
		l6-8.1c0.2-0.2,0.1-0.6-0.1-0.7C16.7,6.9,16.4,6.9,16.2,7.2z"/>
</g>
</svg>
