<svg width="115" height="115" viewBox="0 0 115 115" fill="none" xmlns="http://www.w3.org/2000/svg">
<path d="M77.7941 20.259V87.3125" stroke="#0F66CD" stroke-width="4" stroke-miterlimit="10" stroke-linecap="round" stroke-linejoin="round"/>
<path d="M38.1327 74.9321L53.8512 58.2117C56.5367 55.4636 60.7322 54.9177 63.1756 57.0046C65.6204 59.0901 65.8477 63.3913 63.6857 66.5605L43.9382 95.5849" stroke="#084C8D" stroke-width="4" stroke-miterlimit="10" stroke-linecap="round" stroke-linejoin="round"/>
<path d="M45.3168 60.9704V26.9059C45.3168 23.2177 48.361 20.2 52.0815 20.2H83.2114C86.932 20.2 89.9761 23.2177 89.9761 26.9059V80.8064C89.9761 84.4947 86.932 87.5123 83.2114 87.5123H57.1091" stroke="#197FFF" stroke-width="4" stroke-miterlimit="10" stroke-linecap="round" stroke-linejoin="round"/>
<path d="M45.8458 45.7615C45.8458 45.7615 25.5923 62.8562 25.1296 65.5385C24.7508 67.7179 25.4976 87.7417 25.7898 95.5232" stroke="#084C8D" stroke-width="4" stroke-miterlimit="10" stroke-linecap="round" stroke-linejoin="round"/>
</svg>
