<svg width="115" height="114" viewBox="0 0 115 114" fill="none" xmlns="http://www.w3.org/2000/svg">
<path d="M45.3168 65.6842V26.0135C45.3168 22.3253 48.361 19.3076 52.0815 19.3076H83.2114C86.932 19.3076 89.9761 22.3253 89.9761 26.0135V79.914C89.9761 83.6023 86.932 86.6199 83.2114 86.6199H57.1091" stroke="#084C8D" stroke-width="2.5" stroke-miterlimit="10" stroke-linejoin="round"/>
<path d="M77.7941 19.3667V86.4202" stroke="#084C8D" stroke-width="2.5" stroke-miterlimit="10" stroke-linecap="round" stroke-linejoin="round"/>
<path d="M38.1327 74.0398L53.8512 57.3194C56.5367 54.5713 60.7322 54.0255 63.1756 56.1123C65.6204 58.1979 65.8477 62.499 63.6857 65.6682L43.9382 94.6926" stroke="#084C8D" stroke-width="2.5" stroke-miterlimit="10" stroke-linejoin="round"/>
<path d="M45.8458 44.8691C45.8458 44.8691 25.5923 61.9638 25.1296 64.6461C24.7508 66.8255 25.4976 86.8493 25.7898 94.6308" stroke="#084C8D" stroke-width="2.5" stroke-miterlimit="10"/>
</svg>
