<?xml version="1.0" encoding="UTF-8"?>
<svg width="90px" height="90px" viewBox="0 0 90 90" version="1.1" xmlns="http://www.w3.org/2000/svg" xmlns:xlink="http://www.w3.org/1999/xlink">
    <!-- Generator: Sketch 46.2 (44496) - http://www.bohemiancoding.com/sketch -->
    <title>electronic_money_transfer</title>
    <desc>Created with Sketch.</desc>
    <defs></defs>
    <g id="Page-1" stroke="none" stroke-width="1" fill="none" fill-rule="evenodd">
        <g id="electronic_money_transfer" fill-rule="nonzero">
            <g id="2138766---business-data" transform="translate(6.000000, 16.000000)">
                <path d="M40.665625,10.4479167 L19.009375,10.4479167 C18.1671875,10.4479167 17.4453125,11.1854167 17.4453125,12.0458333 C17.4453125,12.90625 18.046875,13.5208333 18.8890625,13.5208333 L40.5453125,13.5208333 C41.3875,13.5208333 42.109375,12.7833333 42.109375,11.9229167 C42.109375,11.0625 41.5078125,10.4479167 40.665625,10.4479167 Z" id="Shape" fill="#24BE00"></path>
                <path d="M40.665625,20.4041667 L34.5296875,20.4041667 C33.6875,20.4041667 32.965625,21.1416667 32.965625,22.0020833 C32.965625,22.8625 33.6875,23.6 34.5296875,23.6 L40.665625,23.6 C41.5078125,23.6 42.2296875,22.8625 42.2296875,22.0020833 C42.2296875,21.1416667 41.5078125,20.4041667 40.665625,20.4041667 Z" id="Shape" fill="#24BE00"></path>
                <path d="M18.8890625,20.4041667 C18.046875,20.4041667 17.325,21.1416667 17.325,22.0020833 C17.325,22.8625 18.046875,23.6 18.8890625,23.6 L26.1078125,23.6 C26.95,23.6 27.671875,22.8625 27.671875,22.0020833 C27.671875,21.1416667 26.95,20.4041667 26.1078125,20.4041667 L18.8890625,20.4041667 Z" id="Shape" fill="#24BE00"></path>
                <path d="M18.8890625,33.4333333 L40.90625,33.4333333 C41.7484375,33.4333333 42.4703125,32.6958333 42.4703125,31.8354167 C42.4703125,30.975 41.7484375,30.2375 40.90625,30.2375 L18.8890625,30.2375 C18.046875,30.2375 17.325,30.975 17.325,31.8354167 C17.325,32.6958333 18.046875,33.4333333 18.8890625,33.4333333 Z" id="Shape" fill="#24BE00"></path>
                <path d="M53.178125,35.03125 C54.0203125,35.03125 54.7421875,34.29375 54.7421875,33.4333333 L54.7421875,31.9583333 C55.9453125,31.7125 57.028125,31.2208333 57.8703125,30.3604167 C59.0734375,29.2541667 59.675,27.9020833 59.675,26.3041667 C59.675,24.70625 59.0734375,23.3541667 57.8703125,22.2479167 C56.7875,21.1416667 55.2234375,20.65 53.7796875,20.0354167 C51.253125,19.175 50.1703125,18.5604167 49.9296875,17.2083333 C49.809375,16.225 50.53125,15.11875 51.6140625,14.75 C52.9375,14.38125 54.621875,14.5041667 56.30625,15.2416667 C57.028125,15.6104167 57.990625,15.11875 58.23125,14.38125 C58.5921875,13.64375 58.1109375,12.6604167 57.3890625,12.4145833 C56.4265625,12.0458333 55.584375,11.8 54.621875,11.6770833 L54.621875,10.325 C54.621875,9.46458333 53.9,8.72708333 53.0578125,8.72708333 C52.215625,8.72708333 51.49375,9.46458333 51.49375,10.325 L51.49375,11.6770833 C51.1328125,11.6770833 50.8921875,11.8 50.6515625,11.9229167 C48.125,12.6604167 46.440625,15.2416667 46.8015625,17.7 C47.2828125,21.1416667 50.290625,22.2479167 52.5765625,23.1083333 C53.7796875,23.6 54.9828125,23.96875 55.584375,24.5833333 C56.065625,25.075 56.4265625,25.6895833 56.4265625,26.4270833 C56.4265625,27.0416667 56.065625,27.7791667 55.584375,28.2708333 C54.9828125,28.8854167 54.0203125,29.13125 52.9375,29.2541667 C51.975,29.2541667 50.8921875,29.2541667 49.6890625,29.0083333 C49.328125,29.0083333 49.0875,28.8854167 48.7265625,28.7625 C47.884375,28.5166667 47.0421875,29.0083333 46.8015625,29.7458333 C46.5609375,30.60625 47.0421875,31.4666667 47.7640625,31.7125 C48.125,31.8354167 48.60625,31.9583333 48.9671875,31.9583333 C49.809375,32.08125 50.6515625,32.2041667 51.3734375,32.3270833 L51.3734375,33.55625 C51.6140625,34.29375 52.3359375,35.03125 53.178125,35.03125 Z" id="Shape" fill="#24BE00"></path>
                <path d="M7.5796875,48.7979167 C7.5796875,48.7979167 7.5796875,48.7979167 7.5796875,48.7979167 L31.1609375,48.7979167 C31.7625,50.3958333 33.3265625,51.5020833 35.13125,51.5020833 L41.628125,51.5020833 C43.4328125,51.5020833 44.996875,50.3958333 45.5984375,48.7979167 L69.540625,48.7979167 C69.540625,48.7979167 69.540625,48.7979167 69.540625,48.7979167 C70.3828125,48.7979167 70.984375,48.0604167 71.1046875,47.3229167 C71.1046875,46.4625 70.3828125,45.725 69.6609375,45.725 L43.3125,45.725 L43.071875,47.3229167 C42.9515625,47.9375 42.4703125,48.4291667 41.7484375,48.4291667 L35.2515625,48.4291667 C34.5296875,48.4291667 34.0484375,47.9375 33.928125,47.2 L33.6875,45.725 L7.5796875,45.725 C6.7375,45.725 6.1359375,46.4625 6.1359375,47.3229167 C6.1359375,48.1833333 6.7375,48.7979167 7.5796875,48.7979167 Z" id="Shape" fill="#446AAB"></path>
                <path d="M10.10625,43.7583333 C10.9484375,43.7583333 11.6703125,43.0208333 11.6703125,42.1604167 L11.6703125,7.49791667 C11.6703125,5.1625 13.5953125,3.19583333 15.88125,3.19583333 L61.359375,3.19583333 C63.6453125,3.19583333 65.5703125,5.1625 65.5703125,7.49791667 L65.5703125,42.1604167 C65.5703125,43.0208333 66.2921875,43.7583333 67.134375,43.7583333 C67.9765625,43.7583333 68.6984375,43.0208333 68.6984375,42.1604167 L68.6984375,7.49791667 C68.6984375,3.44166667 65.45,0.122916667 61.4796875,0.122916667 L15.7609375,0.122916667 C11.790625,0.122916667 8.5421875,3.44166667 8.5421875,7.49791667 L8.5421875,42.1604167 C8.5421875,43.0208333 9.2640625,43.7583333 10.10625,43.7583333 Z" id="Shape" fill="#446AAB"></path>
                <path d="M75.075,45.725 C74.2328125,45.725 73.5109375,46.4625 73.5109375,47.3229167 L73.5109375,51.0104167 C73.5109375,53.7145833 71.3453125,55.9270833 68.6984375,55.9270833 L8.18125,55.9270833 C5.534375,55.9270833 3.36875,53.7145833 3.36875,51.0104167 L3.36875,47.3229167 C3.36875,46.4625 2.646875,45.725 1.8046875,45.725 C0.9625,45.725 0.240625,46.4625 0.240625,47.3229167 L0.240625,51.0104167 C0.240625,55.4354167 3.7296875,59 8.0609375,59 L68.578125,59 C72.909375,59 76.3984375,55.4354167 76.3984375,51.0104167 L76.3984375,47.3229167 C76.51875,46.3395833 75.9171875,45.725 75.075,45.725 Z" id="Shape" fill="#446AAB"></path>
            </g>
        </g>
    </g>
</svg>