<?xml version="1.0" encoding="UTF-8"?>
<svg width="90px" height="90px" viewBox="0 0 90 90" version="1.1" xmlns="http://www.w3.org/2000/svg" xmlns:xlink="http://www.w3.org/1999/xlink">
    <!-- Generator: Sketch 46.2 (44496) - http://www.bohemiancoding.com/sketch -->
    <title>secure_application</title>
    <desc>Created with Sketch.</desc>
    <defs></defs>
    <g id="Page-1" stroke="none" stroke-width="1" fill="none" fill-rule="evenodd">
        <g id="secure_application" fill-rule="nonzero">
            <g id="easy_application" transform="translate(16.000000, 5.000000)">
                <path d="M9.27573871,32.5190523 C9.27573871,32.8898388 9.27573871,33.2606253 9.40092464,33.5078163 C10.7779699,45.2493894 17.0372663,54.7662433 27.6780702,61.0696141 C27.8032562,61.0696141 27.8032562,61.1932096 27.9284421,61.1932096 L29.4306732,61.9347826 L30.9329044,61.1932096 C31.0580903,61.1932096 31.0580903,61.0696141 31.1832762,61.0696141 C41.8240802,54.8898388 48.0833766,45.3729849 49.4604219,33.5078163 C49.4604219,33.2606253 49.4604219,32.8898388 49.5856078,32.6426478 C49.7107937,30.6651197 48.4589344,28.9347826 46.4559596,28.4404006 L46.4559596,28.4404006 C45.0789143,28.0696141 38.569246,25.9684905 32.8106933,23.9909624 C30.6825325,23.2493894 28.3039999,23.2493894 26.0506532,23.9909624 C20.6676582,25.844895 13.7824321,28.0696141 12.4053869,28.4404006 C10.4024121,28.8111871 9.02536685,30.5415242 9.27573871,32.5190523 Z M13.1565025,31.2830972 C14.6587336,30.9123107 21.1684019,28.6875916 26.9269547,26.833659 C27.6780702,26.586468 28.4291858,26.4628725 29.3054873,26.4628725 C30.0566029,26.4628725 30.9329044,26.586468 31.68402,26.833659 C34.4381104,27.6988276 43.7018691,30.7887152 45.4544721,31.2830972 C45.9552158,31.4066927 46.3307736,31.7774792 46.3307736,32.2718613 C46.3307736,32.6426478 46.3307736,32.8898388 46.2055877,33.1370298 C44.9537284,43.8898388 39.1951757,52.6651197 29.4306732,58.3505129 L29.4306732,58.3505129 L29.3054873,58.2269174 C19.5409849,52.5415242 13.7824321,43.7662433 12.5305729,33.0134343 C12.5305729,32.7662433 12.5305729,32.5190523 12.4053869,32.1482658 C12.280201,31.7774792 12.6557588,31.4066927 13.1565025,31.2830972 Z" id="Shape" fill="#24BE00"></path>
                <path d="M58,19.5792944 C58,13.6519957 53.6344086,9.20652174 47.5225806,9.20652174 L46.2752688,9.20652174 L46.2752688,12.1701711 L46.5247312,12.1701711 C46.7741935,12.1701711 47.0236559,12.1701711 47.2731183,12.1701711 C48.1462366,12.1701711 49.144086,12.1701711 50.2666667,12.5406272 C53.2602151,13.5285103 55.0064516,16.1217035 55.0064516,19.455809 L55.0064516,41.065752 L55.0064516,49.339273 C55.0064516,50.4506415 55.0064516,50.3271561 55.0064516,51.56201 C55.0064516,54.1552031 55.0064516,63.9105488 55.0064516,66.503742 C55.0064516,68.4795082 54.3827957,70.2083036 53.0107527,71.6901283 C51.6387097,73.171953 49.6430108,73.9128653 47.5225806,73.9128653 C42.6580645,73.9128653 37.544086,73.9128653 31.1827957,73.9128653 L10.4774194,73.9128653 C6.11182796,73.9128653 2.99354839,70.949216 2.99354839,66.503742 C2.99354839,53.5377762 2.99354839,35.0149679 2.99354839,20.3202067 C2.99354839,19.2088382 2.99354839,17.9739843 3.36774194,16.9861012 C4.24086022,14.1459373 6.36129032,12.5406272 9.23010753,12.1701711 C9.85376344,12.0466857 10.6021505,12.0466857 11.6,12.0466857 L11.7247312,12.0466857 L11.7247312,9.20652174 L9.97849462,9.20652174 C9.23010753,9.20652174 8.48172043,9.33000713 7.85806452,9.45349252 C3.11827957,10.564861 0,14.5163934 0,19.3323236 L0,43.9059159 C0,49.4627584 0,61.1938703 0,66.9976835 C0,67.8620813 0.124731183,68.8499644 0.374193548,69.8378475 C1.24731183,73.2954383 4.73978495,77 10.1032258,77 L10.1032258,77 L10.3526882,77 C11.8494624,77 13.3462366,77 15.2172043,77 C16.4645161,77 17.711828,77 18.9591398,77 C20.2064516,77 21.4537634,77 22.7010753,77 L24.9462366,77 L36.0473118,77 C39.4150538,77 44.0301075,77 48.5204301,77 C53.2602151,77 57.5010753,72.9249822 57.8752688,68.2325374 C58,65.886315 58,63.4166073 58,61.0703849 L58,51.9324661 C58,37.8551319 58,30.0755524 58,19.5792944 Z" id="Shape" fill="#446AAB"></path>
                <path d="M16.9105398,13.3913043 L42.0744883,13.3913043 C43.206866,13.3913043 43.7101449,12.9087348 43.7101449,11.8229534 C43.7101449,10.9784567 43.7101449,9.7720329 43.7101449,8.92753623 C43.7101449,6.63533098 43.5843252,6.39404622 41.0679303,6.5146886 C39.1806342,6.5146886 37.5449775,6.15276146 36.1609604,4.94633764 C35.2802222,4.10184097 34.6511235,3.13670192 34.0220247,2.05092049 C33.2671063,0.723854289 32.1347286,0 30.499072,0 C29.7441535,0 28.8634153,0 28.1084968,0 C26.7244797,0 25.592102,0.603211908 24.9630033,1.80963572 C24.5855441,2.29220525 24.3339046,2.89541716 23.9564453,3.37798668 C23.0757071,4.94633764 21.5658702,5.91147669 19.8043938,6.27340384 C18.7978359,6.5146886 17.6654582,6.39404622 16.6589003,6.39404622 C15.6523423,6.39404622 15.1490634,6.87661575 15.1490634,7.8417548 C15.1490634,8.92753623 15.1490634,10.4958872 15.1490634,11.5816686 C15.0232436,13.0293772 15.5265226,13.3913043 16.9105398,13.3913043 Z M18.1687372,9.41010576 C18.7978359,9.41010576 19.5527544,9.41010576 20.3076728,9.16882099 C22.9498874,8.68625147 25.2146428,7.11790051 26.5986599,4.82569526 C26.7244797,4.5844105 26.8502994,4.34312573 26.9761192,4.10184097 C27.1019389,3.86055621 27.3535784,3.49862906 27.4793981,3.2573443 C27.6052179,3.01605954 27.7310376,3.01605954 28.1084968,3.01605954 C28.3601363,3.01605954 28.4859561,3.01605954 28.7375956,3.01605954 L29.8699732,3.01605954 C30.1216127,3.01605954 30.3732522,3.01605954 30.6248917,3.01605954 C30.8765312,3.01605954 31.1281707,3.01605954 31.5056299,3.61927145 L31.6314496,3.73991383 C32.2605484,4.82569526 33.0154668,6.03211908 34.1478445,7.11790051 C35.7835011,8.68625147 38.0482565,9.53074814 40.6904711,9.53074814 L40.6904711,10.3752448 L18.1687372,10.3752448 L18.1687372,9.41010576 Z" id="Shape" fill="#446AAB"></path>
            </g>
        </g>
    </g>
</svg>