<?xml version="1.0" encoding="UTF-8"?>
<svg width="90px" height="90px" viewBox="0 0 90 90" version="1.1" xmlns="http://www.w3.org/2000/svg" xmlns:xlink="http://www.w3.org/1999/xlink">
    <!-- Generator: Sketch 46.2 (44496) - http://www.bohemiancoding.com/sketch -->
    <title>fast_access</title>
    <desc>Created with Sketch.</desc>
    <defs></defs>
    <g id="Page-1" stroke="none" stroke-width="1" fill="none" fill-rule="evenodd">
        <g id="fast_access" fill-rule="nonzero">
            <g transform="translate(18.000000, 6.000000)" id="Shape">
                <path d="M54.25,71.5354839 C53.875,70.7903226 53.375,70.1693548 53,69.6725806 C52.5,69.0516129 52.125,68.5548387 51.875,67.933871 C50.375,64.2080645 51,59.2403226 51.625,55.7629032 C53.375,46.0758065 53,43.5919355 50.375,37.133871 C48.125,31.6693548 43.75,26.7016129 38,23.1 L37.625,22.8516129 L39,19.1258065 C40.125,16.0209677 40.875,14.033871 41.125,13.1645161 C41.25,12.7919355 41.5,12.2951613 41.75,11.6741935 L41.875,11.4258065 C42.125,10.9290323 42.375,10.3080645 42.625,9.68709677 C43.25,8.07258065 43,6.33387097 42.125,5.09193548 C41,3.47741935 38.875,2.73225806 36.625,3.22903226 C36,3.35322581 35.375,3.6016129 34.75,3.85 L34.25,4.0983871 L33.875,3.47741935 C32.5,1.49032258 30.625,0.372580645 28.5,0.372580645 C28.375,0.372580645 28.25,0.372580645 28,0.372580645 C26.5,0.496774194 24.25,1.11774194 22.75,3.72580645 L22.625,3.85 C22.5,4.0983871 22.375,4.34677419 22.25,4.59516129 L22.25,4.96774194 L20,4.96774194 C17.125,4.96774194 14.875,5.34032258 13.625,7.4516129 C12.75,8.81774194 12.75,10.6806452 13.5,12.2951613 C13.875,13.0403226 16.875,17.7596774 19,20.7403226 L19.375,21.2370968 L18.75,21.6096774 C18,22.1064516 17.375,22.6032258 16.625,23.1 L16,23.5967742 C12.375,26.0806452 9.5,28.8129032 7.375,31.7935484 C1,40.8596774 1.625,47.9387097 3,55.6387097 L3.25,56.7564516 C3.5,58.3709677 3.875,59.8612903 4,61.3516129 C4.125,62.8419355 3.75,64.4564516 3,66.1951613 C2.75,66.6919355 2.375,67.3129032 2,67.933871 C1.625,68.4306452 1.25,69.0516129 0.875,69.6725806 C0.375,70.5419355 0.375,71.5354839 0.75,72.4048387 C1.125,73.2741935 2,74.0193548 3,74.1435484 C5.125,74.6403226 7.125,74.3919355 9.125,74.2677419 C9.75,74.2677419 10.25,74.1435484 10.75,74.1435484 C11,74.1435484 11.25,74.1435484 11.5,74.1435484 C13.75,74.1435484 16,74.7645161 18.25,75.3854839 C19.625,75.7580645 20.875,76.1306452 22.25,76.3790323 C23.75,76.6274194 25.125,76.7516129 26.75,76.7516129 C30.25,76.7516129 33.75,76.1306452 37.25,75.5096774 L39.375,75.1370968 C41.375,74.7645161 43.25,74.3919355 45.125,74.3919355 L45.5,74.3919355 C46.375,74.3919355 48.125,74.2677419 49.625,74.2677419 C52.625,74.1435484 53.375,74.0193548 53.875,73.15 C54.5,72.5290323 54.5,72.0322581 54.25,71.5354839 Z M49,71.0387097 C48.125,71.0387097 47,71.1629032 45.625,71.1629032 L45.25,71.1629032 C43.125,71.2870968 41.125,71.6596774 39.125,72.0322581 L36.875,72.4048387 C33.5,73.0258065 30.25,73.6467742 27,73.6467742 C25.625,73.6467742 24.375,73.5225806 23,73.2741935 C21.75,73.0258065 20.5,72.6532258 19.25,72.4048387 C16.5,71.6596774 13.625,70.9145161 10.625,71.1629032 C10,71.1629032 9.5,71.2870968 8.875,71.2870968 C7.375,71.4112903 5.875,71.5354839 4.5,71.4112903 L3.5,71.2870968 L4.5,69.6725806 C5,68.9274194 5.5,68.1822581 5.75,67.5612903 C6.75,65.3258065 7.125,63.2145161 7,61.2274194 C6.875,59.4887097 6.5,57.8741935 6.25,56.2596774 L6,55.1419355 C5,49.1806452 3.75,42.35 10,33.5322581 C11.875,30.8 14.5,28.316129 17.75,26.0806452 C18,25.9564516 18.25,25.7080645 18.5,25.583871 C21,23.7209677 22.375,23.1 23.25,23.1 L27.5,23.1 C28.375,23.1 29,22.3548387 29,21.6096774 C29,20.7403226 28.25,20.1193548 27.5,20.1193548 L23.25,20.1193548 C23,20.1193548 22.75,20.1193548 22.5,20.1193548 L22.125,20.2435484 L21.875,19.8709677 C20.875,18.3806452 17.5,13.1645161 16.5,11.0532258 C16.125,10.183871 16.25,9.56290323 16.375,9.19032258 C16.625,8.81774194 17.125,8.32096774 18.375,8.19677419 C18.625,8.19677419 18.875,8.19677419 19.125,8.19677419 L20.25,8.19677419 L20.625,8.19677419 L20.875,8.19677419 C21.125,8.19677419 21.5,8.19677419 21.75,8.19677419 L22.25,8.19677419 L23.875,13.7854839 C24.125,14.5306452 24.75,15.0274194 25.5,15.0274194 C25.625,15.0274194 25.875,15.0274194 25.875,15.0274194 C26.75,14.7790323 27.25,13.9096774 27.125,13.0403226 L25.125,6.20967742 L25.25,5.96129032 C25.375,5.71290323 25.5,5.58870968 25.5,5.34032258 C26.25,4.0983871 27.125,3.6016129 28.25,3.47741935 L28.5,3.47741935 L28.5,3.47741935 C29.625,3.47741935 30.5,3.97419355 31.25,5.09193548 C31.5,5.46451613 31.625,5.83709677 31.875,6.20967742 C32,6.45806452 32.125,6.58225806 32.125,6.70645161 C32.625,7.57580645 33.25,7.7 34.25,7.32741935 L34.875,7.07903226 C35.625,6.70645161 36.5,6.33387097 37.375,6.20967742 C38.25,5.96129032 39.125,6.20967742 39.5,6.83064516 C39.875,7.32741935 39.875,7.82419355 39.625,8.56935484 L34.375,22.3548387 C34.375,22.4790323 34.25,22.4790323 34.25,22.6032258 C33.875,23.3483871 34.125,24.2177419 34.875,24.7145161 C40.875,28.0677419 45.5,32.9112903 47.625,38.2516129 C50,44.2129032 50.375,46.2 48.625,55.1419355 C47.875,58.9919355 47.125,64.5806452 49,69.0516129 L49,69.0516129 C49.125,69.4241935 49.375,69.6725806 49.5,70.0451613 L50,70.9145161 L49,71.0387097 Z" fill="#446AAB"></path>
                <path d="M28,47.566129 C24,46.2 21.5,45.0822581 21.125,42.35 C20.875,40.2387097 22.375,38.1274194 24.625,37.5064516 C26.875,36.8854839 30,37.133871 33,38.2516129 C33.75,38.5 34.625,38.1274194 35,37.2580645 C35.375,36.5129032 34.875,35.5193548 34.125,35.2709677 C32.375,34.65 30.625,34.1532258 29,34.0290323 L29,31.1725806 C29,30.3032258 28.25,29.5580645 27.375,29.5580645 C26.5,29.5580645 25.75,30.3032258 25.75,31.1725806 L25.75,34.0290323 C25,34.1532258 24.25,34.2774194 23.625,34.4016129 C20,35.5193548 17.5,39.1209677 18,42.7225806 C18.625,47.6903226 23.25,49.1806452 26.875,50.5467742 C29,51.2919355 31,51.9129032 32.125,53.1548387 C33.125,54.1483871 33.75,55.3903226 33.75,56.7564516 C33.75,58.1225806 33.125,59.3645161 32,60.233871 C30.75,61.3516129 29.25,61.8483871 27.125,62.0967742 C25.5,62.2209677 23.75,61.9725806 21.5,61.6 C21,61.4758065 20.375,61.3516129 19.875,61.2274194 C19,60.9790323 18.125,61.4758065 17.875,62.2209677 C17.625,63.0903226 18.125,63.9596774 18.875,64.2080645 C19.5,64.4564516 20.25,64.5806452 20.75,64.7048387 C22.5,65.0774194 24,65.2016129 25.375,65.2016129 L25.375,68.0580645 C25.375,68.9274194 26.125,69.6725806 27,69.6725806 C27.875,69.6725806 28.625,68.9274194 28.625,68.0580645 L28.625,65.0774194 C30.75,64.7048387 32.5,63.9596774 34,62.7177419 C35.75,61.2274194 36.75,59.116129 36.75,56.8806452 C36.75,54.6451613 35.875,52.533871 34.125,51.0435484 C32.75,49.1806452 30.375,48.3112903 28,47.566129 Z" fill="#24BE00"></path>
            </g>
        </g>
    </g>
</svg>