<svg width="25" height="25" viewBox="0 0 25 25" fill="none" xmlns="http://www.w3.org/2000/svg">
<g clip-path="url(#clip0_910_311)">
<path d="M18.9562 0H6.92592C3.61712 0 0.90123 2.71589 0.90123 6.04382V18.0741C0.90123 21.3829 3.61712 24.0988 6.92592 24.0988H18.9562C22.2841 24.0988 25 21.3829 25 18.0549V6.04382C25 2.71589 22.2841 0 18.9562 0ZM16.1829 12.0494H13.9069V19.5085H11.038V12.0494H9.50793V8.98922H10.8468V7.68865C10.8468 6.46459 11.4588 4.53286 14.0408 4.53286H16.3933V7.07662H14.7293C14.4616 7.07662 14.0982 7.24876 14.0982 7.84166V8.98922H16.4507L16.1829 12.0494Z" fill="#585858"/>
</g>
<defs>
<clipPath id="clip0_910_311">
<rect width="24.0988" height="24.0988" fill="white" transform="translate(0.90123)"/>
</clipPath>
</defs>
</svg>
