<?xml version="1.0" encoding="utf-8"?>
<!-- Generator: Adobe Illustrator 18.0.0, SVG Export Plug-In . SVG Version: 6.00 Build 0)  -->
<!DOCTYPE svg PUBLIC "-//W3C//DTD SVG 1.1//EN" "http://www.w3.org/Graphics/SVG/1.1/DTD/svg11.dtd">
<svg version="1.1" id="Busines_and_FInance" xmlns="http://www.w3.org/2000/svg" xmlns:xlink="http://www.w3.org/1999/xlink"
	 x="0px" y="0px" width="415px" height="252px" viewBox="0 0 415 252" enable-background="new 0 0 415 252" xml:space="preserve">
<g>
	<path fill="#C5DEEA" d="M206.6,58.8h45.9l52.3,26l-24-26h17.6c3.5,0,6.4-4.1,6.4-9.2V9.2c0-5.1-2.9-9.2-6.4-9.2h-91.9
		c-3.5,0-6.4,4.1-6.4,9.2v40.3C200.2,54.6,203.1,58.8,206.6,58.8z"/>
	<path fill="#0065BD" d="M225.3,105.5h-47.5l-54.1,26.9l24.8-26.9h-18.2c-3.6,0-6.6-4.3-6.6-9.5V54.3c0-5.2,3-9.5,6.6-9.5h95
		c3.6,0,6.6,4.3,6.6,9.5V96C231.9,101.2,228.9,105.5,225.3,105.5z"/>
	<g>
		<path fill="#FFFFFF" d="M184.6,88.3v3.4h-5.4c-1.3,0-2.2-0.1-2.8-0.3c-0.5-0.2-0.9-0.5-1.1-0.9c-0.2-0.4-0.3-1.1-0.3-2.1
			c-1.6,0-3-0.5-4.2-1.3c-1.2-0.8-2-1.8-2.3-3.1c-0.4-1.2-0.6-3.1-0.6-5.6v-8.6c0-1.9,0.1-3.3,0.3-4.3c0.2-1,0.7-1.9,1.4-2.8
			c0.7-0.9,1.6-1.5,2.7-2c1.1-0.4,2.3-0.7,3.6-0.7c1.6,0,3,0.3,4.3,0.8c1.3,0.5,2.2,1.2,2.8,2.1c0.6,0.8,1,1.7,1.2,2.6
			c0.2,0.9,0.3,2.3,0.3,4v9c0,2.5-0.1,4.1-0.4,5c-0.2,0.9-0.7,1.6-1.4,2.1c-0.7,0.5-1.6,0.9-2.7,1.2c0,0.6,0.2,1,0.4,1.2
			c0.2,0.2,0.7,0.2,1.6,0.2H184.6z M177.4,67.7c0-1.3-0.1-2.1-0.2-2.5c-0.1-0.4-0.4-0.5-0.9-0.5c-0.4,0-0.7,0.1-0.9,0.4
			c-0.2,0.3-0.3,1.1-0.3,2.6v12.9c0,1.6,0.1,2.6,0.2,3c0.1,0.4,0.4,0.6,0.9,0.6c0.5,0,0.8-0.2,0.9-0.6c0.1-0.4,0.2-1.5,0.2-3.1V67.7
			z"/>
	</g>
	<g>
		<path d="M258.4,14.6l4.1,27.7h-7.4l-0.4-5h-2.6l-0.4,5h-7.4l3.7-27.7H258.4z M254.6,32.4c-0.4-3.1-0.7-7-1.1-11.6
			c-0.7,5.3-1.2,9.2-1.4,11.6H254.6z"/>
	</g>
	<g>
		<g>
			<g>
				<g opacity="0.3">
					<path fill="#231F20" d="M406.5,212.4l-2.5-68.8c0-0.4,0-0.8,0-1.2c-0.8-37.6-18.1-51.4-31.2-56.5c-4.3-1.9-8.9-3-13.7-3
						c-0.1,0-0.2,0-0.3,0c-0.5,0-0.8,0-0.8,0c-42.6-0.5-42.7,60.6-42.7,60.6v60.5c-6.6,8.9-7.8,37.1-7.8,37.1s12.8,7.5,51.6,7.5
						s51.6-7.5,51.6-7.5S409.9,224.2,406.5,212.4z"/>
				</g>
				<g>
					<path fill="#3C2415" d="M315.2,225.8v-82c0,0,24.3-44.7,40.2-43.4c15.9,1.3,49.8,34,48.6,43.4l3,82H315.2z"/>
					<path fill="#D9B99A" d="M359,206.9L359,206.9c-6.2,0-11.2-5-11.2-11.2v-30.4c0-6.2,5-11.2,11.2-11.2l0,0
						c6.2,0,11.2,5,11.2,11.2v30.4C370.2,201.9,365.2,206.9,359,206.9z"/>
					<ellipse fill="#F0CDAC" cx="359" cy="128.5" rx="38.4" ry="45.3"/>
					<path fill="#3C2415" d="M403.9,143.9c-0.7-62.2-46.1-60.7-46.1-60.7c-42.6-0.5-42.7,60.6-42.7,60.6
						c25.9,0.7,32.8-25.2,32.8-25.2s25.9,23.1,48.3,25.2L403.9,143.9z"/>
					<path fill="#231F20" d="M398.5,201.7c-10.5,0-28.3-16.2-28.3-16.2L359,201.7l-11.2-16.2c0,0-17.8,16.2-28.3,16.2
						s-12.1,39.7-12.1,39.7s12.8,7.5,51.6,7.5s51.6-7.5,51.6-7.5S409,201.7,398.5,201.7z"/>
					<path fill="#F1F2F2" d="M371.4,186.5c-0.7-0.6-1.2-1-1.2-1L359,201.7l-11.2-16.2c0,0-0.4,0.4-1.2,1c-0.1,3-0.2,6.1-0.2,9.3
						c0,29.4,12.6,53.2,12.6,53.2s12.6-23.8,12.6-53.2C371.6,192.6,371.5,189.5,371.4,186.5z"/>
					<path fill="#A7A9AC" d="M356.2,204.7c-0.4,0.5-0.9,1-1.3,1.6c-0.3,0.3-0.6,0.7-0.8,1c-0.5-0.5-0.9-1.1-1.4-1.6
						c-0.6-0.7-1.3-1.4-1.9-2.1c-1.3-1.4-2.7-2.7-4.2-3.9c1,1.6,2.2,3.2,3.4,4.7c0.6,0.7,1.2,1.5,1.8,2.2c0.6,0.7,1.2,1.4,1.9,2.1
						l0.5,0.6l0.4-0.6c0.4-0.5,0.8-1.1,1.2-1.7c0.4-0.6,0.8-1.1,1.2-1.7c0.7-1.2,1.5-2.3,2.1-3.5C358,202.7,357.1,203.7,356.2,204.7
						z"/>
					<path fill="#A7A9AC" d="M361.8,204.8c0.4,0.5,0.9,1,1.3,1.6c0.3,0.3,0.6,0.7,0.8,1c0.5-0.5,0.9-1.1,1.4-1.6
						c0.6-0.7,1.3-1.4,1.9-2.1c1.3-1.4,2.7-2.7,4.2-3.9c-1,1.6-2.2,3.2-3.4,4.7c-0.6,0.7-1.2,1.5-1.8,2.2c-0.6,0.7-1.2,1.4-1.9,2.1
						l-0.5,0.6l-0.4-0.6c-0.4-0.5-0.8-1.1-1.2-1.7c-0.4-0.6-0.8-1.1-1.2-1.7c-0.7-1.2-1.5-2.3-2.1-3.5
						C360,202.7,360.9,203.7,361.8,204.8z"/>
					<path fill="#F15A29" d="M361.4,218.5c0.4,1.8-1.2,3.4-3,3c-0.9-0.2-1.6-0.9-1.8-1.8c-0.4-1.8,1.2-3.4,3-3
						C360.5,216.9,361.2,217.6,361.4,218.5z"/>
					<rect x="374.6" y="225.8" fill="#FFFFFF" width="21.5" height="4.7"/>
				</g>
			</g>
			<g>
				<g>
					<g>
						<path fill="#F15A29" d="M372.3,164.8c-1.4,0-2.2-0.1-2.3-0.1l0.2-2.1l-0.1,1.1l0.1-1.1c0.2,0,17.9,1.7,27.3-12.2l1.8,1.2
							c-4.2,6.2-10.6,10.4-18.5,12.2C377.3,164.6,374.2,164.8,372.3,164.8z"/>
					</g>
					<path fill="#3C2415" d="M369.8,165.9h-7.5c-1.5,0-2.7-1.2-2.7-2.7l0,0c0-1.5,1.2-2.7,2.7-2.7h7.5c1.5,0,2.7,1.2,2.7,2.7l0,0
						C372.5,164.6,371.3,165.9,369.8,165.9z"/>
				</g>
				<g>
					<path fill="#C2B59B" d="M404.8,129.5l-3-0.3c0-0.3,2-25.3-12-40.6c-7.3-7.9-17.6-12-30.8-12c-13.2,0-23.5,4-30.8,12
						c-14.1,15.3-12.1,40.3-12,40.6l-3,0.3c0-0.3-0.6-6.7,0.7-15.2c1.2-7.9,4.3-19.1,12.1-27.7c7.9-8.6,19-12.9,33.1-12.9
						c14.1,0,25.2,4.4,33.1,12.9c7.8,8.5,10.9,19.8,12.1,27.7C405.4,122.8,404.9,129.2,404.8,129.5z"/>
				</g>
				<g>
					<path fill="#F1F2F2" d="M316.9,154.4L316.9,154.4c-2.1,0-3.8-1.7-3.8-3.8v-25.4c0-2.1,1.7-3.8,3.8-3.8l0,0
						c2.1,0,3.8,1.7,3.8,3.8v25.4C320.7,152.7,319,154.4,316.9,154.4z"/>
					<path fill="#FBB040" d="M313.1,151c-5,0-9.1-5.9-9.1-13.1c0-7.3,4.1-13.1,9.1-13.1V151z"/>
					<path opacity="0.27" fill="#231F20" d="M306.9,128.2c1.8,2.4,2.9,5.8,2.9,9.7s-1.1,7.3-2.9,9.7c1.6,2.2,3.8,3.5,6.2,3.5v-26.3
						C310.7,124.7,308.5,126.1,306.9,128.2z"/>
					<path opacity="0.5" fill="#231F20" d="M316.9,154.4c2.1,0,3.8-1.7,3.8-3.8v-25.4c0-2.1-1.7-3.8-3.8-3.8l0,0V154.4L316.9,154.4z
						"/>
				</g>
				<g>
					<path fill="#F1F2F2" d="M401.1,154.4L401.1,154.4c2.1,0,3.8-1.7,3.8-3.8v-25.4c0-2.1-1.7-3.8-3.8-3.8l0,0
						c-2.1,0-3.8,1.7-3.8,3.8v25.4C397.3,152.7,399,154.4,401.1,154.4z"/>
					<path fill="#FBB040" d="M404.9,151c5,0,9.1-5.9,9.1-13.1c0-7.3-4.1-13.1-9.1-13.1V151z"/>
					<path opacity="0.27" fill="#231F20" d="M411.1,128.2c-1.8,2.4-2.9,5.8-2.9,9.7s1.1,7.3,2.9,9.7c-1.6,2.2-3.8,3.5-6.2,3.5v-26.3
						C407.3,124.7,409.4,126.1,411.1,128.2z"/>
					<path opacity="0.5" fill="#231F20" d="M401.1,154.4c-2.1,0-3.8-1.7-3.8-3.8v-25.4c0-2.1,1.7-3.8,3.8-3.8l0,0V154.4L401.1,154.4
						z"/>
				</g>
			</g>
		</g>
		<g>
			<g>
				<g opacity="0.3">
					<path fill="#231F20" d="M60.8,250.9c45.6,0,60.6-7.8,60.6-7.8s-2.4-37.7-14.3-41c-9.1-2.5-23.3-10.2-30.5-14.2l0,0
						c-2.5-1.4-4.1-2.4-4.4-2.5c0,0,0,0,0,0v-12.1c12-4.3,21.5-15.1,25.7-28.9l0,0c0,0,5.3-7.1,2.3-27c0,0-6.4-35.9-39.6-35.5
						c-0.5,0-1,0-1.5,0c-0.1,0-0.2,0-0.3,0c-0.1,0-0.2,0-0.3,0c-31.3,1.4-34,27.1-39.5,36.3c-5.6,9.4-15.1,0-15.1,0s4.3,22,18.3,22
						c3.4,15.8,13.7,28.3,26.8,33v12.1c0,0-1.7,1-4.4,2.5v0c-7.1,4-21.1,11.6-30.5,14.2c-11.9,3.3-14.3,41-14.3,41s15,7.8,60.6,7.8
						c0.1,0.1,0.1,0.1,0.1,0.1S60.8,251,60.8,250.9z"/>
				</g>
				<g>
					<path fill="#D9B99A" d="M60.7,202.2L60.7,202.2c-6.4,0-11.6-5.2-11.6-11.6v-24c0-6.4,5.2-11.6,11.6-11.6l0,0
						c6.4,0,11.6,5.2,11.6,11.6v24C72.3,197,67,202.2,60.7,202.2z"/>
					<ellipse fill="#F0CDAC" cx="60.7" cy="128.7" rx="39.6" ry="46.7"/>
					<path fill="#3C2415" d="M100.3,117.4c0,0-6.4-35.9-39.6-35.5c-33.2,0.4-35.9,27-41.6,36.4c-5.6,9.4-15.1,0-15.1,0
						s4.3,22,18.3,22c14,0,25.8-22,25.8-22s26.3,28.6,49.9,26.2C98,144.5,103.3,137.3,100.3,117.4z"/>
					<path fill="#231F20" d="M107.1,202.2c-12.5-3.4-34.9-16.8-34.9-16.8l-11.6,16.8l-11.6-16.8c0,0-21.9,13.1-34.9,16.8
						c-11.9,3.3-14.3,41-14.3,41s15,7.8,60.7,7.8s60.7-7.8,60.7-7.8S119,205.4,107.1,202.2z"/>
					<rect x="79.3" y="227" fill="#FFFFFF" width="22.2" height="4.9"/>
					<path fill="#F1F2F2" d="M76.7,188c-2.7-1.5-4.4-2.5-4.4-2.5l-11.6,9.9l-11.6-9.9c0,0-1.7,1-4.4,2.5c-0.6,4.8-0.9,10-0.9,15.4
						c0,26.3,16.9,47.6,16.9,47.6s16.9-21.3,16.9-47.6C77.6,198,77.2,192.8,76.7,188z"/>
					<path fill="#F15A29" d="M57.6,192.8l-3,48.8c3.3,5.9,6.1,9.4,6.1,9.4s2.8-3.5,6.1-9.4l-3-48.8l-3.1,2.7L57.6,192.8z"/>
					<path fill="#EF4136" d="M60.7,206.1c2.9-0.8,4.9-6.7,4.9-6.7l-4.9-2.7l-4.9,2.7C55.9,199.4,57.8,205.3,60.7,206.1z"/>
					<path fill="#F15A29" d="M60.7,204.8c3.4-0.8,5.7-6.7,5.7-6.7l-5.7-2.7l-5.7,2.7C55,198.1,57.3,204,60.7,204.8z"/>
					<polygon fill="#BCBEC0" points="53,205 57.4,198.3 44,196.3 					"/>
					<polygon fill="#BCBEC0" points="68.4,205 64,198.3 77.4,196.3 					"/>
					<path fill="#F1F2F2" d="M44,196.3l9,7.3l7.7-8.2l-11.6-9.9c0,0-1.7,1-4.4,2.5C44.4,190.7,44.2,193.4,44,196.3z"/>
					<path fill="#F1F2F2" d="M77.4,196.3l-9,7.3l-7.7-8.2l11.6-9.9c0,0,1.7,1,4.4,2.5C77,190.7,77.2,193.4,77.4,196.3z"/>
				</g>
			</g>
			<g>
				<g>
					<g>
						<path fill="#F15A29" d="M74,164.8c-1.4,0-2.2-0.1-2.3-0.1l0.2-2.1l-0.1,1.1l0.1-1.1c0.2,0,17.9,1.7,27.3-12.2l1.8,1.2
							c-4.2,6.2-10.6,10.4-18.5,12.2C79,164.6,76,164.8,74,164.8z"/>
					</g>
					<path fill="#3C2415" d="M71.5,165.9H64c-1.5,0-2.7-1.2-2.7-2.7l0,0c0-1.5,1.2-2.7,2.7-2.7h7.5c1.5,0,2.7,1.2,2.7,2.7l0,0
						C74.3,164.6,73,165.9,71.5,165.9z"/>
				</g>
				<g>
					<path fill="#C2B59B" d="M106.6,129.5l-3-0.3c0-0.3,2-25.3-12-40.6c-7.3-7.9-17.6-12-30.8-12c-13.2,0-23.5,4-30.8,12
						c-14.1,15.3-12.1,40.3-12,40.6l-3,0.3c0-0.3-0.6-6.7,0.7-15.2c1.2-7.9,4.3-19.1,12.1-27.7c7.9-8.6,19-12.9,33.1-12.9
						c14.1,0,25.2,4.4,33.1,12.9c7.8,8.5,10.9,19.8,12.1,27.7C107.1,122.8,106.6,129.2,106.6,129.5z"/>
				</g>
				<g>
					<path fill="#F1F2F2" d="M18.6,154.4L18.6,154.4c-2.1,0-3.8-1.7-3.8-3.8v-25.4c0-2.1,1.7-3.8,3.8-3.8l0,0c2.1,0,3.8,1.7,3.8,3.8
						v25.4C22.4,152.7,20.7,154.4,18.6,154.4z"/>
					<path fill="#FBB040" d="M14.8,151c-5,0-9.1-5.9-9.1-13.1c0-7.3,4.1-13.1,9.1-13.1V151z"/>
					<path opacity="0.27" fill="#231F20" d="M8.7,128.2c1.8,2.4,2.9,5.8,2.9,9.7s-1.1,7.3-2.9,9.7c1.6,2.2,3.8,3.5,6.2,3.5v-26.3
						C12.5,124.7,10.3,126.1,8.7,128.2z"/>
					<path opacity="0.5" fill="#231F20" d="M18.6,154.4c2.1,0,3.8-1.7,3.8-3.8v-25.4c0-2.1-1.7-3.8-3.8-3.8l0,0V154.4L18.6,154.4z"
						/>
				</g>
				<g>
					<path fill="#F1F2F2" d="M102.9,154.4L102.9,154.4c2.1,0,3.8-1.7,3.8-3.8v-25.4c0-2.1-1.7-3.8-3.8-3.8l0,0
						c-2.1,0-3.8,1.7-3.8,3.8v25.4C99.1,152.7,100.8,154.4,102.9,154.4z"/>
					<path fill="#FBB040" d="M106.7,151c5,0,9.1-5.9,9.1-13.1c0-7.3-4.1-13.1-9.1-13.1V151z"/>
					<path opacity="0.27" fill="#231F20" d="M112.8,128.2c-1.8,2.4-2.9,5.8-2.9,9.7s1.1,7.3,2.9,9.7c-1.6,2.2-3.8,3.5-6.2,3.5v-26.3
						C109,124.7,111.2,126.1,112.8,128.2z"/>
					<path opacity="0.5" fill="#231F20" d="M102.9,154.4c-2.1,0-3.8-1.7-3.8-3.8v-25.4c0-2.1,1.7-3.8,3.8-3.8l0,0V154.4L102.9,154.4
						z"/>
				</g>
			</g>
		</g>
	</g>
</g>
</svg>
