<?xml version="1.0" encoding="utf-8"?>
<!-- Generator: Adobe Illustrator 18.0.0, SVG Export Plug-In . SVG Version: 6.00 Build 0)  -->
<!DOCTYPE svg PUBLIC "-//W3C//DTD SVG 1.1//EN" "http://www.w3.org/Graphics/SVG/1.1/DTD/svg11.dtd">
<svg version="1.1" id="Busines_and_FInance" xmlns="http://www.w3.org/2000/svg" xmlns:xlink="http://www.w3.org/1999/xlink"
	 x="0px" y="0px" width="412px" height="297px" viewBox="0 0 412 297" enable-background="new 0 0 412 297" xml:space="preserve">
<g>
	<path fill="#D17C20" d="M70.4,105c0-0.2-0.1-0.4-0.1-0.5c0,0,0,0,0,0c0-0.2-0.1-0.3-0.1-0.5c0,0,0,0,0-0.1c0-0.2-0.1-0.3-0.1-0.5
		c0,0,0-0.1,0-0.1c0-0.2-0.1-0.3-0.1-0.5c0,0,0-0.1,0-0.1c0-0.1-0.1-0.3-0.1-0.4c0,0,0-0.1,0-0.1c0-0.1-0.1-0.3-0.1-0.4
		c0,0,0-0.1,0-0.1c0-0.1-0.1-0.3-0.1-0.4c0-0.1,0-0.1-0.1-0.2c0-0.1-0.1-0.3-0.1-0.4c0-0.1,0-0.1-0.1-0.2c0-0.1-0.1-0.2-0.1-0.4
		c0-0.1-0.1-0.1-0.1-0.2c0-0.1-0.1-0.2-0.1-0.3c0-0.1-0.1-0.1-0.1-0.2c0-0.1-0.1-0.2-0.1-0.3c0-0.1-0.1-0.2-0.1-0.2
		c0-0.1-0.1-0.2-0.1-0.3c0-0.1-0.1-0.2-0.1-0.2c0-0.1-0.1-0.2-0.1-0.3c0-0.1-0.1-0.2-0.1-0.3c0-0.1-0.1-0.2-0.1-0.3
		c-0.1-0.1-0.1-0.2-0.2-0.3c0-0.1-0.1-0.2-0.1-0.2c-0.1-0.1-0.1-0.2-0.2-0.3c0-0.1-0.1-0.1-0.1-0.2c-0.1-0.1-0.1-0.2-0.2-0.3
		c0-0.1-0.1-0.1-0.1-0.2c-0.1-0.2-0.2-0.3-0.3-0.5c-0.1-0.2-0.2-0.3-0.3-0.5c-0.1-0.1-0.1-0.1-0.2-0.2c-0.1-0.1-0.1-0.2-0.2-0.3
		c-0.1-0.1-0.1-0.1-0.2-0.2c-0.1-0.1-0.1-0.2-0.2-0.3c-0.1-0.1-0.1-0.1-0.2-0.2c-0.1-0.1-0.1-0.2-0.2-0.3c-0.1-0.1-0.1-0.1-0.2-0.2
		c-0.1-0.1-0.1-0.2-0.2-0.2c-0.1-0.1-0.1-0.2-0.2-0.2c-0.1-0.1-0.1-0.1-0.2-0.2c-0.1-0.1-0.2-0.2-0.2-0.2c-0.1-0.1-0.1-0.1-0.2-0.2
		c-0.1-0.1-0.2-0.2-0.3-0.2c-0.1-0.1-0.1-0.1-0.2-0.2c-0.1-0.1-0.2-0.2-0.3-0.3c-0.1,0-0.1-0.1-0.2-0.1c-0.1-0.1-0.2-0.2-0.3-0.3
		c0,0-0.1-0.1-0.1-0.1c-0.1-0.1-0.2-0.2-0.3-0.3c0,0-0.1-0.1-0.1-0.1c-0.1-0.1-0.2-0.2-0.3-0.3c0,0-0.1-0.1-0.1-0.1
		c-0.1-0.1-0.2-0.2-0.3-0.3c0,0-0.1-0.1-0.1-0.1c-0.1-0.1-0.2-0.2-0.4-0.3c0,0-0.1,0-0.1-0.1c-0.1-0.1-0.3-0.2-0.4-0.3
		c0,0,0,0-0.1-0.1c-0.1-0.1-0.3-0.2-0.4-0.3c0,0,0,0-0.1,0c-0.1-0.1-0.3-0.2-0.4-0.3c0,0,0,0,0,0c-0.2-0.1-0.3-0.2-0.5-0.3
		c0,0,0,0,0,0c-0.2-0.1-0.3-0.2-0.5-0.3c0,0,0,0,0,0c-7.5-4-16.9-3.8-24.4,1.4c-10.6,7.4-13.2,22-5.8,32.6
		c7.4,10.6,21.9,13.2,32.5,5.8C68.4,122.7,71.8,113.6,70.4,105C70.4,105,70.4,105,70.4,105z M32.1,119.3c-5.9-8.4-3.8-20.1,4.6-25.9
		c0,0,0.1-0.1,0.1-0.1l0,0c6.3-4.3,14.3-4.3,20.4-0.4c0,0,0,0,0.1,0c0.2,0.2,0.5,0.3,0.7,0.5c0,0,0.1,0.1,0.1,0.1
		c0.2,0.1,0.4,0.3,0.6,0.5c0.1,0,0.1,0.1,0.2,0.1c0.2,0.1,0.4,0.3,0.5,0.4c0.1,0.1,0.1,0.1,0.2,0.2c0.2,0.1,0.3,0.3,0.5,0.4
		c0.1,0.1,0.2,0.2,0.3,0.3c0.1,0.1,0.3,0.3,0.4,0.4c0.1,0.1,0.2,0.2,0.3,0.3c0.1,0.1,0.2,0.2,0.3,0.4c0.1,0.1,0.2,0.3,0.4,0.4
		c0.1,0.1,0.2,0.2,0.2,0.3c0.2,0.3,0.4,0.5,0.6,0.8c0.2,0.3,0.4,0.5,0.5,0.8c0.1,0.1,0.1,0.2,0.2,0.3c0.1,0.2,0.2,0.3,0.3,0.5
		c0.1,0.1,0.1,0.3,0.2,0.4c0.1,0.1,0.1,0.3,0.2,0.4c0.1,0.2,0.2,0.3,0.2,0.5c0.1,0.1,0.1,0.2,0.2,0.3c0.1,0.2,0.2,0.4,0.2,0.6
		c0,0.1,0.1,0.2,0.1,0.3c0.1,0.2,0.2,0.4,0.2,0.6c0,0.1,0.1,0.1,0.1,0.2c0.1,0.2,0.1,0.5,0.2,0.7c0,0.1,0,0.1,0,0.2
		c0.1,0.3,0.1,0.5,0.2,0.8c0,0,0,0,0,0.1c0.1,0.3,0.1,0.6,0.2,0.9c0,0,0,0,0,0c1.1,6.8-1.6,14-7.6,18.2l0,0c0,0-0.1,0.1-0.1,0.1
		C49.6,129.8,38,127.7,32.1,119.3z"/>
	<g>
		<polygon fill="#F4B619" points="45.7,92 32.6,101.2 32,105.7 45.3,124.7 49.7,125.3 56.6,135.3 69.3,126.5 62.3,116.5 63.5,112 
			50.2,93 		"/>
	</g>
	<polygon fill="#F09A20" points="45.7,92 45.7,92 39.2,96.6 32.6,101.2 32.1,105.4 41,99.2 54.3,118.2 45.2,124.6 45.3,124.7 
		49.7,125.3 57.4,136.5 70,127.6 69.2,126.5 69.3,126.4 62.4,116.4 63.5,112 63.4,111.9 50.2,93 	"/>
	<g>
		<polygon fill="#D17C20" points="25.2,173.2 22.8,187 3.9,183.6 6.4,169.8 		"/>
	</g>
	<g>
		<polygon fill="#F09A20" points="5.2,176.7 24,180.1 25.2,173.2 6.4,169.8 		"/>
	</g>
	<polygon fill="#D17C20" points="30.5,177.8 24.6,176.8 23.4,183.4 29.3,184.5 29.9,181.2 29.9,181.2 	"/>
	<polygon fill="#F4B619" points="1.5,171.8 0.1,180 3.9,183.6 6.4,169.8 	"/>
	<g>
		<polygon fill="#D17C20" points="116.2,109.6 129.9,112.1 133.3,93.1 119.5,90.7 		"/>
	</g>
	<g>
		<polygon fill="#F09A20" points="126.4,91.9 123,110.8 116.2,109.6 119.5,90.7 		"/>
	</g>
	<polygon fill="#D17C20" points="126.3,111.4 119.7,110.2 118.3,117.9 121.8,117.7 121.8,117.7 125.3,117.3 	"/>
	<polygon fill="#F4B619" points="123.1,86.8 119.5,90.7 133.3,93.1 131.3,88.3 	"/>
	<polygon fill="#D17C20" points="63.4,111.9 45.2,124.6 45.3,124.7 49,125.2 55.7,120.5 63.3,131.6 69.8,127.1 62.3,116.5 
		62.5,115.8 62.5,115.8 63.5,112 	"/>
	<g>
		<path fill="#F09A20" d="M177.5,151.3c26,37.4,16.8,88.8-20.4,114.9c-37.3,26.1-88.5,16.9-114.5-20.5
			c-26-37.4-16.8-88.8,20.4-114.9C100.2,104.8,151.5,113.9,177.5,151.3z"/>
	</g>
	<path fill="#D17C20" d="M42.6,245.7c26,37.4,77.3,46.5,114.5,20.5c37.3-26.1,46.4-77.5,20.4-114.9L42.6,245.7z"/>
	<g>
		<path fill="#D17C20" d="M72.3,144.1c-30.1,21-37.4,62.5-16.5,92.6c21,30.1,62.3,37.5,92.4,16.5c30.1-21,37.4-62.5,16.5-92.6
			C143.7,130.5,102.3,123.1,72.3,144.1z"/>
	</g>
	<g>
		<g>
			<path fill="#EEEBCB" d="M74.3,147.3c-28.4,19.8-35.3,59-15.5,87.5c19.8,28.5,58.8,35.4,87.2,15.6c28.4-19.8,35.3-59,15.5-87.5
				C141.7,134.4,102.7,127.4,74.3,147.3z"/>
		</g>
	</g>
	<g>
		<g>
			
				<rect x="118.4" y="144.3" transform="matrix(0.9943 0.107 -0.107 0.9943 16.582 -11.8491)" fill="#231F20" width="0.8" height="8.8"/>
		</g>
	</g>
	<g>
		<g>
			
				<rect x="80.8" y="152.5" transform="matrix(0.8227 -0.5685 0.5685 0.8227 -74.838 73.9788)" fill="#585654" width="0.8" height="8.9"/>
		</g>
	</g>
	<g>
		<g>
			<polygon fill="#585654" points="77,166.3 70.5,160.3 71,159.8 77.5,165.8 			"/>
		</g>
	</g>
	<g>
		<g>
			
				<rect x="63.2" y="170.5" transform="matrix(0.8096 0.587 -0.587 0.8096 113.151 -7.136)" fill="#585654" width="8.8" height="0.8"/>
		</g>
	</g>
	<g>
		<g>
			
				<rect x="58.5" y="179.5" transform="matrix(0.908 0.4191 -0.4191 0.908 81.16 -9.8191)" fill="#585654" width="8.9" height="0.8"/>
		</g>
	</g>
	<g>
		<g>
			
				<rect x="55.8" y="188.6" transform="matrix(0.9709 0.2393 -0.2393 0.9709 46.9795 -8.9014)" fill="#585654" width="8.7" height="0.8"/>
		</g>
	</g>
	<g>
		<g>
			
				<rect x="54.8" y="198.9" transform="matrix(1 5.512897e-003 -5.512897e-003 1 1.0996 -0.3237)" fill="#585654" width="8.9" height="0.8"/>
		</g>
	</g>
	<g>
		<g>
			
				<rect x="55.9" y="209.2" transform="matrix(0.97 -0.243 0.243 0.97 -49.1174 20.9271)" fill="#585654" width="8.7" height="0.8"/>
		</g>
	</g>
	<g>
		<g>
			
				<rect x="59.2" y="218.7" transform="matrix(0.9371 -0.349 0.349 0.9371 -72.4678 35.8899)" fill="#585654" width="8.4" height="0.8"/>
		</g>
	</g>
	<g>
		<g>
			
				<rect x="89.5" y="147.5" transform="matrix(0.916 -0.4013 0.4013 0.916 -53.4246 48.8221)" fill="#585654" width="0.8" height="8.8"/>
		</g>
	</g>
	<g>
		<g>
			
				<rect x="99.1" y="144.7" transform="matrix(0.9586 -0.2847 0.2847 0.9586 -38.3209 34.5017)" fill="#585654" width="0.8" height="8.8"/>
		</g>
	</g>
	<g>
		<g>
			
				<rect x="109" y="143.5" transform="matrix(0.9971 -7.565704e-002 7.565704e-002 0.9971 -10.8727 8.7016)" fill="#585654" width="0.8" height="8.7"/>
		</g>
	</g>
	<g>
		<g>
			
				<rect x="128.2" y="147" transform="matrix(0.9427 0.3336 -0.3336 0.9427 57.8163 -34.2184)" fill="#585654" width="0.8" height="8.5"/>
		</g>
	</g>
	<g>
		<g>
			<polygon fill="#585654" points="135.7,159.6 135,159.2 139.6,152.1 140.2,152.5 			"/>
		</g>
	</g>
	<g>
		<g>
			
				<rect x="145" y="157.8" transform="matrix(0.7714 0.6363 -0.6363 0.7714 136.3709 -55.4424)" fill="#585654" width="0.8" height="8.6"/>
		</g>
	</g>
	<g>
		<g>
			
				<rect x="135.4" y="240.4" transform="matrix(0.5757 0.8176 -0.8176 0.5757 256.0504 -11.8757)" fill="#585654" width="8.1" height="0.8"/>
		</g>
	</g>
	<g>
		<g>
			
				<rect x="130.9" y="241.6" transform="matrix(0.9194 -0.3934 0.3934 0.9194 -85.9957 71.4608)" fill="#585654" width="0.8" height="7.9"/>
		</g>
	</g>
	<g>
		<g>
			
				<rect x="121.4" y="244.6" transform="matrix(0.9663 -0.2576 0.2576 0.9663 -59.9434 39.7517)" fill="#585654" width="0.8" height="8.2"/>
		</g>
	</g>
	<g>
		<g>
			
				<rect x="111.5" y="246" transform="matrix(0.998 -6.291970e-002 6.291970e-002 0.998 -15.5145 7.5381)" fill="#585654" width="0.8" height="8.2"/>
		</g>
	</g>
	<g>
		<g>
			
				<rect x="102" y="245.3" transform="matrix(0.9934 0.1147 -0.1147 0.9934 29.3036 -10.097)" fill="#585654" width="0.8" height="8.3"/>
		</g>
	</g>
	<g>
		<g>
			
				<rect x="92.1" y="242.6" transform="matrix(0.9463 0.3232 -0.3232 0.9463 84.7674 -16.6548)" fill="#585654" width="0.8" height="8.5"/>
		</g>
	</g>
	<g>
		<g>
			
				<rect x="83.1" y="238.4" transform="matrix(0.8462 0.5329 -0.5329 0.8462 142.1105 -7.1773)" fill="#585654" width="0.8" height="8.4"/>
		</g>
	</g>
	<g>
		<g>
			
				<rect x="75.1" y="232.3" transform="matrix(0.7597 0.6503 -0.6503 0.7597 171.9682 7.7284)" fill="#585654" width="0.8" height="8.4"/>
		</g>
	</g>
	<g>
		<g>
			
				<rect x="142.9" y="234" transform="matrix(0.7212 0.6927 -0.6927 0.7212 203.3377 -36.5485)" fill="#585654" width="8.3" height="0.8"/>
		</g>
	</g>
	<g>
		<g>
			<polygon fill="#585654" points="156.3,229 149.7,224.3 150.1,223.6 156.8,228.3 			"/>
		</g>
	</g>
	<g>
		<g>
			
				<rect x="153.7" y="217.1" transform="matrix(0.8978 0.4405 -0.4405 0.8978 111.9112 -47.234)" fill="#585654" width="8.1" height="0.8"/>
		</g>
	</g>
	<g>
		<g>
			
				<rect x="156.2" y="208" transform="matrix(0.9747 0.2237 -0.2237 0.9747 50.6725 -30.5715)" fill="#585654" width="8.1" height="0.8"/>
		</g>
	</g>
	<g>
		<g>
			
				<rect x="157" y="197.9" transform="matrix(1 9.582348e-003 -9.582348e-003 1 1.9079 -1.5349)" fill="#585654" width="8.2" height="0.8"/>
		</g>
	</g>
	<g>
		<g>
			
				<rect x="156" y="188" transform="matrix(0.9749 -0.2226 0.2226 0.9749 -37.9303 40.3701)" fill="#585654" width="8.2" height="0.8"/>
		</g>
	</g>
	<g>
		<g>
			
				<rect x="152.8" y="178.5" transform="matrix(0.9371 -0.3491 0.3491 0.9371 -52.5697 66.0778)" fill="#585654" width="8.6" height="0.8"/>
		</g>
	</g>
	<g>
		<path fill="#585654" d="M119,146.4l-11.1,44.9l0.3,0.4c-0.8,0.2-1.6,0.6-2.3,1.1c-3.4,2.4-4.2,7-1.8,10.4c0.8,1.2,1.9,2,3.1,2.5
			c-0.4,0.1-0.8,0.3-1.2,0.6c-1.7,1.2-2.2,3.6-0.9,5.3c1.2,1.7,3.6,2.2,5.3,1c1.7-1.2,2.2-3.6,0.9-5.3c-0.2-0.3-0.5-0.6-0.9-0.9
			c1.4,0,2.8-0.5,4-1.3c3.4-2.4,4.2-7,1.8-10.4c-0.3-0.4-0.6-0.8-0.9-1.1l0.1-0.1L119,146.4z"/>
	</g>
	<g>
		<g>
			
				<rect x="64.2" y="228" transform="matrix(0.8194 -0.5732 0.5732 0.8194 -118.5659 80.4858)" fill="#585654" width="8.5" height="0.8"/>
		</g>
	</g>
	<g>
		<g>
			
				<rect x="148" y="169.5" transform="matrix(0.8194 -0.5732 0.5732 0.8194 -69.9296 117.9043)" fill="#585654" width="8.3" height="0.8"/>
		</g>
	</g>
	<g>
		<path fill="#A6BE39" d="M387,156.7c-1.3,0.1-158.7,18.6-159.9,18.8c-5.7,0.8-11.8,6.2-11,12.6c0.1,1.1,10.2,87.7,10.3,88.2
			c0.8,6.6,6.7,10.8,13.2,10.3c0.9-0.1,2.8-0.3,2.8-0.3s157.4-18.5,158.2-18.6c6.4-1,11.2-6.5,10.4-13.1c-0.1-0.5-9.9-84.6-9.9-84.6
			s-0.3-2.5-0.4-3.6C399.9,160.1,392.8,156.2,387,156.7z"/>
	</g>
	<g>
		<path fill="#87B03C" d="M401.1,170.1c0,0-0.3-2.5-0.4-3.6c-0.4-3.4-2.6-6-5.4-7.7c-10.1,7.8-44.6,34.4-163.4,126.1
			c2.2,1.3,4.9,2,7.7,1.8c0.9-0.1,2.8-0.3,2.8-0.3s157.4-18.5,158.2-18.6c6.4-1,11.2-6.5,10.4-13.1
			C410.9,254.1,401.1,170.1,401.1,170.1z"/>
	</g>
	<g>
		<polygon fill="#585654" points="404.3,197.5 219.7,219.2 217,196.1 401.6,174.4 		"/>
	</g>
	<g>
		<polygon fill="#D9E2BD" points="328.8,232.4 234.7,243.4 232.5,224.6 326.6,213.6 		"/>
	</g>
	<g>
		<polygon fill="#7BA035" points="397.9,238 287.2,251 286.6,246.4 397.4,233.4 		"/>
	</g>
	<g>
		<polygon fill="#7BA035" points="400.3,258.4 312.3,268.7 311.8,264.1 399.8,253.8 		"/>
	</g>
	<g>
		<polygon fill="#7BA035" points="399.5,251 311.5,261.3 310.9,256.7 398.9,246.4 		"/>
	</g>
	<g>
		<path fill="#343432" d="M276.1,141V25.1c0-0.2,0-0.4,0-0.6c0-10.1-8.2-20.3-18.6-21.3L157.7,3l0,0c-10.7,0.7-19.2,11.1-19.2,21.4
			c0,0.2,0,0.4,0,0.6v7.2V141v133c0,0.2,0,0.4,0,0.6c0,10.3,8.5,20.7,19.2,21.4l0,0h99.2l0,0c10.7-0.7,19.2-11.1,19.2-21.4
			c0-0.2,0-0.4,0-0.6V141z"/>
	</g>
	<g>
		<g>
			<path fill="#585654" d="M207.3,286.5c-6.5,0-11.8-5.3-11.8-11.8c0-6.5,5.3-11.8,11.8-11.8c6.5,0,11.8,5.3,11.8,11.8
				C219.1,281.2,213.8,286.5,207.3,286.5z M207.3,264.5c-5.6,0-10.1,4.6-10.1,10.2c0,5.6,4.5,10.2,10.1,10.2
				c5.6,0,10.1-4.6,10.1-10.2C217.5,269,212.9,264.5,207.3,264.5z"/>
		</g>
	</g>
	<g>
		<ellipse fill="#585654" cx="207.3" cy="17.6" rx="2.8" ry="2.9"/>
	</g>
	<g>
		<rect x="147" y="44" fill="#1F66B0" width="120.1" height="212.1"/>
	</g>
	<g>
		<path fill="#585654" d="M217.1,26.6c0,0-0.1,0-0.1,0h-0.1h-19.8H197c0,0-0.1,0-0.1,0c-1.1,0-2,1-2,2.1c0,1.1,0.9,1.9,2,1.9
			c0.2,0,0.2,0,0.6,0h19.1c0.4,0,0.4,0,0.6,0c1.1,0,2-0.8,2-1.9C219.2,27.6,218.3,26.6,217.1,26.6z"/>
	</g>
	<g>
		<polygon fill="#065E9A" points="267.1,256.2 147,256.2 267.1,44 		"/>
	</g>
	<g>
		<g>
			<path fill="#FFFFFF" d="M203.9,172.9v-7.4c-4.3-0.1-8.7-1.4-11.3-3.3l1.8-5c2.6,1.7,6.5,3.2,10.6,3.2c5.3,0,8.8-3.1,8.8-7.3
				c0-4.1-2.9-6.6-8.4-8.9c-7.6-3-12.2-6.5-12.2-13c0-6.2,4.4-10.9,11.1-12v-7.4h4.7v7.2c4.4,0.1,7.4,1.3,9.6,2.6l-1.9,4.9
				c-1.6-0.9-4.6-2.6-9.4-2.6c-5.7,0-7.9,3.4-7.9,6.5c0,3.8,2.7,5.7,9.2,8.5c7.6,3.1,11.5,6.9,11.5,13.5c0,6-4.1,11.5-11.7,12.7v7.7
				H203.9z"/>
		</g>
	</g>
	<g>
		<path fill="#FFFFFF" d="M253.2,167.9l-30.3,5.1l11.8,1.7c-7.1,6-16.2,9.7-26.3,9.7c-12.1,0-23-5.3-30.4-13.8h-16.6
			c9.3,16.3,26.9,27.4,47,27.4c13.9,0,26.5-5.2,36.1-13.8l1.7,11.8L253.2,167.9z"/>
	</g>
	<g>
		<path fill="#FFFFFF" d="M208.5,89.3c-12,0-23.1,3.9-32.1,10.6L176,88.1l-9.9,27.2l30.7-1.8l-12.2-3.2c6.5-5.2,14.3-7.4,24-7.4
			c11.9,0,22.7,5.2,30.1,13.4h16.7C245.9,100.1,228.4,89.3,208.5,89.3z"/>
	</g>
	<ellipse fill="#FBAF27" cx="320.7" cy="119.6" rx="26.7" ry="26.9"/>
	<ellipse fill="#FFC313" cx="319.8" cy="118.1" rx="25.9" ry="26.1"/>
	<path fill="#FBAF27" d="M303.8,134.3c4.1,4.1,9.8,6.7,16,6.7c12.5,0,22.6-10.2,22.6-22.8c0-6.3-2.5-12-6.6-16.1L303.8,134.3z"/>
	<path fill="#FBAF27" d="M388,57.8c4.3,9.4,0.2,22.4-14.9,28.9c-15.9,6.9-28.2,2.1-32.5-7.3c-4.3-9.4,3.6-21.9,17-28.1
		C370.9,45.2,383.7,48.4,388,57.8z"/>
	<path fill="#FFC313" d="M387.6,57c4.2,9.2-2.9,21.4-15.9,27.4c-13,6-26.9,3.4-31.1-5.7c-4.2-9.2,2.9-21.4,15.9-27.4
		C369.5,45.3,383.4,47.8,387.6,57z"/>
	<path fill="#FBAF27" d="M354.3,84.8c4.9,0.9,10.8,0.1,16.5-2.5c11.3-5.2,17.6-16,13.9-24c-1.8-4-5.8-6.6-10.7-7.5
		c0,0,2.2,3.4-5.3,17C363.2,77.6,354.3,84.8,354.3,84.8z"/>
	<path fill="#FBAF27" d="M336.5,37.9c-5.7,6.8-18.6,8.3-30.9-2.6c-13-11.5-14.5-24.4-8.8-31.2c5.7-6.8,19.6-4.1,30.9,5.5
		C339,19,342.2,31.1,336.5,37.9z"/>
	<path fill="#FFC313" d="M337,37.3c-5.6,6.6-18.9,4.5-29.9-4.7c-10.9-9.2-15.3-22.1-9.7-28.7c5.6-6.6,18.9-4.5,29.9,4.7
		C338.2,17.9,342.5,30.7,337,37.3z"/>
	<path fill="#FBAF27" d="M298.7,17.7c1.5,4.5,4.9,9.4,9.7,13.4c9.6,8.1,21.2,9.9,26.1,4.1c2.4-2.9,2.7-7.2,1.2-11.7
		c0,0-4.6,4.6-15.9,2C310.1,23.3,298.7,17.7,298.7,17.7z"/>
</g>
</svg>
