<svg width="18" height="18" viewBox="0 0 18 18" fill="none" xmlns="http://www.w3.org/2000/svg">
<path d="M5.12313 15.0114L6.00777 11.187C6.09125 10.8262 5.96842 10.4487 5.68856 10.2061L2.721 7.63328L6.64415 7.29273C7.01333 7.26068 7.33452 7.02711 7.47878 6.68578L9.00098 3.08416L10.5232 6.68578C10.6674 7.02711 10.9886 7.26068 11.3578 7.29273L15.281 7.63328L12.3134 10.2061C12.0335 10.4487 11.9107 10.8262 11.9942 11.187L12.8788 15.0114L9.51751 12.9837C9.19982 12.7921 8.80213 12.7921 8.48444 12.9837L5.12313 15.0114Z" stroke="#DAE3F2"/>
<g clip-path="url(#clip0_1093_7604)">
<path d="M5.38042 15.4395C5.00214 15.6677 4.53546 15.3291 4.63502 14.8987L5.51966 11.0743C5.5614 10.8939 5.49998 10.7052 5.36005 10.5839L2.39249 8.01107C2.05872 7.7217 2.2367 7.17336 2.67678 7.13515L6.59994 6.7946C6.78453 6.77858 6.94512 6.66179 7.01725 6.49113L8.53944 2.88951C8.71151 2.48238 9.28848 2.48238 9.46055 2.88951L10.9827 6.49113C11.0549 6.66179 11.2155 6.77858 11.4001 6.7946L15.3232 7.13515C15.7633 7.17336 15.9413 7.7217 15.6075 8.01107L12.6399 10.5839C12.5 10.7052 12.4386 10.8939 12.4803 11.0743L13.365 14.8987C13.4645 15.3291 12.9979 15.6677 12.6196 15.4395L9.25827 13.4119C9.09942 13.316 8.90058 13.316 8.74173 13.4119L5.38042 15.4395Z" fill="#FFA928"/>
</g>
<defs>
<clipPath id="clip0_1093_7604">
<rect width="9" height="18" fill="white"/>
</clipPath>
</defs>
</svg>
