<svg width="21" height="20" viewBox="0 0 21 20" fill="none" xmlns="http://www.w3.org/2000/svg">
<g id="fluent:edit-28-regular">
<path id="Vector" d="M18.2325 2.76783C17.9891 2.5244 17.7001 2.3313 17.3821 2.19955C17.064 2.06781 16.7231 2 16.3789 2C16.0346 2 15.6938 2.06781 15.3757 2.19955C15.0577 2.3313 14.7687 2.5244 14.5253 2.76783L4.66767 12.6252C4.37435 12.9186 4.16103 13.2825 4.0497 13.6825L3.0184 17.3656C2.99457 17.451 2.99387 17.5412 3.01637 17.6269C3.03887 17.7127 3.08376 17.7909 3.14644 17.8536C3.20912 17.9162 3.28734 17.9611 3.37308 17.9836C3.45882 18.0061 3.549 18.0054 3.63438 17.9816L7.3169 16.9503C7.71685 16.8384 8.08121 16.6254 8.37486 16.3317L18.2325 6.47428C18.7239 5.98273 19 5.31612 19 4.62105C19 3.92599 18.7239 3.25938 18.2325 2.76783ZM15.2326 3.47445C15.5367 3.17045 15.9491 2.99969 16.3791 2.99975C16.8091 2.99982 17.2215 3.17069 17.5255 3.47479C17.8295 3.77888 18.0003 4.19129 18.0002 4.62129C18.0002 5.05128 17.8293 5.46364 17.5252 5.76765L16.4986 6.79359L14.206 4.50039L15.2326 3.47445ZM13.4993 5.20769L15.7926 7.50088L7.66756 15.6251C7.49547 15.7972 7.28195 15.9221 7.04758 15.9877L4.22036 16.779L5.01166 13.9525C5.07742 13.7182 5.20229 13.5047 5.37431 13.3325L13.4993 5.20769Z" fill="#0F63FB"/>
</g>
</svg>
