<svg width="58" height="58" viewBox="0 0 58 58" fill="none" xmlns="http://www.w3.org/2000/svg">
<g id="icons8-bank 1">
<path id="Vector" d="M42.7261 21.7137H15.3223V46.6912H42.7261V21.7137Z" fill="url(#paint0_linear_2230_13903)"/>
<path id="Vector_2" d="M51.2594 19.558H29.0248H6.78906V16.594L17.9069 12.157L29.0248 7.72119L40.1415 12.157L51.2594 16.594V19.558Z" fill="#6A665E"/>
<path id="Vector_3" d="M29.0248 7.75513L40.0955 12.1728L51.1554 16.5868L51.1675 19.5267H29.0248H6.88086L6.89294 16.5868L17.9528 12.1728L29.0248 7.75513Z" fill="#6B675F"/>
<path id="Vector_4" d="M29.024 7.78772L40.05 12.1885L51.0519 16.5796L51.0761 19.4953H29.024H6.9707L6.99487 16.5796L17.9967 12.1885L29.024 7.78772Z" fill="#6C6860"/>
<path id="Vector_5" d="M29.0232 7.82153L40.0033 12.2042L50.9484 16.5711L50.9847 19.4638H29.0232H7.06055L7.0968 16.5711L18.0419 12.2042L29.0232 7.82153Z" fill="#6D6961"/>
<path id="Vector_6" d="M29.0251 7.85535L39.9593 12.2198L50.8464 16.5638L50.8948 19.4324H29.0251H7.1543L7.20263 16.5638L18.0897 12.2198L29.0251 7.85535Z" fill="#6E6A62"/>
<path id="Vector_7" d="M29.0244 7.88916L39.9139 12.2343L50.7429 16.5565L50.8033 19.4022H29.0244H7.24414L7.30456 16.5565L18.1336 12.2343L29.0244 7.88916Z" fill="#6F6B63"/>
<path id="Vector_8" d="M29.0243 7.9231L39.8679 12.2501L50.6402 16.5494L50.7127 19.3708H29.0243H7.33594L7.40723 16.5494L18.1795 12.2501L29.0243 7.9231Z" fill="#706C64"/>
<path id="Vector_9" d="M29.0235 7.95569L39.8212 12.2658L50.5355 16.5409L50.6201 19.3394H29.0235H7.42578L7.51036 16.5409L18.2247 12.2658L29.0235 7.95569Z" fill="#716D65"/>
<path id="Vector_10" d="M29.0247 7.9895L39.7777 12.2815L50.434 16.5336L50.5306 19.308H29.0247H7.51758L7.61424 16.5336L18.2705 12.2815L29.0247 7.9895Z" fill="#726E66"/>
<path id="Vector_11" d="M29.0247 8.02332L39.7317 12.296L50.3312 16.5264L50.44 19.2765H29.0247H7.60938L7.71692 16.5264L18.3164 12.296L29.0247 8.02332Z" fill="#736F67"/>
<path id="Vector_12" d="M29.0239 8.05713L39.685 12.3117L50.2265 16.5191L50.3473 19.2451H29.0239H7.69922L7.82005 16.5191L18.3616 12.3117L29.0239 8.05713Z" fill="#747068"/>
<path id="Vector_13" d="M29.0251 8.09094L39.6415 12.3274L50.125 16.5118L50.2579 19.2149H29.0251H7.79102L7.92393 16.5118L18.4074 12.3274L29.0251 8.09094Z" fill="#757169"/>
<path id="Vector_14" d="M29.025 8.12488L39.5955 12.3432L50.0222 16.5035L50.1672 19.1835H29.025H7.88281L8.0266 16.5035L18.4533 12.3432L29.025 8.12488Z" fill="#76726A"/>
<path id="Vector_15" d="M29.0242 8.15747L39.5488 12.3588L49.9187 16.4962L50.0746 19.1521H29.0242H7.97266L8.12974 16.4962L18.4984 12.3588L29.0242 8.15747Z" fill="#77736B"/>
<path id="Vector_16" d="M29.0235 8.19128L39.5033 12.3733L49.814 16.4889L49.9832 19.1207H29.0235H8.0625L8.23167 16.4889L18.5424 12.3733L29.0235 8.19128Z" fill="#78746B"/>
<path id="Vector_17" d="M29.0234 8.2251L39.4574 12.389L49.7113 16.4816L49.8913 19.0892H29.0234H8.1543L8.33434 16.4816L18.5883 12.389L29.0234 8.2251Z" fill="#79756C"/>
<path id="Vector_18" d="M29.0246 8.25891L39.4126 12.4047L49.6098 16.4732L49.8019 19.0578H29.0246H8.24609L8.43943 16.4732L18.6353 12.4047L29.0246 8.25891Z" fill="#7A766D"/>
<path id="Vector_19" d="M29.0238 8.29285L39.3671 12.4205L49.5051 16.466L49.7105 19.0277H29.0238H8.33594L8.54135 16.466L18.6793 12.4205L29.0238 8.29285Z" fill="#7B776E"/>
<path id="Vector_20" d="M29.0238 8.32544L39.3212 12.4362L49.4023 16.4587L49.6186 18.9962H29.0238H8.42773L8.64403 16.4587L18.7252 12.4362L29.0238 8.32544Z" fill="#7C776F"/>
<path id="Vector_21" d="M29.025 8.35925L39.2765 12.4507L49.3008 16.4515L49.5292 18.9648H29.025H8.51953L8.74791 16.4515L18.7722 12.4507L29.025 8.35925Z" fill="#7D7870"/>
<path id="Vector_22" d="M29.0242 8.39307L39.231 12.4664L49.1961 16.443L49.4378 18.9334H29.0242H8.60938L8.85104 16.443L18.8162 12.4664L29.0242 8.39307Z" fill="#7E7971"/>
<path id="Vector_23" d="M29.0241 8.42688L39.185 12.482L49.0933 16.4357L49.3459 18.9019H29.0241H8.70117L8.95371 16.4357L18.862 12.482L29.0241 8.42688Z" fill="#7F7A72"/>
<path id="Vector_24" d="M29.0233 8.46069L39.1383 12.4977L48.9898 16.4284L49.2545 18.8705H29.0233H8.79102L9.05564 16.4284L18.9072 12.4977L29.0233 8.46069Z" fill="#807B73"/>
<path id="Vector_25" d="M29.0245 8.49463L39.0948 12.5123L48.8871 16.4213L49.165 18.8404H29.0245H8.88281L9.16073 16.4213L18.9531 12.5123L29.0245 8.49463Z" fill="#817C74"/>
<path id="Vector_26" d="M29.0245 8.52722L39.0488 12.528L48.7844 16.414L49.0731 18.8089H29.0245H8.97461L9.2634 16.414L18.9989 12.528L29.0245 8.52722Z" fill="#827D75"/>
<path id="Vector_27" d="M29.0237 8.56104L39.0021 12.5437L48.6809 16.4055L48.9817 18.7775H29.0237H9.06445L9.36533 16.4055L19.0441 12.5437L29.0237 8.56104Z" fill="#837E76"/>
<path id="Vector_28" d="M29.0249 8.59485L38.9586 12.5594L48.5781 16.3983L48.8923 18.7461H29.0249H9.15625L9.47042 16.3983L19.09 12.5594L29.0249 8.59485Z" fill="#847F77"/>
<path id="Vector_29" d="M29.0248 8.62866L38.9126 12.5751L48.4754 16.391L48.8004 18.7146H29.0248H9.24805L9.57309 16.391L19.1358 12.5751L29.0248 8.62866Z" fill="#858078"/>
<path id="Vector_30" d="M29.0241 8.6626L38.8659 12.5897L48.3719 16.3838L48.709 18.6833H29.0241H9.33789L9.67502 16.3838L19.181 12.5897L29.0241 8.6626Z" fill="#868179"/>
<path id="Vector_31" d="M29.0233 8.69519L38.8204 12.6054L48.2672 16.3754L48.6176 18.6531H29.0233H9.42773L9.77815 16.3754L19.2261 12.6054L29.0233 8.69519Z" fill="#87827A"/>
<path id="Vector_32" d="M29.0232 8.729L38.7745 12.621L48.1644 16.3681L48.5257 18.6216H29.0232H9.51953L9.88082 16.3681L19.2708 12.621L29.0232 8.729Z" fill="#88837B"/>
<path id="Vector_33" d="M29.0244 8.76282L38.7297 12.6367L48.0629 16.3608L48.4363 18.5902H29.0244H9.61133L9.9847 16.3608L19.3179 12.6367L29.0244 8.76282Z" fill="#89847C"/>
<path id="Vector_34" d="M29.0244 8.79663L38.685 12.6512L47.9602 16.3535L48.3456 18.5588H29.0244H9.70312L10.0886 16.3535L19.3637 12.6512L29.0244 8.79663Z" fill="#8A857D"/>
<path id="Vector_35" d="M29.0236 8.83044L38.6383 12.6669L47.8555 16.3463L48.253 18.5273H29.0236H9.79297L10.1905 16.3463L19.4077 12.6669L29.0236 8.83044Z" fill="#8B867E"/>
<path id="Vector_36" d="M29.0248 8.86438L38.5936 12.6827L47.7539 16.3379L48.1636 18.496H29.0248H9.88477L10.2944 16.3379L19.4548 12.6827L29.0248 8.86438Z" fill="#8C877F"/>
<path id="Vector_37" d="M29.0247 8.89697L38.5488 12.6984L47.6512 16.3306L48.0729 18.4658H29.0247H9.97656L10.3983 16.3306L19.5006 12.6984L29.0247 8.89697Z" fill="#8D8880"/>
<path id="Vector_38" d="M29.0239 8.93079L38.5021 12.7141L47.5465 16.3234L47.9803 18.4343H29.0239H10.0664L10.5002 16.3234L19.5446 12.7141L29.0239 8.93079Z" fill="#8E8981"/>
<path id="Vector_39" d="M29.0251 8.9646L38.4574 12.7286L47.445 16.3161L47.8908 18.4029H29.0251H10.1582L10.6041 16.3161L19.5917 12.7286L29.0251 8.9646Z" fill="#8F8A82"/>
<path id="Vector_40" d="M29.0251 8.99841L38.4126 12.7442L47.3422 16.3076L47.8002 18.3715H29.0251H10.25L10.708 16.3076L19.6375 12.7442L29.0251 8.99841Z" fill="#908B83"/>
<path id="Vector_41" d="M29.0243 9.03235L38.3659 12.7601L47.2375 16.3005L47.7076 18.3401H29.0243H10.3398L10.8099 16.3005L19.6815 12.7601L29.0243 9.03235Z" fill="#918C84"/>
<path id="Vector_42" d="M29.0235 9.06494L38.3192 12.7757L47.134 16.2932L47.6161 18.3087H29.0235H10.4297L10.9118 16.2932L19.7266 12.7757L29.0235 9.06494Z" fill="#928D84"/>
<path id="Vector_43" d="M29.0235 9.09875L38.2745 12.7914L47.0313 16.2859L47.5255 18.2785H29.0235H10.5215L11.0145 16.2859L19.7725 12.7914L29.0235 9.09875Z" fill="#938E85"/>
<path id="Vector_44" d="M29.0247 9.13257L38.2297 12.8059L46.9285 16.2774L47.4348 18.247H29.0247H10.6133L11.1196 16.2774L19.8184 12.8059L29.0247 9.13257Z" fill="#948F86"/>
<path id="Vector_45" d="M29.0239 9.16638L38.183 12.8216L46.825 16.2702L47.3434 18.2156H29.0239H10.7031L11.2215 16.2702L19.8635 12.8216L29.0239 9.16638Z" fill="#959087"/>
<path id="Vector_46" d="M29.0238 9.2002L38.1383 12.8373L46.7223 16.2629L47.2515 18.1842H29.0238H10.7949L11.3242 16.2629L19.9094 12.8373L29.0238 9.2002Z" fill="#969188"/>
<path id="Vector_47" d="M29.025 9.23413L38.0936 12.8531L46.6196 16.2558L47.1621 18.1528H29.025H10.8867L11.4293 16.2558L19.9553 12.8531L29.025 9.23413Z" fill="#979289"/>
<path id="Vector_48" d="M29.0242 9.26672L38.0469 12.8676L46.5161 16.2485L47.0707 18.1214H29.0242H10.9766L11.5312 16.2485L20.0004 12.8676L29.0242 9.26672Z" fill="#98938A"/>
<path id="Vector_49" d="M29.0242 9.30054L38.0009 12.8832L46.4133 16.24L46.9788 18.0912H29.0242H11.0684L11.6339 16.24L20.0463 12.8832L29.0242 9.30054Z" fill="#99948B"/>
<path id="Vector_50" d="M29.0234 9.33435L37.9554 12.8989L46.3086 16.2327L46.8874 18.0597H29.0234H11.1582L11.737 16.2327L20.0902 12.8989L29.0234 9.33435Z" fill="#9A958C"/>
<path id="Vector_51" d="M29.0246 9.36816L37.9107 12.9146L46.2071 16.2255L46.798 18.0283H29.0246H11.25L11.8409 16.2255L20.1373 12.9146L29.0246 9.36816Z" fill="#9B968D"/>
<path id="Vector_52" d="M29.0245 9.4021L37.8647 12.9304L46.1043 16.2183L46.7061 17.997H29.0245H11.3418L11.9435 16.2183L20.1832 12.9304L29.0245 9.4021Z" fill="#9C978E"/>
<path id="Vector_53" d="M29.0238 9.43469L37.8192 12.9449L45.9996 16.2098L46.6147 17.9655H29.0238H11.4316L12.0467 16.2098L20.2271 12.9449L29.0238 9.43469Z" fill="#9D988F"/>
<path id="Vector_54" d="M29.0249 9.46851L37.7745 12.9606L45.8981 16.2025L46.5252 17.9341H29.0249H11.5234L12.1506 16.2025L20.2742 12.9606L29.0249 9.46851Z" fill="#9D9890"/>
<path id="Vector_55" d="M29.0249 9.50232L37.7285 12.9763L45.7954 16.1953L46.4334 17.9039H29.0249H11.6152L12.2532 16.1953L20.3201 12.9763L29.0249 9.50232Z" fill="#9E9991"/>
<path id="Vector_56" d="M29.0241 9.53613L37.683 12.992L45.6919 16.188L46.342 17.8724H29.0241H11.7051L12.3564 16.188L20.364 12.992L29.0241 9.53613Z" fill="#9F9A92"/>
<path id="Vector_57" d="M29.0233 9.56995L37.6363 13.0077L45.5872 16.1795L46.2505 17.841H29.0233H11.7949L12.4583 16.1795L20.4091 13.0077L29.0233 9.56995Z" fill="#A09B93"/>
<path id="Vector_58" d="M29.0233 9.60388L37.5904 13.0223L45.4844 16.1724L46.1587 17.8097H29.0233H11.8867L12.561 16.1724L20.455 13.0223L29.0233 9.60388Z" fill="#A19C94"/>
<path id="Vector_59" d="M29.0245 9.63647L37.5468 13.0379L45.3829 16.1651L46.0692 17.7782H29.0245H11.9785L12.6661 16.1651L20.5009 13.0379L29.0245 9.63647Z" fill="#A29D95"/>
<path id="Vector_60" d="M29.0237 9.67029L37.5002 13.0536L45.2782 16.1578L45.9778 17.7468H29.0237H12.0684L12.768 16.1578L20.546 13.0536L29.0237 9.67029Z" fill="#A39E96"/>
<path id="Vector_61" d="M29.0237 9.7041L37.4542 13.0693L45.1754 16.1506L45.8859 17.7166H29.0237H12.1602L12.8707 16.1506L20.5919 13.0693L29.0237 9.7041Z" fill="#A49F97"/>
<path id="Vector_62" d="M29.0248 9.73792L37.4107 13.0838L45.0739 16.1421L45.7965 17.6851H29.0248H12.252L12.9745 16.1421L20.6378 13.0838L29.0248 9.73792Z" fill="#A5A098"/>
<path id="Vector_63" d="M29.0248 9.77185L37.3647 13.0996L44.97 16.1349L45.7058 17.6538H29.0248H12.3438L13.0784 16.1349L20.6837 13.0996L29.0248 9.77185Z" fill="#A6A199"/>
<path id="Vector_64" d="M29.024 9.80444L37.318 13.1153L44.8665 16.1277L45.6132 17.6224H29.024H12.4336L13.1803 16.1277L20.7288 13.1153L29.024 9.80444Z" fill="#A7A29A"/>
<path id="Vector_65" d="M29.0232 9.83826L37.2725 13.131L44.763 16.1204L45.5218 17.5909H29.0232H12.5234L13.2823 16.1204L20.7727 13.131L29.0232 9.83826Z" fill="#A8A39B"/>
<path id="Vector_66" d="M29.0232 9.87207L37.2266 13.1467L44.659 16.1119L45.4311 17.5595H29.0232H12.6152L13.3862 16.1119L20.8186 13.1467L29.0232 9.87207Z" fill="#A9A49C"/>
<path id="Vector_67" d="M29.0244 9.90588L37.1818 13.1611L44.5575 16.1046L45.3405 17.5293H29.0244H12.707L13.49 16.1046L20.8657 13.1611L29.0244 9.90588Z" fill="#AAA59C"/>
<path id="Vector_68" d="M29.0236 9.9397L37.1363 13.1768L44.454 16.0974L45.2491 17.4978H29.0236H12.7969L13.592 16.0974L20.9096 13.1768L29.0236 9.9397Z" fill="#ABA69D"/>
<path id="Vector_69" d="M29.0235 9.97363L37.0904 13.1926L44.35 16.0902L45.1584 17.4665H29.0235H12.8887L13.6958 16.0902L20.9555 13.1926L29.0235 9.97363Z" fill="#ACA79E"/>
<path id="Vector_70" d="M29.0247 10.0062L37.0456 13.2083L44.2485 16.0829L45.0678 17.4351H29.0247H12.9805L13.7997 16.0829L21.0026 13.2083L29.0247 10.0062Z" fill="#ADA89F"/>
<path id="Vector_71" d="M29.0239 10.04L37.0001 13.224L44.145 16.0745L44.9764 17.4036H29.0239H13.0703L13.9016 16.0745L21.0465 13.224L29.0239 10.04Z" fill="#AEA9A0"/>
<path id="Vector_72" d="M29.0239 10.0739L36.9542 13.2385L44.0411 16.0672L44.8845 17.3722H29.0239H13.1621L14.0055 16.0672L21.0924 13.2385L29.0239 10.0739Z" fill="#AFAAA1"/>
<path id="Vector_73" d="M29.0251 10.1077L36.9095 13.2542L43.9395 16.0599L44.795 17.342H29.0251H13.2539L14.1094 16.0599L21.1395 13.2542L29.0251 10.1077Z" fill="#B0ABA2"/>
<path id="Vector_74" d="M29.0243 10.1416L36.864 13.27L43.836 16.0528L44.7036 17.3106H29.0243H13.3438L14.2113 16.0528L21.1834 13.27L29.0243 10.1416Z" fill="#B1ACA3"/>
<path id="Vector_75" d="M29.0243 10.1742L36.818 13.2857L43.7333 16.0443L44.6118 17.2792H29.0243H13.4355L14.3152 16.0443L21.2293 13.2857L29.0243 10.1742Z" fill="#B2ADA4"/>
<path id="Vector_76" d="M29.0235 10.208L36.7713 13.3001L43.6286 16.037L44.5204 17.2478H29.0235H13.5254L14.4171 16.037L21.2744 13.3001L29.0235 10.208Z" fill="#B3AEA5"/>
<path id="Vector_77" d="M29.0246 10.2418L36.7278 13.3158L43.5271 16.0297L44.4309 17.2163H29.0246H13.6172L14.521 16.0297L21.3203 13.3158L29.0246 10.2418Z" fill="#B4AFA6"/>
<path id="Vector_78" d="M29.0246 10.2756L36.6818 13.3315L43.4243 16.0225L44.339 17.1849H29.0246H13.709L14.6249 16.0225L21.3662 13.3315L29.0246 10.2756Z" fill="#B5B0A7"/>
<path id="Vector_79" d="M29.0238 10.3094L36.6351 13.3472L43.3196 16.014L44.2476 17.1547H29.0238H13.7988L14.7268 16.014L21.4113 13.3472L29.0238 10.3094Z" fill="#B6B1A8"/>
<path id="Vector_80" d="M29.025 10.3422L36.5916 13.363L43.2181 16.0068L44.1582 17.1233H29.025H13.8906L14.8307 16.0068L21.4572 13.363L29.025 10.3422Z" fill="#B7B2A9"/>
<path id="Vector_81" d="M29.025 10.376L36.5456 13.3775L43.1153 15.9996L44.0663 17.0919H29.025H13.9824L14.9334 15.9996L21.5031 13.3775L29.025 10.376Z" fill="#B8B3AA"/>
<path id="Vector_82" d="M29.0242 10.4098L36.4989 13.3932L43.0106 15.9923L43.9749 17.0605H29.0242H14.0723L15.0365 15.9923L21.5482 13.3932L29.0242 10.4098Z" fill="#B9B4AB"/>
<path id="Vector_83" d="M29.0234 10.4436L36.4534 13.4089L42.9071 15.985L43.8835 17.029H29.0234H14.1621L15.1384 15.985L21.5922 13.4089L29.0234 10.4436Z" fill="#BAB5AC"/>
<path id="Vector_84" d="M29.0234 10.4774L36.4075 13.4245L42.8044 15.9765L43.7916 16.9976H29.0234H14.2539L15.2411 15.9765L21.638 13.4245L29.0234 10.4774Z" fill="#BBB6AD"/>
<path id="Vector_85" d="M29.0245 10.5114L36.3627 13.4391L42.7017 15.9694L43.7022 16.9675H29.0245H14.3457L15.3462 15.9694L21.6851 13.4391L29.0245 10.5114Z" fill="#BCB7AE"/>
<path id="Vector_86" d="M29.0238 10.5439L36.3173 13.4548L42.5982 15.9621L43.6108 16.936H29.0238H14.4355L15.4481 15.9621L21.7303 13.4548L29.0238 10.5439Z" fill="#BDB8AF"/>
<path id="Vector_87" d="M29.0237 10.5778L36.2713 13.4705L42.4954 15.9548L43.5189 16.9046H29.0237H14.5273L15.5508 15.9548L21.7749 13.4705L29.0237 10.5778Z" fill="#BEB9B0"/>
<path id="Vector_88" d="M29.0249 10.6116L36.2266 13.4862L42.3927 15.9464L43.4294 16.8732H29.0249H14.6191L15.6559 15.9464L21.822 13.4862L29.0249 10.6116Z" fill="#BFBAB1"/>
<path id="Vector_89" d="M29.0249 10.6454L36.1818 13.5019L42.2899 15.9391L43.3388 16.8417H29.0249H14.7109L15.7586 15.9391L21.8679 13.5019L29.0249 10.6454Z" fill="#C0BAB2"/>
<path id="Vector_90" d="M29.0241 10.6792L36.1351 13.5164L42.1864 15.9318L43.2462 16.8103H29.0241H14.8008L15.8605 15.9318L21.9118 13.5164L29.0241 10.6792Z" fill="#C1BBB3"/>
<path id="Vector_91" d="M29.0233 10.7119L36.0884 13.5322L42.0817 15.9247L43.1547 16.7802H29.0233H14.8906L15.9636 15.9247L21.957 13.5322L29.0233 10.7119Z" fill="#C2BCB4"/>
<path id="Vector_92" d="M29.0233 10.7457L36.0437 13.5479L41.979 15.9174L43.0641 16.7487H29.0233H14.9824L16.0663 15.9174L22.0028 13.5479L29.0233 10.7457Z" fill="#C3BDB5"/>
<path id="Vector_93" d="M29.0244 10.7795L35.9989 13.5635L41.8775 15.9089L42.9734 16.7173H29.0244H15.0742L16.1702 15.9089L22.0487 13.5635L29.0244 10.7795Z" fill="#C4BEB5"/>
<path id="Vector_94" d="M29.0236 10.8134L35.9522 13.5792L41.7728 15.9016L42.882 16.6859H29.0236H15.1641L16.2733 15.9016L22.0939 13.5792L29.0236 10.8134Z" fill="#C5BFB6"/>
<path id="Vector_95" d="M29.0236 10.8472L35.9075 13.5937L41.67 15.8944L42.7914 16.6544H29.0236H15.2559L16.376 15.8944L22.1397 13.5937L29.0236 10.8472Z" fill="#C6C0B7"/>
<path id="Vector_96" d="M29.0248 10.881L35.8627 13.6094L41.5685 15.8871L42.7007 16.623H29.0248H15.3477L16.4799 15.8871L22.1856 13.6094L29.0248 10.881Z" fill="#C7C1B8"/>
<path id="Vector_97" d="M29.024 10.9137L35.816 13.6252L41.465 15.8787L42.6093 16.5929H29.024H15.4375L16.583 15.8787L22.2308 13.6252L29.024 10.9137Z" fill="#C8C2B9"/>
<path id="Vector_98" d="M29.024 10.9475L35.7713 13.6409L41.361 15.8715L42.5186 16.5614H29.024H15.5293L16.6857 15.8715L22.2766 13.6409L29.024 10.9475Z" fill="#C9C3BA"/>
<path id="Vector_99" d="M29.0251 10.9813L35.7266 13.6554L41.2595 15.8642L42.428 16.53H29.0251H15.6211L16.7896 15.8642L22.3225 13.6554L29.0251 10.9813Z" fill="#CAC4BB"/>
<path id="Vector_100" d="M29.0244 11.0151L35.6799 13.6711L41.156 15.8569L42.3366 16.4986H29.0244H15.7109L16.8927 15.8569L22.3676 13.6711L29.0244 11.0151Z" fill="#CBC5BC"/>
<path id="Vector_101" d="M29.0243 11.049L35.6351 13.6867L41.0521 15.8485L42.2447 16.4671H29.0243H15.8027L16.9954 15.8485L22.4135 13.6867L29.0243 11.049Z" fill="#CCC6BD"/>
<path id="Vector_102" d="M29.0235 11.0817L35.5884 13.7025L40.9486 15.8413L42.1533 16.437H29.0235H15.8926L17.0973 15.8413L22.4575 13.7025L29.0235 11.0817Z" fill="#CDC7BE"/>
<path id="Vector_103" d="M29.0247 11.1155L35.5437 13.7182L40.847 15.834L42.0638 16.4056H29.0247H15.9844L17.2012 15.834L22.5045 13.7182L29.0247 11.1155Z" fill="#CEC8BF"/>
<path id="Vector_104" d="M29.0247 11.1493L35.4977 13.7327L40.7431 15.8267L41.972 16.3741H29.0247H16.0762L17.305 15.8267L22.5504 13.7327L29.0247 11.1493Z" fill="#CFC9C0"/>
<path id="Vector_105" d="M29.0239 11.1831L35.4522 13.7484L40.6396 15.8195L41.8806 16.3427H29.0239H16.166L17.407 15.8195L22.5943 13.7484L29.0239 11.1831Z" fill="#D0CAC1"/>
<path id="Vector_106" d="M16.2578 16.3113L22.6414 13.7641L29.0251 11.2169L35.4075 13.7641L41.7911 16.3113H29.0251H16.2578Z" fill="#D1CBC2"/>
<path id="Vector_107" d="M51.9582 48.2584H6.23242V50.3863H51.9582V48.2584Z" fill="url(#paint1_linear_2230_13903)"/>
<path id="Vector_108" d="M50.1603 46.1305H8.0293V48.2584H50.1603V46.1305Z" fill="url(#paint2_linear_2230_13903)"/>
<g id="Group">
<path id="Vector_109" d="M19.926 23.4707H10.4043V25.346H19.926V23.4707Z" fill="url(#paint3_linear_2230_13903)"/>
<path id="Vector_110" d="M19.926 23.4707H10.4043V25.346H19.926V23.4707Z" fill="url(#paint4_linear_2230_13903)"/>
</g>
<path id="Vector_111" d="M19.926 44.2407H10.4043V46.1161H19.926V44.2407Z" fill="url(#paint5_linear_2230_13903)"/>
<path id="Vector_112" d="M47.7482 44.2528H38.2266V46.1281H47.7482V44.2528Z" fill="url(#paint6_linear_2230_13903)"/>
<path id="Vector_113" d="M17.9859 25.3459H12.3418V44.2527H17.9859V25.3459Z" fill="url(#paint7_linear_2230_13903)"/>
<g id="Group_2">
<path id="Vector_114" d="M47.7482 23.4707H38.2266V25.346H47.7482V23.4707Z" fill="url(#paint8_linear_2230_13903)"/>
<path id="Vector_115" d="M47.7482 23.4717H38.2266V25.347H47.7482V23.4717Z" fill="url(#paint9_linear_2230_13903)"/>
</g>
<path id="Vector_116" d="M45.8101 25.3459H40.166V44.2527H45.8101V25.3459Z" fill="url(#paint10_linear_2230_13903)"/>
<path id="Vector_117" d="M49.9939 19.5581H8.14453V23.4707H49.9939V19.5581Z" fill="url(#paint11_linear_2230_13903)"/>
<g id="Group_3">
<path id="Vector_118" d="M13.955 20.5828H9.63281V22.5391H13.955V20.5828Z" fill="url(#paint12_linear_2230_13903)"/>
<path id="Vector_119" d="M19.7421 20.5828H15.4199V22.5391H19.7421V20.5828Z" fill="url(#paint13_linear_2230_13903)"/>
<path id="Vector_120" d="M25.5292 20.5828H21.207V22.5391H25.5292V20.5828Z" fill="url(#paint14_linear_2230_13903)"/>
<path id="Vector_121" d="M31.3163 20.5828H26.9941V22.5391H31.3163V20.5828Z" fill="url(#paint15_linear_2230_13903)"/>
<path id="Vector_122" d="M37.1035 20.5828H32.7812V22.5391H37.1035V20.5828Z" fill="url(#paint16_linear_2230_13903)"/>
<path id="Vector_123" d="M42.8906 20.5828H38.5684V22.5391H42.8906V20.5828Z" fill="url(#paint17_linear_2230_13903)"/>
<path id="Vector_124" d="M48.6796 20.5828H44.3574V22.5391H48.6796V20.5828Z" fill="url(#paint18_linear_2230_13903)"/>
</g>
<path id="Vector_125" d="M29.0452 7.62344L29.0235 7.61377L6.76597 16.5276L6.72852 16.5421V19.6161H51.3172V16.5421L29.0452 7.62344ZM7.93443 18.4126V17.359L29.0235 8.91273L50.1125 17.3578V18.4114L7.93443 18.4126Z" fill="url(#paint19_radial_2230_13903)"/>
<g id="Group_4">
<path id="Vector_126" d="M35.2516 36.5811V46.1173H22.7695V36.5811C22.7695 33.1338 25.5632 30.3401 29.0106 30.3401C32.4579 30.3401 35.2516 33.135 35.2516 36.5811Z" fill="url(#paint20_linear_2230_13903)"/>
</g>
<g id="Group_5" opacity="0.25">
<path id="Vector_127" d="M35.2516 36.5811V46.1173H22.7695V36.5811C22.7695 33.1338 25.5632 30.3401 29.0106 30.3401C32.4579 30.3401 35.2516 33.135 35.2516 36.5811Z" fill="black"/>
<path id="Vector_128" d="M29.0099 30.3485C32.4525 30.3485 35.2425 33.1386 35.2425 36.5811V46.1088H22.7773V36.5811C22.7773 33.1386 25.5674 30.3485 29.0099 30.3485Z" fill="#000101"/>
<path id="Vector_129" d="M29.0112 30.3571C32.4489 30.3571 35.2354 33.1435 35.2354 36.5812V46.1004H22.7871V36.5812C22.7871 33.1435 25.5735 30.3571 29.0112 30.3571Z" fill="#000102"/>
<path id="Vector_130" d="M29.0106 30.3655C32.4435 30.3655 35.2263 33.1483 35.2263 36.5811V46.0931H22.7949V36.5811C22.7949 33.1483 25.5777 30.3655 29.0106 30.3655Z" fill="#010203"/>
<path id="Vector_131" d="M29.0111 30.3739C32.4392 30.3739 35.2196 33.1531 35.2196 36.5823V46.0859H22.8027V36.5823C22.8027 33.1531 25.5831 30.3739 29.0111 30.3739Z" fill="#010304"/>
<path id="Vector_132" d="M29.0105 30.3812C32.4349 30.3812 35.2105 33.1568 35.2105 36.5812V46.0763H22.8105V36.5812C22.8105 33.158 25.5861 30.3812 29.0105 30.3812Z" fill="#010305"/>
<path id="Vector_133" d="M29.0099 30.3896C32.4294 30.3896 35.2014 33.1616 35.2014 36.5811V46.0678H22.8184V36.5811C22.8184 33.1616 25.5903 30.3896 29.0099 30.3896Z" fill="#010406"/>
<path id="Vector_134" d="M29.0112 30.3981C32.4259 30.3981 35.1942 33.1664 35.1942 36.5811V46.0593H22.8281V36.5811C22.8281 33.1664 25.5964 30.3981 29.0112 30.3981Z" fill="#010507"/>
<path id="Vector_135" d="M29.0105 30.4065C32.4204 30.4065 35.1851 33.1712 35.1851 36.5811V46.0508H22.8359V36.5811C22.8359 33.1712 25.6006 30.4065 29.0105 30.4065Z" fill="#020508"/>
<path id="Vector_136" d="M29.0099 30.415C32.415 30.415 35.176 33.1761 35.176 36.5812V46.0424H22.8438V36.5812C22.8438 33.1761 25.6048 30.415 29.0099 30.415Z" fill="#020609"/>
<path id="Vector_137" d="M29.0112 30.4235C32.4126 30.4235 35.1688 33.1809 35.1688 36.5811V46.0351H22.8535V36.5811C22.8535 33.1809 25.6097 30.4235 29.0112 30.4235Z" fill="#02070A"/>
<path id="Vector_138" d="M29.0098 30.4319C32.4064 30.4319 35.1602 33.1857 35.1602 36.5823V46.0278H22.8594V36.5823C22.8594 33.1845 25.6132 30.4319 29.0098 30.4319Z" fill="#02070B"/>
<path id="Vector_139" d="M29.0111 30.4392C32.4029 30.4392 35.1531 33.1894 35.1531 36.5812V46.0182H22.8691V36.5812C22.8691 33.1894 25.6193 30.4392 29.0111 30.4392Z" fill="#02080C"/>
<path id="Vector_140" d="M29.0105 30.4476C32.3974 30.4476 35.144 33.1942 35.144 36.5811V46.0098H22.877V36.5811C22.877 33.1942 25.6235 30.4476 29.0105 30.4476Z" fill="#03090D"/>
<path id="Vector_141" d="M29.0098 30.4561C32.3919 30.4561 35.1348 33.199 35.1348 36.5811V46.0013H22.8848V36.5811C22.8848 33.199 25.6277 30.4561 29.0098 30.4561Z" fill="#03090E"/>
<path id="Vector_142" d="M29.0111 30.4646C32.3884 30.4646 35.1277 33.2039 35.1277 36.5812V45.9929H22.8945V36.5812C22.8945 33.2039 25.6326 30.4646 29.0111 30.4646Z" fill="#030A0E"/>
<path id="Vector_143" d="M29.0105 30.473C32.3841 30.473 35.1186 33.2087 35.1186 36.5811V45.9844H22.9023V36.5811C22.9023 33.2075 25.6368 30.473 29.0105 30.473Z" fill="#030B0F"/>
<path id="Vector_144" d="M29.0098 30.4814C32.3787 30.4814 35.1095 33.2123 35.1095 36.5811V45.9771H22.9102V36.5811C22.9102 33.2123 25.641 30.4814 29.0098 30.4814Z" fill="#030C10"/>
<path id="Vector_145" d="M29.0104 30.4899C32.3744 30.4899 35.1028 33.2171 35.1028 36.5823V45.9698H22.918V36.5823C22.918 33.2171 25.6464 30.4899 29.0104 30.4899Z" fill="#030C11"/>
<path id="Vector_146" d="M29.0097 30.4972C32.3689 30.4972 35.0937 33.2208 35.0937 36.5812V45.9602H22.9258V36.5812C22.9258 33.222 25.6506 30.4972 29.0097 30.4972Z" fill="#040D12"/>
<path id="Vector_147" d="M29.011 30.5056C32.3654 30.5056 35.0865 33.2256 35.0865 36.5811V45.9517H22.9355V36.5811C22.9355 33.2268 25.6567 30.5056 29.011 30.5056Z" fill="#040E13"/>
<path id="Vector_148" d="M29.0104 30.514C32.3611 30.514 35.0774 33.2304 35.0774 36.5811V45.9432H22.9434V36.5811C22.9434 33.2304 25.6597 30.514 29.0104 30.514Z" fill="#040E14"/>
<path id="Vector_149" d="M29.0098 30.5226C32.3556 30.5226 35.0683 33.2353 35.0683 36.5812V45.9349H22.9512V36.5812C22.9512 33.2353 25.6639 30.5226 29.0098 30.5226Z" fill="#040F15"/>
<path id="Vector_150" d="M29.0111 30.531C32.3521 30.531 35.0612 33.2401 35.0612 36.5811V45.9264H22.9609V36.5811C22.9609 33.2401 25.67 30.531 29.0111 30.531Z" fill="#041016"/>
<path id="Vector_151" d="M29.0104 30.5394C32.3466 30.5394 35.0521 33.2449 35.0521 36.5811V45.9191H22.9688V36.5811C22.9688 33.2449 25.6742 30.5394 29.0104 30.5394Z" fill="#051017"/>
<path id="Vector_152" d="M29.011 30.548C32.3424 30.548 35.0442 33.2498 35.0442 36.5812V45.9107H22.9766V36.5812C22.9778 33.2498 25.6796 30.548 29.011 30.548Z" fill="#051118"/>
<path id="Vector_153" d="M29.0111 30.5552C32.3388 30.5552 35.037 33.2534 35.037 36.5811V45.9022H22.9863V36.5811C22.9851 33.2534 25.6833 30.5552 29.0111 30.5552Z" fill="#051219"/>
<path id="Vector_154" d="M29.0097 30.5636C32.3326 30.5636 35.0272 33.2582 35.0272 36.5811V45.8937H22.9922V36.5811C22.9922 33.2582 25.6868 30.5636 29.0097 30.5636Z" fill="#05121A"/>
<path id="Vector_155" d="M29.011 30.5721C32.3291 30.5721 35.02 33.2631 35.02 36.5812V45.8854H23.002V36.5812C23.002 33.2631 25.6929 30.5721 29.011 30.5721Z" fill="#05131B"/>
<path id="Vector_156" d="M29.0103 30.5806C32.3236 30.5806 35.0109 33.2679 35.0109 36.5811V45.8769H23.0098V36.5811C23.0098 33.2679 25.6971 30.5806 29.0103 30.5806Z" fill="#06141C"/>
<path id="Vector_157" d="M29.0097 30.589C32.3181 30.589 35.0018 33.2727 35.0018 36.5811V45.8684H23.0176V36.5811C23.0176 33.2727 25.7013 30.589 29.0097 30.589Z" fill="#06141D"/>
<path id="Vector_158" d="M29.0103 30.5974C32.3151 30.5974 34.9939 33.2775 34.9939 36.5811V45.8599H23.0254V36.5811C23.0266 33.2763 25.7055 30.5974 29.0103 30.5974Z" fill="#06151E"/>
<path id="Vector_159" d="M29.0096 30.606C32.3096 30.606 34.9848 33.2824 34.9848 36.5812V45.8527H23.0332V36.5812C23.0344 33.2812 25.7097 30.606 29.0096 30.606Z" fill="#06161F"/>
<path id="Vector_160" d="M29.0097 30.6144C32.3048 30.6144 34.9777 33.2872 34.9777 36.5823V45.8454H23.043V36.5823C23.0418 33.286 25.7146 30.6144 29.0097 30.6144Z" fill="#061620"/>
<path id="Vector_161" d="M29.0103 30.6216C32.3006 30.6216 34.9698 33.2908 34.9698 36.5811V45.8357H23.0508V36.5811C23.0508 33.2908 25.72 30.6216 29.0103 30.6216Z" fill="#071721"/>
<path id="Vector_162" d="M29.0096 30.6301C32.2951 30.6301 34.9607 33.2945 34.9607 36.5812V45.8273H23.0586V36.5812C23.0586 33.2957 25.7242 30.6301 29.0096 30.6301Z" fill="#071822"/>
<path id="Vector_163" d="M29.0109 30.6385C32.2928 30.6385 34.9535 33.2993 34.9535 36.5811V45.8188H23.0684V36.5811C23.0684 33.2993 25.7291 30.6385 29.0109 30.6385Z" fill="#071823"/>
<path id="Vector_164" d="M29.0103 30.647C32.2873 30.647 34.9444 33.3041 34.9444 36.5811V45.8103H23.0762V36.5811C23.0762 33.3041 25.7333 30.647 29.0103 30.647Z" fill="#071924"/>
<path id="Vector_165" d="M29.0109 30.6555C32.283 30.6555 34.9365 33.309 34.9365 36.5812V45.802H23.084V36.5812C23.0852 33.309 25.7387 30.6555 29.0109 30.6555Z" fill="#071A25"/>
<path id="Vector_166" d="M29.0102 30.6639C32.2775 30.6639 34.9274 33.3138 34.9274 36.5811V45.7947H23.0918V36.5811C23.093 33.3138 25.7429 30.6639 29.0102 30.6639Z" fill="#081A26"/>
<path id="Vector_167" d="M29.0103 30.6724C32.2728 30.6724 34.9203 33.3186 34.9203 36.5823V45.7874H23.1016V36.5823C23.1004 33.3186 25.7478 30.6724 29.0103 30.6724Z" fill="#081B27"/>
<path id="Vector_168" d="M29.0097 30.6797C32.2685 30.6797 34.9112 33.3223 34.9112 36.5812V45.7778H23.1094V36.5812C23.1082 33.3235 25.7508 30.6797 29.0097 30.6797Z" fill="#081C28"/>
<path id="Vector_169" d="M29.0102 30.6881C32.2643 30.6881 34.9033 33.3271 34.9033 36.5812V45.7693H23.1172V36.5812C23.1172 33.3271 25.7562 30.6881 29.0102 30.6881Z" fill="#081C29"/>
<path id="Vector_170" d="M29.0115 30.6965C32.2607 30.6965 34.8961 33.3319 34.8961 36.5811V45.7608H23.127V36.5811C23.127 33.3319 25.7623 30.6965 29.0115 30.6965Z" fill="#081D2A"/>
<path id="Vector_171" d="M29.0109 30.705C32.2553 30.705 34.887 33.3367 34.887 36.5811V45.7523H23.1348V36.5811C23.1348 33.3367 25.7665 30.705 29.0109 30.705Z" fill="#091E2A"/>
<path id="Vector_172" d="M29.0115 30.7135C32.251 30.7135 34.8791 33.3416 34.8791 36.5812V45.744H23.1426V36.5812C23.1438 33.3416 25.7719 30.7135 29.0115 30.7135Z" fill="#091E2B"/>
<path id="Vector_173" d="M29.0108 30.7219C32.2467 30.7219 34.87 33.3464 34.87 36.5811V45.7367H23.1504V36.5811C23.1516 33.3464 25.7749 30.7219 29.0108 30.7219Z" fill="#091F2C"/>
<path id="Vector_174" d="M29.0109 30.7303C32.242 30.7303 34.8629 33.3512 34.8629 36.5823V45.7294H23.1602V36.5823C23.1589 33.35 25.7798 30.7303 29.0109 30.7303Z" fill="#09202D"/>
<path id="Vector_175" d="M29.0103 30.7377C32.2365 30.7377 34.8538 33.3549 34.8538 36.5812V45.7198H23.168V36.5812C23.1668 33.3549 25.784 30.7377 29.0103 30.7377Z" fill="#09202E"/>
<path id="Vector_176" d="M29.0108 30.7461C32.2322 30.7461 34.8459 33.3597 34.8459 36.5811V45.7113H23.1758V36.5811C23.1758 33.3597 25.7894 30.7461 29.0108 30.7461Z" fill="#0A212F"/>
<path id="Vector_177" d="M29.0102 30.7545C32.2268 30.7545 34.8368 33.3645 34.8368 36.5811V45.7028H23.1836V36.5811C23.1836 33.3645 25.7936 30.7545 29.0102 30.7545Z" fill="#0A2230"/>
<path id="Vector_178" d="M29.0115 30.7631C32.2244 30.7631 34.8296 33.3694 34.8296 36.5812V45.6944H23.1934V36.5812C23.1934 33.3694 25.7985 30.7631 29.0115 30.7631Z" fill="#0A2331"/>
<path id="Vector_179" d="M29.0108 30.7715C32.219 30.7715 34.8205 33.3742 34.8205 36.5812V45.6859H23.2012V36.5812C23.2012 33.373 25.8027 30.7715 29.0108 30.7715Z" fill="#0A2332"/>
<path id="Vector_180" d="M29.0114 30.7799C32.2147 30.7799 34.8126 33.3778 34.8126 36.5811V45.6787H23.209V36.5811C23.2102 33.3778 25.8081 30.7799 29.0114 30.7799Z" fill="#0A2433"/>
<path id="Vector_181" d="M29.0115 30.7883C32.21 30.7883 34.8055 33.3826 34.8055 36.5823V45.6714H23.2188V36.5823C23.2175 33.3826 25.813 30.7883 29.0115 30.7883Z" fill="#0A2534"/>
<path id="Vector_182" d="M29.0101 30.7957C32.2037 30.7957 34.7956 33.3863 34.7956 36.5812V45.6618H23.2246V36.5812C23.2246 33.3875 25.8165 30.7957 29.0101 30.7957Z" fill="#0B2535"/>
<path id="Vector_183" d="M29.0114 30.8041C32.2014 30.8041 34.7885 33.3911 34.7885 36.5811V45.6533H23.2344V36.5811C23.2344 33.3923 25.8214 30.8041 29.0114 30.8041Z" fill="#0B2636"/>
<path id="Vector_184" d="M29.0108 30.8125C32.1959 30.8125 34.7794 33.3959 34.7794 36.5811V45.6448H23.2422V36.5811C23.2422 33.3959 25.8256 30.8125 29.0108 30.8125Z" fill="#0B2737"/>
<path id="Vector_185" d="M29.0101 30.821C32.1905 30.821 34.7703 33.4008 34.7703 36.5812V45.6364H23.25V36.5812C23.25 33.4008 25.8298 30.821 29.0101 30.821Z" fill="#0B2738"/>
<path id="Vector_186" d="M29.0107 30.8295C32.1862 30.8295 34.7624 33.4056 34.7624 36.5811V45.6279H23.2578V36.5811C23.259 33.4056 25.8352 30.8295 29.0107 30.8295Z" fill="#0B2839"/>
<path id="Vector_187" d="M29.01 30.8379C32.1807 30.8379 34.7533 33.4104 34.7533 36.5811V45.6206H23.2656V36.5811C23.2668 33.4104 25.8394 30.8379 29.01 30.8379Z" fill="#0C293A"/>
<path id="Vector_188" d="M29.0101 30.8464C32.1772 30.8464 34.7461 33.4154 34.7461 36.5824V45.6135H23.2754V36.5824C23.2742 33.4154 25.8431 30.8464 29.0101 30.8464Z" fill="#0C293B"/>
<path id="Vector_189" d="M29.0114 30.8536C32.1737 30.8536 34.7389 33.4189 34.7389 36.5811V45.6038H23.2852V36.5811C23.2839 33.4189 25.8492 30.8536 29.0114 30.8536Z" fill="#0C2A3C"/>
<path id="Vector_190" d="M29.0101 30.8621C32.1674 30.8621 34.7291 33.4237 34.7291 36.5811V45.5953H23.291V36.5811C23.291 33.4237 25.8527 30.8621 29.0101 30.8621Z" fill="#0C2B3D"/>
<path id="Vector_191" d="M29.0114 30.8706C32.1639 30.8706 34.7219 33.4286 34.7219 36.5812V45.5869H23.3008V36.5812C23.3008 33.4286 25.8588 30.8706 29.0114 30.8706Z" fill="#0C2B3E"/>
<path id="Vector_192" d="M29.0107 30.879C32.1584 30.879 34.7128 33.4334 34.7128 36.5812V45.5784H23.3086V36.5812C23.3086 33.4334 25.863 30.879 29.0107 30.879Z" fill="#0D2C3F"/>
<path id="Vector_193" d="M29.0113 30.8875C32.1554 30.8875 34.7049 33.4382 34.7049 36.5811V45.5699H23.3164V36.5811C23.3176 33.4382 25.8672 30.8875 29.0113 30.8875Z" fill="#0D2D40"/>
<path id="Vector_194" d="M29.0106 30.8959C32.1499 30.8959 34.6958 33.443 34.6958 36.5811V45.5626H23.3242V36.5811C23.3254 33.4418 25.8714 30.8959 29.0106 30.8959Z" fill="#0D2D41"/>
<path id="Vector_195" d="M29.0107 30.9044C32.1452 30.9044 34.6887 33.448 34.6887 36.5824V45.5543H23.334V36.5812C23.3328 33.4468 25.8763 30.9044 29.0107 30.9044Z" fill="#0D2E42"/>
<path id="Vector_196" d="M29.0101 30.9116C32.1397 30.9116 34.6796 33.4515 34.6796 36.5811V45.5457H23.3418V36.5811C23.3406 33.4515 25.8805 30.9116 29.0101 30.9116Z" fill="#0D2F43"/>
<path id="Vector_197" d="M29.0107 30.92C32.1354 30.92 34.6717 33.4551 34.6717 36.5811V45.5373H23.3496V36.5811C23.3496 33.4563 25.8859 30.92 29.0107 30.92Z" fill="#0E2F44"/>
<path id="Vector_198" d="M29.01 30.9286C32.1311 30.9286 34.6626 33.46 34.6626 36.5812V45.5289H23.3574V36.5812C23.3574 33.4613 25.8889 30.9286 29.01 30.9286Z" fill="#0E3045"/>
<path id="Vector_199" d="M29.0113 30.937C32.1276 30.937 34.6554 33.4648 34.6554 36.5811V45.5204H23.3672V36.5811C23.3672 33.4648 25.895 30.937 29.0113 30.937Z" fill="#0E3145"/>
<path id="Vector_200" d="M29.0099 30.9454C32.1214 30.9454 34.6456 33.4696 34.6456 36.5811V45.5119H23.373V36.5811C23.3743 33.4696 25.8985 30.9454 29.0099 30.9454Z" fill="#0E3146"/>
<path id="Vector_201" d="M29.0112 30.954C32.1179 30.954 34.6384 33.4746 34.6384 36.5812V45.5047H23.3828V36.5812C23.384 33.4746 25.9046 30.954 29.0112 30.954Z" fill="#0E3247"/>
<path id="Vector_202" d="M29.0113 30.9624C32.1131 30.9624 34.6313 33.4794 34.6313 36.5824V45.4974H23.3926V36.5824C23.3914 33.4794 25.9095 30.9624 29.0113 30.9624Z" fill="#0F3348"/>
<path id="Vector_203" d="M29.0107 30.9696C32.1088 30.9696 34.6222 33.4829 34.6222 36.5811V45.4877H23.4004V36.5811C23.3992 33.4841 25.9125 30.9696 29.0107 30.9696Z" fill="#0F3349"/>
<path id="Vector_204" d="M29.0112 30.978C32.1046 30.978 34.6143 33.4877 34.6143 36.5811V45.4792H23.4082V36.5811C23.4082 33.4877 25.9179 30.978 29.0112 30.978Z" fill="#0F344A"/>
<path id="Vector_205" d="M29.0106 30.9866C32.0991 30.9866 34.6052 33.4927 34.6052 36.5812V45.4709H23.416V36.5812C23.416 33.4927 25.9221 30.9866 29.0106 30.9866Z" fill="#0F354B"/>
<path id="Vector_206" d="M29.01 30.995C32.0936 30.995 34.5961 33.4975 34.5961 36.5811V45.4624H23.4238V36.5811C23.4238 33.4975 25.9263 30.995 29.01 30.995Z" fill="#0F354C"/>
<path id="Vector_207" d="M29.0113 31.0034C32.0901 31.0034 34.5889 33.5023 34.5889 36.5811V45.4539H23.4336V36.5811C23.4336 33.5023 25.9324 31.0034 29.0113 31.0034Z" fill="#10364D"/>
<path id="Vector_208" d="M29.0099 31.012C32.0851 31.012 34.5791 33.5072 34.5791 36.5812V45.4467H23.4395V36.5812C23.4407 33.5072 25.9347 31.012 29.0099 31.012Z" fill="#10374E"/>
<path id="Vector_209" d="M29.01 31.0204C32.0803 31.0204 34.5719 33.512 34.5719 36.5823V45.4394H23.4492V36.5823C23.448 33.5108 25.9396 31.0204 29.01 31.0204Z" fill="#10374F"/>
<path id="Vector_210" d="M29.0113 31.0276C32.0768 31.0276 34.5648 33.5155 34.5648 36.5811V45.4297H23.459V36.5811C23.4578 33.5155 25.9457 31.0276 29.0113 31.0276Z" fill="#103850"/>
<path id="Vector_211" d="M29.0099 31.0361C32.0706 31.0361 34.5549 33.5205 34.5549 36.5812V45.4213H23.4648V36.5812C23.4648 33.5205 25.9492 31.0361 29.0099 31.0361Z" fill="#103951"/>
<path id="Vector_212" d="M29.0112 31.0446C32.0671 31.0446 34.5478 33.5253 34.5478 36.5811V45.4128H23.4746V36.5811C23.4746 33.5253 25.9553 31.0446 29.0112 31.0446Z" fill="#103A52"/>
<path id="Vector_213" d="M29.0105 31.053C32.0616 31.053 34.5387 33.5301 34.5387 36.5811V45.4044H23.4824V36.5811C23.4824 33.5301 25.9583 31.053 29.0105 31.053Z" fill="#113A53"/>
<path id="Vector_214" d="M29.0099 31.0615C32.0573 31.0615 34.5296 33.535 34.5296 36.5812V45.396H23.4902V36.5812C23.4902 33.5338 25.9625 31.0615 29.0099 31.0615Z" fill="#113B54"/>
<path id="Vector_215" d="M29.0105 31.0699C32.053 31.0699 34.5217 33.5386 34.5217 36.5812V45.3887H23.498V36.5812C23.4993 33.5386 25.9679 31.0699 29.0105 31.0699Z" fill="#113C55"/>
<path id="Vector_216" d="M29.0106 31.0784C32.0483 31.0784 34.5145 33.5434 34.5145 36.5823V45.3814H23.5078V36.5823C23.5066 33.5434 25.9728 31.0784 29.0106 31.0784Z" fill="#113C56"/>
<path id="Vector_217" d="M29.0111 31.0856C32.044 31.0856 34.5066 33.5469 34.5066 36.5811V45.3717H23.5156V36.5811C23.5156 33.5482 25.9782 31.0856 29.0111 31.0856Z" fill="#113D57"/>
<path id="Vector_218" d="M29.0105 31.0941C32.0386 31.0941 34.4975 33.5519 34.4975 36.5812V45.3633H23.5234V36.5812C23.5234 33.5531 25.9824 31.0941 29.0105 31.0941Z" fill="#123E58"/>
<path id="Vector_219" d="M29.0098 31.1025C32.0343 31.1025 34.4884 33.5567 34.4884 36.5811V45.3548H23.5312V36.5811C23.5313 33.5567 25.9854 31.1025 29.0098 31.1025Z" fill="#123E59"/>
<path id="Vector_220" d="M29.0111 31.111C32.0308 31.111 34.4813 33.5615 34.4813 36.5811V45.3463H23.541V36.5811C23.541 33.5615 25.9915 31.111 29.0111 31.111Z" fill="#123F5A"/>
<path id="Vector_221" d="M29.0105 31.1195C32.0253 31.1195 34.4722 33.5664 34.4722 36.5812V45.338H23.5488V36.5812C23.5488 33.5664 25.9957 31.1195 29.0105 31.1195Z" fill="#12405B"/>
<path id="Vector_222" d="M29.0111 31.1279C32.021 31.1279 34.4643 33.5712 34.4643 36.5811V45.3307H23.5566V36.5811C23.5578 33.5712 26.0011 31.1279 29.0111 31.1279Z" fill="#12405C"/>
<path id="Vector_223" d="M29.0104 31.1364C32.0155 31.1364 34.4552 33.576 34.4552 36.5811V45.3222H23.5645V36.5811C23.5645 33.576 26.0053 31.1364 29.0104 31.1364Z" fill="#13415D"/>
<path id="Vector_224" d="M29.0105 31.1437C32.012 31.1437 34.448 33.5797 34.448 36.5812V45.3138H23.5742V36.5812C23.573 33.5797 26.009 31.1437 29.0105 31.1437Z" fill="#13425E"/>
<path id="Vector_225" d="M29.0111 31.1521C32.0077 31.1521 34.4401 33.5845 34.4401 36.5811V45.3053H23.582V36.5811C23.582 33.5845 26.0144 31.1521 29.0111 31.1521Z" fill="#13425F"/>
<path id="Vector_226" d="M29.0104 31.1605C32.0023 31.1605 34.431 33.5893 34.431 36.5811V45.2968H23.5898V36.5811C23.5898 33.5893 26.0186 31.1605 29.0104 31.1605Z" fill="#134360"/>
<path id="Vector_227" d="M29.0098 31.1689C31.9968 31.1689 34.4219 33.5941 34.4219 36.5811V45.2883H23.5977V36.5811C23.5977 33.5941 26.0228 31.1689 29.0098 31.1689Z" fill="#134461"/>
<path id="Vector_228" d="M29.0111 31.1775C31.9933 31.1775 34.4148 33.599 34.4148 36.5812V45.2799H23.6074V36.5812C23.6074 33.599 26.0289 31.1775 29.0111 31.1775Z" fill="#144461"/>
<path id="Vector_229" d="M29.0097 31.1859C31.9882 31.1859 34.4049 33.6038 34.4049 36.5811V45.2715H23.6133V36.5811C23.6145 33.6026 26.0312 31.1859 29.0097 31.1859Z" fill="#144562"/>
<path id="Vector_230" d="M29.0098 31.1943C31.9835 31.1943 34.3965 33.6086 34.3965 36.5811V45.2642H23.623V36.5811C23.623 33.6074 26.0361 31.1943 29.0098 31.1943Z" fill="#144663"/>
<path id="Vector_231" d="M29.0111 31.2029C31.98 31.2029 34.3906 33.6135 34.3906 36.5824V45.257H23.6328V36.5824C23.6316 33.6123 26.0422 31.2029 29.0111 31.2029Z" fill="#144664"/>
<path id="Vector_232" d="M29.0097 31.2101C31.9738 31.2101 34.3808 33.6171 34.3808 36.5811V45.2473H23.6387V36.5811C23.6387 33.6171 26.0457 31.2101 29.0097 31.2101Z" fill="#144765"/>
<path id="Vector_233" d="M29.011 31.2185C31.9702 31.2185 34.3736 33.6207 34.3736 36.5811V45.2388H23.6484V36.5811C23.6484 33.6219 26.0518 31.2185 29.011 31.2185Z" fill="#154866"/>
<path id="Vector_234" d="M29.0104 31.2271C31.966 31.2271 34.3645 33.6256 34.3645 36.5812V45.2304H23.6562V36.5812C23.6563 33.6256 26.0548 31.2271 29.0104 31.2271Z" fill="#154867"/>
<path id="Vector_235" d="M29.0097 31.2355C31.9605 31.2355 34.3554 33.6304 34.3554 36.5811V45.2219H23.6641V36.5811C23.6641 33.6304 26.059 31.2355 29.0097 31.2355Z" fill="#154968"/>
<path id="Vector_236" d="M29.0103 31.2439C31.9562 31.2439 34.3475 33.6352 34.3475 36.5811V45.2134H23.6719V36.5811C23.6731 33.6352 26.0644 31.2439 29.0103 31.2439Z" fill="#154A69"/>
<path id="Vector_237" d="M29.0096 31.2524C31.9507 31.2524 34.3384 33.6401 34.3384 36.5812V45.2063H23.6797V36.5812C23.6809 33.6401 26.0686 31.2524 29.0096 31.2524Z" fill="#154A6A"/>
<path id="Vector_238" d="M29.0097 31.2609C31.946 31.2609 34.3312 33.6449 34.3312 36.5824V45.199H23.6895V36.5824C23.6882 33.6449 26.0735 31.2609 29.0097 31.2609Z" fill="#164B6B"/>
<path id="Vector_239" d="M29.0103 31.2681C31.9429 31.2681 34.3233 33.6485 34.3233 36.5811V45.1893H23.6973V36.5811C23.6973 33.6497 26.0777 31.2681 29.0103 31.2681Z" fill="#164C6C"/>
<path id="Vector_240" d="M29.0097 31.2765C31.9375 31.2765 34.3142 33.6533 34.3142 36.5811V45.1808H23.7051V36.5811C23.7051 33.6533 26.0819 31.2765 29.0097 31.2765Z" fill="#164C6D"/>
<path id="Vector_241" d="M29.011 31.285C31.9339 31.285 34.3071 33.6582 34.3071 36.5812V45.1724H23.7148V36.5812C23.7148 33.6582 26.088 31.285 29.011 31.285Z" fill="#164D6E"/>
<path id="Vector_242" d="M29.0103 31.2935C31.9284 31.2935 34.298 33.663 34.298 36.5811V45.1639H23.7227V36.5811C23.7227 33.663 26.0922 31.2935 29.0103 31.2935Z" fill="#164E6F"/>
<path id="Vector_243" d="M29.0109 31.3019C31.9242 31.3019 34.2901 33.6678 34.2901 36.5811V45.1554H23.7305V36.5811C23.7317 33.6678 26.0976 31.3019 29.0109 31.3019Z" fill="#174E70"/>
<path id="Vector_244" d="M29.0102 31.3104C31.9199 31.3104 34.281 33.6727 34.281 36.5812V45.1483H23.7383V36.5812C23.7395 33.6727 26.1006 31.3104 29.0102 31.3104Z" fill="#174F71"/>
<path id="Vector_245" d="M29.0103 31.3188C31.9152 31.3188 34.2738 33.6775 34.2738 36.5823V45.141H23.748V36.5823C23.7468 33.6763 26.1055 31.3188 29.0103 31.3188Z" fill="#175072"/>
<path id="Vector_246" d="M29.0097 31.326C31.9097 31.326 34.2647 33.6811 34.2647 36.5811V45.1313H23.7559V36.5811C23.7547 33.6811 26.1097 31.326 29.0097 31.326Z" fill="#175173"/>
<path id="Vector_247" d="M29.0103 31.3346C31.9054 31.3346 34.2568 33.686 34.2568 36.5812V45.1229H23.7637V36.5812C23.7637 33.686 26.1151 31.3346 29.0103 31.3346Z" fill="#175174"/>
<path id="Vector_248" d="M29.0096 31.343C31.8999 31.343 34.2477 33.6908 34.2477 36.5811V45.1144H23.7715V36.5811C23.7715 33.6908 26.1193 31.343 29.0096 31.343Z" fill="#175275"/>
<path id="Vector_249" d="M29.0109 31.3514C31.8976 31.3514 34.2406 33.6956 34.2406 36.5811V45.1059H23.7812V36.5811C23.7812 33.6956 26.1242 31.3514 29.0109 31.3514Z" fill="#185376"/>
<path id="Vector_250" d="M29.0115 31.3599C31.8934 31.3599 34.2327 33.7004 34.2327 36.5811V45.0974H23.7891V36.5811C23.7903 33.6992 26.1296 31.3599 29.0115 31.3599Z" fill="#185377"/>
<path id="Vector_251" d="M29.0108 31.3684C31.8879 31.3684 34.2236 33.7041 34.2236 36.5812V45.0902H23.7969V36.5812C23.7981 33.7041 26.1338 31.3684 29.0108 31.3684Z" fill="#185478"/>
<path id="Vector_252" d="M29.0102 31.3768C31.8824 31.3768 34.2157 33.7089 34.2157 36.5823V45.083H23.8047V36.5823C23.8047 33.7089 26.138 31.3768 29.0102 31.3768Z" fill="#185579"/>
<path id="Vector_253" d="M29.0103 31.384C31.8777 31.384 34.2073 33.7125 34.2073 36.5811V45.0732H23.8145V36.5811C23.8132 33.7137 26.1429 31.384 29.0103 31.384Z" fill="#18557A"/>
<path id="Vector_254" d="M29.0108 31.3926C31.8746 31.3926 34.1994 33.7174 34.1994 36.5812V45.0649H23.8223V36.5812C23.8223 33.7186 26.1471 31.3926 29.0108 31.3926Z" fill="#19567B"/>
<path id="Vector_255" d="M29.0102 31.401C31.8691 31.401 34.1903 33.7222 34.1903 36.5811V45.0564H23.8301V36.5811C23.8301 33.7222 26.1513 31.401 29.0102 31.401Z" fill="#19577C"/>
<path id="Vector_256" d="M29.0115 31.4094C31.8656 31.4094 34.1832 33.727 34.1832 36.5811V45.0479H23.8398V36.5811C23.8398 33.727 26.1574 31.4094 29.0115 31.4094Z" fill="#19577D"/>
<path id="Vector_257" d="M29.0101 31.418C31.8594 31.418 34.1733 33.7319 34.1733 36.5812V45.0395H23.8457V36.5812C23.8469 33.7319 26.1609 31.418 29.0101 31.418Z" fill="#19587D"/>
<path id="Vector_258" d="M29.0114 31.4264C31.8558 31.4264 34.1662 33.7367 34.1662 36.5811V45.0322H23.8555V36.5811C23.8567 33.7367 26.167 31.4264 29.0114 31.4264Z" fill="#19597E"/>
<path id="Vector_259" d="M29.0115 31.4348C31.8523 31.4348 34.159 33.7415 34.159 36.5823V45.0249H23.8652V36.5823C23.864 33.7415 26.1707 31.4348 29.0115 31.4348Z" fill="#1A597F"/>
<path id="Vector_260" d="M29.0109 31.4421C31.8468 31.4421 34.1499 33.7452 34.1499 36.5812V45.0153H23.873V36.5812C23.8718 33.7452 26.1749 31.4421 29.0109 31.4421Z" fill="#1A5A80"/>
<path id="Vector_261" d="M29.0114 31.4506C31.8426 31.4506 34.142 33.75 34.142 36.5811V45.0069H23.8809V36.5811C23.8809 33.75 26.1803 31.4506 29.0114 31.4506Z" fill="#1A5B81"/>
<path id="Vector_262" d="M29.0108 31.459C31.8371 31.459 34.1329 33.7548 34.1329 36.5811V44.9984H23.8887V36.5811C23.8887 33.7548 26.1845 31.459 29.0108 31.459Z" fill="#1A5B82"/>
<path id="Vector_263" d="M29.0102 31.4674C31.8316 31.4674 34.1238 33.7596 34.1238 36.5811V44.9899H23.8965V36.5811C23.8965 33.7596 26.1887 31.4674 29.0102 31.4674Z" fill="#1A5C83"/>
<path id="Vector_264" d="M29.0107 31.476C31.8285 31.476 34.1159 33.7645 34.1159 36.5812V44.9815H23.9043V36.5812C23.9055 33.7645 26.1929 31.476 29.0107 31.476Z" fill="#1B5D84"/>
<path id="Vector_265" d="M29.0108 31.4844C31.8238 31.4844 34.1076 33.7693 34.1076 36.5811V44.9742H23.9141V36.5811C23.9141 33.7681 26.1978 31.4844 29.0108 31.4844Z" fill="#1B5D85"/>
<path id="Vector_266" d="M29.0102 31.4928C31.8183 31.4928 34.0997 33.7741 34.0997 36.5823V44.9669H23.9219V36.5823C23.9207 33.7729 26.202 31.4928 29.0102 31.4928Z" fill="#1B5E86"/>
<path id="Vector_267" d="M29.0115 31.5001C31.8148 31.5001 34.0925 33.7778 34.0925 36.5812V44.9573H23.9316V36.5812C23.9304 33.7778 26.2081 31.5001 29.0115 31.5001Z" fill="#1B5F87"/>
<path id="Vector_268" d="M29.0101 31.5085C31.8086 31.5085 34.0827 33.7814 34.0827 36.5811V44.9488H23.9375V36.5811C23.9375 33.7826 26.2116 31.5085 29.0101 31.5085Z" fill="#1B5F88"/>
<path id="Vector_269" d="M29.0114 31.517C31.8063 31.517 34.0755 33.7862 34.0755 36.5811V44.9403H23.9473V36.5811C23.9473 33.7874 26.2165 31.517 29.0114 31.517Z" fill="#1C6089"/>
<path id="Vector_270" d="M29.0107 31.5255C31.8008 31.5255 34.0664 33.7911 34.0664 36.5812V44.932H23.9551V36.5812C23.9551 33.7911 26.2207 31.5255 29.0107 31.5255Z" fill="#1C618A"/>
<path id="Vector_271" d="M29.0113 31.5339C31.7965 31.5339 34.0585 33.7959 34.0585 36.5811V44.9235H23.9629V36.5811C23.9641 33.7959 26.2261 31.5339 29.0113 31.5339Z" fill="#1C618B"/>
<path id="Vector_272" d="M29.0107 31.5424C31.791 31.5424 34.0494 33.8007 34.0494 36.5811V44.9162H23.9707V36.5811C23.9719 33.8007 26.2303 31.5424 29.0107 31.5424Z" fill="#1C628C"/>
<path id="Vector_273" d="M29.0108 31.5508C31.7863 31.5508 34.0423 33.8055 34.0423 36.5823V44.9089H23.9805V36.5823C23.9793 33.8055 26.2352 31.5508 29.0108 31.5508Z" fill="#1C638D"/>
<path id="Vector_274" d="M29.0101 31.5581C31.782 31.5581 34.0332 33.8092 34.0332 36.5811V44.8993H23.9883V36.5811C23.9871 33.8104 26.2382 31.5581 29.0101 31.5581Z" fill="#1D638E"/>
<path id="Vector_275" d="M29.0107 31.5665C31.7778 31.5665 34.0253 33.814 34.0253 36.5811V44.8908H23.9961V36.5811C23.9961 33.814 26.2436 31.5665 29.0107 31.5665Z" fill="#1D648F"/>
<path id="Vector_276" d="M29.01 31.575C31.7723 31.575 34.0162 33.8188 34.0162 36.5811V44.8823H24.0039V36.5811C24.0039 33.8188 26.2478 31.575 29.01 31.575Z" fill="#1D6590"/>
<path id="Vector_277" d="M29.0113 31.5835C31.7688 31.5835 34.009 33.8237 34.009 36.5812V44.874H24.0137V36.5812C24.0137 33.8237 26.2539 31.5835 29.0113 31.5835Z" fill="#1D6591"/>
<path id="Vector_278" d="M29.0099 31.5919C31.7625 31.5919 33.9992 33.8285 33.9992 36.5811V44.8655H24.0195V36.5811C24.0207 33.8285 26.2574 31.5919 29.0099 31.5919Z" fill="#1D6692"/>
<path id="Vector_279" d="M29.0113 31.6003C31.7602 31.6003 33.992 33.8333 33.992 36.5811V44.8582H24.0293V36.5811C24.0305 33.8333 26.2623 31.6003 29.0113 31.6003Z" fill="#1D6793"/>
<path id="Vector_280" d="M29.0114 31.6089C31.7555 31.6089 33.9849 33.8383 33.9849 36.5824V44.851H24.0391V36.5824C24.0379 33.8371 26.2672 31.6089 29.0114 31.6089Z" fill="#1E6894"/>
<path id="Vector_281" d="M29.0107 31.6161C31.75 31.6161 33.9758 33.8418 33.9758 36.5811V44.8413H24.0469V36.5811C24.0457 33.8418 26.2714 31.6161 29.0107 31.6161Z" fill="#1E6895"/>
<path id="Vector_282" d="M29.0113 31.6245C31.7457 31.6245 33.9679 33.8466 33.9679 36.5811V44.8328H24.0547V36.5811C24.0547 33.8466 26.2768 31.6245 29.0113 31.6245Z" fill="#1E6996"/>
<path id="Vector_283" d="M29.0106 31.6331C31.7402 31.6331 33.9588 33.8516 33.9588 36.5812V44.8244H24.0625V36.5812C24.0625 33.8516 26.281 31.6331 29.0106 31.6331Z" fill="#1E6A97"/>
<path id="Vector_284" d="M29.01 31.6415C31.736 31.6415 33.9496 33.8564 33.9496 36.5811V44.8159H24.0703V36.5811C24.0703 33.8564 26.284 31.6415 29.01 31.6415Z" fill="#1E6A98"/>
<path id="Vector_285" d="M29.0113 31.6499C31.7325 31.6499 33.9425 33.8612 33.9425 36.5811V44.8074H24.0801V36.5811C24.0801 33.8599 26.2901 31.6499 29.0113 31.6499Z" fill="#1F6B98"/>
<path id="Vector_286" d="M29.0099 31.6583C31.7262 31.6583 33.9326 33.8647 33.9326 36.5811V44.8002H24.0859V36.5811C24.0871 33.8647 26.2936 31.6583 29.0099 31.6583Z" fill="#1F6C99"/>
<path id="Vector_287" d="M29.0112 31.6669C31.7227 31.6669 33.9267 33.8697 33.9267 36.5824V44.793H24.0957V36.5824C24.0957 33.8697 26.2997 31.6669 29.0112 31.6669Z" fill="#1F6C9A"/>
<path id="Vector_288" d="M29.0113 31.6741C31.718 31.6741 33.9183 33.8732 33.9183 36.5811V44.7833H24.1055V36.5811C24.1043 33.8744 26.3046 31.6741 29.0113 31.6741Z" fill="#1F6D9B"/>
<path id="Vector_289" d="M29.0099 31.6825C31.7117 31.6825 33.9085 33.878 33.9085 36.5811V44.7748H24.1113V36.5811C24.1113 33.8792 26.3081 31.6825 29.0099 31.6825Z" fill="#1F6E9C"/>
<path id="Vector_290" d="M29.0112 31.691C31.7094 31.691 33.9013 33.883 33.9013 36.5812V44.7664H24.1211V36.5812C24.1211 33.883 26.313 31.691 29.0112 31.691Z" fill="#206E9D"/>
<path id="Vector_291" d="M29.0106 31.6995C31.7039 31.6995 33.8922 33.8878 33.8922 36.5811V44.7579H24.1289V36.5811C24.1289 33.8878 26.3172 31.6995 29.0106 31.6995Z" fill="#206F9E"/>
<path id="Vector_292" d="M29.0099 31.7079C31.6985 31.7079 33.8831 33.8926 33.8831 36.5811V44.7494H24.1367V36.5811C24.1367 33.8926 26.3214 31.7079 29.0099 31.7079Z" fill="#20709F"/>
<path id="Vector_293" d="M29.0105 31.7164C31.6942 31.7164 33.8752 33.8975 33.8752 36.5812V44.7423H24.1445V36.5812C24.1457 33.8975 26.3268 31.7164 29.0105 31.7164Z" fill="#2070A0"/>
<path id="Vector_294" d="M29.0106 31.7249C31.6895 31.7249 33.8681 33.9023 33.8681 36.5824V44.735H24.1543V36.5824C24.1531 33.9023 26.3317 31.7249 29.0106 31.7249Z" fill="#2071A1"/>
<path id="Vector_295" d="M29.0099 31.7321C31.6852 31.7321 33.859 33.9058 33.859 36.5811V44.7253H24.1621V36.5811C24.1609 33.9058 26.3347 31.7321 29.0099 31.7321Z" fill="#2172A2"/>
<path id="Vector_296" d="M29.0105 31.7406C31.6809 31.7406 33.8511 33.9108 33.8511 36.5812V44.7169H24.1699V36.5812C24.1699 33.9108 26.3401 31.7406 29.0105 31.7406Z" fill="#2172A3"/>
<path id="Vector_297" d="M29.0099 31.749C31.6754 31.749 33.842 33.9156 33.842 36.5811V44.7084H24.1777V36.5811C24.1777 33.9156 26.3443 31.749 29.0099 31.749Z" fill="#2173A4"/>
<path id="Vector_298" d="M29.0112 31.7574C31.6719 31.7574 33.8348 33.9204 33.8348 36.5811V44.6999H24.1875V36.5811C24.1875 33.9204 26.3504 31.7574 29.0112 31.7574Z" fill="#2174A5"/>
<path id="Vector_299" d="M29.0105 31.7659C31.6664 31.7659 33.8257 33.9252 33.8257 36.5811V44.6914H24.1953V36.5811C24.1953 33.9252 26.3546 31.7659 29.0105 31.7659Z" fill="#2174A6"/>
<path id="Vector_300" d="M29.0099 31.7744C31.6622 31.7744 33.8166 33.9301 33.8166 36.5812V44.6842H24.2031V36.5812C24.2031 33.9289 26.3576 31.7744 29.0099 31.7744Z" fill="#2275A7"/>
<path id="Vector_301" d="M29.0104 31.7828C31.6579 31.7828 33.8087 33.9349 33.8087 36.5811V44.6758H24.2109V36.5811C24.2121 33.9337 26.363 31.7828 29.0104 31.7828Z" fill="#2276A8"/>
<path id="Vector_302" d="M29.0105 31.79C31.6532 31.79 33.8016 33.9385 33.8016 36.5811V44.6672H24.2207V36.5811C24.2195 33.9385 26.3679 31.79 29.0105 31.79Z" fill="#2276A9"/>
<path id="Vector_303" d="M29.0111 31.7986C31.6489 31.7986 33.7937 33.9434 33.7937 36.5812V44.6589H24.2285V36.5812C24.2285 33.9434 26.3733 31.7986 29.0111 31.7986Z" fill="#2277AA"/>
<path id="Vector_304" d="M29.0105 31.807C31.6434 31.807 33.7846 33.947 33.7846 36.5811V44.6504H24.2363V36.5811C24.2363 33.9482 26.3775 31.807 29.0105 31.807Z" fill="#2278AB"/>
<path id="Vector_305" d="M29.0098 31.8154C31.6391 31.8154 33.7755 33.9518 33.7755 36.5811V44.6419H24.2441V36.5811C24.2441 33.9518 26.3805 31.8154 29.0098 31.8154Z" fill="#2378AC"/>
<path id="Vector_306" d="M29.0111 31.824C31.6356 31.824 33.7683 33.9567 33.7683 36.5812V44.6335H24.2539V36.5812C24.2539 33.9567 26.3866 31.824 29.0111 31.824Z" fill="#2379AD"/>
<path id="Vector_307" d="M29.0097 31.8324C31.6294 31.8324 33.7585 33.9615 33.7585 36.5811V44.625H24.2598V36.5811C24.261 33.9615 26.3901 31.8324 29.0097 31.8324Z" fill="#237AAE"/>
<path id="Vector_308" d="M29.011 31.8408C31.6259 31.8408 33.7513 33.9663 33.7513 36.5811V44.6177H24.2695V36.5811C24.2707 33.9663 26.3962 31.8408 29.011 31.8408Z" fill="#237AAF"/>
<path id="Vector_309" d="M29.0111 31.8492C31.6211 31.8492 33.7442 33.9711 33.7442 36.5823V44.6104H24.2793V36.5823C24.2781 33.9711 26.4011 31.8492 29.0111 31.8492Z" fill="#237BB0"/>
<path id="Vector_310" d="M29.0097 31.8566C31.6161 31.8566 33.7343 33.9748 33.7343 36.5812V44.6009H24.2852V36.5812C24.2852 33.976 26.4034 31.8566 29.0097 31.8566Z" fill="#247CB1"/>
<path id="Vector_311" d="M29.011 31.865C31.6126 31.865 33.7272 33.9796 33.7272 36.5811V44.5924H24.2949V36.5811C24.2949 33.9796 26.4095 31.865 29.011 31.865Z" fill="#247CB2"/>
<path id="Vector_312" d="M29.0104 31.8734C31.6071 31.8734 33.7181 33.9844 33.7181 36.5811V44.5839H24.3027V36.5811C24.3027 33.9844 26.4137 31.8734 29.0104 31.8734Z" fill="#247DB3"/>
<path id="Vector_313" d="M29.0098 31.882C31.6016 31.882 33.709 33.9893 33.709 36.5812V44.5755H24.3105V36.5812C24.3105 33.9893 26.4179 31.882 29.0098 31.882Z" fill="#247EB4"/>
<path id="Vector_314" d="M29.0103 31.8904C31.5974 31.8904 33.7011 33.9941 33.7011 36.5811V44.567H24.3184V36.5811C24.3196 33.9941 26.4233 31.8904 29.0103 31.8904Z" fill="#247FB4"/>
<path id="Vector_315" d="M29.0097 31.8988C31.5931 31.8988 33.692 33.9989 33.692 36.5811V44.5597H24.3262V36.5811C24.3274 33.9989 26.4263 31.8988 29.0097 31.8988Z" fill="#247FB5"/>
<path id="Vector_316" d="M29.0098 31.9073C31.5884 31.9073 33.6848 34.0038 33.6848 36.5824V44.5526H24.3359V36.5824C24.3347 34.0026 26.4312 31.9073 29.0098 31.9073Z" fill="#2580B6"/>
<path id="Vector_317" d="M29.0111 31.9146C31.5848 31.9146 33.6777 34.0074 33.6777 36.5811V44.5428H24.3457V36.5811C24.3445 34.0074 26.4373 31.9146 29.0111 31.9146Z" fill="#2581B7"/>
<path id="Vector_318" d="M29.0097 31.923C31.5786 31.923 33.6678 34.0122 33.6678 36.5811V44.5343H24.3516V36.5811C24.3516 34.0122 26.4408 31.923 29.0097 31.923Z" fill="#2581B8"/>
<path id="Vector_319" d="M29.011 31.9315C31.5751 31.9315 33.6607 34.0171 33.6607 36.5812V44.526H24.3613V36.5812C24.3613 34.0171 26.4469 31.9315 29.011 31.9315Z" fill="#2582B9"/>
<path id="Vector_320" d="M29.0103 31.9399C31.5708 31.9399 33.6516 34.0219 33.6516 36.5811V44.5175H24.3691V36.5811C24.3691 34.0219 26.4499 31.9399 29.0103 31.9399Z" fill="#2583BA"/>
<path id="Vector_321" d="M29.0109 31.9484C31.5665 31.9484 33.6437 34.0267 33.6437 36.5811V44.509H24.377V36.5811C24.3782 34.0255 26.4553 31.9484 29.0109 31.9484Z" fill="#2683BB"/>
<path id="Vector_322" d="M29.0103 31.9568C31.5611 31.9568 33.6346 34.0303 33.6346 36.5811V44.5017H24.3848V36.5811C24.386 34.0303 26.4595 31.9568 29.0103 31.9568Z" fill="#2684BC"/>
<path id="Vector_323" d="M29.0104 31.9653C31.5563 31.9653 33.6274 34.0352 33.6274 36.5824V44.4945H24.3945V36.5824C24.3933 34.0352 26.4644 31.9653 29.0104 31.9653Z" fill="#2685BD"/>
<path id="Vector_324" d="M29.0097 31.9725C31.5508 31.9725 33.6183 34.0388 33.6183 36.5811V44.4848H24.4023V36.5811C24.4011 34.04 26.4686 31.9725 29.0097 31.9725Z" fill="#2685BE"/>
<path id="Vector_325" d="M29.0103 31.981C31.5478 31.981 33.6104 34.0436 33.6104 36.5811V44.4763H24.4102V36.5811C24.4102 34.0448 26.4728 31.981 29.0103 31.981Z" fill="#2686BF"/>
<path id="Vector_326" d="M29.0096 31.9895C31.5423 31.9895 33.6013 34.0485 33.6013 36.5812V44.468H24.418V36.5812C24.418 34.0485 26.477 31.9895 29.0096 31.9895Z" fill="#2787C0"/>
<path id="Vector_327" d="M29.0109 31.9979C31.5388 31.9979 33.5942 34.0533 33.5942 36.5811V44.4595H24.4277V36.5811C24.4277 34.0533 26.4831 31.9979 29.0109 31.9979Z" fill="#2787C1"/>
<path id="Vector_328" d="M33.585 44.4522V36.5823C33.585 34.0593 31.5333 32.0076 29.0103 32.0076C26.4873 32.0076 24.4355 34.0593 24.4355 36.5823V44.4522H33.585Z" fill="#2788C2"/>
</g>
<path id="Vector_329" d="M29.6167 36.3588H28.4023V46.1342H29.6167V36.3588Z" fill="#162433"/>
<path id="Vector_330" d="M35.2227 37.5768V36.3624H22.8457V37.5768H35.2227Z" fill="#162433"/>
<path id="Vector_331" d="M29.0101 27.9089C32.5204 27.9089 35.366 25.0119 35.366 21.4383C35.366 17.8646 32.5204 14.9677 29.0101 14.9677C25.4999 14.9677 22.6543 17.8646 22.6543 21.4383C22.6543 25.0119 25.4999 27.9089 29.0101 27.9089Z" fill="url(#paint21_radial_2230_13903)"/>
<path id="Vector_332" d="M31.6392 22.7396C31.6392 22.3227 31.5087 21.9445 31.2743 21.6714C31.0145 21.3718 30.623 21.176 29.712 20.9029C28.7743 20.6298 28.6438 20.59 28.4613 20.474C28.2922 20.3833 28.2015 20.213 28.2015 20.0305C28.2015 19.6656 28.5665 19.3925 29.0607 19.3925C29.66 19.3925 29.973 19.6656 30.0503 20.2528H31.5994C31.5257 19.2004 30.9094 18.5141 29.8811 18.2857V17.2876H28.2523V18.3002C27.247 18.5479 26.6114 19.2475 26.6114 20.2021C26.6114 20.6443 26.7672 21.0479 27.0403 21.3222C27.288 21.5687 27.6397 21.7391 28.3163 21.9469C29.4232 22.272 29.4232 22.272 29.6189 22.3638C29.9319 22.4943 30.0358 22.6248 30.0358 22.8592C30.0358 23.2628 29.6721 23.5238 29.0595 23.5238C28.291 23.5238 27.9393 23.2241 27.8874 22.4943H26.377C26.377 23.7038 27.021 24.4301 28.2523 24.6536V25.7073H29.8811V24.6621C30.9988 24.4518 31.6392 23.7739 31.6392 22.7396Z" fill="#9C9690"/>
</g>
<defs>
<linearGradient id="paint0_linear_2230_13903" x1="29.0248" y1="45.623" x2="29.0248" y2="25.1067" gradientUnits="userSpaceOnUse">
<stop stop-color="#949494"/>
<stop offset="0.161" stop-color="#80807F"/>
<stop offset="0.537" stop-color="#555553"/>
<stop offset="0.829" stop-color="#3A3A37"/>
<stop offset="1" stop-color="#30302D"/>
</linearGradient>
<linearGradient id="paint1_linear_2230_13903" x1="29.0953" y1="51.2805" x2="29.0953" y2="47.85" gradientUnits="userSpaceOnUse">
<stop offset="0.131" stop-color="#6A665E"/>
<stop offset="0.226" stop-color="#757169"/>
<stop offset="0.393" stop-color="#938F86"/>
<stop offset="0.613" stop-color="#C4BEB5"/>
<stop offset="0.7" stop-color="#D9D3CA"/>
<stop offset="0.812" stop-color="#E2DED5"/>
<stop offset="1" stop-color="#FAF8F2"/>
</linearGradient>
<linearGradient id="paint2_linear_2230_13903" x1="29.0954" y1="49.2299" x2="29.0954" y2="45.9795" gradientUnits="userSpaceOnUse">
<stop offset="0.131" stop-color="#6A665E"/>
<stop offset="0.226" stop-color="#757169"/>
<stop offset="0.393" stop-color="#938F86"/>
<stop offset="0.613" stop-color="#C4BEB5"/>
<stop offset="0.7" stop-color="#D9D3CA"/>
<stop offset="0.812" stop-color="#E2DED5"/>
<stop offset="1" stop-color="#FAF8F2"/>
</linearGradient>
<linearGradient id="paint3_linear_2230_13903" x1="10.4043" y1="24.4084" x2="19.926" y2="24.4084" gradientUnits="userSpaceOnUse">
<stop stop-color="#6A665E"/>
<stop offset="0.112" stop-color="#89857C"/>
<stop offset="0.271" stop-color="#B0ABA2"/>
<stop offset="0.399" stop-color="#C8C2B9"/>
<stop offset="0.478" stop-color="#D1CBC2"/>
<stop offset="0.571" stop-color="#CCC6BD"/>
<stop offset="0.685" stop-color="#BDB7AE"/>
<stop offset="0.811" stop-color="#A49F96"/>
<stop offset="0.944" stop-color="#817D75"/>
<stop offset="1" stop-color="#706C64"/>
</linearGradient>
<linearGradient id="paint4_linear_2230_13903" x1="15.1651" y1="23.0973" x2="15.1651" y2="25.4935" gradientUnits="userSpaceOnUse">
<stop offset="0.266" stop-color="#6A665E" stop-opacity="0.78"/>
<stop offset="0.437" stop-color="#89857C" stop-opacity="0.598"/>
<stop offset="0.683" stop-color="#B0ABA2" stop-opacity="0.337"/>
<stop offset="0.879" stop-color="#C8C2B9" stop-opacity="0.129"/>
<stop offset="1" stop-color="#D1CBC2" stop-opacity="0"/>
</linearGradient>
<linearGradient id="paint5_linear_2230_13903" x1="10.4043" y1="45.1784" x2="19.926" y2="45.1784" gradientUnits="userSpaceOnUse">
<stop stop-color="#6A665E"/>
<stop offset="0.112" stop-color="#89857C"/>
<stop offset="0.271" stop-color="#B0ABA2"/>
<stop offset="0.399" stop-color="#C8C2B9"/>
<stop offset="0.478" stop-color="#D1CBC2"/>
<stop offset="0.571" stop-color="#CCC6BD"/>
<stop offset="0.685" stop-color="#BDB7AE"/>
<stop offset="0.811" stop-color="#A49F96"/>
<stop offset="0.944" stop-color="#817D75"/>
<stop offset="1" stop-color="#706C64"/>
</linearGradient>
<linearGradient id="paint6_linear_2230_13903" x1="38.2266" y1="45.1893" x2="47.7482" y2="45.1893" gradientUnits="userSpaceOnUse">
<stop stop-color="#6A665E"/>
<stop offset="0.112" stop-color="#89857C"/>
<stop offset="0.271" stop-color="#B0ABA2"/>
<stop offset="0.399" stop-color="#C8C2B9"/>
<stop offset="0.478" stop-color="#D1CBC2"/>
<stop offset="0.571" stop-color="#CCC6BD"/>
<stop offset="0.685" stop-color="#BDB7AE"/>
<stop offset="0.811" stop-color="#A49F96"/>
<stop offset="0.944" stop-color="#817D75"/>
<stop offset="1" stop-color="#706C64"/>
</linearGradient>
<linearGradient id="paint7_linear_2230_13903" x1="12.3418" y1="34.7987" x2="17.9859" y2="34.7987" gradientUnits="userSpaceOnUse">
<stop stop-color="#6A665E"/>
<stop offset="0.112" stop-color="#89857C"/>
<stop offset="0.271" stop-color="#B0ABA2"/>
<stop offset="0.399" stop-color="#C8C2B9"/>
<stop offset="0.478" stop-color="#D1CBC2"/>
<stop offset="0.571" stop-color="#CCC6BD"/>
<stop offset="0.685" stop-color="#BDB7AE"/>
<stop offset="0.811" stop-color="#A49F96"/>
<stop offset="0.944" stop-color="#817D75"/>
<stop offset="1" stop-color="#706C64"/>
</linearGradient>
<linearGradient id="paint8_linear_2230_13903" x1="38.2266" y1="24.4084" x2="47.7482" y2="24.4084" gradientUnits="userSpaceOnUse">
<stop stop-color="#6A665E"/>
<stop offset="0.112" stop-color="#89857C"/>
<stop offset="0.271" stop-color="#B0ABA2"/>
<stop offset="0.399" stop-color="#C8C2B9"/>
<stop offset="0.478" stop-color="#D1CBC2"/>
<stop offset="0.571" stop-color="#CCC6BD"/>
<stop offset="0.685" stop-color="#BDB7AE"/>
<stop offset="0.811" stop-color="#A49F96"/>
<stop offset="0.944" stop-color="#817D75"/>
<stop offset="1" stop-color="#706C64"/>
</linearGradient>
<linearGradient id="paint9_linear_2230_13903" x1="42.9874" y1="23.0983" x2="42.9874" y2="25.4944" gradientUnits="userSpaceOnUse">
<stop offset="0.266" stop-color="#6A665E" stop-opacity="0.78"/>
<stop offset="0.437" stop-color="#89857C" stop-opacity="0.598"/>
<stop offset="0.683" stop-color="#B0ABA2" stop-opacity="0.337"/>
<stop offset="0.879" stop-color="#C8C2B9" stop-opacity="0.129"/>
<stop offset="1" stop-color="#D1CBC2" stop-opacity="0"/>
</linearGradient>
<linearGradient id="paint10_linear_2230_13903" x1="40.1648" y1="34.7987" x2="45.8101" y2="34.7987" gradientUnits="userSpaceOnUse">
<stop stop-color="#6A665E"/>
<stop offset="0.112" stop-color="#89857C"/>
<stop offset="0.271" stop-color="#B0ABA2"/>
<stop offset="0.399" stop-color="#C8C2B9"/>
<stop offset="0.478" stop-color="#D1CBC2"/>
<stop offset="0.571" stop-color="#CCC6BD"/>
<stop offset="0.685" stop-color="#BDB7AE"/>
<stop offset="0.811" stop-color="#A49F96"/>
<stop offset="0.944" stop-color="#817D75"/>
<stop offset="1" stop-color="#706C64"/>
</linearGradient>
<linearGradient id="paint11_linear_2230_13903" x1="29.0692" y1="18.7425" x2="29.0692" y2="23.4344" gradientUnits="userSpaceOnUse">
<stop offset="0.131" stop-color="#6A665E"/>
<stop offset="0.24" stop-color="#757169"/>
<stop offset="0.434" stop-color="#938F86"/>
<stop offset="0.687" stop-color="#C4BEB5"/>
<stop offset="0.788" stop-color="#D9D3CA"/>
<stop offset="0.835" stop-color="#D9D3CA"/>
</linearGradient>
<linearGradient id="paint12_linear_2230_13903" x1="11.7643" y1="20.0825" x2="11.8271" y2="23.2568" gradientUnits="userSpaceOnUse">
<stop offset="0.163" stop-color="#6A665E"/>
<stop offset="0.275" stop-color="#757169"/>
<stop offset="0.474" stop-color="#938F86"/>
<stop offset="0.736" stop-color="#C4BEB5"/>
<stop offset="0.839" stop-color="#D9D3CA"/>
<stop offset="0.899" stop-color="#E2DED5"/>
<stop offset="1" stop-color="#FAF8F2"/>
</linearGradient>
<linearGradient id="paint13_linear_2230_13903" x1="17.5514" y1="20.0825" x2="17.6155" y2="23.2568" gradientUnits="userSpaceOnUse">
<stop offset="0.163" stop-color="#6A665E"/>
<stop offset="0.275" stop-color="#757169"/>
<stop offset="0.474" stop-color="#938F86"/>
<stop offset="0.736" stop-color="#C4BEB5"/>
<stop offset="0.839" stop-color="#D9D3CA"/>
<stop offset="0.899" stop-color="#E2DED5"/>
<stop offset="1" stop-color="#FAF8F2"/>
</linearGradient>
<linearGradient id="paint14_linear_2230_13903" x1="23.3385" y1="20.0825" x2="23.4014" y2="23.2568" gradientUnits="userSpaceOnUse">
<stop offset="0.163" stop-color="#6A665E"/>
<stop offset="0.275" stop-color="#757169"/>
<stop offset="0.474" stop-color="#938F86"/>
<stop offset="0.736" stop-color="#C4BEB5"/>
<stop offset="0.839" stop-color="#D9D3CA"/>
<stop offset="0.899" stop-color="#E2DED5"/>
<stop offset="1" stop-color="#FAF8F2"/>
</linearGradient>
<linearGradient id="paint15_linear_2230_13903" x1="29.1256" y1="20.0825" x2="29.1897" y2="23.2568" gradientUnits="userSpaceOnUse">
<stop offset="0.163" stop-color="#6A665E"/>
<stop offset="0.275" stop-color="#757169"/>
<stop offset="0.474" stop-color="#938F86"/>
<stop offset="0.736" stop-color="#C4BEB5"/>
<stop offset="0.839" stop-color="#D9D3CA"/>
<stop offset="0.899" stop-color="#E2DED5"/>
<stop offset="1" stop-color="#FAF8F2"/>
</linearGradient>
<linearGradient id="paint16_linear_2230_13903" x1="34.9128" y1="20.0825" x2="34.9756" y2="23.2568" gradientUnits="userSpaceOnUse">
<stop offset="0.163" stop-color="#6A665E"/>
<stop offset="0.275" stop-color="#757169"/>
<stop offset="0.474" stop-color="#938F86"/>
<stop offset="0.736" stop-color="#C4BEB5"/>
<stop offset="0.839" stop-color="#D9D3CA"/>
<stop offset="0.899" stop-color="#E2DED5"/>
<stop offset="1" stop-color="#FAF8F2"/>
</linearGradient>
<linearGradient id="paint17_linear_2230_13903" x1="40.6999" y1="20.0825" x2="40.7639" y2="23.2568" gradientUnits="userSpaceOnUse">
<stop offset="0.163" stop-color="#6A665E"/>
<stop offset="0.275" stop-color="#757169"/>
<stop offset="0.474" stop-color="#938F86"/>
<stop offset="0.736" stop-color="#C4BEB5"/>
<stop offset="0.839" stop-color="#D9D3CA"/>
<stop offset="0.899" stop-color="#E2DED5"/>
<stop offset="1" stop-color="#FAF8F2"/>
</linearGradient>
<linearGradient id="paint18_linear_2230_13903" x1="46.4877" y1="20.0825" x2="46.5518" y2="23.2568" gradientUnits="userSpaceOnUse">
<stop offset="0.163" stop-color="#6A665E"/>
<stop offset="0.275" stop-color="#757169"/>
<stop offset="0.474" stop-color="#938F86"/>
<stop offset="0.736" stop-color="#C4BEB5"/>
<stop offset="0.839" stop-color="#D9D3CA"/>
<stop offset="0.899" stop-color="#E2DED5"/>
<stop offset="1" stop-color="#FAF8F2"/>
</linearGradient>
<radialGradient id="paint19_radial_2230_13903" cx="0" cy="0" r="1" gradientUnits="userSpaceOnUse" gradientTransform="translate(29.1649 8.94219) scale(36.6173 21.5566)">
<stop stop-color="#D1CBC2"/>
<stop offset="0.266" stop-color="#CEC8BF"/>
<stop offset="0.453" stop-color="#C5BFB6"/>
<stop offset="0.615" stop-color="#B5B0A7"/>
<stop offset="0.763" stop-color="#A09B92"/>
<stop offset="0.9" stop-color="#847F77"/>
<stop offset="1" stop-color="#6A665E"/>
</radialGradient>
<linearGradient id="paint20_linear_2230_13903" x1="29.0106" y1="46.1173" x2="29.0106" y2="30.293" gradientUnits="userSpaceOnUse">
<stop offset="0.005" stop-color="#2688C7"/>
<stop offset="0.166" stop-color="#1E6A9C"/>
<stop offset="0.353" stop-color="#164D71"/>
<stop offset="0.535" stop-color="#0F3550"/>
<stop offset="0.708" stop-color="#0B2538"/>
<stop offset="0.867" stop-color="#081A29"/>
<stop offset="1" stop-color="#071724"/>
</linearGradient>
<radialGradient id="paint21_radial_2230_13903" cx="0" cy="0" r="1" gradientUnits="userSpaceOnUse" gradientTransform="translate(29.0101 21.4392) scale(7.57625 7.71414)">
<stop offset="0.005" stop-color="#E8E6E1"/>
<stop offset="0.133" stop-color="#E5E2DC"/>
<stop offset="0.664" stop-color="#D9D3CA"/>
<stop offset="0.693" stop-color="#CEC9C0"/>
<stop offset="0.903" stop-color="#86827A"/>
<stop offset="1" stop-color="#6A665E"/>
</radialGradient>
</defs>
</svg>
