<svg width="100" height="100" viewBox="0 0 100 100" fill="none" xmlns="http://www.w3.org/2000/svg">
<g id="quick-approval 1">
<g id="Page-1">
<g id="high_rate">
<g id="approval_rate">
<path id="Shape" d="M87.3992 42.557C87.3992 42.3101 87.3992 41.8162 87.2789 41.1989V40.952C87.2789 40.5816 87.1586 40.2112 87.1586 39.9642C87.1586 38.6061 86.1961 37.495 84.7523 37.1246H84.632C83.6695 36.8776 82.707 36.5072 81.7445 36.2603C81.6242 36.2603 81.5039 36.1369 81.3836 36.1369L80.9023 36.0134C80.4211 35.8899 80.0602 35.7665 79.8195 35.643L78.9773 35.5195L74.6461 40.0877L70.3148 35.5195L69.4727 35.643C69.232 35.643 68.8711 35.7665 68.2695 36.0134L67.9086 36.1369C67.7883 36.1369 67.668 36.2603 67.5477 36.2603C66.5852 36.6307 65.6227 36.8776 64.6602 37.1246H64.5398C63.0961 37.495 62.1336 38.6061 62.1336 39.9642C62.1336 40.0877 62.1336 40.4581 62.0133 40.952V41.1989C61.893 41.8162 61.893 42.3101 61.893 42.557C61.7727 45.7671 61.7727 49.3475 61.893 53.5453C61.893 54.533 62.1336 55.5208 62.4945 56.385C62.8555 57.2493 63.457 58.1135 64.2992 58.9778V59.7185C64.4195 61.5705 64.5398 74.5343 64.5398 75.8924C64.5398 78.3617 65.6227 80.584 67.5477 82.0656C68.9914 83.1768 70.9164 83.6706 72.8414 83.6706H74.5258H76.2102C78.2555 83.6706 80.0602 83.0533 81.6242 81.9421C83.5492 80.4606 84.632 78.2382 84.632 75.7689C84.632 74.4108 84.8727 61.447 84.8727 59.5951V58.8543C85.5945 57.99 86.1961 57.1258 86.557 56.2615C86.918 55.3973 87.1586 54.4096 87.1586 53.4219C87.5195 49.3475 87.5195 45.7671 87.3992 42.557ZM84.3914 53.4219C84.3914 54.0392 84.2711 54.533 84.0305 55.1504C83.7898 55.7677 83.3086 56.385 82.8273 57.0023L82.707 57.1258C82.5867 57.2493 82.4664 57.4962 82.3461 57.6197L82.1055 57.99L81.9852 59.5951C81.8648 61.5705 81.7445 74.5343 81.6242 75.8924C81.6242 77.374 81.0227 78.7321 79.8195 79.5963C78.857 80.3371 77.6539 80.7075 76.2102 80.7075H74.5258H72.8414C71.3977 80.7075 70.1945 80.3371 69.232 79.5963C68.0289 78.7321 67.4273 77.4974 67.4273 75.8924C67.4273 74.5343 67.1867 61.5705 67.0664 59.5951L66.9461 57.99L66.7055 57.6197C66.5852 57.4962 66.4648 57.3727 66.3445 57.1258L66.2242 57.0023C65.6227 56.385 65.2617 55.7677 65.0211 55.1504C64.7805 54.6565 64.6602 54.0392 64.6602 53.4219C64.5398 49.3475 64.5398 45.7671 64.6602 42.557C64.6602 42.3101 64.6602 41.9397 64.7805 41.5693V41.3224C64.9008 40.8285 64.9008 40.3346 64.9008 40.2112C64.9008 40.2112 65.0211 40.0877 65.2617 40.0877H65.382C66.3445 39.8408 67.307 39.4704 68.3898 39.2235C68.3898 39.2235 68.5102 39.2235 68.6305 39.1L69.1117 38.9765C69.1117 38.9765 69.1117 38.9765 69.232 38.9765L73.082 43.0509C73.443 43.4213 73.9242 43.7916 74.4055 43.7916H74.5258H74.6461C75.2477 43.7916 75.7289 43.5447 75.9695 43.0509L79.8195 38.9765L80.4211 39.2235C80.5414 39.2235 80.5414 39.2235 80.6617 39.3469C81.6242 39.7173 82.5867 39.9642 83.5492 40.2112H83.6695C83.7898 40.2112 83.9102 40.3346 83.9102 40.3346C83.9102 40.5816 83.9102 40.952 84.0305 41.4458V41.6928C84.0305 42.0631 84.1508 42.557 84.1508 42.6805C84.5117 45.7671 84.5117 49.3475 84.3914 53.4219Z" fill="#0F63FB"/>
<path id="Shape_2" d="M74.5257 32.433C74.646 32.433 74.646 32.433 74.5257 32.433C76.4507 32.433 78.3757 31.5688 79.8194 30.2107C81.2632 28.7291 82.1054 26.7537 82.2257 24.7783C82.2257 22.8028 81.5038 20.8274 80.0601 19.3458C78.6163 17.7408 76.6913 17 74.7663 17C70.6757 17 67.1866 20.457 67.1866 24.6548C67.0663 28.7291 70.5554 32.433 74.5257 32.433ZM74.646 20.0866C75.8491 20.0866 77.0522 20.5805 77.8944 21.5682C78.7366 22.4324 79.2179 23.6671 79.2179 24.7783C79.2179 26.0129 78.6163 27.1241 77.7741 28.1118C76.9319 28.976 75.7288 29.4699 74.646 29.4699C72.2397 29.4699 70.0741 27.1241 70.0741 24.7783C70.0741 22.1855 72.2397 20.0866 74.646 20.0866Z" fill="#0F63FB"/>
<path id="Shape_3" d="M38.552 58.978H33.0176C30.9723 58.978 29.4082 60.4596 29.4082 62.682C29.4082 69.1021 29.4082 73.5468 29.4082 80.0904C29.4082 82.3128 30.852 83.7944 33.0176 83.7944H38.3113C40.5973 83.7944 42.041 82.3128 42.041 79.967V66.2624C42.041 65.2747 42.041 64.5339 42.041 62.682C42.1613 60.4596 40.7176 58.978 38.552 58.978ZM39.1535 66.3859V79.967C39.1535 80.5843 39.0332 80.7078 38.4316 80.7078H33.1379C32.6566 80.7078 32.5363 80.5843 32.5363 80.0904C32.5363 73.6703 32.5363 69.2256 32.5363 62.682C32.5363 62.1881 32.6566 62.0646 33.1379 62.0646H38.552C38.9129 62.0646 39.1535 62.1881 39.1535 62.682C39.1535 64.5339 39.1535 65.2747 39.1535 66.3859Z" fill="#0F63FB"/>
<path id="Shape_4" d="M53.7111 49.5947H48.1768C46.1314 49.5947 44.6877 51.0763 44.5674 53.2987C44.5674 55.1506 44.5674 57.373 44.5674 60.7065L44.6877 79.967C44.6877 82.3128 46.1314 83.7944 48.4174 83.7944H53.7111C55.8768 83.7944 57.3205 82.3128 57.3205 80.0904C57.3205 73.6703 57.3205 59.8423 57.3205 53.2987C57.2002 51.0763 55.7564 49.5947 53.7111 49.5947ZM54.1924 80.0904C54.1924 80.5843 54.0721 80.7077 53.5908 80.7077H48.2971C47.6955 80.7077 47.5752 80.5843 47.5752 79.967V60.7065C47.5752 57.373 47.5752 55.1506 47.5752 53.2987C47.5752 52.8048 47.6955 52.6813 48.1768 52.6813H53.7111C54.1924 52.6813 54.3127 52.8048 54.3127 53.2987C54.1924 59.7188 54.1924 73.5468 54.1924 80.0904Z" fill="#0F63FB"/>
<path id="Shape_5" d="M23.6328 67.8672H18.2188C16.0531 67.8672 14.6094 69.3488 14.6094 71.5711V75.7689V79.9667C14.6094 82.1891 16.0531 83.6706 18.2188 83.6706H23.5125C25.6781 83.6706 27.1219 82.1891 27.1219 79.8432V71.5711C27.2422 69.3488 25.7984 67.8672 23.6328 67.8672ZM24.2344 79.9667C24.2344 80.584 24.1141 80.7075 23.6328 80.7075H18.2188C17.6172 80.7075 17.6172 80.584 17.6172 80.0902V75.8924V71.818C17.6172 71.3242 17.7375 71.2007 18.2188 71.2007H23.6328C24.1141 71.2007 24.2344 71.3242 24.2344 71.818V79.9667Z" fill="#0F63FB"/>
<path id="Shape_6" d="M48.0567 33.421L50.3426 34.4087C50.5832 34.5321 50.9442 34.5321 51.1848 34.5321C51.666 34.5321 52.027 34.4087 52.3879 34.1617C52.9895 33.6679 53.3504 32.9271 53.2301 32.1863L52.2676 24.0377C52.1473 23.2969 51.666 22.6796 51.0645 22.3092C50.3426 22.0622 49.6207 22.0622 49.0192 22.5561L42.6426 27.3712C42.041 27.8651 41.6801 28.6059 41.8004 29.3466C41.9207 30.0874 42.402 30.7047 43.0035 31.0751L45.2895 32.0629C39.2739 46.3847 28.3254 55.6446 12.6848 59.4719C11.8426 59.7189 11.3614 60.4597 11.602 61.3239C11.7223 62.0647 12.3239 62.5586 13.0457 62.5586C13.166 62.5586 13.2864 62.5586 13.4067 62.5586C30.0098 58.4842 41.6801 48.7305 48.0567 33.421ZM49.3801 26.1366L49.8614 30.9517L45.5301 28.9762L49.3801 26.1366Z" fill="#24BE00"/>
</g>
</g>
</g>
</g>
</svg>
