<svg width="34" height="34" viewBox="0 0 34 34" fill="none" xmlns="http://www.w3.org/2000/svg">
<g id="App-Store/Default">
<path id="Vector" d="M8.53973 28.0989L8.54423 28.1004L6.90213 30.9445C6.30274 31.9827 4.97525 32.3384 3.93705 31.739C2.89904 31.1396 2.54316 29.8121 3.14255 28.7739L4.35222 26.6788L4.46835 26.4777C4.67565 26.1797 5.18724 25.6653 6.21062 25.7621C6.21062 25.7621 8.61889 26.0235 8.79318 27.2752C8.79318 27.2752 8.81682 27.687 8.53973 28.0989ZM31.8294 20.8349H26.709C26.3602 20.8115 26.2081 20.6869 26.148 20.6145L26.1443 20.6079L20.6631 11.114L20.6559 11.1187L20.3272 10.6475C19.7884 9.82351 18.933 11.9307 18.933 11.9307C17.9115 14.2787 19.078 16.9481 19.4845 17.755L27.0979 30.9417C27.6971 31.9797 29.0246 32.3356 30.0629 31.736C31.101 31.1366 31.4568 29.8091 30.8573 28.7709L28.9536 25.4736C28.9167 25.3937 28.8525 25.1768 29.2429 25.1759H31.8294C33.0282 25.1759 34 24.2041 34 23.0053C34 21.8065 33.0282 20.8349 31.8294 20.8349ZM21.8838 23.7855C21.8838 23.7855 22.1571 25.1759 21.0996 25.1759H2.17058C0.971788 25.1759 0 24.2041 0 23.0053C0 21.8065 0.971788 20.8347 2.17058 20.8347H7.03702C7.8227 20.7893 8.00881 20.3357 8.00881 20.3357L8.01331 20.338L14.3656 9.33536L14.3637 9.33499C14.4794 9.12243 14.383 8.92151 14.3663 8.88981L12.2684 5.25611C11.669 4.2181 12.0247 2.89042 13.0629 2.29122C14.1011 1.69182 15.4285 2.04733 16.0279 3.08553L17.0008 4.77078L17.9721 3.08853C18.5715 2.05052 19.8989 1.69464 20.9371 2.29422C21.9753 2.89361 22.331 4.22091 21.7316 5.25911L12.8921 20.5695C12.8535 20.6627 12.8417 20.809 13.1293 20.8347H18.4129L18.4141 20.8863C18.4141 20.8863 21.4679 20.9338 21.8838 23.7855Z" fill="#18C9FC"/>
</g>
</svg>
