<svg width="58" height="58" viewBox="0 0 58 58" fill="none" xmlns="http://www.w3.org/2000/svg">
<g id="icons8-money-with-wings 1">
<g id="money with wings">
<path id="Vector" d="M8.93453 11.8084C8.93453 11.8084 4.60953 10.9626 5.85377 9.38569C7.098 7.80882 22.2419 8.85524 25.9902 11.0484C26.9844 11.6308 26.2743 22.3257 24.6039 23.058C23.3341 23.615 20.715 29.1794 19.0347 26.4111C16.5775 22.3608 15.2651 22.3414 14.1827 22.3874C8.77971 22.6169 8.93453 11.8084 8.93453 11.8084Z" fill="url(#paint0_linear_2230_13686)"/>
<path id="Vector_2" d="M8.28836 12.3739C7.35944 12.1685 3.17507 10.6895 4.20483 9.00629C5.23459 7.32308 12.9954 8.66674 17.0037 10.4986C21.0119 12.3304 10.9913 12.9732 8.28836 12.3739Z" fill="url(#paint1_radial_2230_13686)"/>
<path id="Vector_3" d="M8.83969 15.6123C7.88095 15.5652 3.43381 14.8136 4.06019 12.9914C4.68657 11.1693 12.6022 11.1922 16.9542 12.3208C21.3062 13.4494 11.6293 15.7501 8.83969 15.6123Z" fill="url(#paint2_radial_2230_13686)"/>
<path id="Vector_4" d="M9.56629 18.5171C8.60897 18.5775 4.08229 18.3346 4.42033 16.4629C4.75838 14.5912 12.6073 13.7176 17.097 14.3447C21.5868 14.9718 12.353 18.3382 9.56629 18.5171Z" fill="url(#paint3_radial_2230_13686)"/>
<path id="Vector_5" d="M11.3863 20.8142C10.463 21.0389 5.97328 21.5778 5.85681 19.6819C5.74034 17.7861 13.2228 15.5845 17.7679 15.4274C22.3131 15.2703 14.0722 20.1604 11.3863 20.8142Z" fill="url(#paint4_radial_2230_13686)"/>
<path id="Vector_6" d="M13.0213 22.9578C12.1407 23.284 7.76602 24.3208 7.36406 22.4527C6.9621 20.5846 14.0397 17.5686 18.5167 16.9064C22.9937 16.2443 15.5822 22.0104 13.0213 22.9578Z" fill="url(#paint5_radial_2230_13686)"/>
<path id="Vector_7" d="M15.6961 25.0542C14.9334 25.5496 10.9834 27.4467 10.063 25.7163C9.14261 23.986 15.1649 19.6155 19.3294 18.0591C23.4939 16.5028 17.9105 23.6126 15.6961 25.0542Z" fill="url(#paint6_radial_2230_13686)"/>
<path id="Vector_8" d="M19.1312 25.5133C18.367 26.0087 14.417 27.9046 13.4966 26.1743C12.5762 24.4439 18.5985 20.0746 22.763 18.5171C26.9275 16.9595 21.3512 24.0706 19.1312 25.5133Z" fill="url(#paint7_radial_2230_13686)"/>
<path id="Vector_9" d="M12.9212 11.591C11.9923 11.3844 7.80788 9.90658 8.83764 8.22338C9.8674 6.54017 17.6297 7.88263 21.6365 9.71446C25.6433 11.5463 15.6255 12.1903 12.9212 11.591Z" fill="url(#paint8_radial_2230_13686)"/>
<path id="Vector_10" d="M14.2584 14.4365C13.3011 14.3725 8.871 13.5448 9.54141 11.7323C10.2118 9.91979 18.126 10.0829 22.4496 11.2864C26.7732 12.4899 17.0437 14.6287 14.2584 14.4365Z" fill="url(#paint9_radial_2230_13686)"/>
<path id="Vector_11" d="M16.2466 18.1329C15.3035 18.2852 10.774 18.4773 10.8606 16.579C10.9472 14.6807 18.6314 13.0652 23.1751 13.2597C27.7188 13.4542 18.9907 17.6919 16.2466 18.1329Z" fill="url(#paint10_radial_2230_13686)"/>
<path id="Vector_12" d="M18.198 21.2553C17.3188 21.5827 12.9526 22.6291 12.5407 20.7635C12.1288 18.8978 19.195 15.8637 23.6749 15.1906C28.1547 14.5176 20.7574 20.3079 18.198 21.2553Z" fill="url(#paint11_radial_2230_13686)"/>
<path id="Vector_13" d="M21.0004 23.4387C20.3953 23.9413 17.2094 25.9689 16.2635 24.589C15.3175 23.2091 20.0388 18.8542 23.4419 17.0973C26.8451 15.3404 22.7573 21.9778 21.0004 23.4387Z" fill="url(#paint12_radial_2230_13686)"/>
<path id="Vector_14" d="M18.8998 11.4593C18.2848 11.295 15.5123 10.1168 16.1926 8.78285C16.873 7.44885 22.0047 8.52547 24.6579 9.98393C27.3112 11.4424 20.688 11.939 18.8998 11.4593Z" fill="url(#paint13_radial_2230_13686)"/>
<path id="Vector_15" d="M19.7866 13.7188C19.1531 13.6668 16.2229 13.0023 16.6618 11.5668C17.1007 10.1313 22.3333 10.2702 25.1939 11.2321C28.0545 12.1939 21.6273 13.8698 19.7866 13.7188Z" fill="url(#paint14_radial_2230_13686)"/>
<path id="Vector_16" d="M21.1127 16.655C20.4892 16.7759 17.4936 16.9196 17.5476 15.4153C17.6016 13.9109 22.6793 12.6361 25.6834 12.8004C28.6875 12.9648 22.9251 16.307 21.1127 16.655Z" fill="url(#paint15_radial_2230_13686)"/>
<path id="Vector_17" d="M22.4054 19.1321C21.8244 19.3907 18.9411 20.2136 18.6641 18.7334C18.3872 17.2532 23.0545 14.857 26.0145 14.3302C25.7546 14.973 24.0956 18.3745 22.4054 19.1321Z" fill="url(#paint16_radial_2230_13686)"/>
<path id="Vector_18" d="M24.2645 20.8673C23.8668 21.2649 21.7633 22.8683 21.1397 21.7724C20.5162 20.6764 23.6197 17.2302 25.8667 15.837C26.9717 15.9784 25.4235 19.711 24.2645 20.8673Z" fill="url(#paint17_radial_2230_13686)"/>
<path id="Vector_19" d="M23.8764 11.7734C23.608 11.6526 22.4362 10.9372 22.868 10.3669C23.2998 9.79656 26.5098 10.1808 26.5382 11.5752C26.5595 12.5649 24.6576 12.1093 23.8764 11.7734Z" fill="url(#paint18_radial_2230_13686)"/>
<path id="Vector_20" d="M24.1886 13.215C23.9046 13.1545 22.5637 12.6785 22.8322 12.0405C23.1006 11.4025 26.3305 11.156 26.7282 12.5045C27.0137 13.4699 25.0394 13.3914 24.1886 13.215Z" fill="url(#paint19_radial_2230_13686)"/>
<path id="Vector_21" d="M24.5271 14.5804C24.226 14.5804 22.8 14.3798 22.8866 13.7055C22.9732 13.0313 26.0469 12.1553 26.8025 13.3878C27.3451 14.2662 25.4006 14.5852 24.5271 14.5804Z" fill="url(#paint20_radial_2230_13686)"/>
<path id="Vector_22" d="M24.6365 15.8141C24.3354 15.8141 22.9093 15.6135 22.996 14.9393C23.0826 14.265 26.8196 13.2343 26.9119 14.6215C26.9758 15.5869 25.51 15.8189 24.6365 15.8141Z" fill="url(#paint21_radial_2230_13686)"/>
<path id="Vector_23" d="M24.8487 17.3196C24.5519 17.3607 23.1059 17.368 23.0591 16.6913C23.0122 16.0146 26.4906 14.4631 26.8557 15.8177C27.1099 16.7602 25.7109 17.1976 24.8487 17.3196Z" fill="url(#paint22_radial_2230_13686)"/>
<path id="Vector_24" d="M25.4042 19.0029C25.1442 19.131 23.7963 19.5756 23.4696 18.9582C23.1429 18.3407 25.7422 15.8371 26.6512 16.9922C27.2833 17.7958 26.1598 18.6283 25.4042 19.0029Z" fill="url(#paint23_radial_2230_13686)"/>
<path id="Vector_25" d="M25.838 19.5756C25.6121 19.8172 24.3324 20.7839 23.6662 20.21C23.0001 19.636 24.6676 15.9397 26.2413 16.9015C27.335 17.571 26.4927 18.8929 25.838 19.5756Z" fill="url(#paint24_radial_2230_13686)"/>
<path id="Vector_26" d="M15.8014 52.2575L4.36328 38.4196V33.5863C8.58459 29.5468 41.2159 26.3097 52.0362 19.8379V24.6712C45.9206 28.1776 40.3997 32.3815 35.6282 37.1654C29.834 42.9208 23.1668 47.9959 15.8014 52.2575Z" fill="url(#paint25_linear_2230_13686)"/>
<path id="Vector_27" d="M15.8014 47.4241L4.36328 33.5862C10.4789 30.0799 15.9998 25.8759 20.7713 21.0921C26.5654 15.3367 33.2327 10.2616 40.598 6L52.0362 19.8378C45.9206 23.3442 40.3997 27.5481 35.6282 32.332C29.834 38.0874 23.1668 43.1625 15.8014 47.4241Z" fill="url(#paint26_linear_2230_13686)"/>
<path id="Vector_28" d="M16.3094 44.8902L7.32422 34.0152L7.88384 33.6648C13.2415 30.396 18.1042 26.577 22.3615 22.2943C27.4227 17.2598 33.1782 12.7622 39.5038 8.89875L40.089 8.53625L49.0742 19.4113L48.5146 19.7617C43.157 23.0304 38.2943 26.8495 34.0369 31.1321C28.9756 36.1658 23.2201 40.6626 16.8946 44.5253L16.3094 44.8902ZM9.28573 34.2895L16.6375 43.1852C22.6533 39.4566 28.1354 35.1417 32.9716 30.3285C37.1438 26.1304 41.8917 22.3723 47.1141 19.1345L39.7609 10.2388C33.7451 13.9674 28.2631 18.2823 23.4268 23.0955C19.2551 27.2935 14.5076 31.0516 9.28573 34.2895Z" fill="#67706A"/>
<path id="Vector_29" d="M16.1406 32.8612L15.2188 31.9405C18.4247 29.5815 21.416 27.0193 24.167 24.276C27.3385 21.1378 30.7755 18.2009 34.4504 15.489L35.3779 16.4049C31.7516 19.0764 28.3628 21.9726 25.2394 25.0699C22.4418 27.8585 19.4002 30.4631 16.1406 32.8612Z" fill="#858585"/>
<path id="Vector_30" d="M29.1346 33.8871C32.3241 33.8871 34.9097 31.4018 34.9097 28.336C34.9097 25.2702 32.3241 22.7849 29.1346 22.7849C25.945 22.7849 23.3594 25.2702 23.3594 28.336C23.3594 31.4018 25.945 33.8871 29.1346 33.8871Z" fill="#67706A"/>
<path id="Vector_31" d="M26.534 36.6832C26.2434 36.6833 25.9598 36.6075 25.7214 36.4662C25.4831 36.3248 25.3014 36.1247 25.2009 35.8927C25.1004 35.6608 25.086 35.4082 25.1595 35.1691C25.2331 34.9299 25.3911 34.7157 25.6122 34.5554C27.2704 33.3341 28.8174 32.0075 30.2397 30.5872L30.815 30.0338C32.1883 28.6592 33.6887 27.3803 35.3019 26.2094C35.5901 26.0212 35.9522 25.9341 36.3136 25.9661C36.6751 25.9981 37.0083 26.1467 37.2449 26.3814C37.4814 26.616 37.6033 26.9189 37.5853 27.2277C37.5673 27.5364 37.411 27.8276 37.1483 28.0412C35.1243 29.5239 26.8621 36.6832 26.534 36.6832Z" fill="#67706A"/>
<path id="Vector_32" d="M18.6992 23.0568L30.3604 37.1629L30.3845 37.1496V42.0228C32.7691 40.0561 35.0225 37.9773 37.134 35.7963V30.9001L25.5567 16.6708C23.1169 18.676 20.8266 20.8088 18.6992 23.0568Z" fill="url(#paint27_linear_2230_13686)"/>
<path id="Vector_33" d="M16.7889 43.6033C18.1695 43.6033 19.2887 42.6512 19.2887 41.4766C19.2887 40.3021 18.1695 39.35 16.7889 39.35C15.4083 39.35 14.2891 40.3021 14.2891 41.4766C14.2891 42.6512 15.4083 43.6033 16.7889 43.6033Z" fill="#67706A"/>
<path id="Vector_34" d="M11.0623 36.6554C12.4429 36.6554 13.5622 35.7033 13.5622 34.5288C13.5622 33.3542 12.4429 32.4021 11.0623 32.4021C9.68171 32.4021 8.5625 33.3542 8.5625 34.5288C8.5625 35.7033 9.68171 36.6554 11.0623 36.6554Z" fill="#67706A"/>
<path id="Vector_35" d="M44.9334 21.0982C46.314 21.0982 47.4333 20.146 47.4333 18.9715C47.4333 17.797 46.314 16.8448 44.9334 16.8448C43.5528 16.8448 42.4336 17.797 42.4336 18.9715C42.4336 20.146 43.5528 21.0982 44.9334 21.0982Z" fill="#67706A"/>
<path id="Vector_36" d="M39.2069 14.1502C40.5875 14.1502 41.7067 13.198 41.7067 12.0235C41.7067 10.849 40.5875 9.89685 39.2069 9.89685C37.8262 9.89685 36.707 10.849 36.707 12.0235C36.707 13.198 37.8262 14.1502 39.2069 14.1502Z" fill="#67706A"/>
<path id="Vector_37" opacity="0.3" d="M35.7101 22.1917C37.0169 22.1917 38.0764 21.2904 38.0764 20.1786C38.0764 19.0668 37.0169 18.1655 35.7101 18.1655C34.4032 18.1655 33.3438 19.0668 33.3438 20.1786C33.3438 21.2904 34.4032 22.1917 35.7101 22.1917Z" fill="#0D954B"/>
<path id="Vector_38" d="M19.677 33.7555C19.8568 33.7555 20.0326 33.8008 20.1821 33.8858C20.3316 33.9708 20.4481 34.0915 20.5169 34.2328C20.5857 34.3742 20.6037 34.5296 20.5686 34.6797C20.5335 34.8297 20.447 34.9675 20.3198 35.0756C20.1927 35.1838 20.0307 35.2574 19.8544 35.2873C19.6781 35.3171 19.4953 35.3018 19.3292 35.2433C19.1631 35.1847 19.0211 35.0856 18.9212 34.9584C18.8213 34.8313 18.768 34.6817 18.768 34.5288C18.7684 34.3238 18.8643 34.1273 19.0347 33.9823C19.2051 33.8374 19.4361 33.7558 19.677 33.7555ZM19.677 32.5471C19.2163 32.5471 18.766 32.6633 18.3829 32.8811C17.9998 33.0988 17.7013 33.4083 17.525 33.7704C17.3487 34.1325 17.3025 34.531 17.3924 34.9154C17.4823 35.2998 17.7041 35.6529 18.0299 35.93C18.3557 36.2072 18.7707 36.3959 19.2226 36.4724C19.6745 36.5488 20.1428 36.5096 20.5685 36.3596C20.9941 36.2096 21.3579 35.9556 21.6139 35.6297C21.8698 35.3039 22.0064 34.9207 22.0064 34.5288C22.0064 34.2685 21.9462 34.0109 21.8291 33.7704C21.7121 33.53 21.5405 33.3116 21.3242 33.1275C21.1079 32.9435 20.8511 32.7976 20.5685 32.698C20.2858 32.5984 19.9829 32.5471 19.677 32.5471Z" fill="#67706A"/>
<path id="Vector_39" d="M29.7289 27.3633C29.5647 27.1629 29.315 27.025 29.0329 26.9791C28.6727 26.9526 28.31 26.9939 27.9705 27.0999C27.5796 27.205 27.1823 27.2917 26.7802 27.3597C26.4564 27.4148 26.1252 27.4315 25.7959 27.4092C25.4925 27.3892 25.1972 27.3164 24.9281 27.1953C24.626 27.0497 24.3632 26.8517 24.1568 26.6141C23.9603 26.4147 23.8139 26.1832 23.7264 25.9339C23.639 25.6845 23.6124 25.4226 23.6484 25.1641C23.7414 24.6196 24.0585 24.1208 24.5432 23.7564L23.7549 22.8949L24.5134 22.3934L25.3116 23.2683C25.865 22.9751 26.5308 22.8767 27.168 22.994C27.8316 23.1424 28.4128 23.4846 28.8099 23.9606L27.4407 24.8669C27.2294 24.5946 26.9129 24.3937 26.5459 24.299C26.3976 24.2697 26.2433 24.2703 26.0954 24.3007C25.9474 24.3311 25.8099 24.3905 25.6937 24.4742C25.5791 24.5417 25.4822 24.6286 25.4089 24.7294C25.3355 24.8303 25.2874 24.9429 25.2676 25.0602C25.2576 25.179 25.2754 25.2982 25.32 25.4111C25.3646 25.5239 25.4352 25.6281 25.5275 25.7176C25.6829 25.9052 25.9193 26.033 26.1851 26.0728C26.5653 26.0896 26.9458 26.0441 27.3058 25.9387C27.721 25.8338 28.1431 25.7498 28.5699 25.6873C28.8905 25.6412 29.2171 25.6343 29.54 25.6668C29.8337 25.6992 30.1167 25.7814 30.3723 25.9085C30.6525 26.0517 30.8971 26.2401 31.0925 26.4631C31.2903 26.662 31.438 26.8933 31.5264 27.1427C31.6148 27.3921 31.6421 27.6543 31.6066 27.9131C31.5046 28.4637 31.1783 28.9662 30.6848 29.3329L31.4163 30.134L30.6635 30.6318L29.9349 29.8356C29.3391 30.1842 28.6111 30.3295 27.8952 30.2428C27.1903 30.1221 26.5666 29.7762 26.1525 29.2761L27.5203 28.3711C27.7413 28.65 28.0765 28.849 28.4605 28.9293C28.6394 28.9524 28.8221 28.9418 28.9957 28.8981C29.1692 28.8545 29.3293 28.7789 29.4647 28.6768C29.7149 28.5296 29.8892 28.3065 29.9519 28.0533C29.9781 27.9314 29.9716 27.8061 29.933 27.6866C29.8944 27.5672 29.8247 27.4567 29.7289 27.3633Z" fill="#4C663A"/>
<path id="Vector_40" d="M48.7726 47.7829C48.7726 47.7829 50.1603 50.3748 52.011 49.3115C53.8617 48.2481 51.7866 35.4918 49.1405 32.3767C48.4388 31.5502 35.782 32.2849 34.9369 33.6901C34.2935 34.7631 28.5453 37.4275 31.8405 38.8014C36.6697 40.8096 35.907 41.5129 35.8658 42.4204C35.6641 46.954 48.7726 47.7829 48.7726 47.7829Z" fill="url(#paint28_linear_2230_13686)"/>
<path id="Vector_41" d="M47.7959 47.2344C48.0516 48.0114 49.8569 51.5047 51.8354 50.6178C53.814 49.7308 52.1195 43.2469 49.9037 39.9047C47.688 36.5624 47.0545 44.9761 47.7959 47.2344Z" fill="url(#paint29_radial_2230_13686)"/>
<path id="Vector_42" d="M43.9643 46.8126C44.0325 47.6162 44.9813 51.3366 47.1317 50.7881C49.2822 50.2395 49.1501 43.6021 47.7581 39.9674C46.3662 36.3328 43.7612 44.4745 43.9643 46.8126Z" fill="url(#paint30_radial_2230_13686)"/>
<path id="Vector_43" d="M40.51 46.2399C40.4504 47.0435 40.7941 50.8316 43.017 50.5295C45.2398 50.2274 46.1616 43.6299 45.3605 39.8732C44.5595 36.1165 40.6861 43.9018 40.51 46.2399Z" fill="url(#paint31_radial_2230_13686)"/>
<path id="Vector_44" d="M37.7718 44.7465C37.5176 45.5234 36.9366 49.2958 39.1837 49.3683C41.4307 49.4408 43.9404 43.1406 44.0683 39.3271C44.1961 35.5136 38.5104 42.4857 37.7718 44.7465Z" fill="url(#paint32_radial_2230_13686)"/>
<path id="Vector_45" d="M35.2067 43.3991C34.8332 44.1422 33.6614 47.818 35.8786 48.1358C38.0957 48.4535 41.5756 42.4808 42.3028 38.7108C43.0301 34.9408 36.2933 41.2398 35.2067 43.3991Z" fill="url(#paint33_radial_2230_13686)"/>
<path id="Vector_46" d="M32.6883 41.1879C32.1117 41.8343 29.9172 45.1754 31.9781 45.9197C34.0391 46.664 39.1353 41.5697 40.9264 38.0534C42.7175 34.5372 34.3672 39.3077 32.6883 41.1879Z" fill="url(#paint34_radial_2230_13686)"/>
<path id="Vector_47" d="M31.4813 38.1743C30.9046 38.8208 28.7102 42.1618 30.7711 42.9074C32.8321 43.6529 37.9297 38.5513 39.7194 35.0399C41.509 31.5285 33.1673 36.2942 31.4813 38.1743Z" fill="url(#paint35_radial_2230_13686)"/>
<path id="Vector_48" d="M48.6719 43.3399C48.929 44.1156 50.7328 47.6101 52.7128 46.7232C54.6928 45.8363 52.9969 39.3524 50.7811 36.0101C48.5654 32.6679 47.9276 41.0803 48.6719 43.3399Z" fill="url(#paint36_radial_2230_13686)"/>
<path id="Vector_49" d="M45.2806 42.2548C45.3687 43.0571 46.4084 46.7607 48.5474 46.1758C50.6865 45.591 50.3939 38.9572 48.9082 35.3467C47.4225 31.7362 45.025 39.9227 45.2806 42.2548Z" fill="url(#paint37_radial_2230_13686)"/>
<path id="Vector_50" d="M40.8783 40.6345C40.7092 41.4284 40.5416 45.2262 42.7872 45.1319C45.0328 45.0377 46.848 38.5707 46.5597 34.7632C46.2714 30.9558 41.3683 38.3278 40.8783 40.6345Z" fill="url(#paint38_radial_2230_13686)"/>
<path id="Vector_51" d="M37.159 39.0371C36.7812 39.779 35.5967 43.4523 37.8152 43.7749C40.0338 44.0976 43.5293 38.132 44.2694 34.3681C45.0094 30.6041 38.2541 36.8802 37.159 39.0371Z" fill="url(#paint39_radial_2230_13686)"/>
<path id="Vector_52" d="M34.5357 36.717C33.9477 37.2306 31.587 39.9288 33.2347 40.7045C34.8823 41.4803 39.9771 37.4662 42.0181 34.5904C44.0592 31.7145 36.243 35.226 34.5357 36.717Z" fill="url(#paint40_radial_2230_13686)"/>
<path id="Vector_53" d="M34.5734 33.9041C34.1005 34.2944 31.1319 35.8736 32.3563 37.0288C33.5806 38.184 38.3715 35.9836 40.4864 33.9596C42.6013 31.9357 36.694 32.1568 34.5734 33.9041Z" fill="url(#paint41_radial_2230_13686)"/>
<path id="Vector_54" d="M48.748 38.3253C48.9511 38.8389 50.3828 41.1492 51.9523 40.5608C53.5218 39.9723 52.1824 35.6851 50.4212 33.4787C48.6599 31.2723 48.1571 36.8318 48.748 38.3253Z" fill="url(#paint42_radial_2230_13686)"/>
<path id="Vector_55" d="M46.0619 37.6088C46.1315 38.1392 46.9553 40.5873 48.6498 40.2007C50.3443 39.814 50.1114 35.429 48.9339 33.0413C47.7564 30.6536 45.8588 36.067 46.0619 37.6088Z" fill="url(#paint43_radial_2230_13686)"/>
<path id="Vector_56" d="M42.5666 36.537C42.4331 37.0614 42.2996 39.5747 44.0807 39.5107C45.8618 39.4466 47.3007 35.1728 47.072 32.6558C46.8433 30.1389 42.9558 35.0121 42.5666 36.537Z" fill="url(#paint44_radial_2230_13686)"/>
<path id="Vector_57" d="M39.6165 35.4821C39.3169 35.9727 38.3794 38.4002 40.1364 38.6141C41.8934 38.8279 44.6688 34.8839 45.2497 32.3948C44.4969 32.6207 40.4858 34.055 39.6165 35.4821Z" fill="url(#paint45_radial_2230_13686)"/>
<path id="Vector_58" d="M37.5376 33.9475C37.0718 34.2871 35.1997 36.0706 36.5065 36.5829C37.8132 37.0952 41.8527 34.4417 43.4662 32.541C43.2915 31.6167 38.8912 32.9615 37.5376 33.9475Z" fill="url(#paint46_radial_2230_13686)"/>
<path id="Vector_59" d="M48.3118 34.1541C48.4538 34.3777 49.3202 35.3504 49.9892 34.9818C50.6582 34.6133 50.1639 31.926 48.5177 31.9187C47.3388 31.9151 47.9041 33.504 48.3118 34.1541Z" fill="url(#paint47_radial_2230_13686)"/>
<path id="Vector_60" d="M46.5975 33.91C46.6728 34.1517 47.2537 35.2658 48.0065 35.0326C48.7593 34.7994 49.0008 32.0891 47.4071 31.7701C46.2595 31.5453 46.3759 33.1995 46.5975 33.91Z" fill="url(#paint48_radial_2230_13686)"/>
<path id="Vector_61" d="M44.9775 33.6467C44.9775 33.8993 45.2374 35.0967 46.0342 35.0109C46.831 34.9251 47.8295 32.3405 46.3595 31.7243C45.307 31.282 44.9562 32.9133 44.9775 33.6467Z" fill="url(#paint49_radial_2230_13686)"/>
<path id="Vector_62" d="M43.5163 33.5729C43.5163 33.8255 43.7776 35.0229 44.5745 34.9371C45.3713 34.8513 46.5431 31.7097 44.8997 31.6505C43.7549 31.6082 43.5007 32.8395 43.5163 33.5729Z" fill="url(#paint50_radial_2230_13686)"/>
<path id="Vector_63" d="M41.7297 33.411C41.6843 33.6611 41.6942 34.8731 42.4967 34.9033C43.2992 34.9335 45.0889 31.9972 43.481 31.7084C42.3618 31.5079 41.8618 32.686 41.7297 33.411Z" fill="url(#paint51_radial_2230_13686)"/>
<path id="Vector_64" d="M39.7339 32.9676C39.5919 33.1875 39.0763 34.3233 39.8121 34.5892C40.5478 34.855 43.4794 32.6437 42.0988 31.897C41.1387 31.3774 40.1686 32.3296 39.7339 32.9676Z" fill="url(#paint52_radial_2230_13686)"/>
<path id="Vector_65" d="M37.6316 32.4854C37.4 32.6474 36.4456 33.5621 37.0222 34.0273C37.5989 34.4925 41.2833 33.2733 40.2976 32.1713C39.6186 31.4052 38.3077 32.0142 37.6316 32.4854Z" fill="url(#paint53_radial_2230_13686)"/>
</g>
</g>
<defs>
<linearGradient id="paint0_linear_2230_13686" x1="4.40069" y1="16.6777" x2="25.7882" y2="20.5894" gradientUnits="userSpaceOnUse">
<stop offset="0.25" stop-color="#DCE3BE"/>
<stop offset="0.565" stop-color="#DAE1BC"/>
<stop offset="0.683" stop-color="#D4DAB6"/>
<stop offset="0.768" stop-color="#C9CEAB"/>
<stop offset="0.837" stop-color="#BABD9C"/>
<stop offset="0.896" stop-color="#A6A787"/>
<stop offset="0.948" stop-color="#8D8C6F"/>
<stop offset="0.995" stop-color="#716C52"/>
<stop offset="1" stop-color="#6D684E"/>
</linearGradient>
<radialGradient id="paint1_radial_2230_13686" cx="0" cy="0" r="1" gradientUnits="userSpaceOnUse" gradientTransform="translate(10.6074 10.5249) rotate(7.80359) scale(5.75338 3.11657)">
<stop offset="0.179" stop-color="#DCE3BE"/>
<stop offset="0.25" stop-color="#DCE3BE"/>
<stop offset="0.535" stop-color="#DAE1BC"/>
<stop offset="0.693" stop-color="#D5D9B4"/>
<stop offset="0.821" stop-color="#CCCDA6"/>
<stop offset="0.932" stop-color="#C0BB92"/>
<stop offset="1" stop-color="#B5AC82"/>
</radialGradient>
<radialGradient id="paint2_radial_2230_13686" cx="0" cy="0" r="1" gradientUnits="userSpaceOnUse" gradientTransform="translate(10.6677 13.5028) rotate(-1.8047) scale(5.77226 3.10771)">
<stop offset="0.179" stop-color="#DCE3BE"/>
<stop offset="0.25" stop-color="#DCE3BE"/>
<stop offset="0.535" stop-color="#DAE1BC"/>
<stop offset="0.693" stop-color="#D5D9B4"/>
<stop offset="0.821" stop-color="#CCCDA6"/>
<stop offset="0.932" stop-color="#C0BB92"/>
<stop offset="1" stop-color="#B5AC82"/>
</radialGradient>
<radialGradient id="paint3_radial_2230_13686" cx="0" cy="0" r="1" gradientUnits="userSpaceOnUse" gradientTransform="translate(11.1176 16.1973) rotate(-8.29605) scale(5.75454 3.11715)">
<stop offset="0.179" stop-color="#DCE3BE"/>
<stop offset="0.25" stop-color="#DCE3BE"/>
<stop offset="0.535" stop-color="#DAE1BC"/>
<stop offset="0.693" stop-color="#D5D9B4"/>
<stop offset="0.821" stop-color="#CCCDA6"/>
<stop offset="0.932" stop-color="#C0BB92"/>
<stop offset="1" stop-color="#B5AC82"/>
</radialGradient>
<radialGradient id="paint4_radial_2230_13686" cx="0" cy="0" r="1" gradientUnits="userSpaceOnUse" gradientTransform="translate(12.2944 18.276) rotate(-18.445) scale(5.66786 3.16541)">
<stop offset="0.179" stop-color="#DCE3BE"/>
<stop offset="0.25" stop-color="#DCE3BE"/>
<stop offset="0.535" stop-color="#DAE1BC"/>
<stop offset="0.693" stop-color="#D5D9B4"/>
<stop offset="0.821" stop-color="#CCCDA6"/>
<stop offset="0.932" stop-color="#C0BB92"/>
<stop offset="1" stop-color="#B5AC82"/>
</radialGradient>
<radialGradient id="paint5_radial_2230_13686" cx="0" cy="0" r="1" gradientUnits="userSpaceOnUse" gradientTransform="translate(13.6026 20.3643) rotate(-25.2004) scale(5.58482 3.21524)">
<stop offset="0.179" stop-color="#DCE3BE"/>
<stop offset="0.25" stop-color="#DCE3BE"/>
<stop offset="0.535" stop-color="#DAE1BC"/>
<stop offset="0.693" stop-color="#D5D9B4"/>
<stop offset="0.821" stop-color="#CCCDA6"/>
<stop offset="0.932" stop-color="#C0BB92"/>
<stop offset="1" stop-color="#B5AC82"/>
</radialGradient>
<radialGradient id="paint6_radial_2230_13686" cx="0" cy="0" r="1" gradientUnits="userSpaceOnUse" gradientTransform="translate(15.4883 22.4095) rotate(-38.202) scale(5.39423 3.32365)">
<stop offset="0.179" stop-color="#DCE3BE"/>
<stop offset="0.25" stop-color="#DCE3BE"/>
<stop offset="0.535" stop-color="#DAE1BC"/>
<stop offset="0.693" stop-color="#D5D9B4"/>
<stop offset="0.821" stop-color="#CCCDA6"/>
<stop offset="0.932" stop-color="#C0BB92"/>
<stop offset="1" stop-color="#B5AC82"/>
</radialGradient>
<radialGradient id="paint7_radial_2230_13686" cx="0" cy="0" r="1" gradientUnits="userSpaceOnUse" gradientTransform="translate(18.9301 22.8697) rotate(-38.202) scale(5.39423 3.32365)">
<stop offset="0.179" stop-color="#DCE3BE"/>
<stop offset="0.25" stop-color="#DCE3BE"/>
<stop offset="0.535" stop-color="#DAE1BC"/>
<stop offset="0.693" stop-color="#D5D9B4"/>
<stop offset="0.821" stop-color="#CCCDA6"/>
<stop offset="0.932" stop-color="#C0BB92"/>
<stop offset="1" stop-color="#B5AC82"/>
</radialGradient>
<radialGradient id="paint8_radial_2230_13686" cx="0" cy="0" r="1" gradientUnits="userSpaceOnUse" gradientTransform="translate(15.1711 9.78191) rotate(10.8072) scale(5.73835 3.12695)">
<stop offset="0.179" stop-color="#E5EBCD"/>
<stop offset="0.25" stop-color="#E5EBCD"/>
<stop offset="0.532" stop-color="#E3E9CB"/>
<stop offset="0.689" stop-color="#DEE2C3"/>
<stop offset="0.816" stop-color="#D5D6B5"/>
<stop offset="0.925" stop-color="#C9C5A1"/>
<stop offset="1" stop-color="#BDB58F"/>
</radialGradient>
<radialGradient id="paint9_radial_2230_13686" cx="0" cy="0" r="1" gradientUnits="userSpaceOnUse" gradientTransform="translate(16.2047 12.2768) rotate(-0.828572) scale(5.77578 3.10558)">
<stop offset="0.179" stop-color="#E5EBCD"/>
<stop offset="0.25" stop-color="#E5EBCD"/>
<stop offset="0.532" stop-color="#E3E9CB"/>
<stop offset="0.689" stop-color="#DEE2C3"/>
<stop offset="0.816" stop-color="#D5D6B5"/>
<stop offset="0.925" stop-color="#C9C5A1"/>
<stop offset="1" stop-color="#BDB58F"/>
</radialGradient>
<radialGradient id="paint10_radial_2230_13686" cx="0" cy="0" r="1" gradientUnits="userSpaceOnUse" gradientTransform="translate(17.4138 15.6751) rotate(-13.8874) scale(5.71111 3.13903)">
<stop offset="0.179" stop-color="#E5EBCD"/>
<stop offset="0.25" stop-color="#E5EBCD"/>
<stop offset="0.532" stop-color="#E3E9CB"/>
<stop offset="0.689" stop-color="#DEE2C3"/>
<stop offset="0.816" stop-color="#D5D6B5"/>
<stop offset="0.925" stop-color="#C9C5A1"/>
<stop offset="1" stop-color="#BDB58F"/>
</radialGradient>
<radialGradient id="paint11_radial_2230_13686" cx="0" cy="0" r="1" gradientUnits="userSpaceOnUse" gradientTransform="translate(18.7641 18.6923) rotate(-25.3168) scale(5.58379 3.21416)">
<stop offset="0.179" stop-color="#E5EBCD"/>
<stop offset="0.25" stop-color="#E5EBCD"/>
<stop offset="0.532" stop-color="#E3E9CB"/>
<stop offset="0.689" stop-color="#DEE2C3"/>
<stop offset="0.816" stop-color="#D5D6B5"/>
<stop offset="0.925" stop-color="#C9C5A1"/>
<stop offset="1" stop-color="#BDB58F"/>
</radialGradient>
<radialGradient id="paint12_radial_2230_13686" cx="0" cy="0" r="1" gradientUnits="userSpaceOnUse" gradientTransform="translate(20.5184 21.2612) rotate(-44.9063) scale(4.65593 2.83598)">
<stop offset="0.179" stop-color="#E5EBCD"/>
<stop offset="0.25" stop-color="#E5EBCD"/>
<stop offset="0.532" stop-color="#E3E9CB"/>
<stop offset="0.689" stop-color="#DEE2C3"/>
<stop offset="0.816" stop-color="#D5D6B5"/>
<stop offset="0.925" stop-color="#C9C5A1"/>
<stop offset="1" stop-color="#BDB58F"/>
</radialGradient>
<radialGradient id="paint13_radial_2230_13686" cx="0" cy="0" r="1" gradientUnits="userSpaceOnUse" gradientTransform="translate(20.269 10.0767) rotate(12.7038) scale(3.82581 2.45916)">
<stop offset="0.179" stop-color="#EBF0D4"/>
<stop offset="0.25" stop-color="#EBF0D4"/>
<stop offset="0.53" stop-color="#E9EED2"/>
<stop offset="0.687" stop-color="#E4E7CA"/>
<stop offset="0.813" stop-color="#DBDBBC"/>
<stop offset="0.922" stop-color="#CFCBA8"/>
<stop offset="1" stop-color="#C2BA95"/>
</radialGradient>
<radialGradient id="paint14_radial_2230_13686" cx="0" cy="0" r="1" gradientUnits="userSpaceOnUse" gradientTransform="translate(21.0707 12.0708) rotate(-0.851561) scale(3.81891 2.46427)">
<stop offset="0.179" stop-color="#EBF0D4"/>
<stop offset="0.25" stop-color="#EBF0D4"/>
<stop offset="0.53" stop-color="#E9EED2"/>
<stop offset="0.687" stop-color="#E4E7CA"/>
<stop offset="0.813" stop-color="#DBDBBC"/>
<stop offset="0.922" stop-color="#CFCBA8"/>
<stop offset="1" stop-color="#C2BA95"/>
</radialGradient>
<radialGradient id="paint15_radial_2230_13686" cx="0" cy="0" r="1" gradientUnits="userSpaceOnUse" gradientTransform="translate(22.012 14.7448) rotate(-16.3939) scale(3.82077 2.46247)">
<stop offset="0.179" stop-color="#EBF0D4"/>
<stop offset="0.25" stop-color="#EBF0D4"/>
<stop offset="0.53" stop-color="#E9EED2"/>
<stop offset="0.687" stop-color="#E4E7CA"/>
<stop offset="0.813" stop-color="#DBDBBC"/>
<stop offset="0.922" stop-color="#CFCBA8"/>
<stop offset="1" stop-color="#C2BA95"/>
</radialGradient>
<radialGradient id="paint16_radial_2230_13686" cx="0" cy="0" r="1" gradientUnits="userSpaceOnUse" gradientTransform="translate(22.5787 17.2805) rotate(-34.6835) scale(3.56905 2.27749)">
<stop offset="0.179" stop-color="#EBF0D4"/>
<stop offset="0.25" stop-color="#EBF0D4"/>
<stop offset="0.53" stop-color="#E9EED2"/>
<stop offset="0.687" stop-color="#E4E7CA"/>
<stop offset="0.813" stop-color="#DBDBBC"/>
<stop offset="0.922" stop-color="#CFCBA8"/>
<stop offset="1" stop-color="#C2BA95"/>
</radialGradient>
<radialGradient id="paint17_radial_2230_13686" cx="0" cy="0" r="1" gradientUnits="userSpaceOnUse" gradientTransform="translate(23.7296 19.4432) rotate(-58.1617) scale(3.19513 1.90495)">
<stop offset="0.179" stop-color="#EBF0D4"/>
<stop offset="0.25" stop-color="#EBF0D4"/>
<stop offset="0.53" stop-color="#E9EED2"/>
<stop offset="0.687" stop-color="#E4E7CA"/>
<stop offset="0.813" stop-color="#DBDBBC"/>
<stop offset="0.922" stop-color="#CFCBA8"/>
<stop offset="1" stop-color="#C2BA95"/>
</radialGradient>
<radialGradient id="paint18_radial_2230_13686" cx="0" cy="0" r="1" gradientUnits="userSpaceOnUse" gradientTransform="translate(25.3559 11.3293) rotate(20.6378) scale(2.12583 2.06257)">
<stop offset="0.25" stop-color="#EBF0D4"/>
<stop offset="0.574" stop-color="#E9EED2"/>
<stop offset="0.755" stop-color="#E3E6CA"/>
<stop offset="0.9" stop-color="#DAD8BC"/>
<stop offset="1" stop-color="#CFC9AE"/>
</radialGradient>
<radialGradient id="paint19_radial_2230_13686" cx="0" cy="0" r="1" gradientUnits="userSpaceOnUse" gradientTransform="translate(25.2615 12.4898) rotate(9.20436) scale(1.94595 1.82017)">
<stop offset="0.25" stop-color="#EBF0D4"/>
<stop offset="0.574" stop-color="#E9EED2"/>
<stop offset="0.755" stop-color="#E3E6CA"/>
<stop offset="0.9" stop-color="#DAD8BC"/>
<stop offset="1" stop-color="#CFC9AE"/>
</radialGradient>
<radialGradient id="paint20_radial_2230_13686" cx="0" cy="0" r="1" gradientUnits="userSpaceOnUse" gradientTransform="translate(25.3363 13.7027) rotate(-2.23024) scale(1.83601 1.70028)">
<stop offset="0.25" stop-color="#EBF0D4"/>
<stop offset="0.574" stop-color="#E9EED2"/>
<stop offset="0.755" stop-color="#E3E6CA"/>
<stop offset="0.9" stop-color="#DAD8BC"/>
<stop offset="1" stop-color="#CFC9AE"/>
</radialGradient>
<radialGradient id="paint21_radial_2230_13686" cx="0" cy="0" r="1" gradientUnits="userSpaceOnUse" gradientTransform="translate(25.5203 14.8429) rotate(-2.23024) scale(1.78012 1.64852)">
<stop offset="0.25" stop-color="#EBF0D4"/>
<stop offset="0.574" stop-color="#E9EED2"/>
<stop offset="0.755" stop-color="#E3E6CA"/>
<stop offset="0.9" stop-color="#DAD8BC"/>
<stop offset="1" stop-color="#CFC9AE"/>
</radialGradient>
<radialGradient id="paint22_radial_2230_13686" cx="0" cy="0" r="1" gradientUnits="userSpaceOnUse" gradientTransform="translate(25.367 16.3415) rotate(-10.4822) scale(1.65882 1.5551)">
<stop offset="0.25" stop-color="#EBF0D4"/>
<stop offset="0.574" stop-color="#E9EED2"/>
<stop offset="0.755" stop-color="#E3E6CA"/>
<stop offset="0.9" stop-color="#DAD8BC"/>
<stop offset="1" stop-color="#CFC9AE"/>
</radialGradient>
<radialGradient id="paint23_radial_2230_13686" cx="0" cy="0" r="1" gradientUnits="userSpaceOnUse" gradientTransform="translate(25.6201 17.8539) rotate(-29.0499) scale(1.78194 1.79751)">
<stop offset="0.25" stop-color="#EBF0D4"/>
<stop offset="0.574" stop-color="#E9EED2"/>
<stop offset="0.755" stop-color="#E3E6CA"/>
<stop offset="0.9" stop-color="#DAD8BC"/>
<stop offset="1" stop-color="#CFC9AE"/>
</radialGradient>
<radialGradient id="paint24_radial_2230_13686" cx="0" cy="0" r="1" gradientUnits="userSpaceOnUse" gradientTransform="translate(25.4743 18.2396) rotate(-49.1312) scale(1.95397 2.20446)">
<stop offset="0.25" stop-color="#EBF0D4"/>
<stop offset="0.574" stop-color="#E9EED2"/>
<stop offset="0.755" stop-color="#E3E6CA"/>
<stop offset="0.9" stop-color="#DAD8BC"/>
<stop offset="1" stop-color="#CFC9AE"/>
</radialGradient>
<linearGradient id="paint25_linear_2230_13686" x1="19.2344" y1="22.1736" x2="32.9969" y2="40.1394" gradientUnits="userSpaceOnUse">
<stop stop-color="#9BAB98"/>
<stop offset="0.482" stop-color="#9AAA96"/>
<stop offset="0.655" stop-color="#95A68F"/>
<stop offset="0.779" stop-color="#8E9F84"/>
<stop offset="0.879" stop-color="#839473"/>
<stop offset="0.964" stop-color="#75875D"/>
<stop offset="1" stop-color="#6D8051"/>
</linearGradient>
<linearGradient id="paint26_linear_2230_13686" x1="8.44925" y1="38.5285" x2="43.5233" y2="9.53645" gradientUnits="userSpaceOnUse">
<stop stop-color="#B6CFB4"/>
<stop offset="0.165" stop-color="#C9DABC"/>
<stop offset="0.335" stop-color="#D6E1C1"/>
<stop offset="0.5" stop-color="#DAE3C3"/>
<stop offset="0.665" stop-color="#D6E1C1"/>
<stop offset="0.835" stop-color="#C9DABC"/>
<stop offset="1" stop-color="#B6CFB4"/>
</linearGradient>
<linearGradient id="paint27_linear_2230_13686" x1="19.2404" y1="22.1747" x2="33.9787" y2="38.9057" gradientUnits="userSpaceOnUse">
<stop stop-color="#AFB38F"/>
<stop offset="0.016" stop-color="#BCC09E"/>
<stop offset="0.047" stop-color="#CFD4B4"/>
<stop offset="0.082" stop-color="#DEE3C5"/>
<stop offset="0.127" stop-color="#E8EDD0"/>
<stop offset="0.189" stop-color="#EEF3D7"/>
<stop offset="0.362" stop-color="#F0F5D9"/>
<stop offset="0.496" stop-color="#EDF2D6"/>
<stop offset="0.601" stop-color="#E3E8CD"/>
<stop offset="0.697" stop-color="#D4D7BE"/>
<stop offset="0.78" stop-color="#BFC2AB"/>
<stop offset="0.808" stop-color="#B6BA9F"/>
<stop offset="0.855" stop-color="#A2A681"/>
<stop offset="0.901" stop-color="#A0A37F"/>
<stop offset="0.934" stop-color="#999A78"/>
<stop offset="0.962" stop-color="#8C8B6D"/>
<stop offset="0.987" stop-color="#7B755D"/>
<stop offset="1" stop-color="#706753"/>
</linearGradient>
<linearGradient id="paint28_linear_2230_13686" x1="43.1641" y1="50.7709" x2="40.5133" y2="32.3531" gradientUnits="userSpaceOnUse">
<stop offset="0.25" stop-color="#D7DDB9"/>
<stop offset="0.566" stop-color="#D5DBB7"/>
<stop offset="0.684" stop-color="#CFD4B1"/>
<stop offset="0.769" stop-color="#C4C8A6"/>
<stop offset="0.838" stop-color="#B4B797"/>
<stop offset="0.897" stop-color="#A0A182"/>
<stop offset="0.949" stop-color="#87866A"/>
<stop offset="0.996" stop-color="#6A664D"/>
<stop offset="1" stop-color="#67634A"/>
</linearGradient>
<radialGradient id="paint29_radial_2230_13686" cx="0" cy="0" r="1" gradientUnits="userSpaceOnUse" gradientTransform="translate(49.8691 45.2183) rotate(-101.845) scale(4.87615 3.6569)">
<stop offset="0.179" stop-color="#D7DDB9"/>
<stop offset="0.25" stop-color="#D7DDB9"/>
<stop offset="0.536" stop-color="#D5DBB7"/>
<stop offset="0.696" stop-color="#D0D3AF"/>
<stop offset="0.824" stop-color="#C7C7A1"/>
<stop offset="0.935" stop-color="#B9B58D"/>
<stop offset="1" stop-color="#AFA77E"/>
</radialGradient>
<radialGradient id="paint30_radial_2230_13686" cx="0" cy="0" r="1" gradientUnits="userSpaceOnUse" gradientTransform="translate(46.4054 45.2504) rotate(-88.3477) scale(4.84364 3.67821)">
<stop offset="0.179" stop-color="#D7DDB9"/>
<stop offset="0.25" stop-color="#D7DDB9"/>
<stop offset="0.536" stop-color="#D5DBB7"/>
<stop offset="0.696" stop-color="#D0D3AF"/>
<stop offset="0.824" stop-color="#C7C7A1"/>
<stop offset="0.935" stop-color="#B9B58D"/>
<stop offset="1" stop-color="#AFA77E"/>
</radialGradient>
<radialGradient id="paint31_radial_2230_13686" cx="0" cy="0" r="1" gradientUnits="userSpaceOnUse" gradientTransform="translate(43.3244 45.009) rotate(-79.1843) scale(4.86871 3.66158)">
<stop offset="0.179" stop-color="#D7DDB9"/>
<stop offset="0.25" stop-color="#D7DDB9"/>
<stop offset="0.536" stop-color="#D5DBB7"/>
<stop offset="0.696" stop-color="#D0D3AF"/>
<stop offset="0.824" stop-color="#C7C7A1"/>
<stop offset="0.935" stop-color="#B9B58D"/>
<stop offset="1" stop-color="#AFA77E"/>
</radialGradient>
<radialGradient id="paint32_radial_2230_13686" cx="0" cy="0" r="1" gradientUnits="userSpaceOnUse" gradientTransform="translate(40.7576 43.9904) rotate(-65.6063) scale(4.97376 3.58316)">
<stop offset="0.179" stop-color="#D7DDB9"/>
<stop offset="0.25" stop-color="#D7DDB9"/>
<stop offset="0.536" stop-color="#D5DBB7"/>
<stop offset="0.696" stop-color="#D0D3AF"/>
<stop offset="0.824" stop-color="#C7C7A1"/>
<stop offset="0.935" stop-color="#B9B58D"/>
<stop offset="1" stop-color="#AFA77E"/>
</radialGradient>
<radialGradient id="paint33_radial_2230_13686" cx="0" cy="0" r="1" gradientUnits="userSpaceOnUse" gradientTransform="translate(38.3406 42.9395) rotate(-57.1777) scale(5.07805 3.51228)">
<stop offset="0.179" stop-color="#D7DDB9"/>
<stop offset="0.25" stop-color="#D7DDB9"/>
<stop offset="0.536" stop-color="#D5DBB7"/>
<stop offset="0.696" stop-color="#D0D3AF"/>
<stop offset="0.824" stop-color="#C7C7A1"/>
<stop offset="0.935" stop-color="#B9B58D"/>
<stop offset="1" stop-color="#AFA77E"/>
</radialGradient>
<radialGradient id="paint34_radial_2230_13686" cx="0" cy="0" r="1" gradientUnits="userSpaceOnUse" gradientTransform="translate(35.8451 41.4081) rotate(-42.6708) scale(5.30271 3.36069)">
<stop offset="0.179" stop-color="#D7DDB9"/>
<stop offset="0.25" stop-color="#D7DDB9"/>
<stop offset="0.536" stop-color="#D5DBB7"/>
<stop offset="0.696" stop-color="#D0D3AF"/>
<stop offset="0.824" stop-color="#C7C7A1"/>
<stop offset="0.935" stop-color="#B9B58D"/>
<stop offset="1" stop-color="#AFA77E"/>
</radialGradient>
<radialGradient id="paint35_radial_2230_13686" cx="0" cy="0" r="1" gradientUnits="userSpaceOnUse" gradientTransform="translate(34.6399 38.395) rotate(-42.6708) scale(5.3027 3.36069)">
<stop offset="0.179" stop-color="#D7DDB9"/>
<stop offset="0.25" stop-color="#D7DDB9"/>
<stop offset="0.536" stop-color="#D5DBB7"/>
<stop offset="0.696" stop-color="#D0D3AF"/>
<stop offset="0.824" stop-color="#C7C7A1"/>
<stop offset="0.935" stop-color="#B9B58D"/>
<stop offset="1" stop-color="#AFA77E"/>
</radialGradient>
<radialGradient id="paint36_radial_2230_13686" cx="0" cy="0" r="1" gradientUnits="userSpaceOnUse" gradientTransform="translate(50.4768 40.6432) rotate(-101.845) scale(4.87615 3.6569)">
<stop offset="0.179" stop-color="#E0E5C8"/>
<stop offset="0.25" stop-color="#E0E5C8"/>
<stop offset="0.533" stop-color="#DEE3C6"/>
<stop offset="0.691" stop-color="#D9DCBE"/>
<stop offset="0.818" stop-color="#D0D0B0"/>
<stop offset="0.929" stop-color="#C3BF9C"/>
<stop offset="1" stop-color="#B7B08B"/>
</radialGradient>
<radialGradient id="paint37_radial_2230_13686" cx="0" cy="0" r="1" gradientUnits="userSpaceOnUse" gradientTransform="translate(47.4649 40.3792) rotate(-89.7245) scale(4.84169 3.67774)">
<stop offset="0.179" stop-color="#E0E5C8"/>
<stop offset="0.25" stop-color="#E0E5C8"/>
<stop offset="0.533" stop-color="#DEE3C6"/>
<stop offset="0.691" stop-color="#D9DCBE"/>
<stop offset="0.818" stop-color="#D0D0B0"/>
<stop offset="0.929" stop-color="#C3BF9C"/>
<stop offset="1" stop-color="#B7B08B"/>
</radialGradient>
<radialGradient id="paint38_radial_2230_13686" cx="0" cy="0" r="1" gradientUnits="userSpaceOnUse" gradientTransform="translate(43.6448 39.2002) rotate(-71.5915) scale(4.92013 3.62602)">
<stop offset="0.179" stop-color="#E0E5C8"/>
<stop offset="0.25" stop-color="#E0E5C8"/>
<stop offset="0.533" stop-color="#DEE3C6"/>
<stop offset="0.691" stop-color="#D9DCBE"/>
<stop offset="0.818" stop-color="#D0D0B0"/>
<stop offset="0.929" stop-color="#C3BF9C"/>
<stop offset="1" stop-color="#B7B08B"/>
</radialGradient>
<radialGradient id="paint39_radial_2230_13686" cx="0" cy="0" r="1" gradientUnits="userSpaceOnUse" gradientTransform="translate(40.3124 38.2318) rotate(-57.0371) scale(5.08021 3.50874)">
<stop offset="0.179" stop-color="#E0E5C8"/>
<stop offset="0.25" stop-color="#E0E5C8"/>
<stop offset="0.533" stop-color="#DEE3C6"/>
<stop offset="0.691" stop-color="#D9DCBE"/>
<stop offset="0.818" stop-color="#D0D0B0"/>
<stop offset="0.929" stop-color="#C3BF9C"/>
<stop offset="1" stop-color="#B7B08B"/>
</radialGradient>
<radialGradient id="paint40_radial_2230_13686" cx="0" cy="0" r="1" gradientUnits="userSpaceOnUse" gradientTransform="translate(37.2001 37.0947) rotate(-36.0786) scale(4.76648 2.75241)">
<stop offset="0.179" stop-color="#E0E5C8"/>
<stop offset="0.25" stop-color="#E0E5C8"/>
<stop offset="0.533" stop-color="#DEE3C6"/>
<stop offset="0.691" stop-color="#D9DCBE"/>
<stop offset="0.818" stop-color="#D0D0B0"/>
<stop offset="0.929" stop-color="#C3BF9C"/>
<stop offset="1" stop-color="#B7B08B"/>
</radialGradient>
<radialGradient id="paint41_radial_2230_13686" cx="0" cy="0" r="1" gradientUnits="userSpaceOnUse" gradientTransform="translate(36.9644 34.5875) rotate(-22.1664) scale(3.90283 2.66759)">
<stop offset="0.179" stop-color="#E0E5C8"/>
<stop offset="0.25" stop-color="#E0E5C8"/>
<stop offset="0.533" stop-color="#DEE3C6"/>
<stop offset="0.691" stop-color="#D9DCBE"/>
<stop offset="0.818" stop-color="#D0D0B0"/>
<stop offset="0.929" stop-color="#C3BF9C"/>
<stop offset="1" stop-color="#B7B08B"/>
</radialGradient>
<radialGradient id="paint42_radial_2230_13686" cx="0" cy="0" r="1" gradientUnits="userSpaceOnUse" gradientTransform="translate(50.3362 36.9501) rotate(-104.138) scale(3.25399 2.87314)">
<stop offset="0.179" stop-color="#E6EACF"/>
<stop offset="0.25" stop-color="#E6EACF"/>
<stop offset="0.532" stop-color="#E4E8CD"/>
<stop offset="0.689" stop-color="#DFE1C5"/>
<stop offset="0.816" stop-color="#D6D5B7"/>
<stop offset="0.925" stop-color="#C8C5A3"/>
<stop offset="1" stop-color="#BCB591"/>
</radialGradient>
<radialGradient id="paint43_radial_2230_13686" cx="0" cy="0" r="1" gradientUnits="userSpaceOnUse" gradientTransform="translate(48.108 36.4811) rotate(-89.6463) scale(3.20259 2.91824)">
<stop offset="0.179" stop-color="#E6EACF"/>
<stop offset="0.25" stop-color="#E6EACF"/>
<stop offset="0.532" stop-color="#E4E8CD"/>
<stop offset="0.689" stop-color="#DFE1C5"/>
<stop offset="0.816" stop-color="#D6D5B7"/>
<stop offset="0.925" stop-color="#C8C5A3"/>
<stop offset="1" stop-color="#BCB591"/>
</radialGradient>
<radialGradient id="paint44_radial_2230_13686" cx="0" cy="0" r="1" gradientUnits="userSpaceOnUse" gradientTransform="translate(44.7339 35.9069) rotate(-68.2648) scale(3.32088 2.8146)">
<stop offset="0.179" stop-color="#E6EACF"/>
<stop offset="0.25" stop-color="#E6EACF"/>
<stop offset="0.532" stop-color="#E4E8CD"/>
<stop offset="0.689" stop-color="#DFE1C5"/>
<stop offset="0.816" stop-color="#D6D5B7"/>
<stop offset="0.925" stop-color="#C8C5A3"/>
<stop offset="1" stop-color="#BCB591"/>
</radialGradient>
<radialGradient id="paint45_radial_2230_13686" cx="0" cy="0" r="1" gradientUnits="userSpaceOnUse" gradientTransform="translate(41.8072 35.2821) rotate(-46.4025) scale(3.43421 2.35313)">
<stop offset="0.179" stop-color="#E6EACF"/>
<stop offset="0.25" stop-color="#E6EACF"/>
<stop offset="0.532" stop-color="#E4E8CD"/>
<stop offset="0.689" stop-color="#DFE1C5"/>
<stop offset="0.816" stop-color="#D6D5B7"/>
<stop offset="0.925" stop-color="#C8C5A3"/>
<stop offset="1" stop-color="#BCB591"/>
</radialGradient>
<radialGradient id="paint46_radial_2230_13686" cx="0" cy="0" r="1" gradientUnits="userSpaceOnUse" gradientTransform="translate(39.2575 34.3372) rotate(-24.3954) scale(3.50476 1.72518)">
<stop offset="0.179" stop-color="#E6EACF"/>
<stop offset="0.25" stop-color="#E6EACF"/>
<stop offset="0.532" stop-color="#E4E8CD"/>
<stop offset="0.689" stop-color="#DFE1C5"/>
<stop offset="0.816" stop-color="#D6D5B7"/>
<stop offset="0.925" stop-color="#C8C5A3"/>
<stop offset="1" stop-color="#BCB591"/>
</radialGradient>
<radialGradient id="paint47_radial_2230_13686" cx="0" cy="0" r="1" gradientUnits="userSpaceOnUse" gradientTransform="translate(48.6959 32.7957) rotate(-118.846) scale(1.89388 2.29949)">
<stop offset="0.25" stop-color="#E6EACF"/>
<stop offset="0.577" stop-color="#E4E8CD"/>
<stop offset="0.759" stop-color="#DEE0C5"/>
<stop offset="0.905" stop-color="#D4D2B7"/>
<stop offset="1" stop-color="#C9C4A9"/>
</radialGradient>
<radialGradient id="paint48_radial_2230_13686" cx="0" cy="0" r="1" gradientUnits="userSpaceOnUse" gradientTransform="translate(47.311 32.9431) rotate(-103.797) scale(1.65437 2.12625)">
<stop offset="0.25" stop-color="#E6EACF"/>
<stop offset="0.577" stop-color="#E4E8CD"/>
<stop offset="0.759" stop-color="#DEE0C5"/>
<stop offset="0.905" stop-color="#D4D2B7"/>
<stop offset="1" stop-color="#C9C4A9"/>
</radialGradient>
<radialGradient id="paint49_radial_2230_13686" cx="0" cy="0" r="1" gradientUnits="userSpaceOnUse" gradientTransform="translate(45.9146 32.9538) rotate(-87.7608) scale(1.54022 2.01314)">
<stop offset="0.25" stop-color="#E6EACF"/>
<stop offset="0.577" stop-color="#E4E8CD"/>
<stop offset="0.759" stop-color="#DEE0C5"/>
<stop offset="0.905" stop-color="#D4D2B7"/>
<stop offset="1" stop-color="#C9C4A9"/>
</radialGradient>
<radialGradient id="paint50_radial_2230_13686" cx="0" cy="0" r="1" gradientUnits="userSpaceOnUse" gradientTransform="translate(44.5633 32.8167) rotate(-87.7608) scale(1.49368 1.95232)">
<stop offset="0.25" stop-color="#E6EACF"/>
<stop offset="0.577" stop-color="#E4E8CD"/>
<stop offset="0.759" stop-color="#DEE0C5"/>
<stop offset="0.905" stop-color="#D4D2B7"/>
<stop offset="1" stop-color="#C9C4A9"/>
</radialGradient>
<radialGradient id="paint51_radial_2230_13686" cx="0" cy="0" r="1" gradientUnits="userSpaceOnUse" gradientTransform="translate(42.862 32.9308) rotate(-76.2032) scale(1.41267 1.81572)">
<stop offset="0.25" stop-color="#E6EACF"/>
<stop offset="0.577" stop-color="#E4E8CD"/>
<stop offset="0.759" stop-color="#DEE0C5"/>
<stop offset="0.905" stop-color="#D4D2B7"/>
<stop offset="1" stop-color="#C9C4A9"/>
</radialGradient>
<radialGradient id="paint52_radial_2230_13686" cx="0" cy="0" r="1" gradientUnits="userSpaceOnUse" gradientTransform="translate(40.9623 32.8918) rotate(-52.6601) scale(1.65492 1.92119)">
<stop offset="0.25" stop-color="#E6EACF"/>
<stop offset="0.577" stop-color="#E4E8CD"/>
<stop offset="0.759" stop-color="#DEE0C5"/>
<stop offset="0.905" stop-color="#D4D2B7"/>
<stop offset="1" stop-color="#C9C4A9"/>
</radialGradient>
<radialGradient id="paint53_radial_2230_13686" cx="0" cy="0" r="1" gradientUnits="userSpaceOnUse" gradientTransform="translate(39.0073 32.7724) rotate(-32.1519) scale(1.72783 1.76187)">
<stop offset="0.25" stop-color="#E6EACF"/>
<stop offset="0.577" stop-color="#E4E8CD"/>
<stop offset="0.759" stop-color="#DEE0C5"/>
<stop offset="0.905" stop-color="#D4D2B7"/>
<stop offset="1" stop-color="#C9C4A9"/>
</radialGradient>
</defs>
</svg>
