<svg width="18" height="18" viewBox="0 0 18 18" fill="none" xmlns="http://www.w3.org/2000/svg">
<g id="material-symbols:star">
<path id="Vector" d="M10.5232 6.68578L10.9837 6.49113L10.5232 6.68578C10.6674 7.02711 10.9886 7.26068 11.3578 7.29273L15.281 7.63328L12.3134 10.2061C12.0335 10.4487 11.9107 10.8262 11.9942 11.187L12.8788 15.0114L9.51751 12.9837C9.19982 12.7921 8.80213 12.7921 8.48444 12.9837L5.12313 15.0114L6.00777 11.187C6.09125 10.8262 5.96842 10.4487 5.68856 10.2061L2.721 7.63328L6.64415 7.29273L6.60091 6.7946L6.64415 7.29273C7.01333 7.26068 7.33452 7.02711 7.47878 6.68578L9.00098 3.08416L10.5232 6.68578Z" stroke="#DAE3F2"/>
</g>
</svg>
