<?xml version="1.0" encoding="UTF-8" standalone="no"?>
<svg
   width="14.994425"
   height="15.84691"
   viewBox="0 0 14.994425 15.84691"
   fill="none"
   version="1.1"
   id="svg4"
   sodipodi:docname="ico-user.svg"
   inkscape:version="1.1 (c68e22c387, 2021-05-23)"
   xmlns:inkscape="http://www.inkscape.org/namespaces/inkscape"
   xmlns:sodipodi="http://sodipodi.sourceforge.net/DTD/sodipodi-0.dtd"
   xmlns="http://www.w3.org/2000/svg"
   xmlns:svg="http://www.w3.org/2000/svg">
  <defs
     id="defs8" />
  <sodipodi:namedview
     id="namedview6"
     pagecolor="#ffffff"
     bordercolor="#666666"
     borderopacity="1.0"
     inkscape:pageshadow="2"
     inkscape:pageopacity="0.0"
     inkscape:pagecheckerboard="0"
     showgrid="false"
     inkscape:zoom="20.3"
     inkscape:cx="-3.3743842"
     inkscape:cy="10.91133"
     inkscape:window-width="1920"
     inkscape:window-height="1001"
     inkscape:window-x="-9"
     inkscape:window-y="-9"
     inkscape:window-maximized="1"
     inkscape:current-layer="svg4" />
  <g
     id="octicon:person-24"
     transform="translate(-3.0039077,-2.0832498)">
    <path
       id="Vector"
       d="m 10.5009,2.08325 c 0.98,-3e-4 1.9344,0.31358 2.723,0.89556 0.7886,0.58198 1.3698,1.40142 1.6584,2.33804 0.2887,0.93663 0.2695,1.9411 -0.0548,2.866 -0.3242,0.9249 -0.9364,1.72151 -1.7466,2.27295 1.4063,0.5158 2.6262,1.4407 3.5024,2.6557 0.8762,1.215 1.3688,2.6644 1.4142,4.1618 0.0043,0.0831 -0.0081,0.1662 -0.0364,0.2444 -0.0283,0.0783 -0.072,0.1501 -0.1284,0.2113 -0.0564,0.0611 -0.1245,0.1104 -0.2003,0.1449 -0.0757,0.0345 -0.1575,0.0536 -0.2407,0.056 -0.0832,0.0024 -0.166,-0.0118 -0.2437,-0.0418 -0.0776,-0.03 -0.1484,-0.0752 -0.2084,-0.1329 -0.0599,-0.0578 -0.1077,-0.1269 -0.1405,-0.2033 -0.0329,-0.0765 -0.0501,-0.1588 -0.0507,-0.242 -0.0497,-1.6238 -0.7296,-3.1644 -1.8957,-4.2955 -1.1662,-1.131 -2.7269,-1.7636 -4.3514,-1.7636 -1.62457,0 -3.18528,0.6326 -4.35142,1.7636 C 4.98374,14.1455 4.30381,15.6861 4.25419,17.3099 4.24922,17.4757 4.1786,17.6327 4.05787,17.7464 3.93714,17.8601 3.7762,17.9211 3.61044,17.9162 3.44468,17.9112 3.28768,17.8406 3.17399,17.7199 3.06029,17.5991 2.99921,17.4382 3.00419,17.2724 3.04981,15.7753 3.54243,14.326 4.41866,13.1112 5.29488,11.8963 6.5146,10.9715 7.92085,10.4558 7.11059,9.90436 6.49842,9.10775 6.17419,8.18285 5.84996,7.25795 5.83074,6.25348 6.11936,5.31685 6.40798,4.38023 6.98924,3.56079 7.77782,2.97881 8.5664,2.39683 9.52077,2.08295 10.5009,2.08325 Z M 7.16752,6.66659 c 0,0.88405 0.35119,1.7319 0.97631,2.35702 0.62512,0.62512 1.47297,0.97631 2.35707,0.97631 0.884,0 1.7319,-0.35119 2.357,-0.97631 0.6251,-0.62512 0.9763,-1.47297 0.9763,-2.35702 0,-0.88406 -0.3512,-1.73191 -0.9763,-2.35703 -0.6251,-0.62512 -1.473,-0.97631 -2.357,-0.97631 -0.8841,0 -1.73195,0.35119 -2.35707,0.97631 C 7.51871,4.93468 7.16752,5.78253 7.16752,6.66659 Z"
       fill="#0f63fb" />
  </g>
</svg>
