<svg width="58" height="58" viewBox="0 0 58 58" fill="none" xmlns="http://www.w3.org/2000/svg">
<g id="icons8-memo 1">
<g id="memo">
<path id="Vector" d="M47.1257 6.04163H8.45898V51.9583H47.1257V6.04163Z" fill="url(#paint0_linear_2230_13638)"/>
<path id="Vector_2" d="M47.1257 6.04163H8.45898V51.9583H47.1257V6.04163Z" fill="url(#paint1_linear_2230_13638)"/>
<path id="Vector_3" d="M18.125 18.125V16.9166H25.375V18.125H18.125ZM24.1667 24.1666V25.375H32.625V24.1666H24.1667ZM22.9583 13.2916H14.5V14.5H22.9583V13.2916ZM27.7917 29V27.7916H20.5417V29H27.7917ZM29 27.7916V29H35.0417V27.7916H29ZM30.2083 20.5416V21.75H35.0417V20.5416H30.2083ZM26.5833 16.9166V18.125H36.25V16.9166H26.5833ZM42.2917 24.1666H33.8333V25.375H42.2917V24.1666ZM27.7917 21.75V20.5416H19.3333V21.75H27.7917ZM27.7917 38.6666V39.875H37.4583V38.6666H27.7917ZM22.9583 25.375V24.1666H16.9167V25.375H22.9583ZM24.1667 31.4166V32.625H32.625V31.4166H24.1667ZM31.4167 36.25H36.25V35.0416H31.4167V36.25ZM30.2083 36.25V35.0416H19.3333V36.25H30.2083ZM38.6667 39.875H41.0833V38.6666H38.6667V39.875ZM37.4583 36.25H41.0833V35.0416H37.4583V36.25ZM33.8333 32.625H38.6667V31.4166H33.8333V32.625ZM36.25 29H42.2917V27.7916H36.25V29ZM16.9167 16.9166H14.5V18.125H16.9167V16.9166ZM36.25 21.75H39.875V20.5416H36.25V21.75ZM22.9583 31.4166H14.5V32.625H22.9583V31.4166ZM15.7083 24.1666H14.5V25.375H15.7083V24.1666ZM19.3333 27.7916H14.5V29H19.3333V27.7916ZM18.125 20.5416H14.5V21.75H18.125V20.5416ZM18.7292 45.9166H14.5V47.125H18.7292V45.9166ZM18.125 35.0416H14.5V36.25H18.125V35.0416ZM26.5833 38.6666H14.5V39.875H26.5833V38.6666Z" fill="url(#paint2_linear_2230_13638)"/>
<path id="Vector_4" d="M37.3807 37.5371C46.7674 28.1504 52.4833 18.6474 50.1474 16.3116C47.8116 13.9757 38.3086 19.6916 28.9219 29.0783C19.5352 38.465 13.8193 47.968 16.1552 50.3038C18.491 52.6397 27.994 46.9238 37.3807 37.5371Z" fill="url(#paint3_radial_2230_13638)"/>
<path id="Vector_5" d="M18.3682 46.8833C18.2175 46.732 18.1328 46.5272 18.1328 46.3136C18.1328 46.1 18.2175 45.8952 18.3682 45.7439L20.0127 43.5L21.7515 45.2388L19.5101 46.8833C19.4351 46.9583 19.3461 47.0178 19.2482 47.0584C19.1502 47.099 19.0452 47.1199 18.9391 47.1199C18.8331 47.1199 18.7281 47.099 18.6301 47.0584C18.5322 47.0178 18.4432 46.9583 18.3682 46.8833Z" fill="url(#paint4_linear_2230_13638)"/>
<path id="Vector_6" d="M42.428 18.2651L46.9858 22.823L27.2054 42.6034C27.2054 42.6034 22.3092 43.7066 21.931 43.3199C21.5528 42.9333 22.6476 38.0456 22.6476 38.0456L42.428 18.2651Z" fill="url(#paint5_linear_2230_13638)"/>
<path id="Vector_7" d="M27.3183 42.491L27.206 42.6034L21.3588 45.5191C21.2446 45.1355 21.0243 44.7921 20.7233 44.5283C20.4595 44.2273 20.116 44.0069 19.7324 43.8927L22.6481 38.0456L22.7605 37.932C22.9732 37.9346 23.1762 38.0215 23.3248 38.1737C23.7997 38.6413 23.3405 39.1005 23.8154 39.5681C24.2903 40.0357 24.7337 39.5838 25.2086 40.0514C25.6835 40.519 25.217 40.9782 25.6919 41.4458C26.1668 41.9135 26.6187 41.4615 27.0851 41.9292C27.1594 42.0026 27.2183 42.0901 27.2583 42.1866C27.2984 42.2831 27.3188 42.3866 27.3183 42.491Z" fill="url(#paint6_linear_2230_13638)"/>
<path id="Vector_8" d="M51.4878 18.3208L46.9856 22.823L42.4277 18.2652L46.93 13.7629C47.0789 13.6136 47.2559 13.4951 47.4507 13.4143C47.6455 13.3335 47.8543 13.2919 48.0652 13.2919C48.2761 13.2919 48.485 13.3335 48.6798 13.4143C48.8746 13.4951 49.0515 13.6136 49.2004 13.7629L51.4878 16.0503C51.6371 16.1992 51.7556 16.3762 51.8364 16.571C51.9173 16.7658 51.9589 16.9746 51.9589 17.1855C51.9589 17.3964 51.9173 17.6053 51.8364 17.8001C51.7556 17.9949 51.6371 18.1718 51.4878 18.3208Z" fill="url(#paint7_linear_2230_13638)"/>
<path id="Vector_9" d="M51.4878 18.3208L47.7915 22.0183L43.2324 17.4592L46.9299 13.7629C47.0789 13.6136 47.2558 13.4951 47.4506 13.4143C47.6454 13.3335 47.8542 13.2919 48.0652 13.2919C48.2761 13.2919 48.4849 13.3335 48.6797 13.4143C48.8745 13.4951 49.0514 13.6136 49.2004 13.7629L51.4878 16.0503C51.6371 16.1992 51.7555 16.3762 51.8364 16.571C51.9172 16.7658 51.9588 16.9746 51.9588 17.1855C51.9588 17.3964 51.9172 17.6053 51.8364 17.8001C51.7555 17.9949 51.6371 18.1718 51.4878 18.3208Z" fill="url(#paint8_linear_2230_13638)"/>
<path id="Vector_10" opacity="0.7" d="M40.9533 19.7378L38.9395 21.7517L43.4978 26.31L45.5117 24.2962L40.9533 19.7378Z" fill="url(#paint9_linear_2230_13638)"/>
<path id="Vector_11" d="M43.5719 17.6659C43.3124 17.4064 42.8916 17.4064 42.632 17.6659C42.3725 17.9255 42.3725 18.3463 42.632 18.6058L46.6427 22.6164C46.9022 22.876 47.323 22.876 47.5826 22.6164C47.8421 22.3569 47.8421 21.9361 47.5826 21.6766L43.5719 17.6659Z" fill="url(#paint10_linear_2230_13638)"/>
<path id="Vector_12" opacity="0.5" d="M43.5719 17.6659C43.3124 17.4064 42.8916 17.4064 42.632 17.6659C42.3725 17.9255 42.3725 18.3463 42.632 18.6058L46.6427 22.6164C46.9022 22.876 47.323 22.876 47.5826 22.6164C47.8421 22.3569 47.8421 21.9361 47.5826 21.6766L43.5719 17.6659Z" fill="url(#paint11_linear_2230_13638)"/>
<path id="Vector_13" d="M42.7692 18.4703C42.5096 18.2107 42.0888 18.2107 41.8293 18.4703C41.5698 18.7298 41.5698 19.1506 41.8293 19.4101L45.84 23.4208C46.0995 23.6803 46.5203 23.6803 46.7798 23.4208C47.0394 23.1612 47.0394 22.7404 46.7798 22.4809L42.7692 18.4703Z" fill="url(#paint12_linear_2230_13638)"/>
<path id="Vector_14" opacity="0.5" d="M42.7692 18.4703C42.5096 18.2107 42.0888 18.2107 41.8293 18.4703C41.5698 18.7298 41.5698 19.1506 41.8293 19.4101L45.84 23.4208C46.0995 23.6803 46.5203 23.6803 46.7798 23.4208C47.0394 23.1612 47.0394 22.7404 46.7798 22.4809L42.7692 18.4703Z" fill="url(#paint13_linear_2230_13638)"/>
<path id="Vector_15" d="M41.9625 19.2771C41.703 19.0176 41.2822 19.0176 41.0227 19.2771C40.7631 19.5367 40.7631 19.9575 41.0227 20.217L45.0333 24.2277C45.2929 24.4872 45.7136 24.4872 45.9732 24.2277C46.2327 23.9681 46.2327 23.5473 45.9732 23.2878L41.9625 19.2771Z" fill="url(#paint14_linear_2230_13638)"/>
<path id="Vector_16" opacity="0.5" d="M41.9625 19.2771C41.703 19.0176 41.2822 19.0176 41.0227 19.2771C40.7631 19.5367 40.7631 19.9575 41.0227 20.217L45.0333 24.2277C45.2929 24.4872 45.7136 24.4872 45.9732 24.2277C46.2327 23.9681 46.2327 23.5473 45.9732 23.2878L41.9625 19.2771Z" fill="url(#paint15_linear_2230_13638)"/>
</g>
</g>
<defs>
<linearGradient id="paint0_linear_2230_13638" x1="27.7923" y1="67.5494" x2="27.7923" y2="-12.6839" gradientUnits="userSpaceOnUse">
<stop offset="0.252" stop-color="#EAE9E4"/>
<stop offset="0.584" stop-color="#D9DFD5"/>
<stop offset="1" stop-color="#C6D4C9"/>
</linearGradient>
<linearGradient id="paint1_linear_2230_13638" x1="37.9327" y1="39.1403" x2="57.9668" y2="59.1745" gradientUnits="userSpaceOnUse">
<stop stop-color="#EAE9E4" stop-opacity="0"/>
<stop offset="0.235" stop-color="#C6CCC4" stop-opacity="0.323"/>
<stop offset="0.385" stop-color="#B7BEB5" stop-opacity="0.529"/>
<stop offset="0.403" stop-color="#B1BBB0" stop-opacity="0.542"/>
<stop offset="0.514" stop-color="#99AB9C" stop-opacity="0.618"/>
<stop offset="0.633" stop-color="#88A08B" stop-opacity="0.699"/>
<stop offset="0.763" stop-color="#7F9982" stop-opacity="0.788"/>
<stop offset="0.927" stop-color="#7C9780" stop-opacity="0.9"/>
</linearGradient>
<linearGradient id="paint2_linear_2230_13638" x1="40.6689" y1="13.7061" x2="5.89304" y2="48.4819" gradientUnits="userSpaceOnUse">
<stop stop-color="#918F83" stop-opacity="0.8"/>
<stop offset="0.126" stop-color="#9C9A8D" stop-opacity="0.8"/>
<stop offset="0.288" stop-color="#B0ADA0" stop-opacity="0.8"/>
</linearGradient>
<radialGradient id="paint3_radial_2230_13638" cx="0" cy="0" r="1" gradientUnits="userSpaceOnUse" gradientTransform="translate(33.1538 33.2896) rotate(-45) scale(37.3525 10.4949)">
<stop offset="0.085" stop-color="#141312"/>
<stop offset="0.557" stop-color="#B5A9A5" stop-opacity="0"/>
</radialGradient>
<linearGradient id="paint4_linear_2230_13638" x1="18.9801" y1="44.665" x2="20.9205" y2="46.6054" gradientUnits="userSpaceOnUse">
<stop offset="0.188" stop-color="#767676"/>
<stop offset="0.935" stop-color="#080807"/>
</linearGradient>
<linearGradient id="paint5_linear_2230_13638" x1="31.4092" y1="30.0234" x2="35.2469" y2="33.8599" gradientUnits="userSpaceOnUse">
<stop offset="0.25" stop-color="#F5C64C"/>
<stop offset="0.3" stop-color="#DAA728"/>
<stop offset="0.62" stop-color="#D1A127"/>
<stop offset="0.67" stop-color="#D4A326"/>
<stop offset="0.789" stop-color="#8A6500"/>
</linearGradient>
<linearGradient id="paint6_linear_2230_13638" x1="20.652" y1="40.1529" x2="25.7523" y2="45.2533" gradientUnits="userSpaceOnUse">
<stop offset="0.188" stop-color="#EBD9B3"/>
<stop offset="0.935" stop-color="#7D6229"/>
</linearGradient>
<linearGradient id="paint7_linear_2230_13638" x1="45.3024" y1="15.5017" x2="50.4027" y2="20.6021" gradientUnits="userSpaceOnUse">
<stop offset="0.188" stop-color="#EB6B63"/>
<stop offset="0.935" stop-color="#631414"/>
</linearGradient>
<linearGradient id="paint8_linear_2230_13638" x1="50.103" y1="14.6269" x2="44.8987" y2="20.8293" gradientUnits="userSpaceOnUse">
<stop offset="0.667" stop-color="#7D3935" stop-opacity="0"/>
<stop offset="0.871" stop-color="#6B201F" stop-opacity="0.68"/>
<stop offset="0.963" stop-color="#631414"/>
</linearGradient>
<linearGradient id="paint9_linear_2230_13638" x1="41.3821" y1="23.8682" x2="43.0774" y2="22.1729" gradientUnits="userSpaceOnUse">
<stop offset="0.664" stop-color="#826827" stop-opacity="0"/>
<stop offset="1" stop-color="#543D00"/>
</linearGradient>
<linearGradient id="paint10_linear_2230_13638" x1="42.9353" y1="18.1138" x2="47.5886" y2="22.7671" gradientUnits="userSpaceOnUse">
<stop offset="0.008" stop-color="#C4AB5E"/>
<stop offset="0.188" stop-color="#EBD286"/>
<stop offset="0.794" stop-color="#4F3318"/>
<stop offset="0.872" stop-color="#624C24"/>
<stop offset="0.943" stop-color="#6F5C2C"/>
<stop offset="1" stop-color="#73612F"/>
</linearGradient>
<linearGradient id="paint11_linear_2230_13638" x1="44.7261" y1="20.7424" x2="45.6082" y2="19.8603" gradientUnits="userSpaceOnUse">
<stop offset="0.174" stop-color="#382B0C"/>
<stop offset="0.348" stop-color="#594922" stop-opacity="0.818"/>
<stop offset="0.644" stop-color="#B09B5E" stop-opacity="0.329"/>
<stop offset="0.812" stop-color="#EBD286" stop-opacity="0"/>
</linearGradient>
<linearGradient id="paint12_linear_2230_13638" x1="42.1334" y1="18.919" x2="46.7867" y2="23.5722" gradientUnits="userSpaceOnUse">
<stop offset="0.008" stop-color="#C4AB5E"/>
<stop offset="0.188" stop-color="#EBD286"/>
<stop offset="0.794" stop-color="#4F3318"/>
<stop offset="0.872" stop-color="#624C24"/>
<stop offset="0.943" stop-color="#6F5C2C"/>
<stop offset="1" stop-color="#73612F"/>
</linearGradient>
<linearGradient id="paint13_linear_2230_13638" x1="43.9246" y1="21.5472" x2="44.8063" y2="20.6655" gradientUnits="userSpaceOnUse">
<stop offset="0.174" stop-color="#382B0C"/>
<stop offset="0.348" stop-color="#594922" stop-opacity="0.818"/>
<stop offset="0.644" stop-color="#B09B5E" stop-opacity="0.329"/>
<stop offset="0.812" stop-color="#EBD286" stop-opacity="0"/>
</linearGradient>
<linearGradient id="paint14_linear_2230_13638" x1="41.3272" y1="19.7238" x2="45.9804" y2="24.377" gradientUnits="userSpaceOnUse">
<stop offset="0.008" stop-color="#C4AB5E"/>
<stop offset="0.188" stop-color="#EBD286"/>
<stop offset="0.794" stop-color="#4F3318"/>
<stop offset="0.872" stop-color="#624C24"/>
<stop offset="0.943" stop-color="#6F5C2C"/>
<stop offset="1" stop-color="#73612F"/>
</linearGradient>
<linearGradient id="paint15_linear_2230_13638" x1="43.118" y1="22.3524" x2="44.0001" y2="21.4703" gradientUnits="userSpaceOnUse">
<stop offset="0.174" stop-color="#382B0C"/>
<stop offset="0.348" stop-color="#594922" stop-opacity="0.818"/>
<stop offset="0.644" stop-color="#B09B5E" stop-opacity="0.329"/>
<stop offset="0.812" stop-color="#EBD286" stop-opacity="0"/>
</linearGradient>
</defs>
</svg>
