<svg width="100" height="100" viewBox="0 0 100 100" fill="none" xmlns="http://www.w3.org/2000/svg">
<g id="online-lenders 1">
<g id="Page-1">
<g id="loan_matching">
<g id="if_1-21_2137606">
<g id="Group">
<path id="Shape" d="M87.7871 51.8031C87.4186 48.5125 85.8218 45.5875 83.2424 43.5156C80.6629 41.4437 77.2237 40.5906 74.0301 41.0781C70.7136 41.5656 67.8885 43.3937 66.0461 46.075C65.5547 46.8062 65.1862 47.6594 64.8178 48.5125C64.6949 48.7562 64.5721 49.1219 64.4493 49.3656H64.3264L63.0981 35.4719L43.8137 34.1312C43.8137 33.7656 43.6908 33.2781 43.6908 32.9125C43.9365 32.6687 44.1822 32.5469 44.4278 32.3031C45.1648 31.8156 45.9018 31.3281 46.5159 30.5969C48.7269 28.1594 49.8324 25.1125 49.5867 21.8219C49.3411 18.5312 47.7443 15.4844 45.1648 13.4125C42.5854 11.3406 39.3917 10.3656 36.0753 10.8531C32.7589 11.2187 29.8109 13.0469 27.8456 15.7281C25.6347 18.775 24.8977 22.5531 26.0032 26.2094C27.1087 29.7437 29.6881 32.5469 33.2502 33.8875C33.2502 34.0094 33.2502 34.1312 33.2502 34.375C32.636 34.375 32.0219 34.4969 31.4077 34.4969C28.0913 34.7406 24.5292 35.2281 20.9671 36.325C20.4758 36.4469 20.1073 36.5687 19.616 36.8125C15.8082 38.275 13.5972 40.9562 12.7374 44.8562C11.7548 49.8531 12.1233 54.85 12.7374 60.3344L12.8603 61.7969L15.6854 61.4312C16.5452 61.3094 17.5278 61.1875 18.3877 61.1875C19.4931 61.1875 20.353 60.5781 20.7214 59.4812C21.4584 57.2875 22.8096 55.7031 24.8977 54.6062C27.1087 53.3875 29.6881 53.1437 32.0219 53.9969C34.3557 54.7281 36.321 56.4344 37.3036 58.75C37.5493 59.1156 37.6721 59.6031 37.7949 60.0906C39.1461 64.6 36.8123 69.2312 32.3904 70.9375C31.1621 71.425 29.9338 71.5469 28.5826 71.5469C25.5119 71.3031 22.8096 69.5969 21.2128 67.0375C20.8443 66.4281 19.9845 65.6969 19.0018 65.6969C18.142 65.6969 17.2822 65.8187 16.2995 65.9406L13.4744 66.1844L18.6333 87.6344L67.0287 83.6125L66.9059 82.15C66.7831 81.0531 66.5374 78.1281 66.2917 74.7156C65.8004 68.0125 65.3091 62.5281 65.0634 59.9687C65.3091 59.9687 65.4319 59.9687 65.5547 59.8469C67.6429 62.8937 70.9593 64.8437 74.7671 65.2094C78.5748 65.4531 82.1369 63.9906 84.7164 61.1875C87.0501 58.2625 88.1556 55.0937 87.7871 51.8031ZM82.5054 58.75C80.6629 60.8219 77.9607 62.0406 75.1356 61.7969C72.3104 61.5531 69.731 60.0906 68.257 57.775C68.0114 57.4094 67.2744 56.4344 66.1689 56.5562C65.4319 56.5562 64.8178 56.6781 64.0808 56.8C63.8351 56.8 63.5894 56.9219 63.3438 56.9219L61.747 57.1656L61.9926 58.6281C62.1155 59.3594 62.8525 68.6219 63.3438 74.7156C63.5894 77.0312 63.7123 79.225 63.8351 80.6875L21.2128 84.1L17.405 68.6219C17.8963 68.6219 18.2648 68.5 18.7561 68.5C20.8443 71.9125 24.4064 74.1062 28.4598 74.35C30.1794 74.4719 31.8991 74.2281 33.6187 73.6187C39.5146 71.3031 42.5854 65.0875 40.8657 59.1156C40.7429 58.5062 40.4972 57.8969 40.2516 57.4094C38.9004 54.3625 36.321 52.1687 33.1274 51.0719C29.9338 49.975 26.4945 50.3406 23.5466 51.925C20.9671 53.3875 19.1246 55.4594 18.0192 58.2625C17.2822 58.2625 16.668 58.3844 15.931 58.3844C15.3169 53.7531 15.0712 49.4875 15.931 45.3437C16.5452 42.4187 18.0192 40.7125 20.8443 39.6156C21.2128 39.4937 21.7041 39.3719 22.0726 39.25C25.389 38.1531 28.7055 37.7875 31.8991 37.5437C32.636 37.4219 33.373 37.4219 34.11 37.4219L36.6895 37.3L36.5666 34.8625C36.5666 34.2531 36.4438 33.5219 36.321 32.7906C36.0753 31.6937 34.9698 31.2062 34.6013 31.0844C31.8991 30.1094 29.9338 28.0375 29.0739 25.2344C28.2141 22.5531 28.7055 19.75 30.4251 17.4344C31.8991 15.3625 34.11 14.1437 36.5666 13.7781C39.0233 13.4125 41.4799 14.1437 43.3223 15.7281C45.1648 17.3125 46.3931 19.6281 46.5159 22.0656C46.6388 24.5031 45.9018 26.8187 44.1822 28.525C43.6908 29.0125 43.1995 29.3781 42.5854 29.8656C42.2169 30.1094 41.8484 30.3531 41.4799 30.7187C41.2342 30.9625 40.4972 31.5719 40.4972 32.5469C40.4972 33.4 40.6201 34.1312 40.6201 34.9844L40.7429 37.0562L60.0273 38.3969L61.2557 52.9L62.8525 52.6562C63.5894 52.5344 64.4493 52.4125 65.1862 52.2906C66.1689 52.1687 66.6602 51.1937 66.7831 50.95C67.0287 50.5844 67.1515 50.0969 67.3972 49.7312C67.6429 49 68.0114 48.3906 68.3799 47.9031C69.731 45.9531 71.8191 44.6125 74.2757 44.2469C76.7324 43.8812 79.189 44.4906 81.1543 46.075C83.1196 47.5375 84.3479 49.7312 84.5935 52.1687C84.962 54.4844 84.225 56.9219 82.5054 58.75Z" fill="#0F63FB"/>
</g>
</g>
</g>
</g>
</g>
</svg>
