<svg width="29" height="32" viewBox="0 0 29 32" fill="none" xmlns="http://www.w3.org/2000/svg">
<path d="M4.26254 0.407815C3.43816 -0.0884404 2.45565 -0.132816 1.59877 0.280313L15.9658 14.678L20.6633 9.95853L4.26254 0.407815ZM0.278753 1.61283C0.0975009 1.99658 0 2.42346 0 2.86284V29.1993C0 29.6406 0.098126 30.0612 0.281253 30.4369L14.6426 16.0073L0.278753 1.61283ZM15.9677 17.3349L1.62383 31.7469C2.00446 31.9231 2.40946 32 2.81384 32C3.31322 32 3.81135 31.8806 4.2626 31.6094L20.6665 22.0443L15.9677 17.3349ZM26.9097 13.5961C26.9041 13.5923 26.8978 13.5886 26.8922 13.5854L22.3384 10.9335L17.2902 16.0055L22.3415 21.0674C22.3415 21.0674 26.9041 18.4074 26.9097 18.4042C27.7566 17.8899 28.2622 16.9911 28.2622 15.9998C28.2622 15.0086 27.7566 14.1098 26.9097 13.5961Z" fill="white"/>
</svg>
