<svg width="21" height="20" viewBox="0 0 21 20" fill="none" xmlns="http://www.w3.org/2000/svg">
<g id="fluent:mail-48-regular">
<path id="Vector" d="M16.2298 3.75C17.4382 3.75 18.4173 4.72917 18.4173 5.9375V14.0625C18.4173 15.2708 17.4382 16.25 16.2298 16.25H4.77148C4.19132 16.25 3.63492 16.0195 3.22469 15.6093C2.81445 15.1991 2.58398 14.6427 2.58398 14.0625V5.9375C2.58398 4.72917 3.56315 3.75 4.77148 3.75H16.2298ZM17.3757 7.64625L10.7515 11.2896C10.6833 11.3271 10.6076 11.3488 10.53 11.3532C10.4523 11.3576 10.3747 11.3445 10.3027 11.315L10.2498 11.29L3.62565 7.64583V14.0625C3.62565 14.3664 3.74637 14.6578 3.96126 14.8727C4.17614 15.0876 4.46759 15.2083 4.77148 15.2083H16.2298C16.5337 15.2083 16.8252 15.0876 17.04 14.8727C17.2549 14.6578 17.3757 14.3664 17.3757 14.0625V7.64625ZM16.2298 4.79167H4.77148C4.46759 4.79167 4.17614 4.91239 3.96126 5.12727C3.74637 5.34216 3.62565 5.63361 3.62565 5.9375V6.45792L10.5007 10.2387L17.3757 6.4575V5.9375C17.3757 5.63361 17.2549 5.34216 17.04 5.12727C16.8252 4.91239 16.5337 4.79167 16.2298 4.79167Z" fill="#0F63FB"/>
</g>
</svg>
