<svg width="16" height="16" viewBox="0 0 16 16" fill="none" xmlns="http://www.w3.org/2000/svg">
<path d="M14.0669 5.9168L8.46693 11.5335C8.40026 11.6001 8.32804 11.6472 8.25026 11.6748C8.17248 11.7028 8.08915 11.7168 8.00026 11.7168C7.91137 11.7168 7.82804 11.7028 7.75026 11.6748C7.67248 11.6472 7.60026 11.6001 7.53359 11.5335L1.91693 5.9168C1.76137 5.76124 1.68359 5.5668 1.68359 5.33346C1.68359 5.10013 1.76693 4.90013 1.93359 4.73346C2.10026 4.5668 2.2947 4.48346 2.51693 4.48346C2.73915 4.48346 2.93359 4.5668 3.10026 4.73346L8.00026 9.63346L12.9003 4.73346C13.0558 4.57791 13.2474 4.50013 13.4749 4.50013C13.7029 4.50013 13.9003 4.58346 14.0669 4.75013C14.2336 4.9168 14.3169 5.11124 14.3169 5.33346C14.3169 5.55569 14.2336 5.75013 14.0669 5.9168Z" fill="#393A66"/>
</svg>
