<svg width="34" height="31" viewBox="0 0 34 31" fill="none" xmlns="http://www.w3.org/2000/svg">
<path d="M8.53973 26.0989L8.54423 26.1004L6.90213 28.9445C6.30274 29.9827 4.97525 30.3384 3.93705 29.739C2.89904 29.1396 2.54316 27.8121 3.14255 26.7739L4.35222 24.6788L4.46835 24.4777C4.67565 24.1797 5.18724 23.6653 6.21062 23.7621C6.21062 23.7621 8.61889 24.0235 8.79318 25.2752C8.79318 25.2752 8.81682 25.687 8.53973 26.0989ZM31.8294 18.8349H26.709C26.3602 18.8115 26.2081 18.6869 26.148 18.6145L26.1443 18.6079L20.6631 9.11404L20.6559 9.11873L20.3272 8.64747C19.7884 7.82351 18.933 9.93068 18.933 9.93068C17.9115 12.2787 19.078 14.9481 19.4845 15.755L27.0979 28.9417C27.6971 29.9797 29.0246 30.3356 30.0629 29.736C31.101 29.1366 31.4568 27.8091 30.8573 26.7709L28.9536 23.4736C28.9167 23.3937 28.8525 23.1768 29.2429 23.1759H31.8294C33.0282 23.1759 34 22.2041 34 21.0053C34 19.8065 33.0282 18.8349 31.8294 18.8349ZM21.8838 21.7855C21.8838 21.7855 22.1571 23.1759 21.0996 23.1759H2.17058C0.971788 23.1759 0 22.2041 0 21.0053C0 19.8065 0.971788 18.8347 2.17058 18.8347H7.03702C7.8227 18.7893 8.00881 18.3357 8.00881 18.3357L8.01331 18.338L14.3656 7.33536L14.3637 7.33499C14.4794 7.12243 14.383 6.92151 14.3663 6.88981L12.2684 3.25611C11.669 2.2181 12.0247 0.890424 13.0629 0.291217C14.1011 -0.308177 15.4285 0.0473323 16.0279 1.08553L17.0008 2.77078L17.9721 1.08853C18.5715 0.0505213 19.8989 -0.305363 20.9371 0.294219C21.9753 0.893613 22.331 2.22091 21.7316 3.25911L12.8921 18.5695C12.8535 18.6627 12.8417 18.809 13.1293 18.8347H18.4129L18.4141 18.8863C18.4141 18.8863 21.4679 18.9338 21.8838 21.7855Z" fill="white"/>
</svg>
