<svg width="9" height="13" viewBox="0 0 9 13" fill="none" xmlns="http://www.w3.org/2000/svg">
<path d="M0.242154 7.76732C0.403589 7.60038 0.598656 7.52025 0.827356 7.52693C1.05606 7.53361 1.25112 7.62069 1.41256 7.78818L3.69283 10.1461L3.69283 0.839556C3.69283 0.603066 3.77031 0.404693 3.92529 0.244436C4.08027 0.0841795 4.27184 0.00432925 4.5 0.0048857C4.7287 0.0048857 4.92054 0.0850141 5.07552 0.245271C5.23049 0.405527 5.30771 0.603622 5.30718 0.839556L5.30718 10.1461L7.60762 7.76732C7.76906 7.60038 7.9609 7.51691 8.18314 7.51691C8.40538 7.51691 8.59695 7.60038 8.75785 7.76732C8.91928 7.93425 9 8.13262 9 8.36243C9 8.59225 8.91928 8.79034 8.75785 8.95672L5.06502 12.7753C4.98431 12.8588 4.89686 12.9181 4.80269 12.9531C4.70852 12.9882 4.60762 13.0054 4.5 13.0049C4.39238 13.0049 4.29148 12.9873 4.19731 12.9523C4.10314 12.9172 4.0157 12.8582 3.93498 12.7753L0.221975 8.93585C0.0739926 8.78283 3.69616e-07 8.59169 3.69616e-07 8.36243C3.69616e-07 8.13318 0.0807188 7.93481 0.242154 7.76732Z" fill="#29A261"/>
</svg>
