<svg width="73" height="69" viewBox="0 0 73 69" fill="none" xmlns="http://www.w3.org/2000/svg">
<path d="M62.545 52.2268C62.7676 51.8394 62.956 51.4334 63.1079 51.0134L69.0998 34.5515L72.1019 26.3331C72.7824 24.462 72.6915 22.3972 71.8493 20.5931C71.0071 18.789 69.4825 17.3935 67.6112 16.7137L22.9415 0.451944C21.0704 -0.228513 19.0056 -0.137631 17.2015 0.704589C15.3974 1.54681 14.0019 3.07134 13.3221 4.94268L10.3324 13.1611L5.07861 27.584L62.545 52.2268Z" fill="#CCD1D9"/>
<path d="M62.0325 31.9746L69.1001 34.5515L72.1023 26.333L13.3224 4.94263L10.3328 13.1611L48.8605 27.1837L62.0325 31.9746Z" fill="url(#paint0_linear)"/>
<path d="M55.0399 27.1836H7.50565C3.36053 27.1836 0.000244141 30.5439 0.000244141 34.689V60.9579C0.000244141 65.1031 3.36053 68.4634 7.50565 68.4634H55.0399C59.185 68.4634 62.5453 65.1031 62.5453 60.9579V34.689C62.5453 30.5439 59.185 27.1836 55.0399 27.1836Z" fill="url(#paint1_linear)"/>
<path d="M18.764 35.94V38.4419H11.2585V33.4382H16.2622C17.6421 33.4424 18.7598 34.56 18.764 35.94Z" fill="white"/>
<path d="M11.2582 33.4382V38.4419H6.25464V35.94C6.25876 34.56 7.37644 33.4424 8.75644 33.4382H11.2582Z" fill="white"/>
<path d="M11.2582 38.4419V43.4455H8.75644C7.37644 43.4414 6.25876 42.3237 6.25464 40.9437V38.4419H11.2582Z" fill="white"/>
<path d="M18.764 38.4419V40.9437C18.7598 42.3237 17.6421 43.4414 16.2622 43.4455H11.2585V38.4419H18.764Z" fill="white"/>
<path d="M16.2619 54.7036H8.75652C8.06566 54.7036 7.50562 54.1435 7.50562 53.4527C7.50562 52.7618 8.06566 52.2018 8.75652 52.2018H16.2619C16.9528 52.2018 17.5128 52.7618 17.5128 53.4527C17.5128 54.1435 16.9528 54.7036 16.2619 54.7036Z" fill="#ECF0F1"/>
<path d="M28.7712 54.7036H21.2658C20.5749 54.7036 20.0149 54.1435 20.0149 53.4527C20.0149 52.7618 20.5749 52.2018 21.2658 52.2018H28.7712C29.4621 52.2018 30.0221 52.7618 30.0221 53.4527C30.0221 54.1435 29.4621 54.7036 28.7712 54.7036Z" fill="#ECF0F1"/>
<path d="M41.28 54.7036H33.7746C33.0837 54.7036 32.5237 54.1435 32.5237 53.4527C32.5237 52.7618 33.0837 52.2018 33.7746 52.2018H41.28C41.9708 52.2018 42.5309 52.7618 42.5309 53.4527C42.5309 54.1435 41.9708 54.7036 41.28 54.7036Z" fill="#ECF0F1"/>
<path d="M53.789 54.7036H46.2836C45.5928 54.7036 45.0327 54.1435 45.0327 53.4527C45.0327 52.7618 45.5928 52.2018 46.2836 52.2018H53.789C54.4799 52.2018 55.0399 52.7618 55.0399 53.4527C55.0399 54.1435 54.4799 54.7036 53.789 54.7036Z" fill="#ECF0F1"/>
<path d="M11.2583 62.2091H8.75652C8.06566 62.2091 7.50562 61.649 7.50562 60.9582C7.50562 60.2673 8.06566 59.7073 8.75652 59.7073H11.2583C11.9492 59.7073 12.5092 60.2673 12.5092 60.9582C12.5092 61.649 11.9492 62.2091 11.2583 62.2091Z" fill="#ECF0F1"/>
<path d="M20.0144 62.2091H17.5126C16.8218 62.2091 16.2617 61.649 16.2617 60.9582C16.2617 60.2673 16.8218 59.7073 17.5126 59.7073H20.0144C20.7053 59.7073 21.2653 60.2673 21.2653 60.9582C21.2653 61.649 20.7053 62.2091 20.0144 62.2091Z" fill="#ECF0F1"/>
<path d="M52.5381 42.1946C54.6107 42.1946 56.2908 40.5145 56.2908 38.4419C56.2908 36.3694 54.6107 34.6892 52.5381 34.6892C50.4655 34.6892 48.7854 36.3694 48.7854 38.4419C48.7854 40.5145 50.4655 42.1946 52.5381 42.1946Z" fill="white"/>
<path d="M45.033 42.1946C47.1055 42.1946 48.7857 40.5145 48.7857 38.4419C48.7857 36.3694 47.1055 34.6892 45.033 34.6892C42.9604 34.6892 41.2803 36.3694 41.2803 38.4419C41.2803 40.5145 42.9604 42.1946 45.033 42.1946Z" fill="#ECF0F1"/>
<defs>
<linearGradient id="paint0_linear" x1="18.745" y1="12.4636" x2="15.3577" y2="33.9412" gradientUnits="userSpaceOnUse">
<stop stop-color="#3B8DF2"/>
<stop offset="1" stop-color="#3B43F2"/>
</linearGradient>
<linearGradient id="paint1_linear" x1="8.51812" y1="37.6691" x2="2.15421" y2="66.9754" gradientUnits="userSpaceOnUse">
<stop stop-color="#3B8DF2"/>
<stop offset="1" stop-color="#3B43F2"/>
</linearGradient>
</defs>
</svg>
