<svg width="50" height="50" viewBox="0 0 50 50" fill="none" xmlns="http://www.w3.org/2000/svg">
<path d="M33.3939 31.7735C32.2092 31.7735 31.2455 30.9393 31.2455 29.914C31.2455 28.8886 32.2092 28.0545 33.3939 28.0545C34.5786 28.0545 35.5423 28.8886 35.5423 29.914C35.5423 30.4533 35.9797 30.8906 36.5189 30.8906C37.0582 30.8906 37.4955 30.4533 37.4955 29.914C37.4955 28.1245 36.1621 26.6198 34.3705 26.2114V25.7035C34.3705 25.1642 33.9332 24.7269 33.3939 24.7269C32.8547 24.7269 32.4174 25.1642 32.4174 25.7035V26.2114C30.6258 26.6198 29.2924 28.1245 29.2924 29.914C29.2924 32.0163 31.1323 33.7266 33.3939 33.7266C34.5786 33.7266 35.5423 34.5608 35.5423 35.5862C35.5423 36.6116 34.5786 37.4458 33.3939 37.4458C32.2092 37.4458 31.2455 36.6116 31.2455 35.5862C31.2455 35.0469 30.8082 34.6096 30.2689 34.6096C29.7297 34.6096 29.2924 35.0469 29.2924 35.5862C29.2924 37.3757 30.6258 38.8804 32.4174 39.2888V39.7107C32.4174 40.2499 32.8547 40.6873 33.3939 40.6873C33.9332 40.6873 34.3705 40.2499 34.3705 39.7107V39.2888C36.1621 38.8804 37.4955 37.3757 37.4955 35.5862C37.4955 33.4838 35.6555 31.7735 33.3939 31.7735Z" fill="#FFAC75"/>
<path d="M44.0897 25.9643C42.8141 23.9766 41.0168 22.3859 38.8923 21.3646C38.4061 21.1309 37.8226 21.3355 37.589 21.8217C37.3553 22.3078 37.5599 22.8912 38.046 23.1249C41.7482 24.9046 44.1403 28.7072 44.1403 32.8125C44.1403 34.5691 43.7073 36.3112 42.8883 37.8507C42.635 38.3267 42.8155 38.9181 43.2917 39.1715C43.4378 39.2492 43.5948 39.2861 43.7495 39.2861C44.0989 39.2861 44.4369 39.098 44.6125 38.768C45.5813 36.9473 46.0934 34.8879 46.0934 32.8125C46.0934 30.375 45.4006 28.0069 44.0897 25.9643Z" fill="#FFAC75"/>
<path d="M34.9295 20.1175L34.8638 20.1174C34.3245 20.1174 33.8872 20.5546 33.8872 21.094C33.8872 21.6333 34.3245 22.0706 34.8638 22.0706L34.9203 22.0707C34.9219 22.0707 34.9233 22.0707 34.925 22.0707C35.4622 22.0707 35.8989 21.6365 35.9015 21.0987C35.9039 20.5593 35.4688 20.1201 34.9295 20.1175Z" fill="#FFAC75"/>
<path d="M28.7515 42.5002C25.0493 40.7204 22.6572 36.9178 22.6572 32.8126C22.6572 31.056 23.0902 29.3139 23.9093 27.7744C24.1626 27.2983 23.982 26.7069 23.5059 26.4536C23.0299 26.2003 22.4383 26.3809 22.1851 26.857C21.2162 28.6778 20.7041 30.7372 20.7041 32.8126C20.7041 35.2501 21.397 37.618 22.7078 39.6607C23.9835 41.6485 25.7808 43.2391 27.9053 44.2605C28.0417 44.3261 28.1858 44.3571 28.3277 44.3571C28.6914 44.3571 29.0404 44.1531 29.2086 43.8035C29.4421 43.3174 29.2376 42.7339 28.7515 42.5002Z" fill="#FFAC75"/>
<path d="M31.9358 43.5544L31.8793 43.5542C31.3375 43.5532 30.9008 43.9867 30.8983 44.5262C30.8958 45.0655 31.3311 45.5048 31.8704 45.5073L31.9358 45.5075C32.4751 45.5075 32.9124 45.0702 32.9124 44.531C32.9124 43.9917 32.4751 43.5544 31.9358 43.5544Z" fill="#FFAC75"/>
<path d="M37.8331 16.8132C37.7142 16.53 37.5686 16.2632 37.3992 16.0156H39.9416C42.4185 16.0156 44.4338 14.0004 44.4338 11.5234C44.4338 9.04647 42.4185 7.03124 39.9416 7.03124H32.1213C32.6184 6.30839 32.9103 5.43388 32.9103 4.49218C32.9103 2.01523 30.8951 0 28.4182 0H4.49242C2.01547 0 0.000244141 2.01523 0.000244141 4.49218C0.000244141 6.96913 2.01547 8.98436 4.49242 8.98436H12.3127C11.8156 9.70721 11.5237 10.5817 11.5237 11.5234C11.5237 12.4651 11.8155 13.3396 12.3127 14.0625H9.76585C7.2889 14.0625 5.27367 16.0777 5.27367 18.5547C5.27367 19.9772 5.9391 21.2466 6.97435 22.0703C5.9391 22.8939 5.27367 24.1633 5.27367 25.5859C5.27367 27.0084 5.9391 28.2779 6.97435 29.1015C5.9391 29.9251 5.27367 31.1946 5.27367 32.6171C5.27367 34.0397 5.9391 35.3091 6.97435 36.1327C5.9391 36.9564 5.27367 38.2258 5.27367 39.6484C5.27367 42.1253 7.2889 44.1405 9.76585 44.1405H21.2746C24.3064 47.3834 28.6195 49.4141 33.3987 49.4141C42.5528 49.4141 50.0002 41.9666 50.0002 32.8125C50.0002 25.1937 44.8411 18.7581 37.8331 16.8132ZM39.9416 8.98436C41.3417 8.98436 42.4806 10.1234 42.4806 11.5234C42.4806 12.9234 41.3417 14.0625 39.9416 14.0625H33.6916H16.0158C14.6157 14.0625 13.4768 12.9234 13.4768 11.5234C13.4768 10.1234 14.6157 8.98436 16.0158 8.98436H39.9416ZM4.49242 7.03124C3.09233 7.03124 1.95337 5.89218 1.95337 4.49218C1.95337 3.09218 3.09233 1.95312 4.49242 1.95312H28.4182C29.8183 1.95312 30.9572 3.09218 30.9572 4.49218C30.9572 5.89218 29.8183 7.03124 28.4182 7.03124H4.49242ZM9.76585 16.0156H33.6916C34.0849 16.0156 34.4616 16.107 34.7995 16.2707C34.3376 16.2319 33.8706 16.211 33.3987 16.211C28.8143 16.211 24.658 18.0791 21.6508 21.0937H9.76585C8.36585 21.0937 7.22679 19.9546 7.22679 18.5547C7.22679 17.1547 8.36585 16.0156 9.76585 16.0156ZM9.76585 23.0468H19.9821C18.8735 24.5657 18.0164 26.2788 17.4721 28.1249H9.76585C8.36576 28.1249 7.22679 26.986 7.22679 25.5859C7.22679 24.1859 8.36576 23.0468 9.76585 23.0468ZM9.76585 30.0781H17.0236C16.8755 30.968 16.7972 31.8812 16.7972 32.8125C16.7972 33.608 16.8547 34.3903 16.9634 35.1562H9.76585C8.36576 35.1562 7.22679 34.0172 7.22679 32.6171C7.22679 31.217 8.36576 30.0781 9.76585 30.0781ZM9.76585 42.1874C8.36576 42.1874 7.22679 41.0485 7.22679 39.6484C7.22679 38.2483 8.36576 37.1093 9.76585 37.1093H17.3621C17.8549 38.9465 18.6554 40.6587 19.7052 42.1874H9.76585ZM33.3987 47.4609C25.3216 47.4609 18.7503 40.8897 18.7503 32.8125C18.7503 24.7354 25.3216 18.1641 33.3987 18.1641C41.4758 18.1641 48.0471 24.7354 48.0471 32.8125C48.0471 40.8897 41.4758 47.4609 33.3987 47.4609Z" fill="#FFAC75"/>
</svg>
