<svg width="41" height="51" viewBox="0 0 41 51" fill="none" xmlns="http://www.w3.org/2000/svg">
<path d="M11.7807 39.4549C11.7784 39.4525 11.7707 39.4448 11.767 39.4409C11.3902 39.0549 10.7739 39.0476 10.3885 39.4258C10.0021 39.8046 9.9941 40.427 10.3706 40.8158C10.3735 40.8188 10.3785 40.8239 10.3815 40.8269C10.5729 41.0246 10.8269 41.1239 11.0811 41.1239C11.3268 41.1239 11.5727 41.0312 11.7627 40.8449C12.1492 40.4659 12.1572 39.8436 11.7807 39.4549Z" fill="#FFAC75"/>
<path d="M20.6903 15.8124C16.7996 15.8124 13.1417 17.3371 10.3904 20.1057C8.2855 22.224 6.89204 24.8959 6.3606 27.8327C5.84165 30.7005 6.17271 33.6258 7.31792 36.292C7.4773 36.6631 7.83706 36.8851 8.21499 36.8851C8.34429 36.8851 8.47583 36.8591 8.6021 36.8042C9.09722 36.5889 9.32505 36.0103 9.11109 35.5121C7.04527 30.7028 8.0897 25.2012 11.7717 21.4958C14.154 19.0984 17.3212 17.7783 20.6903 17.7783C21.2296 17.7783 21.667 17.3381 21.667 16.7953C21.667 16.2525 21.2296 15.8124 20.6903 15.8124Z" fill="#FFAC75"/>
<path d="M30.9985 20.1147C30.6221 19.726 30.0038 19.7178 29.6173 20.0966C29.2309 20.4755 29.2229 21.0979 29.5993 21.4866L29.6192 21.5069C29.8097 21.6985 30.059 21.7943 30.3084 21.7943C30.5584 21.7943 30.8086 21.6981 30.9995 21.5058C31.3811 21.1219 31.3801 20.4986 30.9985 20.1147Z" fill="#FFAC75"/>
<path d="M34.275 25.1734C34.0804 24.667 33.5148 24.4157 33.0116 24.6113C32.5086 24.8071 32.2585 25.3763 32.4532 25.8827C34.2549 30.5695 33.1383 35.8933 29.6082 39.4457C27.2307 41.8383 24.0697 43.1585 20.7074 43.1633C20.168 43.164 19.7313 43.6047 19.7321 44.1476C19.7328 44.69 20.1699 45.1291 20.7088 45.1291H20.7102C24.5932 45.1236 28.2439 43.599 30.9897 40.8358C35.0662 36.7333 36.3558 30.5854 34.275 25.1734Z" fill="#FFAC75"/>
<path d="M25.0906 22.519C24.6196 22.2545 24.0246 22.4245 23.7618 22.8986L15.899 37.0856C15.6363 37.5597 15.8052 38.1583 16.2762 38.4228C16.4268 38.5073 16.5902 38.5475 16.7511 38.5475C17.0938 38.5475 17.4262 38.3657 17.6051 38.0432L25.4678 23.8562C25.7306 23.382 25.5617 22.7833 25.0906 22.519Z" fill="#FFAC75"/>
<path d="M25.3965 31.863C23.5653 31.863 22.0756 33.3622 22.0756 35.205C22.0756 37.0477 23.5653 38.5469 25.3965 38.5469C27.2276 38.5469 28.7174 37.0477 28.7174 35.205C28.7174 33.3622 27.2277 31.863 25.3965 31.863ZM25.3965 36.5811C24.6425 36.5811 24.029 35.9638 24.029 35.205C24.029 34.4461 24.6424 33.8288 25.3965 33.8288C26.1506 33.8288 26.7639 34.4461 26.7639 35.205C26.7639 35.9638 26.1506 36.5811 25.3965 36.5811Z" fill="#FFAC75"/>
<path d="M15.9835 22.3943C14.1522 22.3943 12.6626 23.8935 12.6626 25.7362C12.6626 27.5789 14.1523 29.0781 15.9835 29.0781C17.8146 29.0781 19.3044 27.5789 19.3044 25.7362C19.3044 23.8935 17.8147 22.3943 15.9835 22.3943ZM15.9835 27.1123C15.2295 27.1123 14.616 26.4951 14.616 25.7362C14.616 24.9773 15.2294 24.3601 15.9835 24.3601C16.7376 24.3601 17.351 24.9773 17.351 25.7362C17.351 26.4951 16.7376 27.1123 15.9835 27.1123Z" fill="#FFAC75"/>
<path d="M36.906 19.1572L39.1436 16.9053C40.108 15.9348 40.1079 14.3558 39.1436 13.3853L36.84 11.0671C36.3728 10.5969 35.7516 10.3381 35.0911 10.3381C34.4305 10.3381 33.8093 10.597 33.3422 11.0671L30.9278 13.4967C28.8909 12.2527 26.6774 11.4122 24.4014 10.9769V7.27368H26.5504C28.1661 7.27368 29.4806 5.95081 29.4806 4.32486V2.94882C29.4805 1.32287 28.166 0 26.5503 0H14.8294C13.2136 0 11.8991 1.32287 11.8991 2.94882V4.32495C11.8991 5.9509 13.2136 7.27377 14.8294 7.27377H16.9781V10.9771C13.224 11.6952 9.63845 13.5128 6.73865 16.4311C-0.954223 24.1726 -0.954223 36.7689 6.73865 44.5105C10.585 48.3811 15.6376 50.3165 20.69 50.3165C25.7425 50.3165 30.795 48.3811 34.6414 44.5104C41.4856 37.6229 42.2403 26.8926 36.906 19.1572ZM34.7234 12.4573C34.8216 12.3584 34.9521 12.3039 35.0911 12.3039C35.23 12.3039 35.3606 12.3584 35.4588 12.4573L37.7624 14.7754C37.965 14.9794 37.965 15.3113 37.7624 15.5153L35.7032 17.5875C35.3672 17.1914 35.0135 16.8054 34.6415 16.431C33.9855 15.7709 33.2936 15.1684 32.5735 14.6209L34.7234 12.4573ZM14.8294 5.3078C14.2908 5.3078 13.8526 4.86684 13.8526 4.32486V2.94882C13.8526 2.40684 14.2908 1.96588 14.8294 1.96588H26.5503C27.0888 1.96588 27.527 2.40684 27.527 2.94882V4.32495C27.527 4.86694 27.0888 5.30789 26.5503 5.30789H14.8294V5.3078ZM22.4479 7.27368V10.7043C21.2783 10.6 20.1013 10.6 18.9316 10.7043V7.27368H22.4479ZM33.26 43.1202C26.329 50.0953 15.051 50.0953 8.1199 43.1202C1.18875 36.1452 1.18875 24.796 8.1199 17.821C11.5854 14.3334 16.1377 12.5896 20.6899 12.5896C25.2422 12.5896 29.7944 14.3333 33.2599 17.821C40.1912 24.7962 40.1912 36.1452 33.26 43.1202Z" fill="#FFAC75"/>
</svg>
