<svg width="150" height="45" viewBox="0 0 150 45" fill="none" xmlns="http://www.w3.org/2000/svg">
<path opacity="0.8" d="M143.548 44.1956H6.45164C3.43552 44.1956 0.967773 41.7206 0.967773 38.6956V5.69556C0.967773 2.67056 3.43552 0.195559 6.45164 0.195559H143.548C146.565 0.195559 149.032 2.67056 149.032 5.69556V38.6956C149.032 41.7206 146.565 44.1956 143.548 44.1956Z" fill="#3C68F3"/>
<path d="M52.975 11.4633C52.975 12.3849 52.7029 13.1188 52.1579 13.6663C51.5389 14.3172 50.7321 14.6429 49.7403 14.6429C48.7905 14.6429 47.9829 14.3129 47.3188 13.6521C46.6535 12.9916 46.3215 12.1727 46.3215 11.1955C46.3215 10.218 46.6535 9.39947 47.3188 8.73859C47.9829 8.07815 48.7905 7.74771 49.7403 7.74771C50.2116 7.74771 50.6628 7.84011 51.0912 8.02447C51.5196 8.20927 51.8632 8.45457 52.1203 8.7618L51.5418 9.34227C51.1062 8.82021 50.5064 8.5594 49.7403 8.5594C49.0476 8.5594 48.4486 8.80349 47.9431 9.292C47.4375 9.78106 47.1848 10.4152 47.1848 11.1955C47.1848 11.9759 47.4375 12.61 47.9431 13.0991C48.4486 13.5876 49.0476 13.8317 49.7403 13.8317C50.4751 13.8317 51.0878 13.5863 51.5783 13.0948C51.8966 12.7746 52.0808 12.3295 52.13 11.758H49.7403V10.9652H52.9292C52.96 11.1376 52.975 11.303 52.975 11.4633Z" fill="white"/>
<path d="M52.9751 11.4633H52.8654C52.8645 12.3639 52.6023 13.0634 52.0804 13.5885L52.0792 13.5894L52.0788 13.5903C51.4794 14.2188 50.709 14.5316 49.7403 14.533C48.8159 14.5316 48.0421 14.2154 47.396 13.5743C46.7513 12.9319 46.4325 12.1477 46.4313 11.1956C46.4325 10.243 46.7513 9.45921 47.396 8.81725C48.0421 8.17573 48.8159 7.85904 49.7403 7.85772C50.1975 7.85772 50.6328 7.94714 51.0479 8.12546C51.4635 8.30509 51.7917 8.54048 52.0363 8.83275L52.1203 8.76181L52.0428 8.68404L51.4644 9.26495L51.5419 9.34228L51.6264 9.27188C51.1704 8.72397 50.5305 8.44776 49.7403 8.44941C49.022 8.44853 48.39 8.70592 47.8673 9.21303C47.3395 9.72178 47.0743 10.3916 47.0752 11.1956C47.0743 11.9995 47.3395 12.6693 47.8673 13.1781C48.39 13.6852 49.022 13.9426 49.7403 13.9417C50.4995 13.943 51.1465 13.6847 51.6559 13.1726C51.9961 12.8305 52.1889 12.3566 52.2395 11.7674L52.2497 11.648H49.85V11.0752H52.9292V10.9652L52.8212 10.9846C52.8512 11.1513 52.8654 11.3098 52.8654 11.4633H52.9751H53.0847C53.0847 11.2961 53.0693 11.1243 53.0371 10.9455L53.0209 10.8552H49.6307V11.758V11.868H52.1301V11.758L52.0209 11.7485C51.9725 12.302 51.7968 12.7188 51.5008 13.017C51.0295 13.488 50.4512 13.7204 49.7403 13.7217C49.0733 13.7208 48.5074 13.4905 48.0194 13.02C47.5362 12.5512 47.2957 11.9527 47.2945 11.1956C47.2957 10.4384 47.5362 9.83992 48.0194 9.3711C48.5074 8.90063 49.0733 8.67029 49.7403 8.66941C50.482 8.67117 51.042 8.91691 51.458 9.41323L51.5351 9.50519L52.1979 8.83958L52.269 8.76829L52.2042 8.6913C51.9348 8.36911 51.5758 8.11336 51.1345 7.9235C50.6923 7.73309 50.2258 7.63772 49.7403 7.63772C48.7653 7.63684 47.9239 7.98059 47.2413 8.66083C46.5563 9.33975 46.211 10.1931 46.2119 11.1956C46.211 12.1975 46.5563 13.0514 47.2418 13.7307C47.9239 14.4105 48.7653 14.7538 49.7403 14.753C50.7557 14.7538 51.5981 14.4156 52.2373 13.7423L52.158 13.6663L52.2355 13.744C52.8036 13.1747 53.0855 12.4056 53.0847 11.4633H52.9751Z" fill="white"/>
<path d="M58.0304 8.70635H55.0336V10.799H57.7361V11.5921H55.0336V13.6847H58.0304V14.4955H54.1887V7.89554H58.0304V8.70635Z" fill="white"/>
<path d="M58.0305 8.70637V8.59637H54.9239V10.909H57.6265V11.4818L54.9239 11.4821V13.7947H57.9208V14.3856H54.2985V8.00556H57.9208V8.70637H58.0305V8.59637V8.70637H58.1401V7.89556V7.78556H54.0791V14.6056H58.1401V13.6847V13.5747H55.1433V11.7021H57.8459V10.799V10.689H55.1433V8.81637H58.1401V8.70637H58.0305Z" fill="white"/>
<path d="M61.5963 14.4955H60.7501V8.70635H58.9121V7.89554H63.4342V8.70635H61.5963V14.4955Z" fill="white"/>
<path d="M61.5963 14.4956V14.3856H60.8598V8.59637H59.0218V8.00556H63.3246V8.59637H61.4866V14.4956H61.5963V14.3856V14.4956H61.706V8.81637H63.544V7.89556V7.78556H58.8025V8.70637V8.81637H60.6405V14.6056H61.5963H61.706V14.4956H61.5963Z" fill="white"/>
<path d="M66.7061 14.4955V7.89554H67.5513V14.4955H66.7061Z" fill="white"/>
<path d="M66.7061 14.4956H66.8158V8.00556H67.4417V14.3856H66.7061V14.4956H66.8158H66.7061V14.6056H67.5514H67.6611V7.78556H66.7061H66.5964V14.6056H66.7061V14.4956Z" fill="white"/>
<path d="M71.3022 14.4955H70.456V8.70635H68.6182V7.89554H73.1402V8.70635H71.3022V14.4955Z" fill="white"/>
<path d="M71.3022 14.4956V14.3856H70.5658V8.59637H68.7279V8.00556H73.0305V8.59637H71.1926V14.4956H71.3022V14.3856V14.4956H71.4119V8.81637H73.2499V7.89556V7.78556H68.5085V8.70637V8.81637H70.3464V14.6056H71.3022H71.4119V14.4956H71.3022Z" fill="white"/>
<path d="M77.5 13.0901C77.987 13.5846 78.583 13.8317 79.2878 13.8317C79.9926 13.8317 80.5889 13.5846 81.0752 13.0901C81.5627 12.5955 81.807 11.9633 81.807 11.1955C81.807 10.4277 81.5627 9.79558 81.0752 9.30102C80.5889 8.80646 79.9926 8.5594 79.2878 8.5594C78.583 8.5594 77.987 8.80646 77.5 9.30102C77.0137 9.79558 76.7695 10.4277 76.7695 11.1955C76.7695 11.9633 77.0137 12.5955 77.5 13.0901ZM81.7007 13.6426C81.0537 14.3099 80.2491 14.6429 79.2878 14.6429C78.3255 14.6429 77.5214 14.3099 76.8758 13.6426C76.2284 12.9761 75.9062 12.1602 75.9062 11.1955C75.9062 10.2308 76.2284 9.41487 76.8758 8.74849C77.5214 8.08112 78.3255 7.74771 79.2878 7.74771C80.2441 7.74771 81.0465 8.08288 81.6964 8.75278C82.3455 9.42268 82.6703 10.2369 82.6703 11.1955C82.6703 12.1602 82.3463 12.9761 81.7007 13.6426Z" fill="white"/>
<path d="M77.5 13.0901L77.422 13.1674C77.9272 13.6818 78.5574 13.943 79.2879 13.9417C80.0179 13.943 80.649 13.6818 81.1533 13.1674C81.6617 12.6526 81.9175 11.9866 81.9167 11.1956C81.9175 10.4045 81.6617 9.7385 81.1533 9.2237C80.649 8.70934 80.0179 8.44809 79.2879 8.44941C78.5574 8.44809 77.9272 8.70934 77.422 9.2237C76.9148 9.7385 76.6586 10.4045 76.6599 11.1956C76.6586 11.9866 76.9148 12.6526 77.422 13.1674L77.5 13.0901L77.578 13.0128C77.1128 12.5379 76.8801 11.9406 76.8793 11.1956C76.8801 10.4505 77.1128 9.85323 77.578 9.37836C78.0475 8.9036 78.6083 8.67073 79.2879 8.66941C79.9669 8.67073 80.529 8.9036 80.9973 9.37836C81.4634 9.85323 81.6961 10.4505 81.6969 11.1956C81.6961 11.9406 81.4634 12.5379 80.9973 13.0128C80.529 13.4875 79.9669 13.7204 79.2879 13.7217C78.6083 13.7204 78.0475 13.4875 77.578 13.0128L77.5 13.0901ZM81.7008 13.6426L81.6224 13.5662C80.9935 14.2124 80.2244 14.5316 79.2879 14.533C78.3509 14.5316 77.5818 14.2124 76.9542 13.5662L76.9512 13.5628L76.9542 13.5662C76.3266 12.9177 76.0169 12.1357 76.016 11.1956C76.0169 10.2554 76.3266 9.4734 76.9542 8.82495C77.5818 8.1787 78.3509 7.85904 79.2879 7.85772C80.2184 7.85904 80.9857 8.18002 81.6181 8.82968C82.2479 9.4811 82.5593 10.2619 82.5607 11.1956C82.5593 12.1357 82.2487 12.9177 81.6224 13.5662L81.7008 13.6426L81.7796 13.7191C82.4445 13.0342 82.7808 12.1847 82.78 11.1956C82.7808 10.212 82.4432 9.36428 81.7753 8.67634C81.107 7.98576 80.2698 7.63651 79.2879 7.63772C78.3008 7.63651 77.4611 7.98411 76.797 8.67205V8.67161C76.1308 9.35691 75.7958 10.2064 75.7966 11.1956C75.7958 12.1847 76.1308 13.0342 76.797 13.7195L76.8 13.7226L76.797 13.7191C77.4611 14.407 78.3008 14.7538 79.2879 14.753C80.2745 14.7538 81.1142 14.407 81.7796 13.7191L81.7008 13.6426Z" fill="white"/>
<path d="M83.8569 14.4955V7.89554H84.886L88.0842 13.0299H88.1206L88.0842 11.758V7.89554H88.9304V14.4955H88.0478L84.7018 9.11237H84.6654L84.7018 10.3847V14.4955H83.8569Z" fill="white"/>
<path d="M83.857 14.4956H83.9667V8.00556H84.8252L88.0234 13.1399H88.1207H88.2333L88.194 11.7563V8.00556H88.8208V14.3856H88.1087L84.7627 9.00238H84.6654H84.5528L84.5922 10.3865V14.3856H83.857V14.4956H83.9667H83.857V14.6056H84.7018H84.8115V10.383L84.7751 9.10941L84.6654 9.11238V9.22238H84.7018V9.11238L84.6088 9.1709L87.987 14.6056H88.9304H89.0401V7.78556H88.0843H87.9746V11.7593L88.011 13.0329L88.1207 13.0299V12.9199H88.0843V13.0299L88.1773 12.9715L84.9468 7.78556H83.857H83.7473V14.6056H83.857V14.4956Z" fill="white"/>
<path d="M118.253 33.1956H120.299V19.4442H118.253V33.1956ZM136.686 24.3978L134.34 30.3597H134.27L131.835 24.3978H129.63L133.282 32.7306L131.2 37.3657H133.335L138.962 24.3978H136.686ZM125.08 31.6337C124.409 31.6337 123.474 31.2976 123.474 30.4658C123.474 29.4044 124.639 28.9975 125.644 28.9975C126.544 28.9975 126.966 29.1921 127.514 29.4578C127.355 30.7313 126.261 31.6337 125.08 31.6337ZM125.327 24.0969C123.845 24.0969 122.311 24.7517 121.676 26.2024L123.492 26.963C123.88 26.2024 124.603 25.9545 125.362 25.9545C126.42 25.9545 127.496 26.5917 127.514 27.7239V27.8653C127.143 27.653 126.35 27.3347 125.379 27.3347C123.422 27.3347 121.428 28.4135 121.428 30.4305C121.428 32.2705 123.033 33.4559 124.832 33.4559C126.208 33.4559 126.966 32.8367 127.443 32.1115H127.514V33.1728H129.489V27.9005C129.489 25.4595 127.673 24.0969 125.327 24.0969ZM112.679 26.0717H109.768V21.3581H112.679C114.209 21.3581 115.077 22.6286 115.077 23.7149C115.077 24.7806 114.209 26.0717 112.679 26.0717ZM112.626 19.4442H107.722V33.1956H109.768V27.9856H112.626C114.894 27.9856 117.124 26.3386 117.124 23.7149C117.124 21.0913 114.894 19.4442 112.626 19.4442ZM85.8856 31.6362C84.4717 31.6362 83.288 30.449 83.288 28.8183C83.288 27.1705 84.4717 25.9653 85.8856 25.9653C87.2815 25.9653 88.3769 27.1705 88.3769 28.8183C88.3769 30.449 87.2815 31.6362 85.8856 31.6362ZM88.2355 25.1678H88.1648C87.7056 24.6185 86.8217 24.1223 85.7087 24.1223C83.3763 24.1223 81.2385 26.1779 81.2385 28.8183C81.2385 31.4412 83.3763 33.4791 85.7087 33.4791C86.8217 33.4791 87.7056 32.9828 88.1648 32.4161H88.2355V33.0894C88.2355 34.8796 87.2815 35.8364 85.7442 35.8364C84.4897 35.8364 83.7122 34.9324 83.3938 34.1705L81.6095 34.9148C82.1219 36.1552 83.4826 37.6794 85.7442 37.6794C88.1473 37.6794 90.1792 36.2614 90.1792 32.8058V24.4059H88.2355V25.1678ZM91.5927 33.1956H93.6423V19.4438H91.5927V33.1956ZM96.6639 28.6589C96.6108 26.8512 98.0598 25.93 99.1022 25.93C99.9155 25.93 100.604 26.3373 100.834 26.9226L96.6639 28.6589ZM103.025 27.0996C102.637 26.0537 101.452 24.1223 99.0314 24.1223C96.6284 24.1223 94.6319 26.0185 94.6319 28.8007C94.6319 31.4236 96.6108 33.4791 99.2611 33.4791C101.399 33.4791 102.637 32.1677 103.149 31.4059L101.559 30.3424C101.029 31.1223 100.304 31.6362 99.2611 31.6362C98.2187 31.6362 97.4767 31.1576 96.9994 30.2186L103.237 27.6311L103.025 27.0996ZM53.332 25.5578V27.5426H58.0673C57.926 28.6589 57.5549 29.474 56.9894 30.0412C56.3006 30.7326 55.2226 31.4944 53.332 31.4944C50.4165 31.4944 48.1373 29.1376 48.1373 26.2135C48.1373 23.2895 50.4165 20.9323 53.332 20.9323C54.9047 20.9323 56.0529 21.5527 56.9011 22.3502L58.297 20.9504C57.1133 19.8159 55.5405 18.9476 53.332 18.9476C49.3386 18.9476 45.9814 22.2084 45.9814 26.2135C45.9814 30.2186 49.3386 33.4791 53.332 33.4791C55.4878 33.4791 57.1133 32.7706 58.3853 31.4412C59.6929 30.1298 60.0994 28.2868 60.0994 26.7984C60.0994 26.3373 60.0642 25.9124 59.9932 25.5578H53.332ZM65.4831 31.6362C64.0692 31.6362 62.8499 30.4666 62.8499 28.8007C62.8499 27.1172 64.0692 25.9653 65.4831 25.9653C66.8964 25.9653 68.1157 27.1172 68.1157 28.8007C68.1157 30.4666 66.8964 31.6362 65.4831 31.6362ZM65.4831 24.1223C62.903 24.1223 60.8003 26.0893 60.8003 28.8007C60.8003 31.4944 62.903 33.4791 65.4831 33.4791C68.0626 33.4791 70.1653 31.4944 70.1653 28.8007C70.1653 26.0893 68.0626 24.1223 65.4831 24.1223ZM75.6976 31.6362C74.2843 31.6362 73.0649 30.4666 73.0649 28.8007C73.0649 27.1172 74.2843 25.9653 75.6976 25.9653C77.111 25.9653 78.3302 27.1172 78.3302 28.8007C78.3302 30.4666 77.111 31.6362 75.6976 31.6362ZM75.6976 24.1223C73.1176 24.1223 71.0153 26.0893 71.0153 28.8007C71.0153 31.4944 73.1176 33.4791 75.6976 33.4791C78.2772 33.4791 80.3799 31.4944 80.3799 28.8007C80.3799 26.0893 78.2772 24.1223 75.6976 24.1223Z" fill="white"/>
<path d="M12.4946 35.824L12.4131 35.7458C12.0939 35.4071 11.9055 34.8812 11.9055 34.2002V34.3605V10.0329C11.9055 10.0307 11.9055 10.029 11.9055 10.0272C11.9055 10.0293 11.9055 10.0311 11.9055 10.0333V10.194C11.9055 9.45656 12.1252 8.90107 12.4933 8.56799L26.0821 22.1964L12.4946 35.824ZM11.9055 10.0259C11.9055 9.96532 11.9072 9.90647 11.9102 9.8485C11.9072 9.90603 11.9055 9.96532 11.9055 10.0259ZM11.9102 9.84586C11.9102 9.84509 11.9102 9.84421 11.9106 9.84333C11.9102 9.84421 11.9102 9.84509 11.9102 9.84586ZM11.9106 9.83816C11.9106 9.83772 11.9106 9.83728 11.9106 9.83684C11.9106 9.83728 11.9106 9.83772 11.9106 9.83816Z" fill="url(#paint0_linear)"/>
<path d="M30.6109 26.9019L30.7143 26.8431L36.0807 23.785C36.5923 23.4932 36.9333 23.1396 37.1034 22.7654C36.9337 23.1396 36.5926 23.4937 36.0807 23.7854L30.7143 26.8435L30.6109 26.9019ZM30.6123 26.7408L26.082 22.1964L30.6118 17.6529L36.0807 20.769C36.7751 21.1648 37.165 21.6748 37.2302 22.196C37.2302 22.1964 37.2302 22.1973 37.2302 22.1981C37.165 22.7181 36.7751 23.2286 36.0807 23.6242L30.6123 26.7408Z" fill="url(#paint1_linear)"/>
<path d="M13.4634 36.343C13.0838 36.343 12.7526 36.2192 12.4943 35.9855L12.4947 35.985C12.753 36.2188 13.0847 36.343 13.4643 36.343C13.4972 36.343 13.5307 36.3421 13.5645 36.3405C13.5302 36.3421 13.4963 36.343 13.4634 36.343ZM13.4639 36.1818C13.0843 36.1823 12.753 36.0581 12.4947 35.8243V35.824L26.0822 22.1964L30.6125 26.7408L14.6926 35.8128C14.2521 36.0633 13.8348 36.1818 13.4639 36.1818ZM12.4909 35.9825C12.4669 35.9606 12.4433 35.9374 12.4202 35.9133L12.4909 35.9825Z" fill="url(#paint2_linear)"/>
<path d="M26.0822 22.1964L12.4934 8.56799C12.7517 8.33469 13.0825 8.21093 13.4616 8.21093C13.8336 8.21093 14.2512 8.32996 14.6926 8.58087L30.612 17.6529L26.0822 22.1964ZM30.7145 17.5503L14.6926 8.42026C14.2512 8.16924 13.8336 8.05022 13.4616 8.05022C13.4599 8.05022 13.4587 8.05022 13.4569 8.05022C13.4591 8.05022 13.4608 8.05022 13.4634 8.05022C13.8344 8.05022 14.2516 8.1688 14.6926 8.41982L30.7145 17.5503Z" fill="url(#paint3_linear)"/>
<path d="M13.5644 36.3405C13.9092 36.3207 14.291 36.2016 14.6924 35.9735L30.611 26.9019L14.6924 35.9735C14.2913 36.2021 13.9092 36.3207 13.5644 36.3405ZM12.4941 35.9855L12.4907 35.9825C12.4919 35.9834 12.4933 35.9846 12.4941 35.9855ZM12.42 35.9133L12.4131 35.9065V35.9061C12.4157 35.9086 12.4178 35.9111 12.42 35.9133Z" fill="black"/>
<path d="M30.6111 26.9019L30.7144 26.8431L30.6111 26.9019Z" fill="url(#paint4_linear)"/>
<path d="M13.4641 36.343C13.0845 36.343 12.7529 36.2188 12.4946 35.985L12.4941 35.9855C12.4933 35.9846 12.4919 35.9834 12.4907 35.9825L12.42 35.9133C12.4178 35.9111 12.4157 35.9086 12.4131 35.9061L12.4946 35.8243C12.7529 36.0581 13.0841 36.1823 13.4637 36.1818C13.8346 36.1818 14.2519 36.0633 14.6924 35.8128L30.6123 26.7408L30.7143 26.8431L30.611 26.9019L14.6924 35.9735C14.291 36.2016 13.9092 36.3207 13.5644 36.3405C13.5305 36.3421 13.497 36.343 13.4641 36.343Z" fill="url(#paint5_linear)"/>
<path d="M12.4131 35.9065C12.0939 35.5678 11.9055 35.0419 11.9055 34.3609V34.3604C11.9055 35.0419 12.0939 35.5674 12.4131 35.9061V35.9065Z" fill="black"/>
<path d="M12.4131 35.9061C12.0939 35.5674 11.9055 35.0419 11.9055 34.3605V34.2002C11.9055 34.8812 12.0939 35.4071 12.4131 35.7458L12.4946 35.824L12.4131 35.9061Z" fill="url(#paint6_linear)"/>
<path d="M12.4131 35.9061L12.4946 35.824V35.8243L12.4131 35.9061Z" fill="url(#paint7_linear)"/>
<path d="M37.1035 22.7654C37.1879 22.5797 37.2303 22.3889 37.2303 22.1981C37.2303 22.1977 37.2303 22.1973 37.2303 22.1973C37.2303 22.3885 37.1879 22.5792 37.1035 22.7654Z" fill="black"/>
<path d="M30.7143 26.843L30.6123 26.7407L36.0807 23.6242C36.7752 23.2286 37.1651 22.7181 37.2302 22.1981C37.2302 22.3889 37.1878 22.5797 37.1035 22.7653C36.9333 23.1396 36.5924 23.4932 36.0807 23.7849L30.7143 26.843Z" fill="url(#paint8_linear)"/>
<path d="M37.2302 22.1964V22.196C37.2298 21.6206 36.8464 21.0453 36.0807 20.6087L30.7143 17.5506H30.7139L30.7143 17.5503L36.0807 20.6083C36.8472 21.0449 37.2311 21.621 37.2302 22.1964Z" fill="#404040"/>
<path d="M37.2304 22.196C37.1653 21.6748 36.7754 21.1647 36.0809 20.769L30.6121 17.6529L30.7141 17.5506H30.7145L36.0809 20.6087C36.8466 21.0453 37.23 21.6206 37.2304 22.196Z" fill="url(#paint9_linear)"/>
<path d="M11.9055 10.0273C11.9055 10.0268 11.9055 10.0264 11.9055 10.0259C11.9055 10.0264 11.9055 10.0268 11.9055 10.0273ZM11.9102 9.8485C11.9102 9.84762 11.9102 9.84674 11.9102 9.84586C11.9102 9.84674 11.9102 9.84762 11.9102 9.8485ZM11.9106 9.84333C11.9106 9.84157 11.9106 9.83992 11.9106 9.83816C11.9106 9.83992 11.9106 9.84157 11.9106 9.84333ZM11.9106 9.83684C11.9741 8.70681 12.5867 8.05407 13.4534 8.05022C13.0776 8.05242 12.7504 8.17617 12.4942 8.40772V8.40728L12.4911 8.41036C12.4641 8.43478 12.4384 8.46063 12.4131 8.48725C12.1252 8.79272 11.9436 9.25032 11.9106 9.83684Z" fill="#404040"/>
<path d="M11.9055 10.194V10.0333C11.9055 10.0311 11.9055 10.0293 11.9055 10.0272C11.9055 10.0268 11.9055 10.0264 11.9055 10.0259C11.9055 9.96531 11.9072 9.90602 11.9102 9.84849C11.9102 9.84761 11.9102 9.84673 11.9102 9.84585C11.9102 9.84508 11.9102 9.8442 11.9106 9.84332C11.9106 9.84156 11.9106 9.83991 11.9106 9.83815C11.9106 9.83771 11.9106 9.83727 11.9106 9.83683C11.9436 9.25031 12.1252 8.79271 12.4131 8.48724L12.4933 8.56798C12.1252 8.90106 11.9055 9.45656 11.9055 10.194ZM12.4911 8.41035L12.4942 8.40727C12.4933 8.40859 12.492 8.40947 12.4911 8.41035Z" fill="url(#paint10_linear)"/>
<path d="M30.6119 17.6529L14.6924 8.58087C14.2511 8.32995 13.8334 8.21093 13.4615 8.21093C13.0823 8.21093 12.7516 8.33468 12.4933 8.56799L12.4131 8.48725C12.4384 8.46063 12.4641 8.43478 12.4911 8.41036C12.4919 8.40948 12.4933 8.4086 12.4941 8.40772C12.7503 8.17617 13.0776 8.05242 13.4534 8.05022C13.4543 8.05022 13.4555 8.05022 13.4568 8.05022C13.4585 8.05022 13.4597 8.05022 13.4615 8.05022C13.8334 8.05022 14.2511 8.16924 14.6924 8.42026L30.7143 17.5503L30.7139 17.5506L30.6119 17.6529Z" fill="url(#paint11_linear)"/>
<defs>
<linearGradient id="paint0_linear" x1="24.8772" y1="9.77623" x2="6.41651" y2="28.1828" gradientUnits="userSpaceOnUse">
<stop stop-color="#00A0FF"/>
<stop offset="0.00657445" stop-color="#00A1FF"/>
<stop offset="0.2601" stop-color="#00BEFF"/>
<stop offset="0.5122" stop-color="#00D2FF"/>
<stop offset="0.7604" stop-color="#00DFFF"/>
<stop offset="1" stop-color="#00E3FF"/>
</linearGradient>
<linearGradient id="paint1_linear" x1="38.0764" y1="22.1971" x2="11.5377" y2="22.1971" gradientUnits="userSpaceOnUse">
<stop stop-color="#FFE000"/>
<stop offset="0.4087" stop-color="#FFBD00"/>
<stop offset="0.7754" stop-color="#FFA500"/>
<stop offset="1" stop-color="#FF9C00"/>
</linearGradient>
<linearGradient id="paint2_linear" x1="28.1975" y1="24.7213" x2="3.16345" y2="49.6819" gradientUnits="userSpaceOnUse">
<stop stop-color="#FF3A44"/>
<stop offset="1" stop-color="#C31162"/>
</linearGradient>
<linearGradient id="paint3_linear" x1="8.97134" y1="0.389385" x2="20.15" y2="11.5353" gradientUnits="userSpaceOnUse">
<stop stop-color="#32A071"/>
<stop offset="0.0685" stop-color="#2DA771"/>
<stop offset="0.4762" stop-color="#15CF74"/>
<stop offset="0.8009" stop-color="#06E775"/>
<stop offset="1" stop-color="#00F076"/>
</linearGradient>
<linearGradient id="paint4_linear" x1="38.076" y1="22.1969" x2="11.5391" y2="22.1969" gradientUnits="userSpaceOnUse">
<stop stop-color="#CCB300"/>
<stop offset="0.4087" stop-color="#CC9700"/>
<stop offset="0.7754" stop-color="#CC8400"/>
<stop offset="1" stop-color="#CC7D00"/>
</linearGradient>
<linearGradient id="paint5_linear" x1="28.1973" y1="24.7213" x2="3.16328" y2="49.6819" gradientUnits="userSpaceOnUse">
<stop stop-color="#CC2E36"/>
<stop offset="1" stop-color="#9C0E4E"/>
</linearGradient>
<linearGradient id="paint6_linear" x1="24.8772" y1="9.77624" x2="6.4165" y2="28.1828" gradientUnits="userSpaceOnUse">
<stop stop-color="#008DE0"/>
<stop offset="0.00657445" stop-color="#008DE0"/>
<stop offset="0.2601" stop-color="#00A7E0"/>
<stop offset="0.5122" stop-color="#00B8E0"/>
<stop offset="0.7604" stop-color="#00C4E0"/>
<stop offset="1" stop-color="#00C7E0"/>
</linearGradient>
<linearGradient id="paint7_linear" x1="28.1972" y1="24.7215" x2="3.16377" y2="49.6819" gradientUnits="userSpaceOnUse">
<stop stop-color="#E0333C"/>
<stop offset="1" stop-color="#AB0F56"/>
</linearGradient>
<linearGradient id="paint8_linear" x1="38.0764" y1="22.1971" x2="11.5377" y2="22.1971" gradientUnits="userSpaceOnUse">
<stop stop-color="#E0C500"/>
<stop offset="0.4087" stop-color="#E0A600"/>
<stop offset="0.7754" stop-color="#E09100"/>
<stop offset="1" stop-color="#E08900"/>
</linearGradient>
<linearGradient id="paint9_linear" x1="38.0766" y1="22.1971" x2="11.538" y2="22.1971" gradientUnits="userSpaceOnUse">
<stop stop-color="#FFE840"/>
<stop offset="0.4087" stop-color="#FFCE40"/>
<stop offset="0.7754" stop-color="#FFBC40"/>
<stop offset="1" stop-color="#FFB540"/>
</linearGradient>
<linearGradient id="paint10_linear" x1="24.8771" y1="9.77622" x2="6.41644" y2="28.1827" gradientUnits="userSpaceOnUse">
<stop stop-color="#40B8FF"/>
<stop offset="0.00657445" stop-color="#40B9FF"/>
<stop offset="0.2601" stop-color="#40CEFF"/>
<stop offset="0.5122" stop-color="#40DDFF"/>
<stop offset="0.7604" stop-color="#40E7FF"/>
<stop offset="1" stop-color="#40EAFF"/>
</linearGradient>
<linearGradient id="paint11_linear" x1="8.97119" y1="0.389385" x2="20.1499" y2="11.5353" gradientUnits="userSpaceOnUse">
<stop stop-color="#65B895"/>
<stop offset="0.0685" stop-color="#62BD95"/>
<stop offset="0.4762" stop-color="#50DB97"/>
<stop offset="0.8009" stop-color="#44ED98"/>
<stop offset="1" stop-color="#40F498"/>
</linearGradient>
</defs>
</svg>
