<svg width="139" height="46" viewBox="0 0 139 46" fill="none" xmlns="http://www.w3.org/2000/svg">
<path opacity="0.5" d="M9.8096 44.9937C9.45568 44.9937 9.11032 44.9893 8.75919 44.9814C8.03178 44.972 7.30607 44.9094 6.58802 44.7939C5.91847 44.6797 5.26986 44.4673 4.66358 44.1638C4.06285 43.8627 3.51494 43.468 3.04084 42.9947C2.55988 42.527 2.15945 41.9845 1.85543 41.3887C1.54806 40.7891 1.33535 40.1464 1.22469 39.4829C1.10519 38.7701 1.04054 38.0492 1.03129 37.3267C1.02392 37.0841 1.01428 36.2766 1.01428 36.2766V9.71097C1.01428 9.71097 1.02455 8.91585 1.03135 8.68225C1.0402 7.96083 1.10448 7.24113 1.22362 6.52937C1.33448 5.86411 1.54736 5.21954 1.8549 4.61795C2.1578 4.02261 2.556 3.47972 3.03407 3.01031C3.5116 2.53644 4.06126 2.13967 4.66301 1.83447C5.2679 1.53188 5.91528 1.32102 6.58348 1.20894C7.30389 1.09229 8.03212 1.02922 8.76204 1.02027L9.81016 1.00623H129.185L130.245 1.02083C130.969 1.02934 131.69 1.09184 132.404 1.20781C133.079 1.3213 133.733 1.53363 134.345 1.83784C135.55 2.45291 136.531 3.42601 137.15 4.62076C137.453 5.21819 137.662 5.85751 137.772 6.51701C137.892 7.23462 137.96 7.95998 137.974 8.68731C137.977 9.01299 137.977 9.36282 137.977 9.71097C137.986 10.1422 137.986 10.5527 137.986 10.9665V35.0345C137.986 35.4523 137.986 35.86 137.977 36.271C137.977 36.645 137.977 36.9875 137.972 37.3401C137.959 38.0545 137.893 38.7669 137.774 39.4717C137.666 40.1399 137.454 40.7876 137.147 41.3922C136.84 41.9814 136.442 42.5192 135.967 42.9857C135.492 43.4616 134.944 43.8586 134.341 44.1616C133.731 44.4675 133.078 44.6806 132.404 44.7939C131.686 44.91 130.96 44.9727 130.233 44.9814C129.892 44.9893 129.536 44.9937 129.19 44.9937L127.931 44.996L9.8096 44.9937Z" fill="black"/>
<path d="M28.7713 23.3458C28.7838 22.3859 29.0414 21.4448 29.52 20.61C29.9986 19.7751 30.6827 19.0737 31.5087 18.5709C30.984 17.829 30.2917 17.2184 29.4869 16.7877C28.6822 16.3569 27.787 16.1179 26.8726 16.0896C24.922 15.8869 23.031 17.2451 22.0371 17.2451C21.0238 17.2451 19.4934 16.1097 17.8455 16.1433C16.7795 16.1774 15.7407 16.4843 14.8301 17.034C13.9196 17.5838 13.1684 18.3577 12.6498 19.2803C10.4033 23.131 12.079 28.7902 14.2309 31.9028C15.3076 33.427 16.5659 35.1295 18.2124 35.0691C19.8236 35.003 20.4254 34.052 22.3702 34.052C24.297 34.052 24.8616 35.0691 26.5415 35.0307C28.2703 35.003 29.3596 33.4998 30.3985 31.9612C31.1721 30.8752 31.7674 29.6749 32.1623 28.4048C31.1579 27.9843 30.3007 27.2802 29.6977 26.3806C29.0947 25.481 28.7725 24.4255 28.7713 23.3458Z" fill="white"/>
<path d="M25.5983 14.0425C26.541 12.9222 27.0054 11.4822 26.8929 10.0283C25.4527 10.1781 24.1224 10.8595 23.167 11.9369C22.6999 12.4632 22.3421 13.0755 22.1142 13.7388C21.8862 14.4021 21.7926 15.1033 21.8385 15.8025C22.5589 15.8098 23.2715 15.6552 23.9228 15.3504C24.574 15.0455 25.1469 14.5984 25.5983 14.0425Z" fill="white"/>
<path d="M49.1378 31.2107H43.6396L42.3192 35.0706H39.9904L45.1982 20.7899H47.6178L52.8256 35.0706H50.4571L49.1378 31.2107ZM44.209 29.4295H48.5673L46.4188 23.1652H46.3587L44.209 29.4295Z" fill="white"/>
<path d="M64.0728 29.8653C64.0728 33.1008 62.3236 35.1795 59.6839 35.1795C59.0153 35.2142 58.3503 35.0617 57.7651 34.7395C57.1799 34.4174 56.6981 33.9386 56.375 33.3579H56.3251V38.515H54.1664V24.6588H56.2559V26.3906H56.2956C56.6336 25.8127 57.1235 25.3364 57.7131 25.0123C58.3028 24.6882 58.9701 24.5284 59.6442 24.5499C62.3133 24.5499 64.0728 26.6388 64.0728 29.8653ZM61.854 29.8653C61.854 27.7573 60.7536 26.3715 59.0748 26.3715C57.4254 26.3715 56.316 27.7865 56.316 29.8653C56.316 31.9631 57.4254 33.3681 59.0748 33.3681C60.7536 33.3681 61.854 31.9923 61.854 29.8653Z" fill="white"/>
<path d="M75.6479 29.8653C75.6479 33.1008 73.8987 35.1795 71.259 35.1795C70.5903 35.2142 69.9253 35.0617 69.3401 34.7395C68.7549 34.4173 68.2732 33.9385 67.9501 33.3579H67.9001V38.515H65.7415V24.6588H67.8309V26.3906H67.8706C68.2086 25.8127 68.6985 25.3364 69.2881 25.0123C69.8778 24.6882 70.5452 24.5284 71.2193 24.5499C73.8885 24.5499 75.6479 26.6388 75.6479 29.8653ZM73.429 29.8653C73.429 27.7573 72.3287 26.3715 70.6499 26.3715C69.0005 26.3715 67.8911 27.7865 67.8911 29.8653C67.8911 31.9631 69.0005 33.3681 70.6499 33.3681C72.3287 33.3681 73.4291 31.9923 73.4291 29.8653H73.429Z" fill="white"/>
<path d="M83.2979 31.0916C83.4579 32.5078 84.8475 33.4376 86.7464 33.4376C88.5659 33.4376 89.8749 32.5077 89.8749 31.2308C89.8749 30.1224 89.0854 29.4587 87.216 29.0038L85.3466 28.558C82.6978 27.9246 81.4682 26.6982 81.4682 24.7082C81.4682 22.2442 83.6371 20.5518 86.7169 20.5518C89.7649 20.5518 91.8544 22.2442 91.9247 24.7082H89.7456C89.6151 23.283 88.4252 22.4228 86.6862 22.4228C84.9472 22.4228 83.7573 23.2931 83.7573 24.5599C83.7573 25.5695 84.5173 26.1636 86.3765 26.6184L87.9658 27.0048C90.9253 27.6977 92.155 28.8747 92.155 30.9635C92.155 33.6352 90.0053 35.3086 86.5864 35.3086C83.3875 35.3086 81.2277 33.6745 81.0881 31.0915L83.2979 31.0916Z" fill="white"/>
<path d="M96.8138 22.1948V24.6588H98.8137V26.3512H96.8138V32.0911C96.8138 32.9828 97.2143 33.3983 98.0934 33.3983C98.3308 33.3942 98.5678 33.3777 98.8035 33.3489V35.0312C98.4083 35.1043 98.0065 35.1374 97.6045 35.13C95.4753 35.13 94.6449 34.3383 94.6449 32.3191V26.3512H93.1158V24.6588H94.6449V22.1948H96.8138Z" fill="white"/>
<path d="M99.9719 29.8652C99.9719 26.5893 101.921 24.5308 104.96 24.5308C108.009 24.5308 109.949 26.5893 109.949 29.8652C109.949 33.1502 108.019 35.1997 104.96 35.1997C101.901 35.1997 99.9719 33.1501 99.9719 29.8652ZM107.749 29.8652C107.749 27.618 106.709 26.2917 104.96 26.2917C103.211 26.2917 102.171 27.6281 102.171 29.8652C102.171 32.1214 103.211 33.4376 104.96 33.4376C106.709 33.4376 107.749 32.1214 107.749 29.8652H107.749Z" fill="white"/>
<path d="M111.728 24.6589H113.787V26.431H113.837C113.977 25.8775 114.304 25.3884 114.765 25.0458C115.225 24.7033 115.791 24.5281 116.367 24.5499C116.616 24.549 116.864 24.5758 117.106 24.6296V26.6287C116.792 26.5337 116.465 26.49 116.137 26.4995C115.823 26.4869 115.51 26.5417 115.22 26.66C114.93 26.7783 114.669 26.9574 114.455 27.185C114.242 27.4126 114.08 27.6832 113.982 27.9784C113.884 28.2736 113.852 28.5862 113.887 28.895V35.0706H111.728L111.728 24.6589Z" fill="white"/>
<path d="M127.059 32.0125C126.769 33.9026 124.91 35.1997 122.531 35.1997C119.472 35.1997 117.573 33.1704 117.573 29.9146C117.573 26.6488 119.482 24.5308 122.44 24.5308C125.35 24.5308 127.18 26.5096 127.18 29.6665V30.3987H119.752V30.5278C119.717 30.911 119.766 31.297 119.894 31.6602C120.022 32.0235 120.226 32.3556 120.494 32.6345C120.762 32.9134 121.086 33.1328 121.446 33.278C121.806 33.4233 122.193 33.4911 122.581 33.4769C123.091 33.5243 123.603 33.4073 124.04 33.1434C124.478 32.8796 124.818 32.4829 125.01 32.0125L127.059 32.0125ZM119.762 28.905H125.02C125.039 28.5605 124.986 28.2157 124.865 27.8923C124.743 27.5689 124.555 27.2739 124.313 27.0258C124.071 26.7776 123.78 26.5818 123.457 26.4504C123.135 26.3191 122.789 26.2551 122.44 26.2625C122.089 26.2604 121.74 26.3273 121.415 26.4592C121.09 26.5912 120.794 26.7856 120.545 27.0313C120.296 27.277 120.099 27.569 119.964 27.8906C119.83 28.2122 119.761 28.557 119.762 28.905V28.905Z" fill="white"/>
<path d="M43.9386 10.0406C44.3912 10.0085 44.8453 10.0762 45.2682 10.2388C45.6912 10.4015 46.0724 10.655 46.3844 10.9812C46.6964 11.3073 46.9313 11.698 47.0724 12.125C47.2134 12.5519 47.2569 13.0045 47.1999 13.4502C47.1999 15.6424 46.0031 16.9025 43.9386 16.9025H41.4351V10.0406H43.9386ZM42.5116 15.9321H43.8183C44.1417 15.9512 44.4654 15.8987 44.7657 15.7784C45.066 15.6581 45.3354 15.473 45.5544 15.2366C45.7733 15.0002 45.9363 14.7185 46.0314 14.4118C46.1265 14.1052 46.1513 13.7815 46.1041 13.4642C46.1479 13.1481 46.1205 12.8264 46.024 12.522C45.9274 12.2177 45.7641 11.9382 45.5456 11.7037C45.3272 11.4692 45.059 11.2854 44.7604 11.1655C44.4618 11.0456 44.1401 10.9926 43.8183 11.0103H42.5116V15.9321Z" fill="white"/>
<path d="M48.416 14.311C48.3831 13.9707 48.4224 13.6273 48.5314 13.3029C48.6404 12.9786 48.8167 12.6803 49.0489 12.4273C49.2812 12.1744 49.5643 11.9722 49.8801 11.8339C50.1958 11.6956 50.5373 11.6241 50.8826 11.6241C51.2279 11.6241 51.5694 11.6956 51.8852 11.8339C52.201 11.9722 52.4841 12.1744 52.7163 12.4273C52.9486 12.6803 53.1249 12.9786 53.2339 13.3029C53.3429 13.6273 53.3822 13.9707 53.3493 14.311C53.3828 14.6516 53.3439 14.9955 53.2352 15.3204C53.1265 15.6453 52.9503 15.9441 52.718 16.1975C52.4857 16.451 52.2024 16.6536 51.8863 16.7922C51.5702 16.9308 51.2283 17.0024 50.8826 17.0024C50.5369 17.0024 50.195 16.9308 49.8789 16.7922C49.5628 16.6536 49.2795 16.451 49.0472 16.1975C48.8149 15.9441 48.6387 15.6453 48.53 15.3204C48.4213 14.9955 48.3825 14.6516 48.416 14.311ZM52.2875 14.311C52.2875 13.1885 51.7782 12.5321 50.8843 12.5321C49.9871 12.5321 49.4823 13.1885 49.4823 14.311C49.4823 15.4425 49.9871 16.0938 50.8843 16.0938C51.7782 16.0938 52.2875 15.438 52.2875 14.311H52.2875Z" fill="white"/>
<path d="M59.9069 16.9024H58.8361L57.7551 13.0885H57.6734L56.5969 16.9024H55.5363L54.0945 11.724H55.1415L56.0785 15.6754H56.1556L57.231 11.724H58.2213L59.2967 15.6754H59.3783L60.3108 11.724H61.343L59.9069 16.9024Z" fill="white"/>
<path d="M62.5557 11.724H63.5494V12.5466H63.6265C63.7574 12.2511 63.9781 12.0034 64.2579 11.8381C64.5377 11.6727 64.8626 11.5979 65.1874 11.624C65.4419 11.6051 65.6974 11.643 65.9351 11.7352C66.1727 11.8273 66.3864 11.9711 66.5603 12.1561C66.7342 12.3411 66.8638 12.5624 66.9395 12.8037C67.0152 13.045 67.0352 13.3001 66.9978 13.55V16.9023H65.9656V13.8066C65.9656 12.9745 65.6003 12.5606 64.8369 12.5606C64.6641 12.5527 64.4916 12.5818 64.3312 12.646C64.1708 12.7102 64.0264 12.808 63.9078 12.9326C63.7891 13.0572 63.6991 13.2058 63.6439 13.3681C63.5887 13.5304 63.5696 13.7026 63.5879 13.8729V16.9023H62.5557L62.5557 11.724Z" fill="white"/>
<path d="M68.6427 9.70251H69.675V16.9024H68.6427V9.70251Z" fill="white"/>
<path d="M71.1099 14.311C71.077 13.9706 71.1164 13.6273 71.2254 13.3029C71.3345 12.9785 71.5108 12.6802 71.743 12.4272C71.9753 12.1742 72.2584 11.9721 72.5742 11.8338C72.89 11.6955 73.2315 11.624 73.5769 11.624C73.9222 11.624 74.2637 11.6955 74.5795 11.8338C74.8953 11.9721 75.1784 12.1742 75.4107 12.4272C75.6429 12.6802 75.8192 12.9785 75.9283 13.3029C76.0373 13.6273 76.0766 13.9706 76.0438 14.311C76.0773 14.6516 76.0384 14.9955 75.9296 15.3204C75.8209 15.6453 75.6447 15.944 75.4123 16.1975C75.18 16.451 74.8967 16.6535 74.5806 16.7921C74.2645 16.9307 73.9226 17.0024 73.5769 17.0024C73.2311 17.0024 72.8892 16.9307 72.5731 16.7921C72.257 16.6535 71.9737 16.451 71.7414 16.1975C71.509 15.944 71.3328 15.6453 71.2241 15.3204C71.1153 14.9955 71.0764 14.6516 71.1099 14.311ZM74.9815 14.311C74.9815 13.1885 74.4721 12.5321 73.5783 12.5321C72.681 12.5321 72.1762 13.1885 72.1762 14.311C72.1762 15.4424 72.681 16.0938 73.5783 16.0938C74.4721 16.0938 74.9815 15.4379 74.9815 14.311H74.9815Z" fill="white"/>
<path d="M77.1306 15.4379C77.1306 14.5058 77.8317 13.9684 79.076 13.892L80.4929 13.8112V13.3642C80.4929 12.8173 80.1276 12.5084 79.422 12.5084C78.8458 12.5084 78.4465 12.7179 78.3319 13.084H77.3325C77.438 12.1945 78.2831 11.624 79.4697 11.624C80.781 11.624 81.5206 12.2703 81.5206 13.3642V16.9023H80.5269V16.1746H80.4452C80.2794 16.4356 80.0467 16.6485 79.7706 16.7913C79.4946 16.9341 79.1853 17.0019 78.8741 16.9877C78.6545 17.0103 78.4326 16.9871 78.2227 16.9196C78.0127 16.8521 77.8193 16.7418 77.6551 16.5957C77.4908 16.4497 77.3593 16.2713 77.2689 16.0718C77.1786 15.8724 77.1315 15.6564 77.1306 15.4379ZM80.4929 14.9954V14.5625L79.2156 14.6433C78.4952 14.6911 78.1685 14.9336 78.1685 15.3901C78.1685 15.8562 78.5769 16.1274 79.1385 16.1274C79.303 16.1439 79.4692 16.1275 79.6272 16.0791C79.7852 16.0307 79.9317 15.9513 80.0581 15.8457C80.1844 15.7401 80.288 15.6103 80.3627 15.4643C80.4374 15.3182 80.4817 15.1587 80.4929 14.9954Z" fill="white"/>
<path d="M82.8772 14.311C82.8772 12.6747 83.7268 11.6381 85.0484 11.6381C85.3753 11.6232 85.6997 11.7007 85.9837 11.8616C86.2678 12.0225 86.4997 12.2601 86.6524 12.5466H86.7295V9.70251H87.7618V16.9024H86.7726V16.0842H86.6909C86.5264 16.3688 86.2864 16.6035 85.9969 16.7627C85.7074 16.922 85.3794 16.9998 85.0484 16.9877C83.7178 16.9878 82.8772 15.9512 82.8772 14.311ZM83.9435 14.311C83.9435 15.4093 84.4665 16.0702 85.3411 16.0702C86.2111 16.0702 86.7488 15.3998 86.7488 14.3155C86.7488 13.2362 86.2055 12.5562 85.3411 12.5562C84.4721 12.5562 83.9435 13.2216 83.9435 14.311H83.9435Z" fill="white"/>
<path d="M92.0327 14.311C91.9998 13.9707 92.0391 13.6273 92.1481 13.3029C92.2571 12.9786 92.4334 12.6803 92.6656 12.4273C92.8979 12.1744 93.181 11.9722 93.4967 11.8339C93.8125 11.6956 94.154 11.6241 94.4993 11.6241C94.8446 11.6241 95.1861 11.6956 95.5019 11.8339C95.8177 11.9722 96.1008 12.1744 96.333 12.4273C96.5653 12.6803 96.7415 12.9786 96.8505 13.3029C96.9595 13.6273 96.9989 13.9707 96.966 14.311C96.9995 14.6516 96.9606 14.9955 96.8519 15.3204C96.7432 15.6453 96.567 15.9441 96.3347 16.1975C96.1024 16.451 95.8191 16.6536 95.503 16.7922C95.1869 16.9308 94.845 17.0024 94.4993 17.0024C94.1536 17.0024 93.8117 16.9308 93.4956 16.7922C93.1795 16.6536 92.8962 16.451 92.6639 16.1975C92.4316 15.9441 92.2554 15.6453 92.1467 15.3204C92.038 14.9955 91.9992 14.6516 92.0327 14.311ZM95.9042 14.311C95.9042 13.1885 95.3949 12.5321 94.501 12.5321C93.6038 12.5321 93.099 13.1885 93.099 14.311C93.099 15.4425 93.6038 16.0938 94.501 16.0938C95.3949 16.0938 95.9042 15.438 95.9042 14.311Z" fill="white"/>
<path d="M98.351 11.724H99.3447V12.5466H99.4218C99.5527 12.2511 99.7734 12.0034 100.053 11.8381C100.333 11.6727 100.658 11.5979 100.983 11.624C101.237 11.6051 101.493 11.643 101.73 11.7352C101.968 11.8273 102.182 11.9711 102.356 12.1561C102.529 12.3411 102.659 12.5624 102.735 12.8037C102.811 13.045 102.83 13.3001 102.793 13.55V16.9023H101.761V13.8066C101.761 12.9745 101.396 12.5606 100.632 12.5606C100.459 12.5527 100.287 12.5818 100.127 12.646C99.9661 12.7102 99.8217 12.808 99.7031 12.9326C99.5844 13.0572 99.4944 13.2058 99.4392 13.3681C99.384 13.5304 99.3649 13.7026 99.3832 13.8729V16.9023H98.351V11.724Z" fill="white"/>
<path d="M108.626 10.4348V11.7477H109.759V12.6085H108.626V15.2712C108.626 15.8137 108.852 16.0512 109.366 16.0512C109.497 16.0508 109.629 16.0429 109.759 16.0276V16.8789C109.574 16.9117 109.386 16.9292 109.198 16.9311C108.05 16.9311 107.593 16.5313 107.593 15.5329V12.6084H106.762V11.7476H107.593V10.4348H108.626Z" fill="white"/>
<path d="M111.169 9.70251H112.193V12.5562H112.274C112.411 12.258 112.638 12.0089 112.924 11.8429C113.209 11.6769 113.539 11.602 113.869 11.6285C114.122 11.6149 114.375 11.6568 114.61 11.7511C114.845 11.8455 115.056 11.99 115.228 12.1744C115.4 12.3588 115.529 12.5785 115.606 12.8178C115.682 13.0572 115.704 13.3103 115.67 13.5591V16.9024H114.637V13.8112C114.637 12.9841 114.248 12.5652 113.519 12.5652C113.341 12.5507 113.163 12.5749 112.996 12.6359C112.829 12.6969 112.677 12.7933 112.552 12.9184C112.426 13.0434 112.33 13.1941 112.27 13.3598C112.209 13.5256 112.186 13.7024 112.202 13.878V16.9024H111.169L111.169 9.70251Z" fill="white"/>
<path d="M121.689 15.5042C121.549 15.9775 121.245 16.3869 120.831 16.6608C120.417 16.9346 119.918 17.0556 119.423 17.0024C119.078 17.0114 118.736 16.946 118.419 16.8109C118.103 16.6757 117.82 16.474 117.59 16.2197C117.36 15.9654 117.189 15.6646 117.088 15.3382C116.987 15.0118 116.96 14.6676 117.007 14.3295C116.961 13.9904 116.989 13.6455 117.089 13.3181C117.19 12.9907 117.36 12.6886 117.589 12.432C117.818 12.1755 118.099 11.9706 118.415 11.8312C118.731 11.6918 119.073 11.6212 119.418 11.6241C120.874 11.6241 121.752 12.6085 121.752 14.2346V14.5912H118.058V14.6485C118.042 14.8385 118.066 15.0298 118.129 15.2101C118.192 15.3903 118.292 15.5556 118.423 15.6953C118.554 15.8349 118.714 15.9459 118.891 16.0211C119.068 16.0963 119.259 16.1341 119.451 16.132C119.698 16.1613 119.948 16.1173 120.17 16.0055C120.391 15.8937 120.574 15.7192 120.696 15.5042L121.689 15.5042ZM118.058 13.8354H120.7C120.713 13.6616 120.689 13.487 120.63 13.3229C120.571 13.1588 120.478 13.0087 120.356 12.8824C120.235 12.756 120.089 12.6562 119.926 12.5893C119.763 12.5224 119.589 12.4899 119.413 12.4939C119.234 12.4917 119.057 12.5249 118.892 12.5915C118.726 12.6582 118.576 12.7569 118.45 12.8819C118.323 13.0069 118.224 13.1557 118.157 13.3195C118.089 13.4832 118.056 13.6586 118.058 13.8354H118.058Z" fill="white"/>
</svg>
