<svg width="150" height="44" viewBox="0 0 150 44" fill="none" xmlns="http://www.w3.org/2000/svg">
<path opacity="0.5" d="M143.549 44H6.45189C3.43576 44 0.968018 41.525 0.968018 38.5V5.5C0.968018 2.475 3.43576 2.6226e-06 6.45189 2.6226e-06H143.549C146.565 2.6226e-06 149.033 2.475 149.033 5.5V38.5C149.033 41.525 146.565 44 143.549 44Z" fill="black"/>
<path d="M52.9752 11.2677C52.9752 12.1893 52.7031 12.9232 52.1581 13.4707C51.5391 14.1217 50.7323 14.4474 49.7405 14.4474C48.7907 14.4474 47.9832 14.1174 47.3191 13.4565C46.6538 12.7961 46.3218 11.9771 46.3218 11C46.3218 10.0224 46.6538 9.20391 47.3191 8.54303C47.9832 7.88259 48.7907 7.55215 49.7405 7.55215C50.2118 7.55215 50.663 7.64455 51.0914 7.82891C51.5198 8.01371 51.8634 8.25901 52.1205 8.56624L51.5421 9.14671C51.1065 8.62465 50.5066 8.36384 49.7405 8.36384C49.0478 8.36384 48.4489 8.60793 47.9434 9.09644C47.4377 9.5855 47.185 10.2197 47.185 11C47.185 11.7803 47.4377 12.4145 47.9434 12.9035C48.4489 13.392 49.0478 13.6361 49.7405 13.6361C50.4754 13.6361 51.088 13.3907 51.5785 12.8992C51.8969 12.579 52.081 12.134 52.1303 11.5624H49.7405V10.7697H52.9294C52.9602 10.942 52.9752 11.1075 52.9752 11.2677Z" fill="white"/>
<path d="M52.9753 11.2677H52.8656C52.8648 12.1683 52.6025 12.8678 52.0807 13.3929L52.0795 13.3938L52.079 13.3947C51.4796 14.0232 50.7093 14.3361 49.7406 14.3374C48.8161 14.3361 48.0423 14.0198 47.3962 13.3787C46.7515 12.7363 46.4327 11.9521 46.4315 11C46.4327 10.0474 46.7515 9.26362 47.3962 8.62166C48.0423 7.98014 48.8161 7.66345 49.7406 7.66213C50.1977 7.66213 50.633 7.75156 51.0482 7.92987C51.4637 8.1095 51.792 8.3449 52.0366 8.63717L52.1206 8.56622L52.043 8.48845L51.4646 9.06936L51.5421 9.14669L51.6266 9.07629C51.1707 8.52838 50.5307 8.25217 49.7406 8.25382C49.0222 8.25294 48.3902 8.51034 47.8675 9.01744C47.3397 9.52619 47.0745 10.196 47.0754 11C47.0745 11.804 47.3397 12.4738 47.8675 12.9825C48.3902 13.4896 49.0222 13.747 49.7406 13.7461C50.4998 13.7474 51.1468 13.4892 51.6561 12.977C51.9963 12.6349 52.1891 12.161 52.2397 11.5719L52.2499 11.4524H49.8503V10.8796H52.9295V10.7696L52.8214 10.789C52.8515 10.9557 52.8656 11.1143 52.8656 11.2677H52.9753H53.085C53.085 11.1005 53.0695 10.9287 53.0374 10.7499L53.0211 10.6596H49.6309V11.5624V11.6724H52.1303V11.5624L52.0211 11.5529C51.9727 12.1065 51.797 12.5232 51.501 12.8215C51.0297 13.2924 50.4514 13.5248 49.7406 13.5261C49.0735 13.5252 48.5076 13.2949 48.0196 12.8244C47.5364 12.3556 47.296 11.7571 47.2948 11C47.296 10.2428 47.5364 9.64433 48.0196 9.17551C48.5076 8.70504 49.0735 8.4747 49.7406 8.47382C50.4822 8.47558 51.0422 8.72132 51.4582 9.21764L51.5353 9.3096L52.1981 8.64399L52.2692 8.57271L52.2045 8.49571C51.935 8.17352 51.576 7.91777 51.1347 7.72791C50.6926 7.5375 50.226 7.44213 49.7406 7.44213C48.7656 7.44125 47.9241 7.785 47.2416 8.46524C46.5565 9.14416 46.2113 9.99754 46.2122 11C46.2113 12.002 46.5565 12.8558 47.242 13.5351C47.9241 14.2149 48.7656 14.5583 49.7406 14.5574C50.756 14.5583 51.5983 14.22 52.2375 13.5467L52.1582 13.4707L52.2357 13.5485C52.8039 12.9791 53.0857 12.21 53.085 11.2677H52.9753Z" fill="white"/>
<path d="M58.0306 8.51086H55.0338V10.6035H57.7364V11.3966H55.0338V13.4892H58.0306V14.3H54.189V7.70005H58.0306V8.51086Z" fill="white"/>
<path d="M58.0307 8.51084V8.40084H54.9242V10.7135H57.6268V11.2863L54.9242 11.2866V13.5992H57.921V14.19H54.2987V7.81003H57.921V8.51084H58.0307V8.40084V8.51084H58.1404V7.70003V7.59003H54.0793V14.41H58.1404V13.4892V13.3792H55.1435V11.5066H57.8461V10.6035V10.4935H55.1435V8.62084H58.1404V8.51084H58.0307Z" fill="white"/>
<path d="M61.5965 14.3H60.7503V8.51086H58.9124V7.70005H63.4345V8.51086H61.5965V14.3Z" fill="white"/>
<path d="M61.5966 14.3V14.19H60.8601V8.40084H59.0221V7.81003H63.3248V8.40084H61.4869V14.3H61.5966V14.19V14.3H61.7062V8.62084H63.5442V7.70003V7.59003H58.8027V8.51084V8.62084H60.6407V14.41H61.5966H61.7062V14.3H61.5966Z" fill="white"/>
<path d="M66.7064 14.3V7.70005H67.5517V14.3H66.7064Z" fill="white"/>
<path d="M66.7064 14.3H66.816V7.81003H67.442V14.19H66.7064V14.3H66.816H66.7064V14.41H67.5516H67.6613V7.59003H66.7064H66.5967V14.41H66.7064V14.3Z" fill="white"/>
<path d="M71.3025 14.3H70.4564V8.51086H68.6185V7.70005H73.1405V8.51086H71.3025V14.3Z" fill="white"/>
<path d="M71.3025 14.3V14.19H70.566V8.40084H68.7281V7.81003H73.0308V8.40084H71.1928V14.3H71.3025V14.19V14.3H71.4122V8.62084H73.2501V7.70003V7.59003H68.5088V8.51084V8.62084H70.3467V14.41H71.3025H71.4122V14.3H71.3025Z" fill="white"/>
<path d="M77.5002 12.8945C77.9873 13.3891 78.5833 13.6361 79.2881 13.6361C79.9928 13.6361 80.5892 13.3891 81.0755 12.8945C81.563 12.4 81.8072 11.7678 81.8072 11C81.8072 10.2322 81.563 9.60002 81.0755 9.10546C80.5892 8.6109 79.9928 8.36384 79.2881 8.36384C78.5833 8.36384 77.9873 8.6109 77.5002 9.10546C77.0139 9.60002 76.7698 10.2322 76.7698 11C76.7698 11.7678 77.0139 12.4 77.5002 12.8945ZM81.701 13.447C81.054 14.1143 80.2494 14.4474 79.2881 14.4474C78.3258 14.4474 77.5216 14.1143 76.876 13.447C76.2286 12.7806 75.9065 11.9647 75.9065 11C75.9065 10.0353 76.2286 9.21931 76.876 8.55293C77.5216 7.88556 78.3258 7.55215 79.2881 7.55215C80.2443 7.55215 81.0467 7.88732 81.6967 8.55722C82.3458 9.22712 82.6705 10.0413 82.6705 11C82.6705 11.9647 82.3465 12.7806 81.701 13.447Z" fill="white"/>
<path d="M77.5002 12.8945L77.4222 12.9718C77.9273 13.4862 78.5576 13.7474 79.288 13.7461C80.018 13.7474 80.6491 13.4862 81.1534 12.9718C81.6619 12.457 81.9176 11.791 81.9169 11C81.9176 10.209 81.6619 9.54291 81.1534 9.02811C80.6491 8.51375 80.018 8.2525 79.288 8.25382C78.5576 8.2525 77.9273 8.51375 77.4222 9.02811C76.9149 9.54291 76.6587 10.209 76.66 11C76.6587 11.791 76.9149 12.457 77.4222 12.9718L77.5002 12.8945L77.5781 12.8172C77.1129 12.3423 76.8803 11.745 76.8794 11C76.8803 10.2549 77.1129 9.65764 77.5781 9.18277C78.0477 8.70801 78.6084 8.47514 79.288 8.47382C79.967 8.47514 80.5291 8.70801 80.9974 9.18277C81.4636 9.65764 81.6962 10.2549 81.6971 11C81.6962 11.745 81.4636 12.3423 80.9974 12.8172C80.5291 13.2919 79.967 13.5248 79.288 13.5261C78.6084 13.5248 78.0477 13.2919 77.5781 12.8172L77.5002 12.8945ZM81.7009 13.447L81.6225 13.3706C80.9936 14.0168 80.2245 14.3361 79.288 14.3374C78.351 14.3361 77.582 14.0168 76.9543 13.3706L76.9513 13.3672L76.9543 13.3706C76.3267 12.7221 76.017 11.9401 76.0161 11C76.017 10.0598 76.3267 9.27781 76.9543 8.62936C77.582 7.98311 78.351 7.66345 79.288 7.66213C80.2185 7.66345 80.9858 7.98443 81.6182 8.63409C82.248 9.28551 82.5595 10.0663 82.5608 11C82.5595 11.9401 82.2489 12.7221 81.6225 13.3706L81.7009 13.447L81.7798 13.5235C82.4446 12.8386 82.7809 11.9891 82.7801 11C82.7809 10.0165 82.4433 9.16869 81.7754 8.48075C81.1071 7.79017 80.2699 7.44092 79.288 7.44213C78.3009 7.44092 77.4612 7.78852 76.7971 8.47646V8.47602C76.1309 9.16132 75.7959 10.0109 75.7968 11C75.7959 11.9891 76.1309 12.8386 76.7971 13.5239L76.8001 13.527L76.7971 13.5235C77.4612 14.2114 78.3009 14.5583 79.288 14.5574C80.2747 14.5583 81.1144 14.2114 81.7798 13.5235L81.7009 13.447Z" fill="white"/>
<path d="M83.8572 14.3V7.70005H84.8863L88.0845 12.8344H88.1209L88.0845 11.5625V7.70005H88.9306V14.3H88.0481L84.702 8.91687H84.6656L84.702 10.1892V14.3H83.8572Z" fill="white"/>
<path d="M83.8571 14.3H83.9668V7.81003H84.8253L88.0235 12.9444H88.1208H88.2334L88.1941 11.5608V7.81003H88.8209V14.19H88.1089L84.7628 8.80685H84.6655H84.5529L84.5923 10.191V14.19H83.8571V14.3H83.9668H83.8571V14.41H84.702H84.8116V10.1875L84.7752 8.91388L84.6655 8.91685V9.02685H84.702V8.91685L84.6089 8.97537L87.9871 14.41H88.9306H89.0402V7.59003H88.0844H87.9747V11.5638L88.0111 12.8374L88.1208 12.8344V12.7244H88.0844V12.8344L88.1774 12.776L84.947 7.59003H83.8571H83.7474V14.41H83.8571V14.3Z" fill="white"/>
<path d="M118.253 32.9999H120.299V19.2486H118.253V32.9999ZM136.686 24.2021L134.34 30.164H134.27L131.835 24.2021H129.631L133.282 32.535L131.2 37.17H133.335L138.962 24.2021H136.686ZM125.08 31.4381C124.409 31.4381 123.474 31.102 123.474 30.2702C123.474 29.2088 124.639 28.8019 125.644 28.8019C126.544 28.8019 126.966 28.9965 127.514 29.2621C127.355 30.5357 126.261 31.4381 125.08 31.4381ZM125.327 23.9013C123.845 23.9013 122.311 24.5561 121.676 26.0068L123.492 26.7673C123.88 26.0068 124.603 25.7589 125.362 25.7589C126.42 25.7589 127.496 26.3961 127.514 27.5283V27.6697C127.143 27.4574 126.35 27.139 125.379 27.139C123.422 27.139 121.428 28.2179 121.428 30.2349C121.428 32.0748 123.033 33.2603 124.832 33.2603C126.209 33.2603 126.966 32.6411 127.444 31.9159H127.514V32.9772H129.489V27.7049C129.489 25.2639 127.673 23.9013 125.327 23.9013ZM112.679 25.8761H109.768V21.1625H112.679C114.209 21.1625 115.077 22.433 115.077 23.5193C115.077 24.5849 114.209 25.8761 112.679 25.8761ZM112.626 19.2486H107.722V32.9999H109.768V27.79H112.626C114.894 27.79 117.124 26.143 117.124 23.5193C117.124 20.8957 114.894 19.2486 112.626 19.2486ZM85.8857 31.4406C84.4719 31.4406 83.2881 30.2534 83.2881 28.6227C83.2881 26.9749 84.4719 25.7696 85.8857 25.7696C87.2816 25.7696 88.377 26.9749 88.377 28.6227C88.377 30.2534 87.2816 31.4406 85.8857 31.4406ZM88.2357 24.9721H88.1649C87.7057 24.4229 86.8218 23.9267 85.7088 23.9267C83.3764 23.9267 81.2386 25.9823 81.2386 28.6227C81.2386 31.2456 83.3764 33.2835 85.7088 33.2835C86.8218 33.2835 87.7057 32.7872 88.1649 32.2205H88.2357V32.8938C88.2357 34.6839 87.2816 35.6408 85.7443 35.6408C84.4899 35.6408 83.7124 34.7367 83.394 33.9749L81.6096 34.7191C82.122 35.9596 83.4827 37.4838 85.7443 37.4838C88.1474 37.4838 90.1794 36.0658 90.1794 32.6102V24.2103H88.2357V24.9721ZM91.5928 32.9999H93.6424V19.2482H91.5928V32.9999ZM96.664 28.4633C96.611 26.6556 98.0599 25.7343 99.1023 25.7343C99.9157 25.7343 100.604 26.1417 100.834 26.727L96.664 28.4633ZM103.025 26.904C102.637 25.8581 101.452 23.9267 99.0315 23.9267C96.6285 23.9267 94.6321 25.8229 94.6321 28.6051C94.6321 31.228 96.611 33.2835 99.2612 33.2835C101.4 33.2835 102.637 31.9721 103.149 31.2102L101.559 30.1468C101.029 30.9267 100.304 31.4406 99.2612 31.4406C98.2188 31.4406 97.4769 30.962 96.9995 30.023L103.237 27.4355L103.025 26.904ZM53.3321 25.3622V27.3469H58.0675C57.9261 28.4633 57.5551 29.2784 56.9896 29.8456C56.3007 30.5369 55.2228 31.2988 53.3321 31.2988C50.4166 31.2988 48.1374 28.9419 48.1374 26.0179C48.1374 23.0939 50.4166 20.7367 53.3321 20.7367C54.9048 20.7367 56.053 21.3571 56.9013 22.1546L58.2971 20.7547C57.1134 19.6203 55.5406 18.752 53.3321 18.752C49.3387 18.752 45.9816 22.0128 45.9816 26.0179C45.9816 30.023 49.3387 33.2835 53.3321 33.2835C55.488 33.2835 57.1134 32.575 58.3854 31.2456C59.693 29.9341 60.0996 28.0912 60.0996 26.6028C60.0996 26.1417 60.0644 25.7167 59.9933 25.3622H53.3321ZM65.4832 31.4406C64.0693 31.4406 62.8501 30.271 62.8501 28.6051C62.8501 26.9216 64.0693 25.7696 65.4832 25.7696C66.8965 25.7696 68.1158 26.9216 68.1158 28.6051C68.1158 30.271 66.8965 31.4406 65.4832 31.4406ZM65.4832 23.9267C62.9031 23.9267 60.8004 25.8937 60.8004 28.6051C60.8004 31.2988 62.9031 33.2835 65.4832 33.2835C68.0627 33.2835 70.1654 31.2988 70.1654 28.6051C70.1654 25.8937 68.0627 23.9267 65.4832 23.9267ZM75.6977 31.4406C74.2844 31.4406 73.065 30.271 73.065 28.6051C73.065 26.9216 74.2844 25.7696 75.6977 25.7696C77.1111 25.7696 78.3304 26.9216 78.3304 28.6051C78.3304 30.271 77.1111 31.4406 75.6977 31.4406ZM75.6977 23.9267C73.1177 23.9267 71.0154 25.8937 71.0154 28.6051C71.0154 31.2988 73.1177 33.2835 75.6977 33.2835C78.2773 33.2835 80.38 31.2988 80.38 28.6051C80.38 25.8937 78.2773 23.9267 75.6977 23.9267Z" fill="white"/>
<path d="M12.4948 35.6284L12.4133 35.5502C12.0942 35.2115 11.9058 34.6856 11.9058 34.0046V34.1649V9.83727C11.9058 9.83507 11.9058 9.83342 11.9058 9.83166C11.9058 9.83375 11.9058 9.83551 11.9058 9.83771V9.99842C11.9058 9.26098 12.1254 8.70548 12.4935 8.3724L26.0823 22.0008L12.4948 35.6284ZM11.9058 9.83034C11.9058 9.76973 11.9074 9.71088 11.9105 9.65291C11.9074 9.71044 11.9058 9.76973 11.9058 9.83034ZM11.9105 9.65027C11.9105 9.6495 11.9105 9.64862 11.9108 9.64774C11.9105 9.64862 11.9105 9.6495 11.9105 9.65027ZM11.9108 9.64257C11.9108 9.64213 11.9108 9.64169 11.9108 9.64125C11.9108 9.64169 11.9108 9.64213 11.9108 9.64257Z" fill="url(#paint0_linear)"/>
<path d="M30.6113 26.7063L30.7146 26.6474L36.081 23.5893C36.5927 23.2976 36.9337 22.944 37.1038 22.5697C36.9341 22.944 36.593 23.2981 36.081 23.5898L30.7146 26.6479L30.6113 26.7063ZM30.6126 26.5451L26.0824 22.0008L30.6122 17.4573L36.081 20.5734C36.7755 20.9691 37.1654 21.4792 37.2306 22.0004C37.2306 22.0008 37.2306 22.0017 37.2306 22.0025C37.1654 22.5224 36.7755 23.033 36.081 23.4286L30.6126 26.5451Z" fill="url(#paint1_linear)"/>
<path d="M13.4635 36.1475C13.0839 36.1475 12.7527 36.0237 12.4944 35.79L12.4949 35.7895C12.7532 36.0233 13.0848 36.1475 13.4644 36.1475C13.4973 36.1475 13.5308 36.1466 13.5647 36.1449C13.5303 36.1466 13.4964 36.1475 13.4635 36.1475ZM13.464 35.9863C13.0844 35.9867 12.7532 35.8626 12.4949 35.6288V35.6285L26.0824 22.0009L30.6126 26.5452L14.6927 35.6173C14.2522 35.8677 13.8349 35.9863 13.464 35.9863ZM12.491 35.787C12.467 35.7651 12.4434 35.7419 12.4203 35.7178L12.491 35.787Z" fill="url(#paint2_linear)"/>
<path d="M26.0823 22.0009L12.4935 8.37241C12.7518 8.1391 13.0826 8.01535 13.4618 8.01535C13.8337 8.01535 14.2513 8.13437 14.6927 8.38528L30.6121 17.4573L26.0823 22.0009ZM30.7146 17.3547L14.6927 8.22468C14.2513 7.97366 13.8337 7.85464 13.4618 7.85464C13.46 7.85464 13.4588 7.85464 13.457 7.85464C13.4592 7.85464 13.4609 7.85464 13.4635 7.85464C13.8346 7.85464 14.2518 7.97322 14.6927 8.22424L30.7146 17.3547Z" fill="url(#paint3_linear)"/>
<path d="M13.5647 36.1449C13.9096 36.1251 14.2913 36.0061 14.6928 35.7779L30.6113 26.7063L14.6928 35.7779C14.2917 36.0065 13.9096 36.1251 13.5647 36.1449ZM12.4945 35.7899L12.4911 35.787C12.4923 35.7878 12.4936 35.789 12.4945 35.7899ZM12.4204 35.7178L12.4135 35.7109V35.7105C12.4161 35.713 12.4182 35.7156 12.4204 35.7178Z" fill="black"/>
<path d="M30.6113 26.7063L30.7146 26.6474L30.6113 26.7063Z" fill="url(#paint4_linear)"/>
<path d="M13.4645 36.1475C13.0849 36.1475 12.7532 36.0233 12.4949 35.7895L12.4945 35.79C12.4936 35.7891 12.4923 35.7879 12.4911 35.787L12.4204 35.7178C12.4182 35.7156 12.4161 35.7131 12.4135 35.7105L12.4949 35.6288C12.7532 35.8626 13.0845 35.9867 13.4641 35.9863C13.835 35.9863 14.2523 35.8677 14.6928 35.6173L30.6127 26.5452L30.7147 26.6475L30.6114 26.7064L14.6928 35.778C14.2913 36.0061 13.9096 36.1251 13.5647 36.1449C13.5308 36.1466 13.4974 36.1475 13.4645 36.1475Z" fill="url(#paint5_linear)"/>
<path d="M12.4133 35.7109C12.0942 35.3722 11.9058 34.8463 11.9058 34.1653V34.1649C11.9058 34.8463 12.0942 35.3718 12.4133 35.7105V35.7109Z" fill="black"/>
<path d="M12.4133 35.7104C12.0942 35.3718 11.9058 34.8463 11.9058 34.1648V34.0046C11.9058 34.6856 12.0942 35.2115 12.4133 35.5502L12.4948 35.6284L12.4133 35.7104Z" fill="url(#paint6_linear)"/>
<path d="M12.4135 35.7104L12.4949 35.6284V35.6287L12.4135 35.7104Z" fill="url(#paint7_linear)"/>
<path d="M37.1038 22.5698C37.1881 22.3841 37.2305 22.1934 37.2305 22.0025C37.2305 22.0022 37.2305 22.0018 37.2305 22.0018C37.2305 22.193 37.1881 22.3837 37.1038 22.5698Z" fill="black"/>
<path d="M30.7145 26.6475L30.6125 26.5452L36.081 23.4286C36.7754 23.033 37.1653 22.5225 37.2305 22.0025C37.2305 22.1933 37.188 22.3841 37.1037 22.5698C36.9336 22.944 36.5926 23.2976 36.081 23.5894L30.7145 26.6475Z" fill="url(#paint8_linear)"/>
<path d="M37.2306 22.0009V22.0004C37.2302 21.425 36.8467 20.8497 36.0811 20.4131L30.7147 17.355H30.7142L30.7147 17.3547L36.0811 20.4127C36.8476 20.8493 37.2315 21.4254 37.2306 22.0009Z" fill="#404040"/>
<path d="M37.2306 22.0005C37.1654 21.4793 36.7755 20.9692 36.081 20.5735L30.6122 17.4574L30.7142 17.3551H30.7146L36.081 20.4132C36.8467 20.8498 37.2301 21.4251 37.2306 22.0005Z" fill="url(#paint9_linear)"/>
<path d="M11.9058 9.83167C11.9058 9.83123 11.9058 9.83079 11.9058 9.83035C11.9058 9.83079 11.9058 9.83123 11.9058 9.83167ZM11.9105 9.65291C11.9105 9.65203 11.9105 9.65116 11.9105 9.65028C11.9105 9.65116 11.9105 9.65203 11.9105 9.65291ZM11.9108 9.64775C11.9108 9.64599 11.9108 9.64434 11.9108 9.64258C11.9108 9.64434 11.9108 9.64599 11.9108 9.64775ZM11.9108 9.64126C11.9743 8.51123 12.587 7.85849 13.4536 7.85464C13.0779 7.85684 12.7506 7.98059 12.4944 8.21214V8.2117L12.4913 8.21477C12.4643 8.23919 12.4387 8.26504 12.4133 8.29166C12.1254 8.59713 11.9438 9.05474 11.9108 9.64126Z" fill="#404040"/>
<path d="M11.9058 9.99841V9.8377C11.9058 9.8355 11.9058 9.83374 11.9058 9.83165C11.9058 9.83121 11.9058 9.83077 11.9058 9.83033C11.9058 9.76972 11.9074 9.71043 11.9105 9.6529C11.9105 9.65202 11.9105 9.65114 11.9105 9.65026C11.9105 9.64949 11.9105 9.64861 11.9108 9.64773C11.9108 9.64597 11.9108 9.64432 11.9108 9.64256C11.9108 9.64212 11.9108 9.64168 11.9108 9.64124C11.9438 9.05472 12.1254 8.59712 12.4133 8.29165L12.4935 8.37239C12.1254 8.70547 11.9058 9.26097 11.9058 9.99841ZM12.4913 8.21476L12.4944 8.21168C12.4935 8.213 12.4922 8.21388 12.4913 8.21476Z" fill="url(#paint10_linear)"/>
<path d="M30.6122 17.4573L14.6928 8.38525C14.2514 8.13434 13.8338 8.01532 13.4619 8.01532C13.0827 8.01532 12.7519 8.13907 12.4936 8.37238L12.4135 8.29164C12.4388 8.26502 12.4645 8.23916 12.4914 8.21474C12.4923 8.21386 12.4936 8.21299 12.4945 8.21211C12.7507 7.98056 13.078 7.85681 13.4537 7.85461C13.4546 7.85461 13.4558 7.85461 13.4571 7.85461C13.4589 7.85461 13.4601 7.85461 13.4619 7.85461C13.8338 7.85461 14.2514 7.97362 14.6928 8.22464L30.7147 17.3546L30.7142 17.355L30.6122 17.4573Z" fill="url(#paint11_linear)"/>
<defs>
<linearGradient id="paint0_linear" x1="24.8774" y1="9.58064" x2="6.41675" y2="27.9872" gradientUnits="userSpaceOnUse">
<stop stop-color="#00A0FF"/>
<stop offset="0.00657445" stop-color="#00A1FF"/>
<stop offset="0.2601" stop-color="#00BEFF"/>
<stop offset="0.5122" stop-color="#00D2FF"/>
<stop offset="0.7604" stop-color="#00DFFF"/>
<stop offset="1" stop-color="#00E3FF"/>
</linearGradient>
<linearGradient id="paint1_linear" x1="38.0767" y1="22.0015" x2="11.5381" y2="22.0015" gradientUnits="userSpaceOnUse">
<stop stop-color="#FFE000"/>
<stop offset="0.4087" stop-color="#FFBD00"/>
<stop offset="0.7754" stop-color="#FFA500"/>
<stop offset="1" stop-color="#FF9C00"/>
</linearGradient>
<linearGradient id="paint2_linear" x1="28.1976" y1="24.5257" x2="3.16357" y2="49.4863" gradientUnits="userSpaceOnUse">
<stop stop-color="#FF3A44"/>
<stop offset="1" stop-color="#C31162"/>
</linearGradient>
<linearGradient id="paint3_linear" x1="8.97146" y1="0.193798" x2="20.1502" y2="11.3397" gradientUnits="userSpaceOnUse">
<stop stop-color="#32A071"/>
<stop offset="0.0685" stop-color="#2DA771"/>
<stop offset="0.4762" stop-color="#15CF74"/>
<stop offset="0.8009" stop-color="#06E775"/>
<stop offset="1" stop-color="#00F076"/>
</linearGradient>
<linearGradient id="paint4_linear" x1="38.0763" y1="22.0012" x2="11.5393" y2="22.0012" gradientUnits="userSpaceOnUse">
<stop stop-color="#CCB300"/>
<stop offset="0.4087" stop-color="#CC9700"/>
<stop offset="0.7754" stop-color="#CC8400"/>
<stop offset="1" stop-color="#CC7D00"/>
</linearGradient>
<linearGradient id="paint5_linear" x1="28.1977" y1="24.5257" x2="3.16365" y2="49.4863" gradientUnits="userSpaceOnUse">
<stop stop-color="#CC2E36"/>
<stop offset="1" stop-color="#9C0E4E"/>
</linearGradient>
<linearGradient id="paint6_linear" x1="24.8774" y1="9.58062" x2="6.41675" y2="27.9871" gradientUnits="userSpaceOnUse">
<stop stop-color="#008DE0"/>
<stop offset="0.00657445" stop-color="#008DE0"/>
<stop offset="0.2601" stop-color="#00A7E0"/>
<stop offset="0.5122" stop-color="#00B8E0"/>
<stop offset="0.7604" stop-color="#00C4E0"/>
<stop offset="1" stop-color="#00C7E0"/>
</linearGradient>
<linearGradient id="paint7_linear" x1="28.1975" y1="24.5259" x2="3.16413" y2="49.4863" gradientUnits="userSpaceOnUse">
<stop stop-color="#E0333C"/>
<stop offset="1" stop-color="#AB0F56"/>
</linearGradient>
<linearGradient id="paint8_linear" x1="38.0766" y1="22.0015" x2="11.538" y2="22.0015" gradientUnits="userSpaceOnUse">
<stop stop-color="#E0C500"/>
<stop offset="0.4087" stop-color="#E0A600"/>
<stop offset="0.7754" stop-color="#E09100"/>
<stop offset="1" stop-color="#E08900"/>
</linearGradient>
<linearGradient id="paint9_linear" x1="38.0767" y1="22.0016" x2="11.5381" y2="22.0016" gradientUnits="userSpaceOnUse">
<stop stop-color="#FFE840"/>
<stop offset="0.4087" stop-color="#FFCE40"/>
<stop offset="0.7754" stop-color="#FFBC40"/>
<stop offset="1" stop-color="#FFB540"/>
</linearGradient>
<linearGradient id="paint10_linear" x1="24.8774" y1="9.58063" x2="6.41668" y2="27.9871" gradientUnits="userSpaceOnUse">
<stop stop-color="#40B8FF"/>
<stop offset="0.00657445" stop-color="#40B9FF"/>
<stop offset="0.2601" stop-color="#40CEFF"/>
<stop offset="0.5122" stop-color="#40DDFF"/>
<stop offset="0.7604" stop-color="#40E7FF"/>
<stop offset="1" stop-color="#40EAFF"/>
</linearGradient>
<linearGradient id="paint11_linear" x1="8.97156" y1="0.193767" x2="20.1503" y2="11.3397" gradientUnits="userSpaceOnUse">
<stop stop-color="#65B895"/>
<stop offset="0.0685" stop-color="#62BD95"/>
<stop offset="0.4762" stop-color="#50DB97"/>
<stop offset="0.8009" stop-color="#44ED98"/>
<stop offset="1" stop-color="#40F498"/>
</linearGradient>
</defs>
</svg>
