<svg width="90" height="90" viewBox="0 0 90 90" fill="none" xmlns="http://www.w3.org/2000/svg">
<path d="M46.6656 26.4479H25.0094C24.1672 26.4479 23.4453 27.1854 23.4453 28.0458C23.4453 28.9062 24.0469 29.5208 24.8891 29.5208H46.5453C47.3875 29.5208 48.1094 28.7833 48.1094 27.9229C48.1094 27.0625 47.5078 26.4479 46.6656 26.4479Z" fill="#FFCC00"/>
<path d="M46.6648 36.4042H40.5289C39.6867 36.4042 38.9648 37.1417 38.9648 38.0021C38.9648 38.8625 39.6867 39.6 40.5289 39.6H46.6648C47.507 39.6 48.2289 38.8625 48.2289 38.0021C48.2289 37.1417 47.507 36.4042 46.6648 36.4042Z" fill="#FFCC00"/>
<path d="M24.8883 36.4042C24.0461 36.4042 23.3242 37.1417 23.3242 38.0021C23.3242 38.8625 24.0461 39.6 24.8883 39.6H32.107C32.9492 39.6 33.6711 38.8625 33.6711 38.0021C33.6711 37.1417 32.9492 36.4042 32.107 36.4042H24.8883Z" fill="#FFCC00"/>
<path d="M24.8883 49.4334H46.9055C47.7477 49.4334 48.4695 48.6959 48.4695 47.8355C48.4695 46.975 47.7477 46.2375 46.9055 46.2375H24.8883C24.0461 46.2375 23.3242 46.975 23.3242 47.8355C23.3242 48.6959 24.0461 49.4334 24.8883 49.4334Z" fill="#FFCC00"/>
<path d="M59.1774 51.0312C60.0196 51.0312 60.7415 50.2937 60.7415 49.4333V47.9583C61.9446 47.7125 63.0274 47.2208 63.8696 46.3604C65.0727 45.2541 65.6743 43.9021 65.6743 42.3041C65.6743 40.7062 65.0727 39.3541 63.8696 38.2479C62.7868 37.1416 61.2227 36.65 59.779 36.0354C57.2524 35.175 56.1696 34.5604 55.929 33.2083C55.8087 32.225 56.5306 31.1187 57.6134 30.75C58.9368 30.3812 60.6212 30.5041 62.3056 31.2416C63.0274 31.6104 63.9899 31.1187 64.2306 30.3812C64.5915 29.6437 64.1102 28.6604 63.3884 28.4146C62.4259 28.0458 61.5837 27.8 60.6212 27.6771V26.325C60.6212 25.4646 59.8993 24.7271 59.0571 24.7271C58.2149 24.7271 57.4931 25.4646 57.4931 26.325V27.6771C57.1321 27.6771 56.8915 27.8 56.6509 27.9229C54.1243 28.6604 52.4399 31.2416 52.8009 33.7C53.2821 37.1416 56.2899 38.2479 58.5759 39.1083C59.779 39.6 60.9821 39.9687 61.5837 40.5833C62.0649 41.075 62.4259 41.6896 62.4259 42.4271C62.4259 43.0416 62.0649 43.7791 61.5837 44.2708C60.9821 44.8854 60.0196 45.1312 58.9368 45.2541C57.9743 45.2541 56.8915 45.2541 55.6884 45.0083C55.3274 45.0083 55.0868 44.8854 54.7259 44.7625C53.8837 44.5166 53.0415 45.0083 52.8009 45.7458C52.5603 46.6062 53.0415 47.4666 53.7634 47.7125C54.1243 47.8354 54.6056 47.9583 54.9665 47.9583C55.8087 48.0812 56.6509 48.2041 57.3727 48.3271V49.5562C57.6134 50.2937 58.3352 51.0312 59.1774 51.0312Z" fill="#FFCC00"/>
<path d="M13.5785 64.7979H37.1598C37.7613 66.3958 39.3254 67.5021 41.1301 67.5021H47.627C49.4316 67.5021 50.9957 66.3958 51.5973 64.7979H75.5395C76.3816 64.7979 76.9832 64.0604 77.1035 63.3229C77.1035 62.4625 76.3816 61.725 75.6598 61.725H49.3113L49.0707 63.3229C48.9504 63.9375 48.4691 64.4291 47.7473 64.4291H41.2504C40.5285 64.4291 40.0473 63.9375 39.927 63.2L39.6863 61.725H13.5785C12.7363 61.725 12.1348 62.4625 12.1348 63.3229C12.1348 64.1833 12.7363 64.7979 13.5785 64.7979Z" fill="#0F63FB"/>
<path d="M16.1051 59.7583C16.9473 59.7583 17.6691 59.0208 17.6691 58.1604V23.4979C17.6691 21.1625 19.5941 19.1958 21.8801 19.1958H67.3582C69.6441 19.1958 71.5691 21.1625 71.5691 23.4979V58.1604C71.5691 59.0208 72.291 59.7583 73.1332 59.7583C73.9754 59.7583 74.6973 59.0208 74.6973 58.1604V23.4979C74.6973 19.4417 71.4488 16.1229 67.4785 16.1229H21.7598C17.7895 16.1229 14.541 19.4417 14.541 23.4979V58.1604C14.541 59.0208 15.2629 59.7583 16.1051 59.7583Z" fill="#0F63FB"/>
<path d="M81.0746 61.725C80.2324 61.725 79.5106 62.4625 79.5106 63.3229V67.0104C79.5106 69.7146 77.3449 71.9271 74.6981 71.9271H14.1809C11.534 71.9271 9.36836 69.7146 9.36836 67.0104V63.3229C9.36836 62.4625 8.64648 61.725 7.8043 61.725C6.96211 61.725 6.24023 62.4625 6.24023 63.3229V67.0104C6.24023 71.4354 9.7293 75 14.0605 75H74.5777C78.909 75 82.398 71.4354 82.398 67.0104V63.3229C82.5184 62.3396 81.9168 61.725 81.0746 61.725Z" fill="#0F63FB"/>
</svg>
