<svg width="90" height="90" viewBox="0 0 90 90" fill="none" xmlns="http://www.w3.org/2000/svg">
<path d="M69.9574 47.875C64.8655 46 59.8978 44.375 59.2768 39.375C58.78 35.875 61.3881 32.25 64.9897 31.25C68.5913 30.125 73.3107 30.625 77.7816 32.375C78.5268 32.75 79.5203 32.25 79.7687 31.5C80.1413 30.75 79.6445 29.75 78.8994 29.5C76.1671 28.375 73.4349 27.75 70.8268 27.625V22.625C70.8268 21.75 70.0816 21 69.2123 21C68.3429 21 67.5978 21.75 67.5978 22.625V27.625C66.3558 27.75 65.1139 27.875 63.872 28.25C58.78 29.75 55.3026 34.875 56.0478 39.875C56.9171 46.75 63.251 49 68.8397 51C72.0687 52.125 75.0494 53.25 76.9123 55C78.651 56.625 79.5203 58.75 79.5203 61C79.5203 63.25 78.5268 65.25 76.7881 66.875C74.9252 68.625 72.3171 69.625 69.0881 69.75C66.7284 69.875 63.9961 69.625 60.6429 69C59.7736 68.875 59.0284 68.625 58.159 68.5C57.2897 68.25 56.4203 68.75 56.172 69.5C55.9236 70.375 56.4203 71.25 57.1655 71.5C58.0349 71.75 59.0284 72 59.8978 72.125C62.7542 72.625 65.2381 72.875 67.4736 73V78C67.4736 78.875 68.2187 79.625 69.0881 79.625C69.9574 79.625 70.7026 78.875 70.7026 78V72.875C74.0558 72.375 76.7881 71.25 78.8994 69.25C81.259 67.125 82.6252 64.25 82.6252 61.125C82.6252 58 81.3832 55.125 79.0236 52.875C76.9123 50.375 73.4349 49.125 69.9574 47.875Z" fill="#FFCC00"/>
<path d="M81.2562 17C82.1256 17 82.8708 16.25 82.8708 15.375C82.8708 14.5 82.1256 13.75 81.2562 13.75H59.895C58.9014 13.75 57.9079 14.25 57.4111 15.25L46.9788 34.375L38.1611 12.5C37.7885 11.5 36.9191 10.875 35.8014 10.75C34.8079 10.625 33.6901 11.125 33.1933 12L25.3691 23.75L21.2708 14.25C20.8982 13.375 20.153 12.875 19.2837 12.625C18.4143 12.375 17.5449 12.625 16.7998 13.25L15.0611 14.75H7.73366C6.8643 14.75 6.11914 15.375 6.11914 16.25C6.11914 17.125 6.8643 17.875 7.60946 17.875H14.8127C15.5579 18 16.303 17.75 16.7998 17.25L18.5385 15.75L22.6369 25.375C23.0095 26.375 23.8788 27 24.9966 27.125C25.9901 27.25 26.9837 26.75 27.6046 25.875L35.4288 14.125L44.2466 36C44.6191 37 45.6127 37.75 46.7304 37.75H46.8546C47.8482 37.75 48.8417 37.25 49.3385 36.25L60.0191 16.875H81.2562V17Z" fill="#0F63FB"/>
</svg>
