<svg width="90" height="90" viewBox="0 0 90 90" fill="none" xmlns="http://www.w3.org/2000/svg">
<path d="M51.8426 41.4612H34.8785C34.0363 41.4612 33.3145 42.1776 33.3145 43.0135C33.3145 43.8493 34.0363 44.5658 34.8785 44.5658H51.8426C52.6848 44.5658 53.4066 43.8493 53.4066 43.0135C53.4066 42.1776 52.6848 41.4612 51.8426 41.4612Z" fill="#FFCC00"/>
<path d="M51.8426 52.8049H34.8785C34.0363 52.8049 33.3145 53.5214 33.3145 54.3572C33.3145 55.1931 34.0363 55.9095 34.8785 55.9095H51.8426C52.6848 55.9095 53.4066 55.1931 53.4066 54.3572C53.4066 53.5214 52.6848 52.8049 51.8426 52.8049Z" fill="#FFCC00"/>
<path d="M51.8426 64.1487H34.8785C34.0363 64.1487 33.3145 64.8651 33.3145 65.701C33.3145 66.5368 34.0363 67.2533 34.8785 67.2533H51.8426C52.6848 67.2533 53.4066 66.5368 53.4066 65.701C53.4066 64.8651 52.6848 64.1487 51.8426 64.1487Z" fill="#FFCC00"/>
<path d="M22.0025 52.4468C19.2353 51.4916 17.6712 50.7751 17.3103 48.984C17.19 47.6705 18.1525 46.357 19.4759 45.8794C21.04 45.4018 23.0853 45.6406 25.1306 46.357C25.8525 46.7153 26.815 46.2376 27.0556 45.5212C27.4165 44.8047 26.9353 43.8495 26.2134 43.6107C25.1306 43.133 23.9275 42.8942 22.8447 42.7748V41.1031C22.8447 40.2672 22.1228 39.5508 21.2806 39.5508C20.4384 39.5508 19.7165 40.2672 19.7165 41.1031V42.7748C19.3556 42.8942 18.8743 42.8942 18.5134 43.0136C15.7462 43.8495 13.8212 46.5958 14.1822 49.3422C14.6634 53.0439 18.0322 54.238 20.7993 55.1932C22.2431 55.6708 23.6868 56.1485 24.4087 56.9843C25.1306 57.5814 25.4915 58.4172 25.4915 59.2531C25.4915 60.0889 25.1306 60.8054 24.4087 61.5218C23.5665 62.2383 22.604 62.5965 21.1603 62.7159C20.0775 62.7159 18.754 62.5965 17.3103 62.3577C16.9493 62.2383 16.5884 62.2383 16.2275 62.1189C15.3853 61.8801 14.5431 62.3577 14.3025 63.0741C14.0618 63.7906 14.5431 64.7458 15.265 64.9847C15.7462 65.1041 16.2275 65.2235 16.7087 65.3429C17.7915 65.5817 18.754 65.7011 19.7165 65.7011V67.3728C19.7165 68.2087 20.4384 68.9251 21.2806 68.9251C22.1228 68.9251 22.8447 68.2087 22.8447 67.3728V65.5817C24.2884 65.3429 25.4915 64.7458 26.5743 63.7906C27.8978 62.5965 28.6197 61.0442 28.6197 59.3725C28.6197 57.7008 27.8978 56.1485 26.6947 54.9544C25.4915 53.7603 23.8072 53.0439 22.0025 52.4468Z" fill="#FFCC00"/>
<path d="M21.2809 33.4607C23.9277 32.386 26.2137 30.3561 27.2965 27.7291C28.3793 25.3409 28.259 22.5946 28.1387 20.4452C28.1387 19.6094 27.4168 19.0123 26.5746 19.0123C25.7324 19.0123 25.1309 19.7288 25.1309 20.5646C25.2512 22.5946 25.2512 24.8633 24.5293 26.535C23.6871 28.4456 22.123 29.8784 20.198 30.5949C18.3934 31.4307 16.2277 31.4307 14.0621 31.4307C13.2199 31.4307 12.498 32.0278 12.498 32.8636C12.498 33.6995 13.0996 34.4159 13.9418 34.4159C14.1824 34.4159 14.423 34.4159 14.784 34.4159C17.0699 34.4159 19.2355 34.2965 21.2809 33.4607Z" fill="#0F63FB"/>
<path d="M47.2707 12.0868H27.9004C26.216 12.0868 24.7723 12.6838 23.5691 13.7585L9.01133 27.968C7.68789 29.2815 6.8457 31.0726 6.8457 32.9832V63.671C6.8457 71.0743 12.9816 77.1641 20.441 77.1641H47.2707C54.7301 77.1641 60.866 71.0743 60.866 63.671V25.4605C60.866 18.0572 54.7301 12.0868 47.2707 12.0868ZM57.8582 63.671C57.8582 69.4026 53.166 74.1789 47.2707 74.1789H20.441C14.666 74.1789 9.85352 69.522 9.85352 63.671V32.9832C9.85352 31.9085 10.3348 30.8338 11.0566 30.1174L25.7348 15.9078C26.3363 15.3108 27.0582 15.072 27.9004 15.072H47.391C53.166 15.072 57.9785 19.7289 57.9785 25.5799V63.671H57.8582Z" fill="#0F63FB"/>
<path d="M77.5894 26.2963H76.9879V24.9828C76.9879 21.6394 74.341 19.0125 70.9722 19.0125C67.6035 19.0125 64.9566 21.6394 64.9566 24.9828V46.7151C64.9566 48.8644 64.9566 51.0138 64.9566 53.2825C64.8363 57.1036 65.6785 60.9246 67.3629 65.2233C67.7238 66.1786 68.3254 67.1338 69.4082 67.4921V68.5667C69.4082 69.4026 70.1301 70.119 70.9722 70.119C71.8144 70.119 72.5363 69.4026 72.5363 68.5667V67.4921C73.6191 67.1338 74.2207 66.1786 74.5816 65.2233C76.266 61.044 77.1082 57.1036 76.9879 53.2825C76.9879 51.4914 76.9879 49.7003 76.9879 48.0286V46.7151C76.9879 45.8792 76.9879 45.1628 76.9879 44.3269V29.2815H77.5894C78.4316 29.2815 79.1535 29.998 79.1535 30.8338V47.0733C79.1535 47.9092 79.8754 48.6256 80.7176 48.6256C81.5597 48.6256 82.2816 47.9092 82.2816 47.0733V30.8338C82.1613 28.3263 80.116 26.2963 77.5894 26.2963ZM73.9801 53.4019C73.9801 56.7453 73.2582 60.3276 71.6941 64.1486C71.5738 64.3875 71.4535 64.6263 71.4535 64.6263H70.3707C70.3707 64.5069 70.2504 64.3875 70.1301 64.1486C68.566 60.3276 67.8441 56.7453 67.8441 53.4019C67.8441 51.1332 67.8441 48.9838 67.8441 46.8345V24.9828C67.8441 23.3111 69.1676 21.9976 70.8519 21.9976C72.5363 21.9976 73.8597 23.3111 73.8597 24.9828V44.3269C73.8597 45.1628 73.8597 45.8792 73.8597 46.7151V48.0286C73.8597 49.8197 73.8597 51.6108 73.9801 53.4019Z" fill="#0F63FB"/>
</svg>
