<svg width="126" height="23" viewBox="0 0 126 23" fill="none" xmlns="http://www.w3.org/2000/svg">
<rect x="0.998047" y="0.183838" width="22.9541" height="22.6323" rx="1.1541" fill="#20C688"/>
<g clip-path="url(#clip0_1119_13051)">
<path d="M15.4643 14.0143L16.7163 17.6448L12.4782 14.7434L15.4643 14.0143ZM19.3365 10.0511H14.0967L12.4787 5.35498L10.8551 10.0522L5.61523 10.0457L9.85855 12.9519L8.23486 17.6443L12.4782 14.7434L15.0984 12.9519L19.3365 10.0511Z" fill="white"/>
</g>
<rect x="26.2598" y="0.183838" width="22.9541" height="22.6323" rx="1.1541" fill="#20C688"/>
<g clip-path="url(#clip1_1119_13051)">
<path d="M40.726 14.0143L41.9781 17.6448L37.7399 14.7434L40.726 14.0143ZM44.5983 10.0511H39.3584L37.7405 5.35498L36.1168 10.0522L30.877 10.0457L35.1203 12.9519L33.4966 17.6443L37.7399 14.7434L40.3601 12.9519L44.5983 10.0511Z" fill="white"/>
</g>
<rect x="51.5234" y="0.183838" width="22.9541" height="22.6323" rx="1.1541" fill="#20C688"/>
<g clip-path="url(#clip2_1119_13051)">
<path d="M65.9897 14.0143L67.2417 17.6448L63.0036 14.7434L65.9897 14.0143ZM69.8619 10.0511H64.6221L63.0041 5.35498L61.3805 10.0522L56.1406 10.0457L60.3839 12.9519L58.7603 17.6443L63.0036 14.7434L65.6238 12.9519L69.8619 10.0511Z" fill="white"/>
</g>
<rect x="76.7852" y="0.183838" width="22.9541" height="22.6323" rx="1.1541" fill="#20C688"/>
<g clip-path="url(#clip3_1119_13051)">
<path d="M91.2514 14.0143L92.5035 17.6448L88.2653 14.7434L91.2514 14.0143ZM95.1237 10.0511H89.8838L88.2659 5.35498L86.6422 10.0522L81.4023 10.0457L85.6457 12.9519L84.022 17.6443L88.2653 14.7434L90.8855 12.9519L95.1237 10.0511Z" fill="white"/>
</g>
<g clip-path="url(#clip4_1119_13051)">
<rect x="102.062" y="0.183838" width="23.2248" height="22.4119" fill="#A5A8AB" fill-opacity="0.25"/>
<rect x="102.062" y="0.183838" width="11.5959" height="22.4119" fill="#20C688"/>
<g clip-path="url(#clip5_1119_13051)">
<path d="M116.513 14.0143L117.765 17.6448L113.527 14.7434L116.513 14.0143ZM120.385 10.0511H115.146L113.528 5.35498L111.904 10.0522L106.664 10.0457L110.907 12.9519L109.284 17.6443L113.527 14.7434L116.147 12.9519L120.385 10.0511Z" fill="white"/>
</g>
</g>
<defs>
<clipPath id="clip0_1119_13051">
<rect width="13.7213" height="13.3995" fill="white" transform="translate(5.61523 4.80017)"/>
</clipPath>
<clipPath id="clip1_1119_13051">
<rect width="13.7213" height="13.3995" fill="white" transform="translate(30.877 4.80017)"/>
</clipPath>
<clipPath id="clip2_1119_13051">
<rect width="13.7213" height="13.3995" fill="white" transform="translate(56.1406 4.80017)"/>
</clipPath>
<clipPath id="clip3_1119_13051">
<rect width="13.7213" height="13.3995" fill="white" transform="translate(81.4023 4.80017)"/>
</clipPath>
<clipPath id="clip4_1119_13051">
<rect x="102.047" y="0.183838" width="22.9541" height="22.6323" rx="1.1541" fill="white"/>
</clipPath>
<clipPath id="clip5_1119_13051">
<rect width="13.7213" height="13.3995" fill="white" transform="translate(106.664 4.80017)"/>
</clipPath>
</defs>
</svg>
