<svg width="90" height="90" viewBox="0 0 90 90" fill="none" xmlns="http://www.w3.org/2000/svg">
<path d="M83.0574 36.3573C83.0574 36.1104 83.0574 35.6165 82.9371 34.9992V34.7523C82.9371 34.3819 82.8168 34.0115 82.8168 33.7645C82.8168 32.4064 81.8543 31.2953 80.4105 30.9249H80.2902C79.3277 30.6779 78.3652 30.3075 77.4027 30.0606C77.2824 30.0606 77.1621 29.9371 77.0418 29.9371L76.5605 29.8137C76.0793 29.6902 75.7184 29.5668 75.4777 29.4433L74.6355 29.3198L70.3043 33.888L65.973 29.3198L65.1309 29.4433C64.8902 29.4433 64.5293 29.5668 63.9277 29.8137L63.5668 29.9371C63.4465 29.9371 63.3262 30.0606 63.2059 30.0606C62.2434 30.431 61.2809 30.6779 60.3184 30.9249H60.198C58.7543 31.2953 57.7918 32.4064 57.7918 33.7645C57.7918 33.888 57.7918 34.2584 57.6715 34.7523V34.9992C57.5512 35.6165 57.5512 36.1104 57.5512 36.3573C57.4309 39.5674 57.4309 43.1478 57.5512 47.3456C57.5512 48.3333 57.7918 49.3211 58.1527 50.1853C58.5137 51.0496 59.1152 51.9138 59.9574 52.7781V53.5188C60.0777 55.3708 60.198 68.3346 60.198 69.6927C60.198 72.162 61.2809 74.3843 63.2059 75.8659C64.6496 76.9771 66.5746 77.4709 68.4996 77.4709H70.184H71.8684C73.9137 77.4709 75.7184 76.8536 77.2824 75.7424C79.2074 74.2609 80.2902 72.0385 80.2902 69.5692C80.2902 68.2111 80.5309 55.2473 80.5309 53.3954V52.6546C81.2527 51.7903 81.8543 50.9261 82.2152 50.0618C82.5762 49.1976 82.8168 48.2099 82.8168 47.2222C83.1777 43.1478 83.1777 39.5674 83.0574 36.3573ZM80.0496 47.2222C80.0496 47.8395 79.9293 48.3333 79.6887 48.9507C79.448 49.568 78.9668 50.1853 78.4855 50.8026L78.3652 50.9261C78.2449 51.0496 78.1246 51.2965 78.0043 51.4199L77.7637 51.7903L77.6434 53.3954C77.523 55.3708 77.4027 68.3346 77.2824 69.6927C77.2824 71.1742 76.6809 72.5324 75.4777 73.3966C74.5152 74.1374 73.3121 74.5078 71.8684 74.5078H70.184H68.4996C67.0559 74.5078 65.8527 74.1374 64.8902 73.3966C63.6871 72.5324 63.0855 71.2977 63.0855 69.6927C63.0855 68.3346 62.8449 55.3708 62.7246 53.3954L62.6043 51.7903L62.3637 51.4199C62.2434 51.2965 62.123 51.173 62.0027 50.9261L61.8824 50.8026C61.2809 50.1853 60.9199 49.568 60.6793 48.9507C60.4387 48.4568 60.3184 47.8395 60.3184 47.2222C60.198 43.1478 60.198 39.5674 60.3184 36.3573C60.3184 36.1104 60.3184 35.74 60.4387 35.3696V35.1226C60.559 34.6288 60.559 34.1349 60.559 34.0115C60.559 34.0115 60.6793 33.888 60.9199 33.888H61.0402C62.0027 33.6411 62.9652 33.2707 64.048 33.0238C64.048 33.0238 64.1684 33.0238 64.2887 32.9003L64.7699 32.7768C64.7699 32.7768 64.7699 32.7768 64.8902 32.7768L68.7402 36.8512C69.1012 37.2215 69.5824 37.5919 70.0637 37.5919H70.184H70.3043C70.9059 37.5919 71.3871 37.345 71.6277 36.8512L75.4777 32.7768L76.0793 33.0238C76.1996 33.0238 76.1996 33.0238 76.3199 33.1472C77.2824 33.5176 78.2449 33.7645 79.2074 34.0115H79.3277C79.448 34.0115 79.5684 34.1349 79.5684 34.1349C79.5684 34.3819 79.5684 34.7523 79.6887 35.2461V35.493C79.6887 35.8634 79.809 36.3573 79.809 36.4808C80.1699 39.5674 80.1699 43.1478 80.0496 47.2222Z" fill="#0F63FB"/>
<path d="M70.1819 26.2331C70.3022 26.2331 70.3022 26.2331 70.1819 26.2331C72.1069 26.2331 74.0319 25.3688 75.4757 24.0107C76.9194 22.5292 77.7616 20.5537 77.8819 18.5783C77.8819 16.6029 77.16 14.6274 75.7163 13.1459C74.2725 11.5408 72.3476 10.8 70.4226 10.8C66.3319 10.8 62.8429 14.2571 62.8429 18.4548C62.7226 22.5292 66.2116 26.2331 70.1819 26.2331ZM70.3022 13.8867C71.5054 13.8867 72.7085 14.3805 73.5507 15.3682C74.3929 16.2325 74.8741 17.4671 74.8741 18.5783C74.8741 19.8129 74.2726 20.9241 73.4304 21.9118C72.5882 22.7761 71.3851 23.27 70.3022 23.27C67.896 23.27 65.7304 20.9241 65.7304 18.5783C65.7304 15.9856 67.896 13.8867 70.3022 13.8867Z" fill="#0F63FB"/>
<path d="M34.2121 52.778H28.6777C26.6324 52.778 25.0684 54.2595 25.0684 56.4819C25.0684 62.902 25.0684 67.3468 25.0684 73.8904C25.0684 76.1127 26.5121 77.5943 28.6777 77.5943H33.9715C36.2574 77.5943 37.7012 76.1127 37.7012 73.7669V60.0624C37.7012 59.0746 37.7012 58.3339 37.7012 56.4819C37.8215 54.2595 36.3777 52.778 34.2121 52.778ZM34.8137 60.1858V73.7669C34.8137 74.3842 34.6934 74.5077 34.0918 74.5077H28.798C28.3168 74.5077 28.1965 74.3842 28.1965 73.8904C28.1965 67.4702 28.1965 63.0255 28.1965 56.4819C28.1965 55.988 28.3168 55.8646 28.798 55.8646H34.2121C34.573 55.8646 34.8137 55.988 34.8137 56.4819C34.8137 58.3339 34.8137 59.0746 34.8137 60.1858Z" fill="#0F63FB"/>
<path d="M49.3703 43.3948H43.8359C41.7906 43.3948 40.3469 44.8764 40.2266 47.0987C40.2266 48.9507 40.2266 51.173 40.2266 54.5066L40.3469 73.767C40.3469 76.1128 41.7906 77.5944 44.0766 77.5944H49.3703C51.5359 77.5944 52.9797 76.1128 52.9797 73.8905C52.9797 67.4703 52.9797 53.6423 52.9797 47.0987C52.8594 44.8764 51.4156 43.3948 49.3703 43.3948ZM49.8516 73.8905C49.8516 74.3843 49.7312 74.5078 49.25 74.5078H43.9562C43.3547 74.5078 43.2344 74.3843 43.2344 73.767V54.5066C43.2344 51.173 43.2344 48.9507 43.2344 47.0987C43.2344 46.6049 43.3547 46.4814 43.8359 46.4814H49.3703C49.8516 46.4814 49.9719 46.6049 49.9719 47.0987C49.8516 53.5189 49.8516 67.3469 49.8516 73.8905Z" fill="#0F63FB"/>
<path d="M19.291 61.6675H13.877C11.7113 61.6675 10.2676 63.1491 10.2676 65.3714V69.5692V73.767C10.2676 75.9894 11.7113 77.4709 13.877 77.4709H19.1707C21.3363 77.4709 22.7801 75.9894 22.7801 73.6435V65.3714C22.9004 63.1491 21.4566 61.6675 19.291 61.6675ZM19.8926 73.767C19.8926 74.3843 19.7723 74.5078 19.291 74.5078H13.877C13.2754 74.5078 13.2754 74.3843 13.2754 73.8905V69.6927V65.6183C13.2754 65.1245 13.3957 65.001 13.877 65.001H19.291C19.7723 65.001 19.8926 65.1245 19.8926 65.6183V73.767Z" fill="#0F63FB"/>
<path d="M43.7158 27.2208L46.0018 28.2085C46.2424 28.3319 46.6033 28.3319 46.844 28.3319C47.3252 28.3319 47.6862 28.2085 48.0471 27.9616C48.6487 27.4677 49.0096 26.7269 48.8893 25.9861L47.9268 17.8375C47.8065 17.0967 47.3252 16.4794 46.7237 16.109C46.0018 15.862 45.2799 15.862 44.6783 16.3559L38.3018 21.171C37.7002 21.6649 37.3393 22.4057 37.4596 23.1464C37.5799 23.8872 38.0612 24.5046 38.6627 24.8749L40.9487 25.8627C34.933 40.1845 23.9846 49.4444 8.34397 53.2718C7.50179 53.5187 7.02054 54.2595 7.26116 55.1237C7.38147 55.8645 7.98303 56.3584 8.70491 56.3584C8.82522 56.3584 8.94553 56.3584 9.06585 56.3584C25.669 52.284 37.3393 42.5303 43.7158 27.2208ZM45.0393 19.9364L45.5205 24.7515L41.1893 22.7761L45.0393 19.9364Z" fill="#FFCC00"/>
</svg>
