<svg width="84" height="19" viewBox="0 0 84 19" fill="none" xmlns="http://www.w3.org/2000/svg">
<g clip-path="url(#clip0_1200_9901)">
<path d="M46.5011 13.1855V14.4282H37.6836V0.730225H38.9552V13.1855H46.5011ZM83.1628 10.2164C83.5352 10.648 83.7269 11.2118 83.6967 11.7864C83.7173 12.3921 83.5087 12.9828 83.1165 13.437C82.7287 13.879 82.2321 14.2065 81.6783 14.3855C81.1046 14.5845 80.5023 14.6839 79.8964 14.6796C79.1281 14.6975 78.3627 14.5622 77.6451 14.2812C77.0472 14.0336 76.5014 13.6696 76.0394 13.2093L75.9329 13.0955L76.7262 12.2037L76.8474 12.3271C77.2095 12.6988 77.6399 12.9938 78.1137 13.195C78.6572 13.4089 79.2353 13.512 79.817 13.4987C80.2614 13.5033 80.7043 13.4411 81.1304 13.3136C81.4778 13.2146 81.7966 13.0307 82.058 12.7776C82.1667 12.6647 82.2512 12.5303 82.3078 12.3827C82.3636 12.2351 82.3893 12.0774 82.3834 11.9192C82.3989 11.7484 82.379 11.5763 82.3276 11.4133C82.2762 11.2503 82.1925 11.0997 82.0823 10.9705C81.8032 10.7138 81.4668 10.5313 81.1024 10.4394C80.6382 10.297 80.0719 10.1453 79.4042 9.96497C78.8945 9.84775 78.3943 9.68913 77.9095 9.4907C77.4784 9.31941 77.1015 9.03069 76.8195 8.65593C76.5272 8.22948 76.3832 7.71497 76.4104 7.19503C76.3913 6.63829 76.5749 6.09405 76.926 5.66777C77.2764 5.2561 77.7281 4.94813 78.2342 4.77608C78.7821 4.5823 79.3587 4.48603 79.9375 4.49149C80.6125 4.48166 81.2824 4.62587 81.8964 4.91363C82.429 5.16913 82.9027 5.53591 83.2884 5.9903L83.3905 6.11363L82.5369 6.89623L82.4297 6.77766C82.1286 6.44136 81.7694 6.16339 81.372 5.9571C80.9247 5.74346 80.4355 5.63951 79.9426 5.65355C79.5688 5.65317 79.1971 5.69614 78.8328 5.78161C78.5089 5.85783 78.2114 6.02164 77.9697 6.25592C77.8522 6.39183 77.7633 6.5505 77.7075 6.72246C77.6524 6.89443 77.6311 7.07616 77.6451 7.2567C77.6385 7.41036 77.6679 7.56349 77.7296 7.70358C77.7913 7.8437 77.8853 7.96689 78.0028 8.06301C78.3054 8.30443 78.6528 8.48177 79.0238 8.58473C79.4601 8.71757 79.9096 8.8409 80.3643 8.94523C80.8769 9.05834 81.3808 9.20731 81.8729 9.39105C82.3585 9.56083 82.7984 9.84329 83.1583 10.2164H83.1628ZM74.1789 5.682C74.7592 6.60756 75.0412 7.69561 74.9861 8.79345V14.4282H73.7606V9.08282C73.7897 8.36541 73.6841 7.64892 73.45 6.97212C73.3018 6.54174 73 6.18433 72.6051 5.97133C72.1683 5.76956 71.6927 5.67068 71.2131 5.682C70.5633 5.65857 69.9254 5.86089 69.4031 6.25592C68.9288 6.63786 68.5584 7.13748 68.3265 7.70731C68.0983 8.25655 67.9785 8.84652 67.9738 9.44325V14.4282H66.7578V5.72944C66.7578 5.49228 66.7578 5.22192 66.7163 4.9326V4.75236H67.8855V4.89939C67.9133 5.20295 67.9275 5.4733 67.937 5.71521C67.937 5.8575 67.937 6.04722 67.937 6.30335C68.0479 6.14682 68.1735 5.9903 68.3171 5.82904C68.6574 5.44916 69.0634 5.13715 69.5146 4.90888C70.0814 4.63624 70.7033 4.50459 71.3293 4.5247C72.6751 4.5247 73.6498 4.92311 74.1833 5.70098L74.1789 5.682ZM60.9057 9.39581C61.4357 9.39113 61.9657 9.41489 62.4934 9.46701C62.7957 9.49747 63.0964 9.54499 63.3933 9.60929V10.7951C63.388 11.2611 63.2404 11.7138 62.9712 12.0899C62.6778 12.5177 62.29 12.8687 61.8389 13.1145C61.3575 13.3852 60.815 13.5225 60.2654 13.5128C59.6973 13.5373 59.1353 13.3835 58.6552 13.0717C58.4511 12.9184 58.2892 12.7139 58.1852 12.4779C58.081 12.2419 58.0384 11.9825 58.0612 11.7246C58.066 11.4759 58.094 11.2281 58.1447 10.9848C58.2098 10.7126 58.3352 10.4595 58.5114 10.2448C58.7465 9.97706 59.0431 9.7733 59.3745 9.65198C59.8696 9.47033 60.3941 9.38817 60.9199 9.41006L60.9057 9.39581ZM64.6324 13.6789C64.6324 13.5128 64.6324 13.3136 64.6324 13.0717V8.00613C64.6324 6.76344 64.2844 5.86225 63.6068 5.31678C62.7644 4.72552 61.7487 4.44607 60.7296 4.5247C59.491 4.49835 58.2853 4.93329 57.3372 5.74841L57.2305 5.85276L57.8987 6.73495L58.0287 6.62587C58.3347 6.3796 58.6681 6.17105 59.0218 6.00453C59.5667 5.76768 60.1569 5.65906 60.748 5.68675C61.4428 5.63551 62.1353 5.817 62.7204 6.20374C63.1847 6.5547 63.375 7.2045 63.375 8.16741V8.49941C63.1011 8.45671 62.7857 8.41877 62.4465 8.38557C62.006 8.34763 61.5187 8.32394 60.9384 8.32394C60.1214 8.29658 59.3092 8.45873 58.5624 8.79821C57.9982 9.05913 57.5276 9.49358 57.2165 10.0409C56.9338 10.5699 56.7899 11.1647 56.7989 11.7674C56.7691 12.3998 56.9508 13.0237 57.314 13.5365C57.6508 13.9623 58.1052 14.2747 58.618 14.433C59.1197 14.5937 59.6424 14.6753 60.1682 14.6748C60.5624 14.6705 60.955 14.6179 61.3373 14.5184C61.7873 14.4038 62.2141 14.2113 62.6001 13.9492C62.9138 13.7399 63.1935 13.4822 63.4307 13.1855V13.6314C63.4307 13.8733 63.4307 14.1057 63.4585 14.2812V14.433H64.6324V13.6789ZM50.8077 13.5128C50.1657 13.5167 49.5367 13.3287 48.9977 12.9721C48.4508 12.6156 47.9981 12.127 47.6798 11.5493C47.354 10.9571 47.1845 10.2885 47.1879 9.60929C47.1775 8.92061 47.3371 8.24035 47.6519 7.6314C47.958 7.0491 48.4075 6.5586 48.956 6.20849C49.5125 5.85501 50.1572 5.6738 50.8124 5.68675C51.4587 5.68236 52.0924 5.87023 52.6362 6.22746C53.1771 6.58692 53.6246 7.0752 53.9402 7.65036C54.2665 8.24402 54.4361 8.9142 54.432 9.59503C54.4419 10.2821 54.2823 10.9607 53.9681 11.5682C53.662 12.1505 53.2125 12.641 52.664 12.9911C52.1069 13.3423 51.462 13.5203 50.8077 13.5033V13.5128ZM55.0261 7.02907C54.6 6.27747 53.9971 5.64654 53.2719 5.19347C52.5277 4.74642 51.6802 4.51071 50.817 4.51071C49.9538 4.51071 49.1062 4.74642 48.362 5.19347C47.6302 5.64257 47.0218 6.27414 46.5938 7.02907C46.1561 7.8077 45.9317 8.69237 45.9442 9.59028C45.9317 10.4882 46.1561 11.3729 46.5938 12.1515C47.0122 12.9122 47.6125 13.552 48.3388 14.0109C49.0829 14.4579 49.9305 14.6936 50.7938 14.6936C51.657 14.6936 52.5045 14.4579 53.2487 14.0109C53.9739 13.5578 54.5768 12.9268 55.0029 12.1753C55.4399 11.3962 55.6658 10.5121 55.6573 9.61404C55.6658 8.71605 55.4399 7.83189 55.0029 7.05276" fill="#5D5E86"/>
<path d="M29.1001 9.37665V11.9095C29.6022 12.1954 30.1738 12.3286 30.7475 12.2937C31.0607 12.3101 31.3734 12.2528 31.6614 12.1262C31.9495 11.9995 32.2052 11.8069 32.4089 11.5632C32.8291 11.0266 33.045 10.3527 33.0169 9.66602C33.0213 9.26246 32.9569 8.8612 32.8266 8.48018C32.7113 8.12457 32.4987 7.81022 32.214 7.57427C31.8829 7.32989 31.4803 7.20779 31.0724 7.22806C30.7933 7.2097 30.5139 7.25951 30.2572 7.37332C30.0006 7.48715 29.7742 7.66168 29.5966 7.88258C29.2687 8.30306 29.0904 8.82477 29.0908 9.36247L29.1001 9.37665ZM26.2553 18.5024V4.89919H28.998C29.0258 5.0652 29.0444 5.24544 29.0583 5.41619L29.1001 5.94741C29.4107 5.55137 29.8125 5.24013 30.2695 5.04149C30.8812 4.78258 31.5459 4.68176 32.2048 4.74794C32.8637 4.81413 33.4964 5.04528 34.0471 5.42094C34.6662 5.87962 35.1483 6.50533 35.4394 7.22806C35.7474 7.97899 35.9052 8.78539 35.9034 9.59956C35.9201 10.3885 35.7747 11.1722 35.4765 11.9C35.2162 12.5138 34.8263 13.0613 34.3348 13.5032C33.8772 13.9204 33.3444 14.2426 32.7663 14.4518C32.2103 14.6533 31.6251 14.7575 31.0352 14.76C30.6603 14.7689 30.2859 14.7274 29.9215 14.6368C29.6292 14.5561 29.3646 14.4707 29.1279 14.3948V18.5261L26.2553 18.5024ZM18.3149 9.37665V11.9095C18.8185 12.196 19.3917 12.3293 19.9671 12.2937C20.28 12.3091 20.5924 12.2513 20.8804 12.1247C21.1682 11.9981 21.4241 11.8061 21.6285 11.5632C22.0469 11.026 22.2613 10.3521 22.2317 9.66602C22.2354 9.26289 22.1727 8.86207 22.0461 8.48018C21.9298 8.11989 21.7158 7.80086 21.4289 7.56005C21.0978 7.31567 20.6952 7.19357 20.2872 7.21384C20.0083 7.19753 19.7297 7.24973 19.4745 7.36607C19.2194 7.48247 18.9952 7.65952 18.8207 7.88258C18.4912 8.30234 18.3113 8.82427 18.3103 9.36247L18.3149 9.37665ZM15.4702 18.5024V4.89919H18.2175C18.2407 5.0652 18.2593 5.24544 18.2732 5.41619L18.3149 5.94741C18.6264 5.55018 19.0299 5.23876 19.489 5.04149C19.9626 4.83386 20.4727 4.72734 20.988 4.72844C21.8028 4.69674 22.6052 4.94009 23.2713 5.42094C23.8908 5.87925 24.3728 6.50508 24.6635 7.22806C24.9714 7.97906 25.1292 8.78539 25.1275 9.59956C25.1443 10.3885 24.9989 11.1722 24.7006 11.9C24.4403 12.5138 24.0505 13.0613 23.559 13.5032C23.0997 13.9205 22.5653 14.2427 21.9858 14.4518C21.4299 14.6537 20.8447 14.7579 20.2548 14.76C19.8798 14.7686 19.5054 14.7271 19.141 14.6368C18.8533 14.5577 18.5888 14.4771 18.3474 14.3948V18.5261L15.4702 18.5024ZM7.50198 11.8905C8.21787 11.9099 8.92242 11.7047 9.52075 11.3024C10.0808 10.9109 10.5267 10.3716 10.8108 9.74191C11.1213 9.0754 11.28 8.34561 11.2749 7.6075C11.2803 6.87233 11.1216 6.1456 10.8108 5.4826C10.5279 4.85583 10.0816 4.32083 9.52075 3.93635C8.92065 3.53906 8.21669 3.33728 7.50198 3.3577C6.79197 3.34016 6.09329 3.54182 5.49715 3.93635C4.93465 4.31883 4.48401 4.84989 4.1931 5.47311C3.88214 6.13606 3.72341 6.86284 3.72902 7.59803C3.72428 8.33618 3.88293 9.06583 4.1931 9.7324C4.48178 10.3648 4.93236 10.9056 5.49715 11.2976C6.09544 11.6999 6.79998 11.9052 7.51585 11.8858L7.50198 11.8905ZM7.51585 14.7695C6.58187 14.7795 5.65542 14.5972 4.79175 14.2336C3.9654 13.8815 3.21599 13.3645 2.5873 12.7131C1.95862 12.0615 1.46327 11.2885 1.1302 10.4391C0.779201 9.55003 0.601081 8.59948 0.60579 7.64069C0.596913 6.6778 0.771888 5.72244 1.12092 4.82804C1.45504 3.98232 1.94858 3.21198 2.57347 2.56085C3.19907 1.90849 3.94731 1.39222 4.77319 1.04307C5.6406 0.681132 6.56971 0.498948 7.5066 0.507098C8.43896 0.499065 9.36349 0.681279 10.2261 1.04307C11.0521 1.39674 11.8014 1.91415 12.4307 2.56542C13.0599 3.2167 13.5567 3.98893 13.8923 4.83753C14.2413 5.73193 14.4163 6.68734 14.4074 7.65016C14.4163 8.61151 14.2413 9.56536 13.8923 10.4581C13.5578 11.3073 13.0614 12.0802 12.432 12.7316C11.8026 13.383 11.0528 13.9 10.2261 14.2526C9.36239 14.6162 8.43595 14.7985 7.50198 14.7885" fill="#5D5E86"/>
</g>
<defs>
<clipPath id="clip0_1200_9901">
<rect width="83" height="18" fill="white" transform="translate(0.605469 0.507324)"/>
</clipPath>
</defs>
</svg>
