<svg width="75" height="19" viewBox="0 0 75 19" fill="none" xmlns="http://www.w3.org/2000/svg">
<g clip-path="url(#clip0_1200_9905)">
<path d="M34.4417 3.98826C34.4417 5.63433 34.4129 6.98991 34.3841 6.98991C34.3554 6.98991 34.1541 6.83499 33.9336 6.65102C32.7738 5.64401 30.943 5.39226 29.3613 6.02164C27.9139 6.6026 26.802 7.95819 26.3323 9.70109C26.1119 10.5435 26.1023 12.3251 26.3227 13.1869C26.7541 14.8523 27.7031 16.1014 29.0354 16.7405L29.7927 17.1084H31.0867C32.3041 17.1084 32.4095 17.089 32.9176 16.8373C33.2147 16.692 33.6556 16.4016 33.8953 16.1885C34.1349 15.9755 34.3554 15.8012 34.3841 15.8012C34.4129 15.8012 34.4417 16.0627 34.4417 16.3822V16.9728L35.9562 16.9438L37.4611 16.9147L37.4898 8.94583L37.509 0.986603H35.9753H34.4417V3.98826ZM32.9942 8.79091C33.4831 8.99425 34.0103 9.54616 34.2691 10.1271C34.5471 10.7662 34.5759 11.9572 34.317 12.5962C33.8761 13.6807 32.9751 14.3004 31.8632 14.2907C30.8471 14.281 30.1186 13.8163 29.6585 12.8867C29.3901 12.3542 29.3613 12.1896 29.3613 11.4343C29.3613 10.6694 29.3901 10.5338 29.6777 9.98189C30.3007 8.75218 31.7098 8.24867 32.9942 8.79091Z" fill="#5D5E86"/>
<path d="M62.8644 1.10278C62.8356 1.17056 62.826 4.75318 62.8356 9.07169L62.8644 16.9147H64.3981H65.9317L65.9797 14.9782L66.0276 13.0513L66.6219 12.6349L67.2066 12.2186L68.5294 14.5909L69.8426 16.9631H71.5009H73.1688V16.7114C73.1688 16.5177 71.9227 14.1164 71.1079 12.7511C70.4082 11.5698 69.9001 10.5435 69.9768 10.4951C70.0343 10.4563 70.6478 10.0303 71.338 9.55583L72.5841 8.68438L72.5937 6.85434C72.5937 5.26636 72.5745 5.04366 72.4499 5.09207C72.3732 5.12112 70.9066 6.1475 69.1908 7.37721C67.4846 8.59723 66.0659 9.60424 66.0372 9.60424C66.0084 9.60424 65.9701 7.67737 65.9605 5.31478L65.9317 1.035L64.4172 1.00595C63.267 0.986586 62.8931 1.00595 62.8644 1.10278Z" fill="#5D5E86"/>
<path d="M43.884 5.7214C41.5164 6.10871 39.791 7.65795 39.2734 9.85594C39.0817 10.6596 39.0625 12.0539 39.2255 12.8479C39.6472 14.8619 41.2097 16.4983 43.213 17.0115C43.9607 17.2052 45.7244 17.2052 46.4625 17.0115C47.2485 16.7985 48.2071 16.2659 48.8589 15.685L49.4148 15.1911L48.4275 14.1938L47.4402 13.1868L47.0472 13.5741C46.4721 14.1357 45.849 14.3875 44.9863 14.3875C44.3825 14.3972 44.1812 14.3487 43.7211 14.126C43.1459 13.8452 42.6858 13.3514 42.4462 12.7608C42.3695 12.5768 42.3024 12.3928 42.3024 12.3638C42.3024 12.3347 44.047 12.3154 46.1749 12.3154C50.5747 12.3154 50.1625 12.4122 50.1625 11.3955C50.1625 8.69401 48.6097 6.48634 46.2804 5.88601C45.5327 5.70203 44.4879 5.62457 43.884 5.7214ZM45.849 8.74242C46.2708 8.97481 46.7309 9.54609 46.8555 9.96245L46.913 10.1852H44.6125H42.3024L42.5325 9.72038C43.1651 8.4713 44.6029 8.04526 45.849 8.74242Z" fill="#5D5E86"/>
<path d="M56.1543 5.73118C53.9017 6.05071 52.205 7.53218 51.5436 9.74953C51.419 10.1659 51.3711 10.65 51.3711 11.444C51.3711 13.1966 51.86 14.4747 52.9719 15.5979C54.0934 16.7308 55.4258 17.2053 57.3045 17.1375C58.6465 17.0891 59.2504 16.8857 60.276 16.1498C60.8607 15.7238 61.5988 14.9589 61.5509 14.8233C61.5317 14.7942 61.0716 14.3392 60.5252 13.8357L59.5283 12.9061L58.9628 13.429C57.1224 15.1525 54.5343 13.9906 54.5343 11.444C54.5343 8.90713 57.1224 7.73551 58.9628 9.45904L59.5188 9.98191L60.5732 8.97491L61.618 7.97758L61.0908 7.42566C60.8032 7.11582 60.3431 6.72851 60.0651 6.54453C59.0491 5.87642 57.4579 5.54721 56.1543 5.73118Z" fill="#5D5E86"/>
<path d="M5.87777 5.79938C4.77544 5.98335 3.5485 6.64178 2.80083 7.45513C0.538655 9.89518 0.835806 14.0491 3.40472 16.0147C4.52622 16.8765 5.72441 17.2057 7.3827 17.1379C10.0379 17.0217 12.0029 15.4531 12.6355 12.9453C12.8177 12.219 12.8177 10.7085 12.6355 9.91455C12.0317 7.34862 9.827 5.70255 7.03762 5.74128C6.52959 5.75096 6.01197 5.78001 5.87777 5.79938ZM8.14954 8.80103C9.51068 9.37232 10.1337 11.2701 9.43399 12.7516C8.9643 13.778 8.19746 14.2427 7.02803 14.2524C5.84902 14.2524 5.07259 13.778 4.61249 12.7516C4.30575 12.0641 4.30575 10.815 4.62207 10.1663C5.27389 8.81072 6.7884 8.22007 8.14954 8.80103Z" fill="#5D5E86"/>
<path d="M19.5363 5.89565C18.8941 6.12803 18.2614 6.51534 17.9163 6.88329C17.7534 7.04789 17.6 7.18345 17.5521 7.18345C17.5138 7.18345 17.4754 6.92202 17.4754 6.60249V6.02152H15.9897H14.5039V11.4439V16.8662H15.9897H17.4754V13.6419C17.4754 10.1173 17.5233 9.71065 18.0122 9.1781C18.8941 8.22919 20.5428 8.38411 21.185 9.47827L21.4534 9.94304L21.4821 13.3998L21.5109 16.8662H22.9871H24.4728V13.1577C24.4728 9.14905 24.4153 8.57777 23.9456 7.60949C23.6101 6.9317 23.035 6.34105 22.3832 6.04089C21.6547 5.70199 20.2648 5.63421 19.5363 5.89565Z" fill="#5D5E86"/>
</g>
<defs>
<clipPath id="clip0_1200_9905">
<rect width="74" height="18" fill="white" transform="translate(0.605469 0.507324)"/>
</clipPath>
</defs>
</svg>
