<svg width="25" height="25" viewBox="0 0 25 25" fill="none" xmlns="http://www.w3.org/2000/svg">
<g clip-path="url(#clip0_910_525)">
<path d="M14.1675 12.0494C14.1675 13.2191 13.2192 14.1674 12.0495 14.1674C10.8797 14.1674 9.9314 13.2191 9.9314 12.0494C9.9314 10.8797 10.8797 9.93134 12.0495 9.93134C13.2192 9.93134 14.1675 10.8797 14.1675 12.0494Z" fill="#FFE600"/>
<path d="M15.6266 5.64815H8.47227C6.91498 5.64815 5.64819 6.91494 5.64819 8.47222V15.6265C5.64819 17.1838 6.91498 18.4506 8.47227 18.4506H15.6266C17.1839 18.4506 18.4507 17.1838 18.4507 15.6265V8.47222C18.4507 6.91494 17.1839 5.64815 15.6266 5.64815ZM12.0494 15.5795C10.1029 15.5795 8.51934 13.9959 8.51934 12.0494C8.51934 10.1029 10.1029 8.51929 12.0494 8.51929C13.9959 8.51929 15.5795 10.1029 15.5795 12.0494C15.5795 13.9959 13.9959 15.5795 12.0494 15.5795ZM16.0973 8.70756C15.7073 8.70756 15.3912 8.39151 15.3912 8.00154C15.3912 7.61158 15.7073 7.29552 16.0973 7.29552C16.4872 7.29552 16.8033 7.61158 16.8033 8.00154C16.8033 8.39151 16.4872 8.70756 16.0973 8.70756Z" fill="#FFE600"/>
<path d="M17.7446 0H6.35417C2.85055 0 0 2.85055 0 6.35417V17.7446C0 21.2482 2.85055 24.0988 6.35417 24.0988H17.7446C21.2482 24.0988 24.0988 21.2482 24.0988 17.7446V6.35417C24.0988 2.85055 21.2482 0 17.7446 0ZM19.8627 15.6265C19.8627 17.9623 17.9623 19.8627 15.6265 19.8627H8.47222C6.13648 19.8627 4.23611 17.9623 4.23611 15.6265V8.47222C4.23611 6.13648 6.13648 4.23611 8.47222 4.23611H15.6265C17.9623 4.23611 19.8627 6.13648 19.8627 8.47222V15.6265Z" fill="#FFE600"/>
</g>
<defs>
<clipPath id="clip0_910_525">
<rect width="24.0988" height="24.0988" fill="white"/>
</clipPath>
</defs>
</svg>
