<svg width="374" height="486" viewBox="0 0 374 486" fill="none" xmlns="http://www.w3.org/2000/svg">
<path fill-rule="evenodd" clip-rule="evenodd" d="M348 196H338V151C338 110.952 322.091 72.5449 293.773 44.2269C265.455 15.9089 227.048 0 187 0C146.952 0 108.545 15.9089 80.2269 44.2269C51.9089 72.5449 36 110.952 36 151V196H27C12 196 0 211 0 229V452C0 471 12 486 27 486H348C362 486 374 471 374 452V229C374 211 362 196 348 196ZM217 340V408C217 415 211 422 203 422H171C164 422 157 415 157 408V340C151.287 334.584 147.299 327.602 145.535 319.929C143.772 312.256 144.313 304.234 147.089 296.867C149.865 289.5 154.753 283.116 161.141 278.514C167.529 273.913 175.133 271.299 183 271H192C213 272 229 290 229 312C229 323 225 333 217 340ZM276 196H99V151C99 102 139 62 187 62C236 62 276 102 276 151V196Z" fill="#3B8DF2"/>
</svg>
