<svg width="152" height="29" viewBox="0 0 152 29" fill="none" xmlns="http://www.w3.org/2000/svg">
<path d="M5.9456 10.4601L2.47483 5.82562V2.30856C2.47483 2.24471 2.53962 2.20915 2.59006 2.23707C3.55566 2.77163 4.53175 3.52753 5.52573 4.36411C5.95693 4.72702 6.39319 5.10664 6.83315 5.48946C7.40287 5.9852 7.97877 6.48632 8.55787 6.96353C10.5886 8.63692 12.7155 10.0668 14.9727 10.1009V12.3103L5.9456 10.4601Z" fill="url(#paint0_linear_129_3462)" stroke="url(#paint1_linear_129_3462)" stroke-width="0.164989" stroke-linejoin="round"/>
<path d="M24.165 10.4601L27.6358 5.82562V2.30856C27.6358 2.24471 27.571 2.20915 27.5205 2.23707C26.5549 2.77163 25.5789 3.52753 24.5849 4.36411C24.1537 4.72702 23.7174 5.10664 23.2774 5.48946C22.7077 5.9852 22.1318 6.48632 21.5527 6.96353C19.522 8.63692 17.3951 10.0668 15.1379 10.1009V12.3103L24.165 10.4601Z" fill="url(#paint2_linear_129_3462)" stroke="url(#paint3_linear_129_3462)" stroke-width="0.164989" stroke-linejoin="round"/>
<mask id="path-3-inside-1_129_3462" fill="white">
<path fill-rule="evenodd" clip-rule="evenodd" d="M15.0553 12.1134C16.0595 12.1005 17.008 11.7435 18.3745 11.1117C20.5426 10.1095 25.1279 6.92418 27.2397 5.45722C27.689 5.14505 28.0264 4.91069 28.2046 4.79174C29.2203 4.11383 30.1105 4.70045 30.1105 5.90082L29.9042 18.3346C29.9042 19.1371 29.4213 19.8442 28.8009 20.4412C28.1804 21.0383 21.3399 25.4615 19.0061 26.5438C17.7121 27.1438 16.3985 27.5448 15.0553 27.5978V12.1134Z"/>
</mask>
<path fill-rule="evenodd" clip-rule="evenodd" d="M15.0553 12.1134C16.0595 12.1005 17.008 11.7435 18.3745 11.1117C20.5426 10.1095 25.1279 6.92418 27.2397 5.45722C27.689 5.14505 28.0264 4.91069 28.2046 4.79174C29.2203 4.11383 30.1105 4.70045 30.1105 5.90082L29.9042 18.3346C29.9042 19.1371 29.4213 19.8442 28.8009 20.4412C28.1804 21.0383 21.3399 25.4615 19.0061 26.5438C17.7121 27.1438 16.3985 27.5448 15.0553 27.5978V12.1134Z" fill="url(#paint4_linear_129_3462)"/>
<path d="M15.0553 12.1134H14.849V11.9097L15.0526 11.9071L15.0553 12.1134ZM18.3745 11.1117L18.4611 11.2989V11.2989L18.3745 11.1117ZM27.2397 5.45722L27.122 5.28784L27.2397 5.45722ZM28.2046 4.79174L28.0901 4.6202L28.2046 4.79174ZM30.1105 5.90082H30.3167L30.3167 5.90424L30.1105 5.90082ZM29.9042 18.3346H29.698L29.698 18.3311L29.9042 18.3346ZM28.8009 20.4412L28.9439 20.5898L28.8009 20.4412ZM19.0061 26.5438L19.0928 26.7309L19.0061 26.5438ZM15.0553 27.5978L15.0634 27.8039L14.849 27.8124V27.5978H15.0553ZM15.0526 11.9071C16.0087 11.8949 16.9216 11.5562 18.288 10.9245L18.4611 11.2989C17.0943 11.9308 16.1103 12.3061 15.0579 12.3196L15.0526 11.9071ZM18.288 10.9245C19.3561 10.4308 21.0322 9.39229 22.715 8.28639C24.3938 7.18307 26.066 6.02144 27.122 5.28784L27.3573 5.6266C26.3016 6.35996 24.6253 7.52446 22.9415 8.63108C21.2616 9.73512 19.5611 10.7904 18.4611 11.2989L18.288 10.9245ZM27.122 5.28784C27.5703 4.97639 27.9099 4.74052 28.0901 4.6202L28.3191 4.96328C28.143 5.08086 27.8078 5.3137 27.3573 5.6266L27.122 5.28784ZM28.0901 4.6202C28.6436 4.25082 29.2082 4.20041 29.6454 4.46559C30.0758 4.72664 30.3167 5.25443 30.3167 5.90082H29.9042C29.9042 5.34684 29.7 4.98113 29.4315 4.81826C29.1697 4.65952 28.7814 4.65475 28.3191 4.96328L28.0901 4.6202ZM30.3167 5.90424L30.1104 18.338L29.698 18.3311L29.9043 5.8974L30.3167 5.90424ZM30.1105 18.3346C30.1105 19.222 29.5778 19.9799 28.9439 20.5898L28.6579 20.2926C29.2649 19.7085 29.698 19.0522 29.698 18.3346H30.1105ZM28.9439 20.5898C28.8538 20.6765 28.6665 20.8195 28.4178 20.998C28.1646 21.1799 27.8355 21.4071 27.4521 21.6655C26.6851 22.1823 25.6973 22.8261 24.6562 23.4848C22.5788 24.7993 20.274 26.1831 19.0928 26.7309L18.9193 26.3567C20.072 25.8221 22.3543 24.4532 24.4357 23.1363C25.4741 22.4792 26.4586 21.8376 27.2216 21.3234C27.6032 21.0662 27.9286 20.8415 28.1773 20.663C28.4306 20.4811 28.5928 20.3552 28.6579 20.2926L28.9439 20.5898ZM19.0928 26.7309C17.7832 27.3382 16.4423 27.7495 15.0634 27.8039L15.0471 27.3918C16.3547 27.3402 17.641 26.9495 18.9193 26.3567L19.0928 26.7309ZM14.849 27.5978V12.1134H15.2615V27.5978H14.849Z" fill="url(#paint5_linear_129_3462)" mask="url(#path-3-inside-1_129_3462)"/>
<mask id="path-5-inside-2_129_3462" fill="white">
<path fill-rule="evenodd" clip-rule="evenodd" d="M15.0552 12.1134C14.051 12.1005 13.1025 11.7435 11.7359 11.1117C9.56785 10.1095 4.98254 6.92418 2.87081 5.45722C2.42142 5.14505 2.08406 4.91069 1.90584 4.79174C0.890137 4.11383 0 4.70045 0 5.90082L0.206236 18.3346C0.206236 19.1371 0.689143 19.8442 1.30962 20.4412C1.93009 21.0383 8.77059 25.4615 11.1044 26.5438C12.3984 27.1438 13.712 27.5448 15.0552 27.5978V12.1134Z"/>
</mask>
<path fill-rule="evenodd" clip-rule="evenodd" d="M15.0552 12.1134C14.051 12.1005 13.1025 11.7435 11.7359 11.1117C9.56785 10.1095 4.98254 6.92418 2.87081 5.45722C2.42142 5.14505 2.08406 4.91069 1.90584 4.79174C0.890137 4.11383 0 4.70045 0 5.90082L0.206236 18.3346C0.206236 19.1371 0.689143 19.8442 1.30962 20.4412C1.93009 21.0383 8.77059 25.4615 11.1044 26.5438C12.3984 27.1438 13.712 27.5448 15.0552 27.5978V12.1134Z" fill="url(#paint6_linear_129_3462)"/>
<path d="M15.0552 12.1134H15.2615V11.9097L15.0579 11.9071L15.0552 12.1134ZM11.7359 11.1117L11.6494 11.2989V11.2989L11.7359 11.1117ZM2.87081 5.45722L2.98847 5.28784L2.87081 5.45722ZM1.90584 4.79174L2.02033 4.6202L1.90584 4.79174ZM0 5.90082H-0.206264L-0.206207 5.90424L0 5.90082ZM0.206236 18.3346H0.4125L0.412443 18.3311L0.206236 18.3346ZM1.30962 20.4412L1.16661 20.5898L1.30962 20.4412ZM11.1044 26.5438L11.0176 26.7309L11.1044 26.5438ZM15.0552 27.5978L15.0471 27.8039L15.2615 27.8124V27.5978H15.0552ZM15.0579 11.9071C14.1018 11.8949 13.1888 11.5562 11.8225 10.9245L11.6494 11.2989C13.0162 11.9308 14.0002 12.3061 15.0526 12.3196L15.0579 11.9071ZM11.8225 10.9245C10.7544 10.4308 9.07823 9.39229 7.39551 8.28639C5.71672 7.18307 4.04451 6.02144 2.98847 5.28784L2.75315 5.6266C3.80885 6.35996 5.48515 7.52446 7.16897 8.63108C8.84886 9.73512 10.5494 10.7904 11.6494 11.2989L11.8225 10.9245ZM2.98847 5.28784C2.54013 4.97639 2.2006 4.74052 2.02033 4.6202L1.79135 4.96328C1.96752 5.08086 2.30272 5.3137 2.75315 5.6266L2.98847 5.28784ZM2.02033 4.6202C1.46689 4.25082 0.902323 4.20041 0.465085 4.46559C0.0346408 4.72664 -0.206236 5.25443 -0.206236 5.90082H0.206236C0.206236 5.34684 0.410428 4.98113 0.678977 4.81826C0.940732 4.65952 1.32909 4.65475 1.79135 4.96328L2.02033 4.6202ZM-0.206207 5.90424L2.8379e-05 18.338L0.412443 18.3311L0.206207 5.8974L-0.206207 5.90424ZM1.49012e-08 18.3346C1.49012e-08 19.222 0.532717 19.9799 1.16661 20.5898L1.45262 20.2926C0.845569 19.7085 0.412472 19.0522 0.412472 18.3346H1.49012e-08ZM1.16661 20.5898C1.25672 20.6765 1.44397 20.8195 1.69262 20.998C1.9459 21.1799 2.27497 21.4071 2.65837 21.6655C3.42535 22.1823 4.41322 22.8261 5.45423 23.4848C7.53167 24.7993 9.8365 26.1831 11.0176 26.7309L11.1912 26.3567C10.0385 25.8221 7.75617 24.4532 5.67478 23.1363C4.63638 22.4792 3.65192 21.8376 2.88887 21.3234C2.50725 21.0662 2.18188 20.8415 1.93319 20.663C1.67987 20.4811 1.51763 20.3552 1.45262 20.2926L1.16661 20.5898ZM11.0176 26.7309C12.3273 27.3382 13.6682 27.7495 15.0471 27.8039L15.0633 27.3918C13.7557 27.3402 12.4695 26.9495 11.1912 26.3567L11.0176 26.7309ZM15.2615 27.5978V12.1134H14.849V27.5978H15.2615Z" fill="url(#paint7_linear_129_3462)" mask="url(#path-5-inside-2_129_3462)"/>
<path d="M3.32506 15.6495C4.07288 15.6495 4.63375 15.0597 4.63375 13.9488C4.63375 12.9769 4.01057 12.248 3.32506 12.248C2.38873 12.248 2.05762 13.0579 2.05762 13.9488C2.05762 14.8396 2.63956 15.6495 3.32506 15.6495Z" fill="url(#paint8_linear_129_3462)"/>
<path d="M50.8206 7.48885V10.1256H47.2407V21H43.9495V10.1256H40.3696V7.48885H50.8206ZM55.956 12.0503C56.3409 11.4601 56.8221 10.9982 57.3995 10.6646C57.9769 10.3181 58.6184 10.1449 59.3241 10.1449V13.6285H58.4195C57.5983 13.6285 56.9824 13.8082 56.5719 14.1674C56.1613 14.5139 55.956 15.1298 55.956 16.0151V21H52.6648V10.2604H55.956V12.0503ZM62.7449 9.14406C62.1675 9.14406 61.6928 8.97726 61.3207 8.64365C60.9614 8.29721 60.7818 7.87379 60.7818 7.37337C60.7818 6.86013 60.9614 6.4367 61.3207 6.10309C61.6928 5.75665 62.1675 5.58343 62.7449 5.58343C63.3095 5.58343 63.7714 5.75665 64.1307 6.10309C64.5028 6.4367 64.6888 6.86013 64.6888 7.37337C64.6888 7.87379 64.5028 8.29721 64.1307 8.64365C63.7714 8.97726 63.3095 9.14406 62.7449 9.14406ZM64.3809 10.2604V21H61.0897V10.2604H64.3809ZM66.304 15.6302C66.304 14.5139 66.5286 13.5387 66.9777 12.7047C67.4396 11.8707 68.0747 11.2291 68.8831 10.78C69.7043 10.3309 70.641 10.1064 71.6931 10.1064C73.0404 10.1064 74.1631 10.4593 75.0613 11.165C75.9723 11.8707 76.5689 12.8651 76.8512 14.1482H73.3483C73.0532 13.327 72.4822 12.9164 71.6354 12.9164C71.0323 12.9164 70.5511 13.1538 70.1919 13.6285C69.8326 14.0905 69.653 14.7577 69.653 15.6302C69.653 16.5027 69.8326 17.1763 70.1919 17.6511C70.5511 18.113 71.0323 18.344 71.6354 18.344C72.4822 18.344 73.0532 17.9334 73.3483 17.1122H76.8512C76.5689 18.3696 75.9723 19.3576 75.0613 20.0762C74.1503 20.7947 73.0275 21.154 71.6931 21.154C70.641 21.154 69.7043 20.9294 68.8831 20.4803C68.0747 20.0313 67.4396 19.3897 66.9777 18.5557C66.5286 17.7217 66.304 16.7465 66.304 15.6302ZM88.9279 15.457C88.9279 15.7649 88.9086 16.0857 88.8701 16.4193H81.4217C81.473 17.0865 81.6847 17.5998 82.0568 17.959C82.4418 18.3055 82.9101 18.4787 83.4618 18.4787C84.283 18.4787 84.854 18.1322 85.1748 17.4394H88.6777C88.498 18.1451 88.1708 18.7802 87.6961 19.3448C87.2342 19.9094 86.6504 20.352 85.9446 20.6728C85.2389 20.9936 84.4498 21.154 83.5773 21.154C82.5252 21.154 81.5885 20.9294 80.7673 20.4803C79.9461 20.0313 79.3045 19.3897 78.8426 18.5557C78.3807 17.7217 78.1497 16.7465 78.1497 15.6302C78.1497 14.5139 78.3743 13.5387 78.8234 12.7047C79.2853 11.8707 79.9269 11.2291 80.748 10.78C81.5692 10.3309 82.5123 10.1064 83.5773 10.1064C84.6166 10.1064 85.5405 10.3245 86.3488 10.7608C87.1572 11.197 87.7859 11.8193 88.235 12.6277C88.6969 13.4361 88.9279 14.3792 88.9279 15.457ZM85.5597 14.5909C85.5597 14.0263 85.3672 13.5772 84.9823 13.2436C84.5974 12.91 84.1162 12.7432 83.5388 12.7432C82.9871 12.7432 82.5187 12.9036 82.1338 13.2244C81.7617 13.5451 81.5307 14.0006 81.4409 14.5909H85.5597Z" fill="#223814"/>
<path d="M96.5307 18.4594H100.842V21H93.2396V7.48885H96.5307V18.4594ZM107.493 21.154C106.441 21.154 105.491 20.9294 104.644 20.4803C103.81 20.0313 103.15 19.3897 102.662 18.5557C102.187 17.7217 101.95 16.7465 101.95 15.6302C101.95 14.5267 102.194 13.558 102.681 12.7239C103.169 11.8771 103.836 11.2291 104.683 10.78C105.53 10.3309 106.479 10.1064 107.531 10.1064C108.584 10.1064 109.533 10.3309 110.38 10.78C111.227 11.2291 111.894 11.8771 112.382 12.7239C112.869 13.558 113.113 14.5267 113.113 15.6302C113.113 16.7337 112.863 17.7088 112.362 18.5557C111.875 19.3897 111.201 20.0313 110.341 20.4803C109.495 20.9294 108.545 21.154 107.493 21.154ZM107.493 18.3055C108.122 18.3055 108.654 18.0745 109.09 17.6126C109.539 17.1507 109.764 16.4899 109.764 15.6302C109.764 14.7705 109.546 14.1097 109.11 13.6478C108.686 13.1859 108.16 12.9549 107.531 12.9549C106.89 12.9549 106.357 13.1859 105.934 13.6478C105.51 14.0969 105.299 14.7577 105.299 15.6302C105.299 16.4899 105.504 17.1507 105.915 17.6126C106.338 18.0745 106.864 18.3055 107.493 18.3055ZM114.397 15.6109C114.397 14.5075 114.602 13.5387 115.013 12.7047C115.436 11.8707 116.007 11.2291 116.726 10.78C117.444 10.3309 118.246 10.1064 119.132 10.1064C119.889 10.1064 120.55 10.2604 121.114 10.5683C121.692 10.8763 122.134 11.2804 122.442 11.7809V10.2604H125.733V21H122.442V19.4795C122.121 19.9799 121.672 20.3841 121.095 20.6921C120.53 21 119.869 21.154 119.112 21.154C118.24 21.154 117.444 20.9294 116.726 20.4803C116.007 20.0184 115.436 19.3705 115.013 18.5364C114.602 17.6896 114.397 16.7144 114.397 15.6109ZM122.442 15.6302C122.442 14.809 122.211 14.161 121.749 13.6863C121.3 13.2115 120.748 12.9741 120.094 12.9741C119.44 12.9741 118.882 13.2115 118.42 13.6863C117.97 14.1482 117.746 14.7897 117.746 15.6109C117.746 16.4321 117.97 17.0865 118.42 17.5741C118.882 18.0488 119.44 18.2862 120.094 18.2862C120.748 18.2862 121.3 18.0488 121.749 17.5741C122.211 17.0993 122.442 16.4514 122.442 15.6302ZM134.851 10.1449C136.108 10.1449 137.109 10.5555 137.853 11.3767C138.61 12.185 138.989 13.3013 138.989 14.7256V21H135.717V15.1683C135.717 14.4497 135.531 13.8916 135.159 13.4938C134.787 13.096 134.286 12.8972 133.657 12.8972C133.029 12.8972 132.528 13.096 132.156 13.4938C131.784 13.8916 131.598 14.4497 131.598 15.1683V21H128.307V10.2604H131.598V11.6846C131.932 11.2099 132.381 10.8378 132.945 10.5683C133.51 10.286 134.145 10.1449 134.851 10.1449ZM145.837 21.154C144.901 21.154 144.066 20.9936 143.335 20.6728C142.604 20.352 142.026 19.9158 141.603 19.364C141.179 18.7995 140.942 18.1707 140.891 17.4779H144.143C144.182 17.85 144.355 18.1515 144.663 18.3825C144.971 18.6134 145.35 18.7289 145.799 18.7289C146.209 18.7289 146.524 18.6519 146.742 18.4979C146.973 18.3311 147.088 18.1194 147.088 17.8628C147.088 17.5549 146.928 17.3303 146.607 17.1892C146.286 17.0352 145.767 16.8684 145.048 16.6888C144.278 16.5091 143.637 16.3231 143.123 16.1306C142.61 15.9253 142.167 15.6109 141.795 15.1875C141.423 14.7513 141.237 14.1674 141.237 13.4361C141.237 12.8202 141.404 12.262 141.738 11.7616C142.084 11.2484 142.585 10.8442 143.239 10.5491C143.906 10.254 144.695 10.1064 145.606 10.1064C146.953 10.1064 148.012 10.44 148.782 11.1072C149.565 11.7744 150.014 12.6598 150.129 13.7633H147.088C147.037 13.3912 146.87 13.096 146.588 12.8779C146.318 12.6598 145.959 12.5507 145.51 12.5507C145.125 12.5507 144.83 12.6277 144.625 12.7817C144.419 12.9228 144.317 13.1217 144.317 13.3783C144.317 13.6863 144.477 13.9172 144.798 14.0712C145.131 14.2252 145.645 14.3792 146.338 14.5331C147.133 14.7384 147.781 14.9437 148.282 15.149C148.782 15.3415 149.218 15.6623 149.59 16.1114C149.975 16.5476 150.174 17.1378 150.187 17.882C150.187 18.5108 150.007 19.0753 149.648 19.5757C149.302 20.0633 148.795 20.4483 148.128 20.7305C147.473 21.0128 146.71 21.154 145.837 21.154Z" fill="#63A71C"/>
<defs>
<linearGradient id="paint0_linear_129_3462" x1="2.39233" y1="-2.33837" x2="10.1795" y2="10.6877" gradientUnits="userSpaceOnUse">
<stop stop-color="#A9C500"/>
<stop offset="1" stop-color="#BDD71E"/>
</linearGradient>
<linearGradient id="paint1_linear_129_3462" x1="2.39233" y1="2.40275" x2="14.5375" y2="10.2088" gradientUnits="userSpaceOnUse">
<stop stop-color="#94AC00" stop-opacity="0.3"/>
<stop offset="1" stop-color="white" stop-opacity="0"/>
</linearGradient>
<linearGradient id="paint2_linear_129_3462" x1="27.7183" y1="-2.33837" x2="19.9311" y2="10.6877" gradientUnits="userSpaceOnUse">
<stop stop-color="#A9C500"/>
<stop offset="1" stop-color="#BDD71E"/>
</linearGradient>
<linearGradient id="paint3_linear_129_3462" x1="27.7183" y1="2.40275" x2="15.5731" y2="10.2088" gradientUnits="userSpaceOnUse">
<stop stop-color="#94AC00" stop-opacity="0.3"/>
<stop offset="1" stop-color="white" stop-opacity="0"/>
</linearGradient>
<linearGradient id="paint4_linear_129_3462" x1="15.0553" y1="23.3145" x2="26.9238" y2="24.1318" gradientUnits="userSpaceOnUse">
<stop stop-color="#6EAB31"/>
<stop offset="1" stop-color="#51870B"/>
</linearGradient>
<linearGradient id="paint5_linear_129_3462" x1="29.4546" y1="4.50513" x2="15.211" y2="12.3753" gradientUnits="userSpaceOnUse">
<stop stop-color="#6EB118" stop-opacity="0.44"/>
<stop offset="1" stop-color="#ACC68C" stop-opacity="0"/>
</linearGradient>
<linearGradient id="paint6_linear_129_3462" x1="15.0552" y1="23.3145" x2="5.65617" y2="25.435" gradientUnits="userSpaceOnUse">
<stop stop-color="#6EAB31"/>
<stop offset="1" stop-color="#51870B"/>
</linearGradient>
<linearGradient id="paint7_linear_129_3462" x1="0.655905" y1="4.50513" x2="14.8995" y2="12.3753" gradientUnits="userSpaceOnUse">
<stop stop-color="#6EB118" stop-opacity="0.44"/>
<stop offset="1" stop-color="#ACC68C" stop-opacity="0"/>
</linearGradient>
<linearGradient id="paint8_linear_129_3462" x1="2.15606" y1="13.9488" x2="4.61449" y2="14.4569" gradientUnits="userSpaceOnUse">
<stop stop-color="#DDAC00"/>
<stop offset="0.223958" stop-color="#F4C51B"/>
<stop offset="0.464197" stop-color="#F9D415"/>
<stop offset="1" stop-color="#FEE355"/>
</linearGradient>
</defs>
</svg>
