<svg width="31" height="28" viewBox="0 0 31 28" fill="none" xmlns="http://www.w3.org/2000/svg">
<path d="M2.70062 6.48622H3.44396L3.55831 6.9054L3.44396 7.15905H2.70062V6.48622Z" fill="url(#paint0_linear_791_1871)"/>
<path d="M18.378 0.816417L18.3511 0.823396L4.21873 4.62322C4.20872 4.62591 4.19873 4.6287 4.18878 4.6316C3.32674 4.88257 2.52366 5.18186 1.94291 5.67493C1.6207 5.94849 1.36007 6.28526 1.1927 6.69439C1.03053 7.09082 0.987807 7.47755 0.987807 7.80859L0.987793 13.9205C0.987793 15.059 1.61377 15.9234 2.39067 16.4106C3.13737 16.8788 4.06737 17.0404 4.93534 16.8674L19.772 13.9101C21.1948 13.6265 22.1731 12.4126 22.2979 11.0475L22.3053 10.9646C22.3075 10.9406 22.3093 10.9226 22.3109 10.9073C22.3138 10.8804 22.3157 10.8696 22.3157 10.8696L22.8566 8.09718C22.8894 7.92939 22.8933 7.75725 22.8683 7.58814L22.7671 6.90374H21.2438L21.3776 7.80859L20.8365 10.5815C20.8181 10.6759 20.8096 10.7719 20.801 10.8677L20.7972 10.9103C20.7283 11.6634 20.1952 12.2892 19.4774 12.4323L4.64076 15.3896C3.63663 15.5897 2.49475 14.9972 2.49475 13.9205L2.49476 7.80859C2.49476 6.99668 2.91891 6.57082 4.61001 6.07849L18.7424 2.27867C20.3613 1.87529 20.4752 2.36577 20.8047 3.93501L21.0902 5.86531H22.6135L22.2955 3.71455C22.2911 3.68465 22.2857 3.6549 22.2795 3.62532L22.274 3.59903C22.198 3.23686 22.115 2.84174 22.008 2.50317C21.9005 2.16323 21.7132 1.68674 21.3154 1.29428C20.391 0.382446 19.1415 0.626173 18.378 0.816417Z" fill="url(#paint1_linear_791_1871)"/>
<path d="M0.992255 8.93972C0.992255 8.21955 0.992255 7.85947 1.13463 7.58539C1.25461 7.35442 1.44293 7.1661 1.6739 7.04612C1.94798 6.90375 2.30806 6.90375 3.02823 6.90375H24.8756C26.7961 6.90375 27.7563 6.90375 28.4872 7.28341C29.1031 7.60335 29.6053 8.10554 29.9252 8.72146C30.3049 9.45234 30.3049 10.4126 30.3049 12.333V21.9336C30.3049 23.854 30.3049 24.8143 29.9252 25.5452C29.6053 26.1611 29.1031 26.6633 28.4872 26.9832C27.7563 27.3629 26.7961 27.3629 24.8756 27.3629H6.42152C4.50108 27.3629 3.54085 27.3629 2.80996 26.9832C2.19405 26.6633 1.69186 26.1611 1.37192 25.5452C0.992255 24.8143 0.992255 23.854 0.992255 21.9336V8.93972Z" fill="url(#paint2_linear_791_1871)"/>
<defs>
<linearGradient id="paint0_linear_791_1871" x1="89.4878" y1="-7.86279" x2="86.548" y2="30.2918" gradientUnits="userSpaceOnUse">
<stop stop-color="#1FA0FD"/>
<stop offset="0.936026" stop-color="#0E62FB"/>
<stop offset="1" stop-color="#0B62FF"/>
</linearGradient>
<linearGradient id="paint1_linear_791_1871" x1="89.4878" y1="-7.86279" x2="86.548" y2="30.2918" gradientUnits="userSpaceOnUse">
<stop stop-color="#1FA0FD"/>
<stop offset="0.936026" stop-color="#0E62FB"/>
<stop offset="1" stop-color="#0B62FF"/>
</linearGradient>
<linearGradient id="paint2_linear_791_1871" x1="89.4878" y1="-7.86279" x2="86.548" y2="30.2918" gradientUnits="userSpaceOnUse">
<stop stop-color="#1FA0FD"/>
<stop offset="0.936026" stop-color="#0E62FB"/>
<stop offset="1" stop-color="#0B62FF"/>
</linearGradient>
</defs>
</svg>
