<?xml version="1.0" encoding="UTF-8"?>
<!-- Generator: Adobe Illustrator 18.0.0, SVG Export Plug-In . SVG Version: 6.00 Build 0)  -->
<!DOCTYPE svg PUBLIC "-//W3C//DTD SVG 1.1//EN" "http://www.w3.org/Graphics/SVG/1.1/DTD/svg11.dtd">
<svg version="1.1" id="Layer_1" xmlns="http://www.w3.org/2000/svg" xmlns:xlink="http://www.w3.org/1999/xlink" x="0px" y="0px" width="351px" height="87px" viewBox="0 0 351 87" enable-background="new 0 0 351 87" xml:space="preserve">
<g>
	<g>
		<ellipse fill="#E10437" cx="174.3" cy="7.7" rx="7.7" ry="7.7"/>
		<path fill="#E10437" d="M176.2,34.6c0.2,0.2,0.5,0.2,0.8,0.2c0.5,0,0.9-0.2,1.2-0.6l7.5-11.5c0,0,0,0,0,0l0,0c0,0,0,0,0-0.1    c0-0.1,0.1-0.1,0.1-0.2c0,0,0-0.1,0-0.1c0,0,0-0.1,0-0.1c0-0.1,0-0.1,0-0.2c0,0,0-0.1,0-0.1c0,0,0,0,0,0c0-0.1,0-0.2,0-0.2    c0-0.1,0-0.1,0-0.2c0,0,0-0.1,0-0.1c0,0,0-0.1-0.1-0.1c0,0,0-0.1-0.1-0.1c0,0-0.1-0.1-0.1-0.1c0,0-0.1-0.1-0.1-0.1    c-0.1-0.1-0.1-0.1-0.2-0.1c0,0,0,0,0,0c0,0-0.1,0-0.1,0c-0.1,0-0.1-0.1-0.2-0.1c0,0-0.1,0-0.1,0c0,0-0.1,0-0.1,0    c-0.1,0-0.1,0-0.2,0c0,0,0,0-0.1,0h0c0,0,0,0,0,0h-20.7c0,0-0.1,0-0.1,0c-0.1,0-0.1,0-0.2,0c0,0-0.1,0-0.1,0c0,0-0.1,0-0.1,0    c-0.1,0-0.1,0-0.1,0.1c0,0-0.1,0-0.1,0c0,0,0,0,0,0c0,0-0.1,0.1-0.1,0.1c0,0-0.1,0-0.1,0.1c0,0-0.1,0.1-0.1,0.1    c0,0-0.1,0.1-0.1,0.1c0,0,0,0.1-0.1,0.1c0,0,0,0.1-0.1,0.1c0,0,0,0.1,0,0.1c0,0,0,0.1,0,0.1c0,0,0,0.1,0,0.1c0,0.1,0,0.1,0,0.2    c0,0,0,0,0,0c0,0,0,0.1,0,0.1c0,0.1,0,0.1,0,0.2c0,0,0,0.1,0,0.1c0,0,0,0.1,0,0.1c0,0.1,0,0.1,0.1,0.1c0,0,0,0.1,0,0.1l19.3,30.9    h-15.5l6.1-9.3c0.4-0.7,0.3-1.5-0.4-2c-0.7-0.4-1.5-0.3-2,0.4l-7.5,11.6c0,0,0,0.1,0,0.1c0,0.1-0.1,0.1-0.1,0.2c0,0,0,0.1,0,0.1    c0,0,0,0.1,0,0.1c0,0.1,0,0.1,0,0.2c0,0,0,0.1,0,0.1c0,0,0,0,0,0c0,0.1,0,0.2,0,0.3c0,0,0,0.1,0,0.1c0,0.1,0,0.1,0,0.2    c0,0,0,0.1,0.1,0.1c0,0,0,0.1,0.1,0.1c0,0.1,0.1,0.1,0.1,0.1c0,0,0,0.1,0.1,0.1c0.1,0.1,0.1,0.1,0.2,0.2c0,0,0,0,0,0c0,0,0,0,0,0    c0.1,0.1,0.2,0.1,0.3,0.1c0,0,0.1,0,0.1,0c0.1,0,0.2,0.1,0.4,0.1c0,0,0,0,0,0c0,0,0,0,0,0c0,0,0,0,0,0h20.7c0,0,0,0,0,0    c0,0,0,0,0,0c0,0,0,0,0,0c0.1,0,0.2,0,0.3,0c0,0,0.1,0,0.1,0c0.1,0,0.2-0.1,0.3-0.1c0,0,0,0,0,0c0,0,0,0,0,0c0,0,0.1-0.1,0.1-0.1    c0,0,0.1,0,0.1-0.1c0,0,0.1-0.1,0.1-0.1c0,0,0.1-0.1,0.1-0.1c0,0,0-0.1,0.1-0.1c0,0,0-0.1,0.1-0.1c0,0,0-0.1,0-0.1    c0,0,0-0.1,0-0.1c0,0,0-0.1,0-0.1c0-0.1,0-0.1,0-0.2c0,0,0,0,0,0c0,0,0-0.1,0-0.1c0-0.1,0-0.1,0-0.2c0,0,0-0.1,0-0.1    c0,0,0-0.1,0-0.1c0-0.1,0-0.1-0.1-0.2c0,0,0-0.1,0-0.1l-19.3-30.9h15.5l-6.1,9.3C175.3,33.3,175.5,34.1,176.2,34.6z"/>
	</g>
	<path fill="#2C2C2C" d="M16.5,20.3l-12.9,0v0H0.4v35.2h3.2V40.8h12.7c4.3,0,8.4-5.1,8.4-10.5C24.7,23.2,19.3,20.6,16.5,20.3z    M16.3,37.6H3.6V23.5h12.6c0.7,0.1,5.3,1.1,5.3,6.8C21.5,34.1,18.6,37.6,16.3,37.6z"/>
	<path fill="#2C2C2C" d="M63.3,55.5h3.6l-8.7-15.8c4-0.4,7.6-5.1,7.6-9.9c0-6.8-5.2-9.2-8-9.5l-12.4,0v0h-3.2v35.2h3.2V39.7h9.2   L63.3,55.5z M45.4,23.5h12.1c0.8,0.1,5.1,1.1,5.1,6.3c0,3.6-2.8,6.8-5,6.8H45.4V23.5z"/>
	<path fill="#2C2C2C" d="M346.1,55.5h3.6L341,39.7c4-0.4,7.6-5.1,7.6-9.9c0-6.8-5.2-9.2-8-9.5l-12.4,0v0H325v35.2h3.2V39.7h9.2   L346.1,55.5z M328.2,23.5h12.1c0.8,0.1,5.1,1.1,5.1,6.3c0,3.6-2.8,6.8-5,6.8h-12.2V23.5z"/>
	<g>
		<path fill="#2C2C2C" d="M96.6,55.8c-0.3,0-0.5,0-0.6,0c-0.1,0-0.3,0-0.6,0c-1.5,0-5.4-0.3-8-2.9c-3.2-3.3-3.5-6.1-3.5-8.7V31.6    c0-2.6,0.3-5.5,3.5-8.7c2.6-2.6,6.4-2.9,8-2.9c0.3,0,0.5,0,0.6,0c0.1,0,0.3,0,0.6,0c1.5,0,5.4,0.3,8,2.9c3.2,3.3,3.5,6.1,3.5,8.7    v12.6c0,2.6-0.3,5.5-3.5,8.7C102,55.5,98.2,55.8,96.6,55.8z M96,52.6l0.1,0c0.1,0,4,0.3,6.2-1.9c2.4-2.4,2.5-4.3,2.5-6.5V31.6    c0-2.2-0.2-4.1-2.5-6.5c-2.2-2.2-6.1-1.9-6.2-1.9l-0.1,0l-0.1,0c-0.1,0-4-0.3-6.2,1.9c-2.4,2.4-2.5,4.3-2.5,6.5v12.6    c0,2.2,0.2,4.1,2.5,6.5c2.2,2.2,6.1,1.9,6.2,1.9L96,52.6z"/>
	</g>
	<polygon fill="#2C2C2C" points="148.9,23.5 148.9,20.3 130.6,20.3 129,20.3 127.4,20.3 127.4,55.5 130.6,55.5 130.6,39.5    146.2,39.5 146.2,36.3 130.6,36.3 130.6,23.5  "/>
	<polygon fill="#2C2C2C" points="221.5,20.3 211.5,20.3 208.3,20.3 198.3,20.3 198.3,23.5 208.3,23.5 208.3,55.5 211.5,55.5    211.5,23.5 221.5,23.5  "/>
	<polygon fill="#2C2C2C" points="261.6,20.3 261.6,50.3 243.1,20.3 242.3,20.3 239.1,20.3 239.1,55.5 242.3,55.5 242.3,25.4    260.8,55.5 261.6,55.5 264.8,55.5 264.8,20.3  "/>
	<polygon fill="#2C2C2C" points="307.1,23.5 307.1,20.3 289,20.3 287.4,20.3 285.8,20.3 285.8,55.5 287.4,55.5 289,55.5 307.1,55.5    307.1,52.2 289,52.2 289,39 304.3,39 304.3,35.8 289,35.8 289,23.5  "/>
	<path fill="#505050" d="M13.2,84.3L7.1,69.9c0,0,0,0,0-0.1c0,0,0-0.1-0.1-0.1c0,0-0.1,0-0.1-0.1c0,0,0,0-0.1-0.1c0,0,0,0,0,0   c0,0-0.1,0-0.1,0c0,0-0.1,0-0.1,0c0,0-0.1,0-0.1,0c0,0-0.1,0-0.1,0c0,0,0,0,0,0c0,0,0,0-0.1,0.1c0,0-0.1,0-0.1,0.1   c0,0,0,0.1-0.1,0.1c0,0,0,0,0,0.1l-4.2,9.9c0,0,0,0,0,0L0,84.3c-0.1,0.3,0,0.6,0.3,0.7c0.1,0,0.1,0,0.2,0c0.2,0,0.4-0.1,0.5-0.3   l1.8-4.1h7.8l1.8,4.1c0.1,0.2,0.3,0.3,0.5,0.3c0.1,0,0.1,0,0.2,0C13.2,84.8,13.3,84.6,13.2,84.3z M3.1,79.6l3.5-8.1l3.5,8.1H3.1z"/>
	<path fill="#505050" d="M119.4,84.3l-6.1-14.4c0,0,0,0,0,0l0,0c0,0,0,0,0,0c0,0,0-0.1-0.1-0.1c0,0-0.1,0-0.1-0.1c0,0,0,0-0.1-0.1   c0,0,0,0,0,0c0,0-0.1,0-0.1,0c0,0-0.1,0-0.1,0c0,0,0,0-0.1,0c0,0-0.1,0-0.1,0c0,0,0,0,0,0c0,0,0,0-0.1,0c0,0-0.1,0-0.1,0.1   c0,0,0,0.1-0.1,0.1c0,0,0,0,0,0.1l0,0c0,0,0,0,0,0l-4.2,9.9c0,0,0,0,0,0l-1.9,4.4c-0.1,0.3,0,0.6,0.3,0.7c0.1,0,0.1,0,0.2,0   c0.2,0,0.4-0.1,0.5-0.3l1.8-4.1h7.8l1.8,4.1c0.1,0.2,0.3,0.3,0.5,0.3c0.1,0,0.1,0,0.2,0C119.4,84.8,119.5,84.6,119.4,84.3z    M109.4,79.6l3.5-8.1l3.5,8.1H109.4z"/>
	<path fill="#505050" d="M303,84.3l-6.1-14.4c0,0,0,0,0,0l0,0c0,0,0,0,0,0c0,0,0-0.1-0.1-0.1c0,0-0.1,0-0.1-0.1c0,0,0,0-0.1-0.1   c0,0,0,0,0,0c0,0-0.1,0-0.1,0c0,0-0.1,0-0.1,0c0,0,0,0-0.1,0c0,0-0.1,0-0.1,0c0,0,0,0,0,0c0,0,0,0-0.1,0c0,0-0.1,0-0.1,0.1   c0,0,0,0.1-0.1,0.1c0,0,0,0,0,0.1l0,0c0,0,0,0,0,0l-4.2,9.9c0,0,0,0,0,0l-1.9,4.4c-0.1,0.3,0,0.6,0.3,0.7c0.1,0,0.1,0,0.2,0   c0.2,0,0.4-0.1,0.5-0.3l1.8-4.1h7.8l1.8,4.1c0.1,0.2,0.3,0.3,0.5,0.3c0.1,0,0.1,0,0.2,0C303,84.8,303.2,84.6,303,84.3z M293,79.6   l3.5-8.1l3.5,8.1H293z"/>
	<path fill="#505050" d="M33,69.6H23c-0.3,0-0.5,0.2-0.5,0.5v14.4c0,0.3,0.2,0.5,0.5,0.5c0.3,0,0.5-0.2,0.5-0.5v-6.7h8.2   c0.3,0,0.5-0.2,0.5-0.5s-0.2-0.5-0.5-0.5h-8.2v-6.2H33c0.3,0,0.5-0.2,0.5-0.5C33.5,69.8,33.3,69.6,33,69.6z"/>
	<g>
		<path fill="#505050" d="M64.1,85c-0.3,0-0.5-0.2-0.5-0.5V70.1c0-0.3,0.2-0.5,0.5-0.5c0.3,0,0.5,0.2,0.5,0.5v14.4    C64.6,84.8,64.4,85,64.1,85z"/>
	</g>
	<g>
		<path fill="#505050" d="M96,85c-0.3,0-0.5-0.2-0.5-0.5V70.1c0-0.3,0.2-0.5,0.5-0.5s0.5,0.2,0.5,0.5v14.4C96.5,84.8,96.3,85,96,85z    "/>
	</g>
	<path fill="#505050" d="M53.6,69.6h-10c-0.3,0-0.5,0.2-0.5,0.5v14.4c0,0.3,0.2,0.5,0.5,0.5s0.5-0.2,0.5-0.5v-6.7h8.2   c0.3,0,0.5-0.2,0.5-0.5s-0.2-0.5-0.5-0.5h-8.2v-6.2h9.5c0.3,0,0.5-0.2,0.5-0.5C54.1,69.8,53.8,69.6,53.6,69.6z"/>
	<path fill="#505050" d="M85.6,84H77V70.1c0-0.3-0.2-0.5-0.5-0.5S76,69.8,76,70.1v14.4c0,0.3,0.2,0.5,0.5,0.5h9.1   c0.3,0,0.5-0.2,0.5-0.5S85.9,84,85.6,84z"/>
	<path fill="#505050" d="M138.8,69.6h-12.7c-0.3,0-0.5,0.2-0.5,0.5c0,0.3,0.2,0.5,0.5,0.5h5.9v13.9c0,0.3,0.2,0.5,0.5,0.5   c0.3,0,0.5-0.2,0.5-0.5V70.6h5.9c0.3,0,0.5-0.2,0.5-0.5C139.3,69.8,139.1,69.6,138.8,69.6z"/>
	<path fill="#505050" d="M158.4,84h-8.9v-6.3h8.1c0.3,0,0.5-0.2,0.5-0.5s-0.2-0.5-0.5-0.5h-8.1v-6h8.9c0.3,0,0.5-0.2,0.5-0.5   c0-0.3-0.2-0.5-0.5-0.5h-9.4c-0.3,0-0.5,0.2-0.5,0.5v14.4c0,0.3,0.2,0.5,0.5,0.5h9.4c0.3,0,0.5-0.2,0.5-0.5S158.7,84,158.4,84z"/>
	<path fill="#505050" d="M188.2,69.6h-6.9c-0.3,0-0.5,0.2-0.5,0.5v14.4c0,0.3,0.2,0.5,0.5,0.5c0.3,0,0.5-0.2,0.5-0.5v-5.8l6.5,0   c1.3-0.2,3.7-1.4,3.7-4.1v-0.8C191.9,71,189.5,69.9,188.2,69.6z M190.9,74.5c0,2.6-2.8,3.1-2.8,3.1h-6.4v-7l6.3,0   c0.1,0,2.9,0.6,2.9,3.1V74.5z"/>
	<path fill="#505050" d="M213.3,84.2l-3.9-5.6c1.3-0.3,3.6-1.4,3.6-4.1v-0.8c0-2.7-2.4-3.9-3.8-4.1h-6.9c-0.3,0-0.5,0.2-0.5,0.5   v14.4c0,0.3,0.2,0.5,0.5,0.5s0.5-0.2,0.5-0.5v-5.8l5.4,0l4.3,6.1c0.1,0.1,0.3,0.2,0.4,0.2c0.1,0,0.2,0,0.3-0.1   C213.4,84.7,213.5,84.4,213.3,84.2z M202.9,70.6l6.3,0c0.1,0,2.9,0.6,2.9,3.1v0.8c0,2.6-2.8,3.1-2.8,3.1h-6.4V70.6z"/>
	<path fill="#505050" d="M280.7,84.2l-3.9-5.6c1.3-0.3,3.6-1.4,3.6-4.1v-0.8c0-2.7-2.4-3.9-3.8-4.1h-6.9c-0.3,0-0.5,0.2-0.5,0.5   v14.4c0,0.3,0.2,0.5,0.5,0.5c0.3,0,0.5-0.2,0.5-0.5v-5.8l5.4,0l4.3,6.1c0.1,0.1,0.3,0.2,0.4,0.2c0.1,0,0.2,0,0.3-0.1   C280.8,84.7,280.8,84.4,280.7,84.2z M270.2,70.6l6.3,0c0.1,0,2.9,0.6,2.9,3.1v0.8c0,2.6-2.8,3.1-2.8,3.1h-6.4V70.6z"/>
	<g>
		<path fill="#505050" d="M229.7,84.9c-0.1,0-0.2,0-0.2,0c-0.3,0-2.3,0.1-4-1.5c-1.9-1.7-2.1-3.3-2.1-6.1s0.2-4.4,2.1-6.1    c1.8-1.6,3.7-1.5,4-1.5c0.3,0,2.3-0.1,4,1.5c1.9,1.7,2.1,3.3,2.1,6.1s-0.2,4.4-2.1,6.1C232,84.8,230.4,84.9,229.7,84.9z     M229.5,83.9L229.5,83.9c0.1,0,0.1,0,0.2,0c0.5,0,1.9-0.1,3.1-1.3c1.6-1.5,1.8-2.7,1.8-5.4s-0.2-3.9-1.8-5.4    c-1.3-1.1-2.6-1.3-3.1-1.3c-0.1,0-0.2,0-0.2,0l-0.1,0l-0.1,0c0,0-0.1,0-0.2,0c-0.5,0-1.9,0.1-3.1,1.3c-1.6,1.5-1.8,2.7-1.8,5.4    s0.2,3.9,1.8,5.4c1.3,1.1,2.6,1.3,3.1,1.3C229.3,83.9,229.4,83.9,229.5,83.9L229.5,83.9z"/>
	</g>
	<g>
		<path fill="#505050" d="M253.5,84.9c-1.6,0-3.4-0.1-5.3-1.5c-2-1.6-2.1-3.9-2.1-4v-4.1c0-2.3,2-5.6,6.4-5.6c4.3,0,5.8,3.6,5.9,3.7    c0.1,0.3,0,0.6-0.3,0.7c-0.3,0.1-0.5,0-0.7-0.3c-0.1-0.1-1.3-3.1-5-3.1c-3.7,0-5.4,2.7-5.4,4.6v4.1l0,0c0,0,0.1,2,1.8,3.3    c1.7,1.3,3.3,1.3,4.9,1.3l0.2,0c1.6,0,3.4-1,3.4-2.4v-2.9h-4.6c-0.3,0-0.5-0.2-0.5-0.5c0-0.3,0.2-0.5,0.5-0.5h5.6v3.9    c0,2-2.3,3.4-4.4,3.4l-0.2,0C253.6,84.9,253.6,84.9,253.5,84.9z"/>
	</g>
	<path fill="#505050" d="M327.3,69.6C327.3,69.6,327.3,69.6,327.3,69.6C327.2,69.6,327.2,69.6,327.3,69.6   C327.2,69.6,327.2,69.6,327.3,69.6c-0.3,0-0.4,0.1-0.5,0.3l-6.9,13.5L313,69.9c0,0,0,0,0-0.1c0,0,0-0.1-0.1-0.1c0,0-0.1,0-0.1-0.1   c0,0-0.1,0-0.1,0c0,0-0.1,0-0.1,0c0,0,0,0-0.1,0c0,0,0,0,0,0c0,0-0.1,0-0.1,0c0,0-0.1,0-0.1,0c0,0,0,0,0,0c0,0,0,0-0.1,0   c0,0-0.1,0-0.1,0.1c0,0,0,0.1-0.1,0.1c0,0,0,0.1,0,0.1c0,0,0,0.1,0,0.1c0,0,0,0,0,0.1v14.4c0,0.3,0.2,0.5,0.5,0.5   c0.3,0,0.5-0.2,0.5-0.5V72.2l6.4,12.5c0,0,0,0,0,0c0,0.1,0.1,0.1,0.1,0.1c0,0,0,0,0,0c0,0,0,0,0,0c0.1,0,0.2,0.1,0.2,0.1   c0.1,0,0.2,0,0.2-0.1c0,0,0,0,0,0c0,0,0,0,0,0c0.1,0,0.1-0.1,0.1-0.1c0,0,0,0,0,0l6.4-12.6v12.3c0,0.3,0.2,0.5,0.5,0.5   c0.3,0,0.5-0.2,0.5-0.5V70.1C327.7,69.9,327.5,69.7,327.3,69.6z"/>
	<g>
		<path fill="#505050" d="M343.4,84.8c-1.3,0-3.2-0.2-4.4-1.4c-1.5-1.6-1.7-2.7-1.7-2.8c0-0.3,0.2-0.5,0.4-0.6    c0.3,0,0.5,0.2,0.6,0.4c0,0,0.2,0.9,1.4,2.2c1.1,1.2,3.2,1.1,4.3,1.1l0.4,0c0.6,0,2.3,0,3.2-0.8c0.7-0.6,1.6-1.9,1-3.2    c-1.6-1.8-3.9-2.2-5.7-2.6c-1-0.2-1.8-0.4-2.5-0.7c-1-0.5-1.7-1.3-1.9-2.2c-0.2-0.8,0-1.7,0.5-2.5c1.2-1.7,2.6-2.3,5.5-2.1    c4.1,0.3,5.4,3.9,5.5,4c0.1,0.3,0,0.5-0.3,0.6c-0.3,0.1-0.5,0-0.6-0.3c0-0.1-1.1-3.1-4.6-3.4c-2.8-0.2-3.7,0.4-4.6,1.6    c-0.4,0.6-0.5,1.1-0.4,1.7c0.2,0.6,0.6,1.2,1.4,1.6c0.5,0.3,1.3,0.4,2.2,0.6c2,0.4,4.5,0.9,6.3,3l0.1,0.1c0.9,1.6,0.1,3.5-1.1,4.5    c-1.1,0.9-2.7,1-3.9,1l-0.4,0C343.9,84.8,343.7,84.8,343.4,84.8z"/>
	</g>
</g>
</svg>