<svg width="18" height="18" viewBox="0 0 18 18" fill="none" xmlns="http://www.w3.org/2000/svg">
<path fill-rule="evenodd" clip-rule="evenodd" d="M9.00007 12.924L5.41652 15.0878C5.20377 15.2163 4.92717 15.148 4.7987 14.9351C4.73807 14.8348 4.71904 14.7146 4.74568 14.6004L5.69617 10.5236L2.53093 7.78408C2.34301 7.62146 2.32252 7.33727 2.48516 7.14931C2.56192 7.06062 2.67029 7.00544 2.78717 6.99547L6.95818 6.63963L8.58545 2.78275C8.68209 2.55377 8.946 2.44647 9.17501 2.54308C9.28308 2.58868 9.36907 2.67468 9.41469 2.78275L11.042 6.63963L15.213 6.99547C15.4606 7.01659 15.6442 7.23446 15.6231 7.4821C15.6131 7.59896 15.5579 7.7073 15.4692 7.78408L12.304 10.5236L13.2544 14.6004C13.3109 14.8424 13.1604 15.0844 12.9184 15.1408C12.8042 15.1675 12.684 15.1484 12.5836 15.0878L9.00007 12.924Z" fill="#404040"/>
<mask id="mask0" mask-type="alpha" maskUnits="userSpaceOnUse" x="2" y="2" width="14" height="14">
<path fill-rule="evenodd" clip-rule="evenodd" d="M9.00007 12.924L5.41652 15.0878C5.20377 15.2163 4.92717 15.148 4.7987 14.9351C4.73807 14.8348 4.71904 14.7146 4.74568 14.6004L5.69617 10.5236L2.53093 7.78408C2.34301 7.62146 2.32252 7.33727 2.48516 7.14931C2.56192 7.06062 2.67029 7.00544 2.78717 6.99547L6.95818 6.63963L8.58545 2.78275C8.68209 2.55377 8.946 2.44647 9.17501 2.54308C9.28308 2.58868 9.36907 2.67468 9.41469 2.78275L11.042 6.63963L15.213 6.99547C15.4606 7.01659 15.6442 7.23446 15.6231 7.4821C15.6131 7.59896 15.5579 7.7073 15.4692 7.78408L12.304 10.5236L13.2544 14.6004C13.3109 14.8424 13.1604 15.0844 12.9184 15.1408C12.8042 15.1675 12.684 15.1484 12.5836 15.0878L9.00007 12.924Z" fill="white"/>
</mask>
<g mask="url(#mask0)">
<path d="M18 0H0V18H18V0Z" fill="url(#paint0_linear)"/>
</g>
<defs>
<linearGradient id="paint0_linear" x1="14.2214" y1="-2.77941" x2="2.60232" y2="-2.08571" gradientUnits="userSpaceOnUse">
<stop stop-color="#FFB628"/>
<stop offset="1" stop-color="#FFA800"/>
</linearGradient>
</defs>
</svg>
