<svg width="156" height="38" viewBox="0 0 156 38" fill="none" xmlns="http://www.w3.org/2000/svg">
<path d="M12.3455 17.7027C10.7474 19.5431 10.826 22.3986 12.5158 24.1604C13.4589 25.1493 14.7229 25.6405 15.9804 25.6405C17.2116 25.6405 18.4363 25.169 19.3729 24.2324C19.7986 23.8067 20.1326 23.3155 20.3619 22.7981L26.551 10.7998C26.7147 10.4592 26.361 10.1055 26.0205 10.2693L14.0221 16.4584C13.3999 16.7334 12.8301 17.1526 12.3455 17.7027ZM14.533 19.3925C14.9325 18.993 15.4564 18.7899 15.9804 18.7899C16.5043 18.7899 17.0282 18.993 17.4343 19.3925C18.2333 20.1915 18.2333 21.4948 17.4343 22.2938C17.0348 22.6933 16.5108 22.8964 15.9804 22.8964C15.4564 22.8964 14.9325 22.6933 14.533 22.2938C13.7274 21.4883 13.7274 20.1915 14.533 19.3925ZM28.8301 22.3593C28.8301 20.0933 28.2341 17.8665 27.1011 15.9213C26.6623 15.1616 26.9177 14.1923 27.6774 13.7535C28.4372 13.3147 29.4065 13.5701 29.8453 14.3298C31.2534 16.7596 32 19.5366 32 22.3593C32 23.2369 31.2927 23.9443 30.4151 23.9443C29.544 23.9443 28.8301 23.2369 28.8301 22.3593ZM0 22.3593C0 13.5374 7.17806 6.35931 16 6.35931C18.0499 6.35931 20.0475 6.73917 21.9337 7.4989C22.7458 7.82636 23.1388 8.74327 22.8178 9.55538C22.4904 10.3675 21.5735 10.7605 20.7614 10.4395C19.2485 9.83701 17.6439 9.52919 16 9.52919C8.92673 9.52919 3.16987 15.286 3.16987 22.3593C3.16987 23.2369 2.46255 23.9443 1.58494 23.9443C0.707327 23.9443 0 23.2369 0 22.3593Z" fill="#8E8E92"/>
<path d="M42.4746 16V8.35059H42.584L47.9365 16H49.1328V6.13574H47.916V13.8125H47.8066L42.4541 6.13574H41.2578V16H42.4746ZM54.5264 16.1299C56.625 16.1299 57.9238 14.6807 57.9238 12.3154C57.9238 9.94336 56.625 8.50098 54.5264 8.50098C52.4277 8.50098 51.1289 9.94336 51.1289 12.3154C51.1289 14.6807 52.4277 16.1299 54.5264 16.1299ZM54.5264 15.0703C53.1318 15.0703 52.3457 14.0586 52.3457 12.3154C52.3457 10.5654 53.1318 9.56055 54.5264 9.56055C55.9209 9.56055 56.707 10.5654 56.707 12.3154C56.707 14.0586 55.9209 15.0703 54.5264 15.0703ZM63.748 16H64.9238V8.63086H63.748V16ZM64.3359 7.13379C64.7871 7.13379 65.1562 6.76465 65.1562 6.31348C65.1562 5.8623 64.7871 5.49316 64.3359 5.49316C63.8848 5.49316 63.5156 5.8623 63.5156 6.31348C63.5156 6.76465 63.8848 7.13379 64.3359 7.13379ZM67.166 16H68.3418V11.4336C68.3418 10.3945 69.0869 9.56055 70.0508 9.56055C70.9805 9.56055 71.5889 10.1211 71.5889 10.9961V16H72.7646V11.2627C72.7646 10.3262 73.4482 9.56055 74.4736 9.56055C75.5127 9.56055 76.0254 10.0938 76.0254 11.1807V16H77.2012V10.9072C77.2012 9.3623 76.3604 8.50098 74.8564 8.50098C73.8379 8.50098 72.9971 9.01367 72.6006 9.79297H72.4912C72.1494 9.02734 71.4521 8.50098 70.4541 8.50098C69.4697 8.50098 68.7314 8.97266 68.3965 9.79297H68.2871V8.63086H67.166V16ZM82.9365 8.50098C81.9316 8.50098 81.0498 9.01367 80.5781 9.86133H80.4688V8.63086H79.3477V18.4609H80.5234V14.8926H80.6328C81.0361 15.6719 81.8838 16.1299 82.9365 16.1299C84.8096 16.1299 86.0332 14.6191 86.0332 12.3154C86.0332 9.99805 84.8164 8.50098 82.9365 8.50098ZM82.6562 15.0703C81.3301 15.0703 80.4893 14.0039 80.4893 12.3154C80.4893 10.6201 81.3301 9.56055 82.6631 9.56055C84.0098 9.56055 84.8164 10.5928 84.8164 12.3154C84.8164 14.0381 84.0098 15.0703 82.6562 15.0703ZM90.1484 15.0977C89.2939 15.0977 88.6582 14.6602 88.6582 13.9082C88.6582 13.1699 89.1504 12.7803 90.2715 12.7051L92.2539 12.5752V13.252C92.2539 14.3047 91.3584 15.0977 90.1484 15.0977ZM89.9297 16.1299C90.9141 16.1299 91.7207 15.6992 92.1992 14.9131H92.3086V16H93.4297V10.9551C93.4297 9.42383 92.4248 8.50098 90.627 8.50098C89.0547 8.50098 87.8926 9.28027 87.7354 10.4629H88.9248C89.0889 9.88184 89.7041 9.54688 90.5859 9.54688C91.6865 9.54688 92.2539 10.0459 92.2539 10.9551V11.625L90.1279 11.7549C88.4121 11.8574 87.4414 12.6162 87.4414 13.9355C87.4414 15.2822 88.501 16.1299 89.9297 16.1299ZM101.701 10.8867C101.496 9.57422 100.402 8.50098 98.6113 8.50098C96.5469 8.50098 95.2344 9.99121 95.2344 12.2881C95.2344 14.6328 96.5537 16.1299 98.6182 16.1299C100.389 16.1299 101.489 15.1318 101.701 13.7783H100.512C100.293 14.6123 99.6025 15.0703 98.6113 15.0703C97.2988 15.0703 96.4512 13.9902 96.4512 12.2881C96.4512 10.6201 97.2852 9.56055 98.6113 9.56055C99.6709 9.56055 100.32 10.1553 100.512 10.8867H101.701ZM104.066 6.72363V8.63086H102.877V9.61523H104.066V14.0859C104.066 15.4941 104.675 16.0547 106.192 16.0547C106.425 16.0547 106.65 16.0273 106.883 15.9863V14.9951C106.664 15.0156 106.548 15.0225 106.336 15.0225C105.57 15.0225 105.242 14.6533 105.242 13.7852V9.61523H106.883V8.63086H105.242V6.72363H104.066ZM115.64 16.1299C117.738 16.1299 119.037 14.6807 119.037 12.3154C119.037 9.94336 117.738 8.50098 115.64 8.50098C113.541 8.50098 112.242 9.94336 112.242 12.3154C112.242 14.6807 113.541 16.1299 115.64 16.1299ZM115.64 15.0703C114.245 15.0703 113.459 14.0586 113.459 12.3154C113.459 10.5654 114.245 9.56055 115.64 9.56055C117.034 9.56055 117.82 10.5654 117.82 12.3154C117.82 14.0586 117.034 15.0703 115.64 15.0703ZM120.883 16H122.059V11.6387C122.059 10.3467 122.817 9.56055 123.993 9.56055C125.169 9.56055 125.729 10.1895 125.729 11.5156V16H126.905V11.2285C126.905 9.47852 125.982 8.50098 124.328 8.50098C123.2 8.50098 122.482 8.97949 122.113 9.79297H122.004V8.63086H120.883V16ZM41.7363 36.666C43.042 36.666 43.6299 36.1602 44.2588 34.4512L47.1367 26.6309H45.8857L43.8691 32.6943H43.7598L41.7363 26.6309H40.4648L43.1924 34.0068L43.0557 34.4443C42.748 35.333 42.3789 35.6543 41.7021 35.6543C41.5381 35.6543 41.3535 35.6475 41.21 35.6201V36.625C41.374 36.6523 41.5791 36.666 41.7363 36.666ZM51.4639 34.1299C53.5625 34.1299 54.8613 32.6807 54.8613 30.3154C54.8613 27.9434 53.5625 26.501 51.4639 26.501C49.3652 26.501 48.0664 27.9434 48.0664 30.3154C48.0664 32.6807 49.3652 34.1299 51.4639 34.1299ZM51.4639 33.0703C50.0693 33.0703 49.2832 32.0586 49.2832 30.3154C49.2832 28.5654 50.0693 27.5605 51.4639 27.5605C52.8584 27.5605 53.6445 28.5654 53.6445 30.3154C53.6445 32.0586 52.8584 33.0703 51.4639 33.0703ZM62.668 26.6309H61.4922V30.9922C61.4922 32.2842 60.7812 33.0566 59.4824 33.0566C58.3066 33.0566 57.8145 32.4414 57.8145 31.1152V26.6309H56.6387V31.4023C56.6387 33.1455 57.5 34.1299 59.1543 34.1299C60.2822 34.1299 61.0684 33.665 61.4375 32.8447H61.5469V34H62.668V26.6309ZM64.8828 34H66.0586V29.4336C66.0586 28.3945 66.8721 27.6426 67.9932 27.6426C68.2256 27.6426 68.6494 27.6836 68.7451 27.7109V26.5352C68.5947 26.5146 68.3486 26.501 68.1572 26.501C67.1797 26.501 66.332 27.0068 66.1133 27.7246H66.0039V26.6309H64.8828V34ZM80.2637 28.8867C80.0586 27.5742 78.9648 26.501 77.1738 26.501C75.1094 26.501 73.7969 27.9912 73.7969 30.2881C73.7969 32.6328 75.1162 34.1299 77.1807 34.1299C78.9512 34.1299 80.0518 33.1318 80.2637 31.7783H79.0742C78.8555 32.6123 78.165 33.0703 77.1738 33.0703C75.8613 33.0703 75.0137 31.9902 75.0137 30.2881C75.0137 28.6201 75.8477 27.5605 77.1738 27.5605C78.2334 27.5605 78.8828 28.1553 79.0742 28.8867H80.2637ZM82 34H83.1758V29.4336C83.1758 28.3945 83.9893 27.6426 85.1104 27.6426C85.3428 27.6426 85.7666 27.6836 85.8623 27.7109V26.5352C85.7119 26.5146 85.4658 26.501 85.2744 26.501C84.2969 26.501 83.4492 27.0068 83.2305 27.7246H83.1211V26.6309H82V34ZM90.0664 27.54C91.2354 27.54 92.0146 28.4014 92.042 29.707H87.9814C88.0703 28.4014 88.8906 27.54 90.0664 27.54ZM92.0078 32.0928C91.7002 32.7422 91.0576 33.0908 90.1074 33.0908C88.8564 33.0908 88.043 32.168 87.9814 30.7119V30.6572H93.2793V30.2061C93.2793 27.916 92.0693 26.501 90.0801 26.501C88.0566 26.501 86.7578 28.0049 86.7578 30.3223C86.7578 32.6533 88.0361 34.1299 90.0801 34.1299C91.6934 34.1299 92.8281 33.3574 93.1836 32.0928H92.0078ZM97.8525 34.1299C98.8711 34.1299 99.7461 33.6445 100.211 32.8242H100.32V34H101.441V23.7051H100.266V27.793H100.163C99.7461 26.9863 98.8779 26.501 97.8525 26.501C95.9795 26.501 94.7559 28.0049 94.7559 30.3154C94.7559 32.6328 95.9658 34.1299 97.8525 34.1299ZM98.126 27.5605C99.459 27.5605 100.293 28.627 100.293 30.3154C100.293 32.0176 99.4658 33.0703 98.126 33.0703C96.7793 33.0703 95.9727 32.0381 95.9727 30.3154C95.9727 28.5996 96.7861 27.5605 98.126 27.5605ZM103.752 34H104.928V26.6309H103.752V34ZM104.34 25.1338C104.791 25.1338 105.16 24.7646 105.16 24.3135C105.16 23.8623 104.791 23.4932 104.34 23.4932C103.889 23.4932 103.52 23.8623 103.52 24.3135C103.52 24.7646 103.889 25.1338 104.34 25.1338ZM107.662 24.7236V26.6309H106.473V27.6152H107.662V32.0859C107.662 33.4941 108.271 34.0547 109.788 34.0547C110.021 34.0547 110.246 34.0273 110.479 33.9863V32.9951C110.26 33.0156 110.144 33.0225 109.932 33.0225C109.166 33.0225 108.838 32.6533 108.838 31.7852V27.6152H110.479V26.6309H108.838V24.7236H107.662ZM116.036 28.6475C116.036 29.7139 116.665 30.3086 118.046 30.6436L119.311 30.9512C120.097 31.1426 120.479 31.4844 120.479 31.9902C120.479 32.667 119.769 33.1387 118.777 33.1387C117.834 33.1387 117.246 32.7422 117.048 32.1201H115.838C115.968 33.3438 117.096 34.1299 118.736 34.1299C120.411 34.1299 121.689 33.2207 121.689 31.9014C121.689 30.8418 121.02 30.2402 119.632 29.9053L118.497 29.6318C117.629 29.4199 117.219 29.1055 117.219 28.5996C117.219 27.9434 117.902 27.499 118.777 27.499C119.666 27.499 120.24 27.8887 120.397 28.4766H121.56C121.402 27.2666 120.329 26.501 118.784 26.501C117.219 26.501 116.036 27.4238 116.036 28.6475ZM129.633 28.8867C129.428 27.5742 128.334 26.501 126.543 26.501C124.479 26.501 123.166 27.9912 123.166 30.2881C123.166 32.6328 124.485 34.1299 126.55 34.1299C128.32 34.1299 129.421 33.1318 129.633 31.7783H128.443C128.225 32.6123 127.534 33.0703 126.543 33.0703C125.23 33.0703 124.383 31.9902 124.383 30.2881C124.383 28.6201 125.217 27.5605 126.543 27.5605C127.603 27.5605 128.252 28.1553 128.443 28.8867H129.633ZM134.397 34.1299C136.496 34.1299 137.795 32.6807 137.795 30.3154C137.795 27.9434 136.496 26.501 134.397 26.501C132.299 26.501 131 27.9434 131 30.3154C131 32.6807 132.299 34.1299 134.397 34.1299ZM134.397 33.0703C133.003 33.0703 132.217 32.0586 132.217 30.3154C132.217 28.5654 133.003 27.5605 134.397 27.5605C135.792 27.5605 136.578 28.5654 136.578 30.3154C136.578 32.0586 135.792 33.0703 134.397 33.0703ZM139.641 34H140.816V29.4336C140.816 28.3945 141.63 27.6426 142.751 27.6426C142.983 27.6426 143.407 27.6836 143.503 27.7109V26.5352C143.353 26.5146 143.106 26.501 142.915 26.501C141.938 26.501 141.09 27.0068 140.871 27.7246H140.762V26.6309H139.641V34ZM147.707 27.54C148.876 27.54 149.655 28.4014 149.683 29.707H145.622C145.711 28.4014 146.531 27.54 147.707 27.54ZM149.648 32.0928C149.341 32.7422 148.698 33.0908 147.748 33.0908C146.497 33.0908 145.684 32.168 145.622 30.7119V30.6572H150.92V30.2061C150.92 27.916 149.71 26.501 147.721 26.501C145.697 26.501 144.398 28.0049 144.398 30.3223C144.398 32.6533 145.677 34.1299 147.721 34.1299C149.334 34.1299 150.469 33.3574 150.824 32.0928H149.648ZM153.736 34.0684C154.229 34.0684 154.625 33.665 154.625 33.1797C154.625 32.6875 154.229 32.291 153.736 32.291C153.251 32.291 152.848 32.6875 152.848 33.1797C152.848 33.665 153.251 34.0684 153.736 34.0684Z" fill="#8E8E92"/>
</svg>
