<?xml version="1.0" encoding="UTF-8"?>
<svg width="344px" height="259px" viewBox="0 0 344 259" version="1.1" xmlns="http://www.w3.org/2000/svg" xmlns:xlink="http://www.w3.org/1999/xlink">
    <!-- Generator: Sketch 45.2 (43514) - http://www.bohemiancoding.com/sketch -->
    <title>phone_credit_clock</title>
    <desc>Created with Sketch.</desc>
    <defs>
        <rect id="path-1" x="122" y="42" width="135" height="215" rx="17"></rect>
    </defs>
    <g id="Page-1" stroke="none" stroke-width="1" fill="none" fill-rule="evenodd">
        <g id="personal_home2" transform="translate(-258.000000, -1263.000000)">
            <g id="phone_credit_clock" transform="translate(252.000000, 1265.000000)">
                <g id="Rectangle-19">
                    <use fill="#FFFFFF" fill-rule="evenodd" xlink:href="#path-1"></use>
                    <rect stroke="#446AAB" stroke-width="4" x="124" y="44" width="131" height="211" rx="17"></rect>
                </g>
                <rect id="Rectangle-30" stroke="#446AAB" x="137.5" y="63.5" width="104" height="154" rx="4"></rect>
                <circle id="Oval-11" stroke="#446AAB" stroke-width="3" fill="#FFFFFF" cx="189" cy="236" r="10"></circle>
                <rect id="Rectangle-23" fill="#EDF2FA" x="150" y="82" width="35" height="12" rx="3"></rect>
                <rect id="Rectangle-23" fill="#EDF2FA" x="196" y="82" width="35" height="12" rx="3"></rect>
                <rect id="Rectangle-23" fill="#EDF2FA" x="150" y="146" width="35" height="12" rx="3"></rect>
                <rect id="Rectangle-25" fill="#24BE00" x="161" y="191" width="57" height="16" rx="8"></rect>
                <rect id="Rectangle-21" fill="#FFFFFF" x="42" y="130" width="101" height="81"></rect>
                <rect id="Rectangle-23" fill="#EDF2FA" x="196" y="146" width="35" height="12" rx="3"></rect>
                <rect id="Rectangle-23" fill="#EDF2FA" x="150" y="104" width="80" height="12" rx="3"></rect>
                <rect id="Rectangle-23" fill="#EDF2FA" x="150" y="124" width="80" height="12" rx="3"></rect>
                <rect id="Rectangle-23" fill="#EDF2FA" x="150" y="165" width="80" height="12" rx="3"></rect>
                <circle id="Oval-8" fill="#FFFFFF" cx="269.5" cy="134.5" r="49.5"></circle>
                <g id="credit-card-(1)" transform="translate(44.000000, 135.000000)" fill-rule="nonzero">
                    <path d="M91.1122333,0 L6.88776667,0 C3.09026667,0 0,3.096 0,6.90054545 L0,8.18181818 L0,24.5454545 L0,65.0994545 C0,68.904 3.09026667,72 6.88776667,72 L91.1122333,72 C94.9097333,72 98,68.904 98,65.0994545 L98,24.5454545 L98,8.18181818 L98,6.90054545 C98,3.096 94.9097333,0 91.1122333,0 Z M4.9,13.0909091 C5.8016,13.0909091 6.53333333,12.3578182 6.53333333,11.4545455 L13.0666667,11.4545455 C13.0666667,12.3578182 13.7984,13.0909091 14.7,13.0909091 C15.6016,13.0909091 16.3333333,12.3578182 16.3333333,11.4545455 L22.8666667,11.4545455 C22.8666667,12.3578182 23.5984,13.0909091 24.5,13.0909091 C25.4016,13.0909091 26.1333333,12.3578182 26.1333333,11.4545455 L32.6666667,11.4545455 C32.6666667,12.3578182 33.3984,13.0909091 34.3,13.0909091 C35.2016,13.0909091 35.9333333,12.3578182 35.9333333,11.4545455 L42.4666667,11.4545455 C42.4666667,12.3578182 43.1984,13.0909091 44.1,13.0909091 C45.0016,13.0909091 45.7333333,12.3578182 45.7333333,11.4545455 L52.2666667,11.4545455 C52.2666667,12.3578182 52.9984,13.0909091 53.9,13.0909091 C54.8016,13.0909091 55.5333333,12.3578182 55.5333333,11.4545455 L62.0666667,11.4545455 C62.0666667,12.3578182 62.7984,13.0909091 63.7,13.0909091 C64.6016,13.0909091 65.3333333,12.3578182 65.3333333,11.4545455 L71.8666667,11.4545455 C71.8666667,12.3578182 72.5984,13.0909091 73.5,13.0909091 C74.4016,13.0909091 75.1333333,12.3578182 75.1333333,11.4545455 L81.6666667,11.4545455 C81.6666667,12.3578182 82.3984,13.0909091 83.3,13.0909091 C84.2016,13.0909091 84.9333333,12.3578182 84.9333333,11.4545455 L91.4666667,11.4545455 C91.4666667,12.3578182 92.1984,13.0909091 93.1,13.0909091 C94.0016,13.0909091 94.7333333,12.3578182 94.7333333,11.4545455 L94.7333333,21.2727273 C94.7333333,20.3694545 94.0016,19.6363636 93.1,19.6363636 C92.1984,19.6363636 91.4666667,20.3694545 91.4666667,21.2727273 L84.9333333,21.2727273 C84.9333333,20.3694545 84.2016,19.6363636 83.3,19.6363636 C82.3984,19.6363636 81.6666667,20.3694545 81.6666667,21.2727273 L75.1333333,21.2727273 C75.1333333,20.3694545 74.4016,19.6363636 73.5,19.6363636 C72.5984,19.6363636 71.8666667,20.3694545 71.8666667,21.2727273 L65.3333333,21.2727273 C65.3333333,20.3694545 64.6016,19.6363636 63.7,19.6363636 C62.7984,19.6363636 62.0666667,20.3694545 62.0666667,21.2727273 L55.5333333,21.2727273 C55.5333333,20.3694545 54.8016,19.6363636 53.9,19.6363636 C52.9984,19.6363636 52.2666667,20.3694545 52.2666667,21.2727273 L45.7333333,21.2727273 C45.7333333,20.3694545 45.0016,19.6363636 44.1,19.6363636 C43.1984,19.6363636 42.4666667,20.3694545 42.4666667,21.2727273 L35.9333333,21.2727273 C35.9333333,20.3694545 35.2016,19.6363636 34.3,19.6363636 C33.3984,19.6363636 32.6666667,20.3694545 32.6666667,21.2727273 L26.1333333,21.2727273 C26.1333333,20.3694545 25.4016,19.6363636 24.5,19.6363636 C23.5984,19.6363636 22.8666667,20.3694545 22.8666667,21.2727273 L16.3333333,21.2727273 C16.3333333,20.3694545 15.6016,19.6363636 14.7,19.6363636 C13.7984,19.6363636 13.0666667,20.3694545 13.0666667,21.2727273 L6.53333333,21.2727273 C6.53333333,20.3694545 5.8016,19.6363636 4.9,19.6363636 C3.9984,19.6363636 3.26666667,20.3694545 3.26666667,21.2727273 L3.26666667,11.4545455 C3.26666667,12.3578182 3.9984,13.0909091 4.9,13.0909091 Z M94.7333333,65.0994545 C94.7333333,67.0990909 93.1081667,68.7272727 91.1122333,68.7272727 L6.88776667,68.7272727 C4.89183333,68.7272727 3.26666667,67.0990909 3.26666667,65.0994545 L3.26666667,24.5454545 L94.7333333,24.5454545 L94.7333333,65.0994545 Z M3.26666667,8.18181818 L3.26666667,6.90054545 C3.26666667,4.90090909 4.89183333,3.27272727 6.88776667,3.27272727 L91.1122333,3.27272727 C93.1081667,3.27272727 94.7333333,4.90090909 94.7333333,6.90054545 L94.7333333,8.18181818 L3.26666667,8.18181818 Z" id="Shape" fill="#446AAB"></path>
                    <path d="M13.0666667,34.3636364 L26.1333333,34.3636364 C27.0349333,34.3636364 27.7666667,33.6305455 27.7666667,32.7272727 C27.7666667,31.824 27.0349333,31.0909091 26.1333333,31.0909091 L13.0666667,31.0909091 C12.1650667,31.0909091 11.4333333,31.824 11.4333333,32.7272727 C11.4333333,33.6305455 12.1650667,34.3636364 13.0666667,34.3636364 Z" id="Shape" fill="#446AAB"></path>
                    <path d="M32.6666667,34.3636364 L45.7333333,34.3636364 C46.6349333,34.3636364 47.3666667,33.6305455 47.3666667,32.7272727 C47.3666667,31.824 46.6349333,31.0909091 45.7333333,31.0909091 L32.6666667,31.0909091 C31.7650667,31.0909091 31.0333333,31.824 31.0333333,32.7272727 C31.0333333,33.6305455 31.7650667,34.3636364 32.6666667,34.3636364 Z" id="Shape" fill="#446AAB"></path>
                    <path d="M13.0666667,42.5454545 L14.7,42.5454545 C15.6016,42.5454545 16.3333333,41.8123636 16.3333333,40.9090909 C16.3333333,40.0058182 15.6016,39.2727273 14.7,39.2727273 L13.0666667,39.2727273 C12.1650667,39.2727273 11.4333333,40.0058182 11.4333333,40.9090909 C11.4333333,41.8123636 12.1650667,42.5454545 13.0666667,42.5454545 Z" id="Shape" fill="#446AAB"></path>
                    <path d="M24.5,39.2727273 L21.2333333,39.2727273 C20.3317333,39.2727273 19.6,40.0058182 19.6,40.9090909 C19.6,41.8123636 20.3317333,42.5454545 21.2333333,42.5454545 L24.5,42.5454545 C25.4016,42.5454545 26.1333333,41.8123636 26.1333333,40.9090909 C26.1333333,40.0058182 25.4016,39.2727273 24.5,39.2727273 Z" id="Shape" fill="#446AAB"></path>
                    <path d="M31.0333333,42.5454545 L32.6666667,42.5454545 C33.5682667,42.5454545 34.3,41.8123636 34.3,40.9090909 C34.3,40.0058182 33.5682667,39.2727273 32.6666667,39.2727273 L31.0333333,39.2727273 C30.1317333,39.2727273 29.4,40.0058182 29.4,40.9090909 C29.4,41.8123636 30.1317333,42.5454545 31.0333333,42.5454545 Z" id="Shape" fill="#446AAB"></path>
                    <path d="M42.4666667,39.2727273 L39.2,39.2727273 C38.2984,39.2727273 37.5666667,40.0058182 37.5666667,40.9090909 C37.5666667,41.8123636 38.2984,42.5454545 39.2,42.5454545 L42.4666667,42.5454545 C43.3682667,42.5454545 44.1,41.8123636 44.1,40.9090909 C44.1,40.0058182 43.3682667,39.2727273 42.4666667,39.2727273 Z" id="Shape" fill="#446AAB"></path>
                    <path d="M47.8403333,42.0709091 C48.1506667,42.3654545 48.5753333,42.5454545 49,42.5454545 C49.4246667,42.5454545 49.8493333,42.3654545 50.1596667,42.0709091 C50.4536667,41.76 50.6333333,41.3345455 50.6333333,40.9090909 C50.6333333,40.4836364 50.4536667,40.0581818 50.1596667,39.7472727 C49.5553333,39.1418182 48.4446667,39.1418182 47.8403333,39.7472727 C47.5463333,40.0581818 47.3666667,40.4836364 47.3666667,40.9090909 C47.3666667,41.3509091 47.5463333,41.76 47.8403333,42.0709091 Z" id="Shape" fill="#446AAB"></path>
                    <path d="M76.7666667,39.2727273 C75.8650667,39.2727273 75.1333333,40.0058182 75.1333333,40.9090909 C75.1333333,41.8123636 75.8650667,42.5454545 76.7666667,42.5454545 L78.4,42.5454545 C79.3016,42.5454545 80.0333333,41.8123636 80.0333333,40.9090909 C80.0333333,40.0058182 79.3016,39.2727273 78.4,39.2727273 L76.7666667,39.2727273 Z" id="Shape" fill="#446AAB"></path>
                    <path d="M83.7736667,39.7472727 C83.4796667,40.0581818 83.3,40.4836364 83.3,40.9090909 C83.3,41.3345455 83.4796667,41.76 83.7736667,42.0709091 C84.084,42.3654545 84.5086667,42.5454545 84.9333333,42.5454545 C85.358,42.5454545 85.7826667,42.3654545 86.093,42.0709091 C86.387,41.76 86.5666667,41.3345455 86.5666667,40.9090909 C86.5666667,40.4836364 86.387,40.0581818 86.093,39.7472727 C85.4886667,39.1418182 84.378,39.1418182 83.7736667,39.7472727 Z" id="Shape" fill="#446AAB"></path>
                    <path d="M52.2666667,34.3636364 L65.3333333,34.3636364 C66.2349333,34.3636364 66.9666667,33.6305455 66.9666667,32.7272727 C66.9666667,31.824 66.2349333,31.0909091 65.3333333,31.0909091 L52.2666667,31.0909091 C51.3650667,31.0909091 50.6333333,31.824 50.6333333,32.7272727 C50.6333333,33.6305455 51.3650667,34.3636364 52.2666667,34.3636364 Z" id="Shape" fill="#446AAB"></path>
                    <path d="M71.8666667,34.3636364 L84.9333333,34.3636364 C85.8349333,34.3636364 86.5666667,33.6305455 86.5666667,32.7272727 C86.5666667,31.824 85.8349333,31.0909091 84.9333333,31.0909091 L71.8666667,31.0909091 C70.9650667,31.0909091 70.2333333,31.824 70.2333333,32.7272727 C70.2333333,33.6305455 70.9650667,34.3636364 71.8666667,34.3636364 Z" id="Shape" fill="#446AAB"></path>
                    <path d="M55.5333333,42.5454545 L63.7,42.5454545 C64.6016,42.5454545 65.3333333,41.8123636 65.3333333,40.9090909 C65.3333333,40.0058182 64.6016,39.2727273 63.7,39.2727273 L55.5333333,39.2727273 C54.6317333,39.2727273 53.9,40.0058182 53.9,40.9090909 C53.9,41.8123636 54.6317333,42.5454545 55.5333333,42.5454545 Z" id="Shape" fill="#446AAB"></path>
                    <path d="M70.2333333,42.5454545 C70.658,42.5454545 71.0826667,42.3654545 71.393,42.0709091 C71.687,41.76 71.8666667,41.3345455 71.8666667,40.9090909 C71.8666667,40.4836364 71.687,40.0581818 71.393,39.7472727 C70.7886667,39.1418182 69.678,39.1418182 69.0736667,39.7472727 C68.7796667,40.0581818 68.6,40.4836364 68.6,40.9090909 C68.6,41.3345455 68.7796667,41.76 69.0736667,42.0709091 C69.384,42.3654545 69.8086667,42.5454545 70.2333333,42.5454545 Z" id="Shape" fill="#446AAB"></path>
                    <path d="M61.5783,48.1090909 C58.0013,49.9745455 56.7959,53.5434545 56.3581667,57.2432727 C55.6819667,56.6754545 55.0057667,56.1092727 54.3312,55.5414545 C52.7305333,54.198 50.4079333,56.5003636 52.0216667,57.8552727 C53.5488333,59.1381818 55.0776333,60.4194545 56.6048,61.7023636 C57.6795333,62.6056364 59.3422667,62.0345455 59.3929,60.5454545 C59.5121333,57.0010909 59.6787333,52.7858182 63.2279667,50.9350909 C65.0932333,49.9630909 63.4419333,47.1370909 61.5783,48.1090909 Z" id="Shape" fill="#24BE00"></path>
                    <path d="M63.2116333,55.7672727 C66.2659667,59.094 70.1957667,58.0810909 73.6633333,56.1976364 C74.4440667,57.0730909 75.4126333,57.7129091 76.6637667,57.9665455 C77.9573667,58.2283636 83.2379333,56.1010909 83.5237667,56.4921818 C84.7520333,58.176 87.5875,56.5445455 86.3445333,54.8410909 C85.5017333,53.6841818 84.7242667,53.0672727 83.2281333,52.9723636 C80.8467333,52.8218182 77.3612,56.4987273 75.5253333,53.2227273 C75.1006667,52.4634545 74.0341,52.1787273 73.2909333,52.6352727 C70.9781333,54.0572727 67.9548333,56.1027273 65.5228,53.4534545 C64.0952667,51.8989091 61.789,54.2176364 63.2116333,55.7672727 Z" id="Shape" fill="#24BE00"></path>
                    <ellipse id="Oval" fill="#DFE2E6" cx="68.6" cy="16.3636364" rx="1.63333333" ry="1.63636364"></ellipse>
                    <ellipse id="Oval" fill="#DFE2E6" cx="78.4" cy="16.3636364" rx="1.63333333" ry="1.63636364"></ellipse>
                    <ellipse id="Oval" fill="#DFE2E6" cx="39.2" cy="16.3636364" rx="1.63333333" ry="1.63636364"></ellipse>
                    <ellipse id="Oval" fill="#DFE2E6" cx="49" cy="16.3636364" rx="1.63333333" ry="1.63636364"></ellipse>
                    <ellipse id="Oval" fill="#DFE2E6" cx="58.8" cy="16.3636364" rx="1.63333333" ry="1.63636364"></ellipse>
                    <ellipse id="Oval" fill="#DFE2E6" cx="88.2" cy="16.3636364" rx="1.63333333" ry="1.63636364"></ellipse>
                    <ellipse id="Oval" fill="#DFE2E6" cx="29.4" cy="16.3636364" rx="1.63333333" ry="1.63636364"></ellipse>
                    <ellipse id="Oval" fill="#DFE2E6" cx="9.8" cy="16.3636364" rx="1.63333333" ry="1.63636364"></ellipse>
                    <ellipse id="Oval" fill="#DFE2E6" cx="19.6" cy="16.3636364" rx="1.63333333" ry="1.63636364"></ellipse>
                </g>
                <rect id="Rectangle-26" fill="#FFFFFF" x="250" y="78" width="33" height="14"></rect>
                <g id="stopwatch" transform="translate(226.000000, 80.000000)">
                    <path d="M82.6112,61.3312 C82.9952,59.0448 83.2,56.7232 83.2,54.4 C83.2,44.7264 79.872,35.8224 74.3136,28.7488 L79.5312,23.5312 C80.1568,22.9056 80.1568,21.8944 79.5312,21.2688 L73.1312,14.8688 C72.5056,14.2432 71.4944,14.2432 70.8688,14.8688 L65.416,20.3216 C60.3232,16.752 54.4032,14.2864 48,13.2928 L48,9.6 L54.4,9.6 C55.2848,9.6 56,8.8848 56,8 L56,1.6 C56,0.7152 55.2848,0 54.4,0 L28.8,0 C27.9152,0 27.2,0.7152 27.2,1.6 L27.2,8 C27.2,8.8848 27.9152,9.6 28.8,9.6 L35.2,9.6 L35.2,13.2928 C15.288,16.3808 0,33.6368 0,54.4 C0,77.3392 18.6608,96 41.6,96 C49.8,96 57.6608,93.6048 64.464,89.1088 C67.6848,93.2896 72.7264,96 78.4,96 C88.104,96 96,88.104 96,78.4 C96,70.1488 90.2848,63.2256 82.6112,61.3312 Z M72,18.2624 L76.1376,22.4 L72.2416,26.296 C70.9216,24.8576 69.5024,23.5104 67.9936,22.2688 L72,18.2624 Z M30.4,6.4 L30.4,3.2 L52.8,3.2 L52.8,6.4 L30.4,6.4 Z M44.8,9.6 L44.8,12.936 C43.7424,12.8544 42.6784,12.8 41.6,12.8 C40.5216,12.8 39.4576,12.8544 38.4,12.936 L38.4,9.6 L44.8,9.6 Z M41.6,92.8 C20.4272,92.8 3.2,75.5728 3.2,54.4 C3.2,33.2272 20.4272,16 41.6,16 C62.7728,16 80,33.2272 80,54.4 C80,56.5568 79.8192,58.7152 79.4592,60.8368 C79.096,60.8128 78.7456,60.8 78.4,60.8 C77.6368,60.8 76.8896,60.8656 76.1504,60.96 C76.5792,58.7552 76.8,56.5568 76.8,54.4 C76.8,34.9904 61.0096,19.2 41.6,19.2 C22.1904,19.2 6.4,34.9904 6.4,54.4 C6.4,73.8096 22.1904,89.6 41.6,89.6 C48.8128,89.6 55.6464,87.448 61.528,83.3776 C61.6208,83.6928 61.7312,83.9984 61.8416,84.3056 C61.888,84.4368 61.936,84.568 61.9856,84.6992 C62.1968,85.2464 62.432,85.7808 62.6944,86.2992 C62.7168,86.3456 62.7328,86.3936 62.7568,86.4384 C56.4688,90.6064 49.184,92.8 41.6,92.8 Z M63.296,69.4128 C63.0976,69.744 62.9072,70.08 62.7312,70.4256 C62.6992,70.488 62.672,70.552 62.64,70.6144 C62.136,71.6304 61.7296,72.7008 61.4272,73.816 C61.3648,74.0464 61.3024,74.2768 61.248,74.5104 C61.192,74.7568 61.1424,75.0048 61.0976,75.2544 C61.04,75.5648 60.9936,75.8784 60.9536,76.1936 C60.928,76.3936 60.8992,76.592 60.8816,76.7936 C60.832,77.3232 60.8,77.8592 60.8,78.4 C60.8,78.888 60.8256,79.384 60.8768,79.92 C55.28,84.1632 48.6336,86.4 41.6,86.4 C23.9552,86.4 9.6,72.0448 9.6,54.4 C9.6,36.7552 23.9552,22.4 41.6,22.4 C59.2448,22.4 73.6,36.7552 73.6,54.4 C73.6,56.808 73.3008,59.28 72.7104,61.7568 C72.6192,61.7872 72.5328,61.8272 72.4432,61.8608 C71.3376,62.2592 70.2848,62.7648 69.2928,63.368 C69.16,63.448 69.0272,63.5248 68.8976,63.6096 C68.6192,63.7888 68.3488,63.9792 68.0816,64.1744 C67.9488,64.2704 67.8176,64.368 67.688,64.4688 C67.4192,64.6768 67.1536,64.888 66.8976,65.1104 C66.8064,65.1888 66.72,65.272 66.632,65.352 C65.7216,66.1744 64.8976,67.0864 64.1744,68.0816 C64.1472,68.1184 64.1184,68.1552 64.0912,68.192 C63.864,68.5104 63.6496,68.8384 63.4432,69.1712 C63.3936,69.2512 63.3456,69.3312 63.296,69.4128 Z M78.4,92.8 C73.2544,92.8 68.744,90.0784 66.1968,86.008 C65.8528,85.4592 65.5472,84.8912 65.2832,84.3088 C65.2752,84.2928 65.2672,84.2768 65.2592,84.2608 C64.992,83.6656 64.768,83.0544 64.5856,82.432 C64.5696,82.3744 64.5568,82.3152 64.5408,82.2576 C64.392,81.7296 64.2816,81.1936 64.1952,80.6528 C64.1824,80.5744 64.1696,80.4944 64.1584,80.416 L64.1584,80.4032 C64.1392,80.2688 64.1312,80.1568 64.1168,80.0288 C64.0528,79.488 64,78.9472 64,78.4 C64,77.9504 64.0272,77.5072 64.0672,77.0688 C64.0832,76.8928 64.1104,76.72 64.1328,76.5456 C64.1648,76.2944 64.2016,76.0448 64.2464,75.7984 C64.288,75.576 64.3344,75.3568 64.3856,75.1376 C64.4272,74.9584 64.4752,74.7808 64.5232,74.6048 C64.5936,74.3488 64.6656,74.0944 64.7488,73.8448 C64.7808,73.752 64.8176,73.6608 64.8496,73.568 C65.336,72.216 66.0176,70.9472 66.8704,69.8064 C66.9024,69.7632 66.9344,69.7184 66.968,69.6752 C67.1728,69.4064 67.3888,69.144 67.6112,68.8912 C67.6496,68.848 67.6896,68.8048 67.7296,68.7616 C68.6944,67.6944 69.8192,66.7696 71.0736,66.024 C71.136,65.9872 71.1984,65.9456 71.2624,65.9088 C71.5328,65.7536 71.8096,65.6112 72.0912,65.4736 C72.1856,65.4272 72.2784,65.3824 72.3728,65.3376 C72.656,65.2064 72.944,65.0848 73.2368,64.9712 C73.3248,64.9376 73.4128,64.9072 73.5008,64.8752 C73.8144,64.7616 74.1296,64.6544 74.4528,64.5616 C75.7104,64.2048 77.0304,64 78.4,64 C78.776,64 79.1456,64.0288 79.5136,64.056 C79.8304,64.0848 80.16,64.1216 80.5216,64.1744 L80.5248,64.1744 C87.4592,65.208 92.8,71.184 92.8,78.4 C92.8,86.3408 86.3408,92.8 78.4,92.8 Z" id="Shape" fill="#446AAB" fill-rule="nonzero"></path>
                    <circle id="Oval-15" fill="#24BE00" cx="78.5" cy="78.5" r="14.5"></circle>
                    <path d="M85.2688,70.8688 L75.2,80.9376 L71.5312,77.2688 L69.2688,79.5312 L74.0688,84.3312 C74.3808,84.6432 74.7904,84.8 75.2,84.8 C75.6096,84.8 76.0192,84.6432 76.3312,84.3312 L87.5312,73.1312 L85.2688,70.8688 Z" id="Shape" fill="#FFFFFF" fill-rule="nonzero"></path>
                    <path d="M43.2,52.8 L40,52.8 C38.2352,52.8 36.8,51.3648 36.8,49.6 C36.8,47.8352 38.2352,46.4 40,46.4 L43.2,46.4 C44.9648,46.4 46.4,47.8352 46.4,49.6 L49.6,49.6 C49.6,46.0704 46.7296,43.2 43.2,43.2 L43.2,40 L40,40 L40,43.2 C36.4704,43.2 33.6,46.0704 33.6,49.6 C33.6,53.1296 36.4704,56 40,56 L43.2,56 C44.9648,56 46.4,57.4352 46.4,59.2 C46.4,60.9648 44.9648,62.4 43.2,62.4 L40,62.4 C38.2352,62.4 36.8,60.9648 36.8,59.2 L33.6,59.2 C33.6,62.7296 36.4704,65.6 40,65.6 L40,68.8 L43.2,68.8 L43.2,65.6 C46.7296,65.6 49.6,62.7296 49.6,59.2 C49.6,55.6704 46.7296,52.8 43.2,52.8 Z" id="Shape" fill="#24BE00" fill-rule="nonzero"></path>
                    <path d="M22.4,49.6 C19.7536,49.6 17.6,51.7536 17.6,54.4 C17.6,57.0464 19.7536,59.2 22.4,59.2 C25.0464,59.2 27.2,57.0464 27.2,54.4 C27.2,51.7536 25.0464,49.6 22.4,49.6 Z M22.4,56 C21.5168,56 20.8,55.2832 20.8,54.4 C20.8,53.5168 21.5168,52.8 22.4,52.8 C23.2832,52.8 24,53.5168 24,54.4 C24,55.2832 23.2832,56 22.4,56 Z" id="Shape" fill="#EDF2FA" fill-rule="nonzero"></path>
                    <path d="M60.8,49.6 C58.1536,49.6 56,51.7536 56,54.4 C56,57.0464 58.1536,59.2 60.8,59.2 C63.4464,59.2 65.6,57.0464 65.6,54.4 C65.6,51.7536 63.4464,49.6 60.8,49.6 Z M60.8,56 C59.9168,56 59.2,55.2832 59.2,54.4 C59.2,53.5168 59.9168,52.8 60.8,52.8 C61.6832,52.8 62.4,53.5168 62.4,54.4 C62.4,55.2832 61.6832,56 60.8,56 Z" id="Shape" fill="#EDF2FA" fill-rule="nonzero"></path>
                    <rect id="Rectangle-path" fill="#446AAB" fill-rule="nonzero" x="40" y="75.2" width="3.2" height="3.2"></rect>
                    <rect id="Rectangle-path" fill="#446AAB" fill-rule="nonzero" x="46.4" y="75.2" width="3.2" height="3.2"></rect>
                    <rect id="Rectangle-path" fill="#446AAB" fill-rule="nonzero" x="33.6" y="75.2" width="3.2" height="3.2"></rect>
                    <rect id="Rectangle-path" fill="#446AAB" fill-rule="nonzero" x="40" y="30.4" width="3.2" height="3.2"></rect>
                    <rect id="Rectangle-path" fill="#446AAB" fill-rule="nonzero" x="33.6" y="30.4" width="3.2" height="3.2"></rect>
                    <rect id="Rectangle-path" fill="#446AAB" fill-rule="nonzero" x="46.4" y="30.4" width="3.2" height="3.2"></rect>
                </g>
                <path d="M112.6,15.8 L109.4,15.8 C107.6352,15.8 106.2,14.3648 106.2,12.6 C106.2,10.8352 107.6352,9.4 109.4,9.4 L112.6,9.4 C114.3648,9.4 115.8,10.8352 115.8,12.6 L119,12.6 C119,9.0704 116.1296,6.2 112.6,6.2 L112.6,3 L109.4,3 L109.4,6.2 C105.8704,6.2 103,9.0704 103,12.6 C103,16.1296 105.8704,19 109.4,19 L112.6,19 C114.3648,19 115.8,20.4352 115.8,22.2 C115.8,23.9648 114.3648,25.4 112.6,25.4 L109.4,25.4 C107.6352,25.4 106.2,23.9648 106.2,22.2 L103,22.2 C103,25.7296 105.8704,28.6 109.4,28.6 L109.4,31.8 L112.6,31.8 L112.6,28.6 C116.1296,28.6 119,25.7296 119,22.2 C119,18.6704 116.1296,15.8 112.6,15.8 Z" id="Shape" fill="#EDF2FA" fill-rule="nonzero" transform="translate(111.000000, 17.400000) rotate(24.273793) translate(-111.000000, -17.400000) "></path>
                <path d="M312.6,215.8 L309.4,215.8 C307.6352,215.8 306.2,214.3648 306.2,212.6 C306.2,210.8352 307.6352,209.4 309.4,209.4 L312.6,209.4 C314.3648,209.4 315.8,210.8352 315.8,212.6 L319,212.6 C319,209.0704 316.1296,206.2 312.6,206.2 L312.6,203 L309.4,203 L309.4,206.2 C305.8704,206.2 303,209.0704 303,212.6 C303,216.1296 305.8704,219 309.4,219 L312.6,219 C314.3648,219 315.8,220.4352 315.8,222.2 C315.8,223.9648 314.3648,225.4 312.6,225.4 L309.4,225.4 C307.6352,225.4 306.2,223.9648 306.2,222.2 L303,222.2 C303,225.7296 305.8704,228.6 309.4,228.6 L309.4,231.8 L312.6,231.8 L312.6,228.6 C316.1296,228.6 319,225.7296 319,222.2 C319,218.6704 316.1296,215.8 312.6,215.8 Z" id="Shape" fill="#EDF2FA" fill-rule="nonzero" transform="translate(311.000000, 217.400000) rotate(-25.000000) translate(-311.000000, -217.400000) "></path>
                <rect id="Rectangle-24" fill="#446AAB" x="177" y="54" width="26" height="3" rx="1.5"></rect>
                <path d="M344.428571,65.4285714 C340.096143,65.4285714 336.571429,61.9038571 336.571429,57.5714286 C336.571429,56.704 335.869,56 335,56 C334.131,56 333.428571,56.704 333.428571,57.5714286 C333.428571,61.9038571 329.903857,65.4285714 325.571429,65.4285714 C324.702429,65.4285714 324,66.1325714 324,67 C324,67.8674286 324.702429,68.5714286 325.571429,68.5714286 C329.903857,68.5714286 333.428571,72.0961429 333.428571,76.4285714 C333.428571,77.296 334.131,78 335,78 C335.869,78 336.571429,77.296 336.571429,76.4285714 C336.571429,72.0961429 340.096143,68.5714286 344.428571,68.5714286 C345.297571,68.5714286 346,67.8674286 346,67 C346,66.1325714 345.297571,65.4285714 344.428571,65.4285714 Z M335,70.7667143 C334.071286,69.2251429 332.773286,67.9287143 331.233286,67 C332.773286,66.0712857 334.072857,64.7732857 335,63.2332857 C335.928714,64.7748571 337.226714,66.0712857 338.766714,67 C337.226714,67.9287143 335.928714,69.2267143 335,70.7667143 Z" id="Shape" fill="#EDF2FA" fill-rule="nonzero"></path>
                <path d="M25.4285714,168.428571 C21.0961429,168.428571 17.5714286,164.903857 17.5714286,160.571429 C17.5714286,159.704 16.869,159 16,159 C15.131,159 14.4285714,159.704 14.4285714,160.571429 C14.4285714,164.903857 10.9038571,168.428571 6.57142857,168.428571 C5.70242857,168.428571 5,169.132571 5,170 C5,170.867429 5.70242857,171.571429 6.57142857,171.571429 C10.9038571,171.571429 14.4285714,175.096143 14.4285714,179.428571 C14.4285714,180.296 15.131,181 16,181 C16.869,181 17.5714286,180.296 17.5714286,179.428571 C17.5714286,175.096143 21.0961429,171.571429 25.4285714,171.571429 C26.2975714,171.571429 27,170.867429 27,170 C27,169.132571 26.2975714,168.428571 25.4285714,168.428571 Z M16,173.766714 C15.0712857,172.225143 13.7732857,170.928714 12.2332857,170 C13.7732857,169.071286 15.0728571,167.773286 16,166.233286 C16.9287143,167.774857 18.2267143,169.071286 19.7667143,170 C18.2267143,170.928714 16.9287143,172.226714 16,173.766714 Z" id="Shape" fill="#EDF2FA" fill-rule="nonzero" transform="translate(16.000000, 170.000000) rotate(-33.364424) translate(-16.000000, -170.000000) "></path>
                <path d="M59.6025395,46.0455357 C53.247302,46.0455357 48.0769002,40.8751339 48.0769002,34.5198964 C48.0769002,33.2474658 47.046508,32.2147685 45.7717723,32.2147685 C44.4970366,32.2147685 43.4666444,33.2474658 43.4666444,34.5198964 C43.4666444,40.8751339 38.2962426,46.0455357 31.9410051,46.0455357 C30.6662694,46.0455357 29.6358772,47.078233 29.6358772,48.3506636 C29.6358772,49.6230942 30.6662694,50.6557914 31.9410051,50.6557914 C38.2962426,50.6557914 43.4666444,55.8261933 43.4666444,62.1814308 C43.4666444,63.4538614 44.4970366,64.4865586 45.7717723,64.4865586 C47.046508,64.4865586 48.0769002,63.4538614 48.0769002,62.1814308 C48.0769002,55.8261933 53.247302,50.6557914 59.6025395,50.6557914 C60.8772752,50.6557914 61.9076674,49.6230942 61.9076674,48.3506636 C61.9076674,47.078233 60.8772752,46.0455357 59.6025395,46.0455357 Z M45.7717723,53.8760551 C44.4094417,51.6147246 42.5054061,49.7129942 40.2463808,48.3506636 C42.5054061,46.988333 44.4117469,45.0842974 45.7717723,42.8252721 C47.1341029,45.0866025 49.0381385,46.988333 51.2971638,48.3506636 C49.0381385,49.7129942 47.1341029,51.6170298 45.7717723,53.8760551 Z" id="Shape" fill="#EDF2FA" fill-rule="nonzero" transform="translate(45.771772, 48.350664) rotate(32.178625) translate(-45.771772, -48.350664) "></path>
                <circle id="Oval-16" fill="#EDF2FA" cx="78" cy="97" r="6"></circle>
                <circle id="Oval-16" fill="#EDF2FA" cx="296" cy="25" r="4"></circle>
                <circle id="Oval-16" fill="#EDF2FA" cx="282" cy="198" r="4"></circle>
                <circle id="Oval-16" stroke="#EDF2FA" stroke-width="3" cx="79" cy="235" r="5.5"></circle>
                <circle id="Oval-16" stroke="#EDF2FA" stroke-width="3" cx="22" cy="105" r="5.5"></circle>
                <circle id="Oval-16" stroke="#EDF2FA" stroke-width="3" cx="251" cy="5" r="5.5"></circle>
                <circle id="Oval-16" stroke="#EDF2FA" stroke-width="3" cx="343" cy="115" r="5.5"></circle>
            </g>
        </g>
    </g>
</svg>