<?xml version="1.0" encoding="UTF-8"?>
<svg width="90px" height="90px" viewBox="0 0 90 90" version="1.1" xmlns="http://www.w3.org/2000/svg" xmlns:xlink="http://www.w3.org/1999/xlink">
    <!-- Generator: Sketch 46.2 (44496) - http://www.bohemiancoding.com/sketch -->
    <title>loan_matching</title>
    <desc>Created with Sketch.</desc>
    <defs></defs>
    <g id="Page-1" stroke="none" stroke-width="1" fill="none" fill-rule="evenodd">
        <g id="loan_matching" fill-rule="nonzero" fill="#446AAB">
            <g transform="translate(7.000000, 5.000000)" id="if_1-21_2137606">
                <g>
                    <path d="M75.7866955,41.803125 C75.4182027,38.5125 73.8214003,35.5875 71.2419504,33.515625 L71.2419504,33.515625 C68.6625005,31.44375 65.2232339,30.590625 62.0296292,31.078125 C58.7131936,31.565625 55.8880818,33.39375 54.0456176,36.075 C53.5542938,36.80625 53.1858009,37.659375 52.8173081,38.5125 C52.6944771,38.75625 52.5716462,39.121875 52.4488152,39.365625 C52.4488152,39.365625 52.3259843,39.365625 52.3259843,39.365625 L51.0976748,25.471875 L31.8132158,24.13125 C31.8132158,23.765625 31.6903848,23.278125 31.6903848,22.9125 C31.9360467,22.66875 32.1817086,22.546875 32.4273705,22.303125 C33.1643562,21.815625 33.9013419,21.328125 34.5154967,20.596875 C36.7264537,18.159375 37.8319323,15.1125 37.5862704,11.821875 C37.3406085,8.53125 35.7438062,5.484375 33.1643562,3.4125 C30.5849063,1.340625 27.3913016,0.365625 24.074866,0.853125 C20.7584304,1.21875 17.8104876,3.046875 15.8451924,5.728125 C13.6342353,8.775 12.8972496,12.553125 14.0027282,16.209375 C15.1082067,19.74375 17.6876567,22.546875 21.2497542,23.8875 C21.2497542,24.009375 21.2497542,24.13125 21.2497542,24.375 C20.6355994,24.375 20.0214447,24.496875 19.4072899,24.496875 C16.0908543,24.740625 12.5287568,25.228125 8.96665928,26.325 C8.47533548,26.446875 8.10684263,26.56875 7.61551884,26.8125 C3.80775942,28.275 1.59680234,30.95625 0.736985694,34.85625 C-0.245661898,39.853125 0.122830949,44.85 0.736985694,50.334375 L0.859816643,51.796875 L3.68492847,51.43125 C4.54474511,51.309375 5.5273927,51.1875 6.38720935,51.1875 C7.49268789,51.1875 8.35250453,50.578125 8.72099738,49.48125 C9.45798307,47.2875 10.8091235,45.703125 12.8972496,44.60625 C15.1082067,43.3875 17.6876567,43.14375 20.0214447,43.996875 C22.3552327,44.728125 24.3205279,46.434375 25.3031755,48.75 C25.5488374,49.115625 25.6716683,49.603125 25.7944993,50.090625 C27.1456397,54.6 24.8118517,59.23125 20.3899375,60.9375 C19.161628,61.425 17.9333186,61.546875 16.5821781,61.546875 C13.5114044,61.303125 10.8091235,59.596875 9.21232117,57.0375 C8.84382833,56.428125 7.98401168,55.696875 7.00136409,55.696875 C6.14154745,55.696875 5.28173081,55.81875 4.29908321,55.940625 L1.47397139,56.184375 L6.63287124,77.634375 L55.0282651,73.6125 L54.9054342,72.15 C54.7826032,71.053125 54.5369413,68.128125 54.2912794,64.715625 C53.7999557,58.0125 53.3086319,52.528125 53.06297,49.96875 C53.3086319,49.96875 53.4314628,49.96875 53.5542938,49.846875 C55.6424199,52.89375 58.9588555,54.84375 62.7666149,55.209375 C66.5743743,55.453125 70.1364719,53.990625 72.7159218,51.1875 C75.0497098,48.2625 76.1551884,45.09375 75.7866955,41.803125 Z M70.5049647,48.75 C68.6625005,50.821875 65.9602196,52.040625 63.1351078,51.796875 C60.3099959,51.553125 57.730546,50.090625 56.2565746,47.775 C56.0109127,47.409375 55.273927,46.434375 54.1684485,46.55625 C53.4314628,46.55625 52.8173081,46.678125 52.0803224,46.8 C51.8346605,46.8 51.5889986,46.921875 51.3433367,46.921875 L49.7465343,47.165625 L49.9921962,48.628125 C50.1150272,49.359375 50.8520129,58.621875 51.3433367,64.715625 C51.5889986,67.03125 51.7118295,69.225 51.8346605,70.6875 L9.21232117,74.1 L5.40456176,58.621875 C5.89588555,58.621875 6.2643784,58.5 6.75570219,58.5 C8.84382833,61.9125 12.4059258,64.10625 16.4593472,64.35 C18.1789804,64.471875 19.8986137,64.228125 21.618247,63.61875 C27.5141326,61.303125 30.5849063,55.0875 28.865273,49.115625 C28.7424421,48.50625 28.4967802,47.896875 28.2511183,47.409375 C26.8999778,44.3625 24.3205279,42.16875 21.1269232,41.071875 C17.9333186,39.975 14.494052,40.340625 11.5461092,41.925 C8.96665928,43.3875 7.12419504,45.459375 6.0187165,48.2625 C5.28173081,48.2625 4.66757606,48.384375 3.93059037,48.384375 C3.31643562,43.753125 3.07077372,39.4875 3.93059037,35.34375 C4.54474511,32.41875 6.0187165,30.7125 8.84382833,29.615625 C9.21232117,29.49375 9.70364497,29.371875 10.0721378,29.25 C13.3885734,28.153125 16.7050091,27.7875 19.8986137,27.54375 C20.6355994,27.421875 21.3725851,27.421875 22.1095708,27.421875 L24.6890207,27.3 L24.5661898,24.8625 C24.5661898,24.253125 24.4433588,23.521875 24.3205279,22.790625 C24.074866,21.69375 22.9693875,21.20625 22.6008946,21.084375 C19.8986137,20.109375 17.9333186,18.0375 17.0735019,15.234375 C16.2136853,12.553125 16.7050091,9.75 18.4246423,7.434375 C19.8986137,5.3625 22.1095708,4.14375 24.5661898,3.778125 C27.0228088,3.4125 29.4794278,4.14375 31.321892,5.728125 C33.1643562,7.3125 34.3926657,9.628125 34.5154967,12.065625 C34.6383276,14.503125 33.9013419,16.81875 32.1817086,18.525 C31.6903848,19.0125 31.199061,19.378125 30.5849063,19.865625 C30.2164134,20.109375 29.8479206,20.353125 29.4794278,20.71875 C29.2337659,20.9625 28.4967802,21.571875 28.4967802,22.546875 C28.4967802,23.4 28.6196111,24.13125 28.6196111,24.984375 L28.7424421,27.05625 L48.0269011,28.396875 L49.2552105,42.9 L50.8520129,42.65625 C51.5889986,42.534375 52.4488152,42.4125 53.1858009,42.290625 C54.1684485,42.16875 54.6597723,41.19375 54.7826032,40.95 C55.0282651,40.584375 55.1510961,40.096875 55.396758,39.73125 C55.6424199,39 56.0109127,38.390625 56.3794056,37.903125 C57.730546,35.953125 59.8186722,34.6125 62.2752911,34.246875 C64.7319101,33.88125 67.1885291,34.490625 69.1538243,36.075 C71.1191195,37.5375 72.3474289,39.73125 72.5930908,42.16875 C72.9615837,44.484375 72.224598,46.921875 70.5049647,48.75 Z" id="Shape"></path>
                </g>
            </g>
        </g>
    </g>
</svg>