<svg width="118" height="150" viewBox="0 0 118 150" fill="none" xmlns="http://www.w3.org/2000/svg">
<path d="M84.1528 11.2629L43.1378 0.986215C39.4216 0.068651 35.6137 2.31668 34.6503 6.03281L19.7858 65.1698H20.9327L84.1069 40.0285L89.1994 19.7045C90.1629 15.9884 87.9148 12.1805 84.1528 11.2629Z" fill="white"/>
<path d="M77.5005 42.6895L81.1249 28.1461C76.0324 25.4393 72.7751 20.1633 72.5916 14.4285L52.1758 9.29015C49.2396 14.4285 43.6883 17.5482 37.7242 17.3647L26.2087 63.1511L77.5005 42.6895Z" fill="url(#paint0_linear)"/>
<path d="M71.3528 45.1669C72.775 36.5418 67.3155 28.1002 58.6904 25.9439C49.5607 23.65 40.2933 29.2013 37.9994 38.331C36.3019 45.1669 38.9628 52.0486 44.1929 56.04L71.3528 45.1669Z" fill="white"/>
<path d="M44.0093 43.0106C44.101 43.8823 44.3304 44.6622 44.6975 45.3962C45.0645 46.1303 45.5691 46.7267 46.2114 47.2314C46.8537 47.736 47.6337 48.1031 48.5512 48.3324C49.3312 48.5618 50.0652 48.6077 50.6616 48.4701C51.3039 48.3783 51.8545 48.1031 52.405 47.736C52.9555 47.369 53.4602 46.8185 53.9649 46.1762C54.4695 45.488 54.9742 44.7081 55.4788 43.7905C55.5247 43.6987 55.6165 43.5611 55.6623 43.4694C55.7082 43.3317 55.8 43.24 55.8459 43.1482L61.7183 44.6622C61.4889 45.3045 61.1677 45.9468 60.8007 46.5432C60.4337 47.1396 60.0667 47.6443 59.6996 48.1031C59.3326 48.5618 58.9656 48.9747 58.5527 49.2959C58.1856 49.617 57.8645 49.8464 57.5892 50.0299L58.0939 50.4887L63.1864 48.4701C63.691 47.5984 64.1498 46.635 64.471 45.6256L67.4989 46.4056L67.8659 44.9375L64.8839 44.1575C65.1132 43.1941 65.205 42.2765 65.205 41.359C65.205 40.4414 65.0215 39.6156 64.7003 38.8815C64.3792 38.1475 63.9204 37.4593 63.324 36.9547C62.7276 36.4041 61.9018 35.9912 60.8925 35.7618C59.9749 35.5324 59.195 35.4866 58.4609 35.6242C57.7269 35.7618 57.0846 36.083 56.534 36.5418C55.9376 37.0005 55.3871 37.5969 54.8824 38.331C54.3778 39.065 53.8731 39.9367 53.3226 40.8543L53.0473 41.359L47.1749 39.845C47.3584 39.2944 47.5878 38.7898 47.8631 38.331C48.1383 37.8722 48.4136 37.4134 48.7347 37.0464C49.0559 36.6794 49.3312 36.3582 49.6523 36.083C49.9734 35.8077 50.2028 35.6242 50.4781 35.4866L48.276 33.3762C47.496 34.0184 46.762 34.7984 46.0738 35.7159C45.3856 36.6335 44.8351 37.6887 44.4681 38.9274L41.6236 38.1934L41.2566 39.6615L44.101 40.3955C43.9634 41.2672 43.9175 42.1848 44.0093 43.0106ZM58.2774 39.7073C58.8738 39.1568 59.6079 38.9733 60.4337 39.2027C61.2595 39.4321 61.81 39.8909 62.0853 40.6708C62.3606 41.4507 62.3147 42.4142 62.0394 43.6529L56.4423 42.1848C57.0387 41.0378 57.681 40.2579 58.2774 39.7073ZM47.0372 40.8084L52.5885 42.2765C51.9921 43.3317 51.4415 44.0658 50.891 44.5246C50.3405 44.9833 49.6982 45.121 48.8724 44.8916C48.0466 44.6622 47.496 44.2493 47.129 43.5611C46.8537 42.9188 46.8079 42.0013 47.0372 40.8084Z" fill="url(#paint1_linear)"/>
<path d="M85.1619 49.2959C85.1619 49.2959 7.62783 61.5912 6.34324 64.8945C5.01277 68.1977 9.32532 69.207 19.3268 69.2988C26.9884 69.3905 76.2157 69.3446 99.2007 69.2988C105.669 69.2988 110.945 74.5289 110.945 81.0436V137.749C110.945 144.218 105.715 149.448 99.2465 149.448H12.6285C6.15973 149.448 0.883733 144.218 0.883733 137.703V69.1153C0.883733 69.1153 -0.446734 60.3525 7.30668 58.1962C15.0601 56.04 57.7727 42.5059 65.7096 41.6342C69.4257 41.2213 73.7841 41.4507 77.5003 43.3317C81.767 45.4421 85.1619 49.2959 85.1619 49.2959Z" fill="white"/>
<path d="M100.806 38.4687L66.5355 13.6944C63.4158 11.4464 59.0573 12.1346 56.8093 15.2543L21.0244 64.711L21.7125 65.1698H90.1169L102.412 48.1948C104.614 45.121 103.926 40.7167 100.806 38.4687Z" fill="white"/>
<path d="M82.96 65.1698L91.7227 53.0579C87.9607 48.6536 86.9055 42.5518 88.9242 37.1382L71.8575 24.797C67.2238 28.4672 60.8926 29.3389 55.4331 26.9532L27.7686 65.1698H82.96Z" fill="url(#paint2_linear)"/>
<path d="M76.3533 65.1698C80.8493 57.6458 78.9683 47.8278 71.7196 42.5977C64.1038 37.0923 53.4601 38.7898 47.9088 46.4056C43.7798 52.0945 43.688 59.4809 47.083 65.1698H76.3533Z" fill="white"/>
<path d="M51.1203 52.9202C50.8451 53.7919 50.7992 54.6636 50.8451 55.5353C50.9368 56.407 51.1662 57.1869 51.5791 57.9668C51.992 58.7009 52.6343 59.3891 53.4601 59.9855C54.1483 60.4901 54.8365 60.8113 55.4788 60.9489C56.1211 61.0866 56.8092 61.0866 57.4974 60.903C58.1856 60.7195 58.9196 60.4443 59.6537 59.9396C60.3877 59.4808 61.2135 58.8844 62.0852 58.1504C62.177 58.0586 62.3146 58.0127 62.4064 57.921C62.4981 57.8292 62.6358 57.7374 62.7275 57.6916L67.9118 61.4995C67.4071 62.05 66.8566 62.5547 66.2601 62.9676C65.6637 63.3805 65.1132 63.7934 64.5627 64.0686C64.0121 64.3898 63.4616 64.6192 63.0028 64.8027C62.4981 64.9862 62.0852 65.078 61.7641 65.1238L62.0852 65.7661H67.9118C68.7834 65.1238 69.5634 64.3439 70.2974 63.4722L72.9584 65.445L73.9218 64.1604L71.3067 62.2335C71.9032 61.3618 72.4078 60.4901 72.729 59.6185C73.0501 58.7009 73.2336 57.8292 73.2336 56.9575C73.2336 56.0858 73.0501 55.26 72.6372 54.4801C72.2243 53.7002 71.6279 52.9661 70.7103 52.3238C69.9304 51.7274 69.1505 51.3604 68.3705 51.2228C67.5906 51.0851 66.8566 51.131 66.0766 51.3604C65.3426 51.5898 64.5626 51.9568 63.7368 52.4615C62.9569 53.012 62.0852 53.6084 61.2135 54.3425L60.7548 54.7554L55.5705 50.9475C55.9834 50.4887 56.3963 50.0758 56.8551 49.7088C57.3139 49.3417 57.7727 49.0206 58.2315 48.7912C58.6902 48.5159 59.1032 48.3324 59.5161 48.1948C59.929 48.0572 60.2501 47.9654 60.5254 47.9195L59.149 44.9374C58.0938 45.2586 57.0845 45.7174 56.0293 46.4055C54.9741 47.0478 54.0107 47.8736 53.1849 48.9288L50.6616 47.0478L49.6981 48.3324L52.2214 50.2134C51.7626 51.131 51.3497 52.0486 51.1203 52.9202ZM66.4895 55.26C67.3153 54.9389 68.0494 55.0765 68.7834 55.6271C69.5175 56.1776 69.8845 56.8658 69.8386 57.7375C69.7928 58.6091 69.3799 59.5726 68.5999 60.6278L63.6451 56.9575C64.7462 56.1317 65.7096 55.5353 66.4895 55.26ZM54.9282 51.9568L59.8372 55.5812C58.8279 56.407 57.9562 56.9116 57.268 57.141C56.534 57.3704 55.8458 57.2328 55.1576 56.7281C54.4236 56.1776 54.0565 55.5353 53.9648 54.7554C53.9189 53.9296 54.2401 52.9661 54.9282 51.9568Z" fill="url(#paint3_linear)"/>
<path d="M12.7205 65.1698H96.5858C96.5858 65.1698 94.246 54.893 85.6209 54.7554C76.9958 54.6637 12.7205 65.1698 12.7205 65.1698Z" fill="white"/>
<path d="M110.9 117.242H82.8682C77.3169 117.242 72.8209 112.745 72.8209 107.194C72.8209 101.643 77.3169 97.1469 82.8682 97.1469H110.9C114.295 97.1469 117.047 99.8996 117.047 103.295V111.14C117.047 114.489 114.295 117.242 110.9 117.242Z" fill="url(#paint4_linear)"/>
<path d="M110.991 114.168H83.8315C79.9777 114.168 76.8121 111.048 76.8121 107.148C76.8121 103.295 79.9319 100.129 83.8315 100.129H110.991C112.689 100.129 114.065 101.505 114.065 103.203V111.048C114.065 112.791 112.689 114.168 110.991 114.168Z" fill="white"/>
<path d="M86.0798 111.507C88.4615 111.507 90.3923 109.576 90.3923 107.194C90.3923 104.812 88.4615 102.882 86.0798 102.882C83.698 102.882 81.7672 104.812 81.7672 107.194C81.7672 109.576 83.698 111.507 86.0798 111.507Z" fill="url(#paint5_linear)"/>
<defs>
<linearGradient id="paint0_linear" x1="18.7928" y1="44.4429" x2="78.1754" y2="20.6809" gradientUnits="userSpaceOnUse">
<stop stop-color="#3B8DF2"/>
<stop offset="1" stop-color="#3B43F2"/>
</linearGradient>
<linearGradient id="paint1_linear" x1="43.7506" y1="45.6699" x2="64.8199" y2="37.239" gradientUnits="userSpaceOnUse">
<stop stop-color="#3B8DF2"/>
<stop offset="1" stop-color="#3B43F2"/>
</linearGradient>
<linearGradient id="paint2_linear" x1="27.7885" y1="44.9944" x2="91.7508" y2="44.9944" gradientUnits="userSpaceOnUse">
<stop stop-color="#3B8DF2"/>
<stop offset="1" stop-color="#3B43F2"/>
</linearGradient>
<linearGradient id="paint3_linear" x1="49.7795" y1="55.406" x2="73.9244" y2="55.406" gradientUnits="userSpaceOnUse">
<stop stop-color="#3B8DF2"/>
<stop offset="1" stop-color="#3B43F2"/>
</linearGradient>
<linearGradient id="paint4_linear" x1="72.8436" y1="107.183" x2="117.046" y2="107.183" gradientUnits="userSpaceOnUse">
<stop stop-color="#3B8DF2"/>
<stop offset="1" stop-color="#3B43F2"/>
</linearGradient>
<linearGradient id="paint5_linear" x1="81.7718" y1="107.183" x2="90.3663" y2="107.183" gradientUnits="userSpaceOnUse">
<stop stop-color="#3B8DF2"/>
<stop offset="1" stop-color="#3B43F2"/>
</linearGradient>
</defs>
</svg>
