<svg width="88" height="22" viewBox="0 0 88 22" fill="none" xmlns="http://www.w3.org/2000/svg">
<path d="M28.8797 3.85649C28.8797 4.48756 28.694 4.99046 28.3228 5.36519C27.9015 5.81086 27.3527 6.03369 26.6761 6.03369C26.3652 6.03922 26.0562 5.98225 25.7673 5.86612C25.4784 5.74999 25.2154 5.57701 24.9935 5.35729C24.7717 5.13757 24.5955 4.8755 24.4752 4.58639C24.3549 4.29728 24.293 3.98691 24.293 3.6734C24.293 3.35989 24.3549 3.04953 24.4752 2.76041C24.5955 2.4713 24.7717 2.20924 24.9935 1.98952C25.2154 1.76979 25.4784 1.59682 25.7673 1.48069C26.0562 1.36455 26.3652 1.30758 26.6761 1.31311C26.9925 1.3121 27.3056 1.37654 27.5963 1.50243C27.8659 1.61309 28.1061 1.78602 28.2973 2.00729L27.9035 2.40502C27.6065 2.04741 27.1974 1.8686 26.6761 1.8686C26.4492 1.86589 26.224 1.90889 26.0137 1.99508C25.8034 2.08127 25.6124 2.20892 25.4517 2.37053C25.1076 2.70514 24.9356 3.13956 24.9356 3.67377C24.9356 4.20798 25.1076 4.64239 25.4517 4.97701C25.7844 5.29918 26.2279 5.47909 26.6892 5.47909C27.1506 5.47909 27.5941 5.29918 27.9268 4.97701C28.1452 4.75687 28.2689 4.45307 28.3024 4.06122H26.6747V3.51893H28.8469C28.8677 3.63025 28.8787 3.74321 28.8797 3.85649Z" fill="white"/>
<path d="M32.3238 1.97004H30.2855V3.40243H32.1258V3.94545H30.2855V5.37784H32.3238V5.9326H29.7031V1.41455H32.3238V1.97004Z" fill="white"/>
<path d="M34.7498 5.9326H34.1733V1.97004H32.9219V1.41455H36.0019V1.97004H34.7498V5.9326Z" fill="white"/>
<path d="M38.2305 5.9326V1.41455H38.8092V5.9326H38.2305Z" fill="white"/>
<path d="M41.3599 5.9326H40.7833V1.97004H39.5312V1.41455H42.612V1.97004H41.3599V5.9326Z" fill="white"/>
<path d="M48.4423 5.34904C48.0058 5.78683 47.4151 6.0326 46.7993 6.0326C46.1835 6.0326 45.5928 5.78683 45.1563 5.34904C44.7323 4.89595 44.4961 4.29663 44.4961 3.67376C44.4961 3.05088 44.7323 2.45156 45.1563 1.99848C45.3716 1.78073 45.6275 1.60797 45.9092 1.49008C46.1909 1.3722 46.4929 1.31152 46.7979 1.31152C47.1029 1.31152 47.4049 1.3722 47.6866 1.49008C47.9683 1.60797 48.2241 1.78073 48.4394 1.99848C48.8644 2.45049 49.1013 3.04954 49.1013 3.67229C49.1013 4.29504 48.8644 4.89409 48.4394 5.3461L48.4423 5.34904ZM45.5814 4.97039C45.9045 5.29558 46.3424 5.47823 46.7989 5.47823C47.2555 5.47823 47.6934 5.29558 48.0165 4.97039C48.3484 4.63187 48.5147 4.19965 48.5151 3.67376C48.5156 3.14786 48.3494 2.71541 48.0165 2.37639C47.6934 2.0512 47.2555 1.86855 46.7989 1.86855C46.3424 1.86855 45.9045 2.0512 45.5814 2.37639C45.25 2.71541 45.084 3.14786 45.0835 3.67376C45.083 4.19965 45.249 4.63187 45.5814 4.97039Z" fill="white"/>
<path d="M49.9102 5.9326V1.41455H50.6112L52.7893 4.92948H52.814L52.7893 4.05846V1.41675H53.3658V5.9348H52.7645L50.4852 2.24962H50.4605L50.4852 3.12065V5.9348L49.9102 5.9326Z" fill="white"/>
<path d="M44.3522 12.5228C43.5048 12.5143 42.6887 12.8447 42.0824 13.4415C41.7803 13.7529 41.5431 14.1221 41.3848 14.5274C41.2265 14.9327 41.1504 15.3658 41.1609 15.8012C41.1714 16.2367 41.2684 16.6655 41.446 17.0626C41.6237 17.4596 41.8784 17.8168 42.1953 18.1129C42.7743 18.6229 43.5128 18.9113 44.2815 18.9277C45.0502 18.944 45.8001 18.6873 46.4 18.2025C46.762 17.9021 47.0526 17.5236 47.2502 17.095C47.4479 16.6664 47.5477 16.1985 47.5422 15.7259C47.5486 15.3024 47.4704 14.8819 47.3122 14.4896C47.154 14.0972 46.9191 13.741 46.6214 13.4421C46.3237 13.1432 45.9694 12.9077 45.5795 12.7498C45.1897 12.5919 44.7723 12.5147 44.3522 12.5228ZM44.3522 17.6668C43.3898 17.6668 42.5592 16.8662 42.5592 15.7259C42.5592 14.5731 43.3898 13.7849 44.3522 13.7849C45.3146 13.7849 46.1459 14.5731 46.1459 15.7259C46.1459 16.8662 45.3153 17.6668 44.3522 17.6668ZM37.395 12.5228C36.7633 12.5194 36.1442 12.7017 35.6137 13.0475C34.7649 13.6044 34.2051 14.5657 34.2051 15.7259C34.2002 16.1519 34.2806 16.5746 34.4414 16.9686C34.6023 17.3626 34.8403 17.7198 35.1412 18.019C35.6978 18.5524 36.4226 18.8718 37.1891 18.9213C37.9555 18.9708 38.7148 18.7473 39.3343 18.2898C39.7281 17.9916 40.0465 17.6041 40.2636 17.1586C40.4808 16.7131 40.5907 16.2222 40.5843 15.7259C40.5891 15.1476 40.4397 14.5787 40.1518 14.0785C39.5986 13.1245 38.5693 12.5228 37.395 12.5228ZM37.395 17.6668C36.4319 17.6668 35.6013 16.8662 35.6013 15.7259C35.6013 14.5731 36.4319 13.7849 37.395 13.7849C38.3581 13.7849 39.188 14.5731 39.188 15.7259C39.188 16.8662 38.3574 17.6668 37.395 17.6668ZM29.1181 13.509V14.8673H32.3437C32.2476 15.6319 31.995 16.1882 31.6099 16.5778C31.1403 17.0511 30.4058 17.5729 29.1181 17.5729C27.1322 17.5729 25.5801 15.9585 25.5801 13.9574C25.5801 11.9563 27.1322 10.3427 29.1181 10.3427C30.0237 10.3304 30.8975 10.6791 31.5495 11.3127L32.5002 10.3537C31.6943 9.57729 30.6228 8.98291 29.1181 8.98291C28.2214 8.9837 27.3415 9.22725 26.5702 9.6881C25.1099 10.5584 24.1133 12.1463 24.1133 13.9567C24.1133 15.8242 25.1739 17.4554 26.7099 18.3059C27.448 18.7159 28.2769 18.9309 29.1195 18.9311C30.5878 18.9311 31.6958 18.4461 32.5621 17.5369C33.4524 16.6387 33.7268 15.3773 33.7268 14.358C33.73 14.0733 33.7056 13.789 33.654 13.509H29.1166H29.1181ZM62.9685 14.5642C62.7035 13.8488 61.8969 12.5257 60.2481 12.5257C59.5662 12.522 58.9042 12.7576 58.3758 13.192C57.6929 13.7556 57.2518 14.6435 57.2518 15.7288C57.2518 17.5244 58.5992 18.9319 60.4046 18.9319C60.9275 18.9337 61.4427 18.8048 61.904 18.5566C62.3653 18.3084 62.7583 17.9487 63.0478 17.5097L61.9654 16.7818C61.6014 17.3153 61.1107 17.6668 60.4002 17.6668C59.6897 17.6668 59.1845 17.3395 58.8599 16.6967L63.1083 14.9253L62.9685 14.5642ZM58.6356 15.6319C58.5992 14.3947 59.5864 13.7637 60.2961 13.7637C60.8501 13.7637 61.3196 14.0425 61.4762 14.4432L59.9904 15.061L58.6356 15.6319ZM55.1814 18.7374H56.5777V9.32046H55.1814V18.7374ZM52.8949 13.2419H52.8469C52.5338 12.8655 51.9318 12.5257 51.1725 12.5257C50.4333 12.5362 49.7245 12.824 49.1845 13.3329C48.8261 13.6605 48.5456 14.0655 48.3641 14.5176C48.1825 14.9696 48.1045 15.4572 48.1359 15.9438C48.1672 16.4305 48.3071 16.9038 48.5451 17.3284C48.7832 17.753 49.1132 18.118 49.5106 18.3962C49.9978 18.7407 50.5774 18.9278 51.1725 18.9326C51.9304 18.9326 52.5324 18.5928 52.8469 18.2047H52.8949V18.6655C52.8949 19.8909 52.2448 20.5462 51.198 20.5462C50.3434 20.5462 49.8149 19.9276 49.5965 19.4059L48.3808 19.9152C48.7295 20.7642 49.6562 21.8077 51.1973 21.8077C52.8337 21.8077 54.2176 20.8376 54.2176 18.4718V12.7173H52.8927L52.8949 13.2419ZM51.2934 17.6697C50.3303 17.6697 49.5244 16.8574 49.5244 15.7413C49.5244 14.6127 50.3303 13.7879 51.2934 13.7879C52.2441 13.7879 52.9903 14.6127 52.9903 15.7413C52.9888 16.8545 52.2426 17.6668 51.2919 17.6668L51.2934 17.6697ZM69.5071 9.3234H66.1672V18.7345H67.5612V15.1682H69.5078C69.9499 15.1701 70.3876 15.0795 70.7931 14.902C71.1986 14.7245 71.5631 14.4641 71.8635 14.1372C72.3169 13.6177 72.5685 12.9503 72.5719 12.2584C72.5752 11.5665 72.3301 10.8967 71.8817 10.3727C71.5811 10.0391 71.2141 9.77305 70.8047 9.59176C70.3954 9.41047 69.9528 9.31803 69.5056 9.32046L69.5071 9.3234ZM69.5435 13.8605H67.5612V10.6318H69.5442C69.7566 10.6296 69.9674 10.6697 70.1645 10.7497C70.3615 10.8297 70.541 10.948 70.6927 11.0979C70.8444 11.2478 70.9653 11.4264 71.0485 11.6234C71.1318 11.8204 71.1757 12.032 71.1778 12.2461C71.1756 12.9741 70.5838 13.8576 69.542 13.8576L69.5435 13.8605ZM78.1583 12.5089C77.1486 12.5089 76.1032 12.9572 75.6708 13.95L76.9083 14.471C77.1726 13.95 77.6654 13.7805 78.1823 13.7805C78.903 13.7805 79.6382 14.2164 79.6477 14.9913V15.0882C79.1998 14.8468 78.6996 14.7208 78.1917 14.7213C77.6254 14.7164 77.067 14.8549 76.5676 15.1241C75.9416 15.4756 75.5004 16.0539 75.5004 16.8412C75.4982 17.1535 75.5708 17.4617 75.7121 17.7396C75.8534 18.0175 76.0593 18.2568 76.3121 18.4373C76.7525 18.7516 77.2801 18.9178 77.8197 18.912C78.7566 18.912 79.2757 18.4879 79.5974 17.9919H79.6455V18.7191H80.9915V15.1095C80.9915 14.1174 80.5547 13.3858 79.8668 12.955C79.3958 12.66 78.8061 12.5059 78.1568 12.5059L78.1583 12.5089ZM77.9901 17.6682C77.5337 17.6682 76.8981 17.4378 76.8981 16.8691C76.8981 16.1419 77.6909 15.8638 78.3759 15.8638C78.9889 15.8638 79.2771 15.9966 79.6491 16.1786C79.5974 16.5869 79.4007 16.9625 79.0954 17.2358C78.7901 17.5091 78.3969 17.6617 77.9886 17.6653L77.9901 17.6682ZM85.8958 12.7143L85.2341 14.4021L84.2979 16.7943H84.2499L82.5916 12.7121H81.0898L82.2895 15.4639L83.5765 18.416L82.1584 21.5897H83.6144L86.3333 15.2914L87.4471 12.7114L85.8958 12.7143ZM73.3398 18.7374H74.7339V9.32046H73.3398V18.7374Z" fill="white"/>
<path d="M13.5503 7.65401L2.44879 1.08791C2.19103 0.935121 1.8862 0.88416 1.59331 0.944889C1.30042 1.00562 1.04029 1.17372 0.863281 1.41665L10.2657 10.9495L13.5503 7.65401Z" fill="url(#paint0_linear_678_1924)"/>
<path d="M0.625022 19.7053C0.623512 19.9539 0.698261 20.1968 0.83904 20.4009L10.2619 10.9495L0.859426 1.41663C0.70571 1.62534 0.623446 1.87875 0.625022 2.13869V19.7053Z" fill="url(#paint1_linear_678_1924)"/>
<path d="M13.4912 14.223L17.2963 11.9731C17.4779 11.8654 17.6285 11.7118 17.7331 11.5274C17.8377 11.343 17.8927 11.1343 17.8927 10.9219C17.8927 10.7095 17.8377 10.5008 17.7331 10.3165C17.6285 10.1321 17.4779 9.97846 17.2963 9.87076L13.5502 7.65393L10.2656 10.9495L13.4912 14.223Z" fill="url(#paint2_linear_678_1924)"/>
<path d="M0.839844 20.4009C1.01391 20.6531 1.27603 20.8298 1.57376 20.8957C1.8715 20.9615 2.1829 20.9117 2.44574 20.7561L13.4912 14.2252L10.2627 10.9517L0.839844 20.4009Z" fill="url(#paint3_linear_678_1924)"/>
<defs>
<linearGradient id="paint0_linear_678_1924" x1="-14.1816" y1="-12.3026" x2="8.86382" y2="6.48052" gradientUnits="userSpaceOnUse">
<stop stop-color="#32A071"/>
<stop offset="0.07" stop-color="#2DA771"/>
<stop offset="0.48" stop-color="#15CF74"/>
<stop offset="0.8" stop-color="#06E775"/>
<stop offset="1" stop-color="#00F076"/>
</linearGradient>
<linearGradient id="paint1_linear_678_1924" x1="16.8296" y1="10.8138" x2="-0.268203" y2="10.9134" gradientUnits="userSpaceOnUse">
<stop stop-color="#00A0FF"/>
<stop offset="0.01" stop-color="#00A1FF"/>
<stop offset="0.26" stop-color="#00BEFF"/>
<stop offset="0.51" stop-color="#00D2FF"/>
<stop offset="0.76" stop-color="#00DFFF"/>
<stop offset="1" stop-color="#00E3FF"/>
</linearGradient>
<linearGradient id="paint2_linear_678_1924" x1="19.2255" y1="11.3897" x2="3.79031" y2="10.1886" gradientUnits="userSpaceOnUse">
<stop stop-color="#FFE000"/>
<stop offset="0.41" stop-color="#FFBD00"/>
<stop offset="0.78" stop-color="#FFA500"/>
<stop offset="1" stop-color="#FF9C00"/>
</linearGradient>
<linearGradient id="paint3_linear_678_1924" x1="17.2155" y1="9.01368" x2="-12.6362" y2="28.6727" gradientUnits="userSpaceOnUse">
<stop stop-color="#FF3A44"/>
<stop offset="1" stop-color="#C31162"/>
</linearGradient>
</defs>
</svg>
