<svg width="18" height="18" viewBox="0 0 18 18" fill="none" xmlns="http://www.w3.org/2000/svg">
<path d="M17.25 0.808194C8.21598 -0.177815 2.23553 11.6212 0.502842 16.8458C0.33869 17.3408 0.872013 17.5739 1.18708 17.1584C2.34187 15.6353 3.36644 14.4541 4.05574 13.6984C4.62157 13.078 5.44375 12.7969 6.27993 12.7207C9.56403 12.4214 10.9308 10.3745 10.9308 10.3745C10.4031 10.5508 8.38503 10.1986 8.38503 10.1986C6.98101 10.0227 8.72852 9.58545 8.988 9.53004C13.3662 8.5868 13.652 6.68878 13.652 6.68878C12.5989 7.04013 10.229 6.42562 10.229 6.42562C14.5292 6.07565 15.3192 3.52942 15.3192 3.52942C14.0029 3.96849 12.3787 3.77042 12.3787 3.77042C15.8677 3.04695 17.25 0.808194 17.25 0.808194Z" fill="#094C8C"/>
</svg>
