<?xml version="1.0" encoding="UTF-8"?>
<svg width="90px" height="90px" viewBox="0 0 90 90" version="1.1" xmlns="http://www.w3.org/2000/svg" xmlns:xlink="http://www.w3.org/1999/xlink">
    <!-- Generator: Sketch 46.2 (44496) - http://www.bohemiancoding.com/sketch -->
    <title>high_rate</title>
    <desc>Created with Sketch.</desc>
    <defs></defs>
    <g id="Page-1" stroke="none" stroke-width="1" fill="none" fill-rule="evenodd">
        <g id="high_rate" fill-rule="nonzero">
            <g id="approval_rate" transform="translate(6.000000, 12.000000)">
                <path d="M76.3984375,25.5571253 C76.3984375,25.3101966 76.3984375,24.8163391 76.278125,24.1990172 L76.278125,23.9520885 C76.278125,23.5816953 76.1578125,23.2113022 76.1578125,22.9643735 C76.1578125,21.6062654 75.1953125,20.495086 73.7515625,20.1246929 L73.63125,20.1246929 C72.66875,19.8777641 71.70625,19.507371 70.74375,19.2604423 C70.6234375,19.2604423 70.503125,19.1369779 70.3828125,19.1369779 L69.9015625,19.0135135 C69.4203125,18.8900491 69.059375,18.7665848 68.81875,18.6431204 L67.9765625,18.519656 L63.6453125,23.0878378 L59.3140625,18.519656 L58.471875,18.6431204 C58.23125,18.6431204 57.8703125,18.7665848 57.26875,19.0135135 L56.9078125,19.1369779 C56.7875,19.1369779 56.6671875,19.2604423 56.546875,19.2604423 C55.584375,19.6308354 54.621875,19.8777641 53.659375,20.1246929 L53.5390625,20.1246929 C52.0953125,20.495086 51.1328125,21.6062654 51.1328125,22.9643735 C51.1328125,23.0878378 51.1328125,23.458231 51.0125,23.9520885 L51.0125,24.1990172 C50.8921875,24.8163391 50.8921875,25.3101966 50.8921875,25.5571253 C50.771875,28.767199 50.771875,32.3476658 50.8921875,36.5454545 C50.8921875,37.5331695 51.1328125,38.5208845 51.49375,39.3851351 C51.8546875,40.2493857 52.45625,41.1136364 53.2984375,41.977887 L53.2984375,42.7186732 C53.41875,44.5706388 53.5390625,57.534398 53.5390625,58.8925061 C53.5390625,61.3617936 54.621875,63.5841523 56.546875,65.0657248 C57.990625,66.1769042 59.915625,66.6707617 61.840625,66.6707617 L63.525,66.6707617 L65.209375,66.6707617 C67.2546875,66.6707617 69.059375,66.0534398 70.6234375,64.9422604 C72.5484375,63.460688 73.63125,61.2383292 73.63125,58.7690418 C73.63125,57.4109337 73.871875,44.4471744 73.871875,42.5952088 L73.871875,41.8544226 L73.871875,41.8544226 C74.59375,40.990172 75.1953125,40.1259214 75.55625,39.2616708 C75.9171875,38.3974201 76.1578125,37.4097052 76.1578125,36.4219902 C76.51875,32.3476658 76.51875,28.767199 76.3984375,25.5571253 Z M73.390625,36.4219902 C73.390625,37.039312 73.2703125,37.5331695 73.0296875,38.1504914 C72.7890625,38.7678133 72.3078125,39.3851351 71.8265625,40.002457 L71.70625,40.1259214 C71.5859375,40.2493857 71.465625,40.4963145 71.3453125,40.6197789 L71.1046875,40.990172 L70.984375,42.5952088 C70.8640625,44.5706388 70.74375,57.534398 70.6234375,58.8925061 C70.6234375,60.3740786 70.021875,61.7321867 68.81875,62.5964373 C67.85625,63.3372236 66.653125,63.7076167 65.209375,63.7076167 L63.525,63.7076167 L61.840625,63.7076167 C60.396875,63.7076167 59.19375,63.3372236 58.23125,62.5964373 C57.028125,61.7321867 56.4265625,60.497543 56.4265625,58.8925061 C56.4265625,57.534398 56.1859375,44.5706388 56.065625,42.5952088 L55.9453125,40.990172 L55.7046875,40.6197789 C55.584375,40.4963145 55.4640625,40.3728501 55.34375,40.1259214 L55.2234375,40.002457 L55.2234375,40.002457 C54.621875,39.3851351 54.2609375,38.7678133 54.0203125,38.1504914 C53.7796875,37.6566339 53.659375,37.039312 53.659375,36.4219902 C53.5390625,32.3476658 53.5390625,28.767199 53.659375,25.5571253 C53.659375,25.3101966 53.659375,24.9398034 53.7796875,24.5694103 L53.7796875,24.3224816 C53.9,23.8286241 53.9,23.3347666 53.9,23.2113022 C53.9,23.2113022 54.0203125,23.0878378 54.2609375,23.0878378 L54.38125,23.0878378 C55.34375,22.8409091 56.30625,22.470516 57.3890625,22.2235872 C57.3890625,22.2235872 57.509375,22.2235872 57.6296875,22.1001229 L58.1109375,21.9766585 C58.1109375,21.9766585 58.1109375,21.9766585 58.23125,21.9766585 L62.08125,26.0509828 C62.4421875,26.4213759 62.9234375,26.791769 63.4046875,26.791769 L63.525,26.791769 L63.6453125,26.791769 C64.246875,26.791769 64.728125,26.5448403 64.96875,26.0509828 L68.81875,21.9766585 C68.81875,21.9766585 68.81875,21.9766585 68.81875,21.9766585 L69.4203125,22.2235872 C69.540625,22.2235872 69.540625,22.2235872 69.6609375,22.3470516 C70.6234375,22.7174447 71.5859375,22.9643735 72.5484375,23.2113022 L72.66875,23.2113022 C72.7890625,23.2113022 72.909375,23.3347666 72.909375,23.3347666 C72.909375,23.5816953 72.909375,23.9520885 73.0296875,24.4459459 L73.0296875,24.6928747 C73.0296875,25.0632678 73.15,25.5571253 73.15,25.6805897 L73.15,25.6805897 C73.5109375,28.767199 73.5109375,32.3476658 73.390625,36.4219902 Z" id="Shape" fill="#446AAB"></path>
                <path d="M63.525,15.4330467 C63.6453125,15.4330467 63.6453125,15.4330467 63.525,15.4330467 C65.45,15.4330467 67.375,14.5687961 68.81875,13.210688 C70.2625,11.7291155 71.1046875,9.7536855 71.225,7.77825553 C71.225,5.80282555 70.503125,3.82739558 69.059375,2.3458231 C67.615625,0.740786241 65.690625,0 63.765625,0 C63.765625,0 63.765625,0 63.765625,0 C59.675,0 56.1859375,3.45700246 56.1859375,7.65479115 C56.065625,11.7291155 59.5546875,15.4330467 63.525,15.4330467 Z M63.6453125,3.08660934 C63.6453125,3.08660934 63.765625,3.08660934 63.6453125,3.08660934 C64.8484375,3.08660934 66.0515625,3.58046683 66.89375,4.56818182 C67.7359375,5.43243243 68.2171875,6.66707617 68.2171875,7.77825553 C68.2171875,9.01289926 67.615625,10.1240786 66.7734375,11.1117936 C65.93125,11.9760442 64.728125,12.4699017 63.6453125,12.4699017 C61.2390625,12.4699017 59.0734375,10.1240786 59.0734375,7.77825553 C59.0734375,5.18550369 61.2390625,3.08660934 63.6453125,3.08660934 Z" id="Shape" fill="#446AAB"></path>
                <path d="M27.5515625,41.977887 L22.0171875,41.977887 C19.971875,41.977887 18.4078125,43.4594595 18.4078125,45.6818182 C18.4078125,52.1019656 18.4078125,56.546683 18.4078125,63.0902948 C18.4078125,65.3126536 19.8515625,66.794226 22.0171875,66.794226 L27.3109375,66.794226 C29.596875,66.794226 31.040625,65.3126536 31.040625,62.9668305 L31.040625,49.262285 C31.040625,48.27457 31.040625,47.5337838 31.040625,45.6818182 C31.1609375,43.4594595 29.7171875,41.977887 27.5515625,41.977887 Z M28.153125,49.3857494 L28.153125,62.9668305 C28.153125,63.5841523 28.0328125,63.7076167 27.43125,63.7076167 L22.1375,63.7076167 C21.65625,63.7076167 21.5359375,63.5841523 21.5359375,63.0902948 C21.5359375,56.6701474 21.5359375,52.22543 21.5359375,45.6818182 C21.5359375,45.1879607 21.65625,45.0644963 22.1375,45.0644963 L27.5515625,45.0644963 C27.9125,45.0644963 28.153125,45.1879607 28.153125,45.6818182 C28.153125,47.5337838 28.153125,48.27457 28.153125,49.3857494 Z" id="Shape" fill="#446AAB"></path>
                <path d="M42.7109375,32.5945946 L37.1765625,32.5945946 C35.13125,32.5945946 33.6875,34.0761671 33.5671875,36.2985258 C33.5671875,38.1504914 33.5671875,40.3728501 33.5671875,43.7063882 L33.6875,62.9668305 C33.6875,65.3126536 35.13125,66.794226 37.4171875,66.794226 L42.7109375,66.794226 C44.8765625,66.794226 46.3203125,65.3126536 46.3203125,63.0902948 C46.3203125,56.6701474 46.3203125,42.8421376 46.3203125,36.2985258 C46.2,34.0761671 44.75625,32.5945946 42.7109375,32.5945946 Z M43.1921875,63.0902948 C43.1921875,63.5841523 43.071875,63.7076167 42.590625,63.7076167 L37.296875,63.7076167 C36.6953125,63.7076167 36.575,63.5841523 36.575,62.9668305 L36.575,43.7063882 C36.575,40.3728501 36.575,38.1504914 36.575,36.2985258 C36.575,35.8046683 36.6953125,35.6812039 37.1765625,35.6812039 L42.7109375,35.6812039 C43.1921875,35.6812039 43.3125,35.8046683 43.3125,36.2985258 C43.1921875,42.7186732 43.1921875,56.546683 43.1921875,63.0902948 Z" id="Shape" fill="#446AAB"></path>
                <path d="M12.6328125,50.8673219 L7.21875,50.8673219 C5.053125,50.8673219 3.609375,52.3488943 3.609375,54.5712531 L3.609375,58.7690418 L3.609375,62.9668305 C3.609375,65.1891892 5.053125,66.6707617 7.21875,66.6707617 L12.5125,66.6707617 C14.678125,66.6707617 16.121875,65.1891892 16.121875,62.8433661 L16.121875,54.5712531 C16.2421875,52.3488943 14.7984375,50.8673219 12.6328125,50.8673219 Z M13.234375,62.9668305 C13.234375,63.5841523 13.1140625,63.7076167 12.6328125,63.7076167 L7.21875,63.7076167 C6.6171875,63.7076167 6.6171875,63.5841523 6.6171875,63.0902948 L6.6171875,58.8925061 L6.6171875,54.8181818 C6.6171875,54.3243243 6.7375,54.20086 7.21875,54.20086 L12.6328125,54.20086 C13.1140625,54.20086 13.234375,54.3243243 13.234375,54.8181818 L13.234375,62.9668305 Z" id="Shape" fill="#446AAB"></path>
                <path d="M37.05625,16.4207617 L39.3421875,17.4084767 C39.5828125,17.531941 39.94375,17.531941 40.184375,17.531941 C40.665625,17.531941 41.0265625,17.4084767 41.3875,17.1615479 C41.9890625,16.6676904 42.35,15.9269042 42.2296875,15.1861179 L41.2671875,7.03746929 C41.146875,6.29668305 40.665625,5.67936118 40.0640625,5.30896806 C39.3421875,5.06203931 38.6203125,5.06203931 38.01875,5.55589681 L31.6421875,10.3710074 C31.040625,10.8648649 30.6796875,11.6056511 30.8,12.3464373 C30.9203125,13.0872236 31.4015625,13.7045455 32.003125,14.0749386 L34.2890625,15.0626536 C28.2734375,29.3845209 17.325,38.6443489 1.684375,42.4717445 C0.8421875,42.7186732 0.3609375,43.4594595 0.6015625,44.3237101 C0.721875,45.0644963 1.3234375,45.5583538 2.0453125,45.5583538 C2.165625,45.5583538 2.2859375,45.5583538 2.40625,45.5583538 C19.009375,41.4840295 30.6796875,31.730344 37.05625,16.4207617 Z M38.3796875,9.13636364 L38.8609375,13.9514742 L34.5296875,11.9760442 L38.3796875,9.13636364 Z" id="Shape" fill="#24BE00"></path>
            </g>
        </g>
    </g>
</svg>