<svg width="20" height="20" viewBox="0 0 20 20" fill="none" xmlns="http://www.w3.org/2000/svg">
<g clip-path="url(#clip0_1200_10328)">
<path d="M11.1086 7.9339C11.0875 9.3499 8.92343 9.36031 8.90232 7.9339C8.92343 6.50749 11.0875 6.5179 11.1086 7.9339ZM18.6668 3.12368V14.6911C18.6668 15.0035 18.4979 15.295 18.2235 15.4512L10.4435 19.8866C10.1691 20.0428 9.83126 20.0323 9.5568 19.8866L1.77686 15.4512C1.5024 15.295 1.3335 15.0035 1.3335 14.6911V3.12368C1.3335 2.67597 1.6713 2.31156 2.1041 2.2595C7.67779 0.135505 12.9981 0.135505 17.9173 2.2595C18.3396 2.32197 18.6668 2.68638 18.6668 3.12368ZM10.0002 4.88326C6.85441 4.87285 5.88323 9.1729 8.70175 10.4848V11.2448H7.82558V12.0986H8.70175V12.9419H7.82558V13.7957H8.70175V14.7952L11.3091 15.7844V10.4848C14.1065 9.1729 13.1459 4.86244 10.0002 4.88326Z" fill="white"/>
</g>
<defs>
<clipPath id="clip0_1200_10328">
<rect width="20" height="20" fill="white"/>
</clipPath>
</defs>
</svg>
