<svg width="16" height="16" viewBox="0 0 16 16" fill="none" xmlns="http://www.w3.org/2000/svg">
<path d="M14.0667 5.9168L8.46665 11.5335C8.39999 11.6001 8.32776 11.6472 8.24999 11.6748C8.17221 11.7028 8.08888 11.7168 7.99999 11.7168C7.9111 11.7168 7.82776 11.7028 7.74999 11.6748C7.67221 11.6472 7.59999 11.6001 7.53332 11.5335L1.91665 5.9168C1.7611 5.76124 1.68332 5.5668 1.68332 5.33346C1.68332 5.10013 1.76665 4.90013 1.93332 4.73347C2.09999 4.5668 2.29443 4.48347 2.51665 4.48347C2.73887 4.48347 2.93332 4.5668 3.09999 4.73347L7.99999 9.63346L12.9 4.73346C13.0555 4.57791 13.2471 4.50013 13.4747 4.50013C13.7027 4.50013 13.9 4.58346 14.0667 4.75013C14.2333 4.9168 14.3167 5.11124 14.3167 5.33346C14.3167 5.55569 14.2333 5.75013 14.0667 5.9168Z" fill="#3F3F40"/>
</svg>
