<?xml version="1.0" encoding="UTF-8"?>
<svg width="90px" height="90px" viewBox="0 0 90 90" version="1.1" xmlns="http://www.w3.org/2000/svg" xmlns:xlink="http://www.w3.org/1999/xlink">
    <!-- Generator: Sketch 46.2 (44496) - http://www.bohemiancoding.com/sketch -->
    <title>simple_requirements</title>
    <desc>Created with Sketch.</desc>
    <defs></defs>
    <g id="Page-1" stroke="none" stroke-width="1" fill="none" fill-rule="evenodd">
        <g id="simple_requirements" fill-rule="nonzero">
            <g transform="translate(6.000000, 12.000000)" id="Shape">
                <path d="M45.8390625,29.4611842 L28.875,29.4611842 C28.0328125,29.4611842 27.3109375,30.1776316 27.3109375,31.0134868 C27.3109375,31.8493421 28.0328125,32.5657895 28.875,32.5657895 L45.8390625,32.5657895 C46.68125,32.5657895 47.403125,31.8493421 47.403125,31.0134868 C47.403125,30.1776316 46.68125,29.4611842 45.8390625,29.4611842 Z" fill="#24BE00"></path>
                <path d="M45.8390625,40.8049342 L28.875,40.8049342 C28.0328125,40.8049342 27.3109375,41.5213816 27.3109375,42.3572368 C27.3109375,43.1930921 28.0328125,43.9095395 28.875,43.9095395 L45.8390625,43.9095395 C46.68125,43.9095395 47.403125,43.1930921 47.403125,42.3572368 C47.403125,41.5213816 46.68125,40.8049342 45.8390625,40.8049342 Z" fill="#24BE00"></path>
                <path d="M45.8390625,52.1486842 L28.875,52.1486842 C28.0328125,52.1486842 27.3109375,52.8651316 27.3109375,53.7009868 C27.3109375,54.5368421 28.0328125,55.2532895 28.875,55.2532895 L45.8390625,55.2532895 C46.68125,55.2532895 47.403125,54.5368421 47.403125,53.7009868 C47.403125,52.8651316 46.68125,52.1486842 45.8390625,52.1486842 Z" fill="#24BE00"></path>
                <path d="M16.0015625,40.4467105 C13.234375,39.4914474 11.6703125,38.775 11.309375,36.9838816 C11.1890625,35.6703947 12.1515625,34.3569079 13.475,33.8792763 C15.0390625,33.4016447 17.084375,33.6404605 19.1296875,34.3569079 C19.8515625,34.7151316 20.8140625,34.2375 21.0546875,33.5210526 C21.415625,32.8046053 20.934375,31.8493421 20.2125,31.6105263 C19.1296875,31.1328947 17.9265625,30.8940789 16.84375,30.7746711 L16.84375,29.1029605 C16.84375,28.2671053 16.121875,27.5506579 15.2796875,27.5506579 C14.4375,27.5506579 13.715625,28.2671053 13.715625,29.1029605 L13.715625,30.7746711 C13.3546875,30.8940789 12.8734375,30.8940789 12.5125,31.0134868 C9.7453125,31.8493421 7.8203125,34.5957237 8.18125,37.3421053 C8.6625,41.04375 12.03125,42.2378289 14.7984375,43.1930921 C16.2421875,43.6707237 17.6859375,44.1483553 18.4078125,44.9842105 C19.1296875,45.58125 19.490625,46.4171053 19.490625,47.2529605 C19.490625,48.0888158 19.1296875,48.8052632 18.4078125,49.5217105 C17.565625,50.2381579 16.603125,50.5963816 15.159375,50.7157895 C14.0765625,50.7157895 12.753125,50.5963816 11.309375,50.3575658 C10.9484375,50.2381579 10.5875,50.2381579 10.2265625,50.11875 C9.384375,49.8799342 8.5421875,50.3575658 8.3015625,51.0740132 C8.0609375,51.7904605 8.5421875,52.7457237 9.2640625,52.9845395 C9.7453125,53.1039474 10.2265625,53.2233553 10.7078125,53.3427632 C11.790625,53.5815789 12.753125,53.7009868 13.715625,53.7009868 L13.715625,55.3726974 C13.715625,56.2085526 14.4375,56.925 15.2796875,56.925 C16.121875,56.925 16.84375,56.2085526 16.84375,55.3726974 L16.84375,53.5815789 C18.2875,53.3427632 19.490625,52.7457237 20.5734375,51.7904605 C21.896875,50.5963816 22.61875,49.0440789 22.61875,47.3723684 C22.61875,45.7006579 21.896875,44.1483553 20.69375,42.9542763 C19.490625,41.7601974 17.80625,41.04375 16.0015625,40.4467105 Z" fill="#24BE00"></path>
                <path d="M15.2796875,21.4608553 C17.9265625,20.3861842 20.2125,18.35625 21.2953125,15.7292763 C22.378125,13.3411184 22.2578125,10.5947368 22.1375,8.44539474 C22.1375,7.60953947 21.415625,7.0125 20.5734375,7.0125 C19.73125,7.0125 19.1296875,7.72894737 19.1296875,8.56480263 C19.25,10.5947368 19.25,12.8634868 18.528125,14.5351974 C17.6859375,16.4457237 16.121875,17.8786184 14.196875,18.5950658 C12.3921875,19.4309211 10.2265625,19.4309211 8.0609375,19.4309211 C7.21875,19.4309211 6.496875,20.0279605 6.496875,20.8638158 C6.496875,21.6996711 7.0984375,22.4161184 7.940625,22.4161184 C8.18125,22.4161184 8.421875,22.4161184 8.7828125,22.4161184 C11.06875,22.4161184 13.234375,22.2967105 15.2796875,21.4608553 Z" fill="#446AAB"></path>
                <path d="M41.2671875,0.0868421053 L21.896875,0.0868421053 C20.2125,0.0868421053 18.76875,0.683881579 17.565625,1.75855263 L3.0078125,15.9680921 C1.684375,17.2815789 0.8421875,19.0726974 0.8421875,20.9832237 L0.8421875,51.6710526 C0.8421875,59.0743421 6.978125,65.1641447 14.4375,65.1641447 L41.2671875,65.1641447 C48.7265625,65.1641447 54.8625,59.0743421 54.8625,51.6710526 L54.8625,13.4605263 C54.8625,6.05723684 48.7265625,0.0868421053 41.2671875,0.0868421053 Z M51.8546875,51.6710526 C51.8546875,57.4026316 47.1625,62.1789474 41.2671875,62.1789474 L14.4375,62.1789474 C8.6625,62.1789474 3.85,57.5220395 3.85,51.6710526 L3.85,20.9832237 C3.85,19.9085526 4.33125,18.8338816 5.053125,18.1174342 L19.73125,3.90789474 C20.3328125,3.31085526 21.0546875,3.07203947 21.896875,3.07203947 L41.3875,3.07203947 C47.1625,3.07203947 51.975,7.72894737 51.975,13.5799342 L51.975,51.6710526 L51.8546875,51.6710526 Z" fill="#446AAB"></path>
                <path d="M71.5859375,14.2963816 L70.984375,14.2963816 L70.984375,12.9828947 C70.984375,9.63947368 68.3375,7.0125 64.96875,7.0125 C61.6,7.0125 58.953125,9.63947368 58.953125,12.9828947 L58.953125,34.7151316 C58.953125,36.8644737 58.953125,39.0138158 58.953125,41.2825658 C58.8328125,45.1036184 59.675,48.9246711 61.359375,53.2233553 C61.7203125,54.1786184 62.321875,55.1338816 63.4046875,55.4921053 L63.4046875,56.5667763 C63.4046875,57.4026316 64.1265625,58.1190789 64.96875,58.1190789 C65.8109375,58.1190789 66.5328125,57.4026316 66.5328125,56.5667763 L66.5328125,55.4921053 C67.615625,55.1338816 68.2171875,54.1786184 68.578125,53.2233553 C70.2625,49.0440789 71.1046875,45.1036184 70.984375,41.2825658 C70.984375,39.4914474 70.984375,37.7003289 70.984375,36.0286184 L70.984375,34.7151316 C70.984375,33.8792763 70.984375,33.1628289 70.984375,32.3269737 L70.984375,17.2815789 L71.5859375,17.2815789 C72.428125,17.2815789 73.15,17.9980263 73.15,18.8338816 L73.15,35.0733553 C73.15,35.9092105 73.871875,36.6256579 74.7140625,36.6256579 C75.55625,36.6256579 76.278125,35.9092105 76.278125,35.0733553 L76.278125,18.8338816 C76.1578125,16.3263158 74.1125,14.2963816 71.5859375,14.2963816 Z M67.9765625,41.4019737 C67.9765625,44.7453947 67.2546875,48.3276316 65.690625,52.1486842 C65.5703125,52.3875 65.45,52.6263158 65.45,52.6263158 L64.3671875,52.6263158 C64.3671875,52.5069079 64.246875,52.3875 64.1265625,52.1486842 C62.5625,48.3276316 61.840625,44.7453947 61.840625,41.4019737 C61.840625,39.1332237 61.840625,36.9838816 61.840625,34.8345395 L61.840625,12.9828947 C61.840625,11.3111842 63.1640625,9.99769737 64.8484375,9.99769737 C66.5328125,9.99769737 67.85625,11.3111842 67.85625,12.9828947 L67.85625,32.3269737 C67.85625,33.1628289 67.85625,33.8792763 67.85625,34.7151316 L67.85625,36.0286184 C67.85625,37.8197368 67.85625,39.6108553 67.9765625,41.4019737 L67.9765625,41.4019737 Z" fill="#446AAB"></path>
            </g>
        </g>
    </g>
</svg>