<svg width="15" height="15" viewBox="0 0 15 15" fill="none" xmlns="http://www.w3.org/2000/svg">
<path d="M7.75849 10.3419L7.50004 10.1859L7.24159 10.3419L4.50893 11.992L5.23373 8.88317L5.30228 8.58915L5.07401 8.39157L2.66033 6.30253L5.84096 6.03118L6.14178 6.00552L6.25914 5.72735L7.50004 2.78623L8.74094 5.72735L8.8583 6.00552L9.15911 6.03118L12.3397 6.30253L9.92607 8.39158L9.6978 8.58915L9.76635 8.88316L10.4911 11.992L7.75849 10.3419ZM4.25526 12.1451C4.25539 12.145 4.25552 12.145 4.25566 12.1449L4.2553 12.1451L4.25526 12.1451Z" stroke="#FFAF12"/>
<path d="M4.51375 12.5731L7.50004 10.7699H7.64583V2.11919C7.45498 2.03868 7.23506 2.1281 7.15452 2.31892L5.79846 5.53299L2.32262 5.82952C2.22523 5.83783 2.13492 5.88381 2.07095 5.95771C1.93541 6.11435 1.95249 6.35118 2.10909 6.48669L4.74679 8.76964L3.95471 12.167C3.93252 12.2622 3.94837 12.3623 3.9989 12.4459C4.10595 12.6233 4.33646 12.6802 4.51375 12.5731Z" fill="#FFAF12"/>
</svg>
