<svg width="15" height="15" viewBox="0 0 15 15" fill="none" xmlns="http://www.w3.org/2000/svg">
<path fill-rule="evenodd" clip-rule="evenodd" d="M7.50004 10.7699L4.51375 12.5731C4.33646 12.6802 4.10595 12.6233 3.9989 12.4459C3.94837 12.3623 3.93252 12.2622 3.95471 12.167L4.74679 8.76964L2.10909 6.48669C1.95249 6.35117 1.93541 6.11435 2.07095 5.95771C2.13492 5.88381 2.22523 5.83783 2.32262 5.82952L5.79846 5.53299L7.15452 2.31892C7.23506 2.1281 7.45498 2.03868 7.64583 2.11919C7.73589 2.15719 7.80754 2.22886 7.84556 2.31892L9.20162 5.53299L12.6775 5.82952C12.8838 5.84712 13.0368 6.02867 13.0192 6.23504C13.0109 6.33242 12.9649 6.42271 12.891 6.48669L10.2533 8.76964L11.0453 12.167C11.0924 12.3687 10.967 12.5703 10.7653 12.6173C10.6701 12.6395 10.57 12.6237 10.4863 12.5731L7.50004 10.7699Z" fill="black"/>
<mask id="mask0" mask-type="alpha" maskUnits="userSpaceOnUse" x="1" y="2" width="13" height="11">
<path fill-rule="evenodd" clip-rule="evenodd" d="M7.50004 10.7699L4.51375 12.5731C4.33646 12.6802 4.10595 12.6233 3.9989 12.4459C3.94837 12.3623 3.93252 12.2622 3.95471 12.167L4.74679 8.76964L2.10909 6.48669C1.95249 6.35117 1.93541 6.11435 2.07095 5.95771C2.13492 5.88381 2.22523 5.83783 2.32262 5.82952L5.79846 5.53299L7.15452 2.31892C7.23506 2.1281 7.45498 2.03868 7.64583 2.11919C7.73589 2.15719 7.80754 2.22886 7.84556 2.31892L9.20162 5.53299L12.6775 5.82952C12.8838 5.84712 13.0368 6.02867 13.0192 6.23504C13.0109 6.33242 12.9649 6.42271 12.891 6.48669L10.2533 8.76964L11.0453 12.167C11.0924 12.3687 10.967 12.5703 10.7653 12.6173C10.6701 12.6395 10.57 12.6237 10.4863 12.5731L7.50004 10.7699Z" fill="white"/>
</mask>
<g mask="url(#mask0)">
<path d="M15 0H0V15H15V0Z" fill="url(#paint0_linear)"/>
</g>
<defs>
<linearGradient id="paint0_linear" x1="11.8512" y1="-2.31618" x2="2.1686" y2="-1.73809" gradientUnits="userSpaceOnUse">
<stop stop-color="#FFB628"/>
<stop offset="1" stop-color="#FFA800"/>
</linearGradient>
</defs>
</svg>
