<svg width="26" height="26" viewBox="0 0 26 26" fill="none" xmlns="http://www.w3.org/2000/svg">
<path fill-rule="evenodd" clip-rule="evenodd" d="M13.0001 18.668L7.82387 21.7935C7.51656 21.9791 7.11702 21.8804 6.93146 21.573C6.84388 21.428 6.8164 21.2545 6.85487 21.0895L8.22781 15.2008L3.65579 11.2437C3.38435 11.0088 3.35475 10.5983 3.58968 10.3268C3.70056 10.1987 3.85709 10.119 4.02591 10.1046L10.0507 9.59061L12.4012 4.01956C12.5408 3.68881 12.922 3.53381 13.2528 3.67336C13.4089 3.73923 13.5331 3.86345 13.599 4.01956L15.9495 9.59061L21.9743 10.1046C22.332 10.1351 22.5972 10.4498 22.5667 10.8075C22.5523 10.9763 22.4725 11.1328 22.3444 11.2437L17.7724 15.2008L19.1453 21.0895C19.2268 21.4391 19.0095 21.7886 18.6599 21.8701C18.4949 21.9086 18.3214 21.8811 18.1763 21.7935L13.0001 18.668Z" fill="black"/>
<mask id="mask0" mask-type="alpha" maskUnits="userSpaceOnUse" x="3" y="3" width="20" height="19">
<path fill-rule="evenodd" clip-rule="evenodd" d="M13.0001 18.668L7.82387 21.7935C7.51656 21.9791 7.11702 21.8804 6.93146 21.573C6.84388 21.428 6.8164 21.2545 6.85487 21.0895L8.22781 15.2008L3.65579 11.2437C3.38435 11.0088 3.35475 10.5983 3.58968 10.3268C3.70056 10.1987 3.85709 10.119 4.02591 10.1046L10.0507 9.59061L12.4012 4.01956C12.5408 3.68881 12.922 3.53381 13.2528 3.67336C13.4089 3.73923 13.5331 3.86345 13.599 4.01956L15.9495 9.59061L21.9743 10.1046C22.332 10.1351 22.5972 10.4498 22.5667 10.8075C22.5523 10.9763 22.4725 11.1328 22.3444 11.2437L17.7724 15.2008L19.1453 21.0895C19.2268 21.4391 19.0095 21.7886 18.6599 21.8701C18.4949 21.9086 18.3214 21.8811 18.1763 21.7935L13.0001 18.668Z" fill="white"/>
</mask>
<g mask="url(#mask0)">
<rect width="26" height="26" fill="url(#paint0_linear)"/>
</g>
<defs>
<linearGradient id="paint0_linear" x1="20.542" y1="-4.01471" x2="3.75891" y2="-3.01269" gradientUnits="userSpaceOnUse">
<stop stop-color="#FFB628"/>
<stop offset="1" stop-color="#FFA800"/>
</linearGradient>
</defs>
</svg>
