<svg width="300" height="181" viewBox="0 0 300 181" fill="none" xmlns="http://www.w3.org/2000/svg">
<path fill-rule="evenodd" clip-rule="evenodd" d="M149.5 65.9118C162.982 65.9118 173.912 54.9822 173.912 41.5C173.912 28.0178 162.982 17.0882 149.5 17.0882C136.018 17.0882 125.088 28.0178 125.088 41.5C125.088 54.9822 136.018 65.9118 149.5 65.9118ZM149.5 83C172.42 83 191 64.4198 191 41.5C191 18.5802 172.42 0 149.5 0C126.58 0 108 18.5802 108 41.5C108 64.4198 126.58 83 149.5 83Z" fill="white" fill-opacity="0.95"/>
<path d="M53.5312 115.078C46.9531 115.078 42.8281 119.562 42.8281 126.734C42.8281 133.906 46.9531 138.375 53.5312 138.375C60.0938 138.375 64.2188 133.906 64.2188 126.734C64.2188 119.562 60.0938 115.078 53.5312 115.078ZM53.5312 118.516C57.5469 118.516 60.1094 121.703 60.1094 126.734C60.1094 131.75 57.5469 134.938 53.5312 134.938C49.5 134.938 46.9531 131.75 46.9531 126.734C46.9531 121.703 49.5 118.516 53.5312 118.516ZM66.0469 138H69.9375V128.406C69.9375 126.031 71.3594 124.422 73.5938 124.422C75.8125 124.422 76.9062 125.734 76.9062 128.078V138H80.7969V127.297C80.7969 123.469 78.7188 121.125 75.0625 121.125C72.5156 121.125 70.75 122.312 69.8594 124.281H69.7812V121.438H66.0469V138ZM83.0312 138H86.9219V115.453H83.0312V138ZM91.0781 144.156C94.8594 144.156 96.6875 142.766 98.1094 138.656L104.094 121.438H100L96.0938 134.688H96.0312L92.125 121.438H87.875L93.7656 138.016C93.7812 138.062 93.5469 138.891 93.5469 138.938C93.1094 140.469 92.2812 141.078 90.6719 141.078C90.4375 141.078 89.75 141.062 89.5469 141.016V144.094C89.75 144.141 90.8594 144.156 91.0781 144.156ZM116.406 135.328C114.719 135.328 113.594 134.469 113.594 133.109C113.594 131.797 114.672 130.953 116.547 130.828L120.375 130.594V131.859C120.375 133.859 118.609 135.328 116.406 135.328ZM115.234 138.266C117.359 138.266 119.438 137.156 120.391 135.359H120.469V138H124.219V126.594C124.219 123.266 121.547 121.094 117.438 121.094C113.219 121.094 110.578 123.312 110.406 126.406H114.016C114.266 125.031 115.438 124.141 117.281 124.141C119.203 124.141 120.375 125.141 120.375 126.875V128.062L116 128.312C111.969 128.562 109.703 130.328 109.703 133.266C109.703 136.25 112.031 138.266 115.234 138.266ZM132.844 138H136.734V124.438H139.984V121.484H136.672V120.125C136.672 118.781 137.344 118.078 138.828 118.078C139.281 118.078 139.734 118.125 140.062 118.172V115.453C139.578 115.359 138.734 115.281 137.969 115.281C134.375 115.281 132.844 116.797 132.844 120.016V121.484H130.578V124.438H132.844V138ZM148.094 124.109C150.328 124.109 151.828 125.75 151.906 128.094H144.172C144.328 125.781 145.906 124.109 148.094 124.109ZM151.922 133.047C151.5 134.422 150.125 135.328 148.312 135.328C145.766 135.328 144.141 133.547 144.141 130.891V130.656H155.719V129.391C155.719 124.359 152.781 121.094 148.078 121.094C143.297 121.094 140.266 124.547 140.266 129.781C140.266 135.062 143.266 138.328 148.234 138.328C152.156 138.328 155.062 136.172 155.562 133.047H151.922ZM179.641 121.438H175.797L173 134.156H172.906L169.672 121.438H165.938L162.703 134.156H162.625L159.828 121.438H155.922L160.406 138H164.469L167.719 125.891H167.797L171.062 138H175.156L179.641 121.438ZM185.688 126.188C185.688 128.578 187.234 130.172 190.297 130.891L193.312 131.594C194.922 132 195.531 132.516 195.531 133.484C195.531 134.719 194.359 135.484 192.469 135.484C190.5 135.484 189.328 134.641 189.094 133.125H185.266C185.531 136.266 188.172 138.328 192.328 138.328C196.516 138.328 199.406 136.219 199.406 133.094C199.406 130.641 198.109 129.359 194.797 128.578L191.844 127.922C190.219 127.531 189.469 126.906 189.469 125.969C189.469 124.766 190.594 123.953 192.312 123.953C194.125 123.953 195.266 124.828 195.391 126.25H199.016C198.922 123.188 196.281 121.094 192.391 121.094C188.359 121.094 185.688 123.156 185.688 126.188ZM201.969 117.562V121.438H199.594V124.438H201.969V133.594C201.969 136.812 203.375 138.078 206.953 138.078C207.781 138.078 208.547 138.016 208.969 137.922V134.953C208.719 135 208.219 135.031 207.859 135.031C206.484 135.031 205.859 134.406 205.859 133.047V124.438H208.984V121.438H205.859V117.562H201.969ZM217.469 124.109C219.703 124.109 221.203 125.75 221.281 128.094H213.547C213.703 125.781 215.281 124.109 217.469 124.109ZM221.297 133.047C220.875 134.422 219.5 135.328 217.688 135.328C215.141 135.328 213.516 133.547 213.516 130.891V130.656H225.094V129.391C225.094 124.359 222.156 121.094 217.453 121.094C212.672 121.094 209.641 124.547 209.641 129.781C209.641 135.062 212.641 138.328 217.609 138.328C221.531 138.328 224.438 136.172 224.938 133.047H221.297ZM235.703 121.156C233.297 121.156 231.422 122.375 230.484 124.297H230.406V121.438H226.609V143.453H230.5V135.25H230.578C231.484 137.109 233.359 138.266 235.766 138.266C239.922 138.266 242.578 135 242.578 129.719C242.578 124.422 239.906 121.156 235.703 121.156ZM234.516 135.078C232.094 135.078 230.484 132.969 230.469 129.719C230.484 126.5 232.094 124.359 234.516 124.359C237.031 124.359 238.594 126.453 238.594 129.719C238.594 133 237.031 135.078 234.516 135.078ZM243.781 126.188C243.781 128.578 245.328 130.172 248.391 130.891L251.406 131.594C253.016 132 253.625 132.516 253.625 133.484C253.625 134.719 252.453 135.484 250.562 135.484C248.594 135.484 247.422 134.641 247.188 133.125H243.359C243.625 136.266 246.266 138.328 250.422 138.328C254.609 138.328 257.5 136.219 257.5 133.094C257.5 130.641 256.203 129.359 252.891 128.578L249.938 127.922C248.312 127.531 247.562 126.906 247.562 125.969C247.562 124.766 248.688 123.953 250.406 123.953C252.219 123.953 253.359 124.828 253.484 126.25H257.109C257.016 123.188 254.375 121.094 250.484 121.094C246.453 121.094 243.781 123.156 243.781 126.188ZM68.875 153.562V157.438H66.5V160.438H68.875V169.594C68.875 172.812 70.2812 174.078 73.8594 174.078C74.6875 174.078 75.4531 174.016 75.875 173.922V170.953C75.625 171 75.125 171.031 74.7656 171.031C73.3906 171.031 72.7656 170.406 72.7656 169.047V160.438H75.8906V157.438H72.7656V153.562H68.875ZM84.5625 174.328C89.4219 174.328 92.5781 171.094 92.5781 165.719C92.5781 160.359 89.3906 157.094 84.5625 157.094C79.7344 157.094 76.5469 160.375 76.5469 165.719C76.5469 171.094 79.7031 174.328 84.5625 174.328ZM84.5625 171.25C82.0938 171.25 80.5 169.25 80.5 165.719C80.5 162.203 82.1094 160.188 84.5625 160.188C87.0312 160.188 88.625 162.203 88.625 165.719C88.625 169.25 87.0312 171.25 84.5625 171.25ZM106.797 170.922C104.344 170.922 102.781 168.953 102.781 165.672C102.781 162.422 104.344 160.359 106.797 160.359C109.281 160.359 110.891 162.453 110.891 165.672C110.891 168.906 109.281 170.922 106.797 170.922ZM106.781 180.25C111.609 180.25 114.781 177.688 114.781 173.734V157.438H110.969V160.281H110.906C109.953 158.375 108.047 157.156 105.688 157.156C101.453 157.156 98.7969 160.422 98.7969 165.656C98.7969 170.812 101.516 174.016 105.609 174.016C107.984 174.016 109.938 172.828 110.797 171.047H110.891V173.844C110.891 175.953 109.438 177.375 106.906 177.375C105.062 177.375 103.641 176.516 103.219 175.25H99.3594C99.75 178.156 102.688 180.25 106.781 180.25ZM124.094 160.109C126.328 160.109 127.828 161.75 127.906 164.094H120.172C120.328 161.781 121.906 160.109 124.094 160.109ZM127.922 169.047C127.5 170.422 126.125 171.328 124.312 171.328C121.766 171.328 120.141 169.547 120.141 166.891V166.656H131.719V165.391C131.719 160.359 128.781 157.094 124.078 157.094C119.297 157.094 116.266 160.547 116.266 165.781C116.266 171.062 119.266 174.328 124.234 174.328C128.156 174.328 131.062 172.172 131.562 169.047H127.922ZM134.312 153.562V157.438H131.938V160.438H134.312V169.594C134.312 172.812 135.719 174.078 139.297 174.078C140.125 174.078 140.891 174.016 141.312 173.922V170.953C141.062 171 140.562 171.031 140.203 171.031C138.828 171.031 138.203 170.406 138.203 169.047V160.438H141.328V157.438H138.203V153.562H134.312ZM154.438 171.328C152.75 171.328 151.625 170.469 151.625 169.109C151.625 167.797 152.703 166.953 154.578 166.828L158.406 166.594V167.859C158.406 169.859 156.641 171.328 154.438 171.328ZM153.266 174.266C155.391 174.266 157.469 173.156 158.422 171.359H158.5V174H162.25V162.594C162.25 159.266 159.578 157.094 155.469 157.094C151.25 157.094 148.609 159.312 148.438 162.406H152.047C152.297 161.031 153.469 160.141 155.312 160.141C157.234 160.141 158.406 161.141 158.406 162.875V164.062L154.031 164.312C150 164.562 147.734 166.328 147.734 169.266C147.734 172.25 150.062 174.266 153.266 174.266ZM169.906 174H173.797V151.453H169.906V174ZM183.438 174.328C188.297 174.328 191.453 171.094 191.453 165.719C191.453 160.359 188.266 157.094 183.438 157.094C178.609 157.094 175.422 160.375 175.422 165.719C175.422 171.094 178.578 174.328 183.438 174.328ZM183.438 171.25C180.969 171.25 179.375 169.25 179.375 165.719C179.375 162.203 180.984 160.188 183.438 160.188C185.906 160.188 187.5 162.203 187.5 165.719C187.5 169.25 185.906 171.25 183.438 171.25ZM199 171.328C197.312 171.328 196.188 170.469 196.188 169.109C196.188 167.797 197.266 166.953 199.141 166.828L202.969 166.594V167.859C202.969 169.859 201.203 171.328 199 171.328ZM197.828 174.266C199.953 174.266 202.031 173.156 202.984 171.359H203.062V174H206.812V162.594C206.812 159.266 204.141 157.094 200.031 157.094C195.812 157.094 193.172 159.312 193 162.406H196.609C196.859 161.031 198.031 160.141 199.875 160.141C201.797 160.141 202.969 161.141 202.969 162.875V164.062L198.594 164.312C194.562 164.562 192.297 166.328 192.297 169.266C192.297 172.25 194.625 174.266 197.828 174.266ZM208.953 174H212.844V164.406C212.844 162.031 214.266 160.422 216.5 160.422C218.719 160.422 219.812 161.734 219.812 164.078V174H223.703V163.297C223.703 159.469 221.625 157.125 217.969 157.125C215.422 157.125 213.656 158.312 212.766 160.281H212.688V157.438H208.953V174ZM227 151.453L227.312 166.562H230.703L231.016 151.453H227ZM229 174.312C230.281 174.312 231.281 173.328 231.281 172.094C231.281 170.859 230.281 169.891 229 169.891C227.734 169.891 226.734 170.859 226.734 172.094C226.734 173.328 227.734 174.312 229 174.312Z" fill="white"/>
</svg>
