<svg width="13" height="12" viewBox="0 0 13 12" fill="none" xmlns="http://www.w3.org/2000/svg">
<path fill-rule="evenodd" clip-rule="evenodd" d="M5.9459 3.63216L5.97244 4.06986L5.53004 4.01626C3.91969 3.81081 2.51285 3.11406 1.31836 1.94388L0.734389 1.36326L0.583972 1.79203C0.265442 2.74782 0.468947 3.75722 1.13255 4.4361C1.48648 4.81127 1.40684 4.86487 0.796326 4.64155C0.583972 4.57009 0.398163 4.51649 0.380467 4.54329C0.31853 4.60582 0.530884 5.41869 0.698997 5.74027C0.929047 6.1869 1.39799 6.62461 1.91118 6.88365L2.34474 7.0891L1.83155 7.09804C1.33606 7.09804 1.31836 7.10697 1.37145 7.29456C1.54841 7.87518 2.24741 8.49154 3.02604 8.75952L3.57462 8.9471L3.09682 9.23295C2.38898 9.64385 1.55726 9.8761 0.725541 9.89397C0.327378 9.9029 0 9.93863 0 9.96543C0 10.0548 1.07946 10.555 1.70768 10.7515C3.59231 11.3321 5.83088 11.082 7.51201 10.0905C8.7065 9.3848 9.90099 7.98237 10.4584 6.62461C10.7592 5.90106 11.0601 4.57902 11.0601 3.9448C11.0601 3.5339 11.0866 3.4803 11.5821 2.989C11.8741 2.70316 12.1484 2.39052 12.2015 2.30119C12.29 2.13147 12.2811 2.13147 11.8299 2.28332C11.0778 2.5513 10.9716 2.51557 11.3432 2.1136C11.6175 1.82776 11.9449 1.30966 11.9449 1.15781C11.9449 1.13101 11.8122 1.17567 11.6618 1.25607C11.5025 1.34539 11.1486 1.47938 10.8831 1.55978L10.4053 1.71163L9.97177 1.41685C9.73287 1.25607 9.39665 1.07741 9.21969 1.02382C8.76843 0.898758 8.07828 0.916623 7.67127 1.05955C6.56526 1.46152 5.86627 2.49771 5.9459 3.63216Z" fill="#084C8D"/>
</svg>
