<svg width="59" height="55" viewBox="0 0 59 55" fill="none" xmlns="http://www.w3.org/2000/svg">
<path fill-rule="evenodd" clip-rule="evenodd" d="M8.25128 1.89401C8.25128 1.20366 7.69164 0.644012 7.00128 0.644012C6.31093 0.644012 5.75128 1.20366 5.75128 1.89401V7.11801H2.14825V9.61801H5.75128V20.671H2.14825V23.171H5.75128V34.199H2.14825V36.699H5.75128V45.561H3.30425H2.29941L2.08346 46.5424L0.698458 52.8364L0.364281 54.355H1.91925H57.0823H58.6377L58.303 52.836L56.916 46.542L56.6998 45.561H55.6953H53.2213V36.699H56.6992V34.199H53.2213V23.171H56.6992V20.671H53.2213V9.61801H56.6994V7.11801H53.2213V1.89401C53.2213 1.20366 52.6616 0.644012 51.9713 0.644012C51.2809 0.644012 50.7213 1.20366 50.7213 1.89401V7.11801H32.3504V9.61801H50.7213V20.671H46.9822V23.171H50.7213V34.199H47.0472V36.699H50.7213V45.561H8.25128V36.699H26.4913V34.199H8.25128V23.171H11.8783V20.671H8.25128V9.61801H11.8783V7.11801H8.25128V1.89401ZM16.1653 4.86401C16.8557 4.86401 17.4153 5.42366 17.4153 6.11401V10.621C17.4153 11.3114 16.8557 11.871 16.1653 11.871C15.475 11.871 14.9153 11.3114 14.9153 10.621V6.11401C14.9153 5.42366 15.475 4.86401 16.1653 4.86401ZM4.30909 48.061L3.47422 51.855H55.5268L54.6907 48.061H4.30909ZM23.4092 6.11401C23.4092 5.42366 22.8496 4.86401 22.1592 4.86401C21.4689 4.86401 20.9092 5.42366 20.9092 6.11401V10.621C20.9092 11.3114 21.4689 11.871 22.1592 11.871C22.8496 11.871 23.4092 11.3114 23.4092 10.621V6.11401ZM28.1324 4.86401C28.8227 4.86401 29.3824 5.42366 29.3824 6.11401V10.621C29.3824 11.3114 28.8227 11.871 28.1324 11.871C27.442 11.871 26.8824 11.3114 26.8824 10.621V6.11401C26.8824 5.42366 27.442 4.86401 28.1324 4.86401ZM26.3704 20.671H38.4324V23.171H26.3704V20.671ZM42.6844 18.417C43.3747 18.417 43.9344 18.9767 43.9344 19.667V24.174C43.9344 24.8644 43.3747 25.424 42.6844 25.424C41.994 25.424 41.4344 24.8644 41.4344 24.174V19.667C41.4344 18.9767 41.994 18.417 42.6844 18.417ZM31.9673 33.195C31.9673 32.5047 31.4077 31.945 30.7173 31.945C30.027 31.945 29.4673 32.5047 29.4673 33.195V37.703C29.4673 38.3934 30.027 38.953 30.7173 38.953C31.4077 38.953 31.9673 38.3934 31.9673 37.703V33.195ZM36.7112 31.945C37.4016 31.945 37.9612 32.5047 37.9612 33.195V37.703C37.9612 38.3934 37.4016 38.953 36.7112 38.953C36.0209 38.953 35.4612 38.3934 35.4612 37.703V33.195C35.4612 32.5047 36.0209 31.945 36.7112 31.945ZM43.9344 33.195C43.9344 32.5047 43.3747 31.945 42.6844 31.945C41.994 31.945 41.4344 32.5047 41.4344 33.195V37.703C41.4344 38.3934 41.994 38.953 42.6844 38.953C43.3747 38.953 43.9344 38.3934 43.9344 37.703V33.195ZM16.1653 18.417C16.8557 18.417 17.4153 18.9767 17.4153 19.667V24.174C17.4153 24.8644 16.8557 25.424 16.1653 25.424C15.475 25.424 14.9153 24.8644 14.9153 24.174V19.667C14.9153 18.9767 15.475 18.417 16.1653 18.417ZM23.4092 19.667C23.4092 18.9767 22.8496 18.417 22.1592 18.417C21.4689 18.417 20.9092 18.9767 20.9092 19.667V24.174C20.9092 24.8644 21.4689 25.424 22.1592 25.424C22.8496 25.424 23.4092 24.8644 23.4092 24.174V19.667Z" fill="url(#paint0_linear)"/>
<defs>
<linearGradient id="paint0_linear" x1="4.85494" y1="50.6292" x2="49.037" y2="26.1853" gradientUnits="userSpaceOnUse">
<stop stop-color="#004288"/>
<stop offset="1" stop-color="#187FFF"/>
</linearGradient>
</defs>
</svg>
