<svg width="115" height="114" viewBox="0 0 115 114" fill="none" xmlns="http://www.w3.org/2000/svg">
<path d="M41.8871 33.1727L71.1701 20.9573L76.7578 33.4101" stroke="#084C8D" stroke-width="2.5" stroke-miterlimit="10"/>
<path d="M88.6013 77.5738V86.3357C88.6013 90.024 85.5572 93.0416 81.8366 93.0416H27.4673C23.7468 93.0416 20.7026 90.024 20.7026 86.3357V46.3258C20.7026 42.6375 23.7468 39.6199 27.4673 39.6199H81.838C85.5586 39.6199 88.6027 42.6375 88.6027 46.3258V54.8261" stroke="#084C8D" stroke-width="2.5" stroke-miterlimit="10" stroke-linejoin="round"/>
<path d="M64.4473 77.2828C60.7267 77.2828 57.684 74.2651 57.684 70.5769V62.0845C57.684 58.3963 60.7267 55.3787 64.4473 55.3787H94.2959V77.2828H64.4473Z" stroke="#084C8D" stroke-width="2.5" stroke-miterlimit="10" stroke-linecap="round" stroke-linejoin="round"/>
<path d="M67.7823 67.3862C68.3644 67.3862 68.8363 66.9184 68.8363 66.3414C68.8363 65.7644 68.3644 65.2966 67.7823 65.2966C67.2003 65.2966 66.7284 65.7644 66.7284 66.3414C66.7284 66.9184 67.2003 67.3862 67.7823 67.3862Z" fill="#084C8D" stroke="#084C8D" stroke-width="2.5" stroke-miterlimit="10"/>
</svg>
