<svg width="115" height="115" viewBox="0 0 115 115" fill="none" xmlns="http://www.w3.org/2000/svg">
<path d="M41.8871 34.065L71.1701 21.8496L76.7578 34.3024" stroke="#0F66CD" stroke-width="4" stroke-miterlimit="10" stroke-linecap="round"/>
<path d="M88.6013 78.466V87.2279C88.6013 90.9162 85.5572 93.9338 81.8366 93.9338H27.4673C23.7468 93.9338 20.7026 90.9162 20.7026 87.2279V47.218C20.7026 43.5297 23.7468 40.5121 27.4673 40.5121H81.838C85.5586 40.5121 88.6027 43.5297 88.6027 47.218V55.7183" stroke="#084C8D" stroke-width="4" stroke-miterlimit="10" stroke-linecap="round" stroke-linejoin="round"/>
<path d="M64.4473 78.175C60.7267 78.175 57.684 75.1573 57.684 71.4691V62.9768C57.684 59.2885 60.7267 56.2709 64.4473 56.2709H94.2959V78.175H64.4473Z" stroke="#197FFF" stroke-width="4" stroke-miterlimit="10" stroke-linecap="round" stroke-linejoin="round"/>
<path d="M67.7823 68.2785C68.3644 68.2785 68.8363 67.8108 68.8363 67.2337C68.8363 66.6567 68.3644 66.189 67.7823 66.189C67.2003 66.189 66.7284 66.6567 66.7284 67.2337C66.7284 67.8108 67.2003 68.2785 67.7823 68.2785Z" fill="#197FFF" stroke="#197FFF" stroke-width="4" stroke-miterlimit="10" stroke-linecap="round"/>
</svg>
