<svg width="123" height="123" viewBox="0 0 123 123" fill="none" xmlns="http://www.w3.org/2000/svg">
<path d="M62.8594 102.889L62.9299 102.802L105.021 51.3559C105.28 51.0414 105.425 50.6487 105.432 50.2416C105.439 49.8345 105.307 49.4371 105.06 49.1139L100.785 43.272C100.498 42.8984 100.076 42.6517 99.6101 42.5847C99.1438 42.5177 98.6697 42.6357 98.2892 42.9134C97.9088 43.1912 97.6521 43.6067 97.5741 44.0711C97.4962 44.5355 97.6031 45.012 97.872 45.3987L100.073 48.4125H79.1095L89.5915 34.0671L92.2705 37.7119C92.5725 38.0349 92.9827 38.2358 93.4232 38.2763C93.8637 38.3168 94.3037 38.1942 94.6597 37.9317C95.0156 37.6692 95.2627 37.2852 95.3539 36.8526C95.4451 36.42 95.3742 35.969 95.1545 35.5853L91.0367 29.9451C90.8662 29.7175 90.6453 29.5325 90.3912 29.4047C90.1371 29.2769 89.8567 29.2097 89.5723 29.2085H33.4579C33.1737 29.2142 32.8946 29.2844 32.6414 29.4137C32.3883 29.5429 32.1679 29.7279 31.9967 29.9547L17.9897 49.1267C17.743 49.4503 17.6127 49.8476 17.6197 50.2544C17.6266 50.6611 17.7705 51.0537 18.0282 51.3687L39.4344 77.5356C40.2462 78.3192 41.0922 78.4035 41.9723 77.7886C42.3421 77.4856 42.5766 77.0486 42.6247 76.5732C42.6727 76.0978 42.5303 75.6227 42.2287 75.252L23.2291 52.0188H46.1254L57.5687 93.9755L48.4967 82.8906C48.3491 82.7004 48.1648 82.5417 47.9548 82.4238C47.7447 82.3059 47.5132 82.2312 47.2738 82.2042C47.0345 82.1772 46.7921 82.1983 46.561 82.2664C46.33 82.3345 46.1149 82.4482 45.9285 82.6007C45.7421 82.7532 45.5882 82.9415 45.4757 83.1544C45.3633 83.3673 45.2947 83.6006 45.2739 83.8405C45.2531 84.0803 45.2806 84.3219 45.3548 84.551C45.4289 84.7801 45.5482 84.992 45.7056 85.1742L60.1259 102.79C60.2899 102.991 60.4953 103.155 60.7283 103.271C60.9613 103.386 61.2163 103.45 61.4761 103.458C61.736 103.466 61.9945 103.419 62.2343 103.318C62.4741 103.218 62.6894 103.067 62.8658 102.876L62.8594 102.889ZM61.5231 94.8211L49.8523 52.0188H73.1972L61.5231 94.8211ZM51.0411 48.4125L61.5231 34.0671L72.0083 48.4125H51.0411ZM47.4905 47.1602L37.0085 32.8116H57.9821L47.4905 47.1602ZM99.8203 52.0188L65.4935 93.9755L76.9369 52.0188H99.8203ZM75.5589 47.1602L65.0737 32.8116H86.0409L75.5589 47.1602ZM22.976 48.4125L33.4579 34.0671L43.9399 48.4125H22.976Z" fill="#FFE600"/>
<path d="M100.211 24.3078V24.3078C99.6935 24.3078 99.2643 23.9677 99.061 23.4794C98.8576 22.9909 98.9198 22.4497 99.2829 22.0867L99.2838 22.0859L104.425 16.9215C104.739 16.6127 105.068 16.5203 105.367 16.5434C105.679 16.5676 105.995 16.7223 106.243 16.9696C106.49 17.2168 106.644 17.5307 106.667 17.8401C106.689 18.1359 106.596 18.463 106.283 18.7756L106.283 18.7757L101.133 23.9258L101.133 23.9263C101.011 24.0479 100.867 24.1443 100.708 24.2098C100.551 24.2747 100.382 24.3081 100.211 24.3078Z" fill="white" stroke="white"/>
<path d="M115.041 48.6341L115.039 48.6346C114.928 48.6646 114.815 48.6802 114.7 48.6811C113.994 48.6803 113.541 48.1679 113.451 47.5406C113.363 46.921 113.647 46.311 114.364 46.1185C114.364 46.1185 114.364 46.1185 114.364 46.1185L120.907 44.3667C120.907 44.3667 120.907 44.3667 120.907 44.3667C121.334 44.2526 121.664 44.3354 121.908 44.5018C122.163 44.6758 122.357 44.9644 122.447 45.3004C122.537 45.6364 122.512 45.9843 122.377 46.264C122.249 46.5314 122.005 46.7677 121.581 46.8823C121.58 46.8823 121.58 46.8824 121.58 46.8824L115.041 48.6341Z" fill="white" stroke="white"/>
<path d="M102.517 71.283L102.517 71.283L105.693 72.1349C105.693 72.1349 105.693 72.1349 105.693 72.1349C105.693 72.1349 105.693 72.135 105.693 72.135C106.111 72.2475 106.346 72.4798 106.469 72.7421C106.597 73.018 106.618 73.3646 106.524 73.7028C106.431 74.041 106.234 74.3326 105.98 74.509C105.738 74.6773 105.421 74.7582 105.019 74.6506L105.019 74.6505L101.84 73.7986L101.839 73.7983C101.413 73.6849 101.17 73.4493 101.042 73.1835C100.908 72.9051 100.885 72.5576 100.976 72.2208C101.067 71.884 101.262 71.594 101.519 71.419C101.764 71.2517 102.093 71.1693 102.517 71.283Z" fill="white" stroke="white"/>
<path d="M112.195 73.8772L112.195 73.8773L121.488 76.369C121.488 76.369 121.488 76.369 121.488 76.369C121.488 76.369 121.488 76.369 121.488 76.3691C121.906 76.4816 122.141 76.7138 122.264 76.9762C122.392 77.252 122.412 77.5985 122.319 77.9366C122.225 78.2748 122.029 78.5664 121.774 78.7429C121.531 78.9113 121.213 78.9923 120.811 78.8846L111.518 76.3928L111.517 76.3926C111.091 76.2792 110.847 76.0435 110.72 75.7777C110.586 75.4994 110.562 75.1518 110.653 74.815C110.744 74.4782 110.94 74.1883 111.197 74.0132C111.442 73.8459 111.771 73.7635 112.195 73.8772Z" fill="white" stroke="white"/>
<path d="M90.2613 87.9352C88.6141 86.2858 86.0633 88.8352 87.6976 90.4815L96.0646 98.8504C97.7118 100.5 100.263 97.9504 98.6283 96.3042L90.2613 87.9352Z" fill="white"/>
<path d="M103.829 101.506C102.182 99.8593 99.6313 102.406 101.266 104.068L103.772 106.576C105.422 108.225 107.973 105.676 106.335 104.013L103.829 101.506Z" fill="white"/>
<path d="M72.8245 109.511L72.8245 109.511L72.2126 107.231C72.2125 107.231 72.2125 107.231 72.2125 107.231C72.0983 106.803 72.1814 106.474 72.3479 106.23C72.5222 105.974 72.8112 105.78 73.1477 105.691C73.4842 105.602 73.8326 105.626 74.1124 105.761C74.38 105.89 74.6161 106.134 74.73 106.558L75.3419 108.838C75.4569 109.267 75.3733 109.595 75.2075 109.836C75.0336 110.089 74.7446 110.28 74.4068 110.368C74.0689 110.456 73.7186 110.431 73.4377 110.296C73.169 110.167 72.9355 109.925 72.8245 109.511Z" fill="white" stroke="white"/>
<path d="M77.1718 115.689L77.1718 115.689L78.5686 120.883C78.5687 120.883 78.5687 120.883 78.5688 120.883C78.6127 121.049 78.6237 121.221 78.601 121.391C78.5782 121.56 78.5223 121.724 78.4362 121.872C78.3502 122.02 78.2358 122.15 78.0995 122.254C77.967 122.355 77.8164 122.43 77.6558 122.474C77.3185 122.539 76.9688 122.481 76.6713 122.308C76.3735 122.136 76.1486 121.861 76.0379 121.536L74.6544 116.362L74.6544 116.362C74.5402 115.936 74.6231 115.607 74.7897 115.363C74.964 115.107 75.2532 114.913 75.5898 114.824C75.9264 114.734 76.2748 114.758 76.5545 114.893C76.8219 115.022 77.0579 115.266 77.1718 115.689Z" fill="white" stroke="white"/>
<path d="M72.6688 20.7948L72.6105 20.7793C72.4448 20.7355 72.2893 20.6594 72.1531 20.5555C72.0168 20.4516 71.9024 20.3219 71.8164 20.1738C71.7303 20.0256 71.6744 19.8621 71.6516 19.6923C71.6289 19.5227 71.6399 19.3503 71.6839 19.185C71.6839 19.1848 71.6839 19.1847 71.684 19.1846L72.5169 16.0754L72.5171 16.0747C72.6305 15.6486 72.8663 15.4052 73.1326 15.2771C73.4114 15.1429 73.7594 15.1192 74.0964 15.2098C74.4335 15.3005 74.7235 15.4957 74.8985 15.7519C75.0657 15.9968 75.1481 16.3251 75.0344 16.7483L75.0343 16.7487L74.2051 19.8437C74.0945 20.1686 73.8699 20.4427 73.5727 20.6152C73.2989 20.774 72.9808 20.8367 72.6688 20.7948Z" fill="white" stroke="white"/>
<path d="M76.1769 10.9021C75.8878 11.0696 75.5494 11.1299 75.221 11.0732L75.2213 11.0714C75.0555 11.0279 74.9 10.952 74.7637 10.8482C74.6273 10.7445 74.5129 10.6148 74.4269 10.4667C74.3408 10.3186 74.285 10.155 74.2624 9.98533C74.2398 9.81561 74.251 9.64312 74.2954 9.47774L74.2955 9.4774L76.4489 1.42246C76.5629 0.996258 76.7992 0.752641 77.0661 0.624333C77.3455 0.490044 77.6939 0.466401 78.0312 0.557029C78.3685 0.647662 78.6586 0.842901 78.8336 1.09912C79.0008 1.34397 79.0832 1.67224 78.9695 2.09547C78.9695 2.09547 78.9695 2.09548 78.9695 2.09548L76.8104 10.1296C76.6997 10.455 76.4748 10.7296 76.1769 10.9021Z" fill="white" stroke="white"/>
<path d="M21.8877 23.9262L21.8862 23.9246L16.7258 18.8022C16.4169 18.4877 16.3247 18.1586 16.348 17.8604C16.3724 17.5482 16.5273 17.233 16.7749 16.9858C17.0224 16.7385 17.3366 16.5851 17.6463 16.5621C17.9423 16.5402 18.2693 16.6337 18.5812 16.9461L18.5812 16.9461L18.5828 16.9476L23.743 22.0698C24.0511 22.3842 24.143 22.7133 24.1196 23.0117C24.0951 23.3241 23.9401 23.6394 23.6928 23.8866C23.4454 24.1339 23.1315 24.2872 22.8222 24.3101C22.5265 24.332 22.1997 24.2386 21.8877 23.9262Z" fill="white" stroke="white"/>
<path d="M1.42036 46.8825L1.41945 46.8823C0.992921 46.7689 0.749458 46.5332 0.621309 46.2672C0.487149 45.9887 0.463467 45.6411 0.554088 45.3043C0.644707 44.9676 0.839958 44.6778 1.09639 44.5029C1.34148 44.3357 1.67018 44.2533 2.09388 44.367L2.09419 44.3671L8.63728 46.1189C9.05564 46.2314 9.2906 46.4636 9.41282 46.7258C9.54132 47.0016 9.56114 47.3481 9.46737 47.6863C9.3736 48.0246 9.17669 48.3163 8.92236 48.4928C8.67962 48.6613 8.36201 48.7421 7.96097 48.6345L7.96078 48.6345L1.42036 46.8825Z" fill="white" stroke="white"/>
<path d="M17.3214 72.135L17.3214 72.135L20.4966 71.2832C20.4967 71.2832 20.4967 71.2832 20.4968 71.2831C20.9237 71.1691 21.2533 71.2519 21.498 71.4186C21.754 71.593 21.9484 71.8821 22.0383 72.2184C22.1282 72.5548 22.1041 72.9027 21.9696 73.182C21.8411 73.4489 21.5977 73.6848 21.1738 73.7986C21.1737 73.7987 21.1736 73.7987 21.1736 73.7987L17.9949 74.6506L17.9948 74.6506C17.6012 74.7561 17.2874 74.6757 17.0456 74.5067C16.7922 74.3296 16.5951 74.037 16.5006 73.6981C16.4061 73.3592 16.4251 73.013 16.5521 72.7383C16.6727 72.4774 16.9053 72.2466 17.3214 72.135Z" fill="white" stroke="white"/>
<path d="M10.8225 73.8774L10.8224 73.8766C11.2479 73.7638 11.5765 73.8465 11.8205 74.0126C12.0764 74.1868 12.2708 74.4756 12.3607 74.8116C12.4505 75.1476 12.4265 75.4955 12.292 75.775C12.1633 76.0422 11.9197 76.2785 11.4957 76.3931C11.4955 76.3931 11.4954 76.3931 11.4953 76.3932L2.20332 78.8846C1.80742 78.9905 1.49203 78.9098 1.24954 78.7409C0.995491 78.5639 0.798225 78.2717 0.70389 77.9334C0.60955 77.5951 0.628718 77.2493 0.756294 76.9745C0.877521 76.7133 1.11131 76.4816 1.5296 76.3691C1.52966 76.3691 1.52972 76.3691 1.52978 76.3691L10.8225 73.8774Z" fill="white" stroke="white"/>
<path d="M32.7529 87.9352L24.386 96.3042C22.7324 97.944 25.296 100.506 26.9367 98.8504L35.3037 90.4815C36.9509 88.8352 34.4001 86.2858 32.7401 87.9352H32.7529Z" fill="white"/>
<path d="M19.185 101.505L16.6759 104.029C15.0288 105.678 17.5796 108.228 19.2395 106.591L21.7454 104.083C23.3926 102.434 20.8418 99.8878 19.1818 101.521L19.185 101.505Z" fill="white"/>
<path d="M50.0093 105.153C49.7801 105.092 49.541 105.076 49.3057 105.107C49.0704 105.138 48.8436 105.215 48.6383 105.334C48.433 105.453 48.2534 105.612 48.1097 105.801C47.9661 105.99 47.8613 106.205 47.8014 106.434L47.1893 108.715C46.6029 110.906 50.0734 111.918 50.6726 109.647L51.2847 107.367C51.3461 107.137 51.3616 106.899 51.3304 106.664C51.2991 106.429 51.2217 106.202 51.1026 105.997C50.9835 105.792 50.825 105.612 50.6363 105.469C50.4476 105.325 50.2323 105.22 50.0029 105.16L50.0093 105.153Z" fill="white"/>
<path d="M47.5675 114.278C47.3383 114.217 47.0994 114.202 46.8644 114.234C46.6294 114.265 46.4029 114.343 46.1978 114.462C45.9928 114.58 45.8132 114.739 45.6693 114.927C45.5255 115.116 45.4202 115.33 45.3596 115.56L43.9688 120.748C43.3824 122.936 46.8529 123.951 47.4521 121.68L48.8429 116.492C48.9038 116.263 48.919 116.024 48.8876 115.789C48.8561 115.554 48.7787 115.328 48.6596 115.123C48.5406 114.918 48.3823 114.738 48.1938 114.594C48.0053 114.451 47.7903 114.345 47.5611 114.285L47.5675 114.278Z" fill="white"/>
<path d="M48.7724 14.671C48.5429 14.7312 48.3277 14.8362 48.1389 14.9799C47.9502 15.1235 47.7917 15.303 47.6726 15.5081C47.5535 15.7132 47.4761 15.9397 47.4449 16.1747C47.4136 16.4098 47.4292 16.6487 47.4906 16.8777L48.3205 19.9876C48.9134 22.2008 52.4095 21.3136 51.807 19.0556L50.9803 15.9521C50.9196 15.723 50.8143 15.5081 50.6705 15.3197C50.5267 15.1313 50.3471 14.9731 50.142 14.8541C49.937 14.7351 49.7104 14.6577 49.4754 14.6263C49.2404 14.5949 49.0015 14.61 48.7724 14.671Z" fill="white"/>
<path d="M45.7248 10.2801C46.3177 12.4901 49.8138 11.6061 49.2082 9.34811L47.0515 1.29306C46.4459 -0.958506 42.9658 -0.0264909 43.5618 2.22508L45.7248 10.2801Z" fill="white"/>
</svg>
