<svg width="145" height="37" viewBox="0 0 145 37" fill="none" xmlns="http://www.w3.org/2000/svg">
<path d="M41.209 15V10.7549L44.709 5.13574H43.3076L40.6484 9.51758H40.5391L37.8799 5.13574H36.4785L39.9785 10.7549V15H41.209ZM48.1611 15.1299C50.2598 15.1299 51.5586 13.6807 51.5586 11.3154C51.5586 8.94336 50.2598 7.50098 48.1611 7.50098C46.0625 7.50098 44.7637 8.94336 44.7637 11.3154C44.7637 13.6807 46.0625 15.1299 48.1611 15.1299ZM48.1611 14.0703C46.7666 14.0703 45.9805 13.0586 45.9805 11.3154C45.9805 9.56543 46.7666 8.56055 48.1611 8.56055C49.5557 8.56055 50.3418 9.56543 50.3418 11.3154C50.3418 13.0586 49.5557 14.0703 48.1611 14.0703ZM59.3652 7.63086H58.1895V11.9922C58.1895 13.2842 57.4785 14.0566 56.1797 14.0566C55.0039 14.0566 54.5117 13.4414 54.5117 12.1152V7.63086H53.3359V12.4023C53.3359 14.1455 54.1973 15.1299 55.8516 15.1299C56.9795 15.1299 57.7656 14.665 58.1348 13.8447H58.2441V15H59.3652V7.63086ZM61.5801 15H62.7559V10.4336C62.7559 9.39453 63.5693 8.64258 64.6904 8.64258C64.9229 8.64258 65.3467 8.68359 65.4424 8.71094V7.53516C65.292 7.51465 65.0459 7.50098 64.8545 7.50098C63.877 7.50098 63.0293 8.00684 62.8105 8.72461H62.7012V7.63086H61.5801V15ZM70.8906 15H72.0664V7.63086H70.8906V15ZM71.4785 6.13379C71.9297 6.13379 72.2988 5.76465 72.2988 5.31348C72.2988 4.8623 71.9297 4.49316 71.4785 4.49316C71.0273 4.49316 70.6582 4.8623 70.6582 5.31348C70.6582 5.76465 71.0273 6.13379 71.4785 6.13379ZM74.3086 15H75.4844V10.6387C75.4844 9.34668 76.2432 8.56055 77.4189 8.56055C78.5947 8.56055 79.1553 9.18945 79.1553 10.5156V15H80.3311V10.2285C80.3311 8.47852 79.4082 7.50098 77.7539 7.50098C76.626 7.50098 75.9082 7.97949 75.5391 8.79297H75.4297V7.63086H74.3086V15ZM82.9766 15H84.1523V8.61523H85.8408V7.63086H84.1523V6.84473C84.1523 6.03809 84.5078 5.62793 85.3555 5.62793C85.5674 5.62793 85.7656 5.63477 85.9092 5.66211V4.70508C85.6631 4.65723 85.4033 4.63672 85.1162 4.63672C83.7148 4.63672 82.9766 5.34082 82.9766 6.81055V7.63086H81.7529V8.61523H82.9766V15ZM90.2705 15.1299C92.3691 15.1299 93.668 13.6807 93.668 11.3154C93.668 8.94336 92.3691 7.50098 90.2705 7.50098C88.1719 7.50098 86.873 8.94336 86.873 11.3154C86.873 13.6807 88.1719 15.1299 90.2705 15.1299ZM90.2705 14.0703C88.876 14.0703 88.0898 13.0586 88.0898 11.3154C88.0898 9.56543 88.876 8.56055 90.2705 8.56055C91.665 8.56055 92.4512 9.56543 92.4512 11.3154C92.4512 13.0586 91.665 14.0703 90.2705 14.0703ZM95.5137 15H96.6895V10.4336C96.6895 9.39453 97.5029 8.64258 98.624 8.64258C98.8564 8.64258 99.2803 8.68359 99.376 8.71094V7.53516C99.2256 7.51465 98.9795 7.50098 98.7881 7.50098C97.8105 7.50098 96.9629 8.00684 96.7441 8.72461H96.6348V7.63086H95.5137V15ZM100.982 15H102.158V10.4336C102.158 9.39453 102.903 8.56055 103.867 8.56055C104.797 8.56055 105.405 9.12109 105.405 9.99609V15H106.581V10.2627C106.581 9.32617 107.265 8.56055 108.29 8.56055C109.329 8.56055 109.842 9.09375 109.842 10.1807V15H111.018V9.90723C111.018 8.3623 110.177 7.50098 108.673 7.50098C107.654 7.50098 106.813 8.01367 106.417 8.79297H106.308C105.966 8.02734 105.269 7.50098 104.271 7.50098C103.286 7.50098 102.548 7.97266 102.213 8.79297H102.104V7.63086H100.982V15ZM115.434 14.0977C114.579 14.0977 113.943 13.6602 113.943 12.9082C113.943 12.1699 114.436 11.7803 115.557 11.7051L117.539 11.5752V12.252C117.539 13.3047 116.644 14.0977 115.434 14.0977ZM115.215 15.1299C116.199 15.1299 117.006 14.6992 117.484 13.9131H117.594V15H118.715V9.95508C118.715 8.42383 117.71 7.50098 115.912 7.50098C114.34 7.50098 113.178 8.28027 113.021 9.46289H114.21C114.374 8.88184 114.989 8.54688 115.871 8.54688C116.972 8.54688 117.539 9.0459 117.539 9.95508V10.625L115.413 10.7549C113.697 10.8574 112.727 11.6162 112.727 12.9355C112.727 14.2822 113.786 15.1299 115.215 15.1299ZM121.381 5.72363V7.63086H120.191V8.61523H121.381V13.0859C121.381 14.4941 121.989 15.0547 123.507 15.0547C123.739 15.0547 123.965 15.0273 124.197 14.9863V13.9951C123.979 14.0156 123.862 14.0225 123.65 14.0225C122.885 14.0225 122.557 13.6533 122.557 12.7852V8.61523H124.197V7.63086H122.557V5.72363H121.381ZM126.002 15H127.178V7.63086H126.002V15ZM126.59 6.13379C127.041 6.13379 127.41 5.76465 127.41 5.31348C127.41 4.8623 127.041 4.49316 126.59 4.49316C126.139 4.49316 125.77 4.8623 125.77 5.31348C125.77 5.76465 126.139 6.13379 126.59 6.13379ZM132.448 15.1299C134.547 15.1299 135.846 13.6807 135.846 11.3154C135.846 8.94336 134.547 7.50098 132.448 7.50098C130.35 7.50098 129.051 8.94336 129.051 11.3154C129.051 13.6807 130.35 15.1299 132.448 15.1299ZM132.448 14.0703C131.054 14.0703 130.268 13.0586 130.268 11.3154C130.268 9.56543 131.054 8.56055 132.448 8.56055C133.843 8.56055 134.629 9.56543 134.629 11.3154C134.629 13.0586 133.843 14.0703 132.448 14.0703ZM137.691 15H138.867V10.6387C138.867 9.34668 139.626 8.56055 140.802 8.56055C141.978 8.56055 142.538 9.18945 142.538 10.5156V15H143.714V10.2285C143.714 8.47852 142.791 7.50098 141.137 7.50098C140.009 7.50098 139.291 7.97949 138.922 8.79297H138.812V7.63086H137.691V15ZM37.1348 33H38.3105V25.6309H37.1348V33ZM37.7227 24.1338C38.1738 24.1338 38.543 23.7646 38.543 23.3135C38.543 22.8623 38.1738 22.4932 37.7227 22.4932C37.2715 22.4932 36.9023 22.8623 36.9023 23.3135C36.9023 23.7646 37.2715 24.1338 37.7227 24.1338ZM40.3818 27.6475C40.3818 28.7139 41.0107 29.3086 42.3916 29.6436L43.6562 29.9512C44.4424 30.1426 44.8252 30.4844 44.8252 30.9902C44.8252 31.667 44.1143 32.1387 43.123 32.1387C42.1797 32.1387 41.5918 31.7422 41.3936 31.1201H40.1836C40.3135 32.3438 41.4414 33.1299 43.082 33.1299C44.7568 33.1299 46.0352 32.2207 46.0352 30.9014C46.0352 29.8418 45.3652 29.2402 43.9775 28.9053L42.8428 28.6318C41.9746 28.4199 41.5645 28.1055 41.5645 27.5996C41.5645 26.9434 42.248 26.499 43.123 26.499C44.0117 26.499 44.5859 26.8887 44.7432 27.4766H45.9053C45.748 26.2666 44.6748 25.501 43.1299 25.501C41.5645 25.501 40.3818 26.4238 40.3818 27.6475ZM53.1855 28.8506H53.0762V22.7051H51.9004V33H53.0762V30.2041L53.7803 29.5479L56.542 33H58.0391L54.6553 28.7891L57.8271 25.6309H56.3848L53.1855 28.8506ZM62.0312 26.54C63.2002 26.54 63.9795 27.4014 64.0068 28.707H59.9463C60.0352 27.4014 60.8555 26.54 62.0312 26.54ZM63.9727 31.0928C63.665 31.7422 63.0225 32.0908 62.0723 32.0908C60.8213 32.0908 60.0078 31.168 59.9463 29.7119V29.6572H65.2441V29.2061C65.2441 26.916 64.0342 25.501 62.0449 25.501C60.0215 25.501 58.7227 27.0049 58.7227 29.3223C58.7227 31.6533 60.001 33.1299 62.0449 33.1299C63.6582 33.1299 64.793 32.3574 65.1484 31.0928H63.9727ZM70.6787 25.501C69.6738 25.501 68.792 26.0137 68.3203 26.8613H68.2109V25.6309H67.0898V35.4609H68.2656V31.8926H68.375C68.7783 32.6719 69.626 33.1299 70.6787 33.1299C72.5518 33.1299 73.7754 31.6191 73.7754 29.3154C73.7754 26.998 72.5586 25.501 70.6787 25.501ZM70.3984 32.0703C69.0723 32.0703 68.2314 31.0039 68.2314 29.3154C68.2314 27.6201 69.0723 26.5605 70.4053 26.5605C71.752 26.5605 72.5586 27.5928 72.5586 29.3154C72.5586 31.0381 71.752 32.0703 70.3984 32.0703ZM76.1133 23.7236V25.6309H74.9238V26.6152H76.1133V31.0859C76.1133 32.4941 76.7217 33.0547 78.2393 33.0547C78.4717 33.0547 78.6973 33.0273 78.9297 32.9863V31.9951C78.7109 32.0156 78.5947 32.0225 78.3828 32.0225C77.6172 32.0225 77.2891 31.6533 77.2891 30.7852V26.6152H78.9297V25.6309H77.2891V23.7236H76.1133ZM88.2471 25.501C87.2422 25.501 86.3604 26.0137 85.8887 26.8613H85.7793V25.6309H84.6582V35.4609H85.834V31.8926H85.9434C86.3467 32.6719 87.1943 33.1299 88.2471 33.1299C90.1201 33.1299 91.3438 31.6191 91.3438 29.3154C91.3438 26.998 90.127 25.501 88.2471 25.501ZM87.9668 32.0703C86.6406 32.0703 85.7998 31.0039 85.7998 29.3154C85.7998 27.6201 86.6406 26.5605 87.9736 26.5605C89.3203 26.5605 90.127 27.5928 90.127 29.3154C90.127 31.0381 89.3203 32.0703 87.9668 32.0703ZM93.1895 33H94.3652V28.4336C94.3652 27.3945 95.1787 26.6426 96.2998 26.6426C96.5322 26.6426 96.9561 26.6836 97.0518 26.7109V25.5352C96.9014 25.5146 96.6553 25.501 96.4639 25.501C95.4863 25.501 94.6387 26.0068 94.4199 26.7246H94.3105V25.6309H93.1895V33ZM98.5488 33H99.7246V25.6309H98.5488V33ZM99.1367 24.1338C99.5879 24.1338 99.957 23.7646 99.957 23.3135C99.957 22.8623 99.5879 22.4932 99.1367 22.4932C98.6855 22.4932 98.3164 22.8623 98.3164 23.3135C98.3164 23.7646 98.6855 24.1338 99.1367 24.1338ZM107.982 25.6309H106.725L104.708 31.7012H104.599L102.582 25.6309H101.324L104.052 33H105.255L107.982 25.6309ZM111.551 32.0977C110.696 32.0977 110.061 31.6602 110.061 30.9082C110.061 30.1699 110.553 29.7803 111.674 29.7051L113.656 29.5752V30.252C113.656 31.3047 112.761 32.0977 111.551 32.0977ZM111.332 33.1299C112.316 33.1299 113.123 32.6992 113.602 31.9131H113.711V33H114.832V27.9551C114.832 26.4238 113.827 25.501 112.029 25.501C110.457 25.501 109.295 26.2803 109.138 27.4629H110.327C110.491 26.8818 111.106 26.5469 111.988 26.5469C113.089 26.5469 113.656 27.0459 113.656 27.9551V28.625L111.53 28.7549C109.814 28.8574 108.844 29.6162 108.844 30.9355C108.844 32.2822 109.903 33.1299 111.332 33.1299ZM117.498 23.7236V25.6309H116.309V26.6152H117.498V31.0859C117.498 32.4941 118.106 33.0547 119.624 33.0547C119.856 33.0547 120.082 33.0273 120.314 32.9863V31.9951C120.096 32.0156 119.979 32.0225 119.768 32.0225C119.002 32.0225 118.674 31.6533 118.674 30.7852V26.6152H120.314V25.6309H118.674V23.7236H117.498ZM124.922 26.54C126.091 26.54 126.87 27.4014 126.897 28.707H122.837C122.926 27.4014 123.746 26.54 124.922 26.54ZM126.863 31.0928C126.556 31.7422 125.913 32.0908 124.963 32.0908C123.712 32.0908 122.898 31.168 122.837 29.7119V29.6572H128.135V29.2061C128.135 26.916 126.925 25.501 124.936 25.501C122.912 25.501 121.613 27.0049 121.613 29.3223C121.613 31.6533 122.892 33.1299 124.936 33.1299C126.549 33.1299 127.684 32.3574 128.039 31.0928H126.863ZM130.951 33.0684C131.443 33.0684 131.84 32.665 131.84 32.1797C131.84 31.6875 131.443 31.291 130.951 31.291C130.466 31.291 130.062 31.6875 130.062 32.1797C130.062 32.665 130.466 33.0684 130.951 33.0684Z" fill="#8E8E92"/>
<path d="M6 5.00012L26 27.0001" stroke="#888888" stroke-width="2" stroke-linecap="round" stroke-linejoin="round"/>
<path d="M19.3636 19.6999C18.3823 20.5918 17.087 21.0573 15.7625 20.9942C14.438 20.9311 13.1928 20.3444 12.3008 19.3632C11.4088 18.3821 10.9431 17.0868 11.0061 15.7622C11.0692 14.4377 11.6557 13.1925 12.6368 12.3004" stroke="#888888" stroke-width="2" stroke-linecap="round" stroke-linejoin="round"/>
<path d="M9.24931 8.57434C4.15315 11.155 2 16.0001 2 16.0001C2 16.0001 6 24.9992 16 24.9992C18.343 25.0178 20.6567 24.4782 22.7497 23.4248" stroke="#888888" stroke-width="2" stroke-linecap="round" stroke-linejoin="round"/>
<path d="M26.076 21.1376C28.8012 18.6967 29.9998 16.0001 29.9998 16.0001C29.9998 16.0001 25.9998 6.99917 15.9998 6.99917C15.1337 6.99775 14.269 7.06816 13.4146 7.20968" stroke="#888888" stroke-width="2" stroke-linecap="round" stroke-linejoin="round"/>
<path d="M16.9409 11.0886C18.0036 11.2927 18.9715 11.8358 19.6994 12.6365C20.4274 13.4373 20.876 14.4524 20.9781 15.5297" stroke="#888888" stroke-width="2" stroke-linecap="round" stroke-linejoin="round"/>
</svg>
