<svg width="93" height="22" viewBox="0 0 93 22" fill="none" xmlns="http://www.w3.org/2000/svg">
<path d="M31.8397 0.584473C33.36 0.584473 34.2587 1.53035 34.2587 3.13885C34.2587 4.74736 33.3636 5.69764 31.8397 5.69764H30.1172V0.584473H31.8397ZM30.7571 5.12307H31.797C32.9584 5.12307 33.6049 4.41494 33.6049 3.14619C33.6049 1.87744 32.9621 1.15831 31.797 1.15831H30.7571V5.12307Z" fill="white"/>
<path d="M35.1328 3.85468C35.1328 2.68058 35.822 1.94678 36.845 1.94678C37.8681 1.94678 38.5528 2.67692 38.5528 3.85468C38.5528 5.03243 37.8637 5.76257 36.845 5.76257C35.8264 5.76257 35.1328 5.0273 35.1328 3.85468ZM37.9277 3.85468C37.9277 2.98658 37.5011 2.49053 36.848 2.49053C36.1949 2.49053 35.7646 2.98658 35.7646 3.85468C35.7646 4.72277 36.1941 5.21882 36.848 5.21882C37.5018 5.21882 37.9247 4.72277 37.9247 3.85468H37.9277Z" fill="white"/>
<path d="M43.2094 5.69738H42.5806L41.7458 2.84508H41.7318L40.9007 5.69738H40.2719L39.2422 2.01221H39.8563L40.5955 5.00981H40.6095L41.4406 2.01441H42.037L42.8755 5.01201H42.8895L43.625 2.01441H44.2362L43.2094 5.69738Z" fill="white"/>
<path d="M45.1094 2.01428H45.6919V2.60133H45.7059C45.9118 2.20507 46.306 1.94971 46.8775 1.94971C47.6865 1.94971 48.1565 2.47071 48.1565 3.30652V5.69873H47.5387V3.41659C47.5387 2.82147 47.2577 2.49566 46.6899 2.49566C46.1074 2.49566 45.7272 2.90659 45.7272 3.53033V5.69873H45.1094V2.01428Z" fill="white"/>
<path d="M49.332 0.584473H49.9498V5.69764H49.332V0.584473Z" fill="white"/>
<path d="M50.9688 3.85468C50.9688 2.68058 51.6572 1.94678 52.6802 1.94678C53.7033 1.94678 54.3888 2.67692 54.3888 3.85468C54.3888 5.03243 53.6996 5.76257 52.6802 5.76257C51.6608 5.76257 50.9688 5.0273 50.9688 3.85468ZM53.7636 3.85468C53.7636 2.98658 53.3378 2.49053 52.6839 2.49053C52.0301 2.49053 51.6005 2.98658 51.6005 3.85468C51.6005 4.72277 52.0308 5.21882 52.6839 5.21882C53.337 5.21882 53.7599 4.72277 53.7599 3.85468H53.7636Z" fill="white"/>
<path d="M55.2227 4.65623C55.2227 4.02589 55.7096 3.6289 56.562 3.579L57.6204 3.51883V3.21063C57.6204 2.7608 57.3217 2.4915 56.8113 2.4915C56.3355 2.4915 56.0368 2.71164 55.9589 3.07854H55.3631C55.4058 2.44086 55.9515 1.95215 56.8268 1.95215C57.702 1.95215 58.2404 2.41958 58.2404 3.15339V5.70117H57.652V5.06642H57.638C57.5216 5.27858 57.3499 5.45546 57.1411 5.57841C56.9323 5.70136 56.6941 5.76583 56.4517 5.76501C55.7162 5.76134 55.2227 5.31665 55.2227 4.65623ZM57.6204 4.29813V3.9958L56.6326 4.05597C56.1354 4.08753 55.8515 4.30767 55.8515 4.65476C55.8515 5.00185 56.1457 5.23593 56.587 5.23593C57.1724 5.23667 57.6204 4.8294 57.6204 4.29739V4.29813Z" fill="white"/>
<path d="M59.207 3.85505C59.207 2.70004 59.8425 1.94715 60.7729 1.94715C61.3024 1.94715 61.729 2.20545 61.9497 2.60758H61.9636V0.584473H62.5815V5.69764H61.9931V5.0739H61.9842C61.8678 5.28671 61.6949 5.46344 61.4845 5.58472C61.274 5.706 61.0342 5.76715 60.7913 5.76148C59.8462 5.76148 59.207 5.01006 59.207 3.85505ZM59.8388 3.85505C59.8388 4.69085 60.2514 5.2192 60.9045 5.2192C61.54 5.2192 61.9666 4.68058 61.9666 3.85505C61.9666 3.02952 61.54 2.4909 60.9045 2.4909C60.2514 2.4909 59.8388 3.02218 59.8388 3.85505Z" fill="white"/>
<path d="M65.4531 3.85468C65.4531 2.68058 66.1423 1.94678 67.1653 1.94678C68.1884 1.94678 68.8732 2.67692 68.8732 3.85468C68.8732 5.03243 68.1847 5.76257 67.1653 5.76257C66.146 5.76257 65.4531 5.0273 65.4531 3.85468ZM68.248 3.85468C68.248 2.98658 67.8214 2.49053 67.1683 2.49053C66.5152 2.49053 66.0849 2.98658 66.0849 3.85468C66.0849 4.72277 66.5144 5.21882 67.1683 5.21882C67.8221 5.21882 68.245 4.72277 68.245 3.85468H68.248Z" fill="white"/>
<path d="M69.8594 2.01428H70.4434V2.60133H70.4573C70.6633 2.20507 71.0575 1.94971 71.629 1.94971C72.438 1.94971 72.908 2.47071 72.908 3.30652V5.69873H72.2902V3.41659C72.2902 2.82147 72.0092 2.49566 71.4407 2.49566C70.8589 2.49566 70.4787 2.90659 70.4787 3.53033V5.69873H69.8608L69.8594 2.01428Z" fill="white"/>
<path d="M76.7234 1.12256V2.01413H77.4412V2.52046H76.7234V4.71014C76.7234 5.04696 76.8653 5.19959 77.1816 5.19959C77.2672 5.19802 77.3526 5.19214 77.4375 5.18198V5.69931C77.3084 5.72006 77.1777 5.72939 77.047 5.7272C76.3681 5.7272 76.1056 5.45128 76.1056 4.74243V2.51826H75.5547V2.01413H76.1034V1.12256H76.7234Z" fill="white"/>
<path d="M78.4961 0.584473H79.1139V2.60171H79.1279C79.3338 2.19078 79.7391 1.95009 80.3003 1.95009C81.1093 1.95009 81.5999 2.49604 81.5999 3.3179V5.6991H80.9821V3.42944C80.9821 2.8424 80.6879 2.49457 80.1083 2.49457C79.4942 2.49457 79.1139 2.91211 79.1139 3.55052V5.69764H78.4961V0.584473Z" fill="white"/>
<path d="M85.8055 4.64131C85.6989 5.28633 85.07 5.7611 84.2676 5.7611C83.2092 5.7611 82.5664 5.02729 82.5664 3.86861C82.5664 2.72387 83.2203 1.94824 84.2389 1.94824C85.237 1.94824 85.8518 2.67104 85.8518 3.78716V4.02125H83.2041V4.05647C83.2041 4.76166 83.6196 5.22542 84.2838 5.22542C84.753 5.22542 85.0972 4.9884 85.2002 4.63838L85.8055 4.64131ZM83.2056 3.5406H85.212C85.198 2.9242 84.8111 2.48465 84.2286 2.48465C83.6461 2.48465 83.2445 2.92641 83.2056 3.53913V3.5406Z" fill="white"/>
<path d="M33.3004 9.79272H34.8986L38.3605 19.3036H36.8079L35.9364 16.7353H32.2597L31.3771 19.3036H29.8281L33.3004 9.79272ZM32.6598 15.5465H35.5333L34.1094 11.3689H34.0829L32.6598 15.5465Z" fill="white"/>
<path d="M39.9102 12.3716H41.337V13.564H41.3701C41.7864 12.7407 42.5528 12.2432 43.5435 12.2432C45.3138 12.2432 46.4501 13.6271 46.4501 15.8388V15.8454C46.4501 18.0534 45.3072 19.4411 43.5633 19.4411C42.5792 19.4411 41.7798 18.9406 41.3701 18.1364H41.337V21.6095H39.9102V12.3716ZM44.9968 15.8447V15.8381C44.9968 14.3617 44.29 13.4591 43.1735 13.4591C42.0901 13.4591 41.3304 14.3947 41.3304 15.8381V15.8447C41.3304 17.2815 42.0968 18.2178 43.1735 18.2178C44.2966 18.2178 44.9968 17.3079 44.9968 15.8447Z" fill="white"/>
<path d="M48.2305 12.3716H49.6573V13.564H49.6904C50.1067 12.7407 50.8731 12.2432 51.8638 12.2432C53.6349 12.2432 54.7704 13.6271 54.7704 15.8388V15.8454C54.7704 18.0534 53.6282 19.4411 51.8837 19.4411C50.8996 19.4411 50.1001 18.9406 49.6904 18.1364H49.6573V21.6095H48.2305V12.3716ZM53.3171 15.8447V15.8381C53.3171 14.3617 52.6103 13.4591 51.4938 13.4591C50.4105 13.4591 49.6507 14.3947 49.6507 15.8381V15.8447C49.6507 17.2815 50.4171 18.2178 51.4938 18.2178C52.6184 18.2178 53.3186 17.3079 53.3186 15.8447H53.3171Z" fill="white"/>
<path d="M59.7215 16.7732L59.7148 16.6749H61.1549L61.1682 16.7608C61.3006 17.6369 62.1787 18.1843 63.4541 18.1843C64.7294 18.1843 65.5348 17.6105 65.5348 16.7211V16.7145C65.5348 15.9499 65.0126 15.5346 63.7512 15.2579L62.7142 15.0378C60.8446 14.6423 59.9392 13.7859 59.9392 12.3755V12.3689C59.9458 10.7472 61.3793 9.6333 63.396 9.6333C65.3818 9.6333 66.7454 10.7142 66.844 12.3095L66.8506 12.421H65.4105L65.4039 12.3293C65.2722 11.4487 64.5058 10.9123 63.3761 10.9123C62.1934 10.9189 61.4403 11.4788 61.4403 12.3066V12.3132C61.4403 13.025 61.9824 13.4601 63.1709 13.7169L64.2153 13.9371C66.1835 14.3524 67.0293 15.1501 67.0293 16.6199V16.6265C67.0293 18.3597 65.6554 19.4604 63.396 19.4604C61.2542 19.4626 59.8406 18.4515 59.7215 16.7732Z" fill="white"/>
<path d="M69.263 17.4794V13.5043H68.2656V12.3713H69.263V10.5654H70.7229V12.3713H72.024V13.5043H70.7192V17.3935C70.7192 18.0987 71.0362 18.3093 71.6379 18.3093C71.7658 18.3087 71.8935 18.2999 72.0203 18.2829V19.3836C71.78 19.4219 71.537 19.4418 71.2936 19.443C69.9197 19.443 69.263 18.8633 69.263 17.4794Z" fill="white"/>
<path d="M73.3984 15.8378V15.8246C73.3984 13.61 74.7128 12.2393 76.6883 12.2393C78.6638 12.2393 79.9914 13.6034 79.9914 15.8246V15.8378C79.9914 18.0723 78.6829 19.443 76.6949 19.443C74.7069 19.443 73.3984 18.0657 73.3984 15.8378ZM78.5314 15.8378V15.8246C78.5314 14.3086 77.8048 13.4324 76.6883 13.4324C75.5917 13.4324 74.8584 14.3086 74.8584 15.8246V15.8378C74.8584 17.3737 75.5851 18.2499 76.7015 18.2499C77.818 18.2499 78.5307 17.3671 78.5307 15.8378H78.5314Z" fill="white"/>
<path d="M81.7734 12.3714H83.2003V13.5572H83.2334C83.454 12.75 84.0424 12.2363 84.8316 12.2363C84.9981 12.239 85.164 12.2566 85.3273 12.2892V13.6137C85.2148 13.5675 84.964 13.5344 84.6867 13.5344C83.7681 13.5344 83.2003 14.1347 83.2003 15.1694V19.3022H81.7734V12.3714Z" fill="white"/>
<path d="M86.2812 15.8643V15.8577C86.2812 13.6893 87.5367 12.2393 89.4858 12.2393C91.4348 12.2393 92.63 13.6335 92.63 15.719V16.2003H87.7088C87.7346 17.5124 88.4554 18.2763 89.591 18.2763C90.4368 18.2763 90.9987 17.8419 91.1767 17.3223L91.1965 17.2695H92.5506L92.5373 17.3429C92.313 18.4436 91.2429 19.4452 89.5586 19.4452C87.5169 19.443 86.2812 18.0525 86.2812 15.8643ZM87.7287 15.1921H91.2164C91.0972 13.9923 90.4235 13.406 89.4924 13.406C88.5613 13.406 87.8537 14.0319 87.7265 15.1921H87.7287Z" fill="white"/>
<path d="M17.1143 7.90913C16.2243 8.52602 15.6195 9.14584 15.2998 9.7686C14.979 10.3938 14.8142 11.0871 14.8195 11.7895C14.813 12.328 14.9096 12.8627 15.1042 13.365C15.3029 13.8553 15.5757 14.3124 15.9132 14.7203C16.2603 15.1484 16.8407 15.5733 17.6541 15.995C17.3393 16.9151 16.8512 17.8542 16.1897 18.812C15.5283 19.7699 14.9289 20.4492 14.3915 20.8498C13.8546 21.2505 13.3419 21.4508 12.8536 21.4508C12.4613 21.4508 11.9352 21.3263 11.2752 21.0773L10.9656 20.9636L10.461 20.7522C10.0752 20.6403 9.67496 20.5857 9.27319 20.59C8.82846 20.59 8.32931 20.6879 7.77573 20.8836L7.38519 21.0303L6.89609 21.2233C6.52327 21.3717 6.12583 21.4489 5.72445 21.4508C4.89923 21.4508 4.01493 20.8743 3.07154 19.7212C2.1526 18.6114 1.42892 17.3542 0.931262 16.003C0.45423 14.7165 0.20776 13.3564 0.203125 11.9847C0.203125 10.2421 0.699335 8.79166 1.69176 7.63322C2.68418 6.47479 4.03258 5.89581 5.73695 5.8963C6.33428 5.89202 6.92635 6.00782 7.47786 6.23679L7.85222 6.38355L8.24277 6.54645C8.58992 6.68735 8.86671 6.75755 9.07313 6.75706C9.38573 6.7552 9.69515 6.69445 9.98514 6.57801L10.5059 6.38281L10.8802 6.23605C11.5266 6.00209 12.2101 5.88674 12.8977 5.89557C14.6457 5.89606 16.0512 6.56725 17.1143 7.90913ZM12.9808 0.171875C13.0021 0.410362 13.0132 0.593813 13.0132 0.723697C13.0132 1.39489 12.817 2.08784 12.4248 2.80257C12.0677 3.48002 11.5406 4.05346 10.8949 4.46685C10.2721 4.85974 9.54894 5.06533 8.81204 5.05903C8.78488 4.87078 8.76843 4.68116 8.76276 4.49106C8.76276 3.91722 8.93437 3.31379 9.2776 2.68076C9.61904 2.0486 10.0938 1.49782 10.6691 1.06638C11.2505 0.624599 11.933 0.334317 12.655 0.221773L12.9808 0.171875Z" fill="white"/>
</svg>
