<?xml version="1.0" encoding="utf-8"?>
<!-- Generator: Adobe Illustrator 18.0.0, SVG Export Plug-In . SVG Version: 6.00 Build 0)  -->
<!DOCTYPE svg PUBLIC "-//W3C//DTD SVG 1.1//EN" "http://www.w3.org/Graphics/SVG/1.1/DTD/svg11.dtd">
<svg version="1.1" id="Layer_1" xmlns="http://www.w3.org/2000/svg" xmlns:xlink="http://www.w3.org/1999/xlink" x="0px" y="0px"
	 width="24px" height="110px" viewBox="0 0 24 110" enable-background="new 0 0 24 110" xml:space="preserve">
<g>
	<path fill="#FFFFFF" d="M23,47.6c0-6-4.9-10.9-11-11.2v-36C12,0.2,11.8,0,11.5,0S11,0.2,11,0.5v36C4.9,36.7,0,41.6,0,47.6
		c0,6,4.9,10.9,11,11.2v48l-4.1-6.1c-0.2-0.2-0.5-0.3-0.7-0.1c-0.2,0.2-0.3,0.5-0.1,0.7l5.1,7.4c0,0,0,0,0,0c0,0,0,0,0.1,0.1
		c0,0,0,0,0,0c0,0,0,0,0,0c0,0,0,0,0,0c0.1,0,0.1,0.1,0.2,0.1s0.2,0,0.2-0.1c0,0,0,0,0,0c0,0,0,0,0,0c0,0,0,0,0,0c0,0,0.1,0,0.1-0.1
		c0,0,0,0,0,0l5.1-7.4c0.2-0.2,0.1-0.5-0.1-0.7c-0.2-0.2-0.6-0.1-0.7,0.1l-4.1,6.1v-48C18.1,58.6,23,53.7,23,47.6z M1,47.6
		c0-5.5,4.6-10,10.2-10.2c0.1,0,0.2,0.1,0.3,0.1c0.1,0,0.2,0,0.3-0.1C17.4,37.6,22,42.1,22,47.6c0,5.6-4.7,10.2-10.5,10.2
		C5.7,57.8,1,53.3,1,47.6z"/>
	<path fill="#FFFFFF" d="M11.6,55.4l0.1-1.6c0.6,0,1.2-0.1,1.7-0.3c0.5-0.2,0.9-0.5,1.3-0.9c0.3-0.3,0.6-0.8,0.8-1.2
		c0.2-0.5,0.3-1,0.3-1.5c0-0.5-0.1-1-0.3-1.3c-0.2-0.4-0.5-0.7-0.8-0.9c-0.3-0.2-0.7-0.4-1.1-0.6c-0.4-0.2-0.8-0.3-1.3-0.4l0.3-4.2
		c0.3,0,0.6,0.1,0.8,0.2c0.2,0.1,0.4,0.2,0.6,0.3c0.2,0.1,0.3,0.2,0.4,0.3c0.1,0.1,0.2,0.1,0.3,0.1c0.2,0,0.3-0.1,0.4-0.3l0.4-0.6
		c-0.4-0.3-0.8-0.6-1.2-0.9c-0.5-0.2-1-0.4-1.6-0.5l0.1-1.7h-0.6c-0.1,0-0.2,0-0.3,0.1c-0.1,0.1-0.1,0.2-0.1,0.3l-0.1,1.3
		c-0.6,0-1.2,0.1-1.6,0.3c-0.5,0.2-0.9,0.5-1.2,0.8c-0.3,0.3-0.6,0.7-0.7,1.1c-0.2,0.4-0.3,0.8-0.3,1.2c0,0.6,0.1,1,0.3,1.4
		c0.2,0.4,0.5,0.7,0.8,0.9c0.3,0.2,0.7,0.4,1.1,0.6c0.4,0.2,0.8,0.3,1.2,0.4l-0.3,4.6c-0.4,0-0.8-0.1-1-0.3C9.5,52.1,9.3,52,9,51.9
		c-0.2-0.1-0.4-0.3-0.5-0.4c-0.1-0.1-0.3-0.2-0.4-0.2c-0.1,0-0.2,0-0.2,0.1c-0.1,0-0.1,0.1-0.2,0.2l-0.5,0.7
		c0.4,0.4,0.9,0.8,1.5,1.1c0.6,0.3,1.2,0.5,2,0.5l-0.1,2h0.6c0.1,0,0.2,0,0.3-0.1C11.6,55.6,11.6,55.5,11.6,55.4z M12.1,48.2
		c0.3,0.1,0.6,0.2,0.8,0.3c0.3,0.1,0.5,0.2,0.7,0.4c0.2,0.2,0.3,0.3,0.5,0.5c0.1,0.2,0.2,0.5,0.2,0.7c0,0.3-0.1,0.6-0.2,0.9
		c-0.1,0.3-0.3,0.5-0.5,0.7c-0.2,0.2-0.5,0.4-0.8,0.5c-0.3,0.1-0.6,0.2-1,0.2L12.1,48.2z M10.5,46.1c-0.2-0.1-0.4-0.3-0.6-0.4
		c-0.2-0.2-0.3-0.3-0.4-0.5c-0.1-0.2-0.2-0.4-0.2-0.7c0-0.2,0-0.5,0.1-0.7c0.1-0.2,0.2-0.4,0.4-0.6c0.2-0.2,0.4-0.3,0.7-0.4
		c0.3-0.1,0.6-0.2,1-0.2l-0.3,3.9C11,46.3,10.7,46.2,10.5,46.1z"/>
</g>
</svg>
