<svg width="124" height="143" viewBox="0 0 124 143" fill="none" xmlns="http://www.w3.org/2000/svg">
<path d="M17.6583 22.0537L17.6584 22.0535C17.925 21.4179 17.6012 20.7151 16.9472 20.484C16.3024 20.2544 15.5638 20.5679 15.3001 21.1963C15.3001 21.1964 15.3 21.1964 15.3 21.1965L15.4563 21.262L17.6583 22.0537ZM17.6583 22.0537C15.3263 27.5947 13.3961 35.5227 12.6702 43.9139C11.9442 52.3058 12.4241 61.1457 14.9001 68.5153C16.5047 73.289 18.9581 77.4307 22.4913 80.3887C26.0222 83.3447 30.6426 85.1282 36.6012 85.1688L36.6013 85.1688C40.0568 85.1948 42.8185 84.0624 44.9813 82.1656C43.7149 80.8508 42.5036 79.5187 41.3506 78.1707L41.3506 78.1707C39.6988 76.2385 37.2696 72.4242 35.0996 67.9346C32.9293 63.4443 31.0101 58.2616 30.3898 53.5912L30.5578 53.5689L30.3898 53.5912C29.9458 50.2415 30.1661 47.1403 31.3585 44.6657C32.5548 42.183 34.7211 40.3495 38.1247 39.5285C41.9348 38.6104 45.2614 40.1032 47.8601 43.1593C51.427 47.3489 53.6384 54.6086 53.9199 62.0358C54.1555 68.2223 53.0602 74.541 50.3696 79.3132L50.3694 79.3135C49.8024 80.3144 49.1693 81.2515 48.4629 82.107C66.9763 100.463 95.9116 114.496 122.322 116.615L122.323 116.615C123.013 116.673 123.529 117.255 123.445 117.936C123.365 118.61 122.731 119.095 122.044 119.041L122.044 119.041C95.1183 116.878 65.6402 102.616 46.7167 83.9233C44.09 86.2532 40.7125 87.6311 36.515 87.6021C29.9534 87.5565 24.822 85.6121 20.8893 82.3578C16.9588 79.1055 14.2371 74.5544 12.4752 69.3122L12.6359 69.2582L17.6583 22.0537ZM43.3384 76.602C44.4122 77.8588 45.5386 79.1017 46.7147 80.329C47.8283 78.9171 48.7269 77.2601 49.4272 75.4437L49.4272 75.4436C51.7215 69.5017 51.9266 61.9078 50.541 55.3816C49.6282 51.0823 48.0331 47.2649 45.8705 44.7222C43.9051 42.4167 41.4954 41.2091 38.6866 41.885C35.9836 42.5371 34.3717 44.0185 33.5163 45.9998C32.6564 47.9919 32.5544 50.5058 32.9157 53.2238L32.7719 53.243L32.9157 53.2239C33.5033 57.6495 35.3256 62.5788 37.397 66.8653C39.4687 71.1523 41.7813 74.7794 43.3384 76.602Z" fill="#FF6600" stroke="#FF6600" stroke-width="0.338979"/>
<path d="M94.5128 88.8888L94.5127 88.8886C94.2233 88.2782 93.4682 88.033 92.837 88.3166C92.2016 88.6016 91.8988 89.3251 92.1898 89.939M94.5128 88.8888L92.3429 89.8664M94.5128 88.8888C99.8182 100.106 111.385 110.485 122.566 116.829M94.5128 88.8888L122.482 116.976M92.1898 89.939L92.3429 89.8664M92.1898 89.939C92.1898 89.939 92.1898 89.9389 92.1897 89.9389L92.3429 89.8664M92.1898 89.939C97.7005 101.588 109.656 112.368 121.225 118.93C121.819 119.267 122.598 119.073 122.97 118.5C123.347 117.921 123.166 117.169 122.566 116.829M92.3429 89.8664C97.8338 101.474 109.759 112.231 121.308 118.782C121.824 119.075 122.504 118.906 122.828 118.408C123.152 117.91 122.997 117.268 122.482 116.976M122.566 116.829C122.566 116.829 122.566 116.829 122.566 116.829L122.482 116.976M122.566 116.829L122.482 116.976" fill="#FF6600" stroke="#FF6600" stroke-width="0.338979"/>
<path d="M86.7801 125.076C86.173 125.408 85.3965 125.227 85.0556 124.641C84.7101 124.052 84.9474 123.309 85.558 122.974L85.5581 122.974C95.6857 117.432 110.752 114.218 121.859 116.835C122.535 116.993 122.941 117.656 122.751 118.314L122.751 118.315C122.559 118.967 121.859 119.356 121.189 119.197L121.228 119.032L121.189 119.197C110.687 116.722 96.3961 119.814 86.7801 125.076ZM86.7801 125.076L86.6987 124.927L86.78 125.076C86.7801 125.076 86.7801 125.076 86.7801 125.076Z" fill="#FF6600" stroke="#FF6600" stroke-width="0.338979"/>
</svg>
