<svg width="15" height="14" viewBox="0 0 15 14" fill="none" xmlns="http://www.w3.org/2000/svg">
<path id="Vector" fill-rule="evenodd" clip-rule="evenodd" d="M7.5001 0.0526123C7.66761 0.0526123 7.82825 0.119153 7.9467 0.237597C8.06514 0.356041 8.13168 0.516686 8.13168 0.684191V6.3684H13.8159C13.9834 6.3684 14.144 6.43494 14.2625 6.55339C14.3809 6.67183 14.4475 6.83248 14.4475 6.99998C14.4475 7.16749 14.3809 7.32813 14.2625 7.44657C14.144 7.56502 13.9834 7.63156 13.8159 7.63156H8.13168V13.3158C8.13168 13.4833 8.06514 13.6439 7.9467 13.7624C7.82825 13.8808 7.66761 13.9474 7.5001 13.9474C7.3326 13.9474 7.17195 13.8808 7.05351 13.7624C6.93507 13.6439 6.86852 13.4833 6.86852 13.3158V7.63156H1.18431C1.01681 7.63156 0.856164 7.56502 0.73772 7.44657C0.619275 7.32813 0.552734 7.16749 0.552734 6.99998C0.552734 6.83248 0.619275 6.67183 0.73772 6.55339C0.856164 6.43494 1.01681 6.3684 1.18431 6.3684H6.86852V0.684191C6.86852 0.516686 6.93507 0.356041 7.05351 0.237597C7.17195 0.119153 7.3326 0.0526123 7.5001 0.0526123Z" fill="#0F63FB"/>
</svg>
