<?xml version="1.0" encoding="UTF-8"?>
<svg width="90px" height="90px" viewBox="0 0 90 90" version="1.1" xmlns="http://www.w3.org/2000/svg" xmlns:xlink="http://www.w3.org/1999/xlink">
    <!-- Generator: Sketch 46.2 (44496) - http://www.bohemiancoding.com/sketch -->
    <title>lots_clients</title>
    <desc>Created with Sketch.</desc>
    <defs></defs>
    <g id="Page-1" stroke="none" stroke-width="1" fill="none" fill-rule="evenodd">
        <g id="lots_clients" fill-rule="nonzero">
            <g id="satisfied_clients" transform="translate(7.000000, 8.000000)">
                <path d="M65.0890625,14.083871 C64.728125,14.083871 64.3671875,14.2032258 64.1265625,14.4419355 L53.7796875,21.9612903 L50.771875,18.8580645 C50.4109375,18.5 50.05,18.3806452 49.56875,18.3806452 C49.0875,18.3806452 48.7265625,18.5 48.365625,18.8580645 C47.7640625,19.4548387 47.64375,20.5290323 48.365625,21.2451613 L51.6140625,24.4677419 C52.215625,25.0645161 52.9375,25.4225806 53.7796875,25.4225806 C54.38125,25.4225806 55.103125,25.183871 55.584375,24.8258065 L66.171875,17.1870968 C66.5328125,16.9483871 66.7734375,16.5903226 66.89375,16.1129032 C67.0140625,15.6354839 66.89375,15.2774194 66.653125,14.9193548 C66.0515625,14.3225806 65.5703125,14.083871 65.0890625,14.083871 Z" id="Shape" fill="#24BE00"></path>
                <path d="M73.63125,9.66774194 C70.1421875,3.93870968 63.8859375,0.477419355 57.028125,0.477419355 C53.5390625,0.477419355 50.05,1.43225806 47.0421875,3.22258065 C42.83125,5.72903226 39.8234375,9.66774194 38.5,14.3225806 C38.3796875,14.3225806 38.259375,14.3225806 38.1390625,14.3225806 L34.7703125,13.9645161 C33.446875,13.8451613 32.8453125,14.4419355 32.484375,15.0387097 C31.8828125,15.9935484 32.003125,17.1870968 32.965625,18.6193548 L33.0859375,18.7387097 C33.928125,20.0516129 34.7703125,21.2451613 35.7328125,22.0806452 L35.9734375,22.3193548 C36.09375,22.4387097 36.334375,22.6774194 36.575,22.916129 C37.1765625,23.3935484 37.778125,23.8709677 38.3796875,24.2290323 L38.3796875,24.2290323 C38.8609375,26.1387097 39.5828125,28.0483871 40.665625,29.7193548 C44.1546875,35.4483871 50.4109375,38.9096774 57.26875,38.9096774 C60.7578125,38.9096774 64.246875,37.9548387 67.2546875,36.1645161 C71.70625,33.5387097 74.7140625,29.2419355 76.0375,24.3483871 C77.1203125,19.216129 76.278125,14.083871 73.63125,9.66774194 Z M72.909375,23.5129032 C71.8265625,27.6903226 69.3,31.2709677 65.5703125,33.5387097 C63.04375,35.0903226 60.15625,35.9258065 57.1484375,35.9258065 C51.3734375,35.9258065 46.2,33.0612903 43.1921875,28.1677419 C42.2296875,26.7354839 41.628125,25.0645161 41.2671875,23.3935484 L41.0265625,22.4387097 L40.0640625,21.7225806 C39.4625,21.3645161 38.98125,21.0064516 38.5,20.5290323 C38.3796875,20.4096774 38.1390625,20.2903226 38.01875,20.0516129 L37.778125,19.8129032 C37.05625,19.0967742 36.334375,18.2612903 35.6125,17.0677419 L35.4921875,16.9483871 L37.8984375,17.1870968 C38.259375,17.1870968 38.5,17.1870968 38.6203125,17.3064516 L40.7859375,17.3064516 L41.3875,15.2774194 C42.4703125,11.3387097 45.1171875,7.87741935 48.60625,5.72903226 C51.1328125,4.17741935 54.140625,3.34193548 57.028125,3.34193548 C62.803125,3.34193548 68.096875,6.20645161 70.984375,11.1 C73.2703125,14.9193548 73.9921875,19.3354839 72.909375,23.5129032 Z" id="Shape" fill="#24BE00"></path>
                <path d="M31.6421875,30.316129 C31.6421875,29.9580645 31.521875,29.4806452 31.521875,28.7645161 L31.521875,28.4064516 C31.4015625,27.9290323 31.4015625,27.4516129 31.4015625,27.2129032 C31.28125,25.6612903 30.31875,24.5870968 28.634375,24.1096774 L28.5140625,24.1096774 C27.3109375,23.7516129 26.1078125,23.3935484 24.9046875,23.0354839 C24.784375,23.0354839 24.6640625,22.916129 24.4234375,22.916129 L23.9421875,22.6774194 C23.340625,22.4387097 22.859375,22.3193548 22.61875,22.3193548 L21.65625,22.0806452 L16.121875,28.1677419 L10.5875,22.0806452 L9.7453125,22.2 C9.5046875,22.3193548 9.0234375,22.4387097 8.421875,22.6774194 L7.940625,22.7967742 C7.7,22.7967742 7.5796875,22.916129 7.459375,22.916129 C6.25625,23.2741935 5.053125,23.6322581 3.85,23.9903226 L3.7296875,23.9903226 C2.0453125,24.4677419 1.0828125,25.6612903 0.9625,27.0935484 C0.9625,27.3322581 0.9625,27.8096774 0.8421875,28.2870968 L0.8421875,28.6451613 C0.721875,29.4806452 0.721875,29.9580645 0.721875,30.1967742 C0.6015625,34.1354839 0.6015625,38.4322581 0.721875,43.4451613 C0.721875,44.6387097 0.9625,45.7129032 1.5640625,46.7870968 C2.0453125,47.7419355 2.7671875,48.816129 3.7296875,49.7709677 C3.7296875,49.7709677 3.7296875,49.8903226 3.85,49.8903226 L3.85,50.8451613 C3.9703125,53.1129032 4.2109375,62.7806452 4.2109375,64.3322581 C4.2109375,67.1967742 5.534375,69.8225806 7.8203125,71.4935484 C9.625,72.8064516 11.790625,73.4032258 14.3171875,73.4032258 L16.3625,73.4032258 L18.4078125,73.4032258 C20.8140625,73.4032258 23.1,72.6870968 24.9046875,71.4935484 C27.190625,69.8225806 28.5140625,67.316129 28.5140625,64.3322581 C28.5140625,62.7806452 28.7546875,53.1129032 28.875,50.8451613 L28.875,49.8903226 L28.9953125,49.6516129 C29.9578125,48.6967742 30.6796875,47.6225806 31.040625,46.6677419 C31.521875,45.5935484 31.7625,44.5193548 31.8828125,43.3258065 C31.7625,38.5516129 31.7625,34.1354839 31.6421875,30.316129 Z M28.7546875,43.4451613 C28.7546875,44.1612903 28.5140625,44.8774194 28.2734375,45.5935484 C27.9125,46.3096774 27.43125,47.1451613 26.5890625,47.8612903 L26.46875,47.9806452 C26.3484375,48.2193548 26.228125,48.3387097 25.9875,48.5774194 L25.746875,48.9354839 L25.6265625,50.8451613 C25.50625,53.1129032 25.265625,62.9 25.265625,64.4516129 C25.265625,66.3612903 24.4234375,68.0322581 22.9796875,69.1064516 C21.7765625,69.9419355 20.0921875,70.4193548 18.2875,70.4193548 L16.2421875,70.4193548 L14.196875,70.4193548 C12.3921875,70.4193548 10.7078125,69.9419355 9.5046875,69.1064516 C7.940625,68.0322581 7.21875,66.3612903 7.21875,64.3322581 C7.21875,62.7806452 6.978125,52.9935484 6.8578125,50.7258065 L6.496875,48.9354839 L6.25625,48.5774194 C6.1359375,48.4580645 6.015625,48.2193548 5.8953125,48.1 L5.775,47.9806452 L5.775,47.9806452 C5.053125,47.1451613 4.4515625,46.4290323 4.090625,45.7129032 C3.85,44.8774194 3.609375,44.1612903 3.609375,43.4451613 C3.4890625,38.4322581 3.4890625,34.2548387 3.609375,30.316129 C3.609375,30.1967742 3.7296875,29.4806452 3.7296875,29.1225806 L3.7296875,28.7645161 C3.85,28.1677419 3.85,27.5709677 3.85,27.3322581 C3.85,27.0935484 4.2109375,26.9741935 4.4515625,26.9741935 L4.571875,26.9741935 C5.775,26.616129 6.978125,26.2580645 8.3015625,25.9 C8.421875,25.9 8.421875,25.7806452 8.5421875,25.7806452 L9.14375,25.5419355 C9.2640625,25.5419355 9.384375,25.5419355 9.384375,25.4225806 L14.3171875,30.9129032 C14.678125,31.3903226 15.159375,31.6290323 15.7609375,31.7483871 L15.88125,31.7483871 L16.0015625,31.7483871 C16.603125,31.7483871 17.2046875,31.3903226 17.4453125,30.9129032 L22.378125,25.4225806 C22.4984375,25.4225806 22.4984375,25.4225806 22.61875,25.5419355 L23.340625,25.7806452 C23.4609375,25.7806452 23.58125,25.9 23.7015625,25.9 C24.9046875,26.2580645 26.1078125,26.616129 27.3109375,26.9741935 L27.5515625,26.9741935 C27.7921875,27.0935484 28.153125,27.2129032 28.153125,27.3322581 C28.153125,27.5709677 28.2734375,28.1677419 28.2734375,28.7645161 L28.2734375,29.1225806 C28.2734375,29.6 28.39375,30.1967742 28.39375,30.316129 L28.39375,30.316129 C28.7546875,34.1354839 28.7546875,38.4322581 28.7546875,43.4451613 Z" id="Shape" fill="#446AAB"></path>
                <path d="M16.121875,19.3354839 C16.121875,19.3354839 16.2421875,19.3354839 16.2421875,19.3354839 C18.4078125,19.3354839 20.69375,18.3806452 22.378125,16.7096774 C24.1828125,15.0387097 25.1453125,12.6516129 25.265625,10.383871 C25.265625,7.99677419 24.303125,5.8483871 22.61875,4.05806452 C20.934375,2.26774194 18.6484375,1.31290323 16.2421875,1.31290323 C16.2421875,1.31290323 16.2421875,1.31290323 16.121875,1.31290323 C11.309375,1.31290323 7.21875,5.2516129 7.0984375,10.1451613 C6.978125,14.9193548 11.1890625,19.216129 16.121875,19.3354839 Z M16.2421875,4.29677419 C16.2421875,4.29677419 16.2421875,4.29677419 16.2421875,4.29677419 C17.80625,4.29677419 19.3703125,5.01290323 20.453125,6.08709677 C21.65625,7.28064516 22.2578125,8.71290323 22.2578125,10.2645161 C22.2578125,11.816129 21.5359375,13.3677419 20.3328125,14.4419355 C19.1296875,15.6354839 17.565625,16.2322581 16.121875,16.2322581 L16.121875,16.2322581 C12.99375,16.2322581 10.10625,13.2483871 10.10625,10.1451613 C10.2265625,7.04193548 12.99375,4.29677419 16.2421875,4.29677419 Z" id="Shape" fill="#446AAB"></path>
            </g>
        </g>
    </g>
</svg>