<svg width="26" height="26" viewBox="0 0 26 26" fill="none" xmlns="http://www.w3.org/2000/svg">
<path fill-rule="evenodd" clip-rule="evenodd" d="M12.8 0C16.219 0 19.4333 1.33145 21.851 3.749C24.2686 6.16665 25.6 9.381 25.6 12.8C25.6 16.219 24.2686 19.4333 21.851 21.851C19.4333 24.2686 16.219 25.6 12.8 25.6C9.38095 25.6 6.1666 24.2686 3.749 21.851C1.3314 19.4333 0 16.219 0 12.8C0 9.381 1.3314 6.1666 3.749 3.749C6.16655 1.33145 9.38095 0 12.8 0ZM1.5 12.8C1.5 19.0308 6.56915 24.1 12.8 24.1C19.0308 24.1 24.1 19.0308 24.1 12.8C24.1 6.56915 19.0308 1.5 12.8 1.5C6.56915 1.5 1.5 6.56915 1.5 12.8Z" fill="#084C8D"/>
<path d="M18.9152 8.69295C18.6223 8.40015 18.1474 8.40015 17.8546 8.693L11.2316 15.3159L7.74529 11.8296C7.45244 11.5367 6.97754 11.5367 6.68464 11.8296C6.39174 12.1224 6.39174 12.5973 6.68464 12.8902L10.7013 16.9069C10.8477 17.0533 11.0397 17.1265 11.2316 17.1265C11.4235 17.1265 11.6155 17.0533 11.7619 16.9069L18.9152 9.7536C19.2081 9.46075 19.2081 8.98585 18.9152 8.69295Z" fill="#084C8D"/>
</svg>
