<svg width="85" height="85" viewBox="0 0 85 85" fill="none" xmlns="http://www.w3.org/2000/svg">
<path d="M49.359 57.984C45.547 57.984 42.45 56.423 42.45 54.5C42.45 52.574 45.547 51.016 49.359 51.016C52.597 51.016 55.314 52.137 56.066 53.653" stroke="#084C8D" stroke-width="2.5" stroke-miterlimit="10"/>
<path d="M49.359 57.992C53.177 57.992 56.271 59.553 56.271 61.476C56.271 63.399 53.177 64.96 49.359 64.96C45.951 64.96 43.113 63.714 42.55 62.075" stroke="#084C8D" stroke-width="2.5" stroke-miterlimit="10"/>
<path d="M49.457 47.121V68.898" stroke="#084C8D" stroke-width="2.5" stroke-miterlimit="10"/>
<path d="M28.805 20.235C31.9834 20.235 34.56 17.6584 34.56 14.48C34.56 11.3016 31.9834 8.72501 28.805 8.72501C25.6266 8.72501 23.05 11.3016 23.05 14.48C23.05 17.6584 25.6266 20.235 28.805 20.235Z" stroke="#084C8D" stroke-width="2.5" stroke-miterlimit="10"/>
<path d="M39.25 38.439L38.354 29.549C38.131 27.326 36.119 25.507 33.885 25.507H23.724C21.49 25.507 19.478 27.326 19.255 29.549L17.528 46.687C17.305 48.91 19.829 50.675 21.945 51.437L22.491 73.958" stroke="#084C8D" stroke-width="2.5" stroke-miterlimit="10" stroke-linecap="round" stroke-linejoin="round"/>
<path d="M66.236 58.152C66.236 67.472 58.681 75.025 49.359 75.025C40.038 75.025 32.485 67.472 32.485 58.152C32.485 48.83 40.038 41.275 49.359 41.275C58.682 41.275 66.236 48.83 66.236 58.152Z" stroke="#084C8D" stroke-width="2.5" stroke-miterlimit="10" stroke-linecap="round" stroke-linejoin="round"/>
</svg>
