<svg width="115" height="114" viewBox="0 0 115 114" fill="none" xmlns="http://www.w3.org/2000/svg">
<path d="M79.2336 32.0942H80.6136C82.846 32.0942 84.6724 33.9062 84.6724 36.1178V94.4697C84.6724 96.6826 82.846 98.4932 80.6136 98.4932H34.3877C32.1553 98.4932 30.3289 96.6826 30.3289 94.4697V36.1178C30.3289 33.9062 32.1553 32.0942 34.3877 32.0942H35.6838" stroke="#084C8D" stroke-width="2.5" stroke-miterlimit="10" stroke-linejoin="round"/>
<path d="M38.8483 41.3887H76.1529" stroke="#084C8D" stroke-width="2.5" stroke-miterlimit="10" stroke-linecap="round"/>
<path d="M72.7922 41.2116V15.5066H51.3278L42.209 23.6744V41.2116" stroke="#084C8D" stroke-width="2.5" stroke-miterlimit="10"/>
<path d="M53.9132 15.7358V27.2056H48.0455" stroke="#084C8D" stroke-width="2.5" stroke-miterlimit="10"/>
<path d="M72.7206 50.9792H42.2794V59.3603H72.7206V50.9792Z" stroke="#084C8D" stroke-width="2.5" stroke-miterlimit="10"/>
<path d="M39.9117 70.2722H48.0294" stroke="#084C8D" stroke-width="2.5" stroke-miterlimit="10"/>
<path d="M53.4412 70.2722H61.5588" stroke="#084C8D" stroke-width="2.5" stroke-miterlimit="10"/>
<path d="M66.9706 70.2722H75.0882" stroke="#084C8D" stroke-width="2.5" stroke-miterlimit="10"/>
<path d="M39.9117 79.6685H48.0294" stroke="#084C8D" stroke-width="2.5" stroke-miterlimit="10"/>
<path d="M53.4412 79.6685H61.5588" stroke="#084C8D" stroke-width="2.5" stroke-miterlimit="10"/>
<path d="M66.9706 79.6685H75.0882" stroke="#084C8D" stroke-width="2.5" stroke-miterlimit="10"/>
<path d="M39.9117 89.0649H48.0294" stroke="#084C8D" stroke-width="2.5" stroke-miterlimit="10"/>
<path d="M53.4412 89.0649H61.5588" stroke="#084C8D" stroke-width="2.5" stroke-miterlimit="10"/>
<path d="M66.9706 89.0649H75.0882" stroke="#084C8D" stroke-width="2.5" stroke-miterlimit="10"/>
</svg>
