<svg width="115" height="115" viewBox="0 0 115 115" fill="none" xmlns="http://www.w3.org/2000/svg">
<path d="M79.2336 32.9868H80.6136C82.846 32.9868 84.6724 34.7987 84.6724 37.0103V95.3623C84.6724 97.5752 82.846 99.3858 80.6136 99.3858H34.3877C32.1553 99.3858 30.3289 97.5752 30.3289 95.3623V37.0103C30.3289 34.7987 32.1553 32.9868 34.3877 32.9868H35.6838" stroke="#084C8D" stroke-width="4" stroke-miterlimit="10" stroke-linecap="round" stroke-linejoin="round"/>
<path d="M38.8483 42.2812H76.1529" stroke="#0F66CD" stroke-width="4" stroke-miterlimit="10" stroke-linecap="round"/>
<path d="M72.7922 42.1042V16.3992H51.3278L42.209 24.5669V42.1042" stroke="#197FFF" stroke-width="4" stroke-miterlimit="10" stroke-linecap="round"/>
<path d="M53.9132 16.6285V28.0982H48.0455" stroke="#197FFF" stroke-width="4" stroke-miterlimit="10" stroke-linecap="round"/>
<path d="M72.7206 51.8719H42.2794V60.253H72.7206V51.8719Z" stroke="#0F66CD" stroke-width="4" stroke-miterlimit="10" stroke-linecap="round"/>
<path d="M39.9117 71.1647H48.0294" stroke="#197FFF" stroke-width="4" stroke-miterlimit="10" stroke-linecap="round"/>
<path d="M53.4412 71.1647H61.5588" stroke="#197FFF" stroke-width="4" stroke-miterlimit="10" stroke-linecap="round"/>
<path d="M66.9706 71.1647H75.0882" stroke="#197FFF" stroke-width="4" stroke-miterlimit="10" stroke-linecap="round"/>
<path d="M39.9117 80.561H48.0294" stroke="#197FFF" stroke-width="4" stroke-miterlimit="10" stroke-linecap="round"/>
<path d="M53.4412 80.561H61.5588" stroke="#197FFF" stroke-width="4" stroke-miterlimit="10" stroke-linecap="round"/>
<path d="M66.9706 80.561H75.0882" stroke="#197FFF" stroke-width="4" stroke-miterlimit="10" stroke-linecap="round"/>
<path d="M39.9117 89.9574H48.0294" stroke="#197FFF" stroke-width="4" stroke-miterlimit="10" stroke-linecap="round"/>
<path d="M53.4412 89.9574H61.5588" stroke="#197FFF" stroke-width="4" stroke-miterlimit="10" stroke-linecap="round"/>
<path d="M66.9706 89.9574H75.0882" stroke="#197FFF" stroke-width="4" stroke-miterlimit="10" stroke-linecap="round"/>
</svg>
