<svg width="115" height="115" viewBox="0 0 115 115" fill="none" xmlns="http://www.w3.org/2000/svg">
<path d="M92.6683 62.8874V96.8733H16.9212V53.8728H64.1172" stroke="#084C8D" stroke-width="2.5" stroke-miterlimit="10"/>
<path d="M27.7447 65.3242H56.1565" stroke="#084C8D" stroke-width="2.5" stroke-miterlimit="10" stroke-linecap="round"/>
<path d="M27.7447 74.7717H56.1565" stroke="#084C8D" stroke-width="2.5" stroke-miterlimit="10" stroke-linecap="round"/>
<path d="M60.4359 86.2664H78.6613" stroke="#084C8D" stroke-width="2.5" stroke-miterlimit="10" stroke-linecap="round"/>
<path d="M71.3311 74.0344L69.28 78.7751" stroke="#084C8D" stroke-width="2.5" stroke-miterlimit="10" stroke-linecap="round"/>
<path d="M69.7604 64.0321C72.1889 47.3936 79.3947 31.8037 90.5564 19.1767C91.5549 18.1552 93.5397 17.8278 94.917 18.4217C95.1551 18.5246 95.3959 18.6301 95.6327 18.7316C97.01 19.3241 98.1383 20.9896 98.0774 22.4156C96.5364 39.1244 90.0897 55.1744 79.7045 68.3209L69.7604 64.0321Z" stroke="#084C8D" stroke-width="2.5" stroke-miterlimit="10" stroke-linejoin="round"/>
<path d="M70.3081 65.0386L69.3043 73.1386L73.3523 74.8826L78.5841 68.5752" stroke="#084C8D" stroke-width="2.5" stroke-miterlimit="10" stroke-linecap="round" stroke-linejoin="round"/>
<path d="M86.2445 24.0027L79.6205 20.6731C79.6205 20.6731 73.3347 29.1614 69.5235 38.2749" stroke="#084C8D" stroke-width="2.5" stroke-miterlimit="10" stroke-linecap="round" stroke-linejoin="round"/>
<path d="M77.9293 38.5278L92.6317 44.8731" stroke="#084C8D" stroke-width="2.5" stroke-miterlimit="10" stroke-linejoin="round"/>
</svg>
