<svg width="25" height="25" viewBox="0 0 25 25" fill="none" xmlns="http://www.w3.org/2000/svg">
<g clip-path="url(#clip0_910_521)">
<path d="M18.9561 0H6.92581C3.61702 0 0.901123 2.71589 0.901123 6.04382V18.0741C0.901123 21.3829 3.61702 24.0988 6.92581 24.0988H18.9561C22.284 24.0988 24.9999 21.3829 24.9999 18.0549V6.04382C24.9999 2.71589 22.284 0 18.9561 0ZM16.1828 12.0494H13.9068V19.5085H11.0379V12.0494H9.50783V8.98922H10.8466V7.68865C10.8466 6.46459 11.4587 4.53286 14.0407 4.53286H16.3932V7.07662H14.7292C14.4615 7.07662 14.0981 7.24876 14.0981 7.84166V8.98922H16.4506L16.1828 12.0494Z" fill="#FFE600"/>
</g>
<defs>
<clipPath id="clip0_910_521">
<rect width="24.0988" height="24.0988" fill="white" transform="translate(0.901123)"/>
</clipPath>
</defs>
</svg>
