<svg width="70" height="70" viewBox="0 0 70 70" fill="none" xmlns="http://www.w3.org/2000/svg">
<path d="M22.2727 31.3629V25.9113L19.5454 25.9084V31.3629H22.2727Z" fill="#6495FB"/>
<path d="M31.7228 57.8516H13.743C12.7791 57.8516 11.9968 57.0641 11.9968 56.0938C11.9968 55.1234 12.7791 54.3359 13.743 54.3359H30.3746C30.0626 53.2027 29.8508 52.0273 29.7495 50.8203H13.743C12.7791 50.8203 11.9968 50.0328 11.9968 49.0625C11.9968 48.0922 12.7791 47.3047 13.743 47.3047H29.7704C29.8868 46.0977 30.1127 44.9223 30.441 43.7891H13.743C12.7791 43.7891 11.9968 43.0016 11.9968 42.0312C11.9968 41.0609 12.7791 40.2734 13.743 40.2734H31.8427C32.8683 38.293 34.2246 36.5117 35.837 35.0059H17.3462C16.3988 35.0059 15.5999 34.2372 15.5999 33.2422V24.4531C15.5999 23.4778 16.3873 22.6953 17.3462 22.6953C18.5502 22.6964 20.8578 22.6985 22.5851 22.7V19.1797C22.5851 18.2094 23.3674 17.4219 24.3313 17.4219H31.3048C32.2688 17.4219 33.0511 18.2094 33.0511 19.1797V24.4473H38.2899C39.2539 24.4473 40.0362 25.2348 40.0362 26.2051V32.0234C43.3516 30.2823 46.9706 29.6219 50.4545 29.907C50.4336 17.6773 50.415 6.76484 50.415 6.75781C50.415 5.7875 49.6326 5 48.6687 5H18.9819V17.3047C18.9819 18.275 18.1996 19.0625 17.2356 19.0625H5V63.2422C5 64.2125 5.78233 65 6.74628 65H37.8569C35.2724 63.1684 33.1547 60.7121 31.7228 57.8516V57.8516Z" fill="#6495FB"/>
<path d="M25.9097 21.3625H29.546V31.3625H25.9097V21.3625Z" fill="#6495FB"/>
<path d="M15.9092 5.90918L5.90918 15.9092H15.9092V5.90918Z" fill="#6495FB"/>
<path d="M33.1816 27.7267H36.818V31.363H33.1816V27.7267Z" fill="#6495FB"/>
<path d="M49.0907 33.1817C40.3185 33.1817 33.1816 40.3185 33.1816 49.0908C33.1816 57.8631 40.3185 64.9999 49.0907 64.9999C57.863 64.9999 64.9998 57.8631 64.9998 49.0908C64.9998 40.3185 57.863 33.1817 49.0907 33.1817ZM50.7888 55.8986V56.0666C50.7888 57.0429 49.9973 57.8343 49.0211 57.8343C48.0449 57.8343 47.2534 57.0429 47.2534 56.0666V56.0367C46.4616 55.848 45.7268 55.5361 45.1445 55.155C44.3274 54.6204 44.0985 53.5249 44.6329 52.7079C45.1674 51.8908 46.2629 51.6619 47.0799 52.1964C47.8034 52.6697 48.9961 52.8495 49.5821 52.5737C49.962 52.3949 50.2559 52.0135 50.2968 51.646C50.3843 50.8633 49.1579 50.4267 48.4258 50.1375C47.3179 49.6999 45.9388 49.1553 45.1383 47.71C43.9983 45.652 44.9949 42.935 47.2534 42.0054V41.9164C47.2534 40.9402 48.0449 40.1487 49.0211 40.1487C49.9876 40.1487 50.7718 40.9248 50.7873 41.8877C51.4236 42.0866 52.0098 42.4047 52.479 42.8376C53.1967 43.4995 53.2418 44.6177 52.5799 45.3354C51.918 46.0532 50.7996 46.0981 50.082 45.4363C49.7913 45.168 48.8951 45.0598 48.5056 45.3213C48.2438 45.4973 48.1411 45.8347 48.2308 45.9966C48.6045 46.6712 50.5627 46.9043 52.0387 48.0546C55.0619 50.4104 54.0155 54.6609 50.7888 55.8986Z" fill="white"/>
</svg>
