<?xml version="1.0" encoding="UTF-8"?>
<svg width="664px" height="395px" viewBox="0 0 664 395" version="1.1" xmlns="http://www.w3.org/2000/svg" xmlns:xlink="http://www.w3.org/1999/xlink">
    <!-- Generator: Sketch 46 (44423) - http://www.bohemiancoding.com/sketch -->
    <title>man + circles</title>
    <desc>Created with Sketch.</desc>
    <defs></defs>
    <g id="Page-1" stroke="none" stroke-width="1" fill="none" fill-rule="evenodd">
        <g id="pms-mobile-2" transform="translate(-43.000000, -937.000000)">
            <g id="man-+-circles" transform="translate(46.000000, 940.000000)">
                <path d="M586.555083,236.555083 L580.555083,236.555083 L580.555083,236.555083 C578.069802,236.555083 576.055083,238.569802 576.055083,241.055083 C576.055083,243.540365 578.069802,245.555083 580.555083,245.555083 L586.555083,245.555083 L586.555083,251.555083 C586.555083,254.040365 588.569802,256.055083 591.055083,256.055083 L591.055083,256.055083 C593.540365,256.055083 595.555083,254.040365 595.555083,251.555083 L595.555083,245.555083 L601.555083,245.555083 C604.040365,245.555083 606.055083,243.540365 606.055083,241.055083 C606.055083,238.569802 604.040365,236.555083 601.555083,236.555083 L595.555083,236.555083 L595.555083,230.555083 L595.555083,230.555083 C595.555083,228.069802 593.540365,226.055083 591.055083,226.055083 L591.055083,226.055083 L591.055083,226.055083 C588.569802,226.055083 586.555083,228.069802 586.555083,230.555083 L586.555083,236.555083 Z" id="Combined-Shape" fill="#EDF2FA" transform="translate(591.055083, 241.055083) rotate(52.000000) translate(-591.055083, -241.055083) "></path>
                <path d="M246.555083,140.555083 L240.555083,140.555083 L240.555083,140.555083 C238.069802,140.555083 236.055083,142.569802 236.055083,145.055083 C236.055083,147.540365 238.069802,149.555083 240.555083,149.555083 L246.555083,149.555083 L246.555083,155.555083 C246.555083,158.040365 248.569802,160.055083 251.055083,160.055083 L251.055083,160.055083 C253.540365,160.055083 255.555083,158.040365 255.555083,155.555083 L255.555083,149.555083 L261.555083,149.555083 C264.040365,149.555083 266.055083,147.540365 266.055083,145.055083 C266.055083,142.569802 264.040365,140.555083 261.555083,140.555083 L255.555083,140.555083 L255.555083,134.555083 L255.555083,134.555083 C255.555083,132.069802 253.540365,130.055083 251.055083,130.055083 L251.055083,130.055083 L251.055083,130.055083 C248.569802,130.055083 246.555083,132.069802 246.555083,134.555083 L246.555083,140.555083 Z" id="Combined-Shape" fill="#EDF2FA" transform="translate(251.055083, 145.055083) rotate(52.000000) translate(-251.055083, -145.055083) "></path>
                <circle id="Oval-6" stroke="#446AAB" stroke-width="6" cx="488" cy="94" r="60"></circle>
                <circle id="Oval-6" stroke="#446AAB" stroke-width="6" fill="#EDF2FA" cx="608" cy="264" r="50"></circle>
                <circle id="Oval-6" stroke="#446AAB" stroke-width="6" fill="#EDF2FA" cx="139" cy="101" r="39"></circle>
                <path d="M354.402997,17.6131357 C340.205516,13.7678248 325.924597,7.78031987 313.104036,0.298080327 C312.423032,-0.099360109 311.577975,-0.099360109 310.897173,0.298080327 C297.706787,7.99527638 284.197564,13.6588524 269.597003,17.6131357 C268.653796,17.8683343 268,18.7158088 268,19.682615 L268,41.6057881 C268,64.1817994 278.536307,79.1255598 287.375446,87.6861678 C296.891356,96.9030007 307.976053,102 312.000605,102 C316.024753,102 327.10945,96.9030007 336.62536,87.6861678 C345.464298,79.125759 356,64.1819986 356,41.6057881 L356,19.6824158 C356,18.7158088 355.346204,17.8683343 354.402997,17.6131357 Z" id="Shape" stroke="#446AAB" stroke-width="6" fill="#24BE00" fill-rule="nonzero"></path>
                <g id="locked-padlock-(1)" transform="translate(296.000000, 28.000000)" fill-rule="nonzero" fill="#FFFFFF">
                    <path d="M30.0838545,16.1536612 L29.2629616,16.1536612 L29.2629616,12.5058297 C29.2629616,5.75888629 23.6237807,0.122777786 16.5754753,0.00246541738 C16.3828892,-0.000821805795 15.9980632,-0.000821805795 15.8055636,0.00246541738 C8.75708514,0.122777786 3.11799075,5.75888629 3.11799075,12.5058297 L3.11799075,16.1536612 L2.29701131,16.1536612 C1.03191532,16.1536612 0,17.3931087 0,18.9238864 L0,37.2199132 C0,38.748965 1.03191532,40 2.29709787,40 L30.0838545,40 C31.3489505,40 32.3809524,38.748965 32.3809524,37.2199132 L32.3809524,18.9238864 C32.3809524,17.3931909 31.3490371,16.1536612 30.0838545,16.1536612 Z M18.7937211,28.053327 L18.7937211,33.5816967 C18.7937211,34.2147337 18.2355243,34.7504689 17.5682675,34.7504689 L14.812858,34.7504689 C14.1455147,34.7504689 13.5873179,34.2147337 13.5873179,33.5816967 L13.5873179,28.053327 C12.940142,27.4484779 12.5633657,26.6121262 12.5633657,25.6869372 C12.5633657,23.9336967 13.9907533,22.4271623 15.8056502,22.3575554 C15.9979766,22.3501591 16.3832354,22.3501591 16.5755619,22.3575554 C18.3904587,22.4271623 19.8178464,23.9336967 19.8178464,25.6869372 C19.8176733,26.6121262 19.4408969,27.4484779 18.7937211,28.053327 Z M23.8523739,16.1536612 L16.5754753,16.1536612 L15.8055636,16.1536612 L8.52866504,16.1536612 L8.52866504,12.5058297 C8.52866504,8.48678844 11.968729,5.16365235 16.1904762,5.16365235 C20.4122234,5.16365235 23.8524605,8.48678844 23.8524605,12.5058297 L23.8524605,16.1536612 L23.8523739,16.1536612 Z" id="Shape"></path>
                </g>
                <path d="M614.480469,273.609375 C614.480469,272.059888 613.988286,270.779302 613.003906,269.767578 C612.019526,268.755854 610.378918,267.844405 608.082031,267.033203 C605.785145,266.222001 603.998704,265.470056 602.722656,264.777344 C598.475239,262.498687 596.351562,259.126324 596.351562,254.660156 C596.351562,251.634099 597.272126,249.145843 599.113281,247.195312 C600.954436,245.244782 603.451807,244.087241 606.605469,243.722656 L606.605469,237.761719 L610.980469,237.761719 L610.980469,243.777344 C614.15236,244.233075 616.604158,245.577463 618.335938,247.810547 C620.067717,250.043631 620.933594,252.946597 620.933594,256.519531 L614.316406,256.519531 C614.316406,254.222645 613.801437,252.413418 612.771484,251.091797 C611.741531,249.770176 610.342457,249.109375 608.574219,249.109375 C606.82421,249.109375 605.457036,249.583329 604.472656,250.53125 C603.488276,251.479171 602.996094,252.837231 602.996094,254.605469 C602.996094,256.191414 603.483719,257.462886 604.458984,258.419922 C605.43425,259.376958 607.08853,260.28385 609.421875,261.140625 C611.75522,261.9974 613.587233,262.790361 614.917969,263.519531 C616.248705,264.248702 617.369787,265.082678 618.28125,266.021484 C619.192713,266.960291 619.894529,268.040358 620.386719,269.261719 C620.878909,270.483079 621.125,271.914054 621.125,273.554688 C621.125,276.635432 620.18165,279.132803 618.294922,281.046875 C616.408194,282.960947 613.778663,284.091144 610.40625,284.4375 L610.40625,289.769531 L606.058594,289.769531 L606.058594,284.464844 C602.449201,284.0638 599.673838,282.769542 597.732422,280.582031 C595.791006,278.39452 594.820312,275.496112 594.820312,271.886719 L601.464844,271.886719 C601.464844,274.183605 602.043614,275.960931 603.201172,277.21875 C604.35873,278.476569 605.994781,279.105469 608.109375,279.105469 C610.18751,279.105469 611.768875,278.604172 612.853516,277.601562 C613.938156,276.598953 614.480469,275.268237 614.480469,273.609375 Z" id="$" fill="#446AAB"></path>
                <text id="$" transform="translate(162.753121, 187.673878) rotate(-35.731146) translate(-162.753121, -187.673878) " font-family="Roboto-Medium, Roboto" font-size="36" font-weight="400" fill="#EDF2FA">
                    <tspan x="152.522653" y="199.673878">$</tspan>
                </text>
                <circle id="Oval-6" stroke="#446AAB" stroke-width="6" fill="#FFFFFF" cx="60" cy="260" r="60"></circle>
                <path d="M242,304 L130,284" id="Line" stroke="#95B0CE" stroke-width="4" stroke-linecap="round" stroke-linejoin="round" stroke-dasharray="6,10"></path>
                <path d="M74,140 L100,190" id="Line" stroke="#95B0CE" stroke-width="4" stroke-linecap="round" stroke-linejoin="round" stroke-dasharray="6,10" transform="translate(87.000000, 165.000000) scale(1, -1) translate(-87.000000, -165.000000) "></path>
                <path d="M540,150 L578,208" id="Line" stroke="#95B0CE" stroke-width="4" stroke-linecap="round" stroke-linejoin="round" stroke-dasharray="6,10" transform="translate(559.000000, 179.000000) scale(-1, -1) translate(-559.000000, -179.000000) "></path>
                <path d="M188,78 L260,68" id="Line" stroke="#95B0CE" stroke-width="4" stroke-linecap="round" stroke-linejoin="round" stroke-dasharray="6,10"></path>
                <path d="M362,78 L418,66" id="Line" stroke="#95B0CE" stroke-width="4" stroke-linecap="round" stroke-linejoin="round" stroke-dasharray="6,10" transform="translate(390.000000, 72.000000) scale(-1, 1) translate(-390.000000, -72.000000) "></path>
                <path d="M260,244 L176,144" id="Line" stroke="#95B0CE" stroke-width="4" stroke-linecap="round" stroke-linejoin="round" stroke-dasharray="6,10"></path>
                <path d="M312,154 L312,114" id="Line" stroke="#95B0CE" stroke-width="4" stroke-linecap="round" stroke-linejoin="round" stroke-dasharray="6,10"></path>
                <g id="museum-(1)" transform="translate(24.000000, 228.000000)" fill-rule="nonzero" fill="#446AAB">
                    <path d="M39.6232192,20.2127219 L41.6674757,20.2127219 C42.4705765,20.2127219 43.1276589,19.5736686 43.1276589,18.7926036 C43.1276589,18.0115385 42.4705765,17.3724852 41.6674757,17.3724852 L39.6232192,17.3724852 C38.8201184,17.3724852 38.1630359,18.0115385 38.1630359,18.7926036 C38.1630359,19.5736686 38.8201184,20.2127219 39.6232192,20.2127219 Z" id="Shape"></path>
                    <path d="M72.2376513,54.9346154 L70.4124223,50.6032544 C69.828349,49.3251479 68.5141841,48.4730769 67.0540009,48.4730769 L65.4477993,48.4730769 L65.4477993,20.2127219 L68.5871933,20.2127219 C69.9743673,20.2127219 71.1425139,19.289645 71.4345506,18.0115385 C71.7265872,16.733432 71.0695048,15.3843195 69.828349,14.8162722 L39.4565379,0.828106509 C37.5582997,-0.0949704142 35.2950157,-0.0949704142 33.2507592,0.828106509 L2.7329297,14.8162722 C1.49177396,15.3843195 0.834691505,16.662426 1.12672815,18.0115385 C1.4187648,19.3606509 2.58691138,20.2837278 3.97408544,20.2837278 L7.04047022,20.2837278 L7.04047022,48.5440828 L5.72630532,48.5440828 C4.26612209,48.5440828 2.95195718,49.3961538 2.36788389,50.6742604 L0.542654859,54.9346154 C0.104599891,56.0707101 0.250618214,57.2778107 0.907700666,58.2718935 C1.56478312,59.2659763 2.7329297,59.8340237 3.90107628,59.8340237 L68.8792299,59.8340237 C70.0473765,59.8340237 71.2155231,59.2659763 71.8726055,58.2718935 C72.6026971,57.3488166 72.7487155,56.0707101 72.2376513,54.9346154 Z M4.04709461,17.3724852 L34.4919149,3.38431953 C35.7330706,2.81627219 37.0472355,2.81627219 38.2153821,3.38431953 L68.6602024,17.3724852 L63.9876161,17.3724852 C63.1845153,17.3724852 62.5274329,18.0115385 62.5274329,18.7926036 C62.5274329,18.9346154 62.5274329,19.0056213 62.600442,19.0766272 C62.600442,19.1476331 62.5274329,19.289645 62.5274329,19.3606509 L62.5274329,48.4730769 L56.6867,48.4730769 L56.6867,28.733432 C56.6867,25.6091716 54.0583702,23.0529586 50.8459671,23.0529586 C47.633564,23.0529586 45.0052341,25.6091716 45.0052341,28.733432 L45.0052341,48.5440828 L42.0848677,48.5440828 L42.0848677,28.733432 C42.0848677,25.6091716 39.4565379,23.0529586 36.2441348,23.0529586 C33.0317317,23.0529586 30.4034019,25.6091716 30.4034019,28.733432 L30.4034019,48.5440828 L27.4830354,48.5440828 L27.4830354,28.733432 C27.4830354,25.6091716 24.8547056,23.0529586 21.6423025,23.0529586 C18.4298994,23.0529586 15.8015696,25.6091716 15.8015696,28.733432 L15.8015696,48.5440828 L9.96083668,48.5440828 L9.96083668,20.2127219 L38.5074188,20.2127219 C39.3105196,20.2127219 39.967602,19.5736686 39.967602,18.7926036 C39.967602,18.0115385 39.3105196,17.3724852 38.5074188,17.3724852 L4.04709461,17.3724852 L4.04709461,17.3724852 Z M53.7663335,28.733432 L53.7663335,48.5440828 L47.9256006,48.5440828 L47.9256006,28.733432 C47.9256006,27.1713018 49.2397655,25.8931953 50.8459671,25.8931953 C52.4521686,25.8931953 53.7663335,27.1713018 53.7663335,28.733432 Z M39.1645012,28.733432 L39.1645012,48.5440828 L33.3237683,48.5440828 L33.3237683,28.733432 C33.3237683,27.1713018 34.6379332,25.8931953 36.2441348,25.8931953 C37.8503363,25.8931953 39.1645012,27.1713018 39.1645012,28.733432 Z M24.562669,28.733432 L24.562669,48.5440828 L18.721936,48.5440828 L18.721936,28.733432 C18.721936,27.1713018 20.0361009,25.8931953 21.6423025,25.8931953 C23.248504,25.8931953 24.562669,27.1713018 24.562669,28.733432 Z M69.4633032,56.7097633 C69.390294,56.7807692 69.1712666,57.0647929 68.8792299,57.0647929 L3.90107628,57.0647929 C3.53603048,57.0647929 3.39001215,56.8517751 3.31700299,56.7097633 C3.24399383,56.6387574 3.09797551,56.3547337 3.24399383,55.9997041 L5.06922286,51.810355 C5.21524119,51.5263314 5.50727783,51.3843195 5.79931448,51.3843195 L67.12701,51.3843195 C67.4190467,51.3843195 67.7110833,51.5263314 67.8571017,51.810355 L69.6823307,56.0707101 C69.6823307,56.3547337 69.5363124,56.6387574 69.4633032,56.7097633 Z" id="Shape" stroke="#446AAB"></path>
                </g>
                <path d="M386,212 L446,156" id="Line" stroke="#95B0CE" stroke-width="4" stroke-linecap="round" stroke-linejoin="round" stroke-dasharray="6,10"></path>
                <path d="M466,312 L556,290" id="Line" stroke="#95B0CE" stroke-width="4" stroke-linecap="round" stroke-linejoin="round" stroke-dasharray="6,10"></path>
                <g id="credit-card" transform="translate(452.000000, 72.000000)">
                    <rect id="Rectangle-10" stroke="#446AAB" stroke-width="5" x="2.5" y="2.5" width="69" height="39" rx="4.32"></rect>
                    <rect id="Rectangle-12" fill="#446AAB" x="1.45098039" y="14.6666667" width="60.9411765" height="4" rx="2"></rect>
                    <rect id="Rectangle-12" fill="#446AAB" x="8.70588235" y="27.8666667" width="14.5098039" height="4" rx="2"></rect>
                    <rect id="Rectangle-13" stroke="#446AAB" stroke-width="4" x="42.4313725" y="24.9333333" width="18.8627451" height="8.8" rx="2.88"></rect>
                </g>
                <rect id="Rectangle-16" fill="#FFFFFF" x="266" y="332" width="154" height="60"></rect>
                <polygon id="Path-4" fill="#EDF2FA" points="262 286 262 332 266 342 272 344 310 344 310 330 318 328 326 330 330 342 330 344 354 344 354 324 350 322 338 322 332 318 326 314 326 310 326 296 326 294 316 296 302 290 294 286 290 282 286 278 284 276 274 280 268 282"></polygon>
                <g id="student" transform="translate(126.000000, 170.000000)" fill-rule="nonzero">
                    <path d="M326,140.65205 L326,78.8260418 C326,71.368569 319.981602,65.3016904 312.584609,65.3016904 L228.55693,65.3016904 L228.55693,63.7130711 C228.55693,61.6271799 227.825,59.712 226.60857,58.2101423 C227.511031,57.0967029 228.140563,55.7631464 228.409906,54.3179247 C231.828898,52.2858577 234.008352,48.5639498 234.008352,44.4781255 C234.008352,42.5484854 233.515484,40.6626276 232.591906,38.9824268 C233.515086,37.3022259 234.008352,35.4167699 234.008352,33.486728 C234.008352,29.4177741 231.846031,25.7288033 228.49318,23.6955314 C228.535813,23.2970711 228.55693,22.8970042 228.55693,22.4953305 C228.55693,16.7076151 224.280102,11.9076151 218.745008,11.1392134 C216.724133,7.71574895 213.045359,5.53626778 209.008391,5.53626778 C208.490023,5.53626778 207.966477,5.57643515 207.442133,5.65676987 C205.187375,3.81630126 202.37082,2.78841841 199.468602,2.78841841 C195.874695,1.02748117 192.956938,0.0405690377 189.929211,0.0405690377 C186.901484,0.0405690377 183.983727,1.02748117 181.559234,2.84746444 C177.479633,2.78841841 174.708102,3.77533054 172.457328,5.59250209 C168.867008,5.95360669 165.671539,8.03467782 163.839125,11.1396151 C158.304031,11.9076151 154.027203,16.7076151 154.027203,22.4953305 C154.027203,22.8966025 154.04832,23.2970711 154.090953,23.6955314 C150.7385,25.7288033 148.575781,29.4177741 148.575781,33.486728 C148.575781,35.4167699 149.068648,37.3022259 149.992227,38.9824268 C149.068648,40.6626276 148.575781,42.5484854 148.575781,44.4781255 C148.575781,48.5639498 150.754836,52.2858577 154.174625,54.3179247 C154.324836,55.1244854 154.590594,55.8948954 154.949984,56.6130879 C152.745828,58.194477 151.301492,60.7840669 151.301492,63.7126695 L151.301492,69.2083682 C151.301492,74.0139916 155.179484,77.9242845 159.947187,77.9242845 L161.36682,77.9242845 L161.599109,79.3871799 C162.137398,82.7797155 163.875781,85.859749 166.494313,88.0597155 L167.656156,89.0357824 L167.656156,98.1236485 C167.656156,99.128636 167.015469,100.003079 166.062406,100.29831 L142.172094,107.708787 C136.220234,109.55528 132.221117,115.013623 132.221117,121.291782 L132.221117,161.26072 C132.221117,165.232067 133.586164,168.886494 135.862836,171.779749 L8,171.82072 C4.359875,171.82072 1.3986875,174.805958 1.3986875,178.475649 L1.3986875,185.345071 C1.3986875,189.014762 4.359875,192 8,192 L408,192.17928 C411.640125,192.17928 414.601312,189.194042 414.601312,185.524351 L414.601312,178.654929 C414.601312,174.985238 411.640125,172 408,172 L284.717094,171.779749 L282.388625,154.176402 L312.584609,154.176402 C319.981602,154.176402 326,148.109523 326,140.65205 Z M159.946391,71.484251 C158.70207,71.484251 157.689242,70.4635983 157.689242,69.2087699 L157.689242,63.7130711 C157.689242,62.8816067 158.13868,62.1606025 158.800883,61.7633473 L160.344031,71.484251 L159.946391,71.484251 Z M160.417742,52.817272 C160.430492,52.7196653 160.442445,52.6224603 160.451211,52.5236485 C160.583891,51.0519163 159.705336,49.6777908 158.321164,49.191364 C156.313039,48.4860251 154.96393,46.5921339 154.96393,44.4785272 C154.96393,42.9212385 155.671555,41.8025774 156.264828,41.1382092 C157.358937,39.9131046 157.358937,38.0525523 156.26443,36.8274477 C155.670758,36.1630795 154.963531,35.0444184 154.963531,33.4871297 C154.963531,31.2433808 156.480781,29.2623264 158.653859,28.6694561 C159.534406,28.4288536 160.271516,27.8207197 160.677922,26.9972887 C161.085125,26.1742594 161.123375,25.2146611 160.783508,24.3611046 C160.538469,23.747749 160.414555,23.1199331 160.414555,22.4961339 C160.414555,19.7655565 162.586836,17.5366695 165.28107,17.4740084 C165.416937,17.4924854 165.553602,17.507749 165.692656,17.5161841 C167.123047,17.5989289 168.429125,16.7220753 168.899281,15.361205 C169.587383,13.3697071 171.416211,12.0216904 173.471352,11.9779079 C173.533109,11.9823264 173.595266,11.9851381 173.65782,11.9859414 C174.521234,11.9963849 175.339625,11.6694226 175.950828,11.0649038 C177.148531,9.88076987 178.72475,9.22845188 180.388625,9.22845188 C180.819336,9.22845188 181.275945,9.28468619 181.784352,9.39996653 C182.816703,9.63414226 183.899258,9.33730544 184.671828,8.60625941 C186.120148,7.23615063 187.986828,6.48140586 189.928812,6.48140586 C191.870797,6.48140586 193.737477,7.23615063 195.185398,8.60666109 C195.95757,9.33770711 197.039727,9.63494561 198.072875,9.4003682 C198.581281,9.28468619 199.037891,9.22885356 199.468602,9.22885356 C201.252406,9.22885356 202.913492,9.98319665 204.145859,11.3525021 C204.999312,12.3008536 206.328898,12.6491046 207.53218,12.2402008 C208.054133,12.0630628 208.537437,11.9767029 209.008789,11.9767029 C211.105367,11.9767029 212.984398,13.3367699 213.684055,15.3608033 C214.154211,16.721272 215.461484,17.6017406 216.89068,17.5157824 C217.020969,17.5081506 217.149266,17.4936904 217.301469,17.4736067 C219.995703,17.5358661 222.168383,19.7651548 222.168383,22.4957322 C222.168383,23.1195314 222.044469,23.7473473 221.799828,24.3603013 C221.459562,25.2138577 221.497812,26.1734561 221.905016,26.996887 C222.312219,27.820318 223.04893,28.4288536 223.929875,28.6690544 C226.102156,29.2619247 227.619805,31.2429791 227.619805,33.486728 C227.619805,35.0440167 226.91218,36.1626778 226.318906,36.827046 C225.224398,38.051749 225.224398,39.9127029 226.318906,41.1378075 C226.912578,41.8021757 227.619805,42.9208368 227.619805,44.4781255 C227.619805,46.5917322 226.270695,48.4860251 224.26257,49.1909623 C222.878398,49.6773891 221.999844,51.0515146 222.132523,52.5232469 C222.141289,52.6220586 222.153242,52.7200669 222.166789,52.8176736 C222.124555,53.7953473 221.445617,54.6432803 220.486578,54.9003515 C220.38418,54.9276653 217.329359,54.9971548 217.329359,54.9971548 L215.492562,43.8868619 C215.220828,42.2436151 213.747406,41.0807699 212.103453,41.2052887 C211.955234,41.2165356 211.810203,41.2346109 211.664375,41.2546946 L211.645648,41.2571046 C210.008867,41.2277824 208.494805,40.3894895 207.581984,39.0013054 C206.989906,38.1019582 205.991023,37.5609038 204.920023,37.5609038 C203.849422,37.5609038 202.849742,38.1019582 202.258062,39.0009038 C201.328508,40.4139916 199.776594,41.2575063 198.105547,41.2575063 C196.434898,41.2575063 194.882984,40.4139916 193.953031,39.0009038 C193.360953,38.1015565 192.36207,37.5605021 191.29107,37.5605021 C190.220469,37.5605021 189.220789,38.1015565 188.629109,39.0005021 C187.699555,40.41359 186.147641,41.2571046 184.476594,41.2571046 C182.805945,41.2571046 181.254031,40.41359 180.324078,39.0005021 C179.732,38.1011548 178.733117,37.5601004 177.662117,37.5601004 C176.591516,37.5601004 175.591836,38.1011548 175.000156,39.0001004 C174.086937,40.3882845 172.572875,41.2265774 170.936492,41.2558996 L170.917766,41.2534895 C170.772734,41.2334059 170.626508,41.2153305 170.478289,41.2040837 C168.834734,41.0775565 167.361312,42.2428117 167.089578,43.8856569 L165.25318,54.9971548 C165.25318,54.9971548 162.198758,54.9280669 162.096359,54.9007531 C161.138117,54.643682 160.458781,53.7949456 160.417742,52.817272 Z M222.168781,63.7130711 L222.168781,65.3016904 L220.495344,65.3016904 L221.057141,61.7633473 C221.719344,62.1606025 222.168781,62.8816067 222.168781,63.7130711 Z M165.218516,61.43759 L165.65082,61.43759 C168.556227,61.43759 171.011797,59.3400502 171.49032,56.4508117 L172.970117,47.4979079 C174.680211,47.171749 176.282727,46.4539582 177.663313,45.409205 C179.602508,46.8773222 181.980781,47.6983431 184.477391,47.6983431 C186.973602,47.6983431 189.352273,46.8769205 191.291469,45.409205 C193.230664,46.8773222 195.608938,47.6983431 198.105547,47.6983431 C200.601758,47.6983431 202.98043,46.8769205 204.919625,45.409205 C206.299813,46.4543598 207.902727,47.1713473 209.61282,47.4979079 L211.092617,56.4512134 C211.44125,58.56 212.846141,60.2422092 214.708039,60.9997657 L214.025516,65.3016904 L210.371047,65.3016904 C202.973656,65.3016904 196.955656,71.3689707 196.955656,78.8260418 L196.955656,93.11759 C196.380711,93.3437322 195.76632,93.4666444 195.145156,93.4666444 L184.71207,93.4666444 C183.548633,93.4666444 182.415875,93.0533222 181.52218,92.3021925 L170.582281,83.1114979 C169.150297,81.9084854 168.200023,80.2246695 167.905578,78.3693389 L165.218516,61.43759 Z M167.940641,106.453958 C171.591523,105.32164 174.043906,101.97369 174.043906,98.1236485 L174.043906,94.4025439 L177.433016,97.2500084 C179.472617,98.9635481 182.05768,99.9070795 184.712867,99.9070795 L195.145953,99.9070795 C195.75357,99.9070795 196.359195,99.8548619 196.956453,99.7568536 L196.956453,120.476787 C195.082203,120.785272 193.176875,120.945138 191.264375,120.945138 C180.608961,120.945138 170.560367,116.030259 163.944313,107.693925 L167.940641,106.453958 Z M138.609664,121.291381 C138.609664,117.858276 140.796688,114.873439 144.051125,113.863632 L157.457352,109.705506 C165.208953,120.779247 177.828266,127.38477 191.264375,127.38477 C193.172492,127.38477 195.075031,127.249406 196.956453,126.987916 L196.956453,140.65205 C196.956453,148.109523 202.974453,154.176402 210.371844,154.176402 L224.213164,154.176402 L224.213164,171.564854 C224.213164,171.637556 224.219141,171.708251 224.223922,171.779347 L206.751641,171.779347 L206.751641,168.129741 C206.751641,160.672268 200.733242,154.605389 193.33625,154.605389 L159.265063,154.605389 C159.147523,154.605389 159.052297,154.509389 159.052297,154.390895 L159.052297,133.782226 C159.052297,132.004017 157.622305,130.562008 155.858023,130.562008 C154.093742,130.562008 152.66375,132.003615 152.66375,133.782226 L152.66375,154.390895 C152.66375,158.060586 155.624938,161.045824 159.265063,161.045824 L179.920461,161.045824 L179.920461,171.779347 L149.043945,171.779347 C143.290508,171.779347 138.609664,167.060485 138.609664,161.260318 L138.609664,121.291381 Z M200.363094,168.130142 L200.363094,171.779749 L186.309008,171.779749 L186.309008,161.046226 L193.33625,161.046226 C197.210656,161.045824 200.363094,164.223866 200.363094,168.130142 Z M407.787234,177.785506 C407.904773,177.785506 408,177.881506 408,178 L408,184.869423 C408,184.987916 407.904773,185.083916 407.787234,185.083916 L128.601312,185.518192 C128.483773,185.518192 8,186.118494 8,186 L8,179.130577 C8,179.012084 128.483773,178.219782 128.601312,178.219782 L407.787234,177.785506 Z M230.590555,171.779749 C230.595336,171.708653 230.601313,171.637556 230.601313,171.565255 L230.601313,154.176803 L240.567031,154.176803 L238.238563,171.780151 L230.590555,171.780151 L230.590555,171.779749 Z M244.683687,171.779749 L250.227148,129.865506 C250.466211,128.059582 252.008562,126.69831 253.815875,126.69831 L269.140578,126.69831 C270.947492,126.69831 272.490242,128.059582 272.728906,129.865506 L278.272766,171.779749 L244.683687,171.779749 Z M281.920859,147.736368 C281.791766,147.736368 281.665859,147.74641 281.540352,147.761272 L279.060875,129.01436 C278.400664,124.022762 274.135789,120.258276 269.140578,120.258276 L253.815875,120.258276 C248.820664,120.258276 244.555391,124.022762 243.89518,129.01436 L241.415703,147.761272 C241.290992,147.74641 241.164289,147.736368 241.035195,147.736368 L210.371445,147.736368 C206.496641,147.736368 203.344203,144.558326 203.344203,140.65205 L203.344203,78.8260418 C203.344203,74.9197657 206.496641,71.7417238 210.371445,71.7417238 L312.584609,71.7417238 C316.459414,71.7417238 319.611852,74.9197657 319.611852,78.8260418 L319.611852,140.65205 C319.611852,144.558326 316.459414,147.736368 312.584609,147.736368 L281.920859,147.736368 L281.920859,147.736368 Z" id="Shape" fill="#446AAB"></path>
                    <path d="M261.478227,92.7797824 C255.959469,92.7797824 251.469875,97.305841 251.469875,102.869423 C251.469875,108.433004 255.959469,112.959063 261.478227,112.959063 C266.996984,112.959063 271.486578,108.433004 271.486578,102.869423 C271.486578,97.3062427 266.996586,92.7797824 261.478227,92.7797824 Z M261.478227,106.519029 C259.482055,106.519029 257.858023,104.881808 257.858023,102.869423 C257.858023,100.857038 259.482055,99.2198159 261.478227,99.2198159 C263.474398,99.2198159 265.09843,100.857038 265.09843,102.869423 C265.098031,104.881808 263.474398,106.519029 261.478227,106.519029 Z" id="Shape" fill="#24BE00"></path>
                </g>
                <path d="M122.286408,88.1545022 C122.286408,85.6935524 123.088484,83.7065931 124.692658,82.1935647 C126.296833,80.6805363 128.447853,79.9240335 131.145783,79.9240335 C133.880172,79.9240335 136.040307,80.6759791 137.626252,82.1798928 C139.212198,83.6838066 140.005158,85.7208956 140.005158,88.291221 L140.005158,90.259971 C140.005158,92.7209208 139.212198,94.6987656 137.626252,96.1935647 C136.040307,97.6883639 133.898401,98.4357522 131.200471,98.4357522 C128.52077,98.4357522 126.365193,97.6929211 124.733674,96.2072366 C123.102155,94.7215521 122.286408,92.6844631 122.286408,90.0959085 L122.286408,88.1545022 Z M128.220002,90.259971 C128.220002,91.2078924 128.484322,91.978067 129.012971,92.5705178 C129.541619,93.1629687 130.270779,93.4591897 131.200471,93.4591897 C133.114543,93.4591897 134.071565,92.2378478 134.071565,89.7951272 L134.071565,88.1545022 C134.071565,87.2065808 133.816359,86.4272917 133.30594,85.8166116 C132.79552,85.2059315 132.075475,84.900596 131.145783,84.900596 C130.25255,84.900596 129.541619,85.196817 129.012971,85.7892678 C128.484322,86.3817187 128.220002,87.1883513 128.220002,88.2091897 L128.220002,90.259971 Z M141.208283,110.549033 C141.208283,108.069854 142.014916,106.082895 143.628205,104.588096 C145.241495,103.093297 147.387957,102.345908 150.067658,102.345908 C152.783818,102.345908 154.943952,103.084182 156.548127,104.560752 C158.152302,106.037322 158.954377,108.097197 158.954377,110.74044 L158.954377,112.654502 C158.954377,115.133681 158.161416,117.120641 156.575471,118.61544 C154.989525,120.110239 152.838505,120.857627 150.122346,120.857627 C147.442645,120.857627 145.287068,120.114796 143.655549,118.629112 C142.02403,117.143427 141.208283,115.106338 141.208283,112.517783 L141.208283,110.549033 Z M147.114533,112.654502 C147.114533,113.511277 147.406197,114.263223 147.989533,114.910362 C148.57287,115.5575 149.2838,115.881065 150.122346,115.881065 C151.890584,115.881065 152.847606,115.042531 152.99344,113.36544 L153.020783,110.549033 C153.020783,109.582883 152.756463,108.803594 152.227815,108.211143 C151.699166,107.618692 150.979121,107.322471 150.067658,107.322471 C149.192654,107.322471 148.490838,107.600463 147.96219,108.156455 C147.433541,108.712448 147.150992,109.464393 147.114533,110.412315 L147.114533,112.654502 Z M132.950471,117.330283 L128.657502,115.170127 L148.098908,84.0529397 L152.391877,86.213096 L132.950471,117.330283 Z" id="%" fill="#446AAB" transform="translate(140.620393, 100.390830) rotate(15.000000) translate(-140.620393, -100.390830) "></path>
                <text id="%" transform="translate(371.825471, 144.810752) rotate(15.000000) translate(-371.825471, -144.810752) " font-family="Roboto-Black, Roboto" font-size="42" font-weight="700" fill="#EDF2FA">
                    <tspan x="355.825471" y="159.310752">%</tspan>
                </text>
                <circle id="Oval-12" fill="#0B4E8F" cx="309" cy="233" r="3"></circle>
                <circle id="Oval-12" fill="#0B4E8F" cx="327" cy="233" r="3"></circle>
                <circle id="Oval-13" stroke="#EDF2FA" stroke-width="6" cx="26" cy="126" r="10"></circle>
                <circle id="Oval-13" stroke="#EDF2FA" stroke-width="6" cx="418" cy="10" r="6"></circle>
                <circle id="Oval-13" stroke="#EDF2FA" stroke-width="6" cx="516" cy="240" r="10"></circle>
                <circle id="Oval-14" fill="#EDF2FA" cx="458" cy="210" r="8"></circle>
                <circle id="Oval-14" fill="#EDF2FA" cx="170" cy="246" r="8"></circle>
                <circle id="Oval-14" fill="#EDF2FA" cx="202" cy="12" r="8"></circle>
                <circle id="Oval-14" fill="#EDF2FA" cx="614" cy="150" r="6"></circle>
            </g>
        </g>
    </g>
</svg>