<svg width="181" height="57" viewBox="0 0 181 57" fill="none" xmlns="http://www.w3.org/2000/svg">
<path d="M0.861237 7.875C0.861237 4.00901 3.94597 0.875 7.75119 0.875H173.971C177.777 0.875 180.861 4.00901 180.861 7.875V49.875C180.861 53.741 177.777 56.875 173.971 56.875H7.75119C3.94597 56.875 0.861237 53.741 0.861237 49.875V7.875Z" fill="#F8F9FC"/>
<path d="M70.8889 18.6876C70.8889 19.529 70.6429 20.1995 70.151 20.6992C69.5928 21.2934 68.8655 21.5905 67.9691 21.5905C67.557 21.5979 67.1476 21.5219 66.7649 21.3671C66.3821 21.2122 66.0335 20.9816 65.7396 20.6886C65.4456 20.3957 65.2121 20.0462 65.0527 19.6608C64.8933 19.2753 64.8112 18.8615 64.8112 18.4434C64.8112 18.0254 64.8933 17.6116 65.0527 17.2261C65.2121 16.8406 65.4456 16.4912 65.7396 16.1983C66.0335 15.9053 66.3821 15.6747 66.7649 15.5198C67.1476 15.365 67.557 15.289 67.9691 15.2964C68.3882 15.295 68.8032 15.381 69.1883 15.5488C69.5456 15.6964 69.8638 15.9269 70.1172 16.222L69.5954 16.7523C69.2018 16.2754 68.6597 16.037 67.9691 16.037C67.6683 16.0334 67.3699 16.0908 67.0913 16.2057C66.8127 16.3206 66.5595 16.4908 66.3466 16.7063C65.8907 17.1524 65.6627 17.7316 65.6627 18.4439C65.6627 19.1562 65.8907 19.7354 66.3466 20.1816C66.7875 20.6111 67.3751 20.851 67.9864 20.851C68.5977 20.851 69.1854 20.6111 69.6262 20.1816C69.9156 19.8881 70.0796 19.483 70.124 18.9605H67.9671V18.2375H70.8455C70.873 18.3859 70.8876 18.5365 70.8889 18.6876Z" fill="#333333"/>
<path d="M75.4514 16.1723H72.7505V18.0822H75.189V18.8062H72.7505V20.716H75.4514V21.4557H71.9789V15.4316H75.4514V16.1723Z" fill="#333333"/>
<path d="M78.6693 21.4557H77.9054V16.1723H76.2472V15.4316H80.3284V16.1723H78.6693V21.4557Z" fill="#333333"/>
<path d="M83.281 21.4557V15.4316H84.0479V21.4557H83.281Z" fill="#333333"/>
<path d="M87.4298 21.4557H86.6658V16.1723H85.0067V15.4316H89.0889V16.1723H87.4298V21.4557Z" fill="#333333"/>
<path d="M96.8143 20.6783C96.2359 21.262 95.4531 21.5897 94.6372 21.5897C93.8213 21.5897 93.0385 21.262 92.4601 20.6783C91.8982 20.0742 91.5853 19.2751 91.5853 18.4446C91.5853 17.6141 91.8982 16.815 92.4601 16.2109C92.7454 15.9205 93.0844 15.6902 93.4577 15.533C93.8309 15.3758 94.2311 15.2949 94.6353 15.2949C95.0394 15.2949 95.4396 15.3758 95.8128 15.533C96.1861 15.6902 96.5251 15.9205 96.8104 16.2109C97.3735 16.8135 97.6874 17.6123 97.6874 18.4426C97.6874 19.2729 97.3735 20.0717 96.8104 20.6744L96.8143 20.6783ZM93.0234 20.1734C93.4515 20.607 94.0317 20.8505 94.6367 20.8505C95.2417 20.8505 95.8219 20.607 96.25 20.1734C96.6898 19.722 96.9101 19.1458 96.9107 18.4446C96.9114 17.7434 96.6911 17.1668 96.25 16.7147C95.8219 16.2812 95.2417 16.0376 94.6367 16.0376C94.0317 16.0376 93.4515 16.2812 93.0234 16.7147C92.5842 17.1668 92.3643 17.7434 92.3636 18.4446C92.363 19.1458 92.5829 19.722 93.0234 20.1734Z" fill="#333333"/>
<path d="M98.7608 21.4557V15.4316H99.6897L102.576 20.1182H102.609L102.576 18.9568V15.4346H103.34V21.4586H102.543L99.5228 16.5451H99.49L99.5228 17.7064V21.4586L98.7608 21.4557Z" fill="#333333"/>
<path d="M91.3961 30.2433C90.2733 30.232 89.1918 30.6725 88.3885 31.4683C87.9882 31.8834 87.6739 32.3757 87.4641 32.9161C87.2544 33.4564 87.1536 34.034 87.1675 34.6145C87.1814 35.1951 87.3099 35.7669 87.5453 36.2963C87.7807 36.8257 88.1182 37.3019 88.538 37.6968C89.3052 38.3768 90.2838 38.7613 91.3024 38.7831C92.321 38.8049 93.3147 38.4627 94.1095 37.8162C94.5892 37.4156 94.9742 36.911 95.2361 36.3395C95.4981 35.768 95.6303 35.1442 95.623 34.514C95.6315 33.9494 95.5278 33.3888 95.3182 32.8657C95.1086 32.3425 94.7973 31.8675 94.4029 31.469C94.0085 31.0705 93.539 30.7565 93.0224 30.546C92.5058 30.3354 91.9527 30.2324 91.3961 30.2433ZM91.3961 37.1019C90.1209 37.1019 89.0203 36.0345 89.0203 34.514C89.0203 32.977 90.1209 31.9261 91.3961 31.9261C92.6713 31.9261 93.7729 32.977 93.7729 34.514C93.7729 36.0345 92.6723 37.1019 91.3961 37.1019ZM82.1775 30.2433C81.3404 30.2387 80.5201 30.4818 79.8171 30.9428C78.6924 31.6855 77.9507 32.9672 77.9507 34.514C77.9442 35.0821 78.0507 35.6456 78.2638 36.171C78.477 36.6963 78.7923 37.1727 79.1911 37.5716C79.9286 38.2828 80.889 38.7086 81.9046 38.7746C82.9201 38.8406 83.9262 38.5426 84.7472 37.9326C85.2689 37.5351 85.6908 37.0183 85.9785 36.4243C86.2663 35.8303 86.4119 35.1758 86.4034 34.514C86.4098 33.743 86.2119 32.9844 85.8304 32.3175C85.0973 31.0456 83.7334 30.2433 82.1775 30.2433ZM82.1775 37.1019C80.9014 37.1019 79.8007 36.0345 79.8007 34.514C79.8007 32.977 80.9014 31.9261 82.1775 31.9261C83.4537 31.9261 84.5533 32.977 84.5533 34.514C84.5533 36.0345 83.4527 37.1019 82.1775 37.1019ZM71.2101 31.5583V33.3693H75.4842C75.3569 34.3888 75.0221 35.1304 74.5119 35.65C73.8897 36.281 72.9164 36.9767 71.2101 36.9767C68.5787 36.9767 66.5222 34.8242 66.5222 32.1561C66.5222 29.4879 68.5787 27.3364 71.2101 27.3364C72.4101 27.3201 73.5679 27.785 74.4318 28.6299L75.6916 27.3511C74.6238 26.3159 73.2039 25.5234 71.2101 25.5234C70.022 25.5245 68.856 25.8492 67.834 26.4637C65.899 27.6241 64.5785 29.7414 64.5785 32.1551C64.5785 34.6451 65.9839 36.8201 68.0192 37.9541C68.9971 38.5007 70.0955 38.7875 71.212 38.7877C73.1576 38.7877 74.6257 38.141 75.7736 36.9288C76.9533 35.7312 77.3169 34.0493 77.3169 32.6903C77.3212 32.3107 77.2889 31.9315 77.2205 31.5583H71.2081H71.2101ZM116.064 32.9652C115.713 32.0113 114.644 30.2472 112.459 30.2472C111.555 30.2422 110.678 30.5563 109.978 31.1356C109.073 31.887 108.489 33.0709 108.489 34.518C108.489 36.9121 110.274 38.7887 112.666 38.7887C113.359 38.7912 114.042 38.6192 114.653 38.2883C115.264 37.9574 115.785 37.4778 116.169 36.8926L114.734 35.922C114.252 36.6333 113.602 37.1019 112.661 37.1019C111.719 37.1019 111.05 36.6656 110.619 35.8085L116.249 33.4466L116.064 32.9652ZM110.322 34.3888C110.274 32.7392 111.582 31.8978 112.523 31.8978C113.257 31.8978 113.879 32.2696 114.086 32.8038L112.118 33.6276L110.322 34.3888ZM105.745 38.5294H107.596V25.9735H105.745V38.5294ZM102.716 31.2021H102.652C102.237 30.7002 101.439 30.2472 100.433 30.2472C99.4539 30.2612 98.5147 30.6449 97.7991 31.3234C97.3242 31.7603 96.9526 32.3002 96.712 32.903C96.4715 33.5057 96.3681 34.1558 96.4096 34.8047C96.4512 35.4536 96.6365 36.0846 96.9519 36.6508C97.2673 37.2169 97.7046 37.7036 98.2312 38.0745C98.8768 38.5338 99.6448 38.7832 100.433 38.7897C101.438 38.7897 102.235 38.3367 102.652 37.8191H102.716V38.4335C102.716 40.0675 101.854 40.9412 100.467 40.9412C99.3347 40.9412 98.6344 40.1164 98.345 39.4208L96.7342 40.0998C97.1962 41.2318 98.4241 42.6231 100.466 42.6231C102.635 42.6231 104.468 41.3296 104.468 38.1752V30.5026H102.713L102.716 31.2021ZM100.594 37.1058C99.3174 37.1058 98.2496 36.0227 98.2496 34.5346C98.2496 33.0298 99.3174 31.9301 100.594 31.9301C101.853 31.9301 102.842 33.0298 102.842 34.5346C102.84 36.0188 101.851 37.1019 100.592 37.1019L100.594 37.1058ZM124.728 25.9774H120.302V38.5255H122.149V33.7704H124.729C125.314 33.773 125.894 33.6522 126.432 33.4156C126.969 33.1789 127.452 32.8317 127.85 32.3958C128.451 31.7031 128.784 30.8133 128.789 29.8907C128.793 28.9682 128.468 28.0751 127.874 27.3765C127.476 26.9317 126.99 26.577 126.447 26.3352C125.905 26.0935 125.318 25.9703 124.726 25.9735L124.728 25.9774ZM124.776 32.0269H122.149V27.7219H124.777C125.058 27.7191 125.338 27.7725 125.599 27.8791C125.86 27.9858 126.098 28.1435 126.299 28.3434C126.5 28.5433 126.66 28.7814 126.77 29.0441C126.88 29.3068 126.939 29.5889 126.941 29.8744C126.938 30.845 126.154 32.023 124.774 32.023L124.776 32.0269ZM136.191 30.2247C134.853 30.2247 133.468 30.8225 132.895 32.1463L134.535 32.841C134.885 32.1463 135.538 31.9203 136.223 31.9203C137.178 31.9203 138.152 32.5015 138.164 33.5347V33.6638C137.571 33.342 136.908 33.1739 136.235 33.1746C135.485 33.168 134.745 33.3527 134.083 33.7117C133.254 34.1804 132.669 34.9514 132.669 36.0012C132.666 36.4176 132.762 36.8285 132.95 37.199C133.137 37.5696 133.41 37.8887 133.745 38.1293C134.328 38.5484 135.027 38.7699 135.742 38.7623C136.984 38.7623 137.672 38.1968 138.098 37.5354H138.162V38.505H139.945V33.6922C139.945 32.3694 139.366 31.3939 138.455 30.8196C137.831 30.4262 137.049 30.2208 136.189 30.2208L136.191 30.2247ZM135.968 37.1039C135.363 37.1039 134.521 36.7967 134.521 36.0384C134.521 35.0688 135.572 34.698 136.479 34.698C137.291 34.698 137.673 34.8751 138.166 35.1177C138.098 35.6621 137.837 36.1628 137.433 36.5273C137.028 36.8917 136.507 37.0952 135.966 37.1L135.968 37.1039ZM146.444 30.4986L145.567 32.749L144.326 35.9386H144.263L142.065 30.4957H140.075L141.665 34.1647L143.37 38.1009L141.491 42.3325H143.42L147.023 33.9348L148.499 30.4947L146.444 30.4986ZM129.806 38.5294H131.653V25.9735H129.806V38.5294Z" fill="#333333"/>
<path d="M50.5765 23.7512L35.8665 14.9964C35.5249 14.7927 35.121 14.7248 34.7329 14.8058C34.3448 14.8867 34.0001 15.1109 33.7656 15.4348L46.2242 28.1453L50.5765 23.7512Z" fill="url(#paint0_linear_1_937)"/>
<path d="M33.4511 39.8195C33.4491 40.1509 33.5482 40.4749 33.7347 40.747L46.2204 28.1451L33.7617 15.4346C33.5581 15.7129 33.4491 16.0507 33.4511 16.3973V39.8195Z" fill="url(#paint1_linear_1_937)"/>
<path d="M50.4984 32.5097L55.5403 29.5099C55.781 29.3663 55.9805 29.1614 56.1191 28.9156C56.2577 28.6698 56.3306 28.3915 56.3306 28.1083C56.3306 27.8251 56.2577 27.5468 56.1191 27.301C55.9805 27.0552 55.781 26.8503 55.5403 26.7067L50.5765 23.751L46.2243 28.145L50.4984 32.5097Z" fill="url(#paint2_linear_1_937)"/>
<path d="M33.7346 40.7474C33.9653 41.0837 34.3126 41.3193 34.7071 41.4071C35.1016 41.4949 35.5143 41.4284 35.8625 41.221L50.4983 32.5131L46.2204 28.1484L33.7346 40.7474Z" fill="url(#paint3_linear_1_937)"/>
<defs>
<linearGradient id="paint0_linear_1_937" x1="13.8303" y1="-2.85757" x2="44.5184" y2="21.9993" gradientUnits="userSpaceOnUse">
<stop stop-color="#32A071"/>
<stop offset="0.07" stop-color="#2DA771"/>
<stop offset="0.48" stop-color="#15CF74"/>
<stop offset="0.8" stop-color="#06E775"/>
<stop offset="1" stop-color="#00F076"/>
</linearGradient>
<linearGradient id="paint1_linear_1_937" x1="54.923" y1="27.9641" x2="32.2676" y2="28.0953" gradientUnits="userSpaceOnUse">
<stop stop-color="#00A0FF"/>
<stop offset="0.01" stop-color="#00A1FF"/>
<stop offset="0.26" stop-color="#00BEFF"/>
<stop offset="0.51" stop-color="#00D2FF"/>
<stop offset="0.76" stop-color="#00DFFF"/>
<stop offset="1" stop-color="#00E3FF"/>
</linearGradient>
<linearGradient id="paint2_linear_1_937" x1="58.0965" y1="28.7321" x2="37.6426" y2="27.1503" gradientUnits="userSpaceOnUse">
<stop stop-color="#FFE000"/>
<stop offset="0.41" stop-color="#FFBD00"/>
<stop offset="0.78" stop-color="#FFA500"/>
<stop offset="1" stop-color="#FF9C00"/>
</linearGradient>
<linearGradient id="paint3_linear_1_937" x1="55.4332" y1="25.5645" x2="15.7295" y2="51.5492" gradientUnits="userSpaceOnUse">
<stop stop-color="#FF3A44"/>
<stop offset="1" stop-color="#C31162"/>
</linearGradient>
</defs>
</svg>
