<svg width="12" height="12" viewBox="0 0 12 12" fill="none" xmlns="http://www.w3.org/2000/svg">
<rect width="12" height="12" rx="6" fill="#24BE00"/>
<path d="M8.41742 4C8.30387 4 8.19033 4.04211 8.11463 4.12632L4.85964 6.77895L3.91342 5.68421C3.79988 5.55789 3.68633 5.51579 3.53493 5.51579C3.38354 5.51579 3.26999 5.55789 3.15645 5.68421C2.9672 5.89474 2.92935 6.27368 3.15645 6.52632L4.17836 7.66316C4.36761 7.87368 4.5947 8 4.85964 8C5.04888 8 5.27598 7.91579 5.42737 7.78947L8.75806 5.09474C8.8716 5.01053 8.9473 4.88421 8.98515 4.71579C9.023 4.54737 8.98515 4.42105 8.90945 4.29474C8.72021 4.08421 8.56882 4 8.41742 4Z" fill="white"/>
</svg>
