<?xml version="1.0" encoding="utf-8"?>
<!-- Generator: Adobe Illustrator 18.0.0, SVG Export Plug-In . SVG Version: 6.00 Build 0)  -->
<!DOCTYPE svg PUBLIC "-//W3C//DTD SVG 1.1//EN" "http://www.w3.org/Graphics/SVG/1.1/DTD/svg11.dtd">
<svg version="1.1" id="Layer_1" xmlns="http://www.w3.org/2000/svg" xmlns:xlink="http://www.w3.org/1999/xlink" x="0px" y="0px"
	 width="53px" height="53px" viewBox="0 0 53 53" enable-background="new 0 0 53 53" xml:space="preserve">
<circle fill="#0064BC" cx="26" cy="26" r="26"/>
<g>
	<path fill="#FFFFFF" d="M42.8,38.6L35,30.7c1.4-2.2,2.3-4.8,2.3-7.6C37.3,15.3,31,9,23.2,9S9.1,15.3,9.1,23.1s6.3,14.1,14.1,14.1
		c2.8,0,5.5-0.8,7.7-2.3l7.8,7.9c0.1,0.1,0.3,0.2,0.5,0.2s0.4-0.1,0.5-0.2l3.1-3.1c0.1-0.1,0.2-0.3,0.2-0.5S43,38.7,42.8,38.6z
		 M10.6,23.1c0-7,5.7-12.6,12.6-12.6s12.6,5.7,12.6,12.6s-5.7,12.6-12.6,12.6S10.6,30.1,10.6,23.1z M39.2,41.2l-7-7l2.1-2.1l7,7
		L39.2,41.2z"/>
	<path fill="#FFFFFF" d="M33.8,23.9c0.4,0,0.7-0.3,0.7-0.7c0-6.4-5.2-11.6-11.6-11.6c-0.4,0-0.7,0.3-0.7,0.7c0,0.4,0.3,0.7,0.7,0.7
		C28.6,13,33,17.5,33,23.1C33.2,23.6,33.5,23.9,33.8,23.9z"/>
	<path fill="#FFFFFF" d="M22.9,23.4L22.9,23.4c-1.4,0-2.4-0.4-2.7-1c-0.2-0.3-0.1-0.6,0.1-1c0.3-0.5,1.3-1,2.9-0.8
		c0.8,0.1,1.5,0.3,2.4,0.6l0.2,0.1c0.4,0.1,0.8-0.1,0.9-0.5c0.1-0.4-0.1-0.8-0.5-0.9L26,19.8c-0.8-0.3-1.6-0.5-2.4-0.7v-1.8
		c0-0.4-0.3-0.7-0.7-0.7s-0.7,0.3-0.7,0.7V19c-1.4,0.1-2.5,0.6-3.1,1.5c-0.5,0.8-0.6,1.7-0.2,2.5c0.6,1.1,2.1,1.8,4,1.8l0,0
		c1.3,0,2.3,0.4,2.6,1c0.2,0.3,0.1,0.7-0.1,1c-0.3,0.5-1.2,1-2.8,0.8c-0.8-0.1-1.5-0.3-2.4-0.6l-0.1-0.1c-0.4-0.1-0.8,0.1-0.9,0.5
		c-0.1,0.4,0.1,0.8,0.5,0.9l0.2,0.1c0.8,0.3,1.6,0.5,2.3,0.6v1.8c0,0.4,0.3,0.7,0.7,0.7s0.7-0.3,0.7-0.7V29c1.4-0.1,2.5-0.6,3.1-1.4
		c0.5-0.8,0.6-1.7,0.1-2.5C26.2,24,24.8,23.4,22.9,23.4z"/>
</g>
</svg>
