<?xml version="1.0" encoding="utf-8"?>
<!-- Generator: Adobe Illustrator 18.0.0, SVG Export Plug-In . SVG Version: 6.00 Build 0)  -->
<!DOCTYPE svg PUBLIC "-//W3C//DTD SVG 1.1//EN" "http://www.w3.org/Graphics/SVG/1.1/DTD/svg11.dtd">
<svg version="1.1" id="Layer_1" xmlns="http://www.w3.org/2000/svg" xmlns:xlink="http://www.w3.org/1999/xlink" x="0px" y="0px"
	 width="53px" height="53px" viewBox="0 0 53 53" enable-background="new 0 0 53 53" xml:space="preserve">
<circle fill="#0064BC" cx="26" cy="26" r="26"/>
<g>
	<path fill="#FFFFFF" d="M40.9,17.9c0-2.1,0-4.2,0-6.3c0-0.3-0.2-0.6-0.5-0.7c-0.3-0.1-0.6,0-0.8,0.2c-1.2,1.4-3.6,2.3-6.3,2.3
		c-3.1,0-6-1.3-6.7-3.1c-0.2-0.5-1.1-0.5-1.3,0c-0.8,1.8-3.6,3.1-6.7,3.1c-2.6,0-5.1-0.9-6.3-2.3c-0.2-0.2-0.6-0.3-0.8-0.2
		C11.2,11,11,11.3,11,11.6c0,2.1,0,4.2,0,6.3s0,4.2,0,6.3c0,8.2,5.6,15.7,14.7,19.7c0.1,0,0.2,0.1,0.3,0.1c0.1,0,0.2,0,0.3-0.1
		c9.1-4,14.7-11.6,14.7-19.7C40.9,22.1,40.9,20,40.9,17.9z M25.9,42.4c-8.3-3.8-13.5-10.7-13.5-18.2c0-2.1,0-4.2,0-6.3
		c0-1.6,0-3.1,0-4.7c1.6,1.1,3.8,1.7,6.1,1.7c3.2,0,6-1.1,7.4-2.9c1.4,1.8,4.2,2.9,7.4,2.9c2.3,0,4.5-0.6,6.1-1.7c0,1.6,0,3.1,0,4.7
		c0,2.1,0,4.2,0,6.3C39.5,31.7,34.3,38.6,25.9,42.4z"/>
	<path fill="#FFFFFF" d="M33.7,19.8c-0.3-0.2-0.8-0.1-1,0.2l-7.3,11.3l-4.9-5.8c-0.3-0.3-0.7-0.3-1-0.1c-0.3,0.3-0.3,0.7-0.1,1
		l5.5,6.5c0.1,0.2,0.3,0.3,0.5,0.3l0,0c0.2,0,0.4-0.1,0.6-0.3l7.8-12.2C34.1,20.5,34,20,33.7,19.8z"/>
</g>
</svg>
