<?xml version="1.0" encoding="utf-8"?>
<!-- Generator: Adobe Illustrator 18.0.0, SVG Export Plug-In . SVG Version: 6.00 Build 0)  -->
<!DOCTYPE svg PUBLIC "-//W3C//DTD SVG 1.1//EN" "http://www.w3.org/Graphics/SVG/1.1/DTD/svg11.dtd">
<svg version="1.1" id="Layer_1" xmlns="http://www.w3.org/2000/svg" xmlns:xlink="http://www.w3.org/1999/xlink" x="0px" y="0px"
	 width="53px" height="53px" viewBox="0 0 53 53" enable-background="new 0 0 53 53" xml:space="preserve">
<circle fill="#0064BC" cx="26" cy="26" r="26"/>
<g>
	<path fill="#FFFFFF" d="M25.8,28.8C25.8,28.8,25.7,28.8,25.8,28.8c-1.4,0-2.4-0.4-2.7-1c-0.2-0.3-0.1-0.7,0.1-1
		c0.3-0.5,1.3-1,2.8-0.8c0.8,0.1,1.5,0.3,2.4,0.6l0.2,0.1c0.4,0.1,0.8-0.1,0.9-0.5s-0.1-0.8-0.5-0.9l-0.2-0.1
		c-0.8-0.3-1.6-0.5-2.4-0.7v-1.8c0-0.4-0.3-0.7-0.7-0.7S25,22.3,25,22.7v1.8c-1.4,0.1-2.5,0.6-3.1,1.5c-0.5,0.8-0.6,1.7-0.2,2.5
		c0.6,1.2,2,1.8,4,1.8l0,0c1.3,0,2.3,0.4,2.6,1c0.2,0.3,0.1,0.7-0.1,1c-0.3,0.5-1.3,1-2.8,0.8c-0.7-0.1-1.5-0.3-2.4-0.6l-0.2-0.1
		c-0.4-0.1-0.8,0.1-0.9,0.5s0.1,0.8,0.5,0.9l0.2,0.1c0.8,0.3,1.6,0.5,2.3,0.6v1.9c0,0.4,0.3,0.7,0.7,0.7s0.7-0.3,0.7-0.7v-1.8
		c1.4-0.1,2.5-0.6,3.1-1.5c0.5-0.8,0.6-1.7,0.1-2.5C29.1,29.5,27.6,28.8,25.8,28.8z"/>
	<path fill="#FFFFFF" d="M41,16.8c0-0.2-0.1-0.4-0.2-0.5l-2-2.1c-0.3-0.3-0.7-0.3-1,0l-3.3,3.3c-1.8-1.4-4-2.4-6.4-2.7v-2.4h1.3
		c0.7,0,1.4-0.6,1.4-1.4V8.9c0-0.8-0.6-1.4-1.4-1.4h-7.3c-0.7,0-1.4,0.6-1.4,1.4v2.2c0,0.8,0.6,1.4,1.4,1.4h1.3v2.3
		c-7,1.1-12.4,7.3-12.4,14.7c0,8.3,6.6,15,14.7,15s14.7-6.7,14.7-15c0-3.3-1.1-6.4-2.9-8.9l3.2-3.3C40.9,17.2,41,17,41,16.8z
		 M22.2,9h7.1v2h-7.1C22.2,11,22.2,9,22.2,9z M24.8,12.4h1.8v2.2c-0.3,0-0.6,0-0.9,0s-0.6,0-0.9,0V12.4z M25.7,43
		c-7.3,0-13.3-6-13.3-13.5S18.4,16,25.7,16S39,22.1,39,29.5S33,43,25.7,43z M36.6,19.5c-0.3-0.4-0.7-0.7-1-1l2.6-2.7l1,1L36.6,19.5z
		"/>
	<path fill="#FFFFFF" d="M25.7,17.5c-6.5,0-11.8,5.4-11.8,12s5.3,12.1,11.9,12.1s11.8-5.4,11.8-12.1S32.3,17.5,25.7,17.5z
		 M25.7,40.1c-5.7,0-10.4-4.7-10.4-10.6S20,18.9,25.7,18.9s10.4,4.8,10.4,10.6S31.5,40.1,25.7,40.1z"/>
</g>
</svg>
