<svg width="21" height="20" viewBox="0 0 21 20" fill="none" xmlns="http://www.w3.org/2000/svg">
<path d="M4.5 17.5693V6.74574H6.75V5.19952C6.75 4.13006 7.11575 3.2183 7.84725 2.46426C8.57875 1.71022 9.463 1.33346 10.5 1.33398C11.5375 1.33398 12.422 1.711 13.1535 2.46504C13.885 3.21907 14.2505 4.13057 14.25 5.19952V6.74574H16.5V17.5693H4.5ZM8.25 6.74574H12.75V5.19952C12.75 4.55527 12.5312 4.00765 12.0938 3.55667C11.6562 3.10569 11.125 2.8802 10.5 2.8802C9.875 2.8802 9.34375 3.10569 8.90625 3.55667C8.46875 4.00765 8.25 4.55527 8.25 5.19952V6.74574ZM10.5 13.7037C10.9125 13.7037 11.2657 13.5522 11.5598 13.2492C11.8538 12.9461 12.0005 12.5822 12 12.1575C12 11.7323 11.853 11.3682 11.559 11.0651C11.265 10.7621 10.912 10.6108 10.5 10.6113C10.0875 10.6113 9.73425 10.7628 9.44025 11.0659C9.14625 11.369 8.9995 11.7328 9 12.1575C9 12.5827 9.147 12.9469 9.441 13.2499C9.735 13.553 10.088 13.7043 10.5 13.7037Z" fill="#393B38"/>
</svg>
