<svg width="100" height="100" viewBox="0 0 100 100" fill="none" xmlns="http://www.w3.org/2000/svg">
<g id="best-loans 1">
<g id="Page-1">
<g id="lots_clients">
<g id="satisfied_clients">
<path id="Shape" d="M77.0889 27.084C76.728 27.084 76.367 27.2033 76.1264 27.442L65.7795 34.9614L62.7717 31.8582C62.4108 31.5001 62.0498 31.3808 61.5686 31.3808C61.0873 31.3808 60.7264 31.5001 60.3655 31.8582C59.7639 32.455 59.6436 33.5291 60.3655 34.2453L63.6139 37.4679C64.2155 38.0646 64.9373 38.4227 65.7795 38.4227C66.3811 38.4227 67.103 38.184 67.5842 37.8259L78.1717 30.1872C78.5327 29.9485 78.7733 29.5904 78.8936 29.113C79.0139 28.6356 78.8936 28.2775 78.653 27.9195C78.0514 27.3227 77.5702 27.084 77.0889 27.084Z" fill="#24BE00"/>
<path id="Shape_2" d="M85.6318 22.6679C82.1427 16.9388 75.8864 13.4775 69.0286 13.4775C65.5396 13.4775 62.0505 14.4324 59.0427 16.2227C54.8318 18.7292 51.8239 22.6679 50.5005 27.3227C50.3802 27.3227 50.2599 27.3227 50.1396 27.3227L46.7708 26.9646C45.4474 26.8453 44.8458 27.4421 44.4849 28.0388C43.8833 28.9937 44.0036 30.1872 44.9661 31.6195L45.0864 31.7388C45.9286 33.0517 46.7708 34.2453 47.7333 35.0808L47.9739 35.3195C48.0943 35.4388 48.3349 35.6775 48.5755 35.9162C49.1771 36.3937 49.7786 36.8711 50.3802 37.2292C50.8614 39.1388 51.5833 41.0485 52.6661 42.7195C56.1552 48.4485 62.4114 51.9098 69.2693 51.9098C72.7583 51.9098 76.2474 50.955 79.2552 49.1646C83.7068 46.5388 86.7146 42.2421 88.038 37.3485C89.1208 32.2162 88.2786 27.084 85.6318 22.6679ZM84.9099 36.513C83.8271 40.6904 81.3005 44.2711 77.5708 46.5388C75.0443 48.0904 72.1568 48.9259 69.1489 48.9259C63.3739 48.9259 58.2005 46.0614 55.1927 41.1679C54.2302 39.7356 53.6286 38.0646 53.2677 36.3937L53.0271 35.4388L52.0646 34.7227C51.463 34.3646 50.9818 34.0066 50.5005 33.5292C50.3802 33.4098 50.1396 33.2904 50.0193 33.0517L49.7786 32.813C49.0568 32.0969 48.3349 31.2614 47.613 30.0679L47.4927 29.9485L49.8989 30.1872C50.2599 30.1872 50.5005 30.1872 50.6208 30.3066H52.7864L53.388 28.2775C54.4708 24.3388 57.1177 20.8775 60.6068 18.7292C63.1333 17.1775 66.1411 16.3421 69.0286 16.3421C74.8036 16.3421 80.0974 19.2066 82.9849 24.1001C85.2708 27.9195 85.9927 32.3356 84.9099 36.513Z" fill="#24BE00"/>
<path id="Shape_3" d="M43.6424 43.3161C43.6424 42.958 43.5221 42.4806 43.5221 41.7644V41.4064C43.4018 40.929 43.4018 40.4515 43.4018 40.2128C43.2814 38.6612 42.3189 37.587 40.6346 37.1096H40.5143C39.3111 36.7515 38.108 36.3935 36.9049 36.0354C36.7846 36.0354 36.6643 35.916 36.4236 35.916L35.9424 35.6773C35.3408 35.4386 34.8596 35.3193 34.6189 35.3193L33.6564 35.0806L28.1221 41.1677L22.5877 35.0806L21.7455 35.1999C21.5049 35.3193 21.0236 35.4386 20.4221 35.6773L19.9408 35.7967C19.7002 35.7967 19.5799 35.916 19.4596 35.916C18.2564 36.2741 17.0533 36.6322 15.8502 36.9902H15.7299C14.0455 37.4677 13.083 38.6612 12.9627 40.0935C12.9627 40.3322 12.9627 40.8096 12.8424 41.287V41.6451C12.7221 42.4806 12.7221 42.958 12.7221 43.1967C12.6018 47.1354 12.6018 51.4322 12.7221 56.4451C12.7221 57.6386 12.9627 58.7128 13.5643 59.787C14.0455 60.7419 14.7674 61.8161 15.7299 62.7709C15.7299 62.7709 15.7299 62.8902 15.8502 62.8902V63.8451C15.9705 66.1128 16.2111 75.7806 16.2111 77.3322C16.2111 80.1967 17.5346 82.8225 19.8205 84.4935C21.6252 85.8064 23.7908 86.4032 26.3174 86.4032H28.3627H30.408C32.8143 86.4032 35.1002 85.687 36.9049 84.4935C39.1908 82.8225 40.5143 80.3161 40.5143 77.3322C40.5143 75.7806 40.7549 66.1128 40.8752 63.8451V62.8902L40.9955 62.6515C41.958 61.6967 42.6799 60.6225 43.0408 59.6677C43.5221 58.5935 43.7627 57.5193 43.883 56.3257C43.7627 51.5515 43.7627 47.1354 43.6424 43.3161ZM40.7549 56.4451C40.7549 57.1612 40.5143 57.8773 40.2736 58.5935C39.9127 59.3096 39.4314 60.1451 38.5893 60.8612L38.4689 60.9806C38.3486 61.2193 38.2283 61.3386 37.9877 61.5773L37.7471 61.9354L37.6268 63.8451C37.5064 66.1128 37.2658 75.8999 37.2658 77.4515C37.2658 79.3612 36.4236 81.0322 34.9799 82.1064C33.7768 82.9419 32.0924 83.4193 30.2877 83.4193H28.2424H26.1971C24.3924 83.4193 22.708 82.9419 21.5049 82.1064C19.9408 81.0322 19.2189 79.3612 19.2189 77.3322C19.2189 75.7806 18.9783 65.9935 18.858 63.7257L18.4971 61.9354L18.2564 61.5773C18.1361 61.458 18.0158 61.2193 17.8955 61.0999L17.7752 60.9806C17.0533 60.1451 16.4518 59.429 16.0908 58.7128C15.8502 57.8773 15.6096 57.1612 15.6096 56.4451C15.4893 51.4322 15.4893 47.2548 15.6096 43.3161C15.6096 43.1967 15.7299 42.4806 15.7299 42.1225V41.7644C15.8502 41.1677 15.8502 40.5709 15.8502 40.3322C15.8502 40.0935 16.2111 39.9741 16.4518 39.9741H16.5721C17.7752 39.6161 18.9783 39.258 20.3018 38.8999C20.4221 38.8999 20.4221 38.7806 20.5424 38.7806L21.1439 38.5419C21.2643 38.5419 21.3846 38.5419 21.3846 38.4225L26.3174 43.9128C26.6783 44.3902 27.1596 44.629 27.7611 44.7483H27.8814H28.0018C28.6033 44.7483 29.2049 44.3902 29.4455 43.9128L34.3783 38.4225C34.4986 38.4225 34.4986 38.4225 34.6189 38.5419L35.3408 38.7806C35.4611 38.7806 35.5814 38.8999 35.7018 38.8999C36.9049 39.258 38.108 39.6161 39.3111 39.9741H39.5518C39.7924 40.0935 40.1533 40.2128 40.1533 40.3322C40.1533 40.5709 40.2736 41.1677 40.2736 41.7644V42.1225C40.2736 42.5999 40.3939 43.1967 40.3939 43.3161C40.7549 47.1354 40.7549 51.4322 40.7549 56.4451Z" fill="#0F63FB"/>
<path id="Shape_4" d="M28.1217 32.3356H28.242C30.4076 32.3356 32.6935 31.3807 34.3779 29.7098C36.1826 28.0388 37.1451 25.6517 37.2654 23.384C37.2654 20.9969 36.3029 18.8485 34.6185 17.0581C32.9342 15.2678 30.6482 14.313 28.242 14.313C28.242 14.313 28.242 14.313 28.1217 14.313C23.3092 14.313 19.2185 18.2517 19.0982 23.1452C18.9779 27.9194 23.1888 32.2162 28.1217 32.3356ZM28.242 17.2969C29.806 17.2969 31.3701 18.013 32.4529 19.0872C33.656 20.2807 34.2576 21.713 34.2576 23.2646C34.2576 24.8162 33.5357 26.3678 32.3326 27.442C31.1295 28.6356 29.5654 29.2323 28.1217 29.2323C24.9935 29.2323 22.106 26.2485 22.106 23.1452C22.2263 20.042 24.9935 17.2969 28.242 17.2969Z" fill="#0F63FB"/>
</g>
</g>
</g>
</g>
</svg>
