<svg width="20" height="20" viewBox="0 0 20 20" fill="none" xmlns="http://www.w3.org/2000/svg">
<g id="material-symbols:done-rounded">
<g id="Group">
<path id="Vector" d="M12.2917 8.12583L11.675 8.02333C11.6601 8.11286 11.6649 8.20456 11.689 8.29205C11.7132 8.37955 11.7561 8.46073 11.8148 8.52996C11.8735 8.5992 11.9465 8.65482 12.0289 8.69296C12.1112 8.7311 12.2009 8.75085 12.2917 8.75083V8.12583ZM3.125 8.12583V7.50083C2.95924 7.50083 2.80027 7.56668 2.68306 7.68389C2.56585 7.8011 2.5 7.96007 2.5 8.12583H3.125ZM4.79167 17.0842H14.2583V15.8342H4.79167V17.0842ZM15.2583 7.50083H12.2917V8.75083H15.2583V7.50083ZM12.9083 8.22833L13.58 4.19917L12.3467 3.99333L11.675 8.02333L12.9083 8.22833ZM12.1417 2.50083H11.9633V3.75083H12.1408L12.1417 2.50083ZM9.3625 3.8925L7.26667 7.03667L8.30667 7.73L10.4025 4.58583L9.3625 3.8925ZM6.4 7.50083H3.125V8.75083H6.4V7.50083ZM2.5 8.12583V14.7925H3.75V8.12583H2.5ZM16.5058 15.2425L17.5058 10.2425L16.2808 9.99667L15.2808 14.9967L16.5058 15.2417V15.2425ZM7.26667 7.03667C7.17158 7.1794 7.04273 7.29562 6.89154 7.37659C6.74035 7.45757 6.57151 7.49996 6.4 7.5V8.75C7.16667 8.75 7.88167 8.3675 8.30667 7.73L7.26667 7.03667ZM13.58 4.19917C13.6147 3.99031 13.6036 3.77556 13.5473 3.57145C13.491 3.36735 13.3909 3.17794 13.254 3.01641C13.1172 2.85487 12.9468 2.72508 12.7547 2.63604C12.5626 2.54701 12.3534 2.50087 12.1417 2.50083L12.1408 3.75083C12.171 3.75091 12.2017 3.75755 12.2291 3.7703C12.2565 3.78305 12.2808 3.8016 12.3003 3.82467C12.3198 3.84774 12.334 3.87477 12.342 3.90389C12.35 3.93302 12.3516 3.96354 12.3467 3.99333L13.58 4.19917ZM15.2583 8.75C15.9167 8.75 16.4083 9.35167 16.28 9.99583L17.5058 10.2417C17.5721 9.90924 17.5639 9.56542 17.4817 9.23657C17.3994 8.90772 17.2453 8.60121 17.0303 8.33913C16.8153 8.07705 16.5449 7.86592 16.2385 7.72096C15.9321 7.576 15.5973 7.50082 15.2583 7.50083V8.75083V8.75ZM14.2583 17.0842C14.7881 17.0843 15.3015 16.9 15.7113 16.5642C16.121 16.2285 16.4018 15.7611 16.5058 15.2417L15.2808 14.9958C15.2336 15.2322 15.1059 15.4448 14.9194 15.5975C14.733 15.7502 14.4993 15.8344 14.2583 15.8342V17.0842ZM11.9633 2.50083C11.4489 2.50087 10.9424 2.62708 10.4888 2.86985C10.0353 3.11262 9.64868 3.46361 9.36333 3.89167L10.4025 4.58583C10.5738 4.32888 10.8059 4.11738 11.0782 3.97171C11.3505 3.82604 11.6545 3.75072 11.9633 3.75083V2.50083ZM4.79167 15.8342C4.21667 15.8342 3.75 15.3675 3.75 14.7925H2.5C2.5 15.4003 2.74144 15.9832 3.17121 16.413C3.60098 16.8427 4.18388 17.0842 4.79167 17.0842V15.8342Z" fill="#36C534"/>
<path id="Vector_2" d="M6.25 7.5V15.8333" stroke="#36C534"/>
</g>
</g>
</svg>
