<svg width="100" height="100" viewBox="0 0 100 100" fill="none" xmlns="http://www.w3.org/2000/svg">
<g id="easy-loan-application 1">
<g id="Page-1">
<g id="secure_application">
<g id="easy_application">
<path id="Shape" d="M30.2755 42.5188C30.2755 42.8896 30.2755 43.2604 30.4006 43.5076C31.7777 55.2492 38.037 64.766 48.6778 71.0694C48.803 71.0694 48.803 71.193 48.9282 71.193L50.4304 71.9346L51.9326 71.193C52.0578 71.193 52.0578 71.0694 52.183 71.0694C62.8238 64.8896 69.0831 55.3728 70.4601 43.5076C70.4601 43.2604 70.4601 42.8896 70.5853 42.6424C70.7105 40.6649 69.4587 38.9346 67.4557 38.4402C66.0786 38.0694 59.569 35.9683 53.8104 33.9908C51.6822 33.2492 49.3037 33.2492 47.0504 33.9908C41.6674 35.8447 34.7821 38.0694 33.4051 38.4402C31.4021 38.811 30.0251 40.5413 30.2755 42.5188ZM34.1562 41.2829C35.6585 40.9121 42.1681 38.6874 47.9267 36.8334C48.6778 36.5863 49.4289 36.4627 50.3052 36.4627C51.0563 36.4627 51.9326 36.5863 52.6837 36.8334C55.4378 37.6986 64.7016 40.7885 66.4542 41.2829C66.9549 41.4065 67.3305 41.7773 67.3305 42.2716C67.3305 42.6424 67.3305 42.8896 67.2053 43.1368C65.9534 53.8896 60.1949 62.6649 50.4304 68.3503L50.3052 68.2267C40.5407 62.5413 34.7821 53.766 33.5303 43.0132C33.5303 42.766 33.5303 42.5188 33.4051 42.1481C33.2799 41.7773 33.6555 41.4065 34.1562 41.2829Z" fill="#24BE00"/>
<path id="Shape_2" d="M79 29.5793C79 23.652 74.6344 19.2065 68.5226 19.2065H67.2753V22.1702H67.5247C67.7742 22.1702 68.0237 22.1702 68.2731 22.1702C69.1462 22.1702 70.1441 22.1702 71.2667 22.5406C74.2602 23.5285 76.0065 26.1217 76.0065 29.4558V51.0658V59.3393C76.0065 60.4507 76.0065 60.3272 76.0065 61.562C76.0065 64.1552 76.0065 73.9106 76.0065 76.5038C76.0065 78.4795 75.3828 80.2083 74.0108 81.6901C72.6387 83.172 70.643 83.9129 68.5226 83.9129C63.6581 83.9129 58.5441 83.9129 52.1828 83.9129H31.4774C27.1118 83.9129 23.9935 80.9492 23.9935 76.5038C23.9935 63.5378 23.9935 45.015 23.9935 30.3202C23.9935 29.2089 23.9935 27.974 24.3677 26.9861C25.2409 24.146 27.3613 22.5406 30.2301 22.1702C30.8538 22.0467 31.6022 22.0467 32.6 22.0467H32.7247V19.2065H30.9785C30.2301 19.2065 29.4817 19.33 28.8581 19.4535C24.1183 20.5649 21 24.5164 21 29.3323V53.9059C21 59.4628 21 71.1939 21 76.9977C21 77.8621 21.1247 78.85 21.3742 79.8379C22.2473 83.2955 25.7398 87 31.1032 87H31.3527C32.8495 87 34.3462 87 36.2172 87C37.4645 87 38.7118 87 39.9591 87C41.2065 87 42.4538 87 43.7011 87H45.9462H57.0473C60.4151 87 65.0301 87 69.5204 87C74.2602 87 78.5011 82.925 78.8753 78.2326C79 75.8863 79 73.4166 79 71.0704V61.9325C79 47.8552 79 40.0756 79 29.5793Z" fill="#0F63FB"/>
<path id="Shape_3" d="M37.911 23.3913H63.0749C64.2073 23.3913 64.7106 22.9087 64.7106 21.823C64.7106 20.9785 64.7106 19.772 64.7106 18.9275C64.7106 16.6353 64.5848 16.394 62.0684 16.5147C60.1811 16.5147 58.5454 16.1528 57.1614 14.9463C56.2806 14.1018 55.6516 13.1367 55.0225 12.0509C54.2675 10.7239 53.1352 10 51.4995 10C50.7446 10 49.8638 10 49.1089 10C47.7249 10 46.5925 10.6032 45.9634 11.8096C45.586 12.2922 45.3343 12.8954 44.9569 13.378C44.0761 14.9463 42.5663 15.9115 40.8048 16.2734C39.7983 16.5147 38.6659 16.394 37.6593 16.394C36.6528 16.394 36.1495 16.8766 36.1495 17.8418C36.1495 18.9275 36.1495 20.4959 36.1495 21.5817C36.0237 23.0294 36.5269 23.3913 37.911 23.3913ZM39.1692 19.4101C39.7983 19.4101 40.5532 19.4101 41.3081 19.1688C43.9503 18.6863 46.2151 17.1179 47.5991 14.8257C47.7249 14.5844 47.8507 14.3431 47.9765 14.1018C48.1024 13.8606 48.354 13.4986 48.4798 13.2573C48.6056 13.0161 48.7315 13.0161 49.1089 13.0161C49.3606 13.0161 49.4864 13.0161 49.738 13.0161H50.8704C51.122 13.0161 51.3737 13.0161 51.6253 13.0161C51.877 13.0161 52.1286 13.0161 52.5061 13.6193L52.6319 13.7399C53.261 14.8257 54.0159 16.0321 55.1483 17.1179C56.7839 18.6863 59.0487 19.5307 61.6909 19.5307V20.3752H39.1692V19.4101Z" fill="#0F63FB"/>
</g>
</g>
</g>
</g>
</svg>
