<svg width="100" height="100" viewBox="0 0 100 100" fill="none" xmlns="http://www.w3.org/2000/svg">
<g id="fast-money 1">
<g id="Page-1">
<g id="fast_access">
<g id="Shape">
<path id="Vector" d="M77.2497 82.5355C76.8747 81.7903 76.3747 81.1693 75.9997 80.6726C75.4997 80.0516 75.1247 79.5548 74.8747 78.9338C73.3747 75.208 73.9997 70.2403 74.6247 66.7629C76.3747 57.0758 75.9997 54.5919 73.3747 48.1338C71.1247 42.6693 66.7497 37.7016 60.9997 34.1L60.6247 33.8516L61.9997 30.1258C63.1247 27.0209 63.8747 25.0338 64.1247 24.1645C64.2497 23.7919 64.4997 23.2951 64.7497 22.6742L64.8747 22.4258C65.1247 21.929 65.3747 21.308 65.6247 20.6871C66.2497 19.0726 65.9997 17.3338 65.1247 16.0919C63.9997 14.4774 61.8747 13.7322 59.6247 14.229C58.9997 14.3532 58.3747 14.6016 57.7497 14.85L57.2497 15.0984L56.8747 14.4774C55.4997 12.4903 53.6247 11.3726 51.4997 11.3726C51.3747 11.3726 51.2497 11.3726 50.9997 11.3726C49.4997 11.4968 47.2497 12.1177 45.7497 14.7258L45.6247 14.85C45.4997 15.0984 45.3747 15.3468 45.2497 15.5951V15.9677H42.9997C40.1247 15.9677 37.8747 16.3403 36.6247 18.4516C35.7497 19.8177 35.7497 21.6806 36.4997 23.2951C36.8747 24.0403 39.8747 28.7597 41.9997 31.7403L42.3747 32.2371L41.7497 32.6097C40.9997 33.1064 40.3747 33.6032 39.6247 34.1L38.9997 34.5968C35.3747 37.0806 32.4997 39.8129 30.3747 42.7935C23.9997 51.8597 24.6247 58.9387 25.9997 66.6387L26.2497 67.7564C26.4997 69.3709 26.8747 70.8613 26.9997 72.3516C27.1247 73.8419 26.7497 75.4564 25.9997 77.1951C25.7497 77.6919 25.3747 78.3129 24.9997 78.9338C24.6247 79.4306 24.2497 80.0516 23.8747 80.6726C23.3747 81.5419 23.3747 82.5355 23.7497 83.4048C24.1247 84.2742 24.9997 85.0193 25.9997 85.1435C28.1247 85.6403 30.1247 85.3919 32.1247 85.2677C32.7497 85.2677 33.2497 85.1435 33.7497 85.1435C33.9997 85.1435 34.2497 85.1435 34.4997 85.1435C36.7497 85.1435 38.9997 85.7645 41.2497 86.3855C42.6247 86.758 43.8747 87.1306 45.2497 87.379C46.7497 87.6274 48.1247 87.7516 49.7497 87.7516C53.2497 87.7516 56.7497 87.1306 60.2497 86.5097L62.3747 86.1371C64.3747 85.7645 66.2497 85.3919 68.1247 85.3919H68.4997C69.3747 85.3919 71.1247 85.2677 72.6247 85.2677C75.6247 85.1435 76.3747 85.0193 76.8747 84.15C77.4997 83.529 77.4997 83.0322 77.2497 82.5355ZM71.9997 82.0387C71.1247 82.0387 69.9997 82.1629 68.6247 82.1629H68.2497C66.1247 82.2871 64.1247 82.6597 62.1247 83.0322L59.8747 83.4048C56.4997 84.0258 53.2497 84.6468 49.9997 84.6468C48.6247 84.6468 47.3747 84.5226 45.9997 84.2742C44.7497 84.0258 43.4997 83.6532 42.2497 83.4048C39.4997 82.6597 36.6247 81.9145 33.6247 82.1629C32.9997 82.1629 32.4997 82.2871 31.8747 82.2871C30.3747 82.4113 28.8747 82.5355 27.4997 82.4113L26.4997 82.2871L27.4997 80.6726C27.9997 79.9274 28.4997 79.1822 28.7497 78.5613C29.7497 76.3258 30.1247 74.2145 29.9997 72.2274C29.8747 70.4887 29.4997 68.8742 29.2497 67.2597L28.9997 66.1419C27.9997 60.1806 26.7497 53.35 32.9997 44.5322C34.8747 41.8 37.4997 39.3161 40.7497 37.0806C40.9997 36.9564 41.2497 36.708 41.4997 36.5838C43.9997 34.7209 45.3747 34.1 46.2497 34.1H50.4997C51.3747 34.1 51.9997 33.3548 51.9997 32.6097C51.9997 31.7403 51.2497 31.1193 50.4997 31.1193H46.2497C45.9997 31.1193 45.7497 31.1193 45.4997 31.1193L45.1247 31.2435L44.8747 30.8709C43.8747 29.3806 40.4997 24.1645 39.4997 22.0532C39.1247 21.1838 39.2497 20.5629 39.3747 20.1903C39.6247 19.8177 40.1247 19.3209 41.3747 19.1968C41.6247 19.1968 41.8747 19.1968 42.1247 19.1968H43.2497H43.6247H43.8747C44.1247 19.1968 44.4997 19.1968 44.7497 19.1968H45.2497L46.8747 24.7855C47.1247 25.5306 47.7497 26.0274 48.4997 26.0274C48.6247 26.0274 48.8747 26.0274 48.8747 26.0274C49.7497 25.779 50.2497 24.9097 50.1247 24.0403L48.1247 17.2097L48.2497 16.9613C48.3747 16.7129 48.4997 16.5887 48.4997 16.3403C49.2497 15.0984 50.1247 14.6016 51.2497 14.4774H51.4997C52.6247 14.4774 53.4997 14.9742 54.2497 16.0919C54.4997 16.4645 54.6247 16.8371 54.8747 17.2097C54.9997 17.458 55.1247 17.5822 55.1247 17.7064C55.6247 18.5758 56.2497 18.7 57.2497 18.3274L57.8747 18.079C58.6247 17.7064 59.4997 17.3338 60.3747 17.2097C61.2497 16.9613 62.1247 17.2097 62.4997 17.8306C62.8747 18.3274 62.8747 18.8242 62.6247 19.5693L57.3747 33.3548C57.3747 33.479 57.2497 33.479 57.2497 33.6032C56.8747 34.3484 57.1247 35.2177 57.8747 35.7145C63.8747 39.0677 68.4997 43.9113 70.6247 49.2516C72.9997 55.2129 73.3747 57.2 71.6247 66.1419C70.8747 69.9919 70.1247 75.5806 71.9997 80.0516C72.1247 80.4242 72.3747 80.6726 72.4997 81.0451L72.9997 81.9145L71.9997 82.0387Z" fill="#0F63FB"/>
<path id="Vector_2" d="M50.9996 58.5662C46.9996 57.2 44.4996 56.0823 44.1246 53.35C43.8746 51.2387 45.3746 49.1275 47.6246 48.5065C49.8746 47.8855 52.9996 48.1339 55.9996 49.2517C56.7496 49.5 57.6246 49.1275 57.9996 48.2581C58.3746 47.5129 57.8746 46.5194 57.1246 46.271C55.3746 45.65 53.6246 45.1533 51.9996 45.0291V42.1726C51.9996 41.3033 51.2496 40.5581 50.3746 40.5581C49.4996 40.5581 48.7496 41.3033 48.7496 42.1726V45.0291C47.9996 45.1533 47.2496 45.2775 46.6246 45.4017C42.9996 46.5194 40.4996 50.121 40.9996 53.7226C41.6246 58.6904 46.2496 60.1807 49.8746 61.5468C51.9996 62.292 53.9996 62.9129 55.1246 64.1549C56.1246 65.1484 56.7496 66.3904 56.7496 67.7565C56.7496 69.1226 56.1246 70.3646 54.9996 71.2339C53.7496 72.3517 52.2496 72.8484 50.1246 73.0968C48.4996 73.221 46.7496 72.9726 44.4996 72.6C43.9996 72.4758 43.3746 72.3517 42.8746 72.2275C41.9996 71.9791 41.1246 72.4758 40.8746 73.221C40.6246 74.0904 41.1246 74.9597 41.8746 75.2081C42.4996 75.4565 43.2496 75.5807 43.7496 75.7049C45.4996 76.0775 46.9996 76.2017 48.3746 76.2017V79.0581C48.3746 79.9275 49.1246 80.6726 49.9996 80.6726C50.8746 80.6726 51.6246 79.9275 51.6246 79.0581V76.0775C53.7496 75.7049 55.4996 74.9597 56.9996 73.7178C58.7496 72.2275 59.7496 70.1162 59.7496 67.8807C59.7496 65.6452 58.8746 63.5339 57.1246 62.0436C55.7496 60.1807 53.3746 59.3113 50.9996 58.5662Z" fill="#24BE00"/>
</g>
</g>
</g>
</g>
</svg>
