<svg width="100" height="100" viewBox="0 0 100 100" fill="none" xmlns="http://www.w3.org/2000/svg">
<g id="direct-money-transfer 1">
<g id="Page-1">
<g id="electronic_money_transfer">
<g id="2138766---business-data">
<path id="Shape" d="M51.6656 31.4482H30.0094C29.1672 31.4482 28.4453 32.1857 28.4453 33.0462C28.4453 33.9066 29.0469 34.5212 29.8891 34.5212H51.5453C52.3875 34.5212 53.1094 33.7837 53.1094 32.9232C53.1094 32.0628 52.5078 31.4482 51.6656 31.4482Z" fill="#24BE00"/>
<path id="Shape_2" d="M51.6648 41.4043H45.5289C44.6867 41.4043 43.9648 42.1418 43.9648 43.0022C43.9648 43.8626 44.6867 44.6001 45.5289 44.6001H51.6648C52.507 44.6001 53.2289 43.8626 53.2289 43.0022C53.2289 42.1418 52.507 41.4043 51.6648 41.4043Z" fill="#24BE00"/>
<path id="Shape_3" d="M29.8883 41.4043C29.0461 41.4043 28.3242 42.1418 28.3242 43.0022C28.3242 43.8626 29.0461 44.6001 29.8883 44.6001H37.107C37.9492 44.6001 38.6711 43.8626 38.6711 43.0022C38.6711 42.1418 37.9492 41.4043 37.107 41.4043H29.8883Z" fill="#24BE00"/>
<path id="Shape_4" d="M29.8883 54.4336H51.9055C52.7477 54.4336 53.4695 53.6961 53.4695 52.8357C53.4695 51.9753 52.7477 51.2378 51.9055 51.2378H29.8883C29.0461 51.2378 28.3242 51.9753 28.3242 52.8357C28.3242 53.6961 29.0461 54.4336 29.8883 54.4336Z" fill="#24BE00"/>
<path id="Shape_5" d="M64.1774 56.0312C65.0196 56.0312 65.7415 55.2937 65.7415 54.4333V52.9583C66.9446 52.7125 68.0274 52.2208 68.8696 51.3604C70.0727 50.2541 70.6743 48.9021 70.6743 47.3041C70.6743 45.7062 70.0727 44.3541 68.8696 43.2479C67.7868 42.1416 66.2227 41.65 64.779 41.0354C62.2524 40.175 61.1696 39.5604 60.929 38.2083C60.8087 37.225 61.5306 36.1187 62.6134 35.75C63.9368 35.3812 65.6212 35.5041 67.3056 36.2416C68.0274 36.6104 68.9899 36.1187 69.2306 35.3812C69.5915 34.6437 69.1102 33.6604 68.3884 33.4146C67.4259 33.0458 66.5837 32.8 65.6212 32.6771V31.325C65.6212 30.4646 64.8993 29.7271 64.0571 29.7271C63.2149 29.7271 62.4931 30.4646 62.4931 31.325V32.6771C62.1321 32.6771 61.8915 32.8 61.6509 32.9229C59.1243 33.6604 57.4399 36.2416 57.8009 38.7C58.2821 42.1416 61.2899 43.2479 63.5759 44.1083C64.779 44.6 65.9821 44.9687 66.5837 45.5833C67.0649 46.075 67.4259 46.6896 67.4259 47.4271C67.4259 48.0416 67.0649 48.7791 66.5837 49.2708C65.9821 49.8854 65.0196 50.1312 63.9368 50.2541C62.9743 50.2541 61.8915 50.2541 60.6884 50.0083C60.3274 50.0083 60.0868 49.8854 59.7259 49.7625C58.8837 49.5166 58.0415 50.0083 57.8009 50.7458C57.5603 51.6062 58.0415 52.4666 58.7634 52.7125C59.1243 52.8354 59.6056 52.9583 59.9665 52.9583C60.8087 53.0812 61.6509 53.2041 62.3727 53.3271V54.5562C62.6134 55.2937 63.3352 56.0312 64.1774 56.0312Z" fill="#24BE00"/>
<path id="Shape_6" d="M18.5795 69.798H42.1607C42.7623 71.3959 44.3264 72.5022 46.1311 72.5022H52.6279C54.4326 72.5022 55.9967 71.3959 56.5982 69.798H80.5404C81.3826 69.798 81.9842 69.0605 82.1045 68.323C82.1045 67.4626 81.3826 66.7251 80.6607 66.7251H54.3123L54.0717 68.323C53.9514 68.9376 53.4701 69.4293 52.7482 69.4293H46.2514C45.5295 69.4293 45.0482 68.9376 44.9279 68.2001L44.6873 66.7251H18.5795C17.7373 66.7251 17.1357 67.4626 17.1357 68.323C17.1357 69.1834 17.7373 69.798 18.5795 69.798Z" fill="#0F63FB"/>
<path id="Shape_7" d="M21.1061 64.7585C21.9482 64.7585 22.6701 64.021 22.6701 63.1605V28.498C22.6701 26.1626 24.5951 24.196 26.8811 24.196H72.3592C74.6451 24.196 76.5701 26.1626 76.5701 28.498V63.1605C76.5701 64.021 77.292 64.7585 78.1342 64.7585C78.9764 64.7585 79.6982 64.021 79.6982 63.1605V28.498C79.6982 24.4418 76.4498 21.123 72.4795 21.123H26.7607C22.7904 21.123 19.542 24.4418 19.542 28.498V63.1605C19.542 64.021 20.2639 64.7585 21.1061 64.7585Z" fill="#0F63FB"/>
<path id="Shape_8" d="M86.0746 66.7251C85.2324 66.7251 84.5106 67.4626 84.5106 68.323V72.0105C84.5106 74.7147 82.3449 76.9272 79.6981 76.9272H19.1809C16.534 76.9272 14.3684 74.7147 14.3684 72.0105V68.323C14.3684 67.4626 13.6465 66.7251 12.8043 66.7251C11.9621 66.7251 11.2402 67.4626 11.2402 68.323V72.0105C11.2402 76.4355 14.7293 80.0001 19.0605 80.0001H79.5777C83.909 80.0001 87.398 76.4355 87.398 72.0105V68.323C87.5184 67.3397 86.9168 66.7251 86.0746 66.7251Z" fill="#0F63FB"/>
</g>
</g>
</g>
</g>
</svg>
