<svg width="20" height="20" viewBox="0 0 20 20" fill="none" xmlns="http://www.w3.org/2000/svg">
<path d="M6.11699 7.49984C6.11699 7.8036 6.36324 8.04984 6.66699 8.04984C6.97075 8.04984 7.21699 7.8036 7.21699 7.49984H6.11699ZM10.0003 1.6665V1.1165V1.6665ZM13.3337 4.99984H13.8837H13.3337ZM12.7837 7.49984C12.7837 7.8036 13.0299 8.04984 13.3337 8.04984C13.6374 8.04984 13.8837 7.8036 13.8837 7.49984H12.7837ZM4.16699 7.49984V6.94984C3.86324 6.94984 3.61699 7.19608 3.61699 7.49984H4.16699ZM15.8337 7.49984H16.3837C16.3837 7.19608 16.1374 6.94984 15.8337 6.94984V7.49984ZM4.16699 14.9998H3.61699H4.16699ZM7.21699 7.49984V4.99984H6.11699V7.49984H7.21699ZM7.21699 4.99984C7.21699 4.26165 7.51024 3.5537 8.03221 3.03172L7.25439 2.25391C6.52613 2.98217 6.11699 3.96991 6.11699 4.99984H7.21699ZM8.03221 3.03172C8.55419 2.50975 9.26214 2.2165 10.0003 2.2165V1.1165C8.9704 1.1165 7.98266 1.52564 7.25439 2.25391L8.03221 3.03172ZM10.0003 2.2165C10.7385 2.2165 11.4465 2.50975 11.9684 3.03172L12.7463 2.25391C12.018 1.52564 11.0302 1.1165 10.0003 1.1165V2.2165ZM11.9684 3.03172C12.4904 3.5537 12.7837 4.26165 12.7837 4.99984H13.8837C13.8837 3.96991 13.4745 2.98217 12.7463 2.25391L11.9684 3.03172ZM12.7837 4.99984V7.49984H13.8837V4.99984H12.7837ZM4.16699 8.04984H15.8337V6.94984H4.16699V8.04984ZM15.2837 7.49984V14.9998H16.3837V7.49984H15.2837ZM15.2837 14.9998C15.2837 15.296 15.166 15.58 14.9566 15.7894L15.7344 16.5673C16.1501 16.1516 16.3837 15.5877 16.3837 14.9998H15.2837ZM14.9566 15.7894C14.7472 15.9989 14.4632 16.1165 14.167 16.1165V17.2165C14.7549 17.2165 15.3187 16.983 15.7344 16.5673L14.9566 15.7894ZM14.167 16.1165H5.83366V17.2165H14.167V16.1165ZM5.83366 16.1165C5.5375 16.1165 5.25347 15.9989 5.04406 15.7894L4.26624 16.5673C4.68194 16.983 5.24576 17.2165 5.83366 17.2165V16.1165ZM5.04406 15.7894C4.83464 15.58 4.71699 15.296 4.71699 14.9998H3.61699C3.61699 15.5877 3.85053 16.1516 4.26624 16.5673L5.04406 15.7894ZM4.71699 14.9998V7.49984H3.61699V14.9998H4.71699ZM9.45033 10.8332V14.1665H10.5503V10.8332H9.45033Z" fill="white"/>
<circle cx="10.0005" cy="10.5415" r="0.998535" fill="white"/>
</svg>
