<svg width="21" height="20" viewBox="0 0 21 20" fill="none" xmlns="http://www.w3.org/2000/svg">
<path d="M4.5 17.5688V6.74526H6.75V5.19904C6.75 4.12958 7.11575 3.21782 7.84725 2.46378C8.57875 1.70974 9.463 1.33298 10.5 1.3335C11.5375 1.3335 12.422 1.71052 13.1535 2.46456C13.885 3.21859 14.2505 4.13009 14.25 5.19904V6.74526H16.5V17.5688H4.5ZM8.25 6.74526H12.75V5.19904C12.75 4.55479 12.5312 4.00717 12.0938 3.55619C11.6562 3.10521 11.125 2.87972 10.5 2.87972C9.875 2.87972 9.34375 3.10521 8.90625 3.55619C8.46875 4.00717 8.25 4.55479 8.25 5.19904V6.74526ZM10.5 13.7032C10.9125 13.7032 11.2657 13.5517 11.5598 13.2487C11.8538 12.9456 12.0005 12.5817 12 12.157C12 11.7318 11.853 11.3677 11.559 11.0646C11.265 10.7616 10.912 10.6103 10.5 10.6108C10.0875 10.6108 9.73425 10.7623 9.44025 11.0654C9.14625 11.3685 8.9995 11.7323 9 12.157C9 12.5822 9.147 12.9464 9.441 13.2494C9.735 13.5525 10.088 13.7038 10.5 13.7032Z" fill="#0F63FB"/>
</svg>
