<svg width="21" height="20" viewBox="0 0 21 20" fill="none" xmlns="http://www.w3.org/2000/svg">
<g id="ri:share-box-line">
<path id="Vector" d="M8.69412 4.16675V5.55564H5.2219V15.2779H14.9441V11.8056H16.333V15.9723C16.333 16.1565 16.2598 16.3331 16.1296 16.4634C15.9994 16.5936 15.8227 16.6667 15.6386 16.6667H4.52745C4.34327 16.6667 4.16664 16.5936 4.03641 16.4634C3.90617 16.3331 3.83301 16.1565 3.83301 15.9723V4.86119C3.83301 4.67701 3.90617 4.50038 4.03641 4.37015C4.16664 4.23991 4.34327 4.16675 4.52745 4.16675H8.69412Z" fill="white"/>
<path id="Vector_2" d="M12.8783 3.78033H15.8141L9.17773 10.3448L10.0829 11.25L16.7193 4.68552V7.62131H17.9996V2.5H12.8783V3.78033Z" fill="white"/>
</g>
</svg>
