<svg width="34" height="34" viewBox="0 0 34 34" fill="none" xmlns="http://www.w3.org/2000/svg">
<g id="Doogle-play/Default">
<g id="Group">
<path id="Vector" d="M29.9235 14.6006L24.5041 11.4707L17.0791 17.0185L24.5039 22.5662L29.9418 19.4256C30.7897 18.9105 31.2957 18.0104 31.2957 17.0186C31.2957 16.0268 30.7896 15.1267 29.9235 14.6006Z" fill="#FF9100"/>
<path id="Vector_2" d="M18.9562 17.0188C18.9481 17.0293 12.3913 25.4594 12.386 25.4662L3.84474 32.1929C3.31906 31.6672 3 30.954 3 30.1654V3.82566C3 3.03729 3.31906 2.32389 3.84474 1.79834L12.386 8.57141C12.3913 8.57824 18.9481 17.0084 18.9562 17.0188Z" fill="#25D9F8"/>
<path id="Vector_3" d="M18.9563 17.0188L17.0791 19.4404V14.5972L18.9563 17.0188Z" fill="#00C0F1"/>
<path id="Vector_4" d="M24.5128 11.4622L18.9562 17.0188L3.84473 1.79835C4.03238 1.62933 4.22017 1.49793 4.42666 1.36653C5.32765 0.859744 6.39772 0.878453 7.28007 1.4229L17.079 7.18223L24.5128 11.4622Z" fill="#7FE881"/>
<path id="Vector_5" d="M24.5129 11.4621L18.9563 17.0187L17.0791 15.1415V7.18213L24.5129 11.4621Z" fill="#5BC980"/>
<path id="Vector_6" d="M24.5128 22.575L17.079 26.8551L7.2613 32.5868C6.81077 32.8496 6.3227 32.9998 5.81579 32.9998C5.34649 32.9998 4.87719 32.8683 4.42666 32.6243C4.22017 32.4929 4.03238 32.3616 3.84473 32.1926L18.9562 17.0186L24.5128 22.575Z" fill="#FF637B"/>
<path id="Vector_7" d="M24.5129 22.575L17.0791 26.8551V18.8958L18.9563 17.0186L24.5129 22.575Z" fill="#E63950"/>
</g>
</g>
</svg>
