<svg width="58" height="58" viewBox="0 0 58 58" fill="none" xmlns="http://www.w3.org/2000/svg">
<g id="icons8-tear-off-calendar 1">
<g id="tear-off calendar">
<path id="Vector" d="M47.1237 50.75H10.8737C10.2328 50.75 9.61807 50.4953 9.16486 50.0421C8.71164 49.5889 8.45703 48.9742 8.45703 48.3333V20.5416H49.5404V48.3333C49.5404 48.9742 49.2858 49.5889 48.8325 50.0421C48.3793 50.4953 47.7646 50.75 47.1237 50.75Z" fill="url(#paint0_linear_2230_13672)"/>
<path id="Vector_2" d="M47.1237 48.3333H10.8737C10.2328 48.3333 9.61807 48.0787 9.16486 47.6255C8.71164 47.1723 8.45703 46.5576 8.45703 45.9167V18.125H49.5404V45.9167C49.5404 46.5576 49.2858 47.1723 48.8325 47.6255C48.3793 48.0787 47.7646 48.3333 47.1237 48.3333Z" fill="url(#paint1_linear_2230_13672)"/>
<path id="Vector_3" d="M38.6654 48.3333H10.8737C10.2328 48.3333 9.61807 48.0787 9.16486 47.6255C8.71164 47.1723 8.45703 46.5576 8.45703 45.9167V18.125H49.5404V37.4583L38.6654 48.3333Z" fill="url(#paint2_linear_2230_13672)"/>
<path id="Vector_4" d="M26.74 43.0469H15.9689C15.6484 43.0469 15.3411 42.9196 15.1144 42.6929C14.8878 42.4663 14.7605 42.159 14.7605 41.8385V40.6749C14.7601 40.3646 14.8791 40.0661 15.0928 39.8412L20.8348 33.7995C22.3299 32.0998 23.0775 30.7476 23.0775 29.7431C23.1231 29.0809 22.9349 28.4237 22.5458 27.8859C22.336 27.6681 22.081 27.4989 21.7988 27.39C21.5166 27.2812 21.214 27.2354 20.9122 27.2559C20.6105 27.2764 20.3168 27.3627 20.0519 27.5087C19.787 27.6546 19.5573 27.8568 19.3788 28.101C19.1283 28.4464 18.9514 28.8396 18.8592 29.2562C18.8026 29.5266 18.6556 29.7698 18.4423 29.9455C18.229 30.1212 17.9622 30.2191 17.6859 30.2228H15.7236C15.538 30.2213 15.3553 30.1776 15.1892 30.095C15.023 30.0123 14.8779 29.8929 14.7649 29.7458C14.6518 29.5987 14.5737 29.4278 14.5365 29.246C14.4993 29.0642 14.504 28.8764 14.5503 28.6967C14.6958 28.104 14.9279 27.536 15.239 27.0111C15.8148 26.0333 16.6517 25.2354 17.6557 24.7068C18.719 24.1448 19.9066 23.8594 21.1091 23.8767C22.7987 23.7674 24.4712 24.2692 25.8216 25.2904C26.3856 25.7995 26.8275 26.4293 27.1143 27.1329C27.4011 27.8365 27.5255 28.5957 27.4782 29.354C27.478 30.0987 27.337 30.8367 27.0626 31.529C26.7335 32.3234 26.2986 33.0696 25.7697 33.7475C24.8986 34.8437 23.9565 35.8815 22.9494 36.8542L20.5098 39.6696H26.74C27.0604 39.6696 27.3678 39.7969 27.5944 40.0235C27.821 40.2501 27.9483 40.5574 27.9483 40.8779V41.8361C27.9486 41.995 27.9176 42.1524 27.857 42.2993C27.7964 42.4461 27.7075 42.5796 27.5952 42.6921C27.483 42.8046 27.3497 42.8938 27.2029 42.9546C27.0562 43.0155 26.8988 43.0469 26.74 43.0469Z" fill="url(#paint3_linear_2230_13672)"/>
<path id="Vector_5" d="M30.5435 32.7459L31.4425 25.2143C31.4777 24.9208 31.6192 24.6504 31.8403 24.4542C32.0614 24.2581 32.3468 24.1497 32.6424 24.1498H41.4088C41.7293 24.1498 42.0366 24.2771 42.2633 24.5037C42.4899 24.7303 42.6172 25.0376 42.6172 25.3581V26.3417C42.6172 26.6622 42.4899 26.9695 42.2633 27.1961C42.0366 27.4227 41.7293 27.55 41.4088 27.55H35.1255L34.699 31.3043C35.0849 31.0921 35.4962 30.9297 35.923 30.821C36.4072 30.6847 36.9075 30.614 37.4105 30.6107C38.2096 30.5597 39.0104 30.6824 39.7575 30.9705C40.5047 31.2586 41.1806 31.7051 41.7387 32.2794C42.8197 33.5911 43.3626 35.2641 43.2576 36.9605C43.2738 38.1088 42.9941 39.2419 42.4456 40.2508C41.9251 41.2132 41.133 42.0011 40.1679 42.5164C39.0971 43.0647 37.9062 43.3364 36.7036 43.3067C35.5506 43.3144 34.4104 43.0646 33.3662 42.5757C32.3878 42.1356 31.5454 41.4413 30.9265 40.565C30.6441 40.1576 30.4257 39.7093 30.2789 39.2358C30.2237 39.0544 30.212 38.8626 30.2447 38.6758C30.2774 38.489 30.3535 38.3126 30.4671 38.1607C30.5806 38.0088 30.7282 37.8858 30.8981 37.8016C31.068 37.7174 31.2553 37.6743 31.4449 37.6759H33.4652C33.7228 37.6829 33.9719 37.7697 34.1782 37.9242C34.3844 38.0787 34.5376 38.2934 34.6168 38.5386C34.7224 38.8311 34.8892 39.0976 35.1062 39.3204C35.3123 39.5238 35.5582 39.6825 35.8285 39.7864C36.0988 39.8904 36.3877 39.9374 36.677 39.9246C38.1463 39.9246 38.8818 38.8371 38.8834 36.6621C38.8834 34.6482 37.9832 33.6412 36.1828 33.6412C35.4912 33.6069 34.8101 33.8212 34.2627 34.2454C34.1231 34.3596 33.9588 34.4397 33.7829 34.4796C33.6069 34.5194 33.4242 34.5178 33.249 34.475L31.4715 34.0581C31.1828 33.9912 30.9288 33.8206 30.7577 33.5786C30.5866 33.3367 30.5104 33.0403 30.5435 32.7459Z" fill="url(#paint4_linear_2230_13672)"/>
<path id="Vector_6" d="M49.5404 9.66667V19.3333H8.45703V9.66667C8.45894 9.02631 8.71417 8.41274 9.16697 7.95994C9.61977 7.50714 10.2333 7.25191 10.8737 7.25H47.1237C47.764 7.25191 48.3776 7.50714 48.8304 7.95994C49.2832 8.41274 49.5384 9.02631 49.5404 9.66667Z" fill="url(#paint5_linear_2230_13672)"/>
<path id="Vector_7" d="M13.8945 15.7084C14.8955 15.7084 15.707 14.8969 15.707 13.8959C15.707 12.8949 14.8955 12.0834 13.8945 12.0834C12.8935 12.0834 12.082 12.8949 12.082 13.8959C12.082 14.8969 12.8935 15.7084 13.8945 15.7084Z" fill="#107A2F"/>
<path id="Vector_8" d="M44.1016 15.7084C45.1026 15.7084 45.9141 14.8969 45.9141 13.8959C45.9141 12.8949 45.1026 12.0834 44.1016 12.0834C43.1005 12.0834 42.2891 12.8949 42.2891 13.8959C42.2891 14.8969 43.1005 15.7084 44.1016 15.7084Z" fill="#107A2F"/>
<path id="Vector_9" d="M21.9734 10.9584L23.3207 15.1428L24.6499 10.9584H26.5579V16.9722H25.1079V15.5682L25.2492 12.6935L23.7992 16.9722H22.8374L21.3777 12.6875L21.5203 15.567V16.971H20.0703V10.9584H21.9734Z" fill="#DDF5E6"/>
<path id="Vector_10" d="M30.9722 15.8485H28.9845L28.6377 16.9722H27.0898L29.2938 10.9584H30.6581L32.879 16.9722H31.3226L30.9722 15.8485ZM29.3313 14.7296H30.6254L29.9766 12.644L29.3313 14.7296Z" fill="#DDF5E6"/>
<path id="Vector_11" d="M35.5506 14.8456H34.7664V16.9722H33.3164V10.9583H35.6823C36.2778 10.9231 36.8676 11.0905 37.3559 11.4332C37.5559 11.5924 37.7151 11.7971 37.8201 12.0301C37.9252 12.2632 37.9732 12.5179 37.96 12.7733C37.9739 13.1369 37.886 13.4972 37.7063 13.8136C37.5126 14.1096 37.2361 14.342 36.9112 14.4818L38.1667 16.9094V16.9722H36.6103L35.5506 14.8456ZM34.7664 13.7291H35.6823C35.7954 13.7379 35.909 13.7232 36.0161 13.686C36.1232 13.6488 36.2214 13.5898 36.3046 13.5128C36.4507 13.3465 36.5257 13.1296 36.5137 12.9086C36.5245 12.6876 36.4491 12.471 36.3034 12.3044C36.2209 12.2263 36.1232 12.1663 36.0162 12.128C35.9093 12.0897 35.7956 12.0741 35.6823 12.0821H34.7664V13.7291Z" fill="#DDF5E6"/>
<path id="Vector_12" d="M40.0609 47.3667L48.5724 38.8552C48.9742 38.45 49.3014 37.9772 49.5391 37.4584C48.657 38.8081 46.9134 38.7295 42.3386 38.6812C42.016 38.679 41.6962 38.7408 41.3977 38.8633C41.0992 38.9857 40.8281 39.1662 40.6 39.3943C40.3719 39.6224 40.1914 39.8936 40.0689 40.192C39.9465 40.4905 39.8846 40.8103 39.8869 41.1329C39.9352 45.7077 40.0077 47.4501 38.6641 48.3334C39.1829 48.0957 39.6557 47.7685 40.0609 47.3667Z" fill="url(#paint6_linear_2230_13672)"/>
</g>
</g>
<defs>
<linearGradient id="paint0_linear_2230_13672" x1="28.9987" y1="20.5416" x2="28.9987" y2="50.75" gradientUnits="userSpaceOnUse">
<stop offset="0.799" stop-color="#708075"/>
<stop offset="0.96" stop-color="#ADB4AF"/>
<stop offset="1" stop-color="#BDC2BE"/>
</linearGradient>
<linearGradient id="paint1_linear_2230_13672" x1="41.3467" y1="44.8703" x2="46.4688" y2="49.9924" gradientUnits="userSpaceOnUse">
<stop offset="0.006" stop-color="#8CAB95"/>
<stop offset="0.028" stop-color="#889C8F"/>
<stop offset="0.053" stop-color="#8DA194"/>
<stop offset="0.243" stop-color="#B1BFB5"/>
<stop offset="0.422" stop-color="#CAD4CD"/>
<stop offset="0.583" stop-color="#DAE1DC"/>
<stop offset="0.712" stop-color="#DFE6E1"/>
</linearGradient>
<linearGradient id="paint2_linear_2230_13672" x1="28.9987" y1="18.125" x2="28.9987" y2="48.3333" gradientUnits="userSpaceOnUse">
<stop offset="0.006" stop-color="#8CAB95"/>
<stop offset="0.015" stop-color="#7F9786"/>
<stop offset="0.028" stop-color="#708075"/>
<stop offset="0.03" stop-color="#728177"/>
<stop offset="0.071" stop-color="#919E95"/>
<stop offset="0.117" stop-color="#ACB7AF"/>
<stop offset="0.17" stop-color="#C2CBC5"/>
<stop offset="0.231" stop-color="#D3DAD5"/>
<stop offset="0.308" stop-color="#DEE5E1"/>
<stop offset="0.415" stop-color="#E5EBE7"/>
<stop offset="0.712" stop-color="#E7EDE9"/>
</linearGradient>
<linearGradient id="paint3_linear_2230_13672" x1="21.2312" y1="23.8767" x2="21.2312" y2="43.0469" gradientUnits="userSpaceOnUse">
<stop offset="0.006" stop-color="#394A40"/>
<stop offset="0.096" stop-color="#3C4D43"/>
<stop offset="0.556" stop-color="#49564F"/>
<stop offset="1" stop-color="#4D5953"/>
</linearGradient>
<linearGradient id="paint4_linear_2230_13672" x1="36.735" y1="24.1486" x2="36.735" y2="43.3067" gradientUnits="userSpaceOnUse">
<stop offset="0.006" stop-color="#394A40"/>
<stop offset="0.096" stop-color="#3C4D43"/>
<stop offset="0.556" stop-color="#49564F"/>
<stop offset="1" stop-color="#4D5953"/>
</linearGradient>
<linearGradient id="paint5_linear_2230_13672" x1="28.9987" y1="19.3333" x2="28.9987" y2="7.25" gradientUnits="userSpaceOnUse">
<stop stop-color="#0F752D"/>
<stop offset="0.024" stop-color="#118633"/>
<stop offset="0.058" stop-color="#13963A"/>
<stop offset="0.083" stop-color="#149C3C"/>
<stop offset="0.112" stop-color="#18A441"/>
<stop offset="0.197" stop-color="#22B54D"/>
<stop offset="0.303" stop-color="#28C055"/>
<stop offset="0.452" stop-color="#2CC75A"/>
<stop offset="0.865" stop-color="#2DC95B"/>
<stop offset="0.899" stop-color="#4BDA74"/>
<stop offset="0.937" stop-color="#64E98A"/>
<stop offset="0.972" stop-color="#73F296"/>
<stop offset="1" stop-color="#78F59B"/>
</linearGradient>
<linearGradient id="paint6_linear_2230_13672" x1="45.0296" y1="43.8239" x2="37.2201" y2="36.0144" gradientUnits="userSpaceOnUse">
<stop offset="0.028" stop-color="#708075"/>
<stop offset="0.03" stop-color="#728177"/>
<stop offset="0.071" stop-color="#919E95"/>
<stop offset="0.117" stop-color="#ACB7AF"/>
<stop offset="0.17" stop-color="#C2CBC5"/>
<stop offset="0.231" stop-color="#D3DAD5"/>
<stop offset="0.308" stop-color="#DEE5E1"/>
<stop offset="0.415" stop-color="#E5EBE7"/>
<stop offset="0.712" stop-color="#E7EDE9"/>
</linearGradient>
</defs>
</svg>
