<svg width="58" height="58" viewBox="0 0 58 58" fill="none" xmlns="http://www.w3.org/2000/svg">
<g id="icons8-locked 1">
<path id="Vector" d="M19.3327 19.4264C19.3327 13.9405 23.5461 9.47696 28.9993 9.47696C34.4526 9.47696 38.8896 13.9405 38.8896 19.4264V32.3012H44.7077V19.4264C44.7077 10.7131 37.6607 3.625 28.9993 3.625C20.338 3.625 13.291 10.7131 13.291 19.4264V27.6201H19.3327V19.4264Z" fill="url(#paint0_linear_2230_13753)"/>
<path id="Vector_2" d="M17.4753 19.4686C17.4753 16.8756 18.0807 14.6136 19.2648 12.6742C20.449 10.7348 22.2108 9.12048 24.5235 7.82273C26.5571 6.68206 26.1113 4.62185 23.3635 5.74439C21.8857 6.34856 20.5348 7.23789 19.3555 8.31814C18.1761 9.39839 17.1672 10.6684 16.3745 12.0326C15.1009 14.2233 14.3711 16.7632 14.3711 19.4686L14.3892 26.3078L17.3968 26.3356L17.4753 19.4686Z" fill="url(#paint1_linear_2230_13753)"/>
<path id="Vector_3" d="M16.4778 12.0157C15.1825 14.2112 14.4369 16.7753 14.4297 19.5653L14.4466 26.3127L15.2912 26.3211L17.2439 26.1761L17.2971 21.3343C17.2983 21.2824 17.3212 19.4566 17.3261 19.4095C17.3442 16.8381 17.9435 14.61 19.0878 12.708C19.4817 12.0519 19.9397 11.4357 20.4605 10.8557C21.3812 9.82858 22.4965 8.92112 23.7967 8.12604C23.9356 8.04146 24.0758 7.95808 24.2184 7.87592C25.8122 6.96483 25.8895 5.5535 24.535 5.53417C24.3392 5.53175 24.0577 5.56921 23.7061 5.69487C23.5973 5.73354 23.4837 5.77704 23.3653 5.82658C21.9479 6.4235 20.6478 7.27537 19.5059 8.30125C19.4793 8.32542 19.4539 8.34837 19.4274 8.37254C18.2637 9.43225 17.2656 10.6756 16.4778 12.0157Z" fill="url(#paint2_linear_2230_13753)"/>
<path id="Vector_4" d="M16.5831 11.9976C15.2648 14.1992 14.5035 16.7862 14.4902 19.662L14.5059 26.3175L15.3349 26.3272L17.093 26.0167L17.1425 21.2474C17.1449 21.1422 17.1691 19.4457 17.1764 19.3491C17.2138 16.7995 17.8059 14.6064 18.9115 12.7395C19.2958 12.0882 19.7417 11.4768 20.2467 10.904C21.1494 9.87453 22.2393 8.97069 23.502 8.17924C23.6373 8.09344 23.7739 8.01007 23.914 7.9279C25.4281 7.03736 25.5755 5.81211 24.4578 5.64294C24.3224 5.6224 24.0639 5.6369 23.705 5.77224C23.5974 5.81332 23.4863 5.85682 23.3715 5.90636C21.9807 6.51053 20.7047 7.34911 19.5809 8.35444C19.5556 8.3774 19.529 8.40036 19.5036 8.42453C18.3533 9.46611 17.3673 10.6817 16.5831 11.9976Z" fill="url(#paint3_linear_2230_13753)"/>
<path id="Vector_5" d="M16.6895 11.9794C15.3495 14.1858 14.5725 16.797 14.5508 19.7574L14.5641 26.3211L15.3773 26.3319L16.9409 25.8571L16.9868 21.1603C16.9904 21.0032 17.0146 19.4336 17.0267 19.2898C17.0822 16.7607 17.6683 14.6039 18.734 12.7732C19.1086 12.1256 19.5424 11.5202 20.0318 10.9535C20.9163 9.92157 21.9808 9.02136 23.2061 8.23353C23.3378 8.14774 23.4719 8.06315 23.6084 7.98099C25.0439 7.11461 25.2856 5.83257 24.3782 5.75161C24.3117 5.68757 24.0676 5.70328 23.7003 5.84949C23.5952 5.89178 23.4852 5.93649 23.3728 5.98603C22.0086 6.59744 20.7568 7.42394 19.6512 8.40753C19.6258 8.43049 19.6004 8.45344 19.575 8.4764C18.4428 9.49986 17.4677 10.6864 16.6895 11.9794Z" fill="url(#paint4_linear_2230_13753)"/>
<path id="Vector_6" d="M16.7948 11.9612C15.433 14.1725 14.6391 16.8079 14.6113 19.8541L14.6234 26.3259L15.4209 26.338L16.79 25.6976L16.8322 21.0733C16.8371 20.8642 16.8612 19.4215 16.8782 19.2306C16.9531 16.7233 17.5319 14.6015 18.559 12.8071C18.9239 12.1642 19.3468 11.5649 19.8192 11.0042C20.688 9.97112 21.7248 9.07333 22.9114 8.28912C23.0407 8.20333 23.1712 8.11754 23.3041 8.03537C24.6622 7.19316 24.9837 6.00175 24.2997 5.86279C24.2973 5.77096 24.0726 5.77216 23.6968 5.93045C23.5929 5.97395 23.4853 6.01987 23.3766 6.06941C22.0402 6.68687 20.8113 7.50129 19.7238 8.46554C19.6984 8.48729 19.673 8.51025 19.6489 8.5332C18.5324 9.5337 17.5693 10.6925 16.7948 11.9612Z" fill="url(#paint5_linear_2230_13753)"/>
<path id="Vector_7" d="M16.9 11.9432C15.5165 14.1605 14.7069 16.8201 14.6719 19.9496L14.6815 26.3296L15.4633 26.3429L16.6378 25.5382L16.6753 20.9876C16.6813 20.7266 16.7067 19.4119 16.7273 19.1727C16.8203 16.6871 17.393 14.6003 18.3803 12.841C18.7367 12.2018 19.1463 11.6085 19.6031 11.0539C20.4538 10.0183 21.4651 9.12418 22.6143 8.34239C22.7399 8.25539 22.868 8.1696 22.9973 8.08743C24.2781 7.2706 24.6793 6.16981 24.2189 5.97164C24.2805 5.85322 24.0751 5.83993 23.6921 6.00789C23.5906 6.0526 23.4855 6.09852 23.3779 6.14927C22.0681 6.77397 20.8622 7.57631 19.794 8.51881C19.7686 8.54056 19.7445 8.56231 19.7191 8.58527C18.6219 9.56643 17.6685 10.6986 16.9 11.9432Z" fill="url(#paint6_linear_2230_13753)"/>
<path id="Vector_8" d="M17.0053 11.925C15.6 14.1471 14.7735 16.8309 14.7324 20.0462L14.7409 26.3344L15.507 26.3477L16.4869 25.3774L16.5208 20.8993C16.528 20.5851 16.5534 19.3986 16.5788 19.111C16.6911 16.6472 17.2554 14.5942 18.2052 12.8724C18.552 12.238 18.9495 11.6495 19.3905 11.1009C20.2243 10.063 21.2091 9.17244 22.3208 8.39427C22.444 8.30727 22.5673 8.22027 22.6941 8.1381C23.8988 7.34665 24.3798 6.33527 24.1429 6.0791C24.2686 5.9341 24.0825 5.9051 23.691 6.08515C23.5907 6.13106 23.488 6.17819 23.3841 6.22894C22.1008 6.8609 20.9191 7.64994 19.869 8.5719C19.8449 8.59365 19.8195 8.6154 19.7953 8.63715C18.7115 9.60019 17.7702 10.7046 17.0053 11.925Z" fill="url(#paint7_linear_2230_13753)"/>
<path id="Vector_9" d="M17.1106 11.9069C15.6835 14.1339 14.8413 16.8417 14.793 20.1417L14.8002 26.338L15.5506 26.3525L16.336 25.2167L16.3662 20.8111C16.3735 20.445 16.4013 19.3853 16.4303 19.0506C16.5608 16.6085 17.119 14.5906 18.0289 12.9038C18.366 12.273 18.7515 11.6918 19.1768 11.1493C19.9924 10.1089 20.9518 9.22198 22.0248 8.44743C22.1445 8.36043 22.2653 8.27343 22.3886 8.19006C23.5171 7.42518 24.0766 6.50202 24.0633 6.18785C24.253 6.01627 24.0851 5.97035 23.6875 6.16248C23.5896 6.21081 23.4893 6.25914 23.3878 6.30989C22.1324 6.9491 20.9736 7.72606 19.9429 8.62627C19.9187 8.64681 19.8946 8.66856 19.8704 8.69031C18.801 9.63402 17.8706 10.7106 17.1106 11.9069Z" fill="url(#paint8_linear_2230_13753)"/>
<path id="Vector_10" d="M17.2178 11.8888C15.769 14.1218 14.9098 16.8526 14.8555 20.2383L14.8603 26.3428L15.595 26.3586L16.1858 25.0584L16.2124 20.7253C16.2209 20.3072 16.2487 19.3744 16.2825 18.9926C16.4323 16.5723 16.9833 14.5894 17.8546 12.9388C18.182 12.3129 18.5554 11.7365 18.965 11.2C19.7613 10.1572 20.6966 9.27393 21.7321 8.50301C21.8493 8.4148 21.9665 8.3278 22.0873 8.24443C23.1398 7.50734 23.779 6.67238 23.9881 6.2978C24.2418 6.09963 24.0932 6.03801 23.6872 6.24222C23.5905 6.29055 23.4926 6.34009 23.3936 6.39205C22.1647 7.0373 21.0301 7.80218 20.0175 8.68184C19.9933 8.70239 19.9703 8.72293 19.9462 8.74347C18.8925 9.66784 17.973 10.7167 17.2178 11.8888Z" fill="url(#paint9_linear_2230_13753)"/>
<path id="Vector_11" d="M17.323 11.8706C15.8525 14.1085 14.9776 16.8635 14.916 20.3338L14.9196 26.3465L15.6386 26.3634L16.0349 24.8977L16.0579 20.6371C16.0676 20.167 16.0966 19.3623 16.134 18.9321C16.302 16.5336 16.8469 14.5857 17.6795 12.9702C17.9985 12.3479 18.3573 11.7764 18.7525 11.2483C19.5294 10.2007 20.4393 9.32346 21.4386 8.55617C21.5522 8.46796 21.667 8.38096 21.7842 8.29637C22.7605 7.58708 23.4432 6.80167 23.9108 6.40654C24.2081 6.15521 24.0993 6.10325 23.6861 6.31954C23.5906 6.36908 23.4952 6.41983 23.3985 6.47179C22.1962 7.12429 21.0858 7.87708 20.0913 8.735C20.0684 8.75554 20.0442 8.77608 20.0212 8.79542C18.9821 9.70167 18.0734 10.7227 17.323 11.8706Z" fill="url(#paint10_linear_2230_13753)"/>
<path id="Vector_12" d="M17.4295 11.8525C15.9372 14.0952 15.0454 16.8755 14.9766 20.4305L14.9778 26.3513L15.681 26.3694L15.8828 24.7394L15.9021 20.5525C15.913 20.0293 15.942 19.3526 15.9843 18.8741C16.1716 16.4973 16.7093 14.5845 17.502 13.0052C17.8113 12.3878 18.1581 11.8211 18.5375 11.2991C19.2964 10.249 20.1809 9.37662 21.1427 8.61054C21.2539 8.52233 21.365 8.43412 21.4786 8.34954C22.38 7.66804 23.1618 6.98775 23.8324 6.5165C24.2058 6.25308 24.1031 6.16971 23.6826 6.39929C23.5896 6.45004 23.4953 6.50079 23.4023 6.55396C22.2278 7.21371 21.1391 7.95321 20.1639 8.79179C20.141 8.81112 20.118 8.83167 20.0951 8.851C19.0716 9.73429 18.175 10.7287 17.4295 11.8525Z" fill="url(#paint11_linear_2230_13753)"/>
<path id="Vector_13" d="M15.7464 20.4643C15.8358 16.2895 16.8412 13.4524 18.3226 11.3474C19.0633 10.295 19.9224 9.4262 20.8456 8.66374C21.7687 7.90128 22.7559 7.24757 23.7516 6.62407C24.1975 6.34495 24.1044 6.23378 23.6779 6.47545C22.4249 7.18474 21.2673 7.9617 20.2342 8.84378C19.201 9.72466 18.2924 10.7107 17.5347 11.8344C16.0207 14.0819 15.1132 16.8864 15.0371 20.5272V26.3562L15.7247 26.3743L15.7464 20.4643Z" fill="#DDDDDD"/>
<g id="Group">
<path id="Vector_14" d="M41.6378 19.4264C41.6378 17.1378 41.5387 13.3123 39.5897 10.1186C36.9205 5.74447 39.8495 7.28026 42.3193 11.426C43.6618 13.6808 44.5221 16.6146 44.5221 19.4264V32.3012H41.6378V19.4264Z" fill="url(#paint12_linear_2230_13753)"/>
<path id="Vector_15" d="M41.861 19.5279C41.861 17.0073 41.6979 13.3231 39.7658 10.1838C37.2162 6.02837 39.8987 7.46387 42.2695 11.3559C43.7037 13.711 44.5242 16.6569 44.5206 19.5255L44.5278 32.3132L41.8683 32.2867L41.861 19.5279Z" fill="url(#paint13_linear_2230_13753)"/>
<path id="Vector_16" d="M42.0834 19.6283C42.0834 16.8757 41.8575 13.3328 39.941 10.2468C37.5123 6.3088 39.9543 7.64159 42.2175 11.2823C43.7437 13.7364 44.523 16.6956 44.517 19.621L44.5303 32.3218L42.0967 32.2674L42.0834 19.6283Z" fill="url(#paint14_linear_2230_13753)"/>
<path id="Vector_17" d="M42.3045 19.7297C42.3045 16.7463 42.0085 13.3472 40.1162 10.3119C37.7999 6.5975 40.0147 7.81912 42.1668 11.2121C43.7871 13.7653 44.5242 16.7378 44.5134 19.72L44.5339 32.3338L42.3251 32.2528L42.3045 19.7297Z" fill="url(#paint15_linear_2230_13753)"/>
<path id="Vector_18" d="M42.5281 19.8312C42.5281 16.6158 42.1668 13.3581 40.2926 10.376C38.0959 6.88027 40.08 7.99194 42.1172 11.1396C43.8331 13.7919 44.5254 16.7777 44.5121 19.8167L44.5387 32.3435L42.5546 32.2347L42.5281 19.8312Z" fill="url(#paint16_linear_2230_13753)"/>
<path id="Vector_19" d="M42.7498 19.9327C42.7498 16.4853 42.3233 13.369 40.4673 10.4412C38.3902 7.16421 40.1495 8.1635 42.0659 11.0695C43.8796 13.8185 44.5249 16.82 44.508 19.9157L44.5418 32.3543L42.7825 32.219L42.7498 19.9327Z" fill="url(#paint17_linear_2230_13753)"/>
<path id="Vector_20" d="M42.971 20.0343C42.971 16.3549 42.4805 13.38 40.6426 10.5066C38.6863 7.44827 40.2221 8.33397 42.0152 10.9996C43.9292 13.844 44.5262 16.8624 44.5056 20.0149L44.5467 32.3665L43.0133 32.2034L42.971 20.0343Z" fill="url(#paint18_linear_2230_13753)"/>
<path id="Vector_21" d="M43.195 20.1357C43.195 16.2255 42.6404 13.3907 40.8194 10.5705C38.984 7.7297 40.2986 8.50062 41.9661 10.927C43.9841 13.8644 44.5278 16.9022 44.5049 20.1115L44.552 32.3761L43.2433 32.1864L43.195 20.1357Z" fill="url(#paint19_linear_2230_13753)"/>
<path id="Vector_22" d="M43.4164 20.2372C43.4164 16.0951 42.799 13.4005 40.9937 10.6358C39.2803 8.01253 40.3762 8.66624 41.9132 10.8569C44.0387 13.885 44.5257 16.9445 44.4991 20.2107L44.5535 32.3882L43.4696 32.1707L43.4164 20.2372Z" fill="url(#paint20_linear_2230_13753)"/>
<path id="Vector_23" d="M43.6389 20.3376C43.6389 15.9634 42.9598 13.409 41.1703 10.6987C39.5801 8.29169 40.4586 8.82698 41.8638 10.7833C44.1017 13.8984 44.5282 16.9832 44.498 20.3061L44.5584 32.3967L43.6993 32.1526L43.6389 20.3376Z" fill="url(#paint21_linear_2230_13753)"/>
<path id="Vector_24" d="M43.8611 20.439C43.8611 15.8329 43.1265 13.4138 41.3454 10.7639C39.8821 8.57079 40.5418 8.99008 41.813 10.7132C44.1705 13.9092 44.5281 17.0255 44.4943 20.4052L44.562 32.4088L43.9288 32.1369L43.8611 20.439Z" fill="url(#paint22_linear_2230_13753)"/>
<path id="Vector_25" d="M44.0844 20.5405C44.0844 15.7035 43.2857 13.4246 41.5215 10.8279C40.179 8.85228 40.6273 9.14832 41.7632 10.6406C44.2511 13.9092 44.5302 17.0653 44.4928 20.5018L44.5665 32.4184L44.1581 32.1199L44.0844 20.5405Z" fill="url(#paint23_linear_2230_13753)"/>
</g>
<g id="Group_2">
<path id="Vector_26" d="M39.9191 20.7253C39.9191 18.2918 39.4261 15.9838 38.387 14.0022C37.3478 12.0205 35.7613 10.3639 33.5742 9.23288C31.543 8.18284 31.5961 7.08205 34.6291 8.07288C36.0356 8.53205 37.3345 9.2208 38.4667 10.115C39.5989 11.0091 40.5608 12.1075 41.2942 13.3883C42.4723 15.4449 43.1478 17.8278 43.1478 20.3677V31.7937L39.7705 32.1513L39.9191 20.7253Z" fill="url(#paint24_linear_2230_13753)"/>
<path id="Vector_27" d="M34.7816 8.21668C36.1554 8.69035 37.4157 9.38635 38.5081 10.2781C39.6016 11.1698 40.5272 12.2561 41.2329 13.5116C42.382 15.5646 43.0248 17.9293 43.0248 20.4148L43.0309 31.7176L41.982 31.7985L39.8928 31.8613L40.0149 21.3718C40.0149 21.3573 40.0221 20.7121 40.0221 20.6976C40.0173 18.3328 39.5484 16.0733 38.5455 14.1146C37.9281 12.9111 37.1076 11.8223 36.0684 10.8943C35.4329 10.3276 34.7187 9.81893 33.9152 9.38756C33.0367 8.9151 32.5655 8.43902 32.5437 8.14177C32.5171 7.76356 33.1854 7.66689 34.7816 8.21668Z" fill="url(#paint25_linear_2230_13753)"/>
<path id="Vector_28" d="M34.9318 8.36169C36.273 8.84986 37.4934 9.55311 38.5483 10.4424C39.6032 11.3318 40.4925 12.406 41.1704 13.6361C42.2893 15.6842 42.9007 18.0332 42.9007 20.4619L42.9128 31.6427L41.8966 31.691L40.0152 31.5738L40.1191 21.3283C40.1191 21.2981 40.1252 20.7012 40.124 20.6722C40.1131 18.3776 39.6696 16.1651 38.703 14.2294C38.1121 13.05 37.3255 11.977 36.3262 11.0539C35.716 10.492 35.0308 9.97965 34.2551 9.54465C33.431 9.08186 32.9755 8.62028 32.9054 8.32544C32.8063 7.90857 33.3778 7.7974 34.9318 8.36169Z" fill="url(#paint26_linear_2230_13753)"/>
<path id="Vector_29" d="M35.0824 8.50542C36.391 9.00808 37.5728 9.71858 38.589 10.6043C39.6064 11.49 40.4607 12.5509 41.1072 13.758C42.2007 15.8001 42.7759 18.1334 42.7759 20.5078L42.794 31.5653L41.8092 31.5798L40.1357 31.2813L40.2227 21.2799C40.2214 21.2352 40.2275 20.6866 40.2251 20.6419C40.2094 18.4174 39.7901 16.252 38.8609 14.3392C38.2966 13.1853 37.5438 12.128 36.5844 11.2072C35.9995 10.649 35.3434 10.1343 34.5954 9.69563C33.8257 9.24492 33.3823 8.79542 33.2675 8.503C33.0899 8.0535 33.5708 7.92783 35.0824 8.50542Z" fill="url(#paint27_linear_2230_13753)"/>
<path id="Vector_30" d="M35.2361 8.64923C36.5121 9.1664 37.6539 9.88415 38.6327 10.7674C39.6114 11.6507 40.4295 12.6996 41.0481 13.8813C42.1127 15.9186 42.6552 18.2349 42.6552 20.5537L42.6794 31.4879L41.726 31.4686L40.2603 30.9901L40.3292 21.2328C40.328 21.1736 40.3328 20.6734 40.3304 20.6129C40.3086 18.4585 39.9147 16.3403 39.0218 14.4504C38.4841 13.3219 37.7663 12.2791 36.8456 11.3631C36.2861 10.8085 35.6578 10.2914 34.9376 9.84911C34.2211 9.40927 33.7861 8.97427 33.6314 8.68306C33.3704 8.19852 33.7667 8.05715 35.2361 8.64923Z" fill="url(#paint28_linear_2230_13753)"/>
<path id="Vector_31" d="M35.3864 8.79431C36.6298 9.32598 37.733 10.051 38.6731 10.9319C39.6132 11.8127 40.395 12.8483 40.9858 14.0071C42.0214 16.0407 42.5313 18.3389 42.5313 20.6034L42.5615 31.4143L41.6395 31.3624L40.3817 30.7038L40.4336 21.1906C40.4324 21.1169 40.4348 20.6638 40.4324 20.5889C40.4058 18.5045 40.0361 16.4346 39.1794 14.5665C38.6682 13.4633 37.9843 12.4362 37.1035 11.5227C36.5694 10.9717 35.97 10.4534 35.2777 10.0075C34.6155 9.58093 34.1865 9.15923 33.9932 8.86802C33.6452 8.34723 33.9594 8.18773 35.3864 8.79431Z" fill="url(#paint29_linear_2230_13753)"/>
<path id="Vector_32" d="M35.5368 8.93804C36.7475 9.4842 37.8108 10.2165 38.7135 11.0949C39.6161 11.9734 40.3604 12.9968 40.9223 14.1302C41.9288 16.1602 42.4061 18.4404 42.4061 20.6504L42.4412 31.3393L41.5518 31.2535L40.5018 30.4137L40.5356 21.1446C40.5344 21.0552 40.5356 20.6516 40.532 20.561C40.4994 18.5467 40.155 16.524 39.3345 14.6788C38.85 13.601 38.2011 12.5884 37.3577 11.6797C36.849 11.1324 36.2775 10.6128 35.6141 10.1621C35.0051 9.74762 34.5822 9.34283 34.3514 9.0492C33.9176 8.4982 34.152 8.31816 35.5368 8.93804Z" fill="url(#paint30_linear_2230_13753)"/>
<path id="Vector_33" d="M35.6888 9.0818C36.8669 9.64126 37.8916 10.3808 38.7556 11.258C39.6195 12.1341 40.3276 13.1454 40.8617 14.2535C41.838 16.2798 42.2839 18.5418 42.2839 20.6963L42.325 31.262L41.4671 31.1423L40.6249 30.1225L40.6418 21.0975C40.6394 20.9936 40.6406 20.6371 40.6369 20.532C40.5995 18.5878 40.2793 16.6121 39.4951 14.79C39.0371 13.7375 38.4221 12.7406 37.6185 11.8356C37.1352 11.2931 36.5914 10.7723 35.9559 10.3155C35.4 9.91555 34.9831 9.52526 34.7149 9.22922C34.1893 8.65285 34.3476 8.44743 35.6888 9.0818Z" fill="url(#paint31_linear_2230_13753)"/>
<path id="Vector_34" d="M35.8419 9.22679C36.9874 9.80075 37.9722 10.5475 38.7987 11.4211C39.6252 12.2947 40.2946 13.294 40.8009 14.3767C41.747 16.3995 42.1615 18.6445 42.1615 20.7434L42.2086 31.1858L41.3821 31.0336L40.7477 29.8337L40.7465 21.0527C40.7441 20.9343 40.7441 20.6262 40.7393 20.5054C40.6958 18.63 40.4009 16.7027 39.653 14.9035C39.2216 13.8765 38.6416 12.8941 37.8767 11.9927C37.4188 11.4537 36.9016 10.9342 36.2962 10.4702C35.7924 10.0847 35.3827 9.71012 35.077 9.41045C34.4608 8.8087 34.5417 8.57791 35.8419 9.22679Z" fill="url(#paint32_linear_2230_13753)"/>
<path id="Vector_35" d="M35.9918 9.37066C37.1047 9.95911 38.0508 10.7131 38.8387 11.5843C39.6265 12.4555 40.2597 13.4427 40.7382 14.5C41.6529 16.5192 42.0383 18.7461 42.0371 20.7906L42.0903 31.111L41.2952 30.9249L40.8687 29.5438L40.8505 21.0069C40.8481 20.874 40.8457 20.613 40.8409 20.4777C40.7925 18.6724 40.5219 16.7922 39.8102 15.016C39.4054 14.0143 38.8592 13.0476 38.1342 12.1498C37.7004 11.6145 37.211 11.0962 36.6359 10.6249C36.184 10.2552 35.7816 9.89628 35.4384 9.59178C34.7303 8.96707 34.734 8.70849 35.9918 9.37066Z" fill="url(#paint33_linear_2230_13753)"/>
<path id="Vector_36" d="M36.143 9.51567C37.2232 10.1186 38.1295 10.8799 38.8799 11.7487C39.6302 12.6175 40.2235 13.5926 40.6767 14.6245C41.5563 16.6424 41.9152 18.8488 41.914 20.8378L41.9732 31.0349L41.2107 30.8162L40.9908 29.255L40.9546 20.9622C40.9522 20.8136 40.9485 20.6021 40.9437 20.4511C40.8893 18.7159 40.644 16.8829 39.9686 15.1296C39.5904 14.152 39.0792 13.2011 38.3929 12.3069C37.9845 11.7753 37.5193 11.2605 36.9755 10.7808C36.5744 10.4268 36.1805 10.0836 35.7986 9.77425C35.0011 9.12659 34.9286 8.8378 36.143 9.51567Z" fill="url(#paint34_linear_2230_13753)"/>
<path id="Vector_37" d="M41.0583 20.9163C41.0245 19.1135 40.8287 17.1451 40.1255 15.242C39.7738 14.2898 39.2965 13.3546 38.6501 12.464C38.0036 11.5735 37.188 10.7276 36.1597 9.95551C35.2704 9.2873 35.1205 8.96951 36.2926 9.66068C37.3403 10.2781 38.2078 11.0466 38.9195 11.913C39.6313 12.7794 40.1871 13.7424 40.6124 14.749C41.4631 16.7633 41.7893 18.9516 41.7869 20.8861L41.8522 30.96L41.1211 30.7074L41.0583 20.9163Z" fill="#DDDDDD"/>
</g>
<path id="Vector_38" d="M28.9994 9.47696C34.0345 9.47696 38.1948 13.2856 38.805 18.1866C38.805 18.1552 38.8098 18.125 38.8098 18.0936C38.8098 12.6476 34.3958 8.41846 28.9498 8.41846C23.5039 8.41846 19.0898 12.6464 19.0898 18.0936C19.0898 18.38 19.1092 18.6615 19.1321 18.943C19.3871 13.682 23.7081 9.47696 28.9994 9.47696Z" fill="#A1A0A0"/>
<path id="Vector_39" d="M49.5423 24.1666H8.45898V53.1666H49.5423V24.1666Z" fill="url(#paint35_linear_2230_13753)"/>
<path id="Vector_40" d="M49.5423 24.1666H8.45898V24.3551C13.7104 25.6831 20.9737 26.506 29.0007 26.506C37.0276 26.506 44.2909 25.6831 49.5423 24.3551V24.1666Z" fill="#FCEFD2"/>
<path id="Vector_41" d="M49.5423 24.1666H8.45898V24.2995C13.7104 25.2336 20.9737 25.8124 29.0007 25.8124C37.0276 25.8124 44.2909 25.2336 49.5423 24.2995V24.1666Z" fill="#F8E1AB"/>
<path id="Vector_42" d="M8.45898 53.1666H49.5423V53.0603C44.2909 52.316 37.0276 51.8544 29.0007 51.8544C20.9737 51.8544 13.7104 52.3147 8.45898 53.0603V53.1666Z" fill="#9B661E"/>
<path id="Vector_43" d="M9.67131 24.6114C9.7861 24.122 11.2349 24.041 12.9084 24.4325C14.582 24.824 15.8447 25.5381 15.7299 26.0275C15.6151 26.5169 14.1663 26.5979 12.4928 26.2064C10.8192 25.8149 9.55652 25.1019 9.67131 24.6114Z" fill="url(#paint36_radial_2230_13753)"/>
</g>
<defs>
<linearGradient id="paint0_linear_2230_13753" x1="28.9595" y1="28.8151" x2="29.3715" y2="-2.41425" gradientUnits="userSpaceOnUse">
<stop stop-color="#6A6A6A"/>
<stop offset="1" stop-color="#EEEEEE"/>
</linearGradient>
<linearGradient id="paint1_linear_2230_13753" x1="19.8521" y1="29.905" x2="20.2859" y2="-2.98219" gradientUnits="userSpaceOnUse">
<stop stop-color="#6A6A6A"/>
<stop offset="1" stop-color="#EEEEEE"/>
</linearGradient>
<linearGradient id="paint2_linear_2230_13753" x1="19.7331" y1="29.8881" x2="20.1644" y2="-2.82388" gradientUnits="userSpaceOnUse">
<stop stop-color="#747474"/>
<stop offset="1" stop-color="#ECECEC"/>
</linearGradient>
<linearGradient id="paint3_linear_2230_13753" x1="19.616" y1="29.8737" x2="20.0462" y2="-2.68126" gradientUnits="userSpaceOnUse">
<stop stop-color="#7F7F7F"/>
<stop offset="1" stop-color="#EBEBEB"/>
</linearGradient>
<linearGradient id="paint4_linear_2230_13753" x1="19.5098" y1="29.8615" x2="19.9375" y2="-2.56897" gradientUnits="userSpaceOnUse">
<stop stop-color="#898989"/>
<stop offset="1" stop-color="#E9E9E9"/>
</linearGradient>
<linearGradient id="paint5_linear_2230_13753" x1="19.4084" y1="29.8518" x2="19.835" y2="-2.45417" gradientUnits="userSpaceOnUse">
<stop stop-color="#949494"/>
<stop offset="1" stop-color="#E8E8E8"/>
</linearGradient>
<linearGradient id="paint6_linear_2230_13753" x1="19.3179" y1="29.8423" x2="19.742" y2="-2.34411" gradientUnits="userSpaceOnUse">
<stop stop-color="#9E9E9E"/>
<stop offset="1" stop-color="#E6E6E6"/>
</linearGradient>
<linearGradient id="paint7_linear_2230_13753" x1="19.2468" y1="29.8337" x2="19.6697" y2="-2.23544" gradientUnits="userSpaceOnUse">
<stop stop-color="#A9A9A9"/>
<stop offset="1" stop-color="#E5E5E5"/>
</linearGradient>
<linearGradient id="paint8_linear_2230_13753" x1="19.2469" y1="29.8265" x2="19.6686" y2="-2.1279" gradientUnits="userSpaceOnUse">
<stop stop-color="#B3B3B3"/>
<stop offset="1" stop-color="#E3E3E3"/>
</linearGradient>
<linearGradient id="paint9_linear_2230_13753" x1="19.2647" y1="29.818" x2="19.684" y2="-2.02157" gradientUnits="userSpaceOnUse">
<stop stop-color="#BEBEBE"/>
<stop offset="1" stop-color="#E2E2E2"/>
</linearGradient>
<linearGradient id="paint10_linear_2230_13753" x1="19.2781" y1="29.8132" x2="19.6962" y2="-1.92734" gradientUnits="userSpaceOnUse">
<stop stop-color="#C8C8C8"/>
<stop offset="1" stop-color="#E0E0E0"/>
</linearGradient>
<linearGradient id="paint11_linear_2230_13753" x1="19.3024" y1="29.8047" x2="19.7193" y2="-1.81617" gradientUnits="userSpaceOnUse">
<stop stop-color="#D3D3D3"/>
<stop offset="1" stop-color="#DFDFDF"/>
</linearGradient>
<linearGradient id="paint12_linear_2230_13753" x1="41.7236" y1="28.443" x2="41.4602" y2="8.50309" gradientUnits="userSpaceOnUse">
<stop stop-color="#6A6A6A"/>
<stop offset="1" stop-color="#C1C1C1"/>
</linearGradient>
<linearGradient id="paint13_linear_2230_13753" x1="41.7792" y1="27.9052" x2="41.4706" y2="8.76931" gradientUnits="userSpaceOnUse">
<stop stop-color="#696969"/>
<stop offset="1" stop-color="#BEBEBE"/>
</linearGradient>
<linearGradient id="paint14_linear_2230_13753" x1="41.8394" y1="27.3773" x2="41.4598" y2="9.03101" gradientUnits="userSpaceOnUse">
<stop stop-color="#686868"/>
<stop offset="1" stop-color="#BBBBBB"/>
</linearGradient>
<linearGradient id="paint15_linear_2230_13753" x1="41.9006" y1="26.8625" x2="41.3931" y2="9.288" gradientUnits="userSpaceOnUse">
<stop stop-color="#676767"/>
<stop offset="1" stop-color="#B8B8B8"/>
</linearGradient>
<linearGradient id="paint16_linear_2230_13753" x1="41.9663" y1="26.3659" x2="41.1528" y2="9.53755" gradientUnits="userSpaceOnUse">
<stop stop-color="#666666"/>
<stop offset="1" stop-color="#B5B5B5"/>
</linearGradient>
<linearGradient id="paint17_linear_2230_13753" x1="42.0431" y1="25.961" x2="39.7123" y2="9.89687" gradientUnits="userSpaceOnUse">
<stop stop-color="#656565"/>
<stop offset="1" stop-color="#B2B2B2"/>
</linearGradient>
<linearGradient id="paint18_linear_2230_13753" x1="42.1312" y1="25.1866" x2="44.2277" y2="10.7233" gradientUnits="userSpaceOnUse">
<stop stop-color="#656565"/>
<stop offset="1" stop-color="#B0B0B0"/>
</linearGradient>
<linearGradient id="paint19_linear_2230_13753" x1="42.2232" y1="24.7551" x2="42.913" y2="10.5059" gradientUnits="userSpaceOnUse">
<stop stop-color="#646464"/>
<stop offset="1" stop-color="#ADADAD"/>
</linearGradient>
<linearGradient id="paint20_linear_2230_13753" x1="42.316" y1="24.2876" x2="42.7093" y2="10.698" gradientUnits="userSpaceOnUse">
<stop stop-color="#636363"/>
<stop offset="1" stop-color="#AAAAAA"/>
</linearGradient>
<linearGradient id="paint21_linear_2230_13753" x1="42.4141" y1="23.8164" x2="42.6817" y2="10.9255" gradientUnits="userSpaceOnUse">
<stop stop-color="#626262"/>
<stop offset="1" stop-color="#A7A7A7"/>
</linearGradient>
<linearGradient id="paint22_linear_2230_13753" x1="42.5105" y1="23.3463" x2="42.7069" y2="11.1589" gradientUnits="userSpaceOnUse">
<stop stop-color="#616161"/>
<stop offset="1" stop-color="#A4A4A4"/>
</linearGradient>
<linearGradient id="paint23_linear_2230_13753" x1="42.6054" y1="22.8822" x2="42.7564" y2="11.3958" gradientUnits="userSpaceOnUse">
<stop stop-color="#606060"/>
<stop offset="1" stop-color="#A1A1A1"/>
</linearGradient>
<linearGradient id="paint24_linear_2230_13753" x1="37.8323" y1="26.8661" x2="37.4783" y2="8.23831e-06" gradientUnits="userSpaceOnUse">
<stop stop-color="#6A6A6A"/>
<stop offset="1" stop-color="#EEEEEE"/>
</linearGradient>
<linearGradient id="paint25_linear_2230_13753" x1="37.9164" y1="26.6728" x2="37.4911" y2="0.266905" gradientUnits="userSpaceOnUse">
<stop stop-color="#747474"/>
<stop offset="1" stop-color="#ECECEC"/>
</linearGradient>
<linearGradient id="paint26_linear_2230_13753" x1="37.9984" y1="26.6039" x2="37.4574" y2="0.473107" gradientUnits="userSpaceOnUse">
<stop stop-color="#7F7F7F"/>
<stop offset="1" stop-color="#EBEBEB"/>
</linearGradient>
<linearGradient id="paint27_linear_2230_13753" x1="38.0807" y1="26.5736" x2="37.3288" y2="0.648006" gradientUnits="userSpaceOnUse">
<stop stop-color="#898989"/>
<stop offset="1" stop-color="#E9E9E9"/>
</linearGradient>
<linearGradient id="paint28_linear_2230_13753" x1="38.1517" y1="26.593" x2="36.9005" y2="0.769006" gradientUnits="userSpaceOnUse">
<stop stop-color="#949494"/>
<stop offset="1" stop-color="#E8E8E8"/>
</linearGradient>
<linearGradient id="paint29_linear_2230_13753" x1="38.2202" y1="26.8009" x2="34.4443" y2="0.823385" gradientUnits="userSpaceOnUse">
<stop stop-color="#9E9E9E"/>
<stop offset="1" stop-color="#E6E6E6"/>
</linearGradient>
<linearGradient id="paint30_linear_2230_13753" x1="38.2909" y1="26.094" x2="41.6632" y2="2.87946" gradientUnits="userSpaceOnUse">
<stop stop-color="#A9A9A9"/>
<stop offset="1" stop-color="#E5E5E5"/>
</linearGradient>
<linearGradient id="paint31_linear_2230_13753" x1="38.3573" y1="26.2703" x2="39.529" y2="2.04133" gradientUnits="userSpaceOnUse">
<stop stop-color="#B3B3B3"/>
<stop offset="1" stop-color="#E3E3E3"/>
</linearGradient>
<linearGradient id="paint32_linear_2230_13753" x1="38.4179" y1="26.2897" x2="39.122" y2="2.09212" gradientUnits="userSpaceOnUse">
<stop stop-color="#BEBEBE"/>
<stop offset="1" stop-color="#E2E2E2"/>
</linearGradient>
<linearGradient id="paint33_linear_2230_13753" x1="38.4756" y1="26.2813" x2="38.9729" y2="2.24036" gradientUnits="userSpaceOnUse">
<stop stop-color="#C8C8C8"/>
<stop offset="1" stop-color="#E0E0E0"/>
</linearGradient>
<linearGradient id="paint34_linear_2230_13753" x1="38.5268" y1="26.2644" x2="38.9108" y2="2.41996" gradientUnits="userSpaceOnUse">
<stop stop-color="#D3D3D3"/>
<stop offset="1" stop-color="#DFDFDF"/>
</linearGradient>
<linearGradient id="paint35_linear_2230_13753" x1="8.45898" y1="38.6666" x2="47.3444" y2="38.6666" gradientUnits="userSpaceOnUse">
<stop stop-color="#CCA65C"/>
<stop offset="0.097" stop-color="#F8E1AB"/>
<stop offset="0.932" stop-color="#A77831"/>
<stop offset="1" stop-color="#99621A"/>
</linearGradient>
<radialGradient id="paint36_radial_2230_13753" cx="0" cy="0" r="1" gradientUnits="userSpaceOnUse" gradientTransform="translate(12.7844 25.3319) rotate(-166.836) scale(2.80067 0.762471)">
<stop stop-color="white"/>
<stop offset="0.999" stop-color="white" stop-opacity="0"/>
</radialGradient>
</defs>
</svg>
