<svg width="18" height="18" viewBox="0 0 18 18" fill="none" xmlns="http://www.w3.org/2000/svg">
<g id="material-symbols:star">
<path id="Vector" d="M5.3814 15.4395C5.00312 15.6677 4.53643 15.3291 4.63599 14.8987L5.52064 11.0743C5.56237 10.8939 5.50096 10.7052 5.36103 10.5839L2.39346 8.01107C2.0597 7.7217 2.23767 7.17336 2.67776 7.13515L6.60091 6.7946C6.7855 6.77858 6.9461 6.66179 7.01823 6.49113L8.54042 2.88951C8.71249 2.48238 9.28946 2.48238 9.46153 2.88951L10.9837 6.49113C11.0559 6.66179 11.2164 6.77858 11.401 6.7946L15.3242 7.13515C15.7643 7.17336 15.9423 7.7217 15.6085 8.01107L12.6409 10.5839C12.501 10.7052 12.4396 10.8939 12.4813 11.0743L13.366 14.8987C13.4655 15.3291 12.9988 15.6677 12.6206 15.4395L9.25924 13.4119C9.1004 13.316 8.90155 13.316 8.74271 13.4119L5.3814 15.4395Z" fill="#FFA928"/>
</g>
</svg>
