<svg width="20" height="20" viewBox="0 0 20 20" fill="none" xmlns="http://www.w3.org/2000/svg">
<g clip-path="url(#clip0_1038_12407)">
<path d="M11.1083 7.93408C11.0872 9.35008 8.92318 9.36049 8.90207 7.93408C8.92318 6.50767 11.0872 6.51808 11.1083 7.93408ZM18.6666 3.12386V14.6913C18.6666 15.0037 18.4977 15.2952 18.2232 15.4514L10.4433 19.8868C10.1688 20.0429 9.83102 20.0325 9.55656 19.8868L1.77661 15.4514C1.50215 15.2952 1.33325 15.0037 1.33325 14.6913V3.12386C1.33325 2.67615 1.67105 2.31174 2.10386 2.25968C7.67755 0.135688 12.9979 0.135688 17.9171 2.25968C18.3393 2.32215 18.6666 2.68657 18.6666 3.12386ZM9.99992 4.88344C6.85416 4.87303 5.88299 9.17308 8.7015 10.485V11.245H7.82534V12.0988H8.7015V12.9421H7.82534V13.7959H8.7015V14.7954L11.3089 15.7845V10.485C14.1063 9.17308 13.1457 4.86262 9.99992 4.88344Z" fill="#0F63FB"/>
</g>
<defs>
<clipPath id="clip0_1038_12407">
<rect width="20" height="20" fill="white"/>
</clipPath>
</defs>
</svg>
