<svg width="20" height="20" viewBox="0 0 20 20" fill="none" xmlns="http://www.w3.org/2000/svg">
<g clip-path="url(#clip0_96_1920)">
<mask id="mask0_96_1920" style="mask-type:luminance" maskUnits="userSpaceOnUse" x="0" y="0" width="20" height="20">
<path d="M20 0H0V20H20V0Z" fill="white"/>
</mask>
<g mask="url(#mask0_96_1920)">
<path d="M11.1083 7.93439C11.0872 9.35039 8.92318 9.3608 8.90207 7.93439C8.92318 6.50798 11.0872 6.51839 11.1083 7.93439ZM18.6666 3.12417V14.6916C18.6666 15.004 18.4977 15.2955 18.2232 15.4517L10.4433 19.8871C10.1688 20.0432 9.83102 20.0328 9.55656 19.8871L1.77661 15.4517C1.50215 15.2955 1.33325 15.004 1.33325 14.6916V3.12417C1.33325 2.67646 1.67105 2.31205 2.10386 2.25999C7.67755 0.135994 12.9979 0.135994 17.9171 2.25999C18.3393 2.32246 18.6666 2.68688 18.6666 3.12417ZM9.99992 4.88375C6.85416 4.87334 5.88299 9.17339 8.7015 10.4853V11.2453H7.82534V12.0991H8.7015V12.9424H7.82534V13.7962H8.7015V14.7957L11.3089 15.7848V10.4853C14.1063 9.17339 13.1457 4.86293 9.99992 4.88375Z" fill="#393B38"/>
</g>
</g>
<defs>
<clipPath id="clip0_96_1920">
<rect width="20" height="20" fill="white"/>
</clipPath>
</defs>
</svg>
