<svg width="58" height="58" viewBox="0 0 58 58" fill="none" xmlns="http://www.w3.org/2000/svg">
<g id="icons8-handshake-medium-skin-tone 1">
<path id="Vector" d="M46.7636 32.4414L30.5912 21.0347C30.5804 20.4221 30.5731 20.0668 30.5731 20.0668C32.1524 19.7261 33.2339 18.1866 33.049 16.5469C32.9608 15.7651 32.3675 15.1586 31.6099 15.0728C31.6099 15.0728 20.4026 12.8301 20.3047 12.8277C20.0908 12.8168 16.455 14.5085 15.6997 14.9133C14.4781 15.5694 13.1526 15.8836 12.0059 15.4909L6.98162 13.7714C6.35087 13.5551 4.69908 16.7064 3.295 20.8111C1.88971 24.9146 1.26258 28.4176 1.89454 28.6339L4.97458 29.6876C6.12129 30.0803 8.60925 31.5689 9.33787 32.5368C10.0218 33.4467 11.4392 34.5523 13.4643 35.6024L15.3542 35.3136C15.933 35.5323 25.3785 41.6694 28.9672 43.7163L31.9772 45.8394C33.4864 46.9039 35.572 46.5426 36.6353 45.0346L36.7344 44.8944C36.8323 44.7555 36.912 44.6093 36.9797 44.4594C37.8002 44.4123 38.594 44.0172 39.1052 43.2934L39.8386 42.253C39.9776 42.0561 40.0694 41.841 40.1298 41.6211C41.2415 41.9425 42.48 41.5594 43.1845 40.5602L43.918 39.5198C44.278 39.0086 44.3614 38.3924 44.2152 37.8317C45.1082 37.9888 46.0531 37.642 46.6113 36.8518L47.346 35.8102C48.1157 34.7191 47.8547 33.2111 46.7636 32.4414Z" fill="url(#paint0_radial_2230_13837)"/>
<g id="Group" opacity="0.56">
<path id="Vector_2" opacity="0.182" d="M9.33768 32.5368C9.83189 33.1929 10.8602 34.0472 12.0697 34.8133L14.9383 31.4952C14.9383 31.4952 11.2046 29.3831 10.5194 28.4744C9.7908 27.5065 7.30284 26.0166 6.15614 25.6251L3.07609 24.5715C2.67614 24.4349 2.78247 22.9753 3.27184 20.8812C1.88347 24.9557 1.26601 28.42 1.89434 28.6351L4.97439 29.6888C6.12109 30.0803 8.60905 31.5689 9.33768 32.5368Z" fill="url(#paint1_linear_2230_13837)"/>
<path id="Vector_3" opacity="0.256" d="M14.686 31.7598C14.564 31.6861 11.0828 29.6912 10.4121 28.8018C9.68351 27.834 7.19555 26.3441 6.04884 25.9526L2.9688 24.8989C2.5918 24.7696 2.68242 23.4223 3.12467 21.4878C1.85955 25.2481 1.30492 28.4333 1.89338 28.6351L4.97342 29.6888C6.12013 30.0815 8.60809 31.5701 9.33672 32.538C9.83213 33.1965 10.852 34.0448 12.0688 34.8145L14.686 31.7598Z" fill="url(#paint2_linear_2230_13837)"/>
<path id="Vector_4" opacity="0.331" d="M14.4335 32.0244C14.1906 31.8758 10.9607 29.9993 10.3046 29.128C9.576 28.1602 7.08804 26.6703 5.94133 26.2788L2.86129 25.2251C2.50846 25.1043 2.58216 23.8694 2.97729 22.0919C1.83541 25.5393 1.34362 28.4453 1.89341 28.6338L4.97346 29.6875C6.12016 30.0802 8.60812 31.5689 9.33675 32.5368C9.83458 33.1977 10.8447 34.0411 12.0688 34.8133L14.4335 32.0244Z" fill="url(#paint3_linear_2230_13837)"/>
<path id="Vector_5" opacity="0.405" d="M14.1813 32.2891C13.8164 32.0668 10.8379 30.3075 10.1974 29.4556C9.46881 28.4877 6.98085 26.9978 5.83415 26.6063L2.75531 25.5515C2.42544 25.4391 2.48223 24.3166 2.83265 22.6974C1.81402 25.8318 1.38506 28.4587 1.89498 28.6327L4.97502 29.6864C6.12173 30.0791 8.60969 31.5678 9.33831 32.5356C9.83735 33.199 10.8391 34.0376 12.0704 34.8121L14.1813 32.2891Z" fill="url(#paint4_linear_2230_13837)"/>
<path id="Vector_6" opacity="0.479" d="M13.9301 32.5537C13.4443 32.2565 10.7171 30.6156 10.09 29.783C9.36137 28.8152 6.87341 27.3253 5.7267 26.9338L2.64666 25.8801C2.33974 25.775 2.38082 24.7648 2.68411 23.304C1.78874 26.1254 1.42262 28.472 1.89387 28.6339L4.97391 29.6876C6.12062 30.0803 8.60857 31.569 9.3372 32.5368C9.83866 33.2026 10.8307 34.0352 12.0692 34.8133L13.9301 32.5537Z" fill="url(#paint5_linear_2230_13837)"/>
<path id="Vector_7" opacity="0.554" d="M13.6785 32.8184C13.0707 32.4474 10.596 30.9249 9.98339 30.1105C9.25476 29.1426 6.7668 27.6527 5.6201 27.2612L2.54005 26.2076C2.2573 26.1109 2.28147 25.2131 2.53885 23.9105C1.76551 26.419 1.46343 28.4865 1.8948 28.6339L4.97485 29.6876C6.12155 30.0803 8.60951 31.5689 9.33814 32.5368C9.8408 33.205 10.8244 34.0327 12.0702 34.8133L13.6785 32.8184Z" fill="url(#paint6_linear_2230_13837)"/>
<path id="Vector_8" opacity="0.628" d="M13.4251 33.083C12.6964 32.6371 10.4731 31.233 9.87497 30.4379C9.14635 29.47 6.65839 27.9802 5.51168 27.5887L2.43164 26.535C2.17185 26.4456 2.1791 25.6602 2.39055 24.5159C1.74047 26.7114 1.50001 28.4997 1.89393 28.6339L4.97397 29.6875C6.12068 30.0802 8.60864 31.5689 9.33726 32.5368C9.84235 33.2074 10.8163 34.0291 12.0693 34.8133L13.4251 33.083Z" fill="url(#paint7_linear_2230_13837)"/>
<path id="Vector_9" opacity="0.703" d="M13.1737 33.3475C12.3231 32.828 10.3523 31.5411 9.76864 30.7653C9.04002 29.7975 6.55206 28.3076 5.40535 27.9161L2.32531 26.8612C2.08848 26.7803 2.08002 26.1072 2.24556 25.1212C1.71873 27.0038 1.5411 28.5118 1.89515 28.6326L4.97519 29.6863C6.1219 30.079 8.60985 31.5677 9.33848 32.5355C9.84477 33.2086 10.8102 34.0254 12.0705 34.812L13.1737 33.3475Z" fill="url(#paint8_linear_2230_13837)"/>
<path id="Vector_10" opacity="0.777" d="M12.9212 33.6123C11.9497 33.0178 10.2303 31.8493 9.65994 31.0917C8.93132 30.1238 6.44336 28.6339 5.29665 28.2424L2.21661 27.1888C2.00394 27.1163 1.97857 26.5556 2.09698 25.7279C1.6934 27.2975 1.57861 28.5264 1.89398 28.6339L4.97403 29.6876C6.12073 30.0803 8.60869 31.569 9.33732 32.5369C9.84603 33.2123 10.8018 34.0231 12.0694 34.8134L12.9212 33.6123Z" fill="url(#paint9_linear_2230_13837)"/>
<path id="Vector_11" opacity="0.851" d="M12.6694 33.8769C11.5759 33.2087 10.109 32.1574 9.55313 31.4191C8.82451 30.4513 6.33655 28.9614 5.18984 28.5699L2.1098 27.5162C1.92009 27.451 1.8778 27.0027 1.95151 26.3333C1.67117 27.5899 1.61922 28.5385 1.89592 28.6339L4.97597 29.6876C6.12267 30.0803 8.61063 31.569 9.33926 32.5368C9.85038 33.2147 10.7965 34.0207 12.0713 34.8133L12.6694 33.8769Z" fill="url(#paint10_linear_2230_13837)"/>
<path id="Vector_12" opacity="0.926" d="M12.4169 34.1415C11.2025 33.3984 9.98693 32.4655 9.44559 31.7466C8.71697 30.7787 6.22901 29.2888 5.0823 28.8973L2.00226 27.8437C1.83672 27.7869 1.77751 27.4509 1.80409 26.9398C1.64701 27.8835 1.65788 28.5529 1.89472 28.6339L4.97476 29.6876C6.12147 30.0803 8.60943 31.5689 9.33805 32.5368C9.85038 33.2183 10.7881 34.017 12.0701 34.8133L12.4169 34.1415Z" fill="url(#paint11_linear_2230_13837)"/>
<path id="Vector_13" d="M12.1644 34.4061C10.828 33.5893 9.86376 32.7736 9.33814 32.074C8.60951 31.1061 6.12155 29.6163 4.97484 29.2248L1.8948 28.1711C1.75222 28.1227 1.6773 27.898 1.65676 27.5452C1.62172 28.1747 1.69663 28.5662 1.8948 28.6339L4.97484 29.6875C6.12155 30.0803 8.60951 31.5689 9.33814 32.5368C9.85289 33.2207 10.7809 34.0146 12.0702 34.8133L12.1644 34.4061Z" fill="#754934"/>
</g>
<path id="Vector_14" opacity="0.1" d="M34.727 38.6861C37.2923 40.4696 38.8921 42.6071 38.3 43.4602C37.7079 44.3133 35.1463 43.5581 32.581 41.7746C30.0157 39.9911 28.4158 37.8535 29.0079 37.0004C29.6 36.1486 32.1605 36.9026 34.727 38.6861Z" fill="url(#paint12_radial_2230_13837)"/>
<path id="Vector_15" d="M35.2142 43.9664L29.0046 39.6394L27.8555 39.5077L35.5731 45.93C35.8039 45.8527 36.3887 45.4636 36.6352 45.0334L36.7343 44.8932C36.8322 44.7543 36.9119 44.6081 36.9796 44.4582C36.3718 44.4945 35.7495 44.3447 35.2142 43.9664Z" fill="url(#paint13_linear_2230_13837)"/>
<path id="Vector_16" opacity="0.091" d="M13.8472 30.6821C13.4339 30.9829 12.8709 31.4336 12.4189 31.9701C11.9996 32.4873 11.6758 33.0951 11.6927 33.7234C11.6734 34.0702 11.8679 34.4098 12.1241 34.7614C12.1712 34.7916 12.4975 34.9197 12.9095 35.1444C15.7165 36.6609 26.3885 42.4706 29.2305 44.0027C29.6087 44.2045 29.8721 44.3531 29.8721 44.3531C29.9603 44.2359 31.3946 41.7673 31.4985 41.5498L31.4997 41.5486C31.9069 40.7861 32.1281 39.9681 32.1124 39.2467C32.0991 38.4383 31.7958 37.8233 31.246 37.5176C30.6672 37.195 30.1959 37.4741 29.4818 37.0995C29.4347 37.0741 29.4009 37.0113 29.3791 36.9086C29.332 36.679 29.3513 36.2501 29.4033 35.5951C29.4057 35.5625 29.4081 35.5287 29.4105 35.4961C29.4685 34.4956 29.1713 33.7077 28.5224 33.2908C27.8494 32.8571 26.983 32.8788 26.0755 33.3247C25.2901 33.7138 24.9832 33.4963 24.8805 33.3041C24.8394 33.2268 24.8321 33.1241 24.7923 32.99C24.698 32.6698 24.5156 32.1671 23.6214 31.3781C23.3689 31.1545 23.0571 31.0204 22.7031 30.9684C22.2511 30.9032 21.7364 30.9817 21.2047 31.1968C20.5136 31.4771 20.0484 31.5303 19.7173 31.4663C19.6617 31.4554 19.6121 31.4373 19.565 31.4216C19.2327 31.3104 19.1892 30.6083 18.7071 30.1891C18.4123 29.9329 18.0389 29.7541 17.5942 29.7033C17.2921 29.6683 16.9562 29.7033 16.5998 29.8096C16.3738 29.8761 16.1225 29.9196 15.8554 29.9643C15.215 30.0718 14.4852 30.1854 13.8472 30.6821Z" fill="url(#paint14_linear_2230_13837)"/>
<path id="Vector_17" opacity="0.182" d="M13.7159 30.9345C13.2978 31.2451 12.7661 31.703 12.365 32.2432C12.0327 32.7374 11.8007 33.3186 11.8696 33.9119C11.8526 34.2236 12.1378 34.5124 12.3674 34.829C12.4097 34.8556 12.7819 34.9595 13.154 35.1613C15.7374 36.5485 26.2874 42.3908 29.2043 43.9737C29.5439 44.1561 29.8375 44.3277 29.8375 44.3277C29.9209 44.2165 31.2597 41.9014 31.3902 41.6065L31.3914 41.6053C31.7732 40.8658 31.975 40.0732 31.9533 39.3723C31.9291 38.6026 31.6355 38.0118 31.1002 37.7048C30.5009 37.3629 30.0199 37.6323 29.3336 37.2928C29.2829 37.2674 29.2442 37.2082 29.2188 37.1091C29.162 36.888 29.1789 36.4748 29.2321 35.8005C29.2345 35.7679 29.2369 35.7353 29.2394 35.7026C29.301 34.6973 29.0194 33.907 28.3645 33.4974C27.6758 33.066 26.8227 33.0987 25.9454 33.518C25.1951 33.8768 24.8797 33.6968 24.7564 33.5155C24.7081 33.4455 24.696 33.3476 24.6477 33.2219C24.5257 32.9005 24.3541 32.4015 23.5082 31.6293C23.2666 31.4082 22.9669 31.2668 22.6177 31.1992C22.1767 31.1158 21.6704 31.1702 21.1459 31.3671C20.4838 31.616 20.0234 31.6813 19.6814 31.6378C19.6271 31.6305 19.5787 31.6136 19.5304 31.6028C19.1582 31.5158 19.0845 30.8741 18.6278 30.4887C18.3341 30.241 17.9729 30.0271 17.5222 29.9377C17.2201 29.8773 16.8781 29.8966 16.512 29.9908C16.28 30.05 16.0214 30.0948 15.7483 30.1467C15.0982 30.27 14.3527 30.4198 13.7159 30.9345Z" fill="url(#paint15_linear_2230_13837)"/>
<path id="Vector_18" opacity="0.273" d="M13.586 31.1871C13.1643 31.5085 12.6616 31.9725 12.3112 32.515C12.0659 32.9863 11.9245 33.5397 12.0466 34.0992C12.0309 34.3759 12.4067 34.6139 12.6121 34.8954C12.6508 34.9196 13.0688 34.9982 13.3987 35.1782C15.7598 36.4349 26.1865 42.3098 29.1783 43.9459C29.4804 44.1078 29.8018 44.3035 29.8018 44.3035C29.8816 44.1972 31.1238 42.0379 31.2808 41.6645L31.282 41.6633C31.6373 40.9468 31.8246 40.1795 31.7932 39.5004C31.7605 38.7682 31.4754 38.2002 30.9534 37.8957C30.3359 37.532 29.8417 37.7954 29.1832 37.4897C29.1288 37.4644 29.0865 37.4076 29.0563 37.3121C28.9898 37.1007 29.0043 36.7019 29.0599 36.0071C29.0623 35.9757 29.0648 35.9431 29.0672 35.9117C29.1312 34.9015 28.8666 34.11 28.2056 33.7064C27.5012 33.2763 26.6626 33.3222 25.8143 33.7149C25.099 34.046 24.7752 33.9022 24.6314 33.7318C24.577 33.6678 24.5577 33.5747 24.5021 33.4587C24.3498 33.1373 24.1928 32.6383 23.394 31.8855C23.1633 31.668 22.8745 31.5169 22.5325 31.436C22.1011 31.3333 21.6045 31.3659 21.0885 31.5435C20.4566 31.761 20.001 31.8372 19.6482 31.8142C19.595 31.8106 19.5467 31.7961 19.4996 31.7888C19.0839 31.7296 18.9836 31.146 18.5523 30.7919C18.261 30.5539 17.9118 30.3038 17.4539 30.1757C17.1518 30.0911 16.8038 30.0935 16.4268 30.1757C16.1875 30.2289 15.9229 30.2724 15.6426 30.3316C14.9816 30.4681 14.2204 30.6542 13.586 31.1871Z" fill="url(#paint16_linear_2230_13837)"/>
<path id="Vector_19" opacity="0.364" d="M13.4543 31.4409C13.029 31.7732 12.5565 32.2432 12.2569 32.7882C12.0998 33.2365 12.0478 33.7633 12.223 34.2877C12.2097 34.5306 12.6761 34.7167 12.855 34.9644C12.8888 34.9849 13.3528 35.0393 13.6416 35.1964C15.7804 36.3237 26.0838 42.2313 29.1506 43.9181C29.4152 44.0595 29.7656 44.2782 29.7656 44.2782C29.8417 44.1779 30.9896 42.1733 31.1709 41.7202L31.1721 41.719C31.5008 41.0254 31.6724 40.2835 31.6325 39.6249C31.5902 38.9313 31.3135 38.3876 30.806 38.0831C30.168 37.7012 29.6617 37.9586 29.0334 37.6831C28.9754 37.6577 28.9282 37.6046 28.8932 37.5127C28.8171 37.3097 28.8291 36.9255 28.8859 36.2114C28.8884 36.18 28.8908 36.1485 28.8932 36.1171C28.9596 35.1033 28.7119 34.3082 28.0437 33.9119C27.3236 33.4842 26.4995 33.5422 25.6802 33.9083C25.0011 34.2116 24.6701 34.1028 24.5021 33.9445C24.4417 33.8865 24.4139 33.7983 24.3523 33.6908C24.1674 33.3682 24.0272 32.8715 23.2769 32.1381C23.0557 31.923 22.7802 31.7647 22.4443 31.668C22.0238 31.5472 21.5356 31.5557 21.0281 31.714C20.4252 31.9012 19.9769 31.9858 19.612 31.9858C19.56 31.9858 19.5117 31.9737 19.4646 31.9701C19.0042 31.9411 18.8785 31.4131 18.4725 31.0917C18.1825 30.8621 17.8454 30.5781 17.3814 30.4102C17.0793 30.3014 16.7241 30.2857 16.3386 30.3582C16.0933 30.4041 15.8226 30.4488 15.5351 30.5153C14.8632 30.6663 14.0863 30.8875 13.4543 31.4409Z" fill="url(#paint17_linear_2230_13837)"/>
<path id="Vector_20" opacity="0.455" d="M13.3246 31.6934C12.8956 32.0354 12.4533 32.5139 12.2032 33.06C12.1331 33.4854 12.173 33.9856 12.4002 34.475C12.3893 34.6828 12.9451 34.8194 13.0998 35.0308C13.1288 35.049 13.6387 35.078 13.8864 35.2121C15.8016 36.209 25.9831 42.1503 29.1235 43.8879C29.3507 44.0088 29.7301 44.2516 29.7301 44.2516C29.8014 44.1562 30.8575 42.3086 31.0605 41.7758V41.7745C31.3626 41.1039 31.5184 40.3874 31.4701 39.7506C31.4193 39.0945 31.1511 38.5737 30.6557 38.2716C29.9983 37.8692 29.4788 38.1242 28.8806 37.8789C28.819 37.8535 28.7671 37.8028 28.7284 37.7158C28.6426 37.5224 28.6523 37.1527 28.7103 36.418C28.7127 36.3878 28.7151 36.3564 28.7175 36.325C28.7864 35.3063 28.5556 34.51 27.8813 34.1198C27.1455 33.6944 26.3359 33.7657 25.5456 34.1028C24.9016 34.3783 24.5645 34.3046 24.3736 34.1572C24.3071 34.1053 24.2708 34.0231 24.2032 33.924C23.9833 33.6014 23.8624 33.1048 23.1592 32.3906C22.9489 32.178 22.6843 32.0124 22.3556 31.9013C21.946 31.7623 21.4675 31.749 20.9661 31.8868C20.3933 32.0438 19.9511 32.1369 19.5741 32.1598C19.5233 32.1635 19.475 32.1538 19.4291 32.155C18.9228 32.1598 18.7717 31.685 18.3923 31.3938C18.1047 31.1738 17.7797 30.8548 17.3084 30.647C17.0051 30.5141 16.6451 30.4815 16.2487 30.5419C15.9974 30.5805 15.7195 30.6265 15.4258 30.699C14.7468 30.8645 13.9553 31.1219 13.3246 31.6934Z" fill="url(#paint18_linear_2230_13837)"/>
<path id="Vector_21" opacity="0.545" d="M13.1944 31.9459C12.7606 32.2988 12.3498 32.7833 12.1504 33.3319C12.1673 33.7343 12.2978 34.2067 12.5793 34.6623C12.5697 34.8351 13.2173 34.9209 13.3454 35.0973C13.3696 35.1118 13.9266 35.1166 14.1321 35.229C15.8249 36.0966 25.8831 42.0706 29.0985 43.8589C29.287 43.9604 29.6954 44.225 29.6954 44.225C29.7631 44.1356 30.7273 42.4439 30.9521 41.8313C31.2288 41.1849 31.3689 40.4913 31.3109 39.875C31.2517 39.2576 30.9919 38.7597 30.5098 38.4577C29.8331 38.0347 29.2978 38.2885 28.7311 38.071C28.6659 38.0456 28.6091 37.9985 28.5656 37.9139C28.4701 37.7302 28.4774 37.375 28.5366 36.621C28.539 36.5908 28.5414 36.5606 28.5438 36.5304C28.6151 35.5081 28.4013 34.7082 27.721 34.3252C26.9694 33.901 26.1743 33.9868 25.4131 34.2962C24.8053 34.5439 24.4609 34.504 24.247 34.3699C24.1745 34.3239 24.1286 34.2478 24.0561 34.1572C23.7999 33.8358 23.7008 33.3379 23.0435 32.6444C22.8441 32.4329 22.5904 32.2613 22.269 32.1344C21.869 31.9774 21.4014 31.9411 20.9072 32.0583C20.3646 32.1876 19.9272 32.2843 19.5381 32.3326C19.4874 32.3387 19.4403 32.3338 19.3956 32.3374C18.8446 32.3797 18.6669 31.9544 18.3141 31.6946C18.0277 31.4844 17.7148 31.1303 17.2375 30.8826C16.9342 30.7255 16.5668 30.6748 16.1621 30.7243C15.9035 30.7557 15.6195 30.8029 15.3198 30.8814C14.6299 31.0627 13.8227 31.3551 13.1944 31.9459Z" fill="url(#paint19_linear_2230_13837)"/>
<path id="Vector_22" opacity="0.636" d="M13.0624 32.1997C12.625 32.5622 12.2443 33.0539 12.0957 33.6049C12.2008 33.9832 12.422 34.4302 12.7555 34.8507C12.7482 34.9897 13.4865 35.0235 13.5892 35.1649C13.6085 35.177 14.2115 35.1564 14.377 35.2459C15.8476 35.9842 25.7825 41.9896 29.0728 43.8311C29.2238 43.912 29.6612 44.2008 29.6612 44.2008C29.7253 44.1162 30.6013 42.5829 30.8442 41.8893C31.0943 41.2658 31.22 40.5976 31.1523 40.0031C31.0859 39.4231 30.8333 38.9482 30.3645 38.6485C29.6685 38.2051 29.1175 38.4588 28.5834 38.2679C28.5145 38.2425 28.4541 38.1978 28.4058 38.1181C28.3019 37.9429 28.3055 37.6033 28.3659 36.8288C28.3683 36.7998 28.3707 36.7696 28.3732 36.7394C28.4469 35.7123 28.2499 34.9111 27.5624 34.5341C26.7951 34.1124 26.0145 34.2103 25.2835 34.4919C24.7119 34.7118 24.3615 34.7057 24.1222 34.5849C24.0437 34.545 23.9881 34.4749 23.9108 34.3928C23.616 34.0738 23.5398 33.5735 22.9308 32.8993C22.7423 32.6902 22.5007 32.5114 22.1853 32.3688C21.7962 32.1936 21.3382 32.1368 20.8513 32.2323C20.3402 32.3326 19.9076 32.4329 19.5064 32.5078C19.4569 32.5174 19.4097 32.5162 19.365 32.5223C18.7705 32.6069 18.5651 32.2262 18.2389 31.9966C17.9537 31.7961 17.6528 31.407 17.1683 31.1194C16.865 30.9394 16.4916 30.8705 16.076 30.9079C15.8113 30.9321 15.5201 30.9804 15.2144 31.0662C14.5112 31.2608 13.6883 31.5894 13.0624 32.1997Z" fill="url(#paint20_linear_2230_13837)"/>
<path id="Vector_23" opacity="0.727" d="M12.9335 32.4522C12.4925 32.8255 12.1408 33.3234 12.043 33.8768C12.2351 34.232 12.5468 34.6513 12.9335 35.038C12.9275 35.1419 13.7564 35.1262 13.8337 35.2313C13.8482 35.2398 14.4971 35.1951 14.6216 35.2615C15.8686 35.8693 25.6814 41.9086 29.0466 43.8008C29.1602 43.8612 29.6266 44.1742 29.6266 44.1742C29.6858 44.0957 30.4773 42.7206 30.7359 41.9448C30.9594 41.3443 31.0706 40.7014 30.9921 40.1287C30.9183 39.5874 30.6731 39.1342 30.2175 38.837C29.5034 38.3718 28.9355 38.6292 28.4328 38.4624C28.3591 38.4382 28.2951 38.3959 28.2431 38.3198C28.1295 38.1543 28.1307 37.828 28.1936 37.0342C28.196 37.0052 28.1984 36.9762 28.1996 36.946C28.2757 35.914 28.0957 35.1117 27.4021 34.7407C26.6191 34.3214 25.8542 34.4338 25.151 34.6864C24.6157 34.8785 24.258 34.9051 23.9958 34.7975C23.9112 34.7637 23.8448 34.7009 23.7638 34.6247C23.4291 34.3106 23.3783 33.8043 22.8153 33.1506C22.6376 32.9439 22.4068 32.7579 22.0987 32.6008C21.7193 32.4074 21.2722 32.3301 20.7913 32.4038C20.3104 32.4775 19.8826 32.5778 19.4706 32.6805C19.4223 32.6926 19.3751 32.6962 19.3316 32.7047C18.6948 32.8352 18.4592 32.4969 18.1608 32.2975C17.8756 32.1078 17.588 31.6837 17.0974 31.355C16.7941 31.152 16.4135 31.065 15.9894 31.0916C15.7175 31.1085 15.4203 31.158 15.1085 31.2499C14.3956 31.4589 13.557 31.8226 12.9335 32.4522Z" fill="url(#paint21_linear_2230_13837)"/>
<path id="Vector_24" opacity="0.818" d="M12.8015 32.7048C12.3568 33.0878 12.0354 33.5929 11.9883 34.1487C12.2686 34.481 12.671 34.8737 13.1096 35.2253C13.106 35.2942 14.0255 35.2278 14.0763 35.2978C14.0859 35.3039 14.7819 35.2326 14.8641 35.2773C15.8888 35.7558 25.5784 41.8277 29.0185 43.7707C29.0947 43.8105 29.5889 44.1465 29.5889 44.1465C29.6444 44.0728 30.3537 42.8584 30.6244 41.998C30.8214 41.4205 30.9192 40.803 30.8298 40.2508C30.7489 39.7469 30.5108 39.3155 30.0686 39.0219C29.3351 38.535 28.7515 38.796 28.2814 38.6534C28.2041 38.6304 28.1352 38.5893 28.0784 38.5168C27.9552 38.3598 27.954 38.0492 28.018 37.236C28.0204 37.2082 28.0229 37.1792 28.0241 37.1502C28.1026 36.1147 27.9395 35.3087 27.2399 34.945C26.4399 34.5281 25.6908 34.6538 25.0165 34.8773C24.5175 35.0429 24.1538 35.1009 23.8674 35.0078C23.778 34.9788 23.7007 34.9245 23.6149 34.8556C23.2391 34.5499 23.2149 34.0351 22.6977 33.402C22.531 33.1978 22.3111 33.0044 22.009 32.8316C21.6392 32.6202 21.203 32.5235 20.7294 32.573C20.2799 32.6202 19.8545 32.7205 19.4328 32.851C19.3857 32.8655 19.3386 32.8739 19.2963 32.886C18.6196 33.066 18.3526 32.7664 18.0807 32.596C17.7955 32.4172 17.5212 31.958 17.0246 31.5883C16.7201 31.3611 16.3347 31.256 15.8997 31.2717C15.6217 31.2813 15.3184 31.3321 14.9982 31.43C14.2781 31.6583 13.4238 32.0571 12.8015 32.7048Z" fill="url(#paint22_linear_2230_13837)"/>
<path id="Vector_25" opacity="0.909" d="M12.6707 32.9585C12.2212 33.3524 11.9312 33.8648 11.9336 34.423C12.3009 34.7324 12.7939 35.0985 13.2857 35.4163C13.2833 35.4513 14.2947 35.3329 14.3201 35.3679C14.3249 35.3704 15.0668 35.2749 15.1079 35.2979C15.9102 35.6471 25.4778 41.7503 28.9916 43.7465C29.0291 43.7671 29.5535 44.1259 29.5535 44.1259C29.6043 44.0583 30.2362 43.0034 30.5154 42.0597C30.6869 41.5063 30.7703 40.913 30.67 40.3825C30.5818 39.9161 30.3522 39.5065 29.9209 39.2153C29.1705 38.7041 28.5687 38.9736 28.1313 38.854C28.0504 38.8322 27.9779 38.7936 27.9162 38.7247C27.7845 38.5761 27.7797 38.2812 27.8449 37.4475C27.8474 37.4197 27.8498 37.3919 27.851 37.3629C27.9319 36.3225 27.7857 35.5166 27.0801 35.1577C26.2644 34.7444 25.531 34.8834 24.8845 35.0779C24.4217 35.2169 24.0508 35.3051 23.7414 35.2278C23.646 35.2036 23.5578 35.1589 23.4684 35.0961C23.0503 34.8012 23.0551 34.2744 22.5839 33.6618C22.428 33.4588 22.2189 33.2594 21.9241 33.0709C21.564 32.8425 21.1399 32.7265 20.6723 32.7519C20.2542 32.7749 19.8313 32.8703 19.3999 33.031C19.354 33.0479 19.3081 33.0612 19.2646 33.0757C18.5492 33.3077 18.2471 33.0455 18.0043 32.9041C17.7191 32.7374 17.4569 32.242 16.9554 31.8324C16.6497 31.5822 16.2582 31.459 15.8148 31.4626C15.5296 31.465 15.2203 31.5158 14.894 31.6221C14.1606 31.8565 13.2906 32.2903 12.6707 32.9585Z" fill="url(#paint23_linear_2230_13837)"/>
<path id="Vector_26" d="M29.5187 44.0981C29.6105 43.9761 31.6526 40.6991 29.7761 39.4025C28.8444 38.7585 28.1339 39.2962 27.7557 38.924C27.6095 38.7802 27.6071 38.4866 27.6808 37.5683C27.7642 36.5231 27.6349 35.7147 26.922 35.3631C25.3415 34.5813 24.1694 35.8452 23.3236 35.3268C22.7061 34.9498 22.9768 34.1052 21.8397 33.3016C21.1957 32.8461 20.3293 32.7845 19.3663 33.2013C18.5216 33.5687 18.1555 33.3234 17.9283 33.2013C17.642 33.0491 17.3906 32.5186 16.8868 32.0643C16.3805 31.6196 15.6386 31.5157 14.7891 31.8021C14.0436 32.0546 13.1591 32.5247 12.5416 33.211C12.0885 33.6158 11.8287 34.1342 11.8818 34.6948C12.3362 34.9812 12.9198 35.3196 13.466 35.6035L15.3558 35.3147C15.9346 35.5334 25.3801 41.6706 28.9689 43.7175L29.5187 44.0981Z" fill="#754934"/>
<path id="Vector_27" d="M17.7141 40.7933C18.4657 41.279 19.471 41.0809 19.987 40.3498C20.7772 39.2309 21.2714 38.5313 21.298 38.4938C21.9711 37.6081 22.4109 36.6173 22.5378 35.705C22.6828 34.667 22.4133 33.8309 21.7814 33.35C21.147 32.8811 20.2709 32.8328 19.3079 33.2497C18.4633 33.617 17.6259 34.307 16.9722 35.1685L15.7022 36.6741C14.8866 37.6407 15.1041 39.104 16.1662 39.7916L17.7141 40.7933Z" fill="url(#paint24_radial_2230_13837)"/>
<path id="Vector_28" d="M21.6961 43.4069C22.8827 44.1754 24.4741 43.8141 25.2196 42.613C26.0183 41.3274 26.5234 40.5142 26.55 40.4731C27.1699 39.5487 27.5505 38.5349 27.623 37.6154C27.7064 36.5702 27.3886 35.7521 26.7288 35.3087C26.0679 34.8785 25.1906 34.8809 24.253 35.3546C23.4313 35.7714 22.6362 36.5085 22.0345 37.4075L19.6818 40.5564C19.2601 41.1195 19.4039 41.9219 19.9948 42.3049L21.6961 43.4069Z" fill="url(#paint25_radial_2230_13837)"/>
<path id="Vector_29" d="M25.7526 44.7699C27.1059 45.6459 28.9136 45.1529 29.6531 43.7211L29.6543 43.7199C30.0881 42.9332 30.3237 42.091 30.3177 41.3479C30.3128 40.5021 29.9999 39.8665 29.438 39.5559C28.8773 39.2563 28.1717 39.3191 27.4515 39.765C26.8195 40.1577 26.2323 40.8054 25.8106 41.5702L24.8669 43.0903C24.595 43.5289 24.7243 44.1041 25.1569 44.3844L25.7526 44.7699Z" fill="url(#paint26_radial_2230_13837)"/>
<path id="Vector_30" d="M13.529 36.7974C14.3217 37.3109 15.3802 37.1925 16.0109 36.4904C16.0496 36.4469 16.0327 36.4699 16.046 36.4554C16.6828 35.7497 17.1274 34.939 17.3014 34.1717C17.4996 33.2992 17.3304 32.5694 16.8266 32.1139C16.3203 31.6692 15.5784 31.5653 14.7289 31.8517C13.9834 32.1042 13.2221 32.6298 12.6047 33.3162C11.6622 34.1572 11.7782 35.6652 12.8391 36.3515L13.529 36.7974Z" fill="url(#paint27_radial_2230_13837)"/>
<path id="Vector_31" d="M43.2431 37.4329L31.8292 29.464L31.3398 29.7854L43.2733 40.4332L43.9186 39.5185C44.2787 39.0074 44.362 38.3912 44.2158 37.8305C43.8751 37.7713 43.5428 37.6444 43.2431 37.4329Z" fill="url(#paint28_linear_2230_13837)"/>
<path id="Vector_32" d="M39.293 41.232L30.8286 35.1202L30.4238 35.3353L39.2386 43.1025L39.838 42.253C39.9769 42.0561 40.0687 41.841 40.1292 41.6211C39.838 41.5377 39.554 41.4169 39.293 41.232Z" fill="url(#paint29_linear_2230_13837)"/>
<path id="Vector_33" opacity="0.05" d="M22.7135 37.132C21.7082 38.7089 21.7348 40.5238 22.7727 41.186C23.8107 41.8482 25.4673 41.1063 26.4727 39.5294C27.478 37.9525 27.4514 36.1376 26.4134 35.4754C25.3755 34.8133 23.7189 35.5552 22.7135 37.132Z" fill="url(#paint30_radial_2230_13837)"/>
<path id="Vector_34" opacity="0.05" d="M26.5336 40.9432C25.7941 42.1032 25.8775 43.4783 26.7209 44.016C27.5631 44.5537 28.8463 44.0486 29.5858 42.8886C30.3253 41.7286 30.242 40.3535 29.3985 39.8158C28.5551 39.2781 27.2731 39.7832 26.5336 40.9432Z" fill="url(#paint31_radial_2230_13837)"/>
<path id="Vector_35" opacity="0.05" d="M17.5927 35.5878C16.4158 37.2807 16.2019 39.1669 17.1154 39.8013C18.0289 40.4356 19.723 39.5789 20.8987 37.886C22.0756 36.1932 22.2895 34.307 21.376 33.6726C20.4625 33.0382 18.7696 33.8949 17.5927 35.5878Z" fill="url(#paint32_radial_2230_13837)"/>
<path id="Vector_36" opacity="0.1" d="M39.7306 28.5602C43.7241 31.1062 46.3764 34.0871 45.6551 35.2193C44.9337 36.3516 41.1105 35.2061 37.117 32.6601C33.1234 30.1141 30.4711 27.1332 31.1925 26.001C31.9151 24.8688 35.7371 26.0143 39.7306 28.5602Z" fill="url(#paint33_radial_2230_13837)"/>
<path id="Vector_37" d="M54.8515 22.3083C53.5489 18.1951 51.9974 15.016 51.3872 15.2093L45.8736 17.0412C44.919 17.3433 43.9197 17.5318 42.9748 17.3602C41.6795 17.1245 40.0373 16.2038 39.3788 15.7869L34.0138 12.5776C32.6182 11.7426 30.9809 11.4007 29.3677 11.6085L20.8055 12.7081C20.1856 12.7878 19.6201 13.1044 19.2286 13.5914L13.8346 20.3085C13.4165 20.8293 13.4999 21.5893 14.0207 22.0074C18.8069 24.4084 21.278 22.0123 22.4186 20.3556C22.8875 19.6741 23.6475 19.2536 24.474 19.2657L26.0907 19.2899C27.4815 19.3104 28.8337 19.7539 29.9671 20.5611L47.6269 33.547C47.6269 33.547 48.4546 32.5115 49.884 32.1635L56.1057 30.1069C56.7147 29.9135 56.1541 26.4227 54.8515 22.3083Z" fill="url(#paint34_radial_2230_13837)"/>
<path id="Vector_38" opacity="0.1" d="M36.2989 32.857C39.9856 35.4199 42.3539 38.3912 41.5878 39.4944C40.8217 40.5964 37.2112 39.4122 33.5246 36.8493C29.838 34.2864 27.4696 31.3151 28.2357 30.2119C29.0018 29.1087 32.6123 30.2941 36.2989 32.857Z" fill="url(#paint35_radial_2230_13837)"/>
<g id="Group_2" opacity="0.71">
<path id="Vector_39" opacity="0.091" d="M47.4968 33.5566L29.5603 20.9561C29.2885 20.7688 28.9924 20.6251 28.6867 20.5296C27.65 19.9979 26.2858 19.9411 25.1475 20.1864L24.692 20.2843C24.2352 20.352 23.8425 20.5236 23.5851 20.9151C21.3666 24.2948 17.4637 25.2989 13.9668 21.9639L14.1432 21.802C17.216 23.2604 20.1257 21.8201 21.717 19.3962C22.3744 18.3945 23.4546 17.7843 24.617 17.7589C24.634 17.7589 24.6521 17.7577 24.6714 17.7577L26.287 17.7468C27.911 17.7347 29.4794 18.2108 30.823 19.1255L48.774 31.7357L47.4968 33.5566Z" fill="url(#paint36_linear_2230_13837)"/>
<path id="Vector_40" opacity="0.182" d="M47.5003 33.5675L29.5916 20.9283C29.2363 20.6806 28.8388 20.5078 28.4255 20.4208C27.4927 19.9423 26.1031 19.8879 25.0784 20.1091C25.076 20.1091 24.6676 20.1973 24.6652 20.1973C24.1807 20.2577 23.7553 20.451 23.4798 20.8667C21.2819 24.2005 17.4817 25.1514 13.9727 21.9687L14.1237 21.8152C17.2352 23.3015 20.1497 21.9409 21.7737 19.4819C22.4153 18.5068 23.4677 17.9159 24.5975 17.893C24.6144 17.893 24.6326 17.8918 24.6495 17.8918L26.265 17.8845C27.8697 17.8761 29.4188 18.3497 30.7443 19.2548L48.6663 31.9024L47.5003 33.5675Z" fill="url(#paint37_linear_2230_13837)"/>
<path id="Vector_41" opacity="0.273" d="M47.5057 33.5796L29.6248 20.9005C29.1849 20.5924 28.6859 20.3918 28.1675 20.3109C27.3386 19.8855 25.9236 19.8348 25.0126 20.0317C25.0089 20.0317 24.6452 20.1091 24.6416 20.1091C24.1281 20.1634 23.6713 20.3761 23.3765 20.8184C21.193 24.1026 17.5003 25.004 13.9805 21.9747L14.1061 21.8309C17.2551 23.3438 20.1756 22.0641 21.8322 19.5689C22.4581 18.6216 23.4816 18.0489 24.5812 18.0283C24.5981 18.0283 24.615 18.0271 24.6319 18.0271L26.2475 18.0223C27.8328 18.0162 29.3613 18.4875 30.6688 19.3853L48.563 32.0728L47.5057 33.5796Z" fill="url(#paint38_linear_2230_13837)"/>
<path id="Vector_42" opacity="0.364" d="M47.5079 33.5905L29.6548 20.874C29.1316 20.5054 28.531 20.2759 27.9063 20.2034C27.1801 19.8312 25.741 19.7841 24.9435 19.9557C24.9387 19.9557 24.6185 20.0233 24.6148 20.0233C24.0723 20.0704 23.5841 20.3049 23.2712 20.7725C21.1082 24.0096 17.5171 24.8603 13.9863 21.982L14.0866 21.8467C17.2742 23.3873 20.1996 22.1874 21.8888 19.6572C22.499 18.7377 23.4947 18.183 24.5617 18.1649C24.5774 18.1649 24.5943 18.1649 24.6112 18.1637L26.2267 18.1625C27.7915 18.1601 29.3007 18.6289 30.59 19.517L48.454 32.2408L47.5079 33.5905Z" fill="url(#paint39_linear_2230_13837)"/>
<path id="Vector_43" opacity="0.455" d="M47.5121 33.6013L29.6868 20.8461C29.079 20.4172 28.3769 20.1586 27.6471 20.0933C27.0248 19.7743 25.5603 19.7308 24.8764 19.8783C24.8716 19.8783 24.5948 19.9363 24.59 19.9363C24.0185 19.9773 23.4989 20.2311 23.1678 20.7253C21.0254 23.9165 17.5358 24.714 13.9941 21.988L14.0691 21.8623C17.2953 23.4295 20.2255 22.3106 21.9474 19.7453C22.5419 18.8536 23.5098 18.3159 24.5441 18.3014C24.5598 18.3014 24.5755 18.3014 24.5924 18.3002L26.208 18.3026C27.7534 18.3038 29.2433 18.769 30.5145 19.6487L48.3495 32.4099L47.5121 33.6013Z" fill="url(#paint40_linear_2230_13837)"/>
<path id="Vector_44" opacity="0.545" d="M47.5175 33.6122L29.7187 20.8184C29.0276 20.329 28.224 20.0426 27.3867 19.9846C26.8683 19.7188 25.3784 19.6789 24.8081 19.801C24.802 19.801 24.57 19.8493 24.564 19.8493C23.9635 19.8831 23.4125 20.1586 23.0632 20.677C20.9426 23.8235 17.5532 24.5666 14.002 21.9941L14.0515 21.8769C17.3164 23.4719 20.2527 22.4327 22.006 19.8312C22.5847 18.9672 23.5236 18.4476 24.5277 18.4343C24.5435 18.4343 24.558 18.4343 24.5737 18.4343L26.1892 18.4404C27.7153 18.444 29.1847 18.9068 30.4377 19.7792L48.2437 32.5779L47.5175 33.6122Z" fill="url(#paint41_linear_2230_13837)"/>
<path id="Vector_45" opacity="0.636" d="M47.5209 33.6231L29.75 20.7906C28.9742 20.2408 28.0692 19.9255 27.1267 19.8747C26.7122 19.662 25.1958 19.6246 24.7402 19.7237C24.733 19.7237 24.5457 19.7623 24.5372 19.7623C23.9077 19.7889 23.3253 20.0862 22.9579 20.6299C20.8579 23.7305 17.57 24.4217 14.0078 22.0002L14.032 21.8926C17.3344 23.5142 20.2766 22.556 22.0614 19.9194C22.6232 19.0833 23.5355 18.5818 24.507 18.5709C24.5215 18.5709 24.5372 18.5709 24.5517 18.5709L26.1685 18.5806C27.6753 18.5878 29.1241 19.0482 30.3602 19.911L48.1384 32.7471L47.5209 33.6231Z" fill="url(#paint42_linear_2230_13837)"/>
<path id="Vector_46" opacity="0.727" d="M47.5244 33.6352L29.7812 20.764C28.9221 20.1538 27.9155 19.8094 26.8667 19.7671C26.5562 19.6076 25.0143 19.5738 24.6736 19.6475C24.6651 19.6475 24.5213 19.6765 24.5129 19.6765C23.8543 19.697 23.2417 20.0148 22.8538 20.584C20.7815 23.6435 17.5891 24.2766 14.0149 22.0086L14.0137 21.9107C17.3547 23.5601 20.3018 22.6816 22.1192 20.0088C22.6653 19.2004 23.5486 18.7171 24.4887 18.7086C24.5032 18.7086 24.5177 18.7086 24.5322 18.7086L26.149 18.7219C27.6352 18.7328 29.0647 19.1895 30.2827 20.045L48.0319 32.9198L47.5244 33.6352Z" fill="url(#paint43_linear_2230_13837)"/>
<path id="Vector_47" opacity="0.818" d="M47.5286 33.6461L29.8132 20.7362C28.8695 20.0656 27.7614 19.6935 26.6075 19.6584C26.3996 19.5521 24.8336 19.5219 24.6065 19.5714C24.5968 19.5714 24.4977 19.5907 24.4881 19.5907C23.8005 19.604 23.1577 19.9436 22.7505 20.5369C20.6987 23.5505 17.6078 24.1305 14.0227 22.0147L13.9961 21.9252C17.3758 23.6024 20.3278 22.8037 22.1777 20.0958C22.7082 19.3152 23.5637 18.8488 24.4723 18.844C24.4856 18.844 24.5001 18.844 24.5146 18.844L26.1314 18.8609C27.5983 18.8742 29.0084 19.3297 30.2071 20.1756L47.9273 33.0878L47.5286 33.6461Z" fill="url(#paint44_linear_2230_13837)"/>
<path id="Vector_48" opacity="0.909" d="M47.5308 33.6569L29.8432 20.7096C28.8161 19.9785 27.6066 19.5774 26.3451 19.5496C26.2411 19.4964 24.6498 19.4698 24.5362 19.494C24.5253 19.494 24.4709 19.5037 24.4601 19.5037C23.7435 19.5109 23.0693 19.871 22.6439 20.4897C20.6139 23.4573 17.6233 23.9842 14.0285 22.0206L13.9766 21.9409C17.3949 23.6446 20.3529 22.9269 22.2343 20.1827C22.7491 19.43 23.5768 18.9817 24.4528 18.9792C24.4661 18.9792 24.4794 18.9792 24.4927 18.9792L26.1094 18.9998C27.557 19.0167 28.9466 19.4686 30.1284 20.3072L47.8196 33.2569L47.5308 33.6569Z" fill="url(#paint45_linear_2230_13837)"/>
<path id="Vector_49" d="M47.5361 33.6678L29.8751 20.6818C28.7635 19.8904 27.4524 19.4602 26.0858 19.4409L24.4691 19.4167C24.457 19.4167 24.4461 19.4167 24.4352 19.4167C23.6897 19.4167 22.984 19.7973 22.5406 20.4426C20.5311 23.3643 17.642 23.8392 14.0363 22.0279L13.959 21.9566C17.4148 23.6882 20.3789 23.0502 22.2929 20.271C22.7919 19.5448 23.5906 19.1158 24.4352 19.1158C24.4485 19.1158 24.4606 19.1158 24.4739 19.1158L26.0907 19.14C27.5189 19.1606 28.8879 19.6101 30.0516 20.439L47.7138 33.4261L47.5361 33.6678Z" fill="#754934"/>
</g>
<g id="Group_3" opacity="0.4">
<path id="Vector_50" opacity="0.091" d="M19.2279 13.5913L13.8738 20.2589C13.7192 20.451 13.6007 20.7289 13.5923 20.9585C13.5766 21.1398 13.6032 21.3234 13.6696 21.4926C13.672 21.4998 13.6757 21.5059 13.6781 21.5131C13.7433 21.6726 13.8448 21.8188 13.9814 21.9397C14.2979 22.0774 14.6049 22.1874 14.9106 22.2853C14.919 22.2744 14.9202 22.2611 14.9287 22.2502L20.0061 15.927C20.0943 15.817 20.2176 15.6853 20.3251 15.5971C20.6489 15.318 21.0465 15.1343 21.4742 15.0703C21.49 15.0643 21.9987 14.9966 22.0156 14.9942L29.5314 14.0287C29.8456 13.9888 30.2528 13.9598 30.5657 13.9683C31.7366 13.9804 32.8894 14.2933 33.9104 14.8818C33.9479 14.8963 35.0438 15.5476 35.0789 15.5681L38.9612 17.8905C39.2488 18.073 39.8905 18.4476 40.4656 18.7183C41.0492 18.9986 41.7211 19.2741 42.3301 19.4022C42.9524 19.5327 43.6024 19.5037 44.2392 19.3865C44.5111 19.3369 44.783 19.2705 45.0512 19.1931C45.1141 19.1919 47.0027 18.5684 47.0655 18.5491L52.5779 16.71C52.5345 16.5638 52.474 16.4297 52.4039 16.3064C52.4015 16.3028 52.4003 16.2992 52.3979 16.2955C52.3242 16.1723 52.2517 16.0623 52.184 15.9657C52.1623 15.9355 52.1405 15.9065 52.1176 15.8787C51.8094 15.4014 51.4602 15.1851 51.2874 15.2407L46.6414 16.7837C46.616 16.7922 45.8197 17.0544 45.7944 17.0604C45.0887 17.2779 44.3589 17.4302 43.646 17.4181C43.3982 17.4133 43.1505 17.3891 42.9052 17.342C41.8479 17.1353 40.5756 16.4901 39.8022 16.0418C39.6331 15.9451 39.4518 15.8352 39.3382 15.7639L34.1424 12.6548C34.1376 12.6524 34.001 12.5703 33.9974 12.5678C32.6042 11.7377 30.9729 11.3994 29.3647 11.606L20.8024 12.7056C20.1837 12.7878 19.6182 13.1043 19.2279 13.5913Z" fill="url(#paint46_linear_2230_13837)"/>
<path id="Vector_51" opacity="0.182" d="M19.2285 13.5913L13.9142 20.2093C13.7753 20.3821 13.6242 20.6878 13.617 20.8932C13.5916 21.0708 13.6085 21.2509 13.6641 21.4201C13.6665 21.4273 13.6689 21.4333 13.6714 21.4406C13.7269 21.6001 13.8176 21.7475 13.9432 21.8732C14.2308 21.9759 14.5136 22.0544 14.8036 22.1245C14.8108 22.1148 14.812 22.1028 14.8205 22.0931L19.9003 15.7663C19.9789 15.6684 20.1202 15.5137 20.2157 15.434C20.5347 15.1488 20.9274 14.9579 21.3527 14.8854C21.3854 14.8733 21.8614 14.8081 21.8953 14.8032L29.4135 13.8378C29.6963 13.8015 30.1651 13.7628 30.4479 13.7701C31.6187 13.7665 32.7739 14.0613 33.8034 14.6316C33.8783 14.6594 34.9054 15.2648 34.9743 15.3071L38.8567 17.6307C39.1152 17.7951 39.8402 18.2204 40.3574 18.4645C40.9193 18.74 41.5899 19.0276 42.211 19.1738C42.8309 19.32 43.4809 19.3163 44.1129 19.2221C44.3848 19.1822 44.6567 19.1242 44.9249 19.0541C45.0506 19.0529 46.8208 18.4753 46.9452 18.4367L52.4577 16.5988C52.4492 16.4574 52.4045 16.3318 52.338 16.217C52.3356 16.2133 52.3344 16.2097 52.332 16.2061C52.2534 16.0841 52.1785 15.9789 52.1072 15.8931C52.0843 15.8666 52.0613 15.84 52.0372 15.8158C51.7604 15.3868 51.3448 15.2249 51.1889 15.2745L46.5634 16.8115C46.5127 16.8272 45.7683 17.0725 45.7176 17.0833C45.0131 17.2948 44.2857 17.4374 43.5776 17.4144C43.3311 17.406 43.0834 17.3782 42.8393 17.3274C41.7748 17.1051 40.5097 16.4562 39.7593 16.0188C39.607 15.9318 39.4028 15.8086 39.3013 15.7445L34.1297 12.65C34.1212 12.6451 33.9931 12.569 33.9847 12.563C32.5939 11.7389 30.9687 11.403 29.3652 11.6084L20.8029 12.708C20.1843 12.7877 19.6188 13.1043 19.2285 13.5913Z" fill="url(#paint47_linear_2230_13837)"/>
<path id="Vector_52" opacity="0.273" d="M19.2286 13.5913L13.9542 20.1598C13.831 20.3133 13.6473 20.6456 13.6413 20.8292C13.6062 21.002 13.6135 21.1809 13.6582 21.3488C13.6606 21.3561 13.663 21.3621 13.6642 21.3694C13.7101 21.5288 13.7899 21.6787 13.9047 21.808C14.1633 21.8756 14.4219 21.9216 14.6949 21.9639C14.701 21.9554 14.7022 21.9445 14.7094 21.9349L19.7929 15.6044C19.863 15.5174 20.0201 15.3398 20.1046 15.2697C20.4176 14.9797 20.8067 14.7803 21.2284 14.6994C21.2767 14.6812 21.7202 14.6184 21.7721 14.6111L29.2928 13.6457C29.5441 13.6131 30.0746 13.5647 30.3259 13.5708C31.4968 13.5502 32.6556 13.8281 33.6911 14.3804C33.8035 14.4226 34.7605 14.9821 34.8656 15.0437L38.7492 17.3674C38.98 17.5136 39.7872 17.9896 40.2476 18.2059C40.7865 18.4766 41.4559 18.7751 42.0903 18.9418C42.7077 19.1037 43.359 19.1255 43.9849 19.0542C44.2568 19.024 44.5287 18.9744 44.7982 18.9128C44.9867 18.9104 46.6396 18.3799 46.8257 18.3207L52.3382 16.4829C52.3647 16.3463 52.3357 16.2291 52.2729 16.1228C52.2705 16.1191 52.2693 16.1167 52.2669 16.1131C52.1835 15.9923 52.1049 15.892 52.0324 15.8159C52.0083 15.7917 51.9841 15.7699 51.9587 15.7494C51.7122 15.3676 51.2313 15.2624 51.0924 15.3059L46.4874 16.8357C46.4125 16.8599 45.7189 17.0858 45.6428 17.1027C44.9395 17.3081 44.2157 17.4411 43.5113 17.4072C43.266 17.3951 43.0195 17.3625 42.7742 17.3081C41.7024 17.0701 40.4445 16.4176 39.7171 15.9911C39.5818 15.9137 39.3558 15.7772 39.2652 15.7204L34.1165 12.6404C34.1032 12.6331 33.9848 12.5618 33.9715 12.5546C32.5843 11.7353 30.9627 11.403 29.3641 11.6072L20.8019 12.7068C20.1844 12.7878 19.6189 13.1044 19.2286 13.5913Z" fill="url(#paint48_linear_2230_13837)"/>
<path id="Vector_53" opacity="0.364" d="M19.2285 13.5913L13.994 20.1103C13.8864 20.2444 13.6701 20.6033 13.6653 20.764C13.6206 20.9332 13.6182 21.1084 13.652 21.2763C13.6532 21.2836 13.6556 21.2896 13.6581 21.2969C13.6943 21.4564 13.7632 21.6074 13.8671 21.7403C14.0967 21.773 14.3311 21.7863 14.5885 21.8008C14.5945 21.7935 14.5957 21.7838 14.6018 21.7754L19.6876 15.4413C19.7493 15.3652 19.922 15.1658 19.997 15.1042C20.3051 14.8081 20.6905 14.6027 21.1086 14.5121C21.1727 14.4879 21.5847 14.4263 21.6536 14.4178L29.1755 13.4512C29.3954 13.4234 29.9887 13.3642 30.2074 13.369C31.3783 13.3328 32.5395 13.5925 33.5835 14.1266C33.7345 14.1822 34.6214 14.6958 34.7604 14.7791L38.6452 17.1028C38.847 17.2296 39.7387 17.7577 40.1411 17.9474C40.6583 18.212 41.3253 18.5225 41.9729 18.7098C42.588 18.8875 43.2405 18.9346 43.8616 18.8863C44.1322 18.8657 44.4053 18.8258 44.6748 18.7703C44.9261 18.7666 46.4607 18.2833 46.7084 18.2048L52.222 16.3681C52.2836 16.2364 52.2691 16.1276 52.2111 16.0298C52.2087 16.0261 52.2075 16.0237 52.2051 16.0201C52.1169 15.8993 52.0347 15.805 51.9598 15.7398C51.9344 15.7192 51.9091 15.6999 51.8813 15.6842C51.6662 15.3507 51.1176 15.2999 50.9968 15.3386L46.4123 16.8623C46.312 16.8937 45.6704 17.1015 45.5689 17.1245C44.8669 17.3227 44.1467 17.4471 43.4459 17.4024C43.2018 17.3867 42.9553 17.3505 42.71 17.2925C41.631 17.0387 40.3803 16.3826 39.6759 15.9669C39.5575 15.8993 39.3085 15.7494 39.23 15.6999L34.1055 12.6343C34.0886 12.6235 33.9786 12.5582 33.9605 12.5485C32.5757 11.7353 30.9602 11.4043 29.3664 11.6097L20.8041 12.7093C20.1843 12.7878 19.6188 13.1044 19.2285 13.5913Z" fill="url(#paint49_linear_2230_13837)"/>
<path id="Vector_54" opacity="0.455" d="M19.2283 13.5913L14.0337 20.0607C13.9406 20.1767 13.6941 20.5621 13.6893 20.6987C13.6349 20.8642 13.6228 21.037 13.6458 21.2038C13.647 21.211 13.6494 21.2171 13.6506 21.2243C13.676 21.3838 13.7352 21.5373 13.8283 21.6738C14.0288 21.6714 14.2379 21.6533 14.4796 21.64C14.4844 21.6339 14.4856 21.6255 14.4904 21.6182L19.5799 15.2805C19.6331 15.2153 19.8216 14.9929 19.8856 14.9398C20.1889 14.6377 20.5696 14.425 20.9852 14.3259C21.065 14.2957 21.4444 14.2365 21.5314 14.2256L29.0557 13.259C29.2442 13.2348 29.8991 13.1659 30.0864 13.1696C31.2573 13.1164 32.4221 13.3593 33.4721 13.8752C33.6606 13.9453 34.4787 14.4129 34.6527 14.5168L38.5375 16.8417C38.7103 16.9504 39.6854 17.5292 40.0298 17.6911C40.5252 17.9509 41.191 18.2723 41.8519 18.4802C42.4646 18.6723 43.1171 18.7472 43.7333 18.7218C44.004 18.711 44.2758 18.6796 44.5477 18.6312C44.8619 18.6264 46.2781 18.1902 46.5886 18.0911L52.1022 16.2544C52.1989 16.1276 52.2001 16.0273 52.1469 15.9378C52.1457 15.9354 52.1433 15.9318 52.1409 15.9294C52.0478 15.8098 51.9621 15.7203 51.8859 15.6648C51.8593 15.6478 51.8328 15.6321 51.8038 15.6201C51.6189 15.3337 51.0051 15.3385 50.9011 15.3711L46.3373 16.8876C46.2116 16.9275 45.6219 17.116 45.4951 17.145C44.7942 17.3371 44.0777 17.4519 43.3805 17.3951C43.1388 17.3758 42.8923 17.3347 42.647 17.2743C41.5607 17.0048 40.3173 16.3451 39.6371 15.9403C39.5356 15.8823 39.2649 15.7191 39.1972 15.6768L34.0956 12.6246C34.0739 12.6113 33.9736 12.5521 33.9518 12.5388C32.5707 11.7316 30.96 11.403 29.3711 11.6072L20.8088 12.7068C20.1841 12.7877 19.6186 13.1043 19.2283 13.5913Z" fill="url(#paint50_linear_2230_13837)"/>
<path id="Vector_55" opacity="0.545" d="M19.2278 13.5913L14.073 20.01C13.9957 20.1067 13.7166 20.5187 13.713 20.6335C13.6489 20.7942 13.6272 20.9646 13.6405 21.1313C13.6405 21.1386 13.6429 21.1446 13.6441 21.1519C13.6598 21.3114 13.7081 21.466 13.7903 21.6062C13.9619 21.5687 14.1467 21.518 14.3727 21.4769C14.3763 21.4709 14.3775 21.4648 14.3824 21.4588L19.4743 15.1175C19.5178 15.0631 19.7232 14.819 19.7764 14.7743C20.0736 14.4662 20.4506 14.2462 20.8639 14.1387C20.9605 14.1025 21.3073 14.0445 21.41 14.0312L28.9367 13.0645C29.0938 13.044 29.8104 12.9642 29.9662 12.9678C31.1371 12.899 32.3044 13.1237 33.3629 13.6215C33.5888 13.7049 34.3368 14.1266 34.5458 14.2523L38.4318 16.5771C38.5756 16.6677 39.6341 17.2973 39.9217 17.4326C40.3942 17.6876 41.0587 18.0199 41.733 18.247C42.3432 18.4537 42.9969 18.5552 43.6071 18.5527C43.8778 18.5515 44.1497 18.5286 44.4215 18.4887C44.7985 18.4839 46.0963 18.0924 46.4684 17.9752L51.9821 16.1397C52.1138 16.0177 52.1307 15.9258 52.0812 15.8449C52.0799 15.8425 52.0775 15.8388 52.0763 15.8364C51.9784 15.718 51.889 15.6346 51.8105 15.5887C51.7839 15.5754 51.7549 15.5633 51.7235 15.5537C51.57 15.3156 50.8885 15.3748 50.8027 15.4026L46.2582 16.913C46.1072 16.9602 45.5695 17.1317 45.4172 17.1656C44.7188 17.3517 44.0035 17.4568 43.3123 17.3891C43.0718 17.3662 42.8253 17.3215 42.58 17.2574C41.4865 16.9722 40.2504 16.3089 39.593 15.915C39.5085 15.8666 39.2148 15.6902 39.1592 15.6552L34.0818 12.6174C34.0564 12.6017 33.9634 12.5473 33.938 12.5328C32.5593 11.7305 30.9535 11.4055 29.3705 11.6085L20.8083 12.708C20.1836 12.7878 19.6181 13.1044 19.2278 13.5913Z" fill="url(#paint51_linear_2230_13837)"/>
<path id="Vector_56" opacity="0.636" d="M19.2284 13.5912L14.1135 19.9604C14.0519 20.0377 13.7402 20.4763 13.7377 20.5682C13.664 20.7252 13.6314 20.8932 13.635 21.0587C13.635 21.066 13.6375 21.072 13.6375 21.0793C13.6423 21.2388 13.681 21.3947 13.7522 21.5397C13.8948 21.4672 14.0555 21.385 14.2658 21.3149C14.2694 21.3101 14.2694 21.3052 14.273 21.3004L19.3686 14.9555C19.4036 14.912 19.6247 14.6449 19.6682 14.6099C19.9607 14.2957 20.3328 14.0685 20.7425 13.9513C20.8548 13.909 21.169 13.8535 21.2898 13.8377L28.819 12.8711C28.9446 12.8554 29.7228 12.7647 29.8472 12.7684C31.0181 12.6826 32.189 12.8916 33.2535 13.3701C33.517 13.468 34.196 13.8438 34.4401 13.99L38.3261 16.3148C38.4409 16.3873 39.5828 17.0676 39.8136 17.1764C40.2643 17.4265 40.9277 17.7685 41.614 18.0174C42.223 18.2385 42.8767 18.3678 43.4809 18.3871C43.7515 18.3956 44.0234 18.3823 44.2965 18.3485C44.7375 18.3424 45.9157 17.998 46.3507 17.8603L51.8643 16.026C52.0298 15.91 52.0625 15.8255 52.0177 15.753C52.0165 15.7505 52.0141 15.7481 52.0129 15.7445C51.9102 15.6273 51.8184 15.5487 51.7362 15.5125C51.7084 15.5016 51.6782 15.4932 51.6456 15.4883C51.5223 15.2974 50.7756 15.4122 50.7067 15.4352L46.1827 16.9383C46.0075 16.9939 45.5205 17.1462 45.3417 17.186C44.6445 17.3649 43.9328 17.4615 43.2452 17.383C43.006 17.3552 42.7607 17.3069 42.5142 17.2404C41.4134 16.9395 40.1833 16.2725 39.5502 15.8883C39.4825 15.8496 39.1671 15.6599 39.1212 15.6321L34.0667 12.6089C34.0365 12.5907 33.9532 12.5412 33.923 12.5243C32.5467 11.728 30.9468 11.4054 29.3675 11.6084L20.8053 12.708C20.1842 12.7877 19.6187 13.1043 19.2284 13.5912Z" fill="url(#paint52_linear_2230_13837)"/>
<path id="Vector_57" opacity="0.727" d="M19.2283 13.5913L14.1533 19.9109C14.1074 19.9689 13.7642 20.4353 13.7618 20.503C13.6784 20.6552 13.6362 20.8207 13.6289 20.9863C13.6289 20.9935 13.6301 20.9996 13.6301 21.0068C13.6253 21.1663 13.6531 21.3246 13.7135 21.4732C13.8271 21.3657 13.9636 21.2509 14.1569 21.1542C14.1594 21.1506 14.1606 21.147 14.163 21.1434L19.2609 14.7948C19.2875 14.7622 19.5256 14.4722 19.557 14.4456C19.8446 14.1254 20.2119 13.891 20.6191 13.7653C20.7472 13.717 21.0299 13.6638 21.1677 13.6457L28.6992 12.6778C28.7935 12.6657 29.6333 12.5654 29.7275 12.5678C30.8984 12.4663 32.0717 12.6572 33.1447 13.1176C33.4456 13.23 34.0558 13.5587 34.3337 13.7254L38.2209 16.0515C38.3067 16.1058 39.5332 16.8369 39.7047 16.9178C40.1337 17.1619 40.7947 17.5147 41.4943 17.7854C42.1009 18.0198 42.7546 18.1781 43.3539 18.2192C43.6234 18.2373 43.8964 18.2325 44.1707 18.2071C44.6746 18.1999 45.7343 17.9026 46.2309 17.7455L51.7446 15.9113C51.9452 15.8001 51.9935 15.724 51.9524 15.66C51.9512 15.6575 51.9488 15.6551 51.9476 15.6527C51.84 15.5355 51.7446 15.463 51.6612 15.4364C51.6322 15.4292 51.6008 15.4243 51.5669 15.4231C51.4751 15.2805 50.6619 15.4509 50.6099 15.4666L46.1065 16.9625C45.9059 17.0266 45.4709 17.1595 45.2667 17.2054C44.5707 17.3782 43.8626 17.4652 43.1787 17.3758C42.9407 17.3444 42.6966 17.2924 42.4489 17.2223C41.3408 16.9057 40.118 16.2351 39.5078 15.8617C39.457 15.8327 39.1187 15.6297 39.0849 15.6092L34.0546 12.5992C34.0207 12.5787 33.9458 12.5352 33.9108 12.5147C32.5381 11.7232 30.9419 11.4042 29.3687 11.606L20.8064 12.7056C20.1841 12.7877 19.6186 13.1043 19.2283 13.5913Z" fill="url(#paint53_linear_2230_13837)"/>
<path id="Vector_58" opacity="0.818" d="M19.2296 13.5912L14.1945 19.8613C14.1631 19.8999 13.7885 20.3929 13.7873 20.4389C13.6942 20.5875 13.6423 20.7506 13.6241 20.9149C13.6229 20.9222 13.6254 20.9282 13.6241 20.9355C13.6096 21.0938 13.6266 21.2545 13.6761 21.4067C13.7607 21.2629 13.8731 21.1167 14.0507 20.9923C14.0519 20.9899 14.0531 20.9874 14.0543 20.985L19.1559 14.6328C19.174 14.6111 19.4278 14.2993 19.4483 14.2812C19.7299 13.9549 20.0936 13.7133 20.4984 13.5791C20.6421 13.5248 20.8923 13.4728 21.0481 13.4535L28.5809 12.4856C28.6437 12.4771 29.5451 12.3672 29.608 12.3684C30.7789 12.2512 31.9558 12.424 33.0348 12.8662C33.3731 12.9919 33.9133 13.2759 34.2274 13.4631L38.1146 15.7892C38.1726 15.8254 39.4813 16.6072 39.5961 16.6616C40.0021 16.9009 40.663 17.2634 41.3747 17.5558C41.9801 17.8047 42.6338 17.9908 43.2271 18.0536C43.4966 18.0826 43.7696 18.085 44.0439 18.0669C44.6106 18.0596 45.5531 17.8083 46.1114 17.6319L51.625 15.7989C51.8606 15.6925 51.9235 15.6249 51.8872 15.5693C51.886 15.5669 51.8836 15.5644 51.8824 15.562C51.77 15.446 51.6709 15.3784 51.5851 15.3626C51.5549 15.359 51.5235 15.3566 51.4861 15.3602C51.4244 15.2648 50.5448 15.4907 50.5097 15.5016L46.0268 16.9915C45.8009 17.0628 45.4178 17.1776 45.1882 17.2283C44.4934 17.3951 43.7878 17.4724 43.1087 17.3721C42.8731 17.3371 42.6278 17.2803 42.3813 17.2078C41.266 16.8755 40.0504 16.2012 39.4631 15.8387C39.4293 15.8194 39.0692 15.6031 39.0463 15.5886L34.0389 12.5931C34.0003 12.5702 33.935 12.5315 33.8951 12.5098C32.5249 11.7244 30.9347 11.4066 29.3663 11.6084L20.8041 12.7079C20.1854 12.7877 19.6199 13.1043 19.2296 13.5912Z" fill="url(#paint54_linear_2230_13837)"/>
<path id="Vector_59" opacity="0.909" d="M19.2291 13.5913L14.2339 19.8118C14.2182 19.8311 13.811 20.3507 13.811 20.3736C13.7083 20.5186 13.6466 20.6781 13.6176 20.8425C13.6164 20.8497 13.6176 20.8558 13.6164 20.863C13.5911 21.0213 13.5983 21.1844 13.637 21.3403C13.6926 21.1615 13.7808 20.9839 13.9415 20.8304L13.9439 20.8268L19.0479 14.4709C19.0564 14.4601 19.327 14.1254 19.3379 14.1169C19.6146 13.7846 19.9735 13.5357 20.3759 13.3931C20.5366 13.3327 20.7541 13.2831 20.9269 13.2614L28.462 12.2935C28.4934 12.2899 29.4565 12.1679 29.4879 12.1691C30.6588 12.0349 31.8381 12.1908 32.9256 12.6149C33.3014 12.7551 33.7726 12.9931 34.1206 13.201L38.0091 15.527C38.0381 15.5451 39.4301 16.3777 39.4881 16.4043C39.8723 16.6387 40.5321 17.0109 41.2559 17.3238C41.86 17.586 42.5137 17.8023 43.1022 17.8857C43.3716 17.9244 43.6447 17.9364 43.9202 17.9244C44.5498 17.9159 45.3738 17.7117 45.9937 17.5147L51.5073 15.6817C51.778 15.5802 51.8566 15.521 51.8239 15.4739C51.8227 15.4714 51.8191 15.4678 51.8191 15.4678C51.7031 15.353 51.5992 15.2902 51.5122 15.2841C51.4808 15.2841 51.4481 15.2854 51.4095 15.2926C51.3793 15.2455 50.4331 15.5258 50.415 15.5319L45.9514 17.0145C45.7001 17.0942 45.369 17.1897 45.1141 17.2465C44.4217 17.406 43.7184 17.4749 43.043 17.3637C42.8086 17.325 42.5645 17.2646 42.3168 17.1885C41.1942 16.8405 39.9859 16.1638 39.4228 15.811C39.4059 15.8013 39.0229 15.5717 39.012 15.5645L34.0288 12.5835C33.9853 12.5581 33.9297 12.5243 33.8862 12.5001C32.5196 11.7196 30.9343 11.4054 29.3707 11.606L20.8084 12.7056C20.1849 12.7877 19.6194 13.1043 19.2291 13.5913Z" fill="url(#paint55_linear_2230_13837)"/>
<path id="Vector_60" d="M13.6088 20.7904C13.575 20.9499 13.5701 21.113 13.5991 21.2725C13.6257 21.0586 13.6897 20.8484 13.8347 20.6683L19.2287 13.9512C19.6202 13.4643 20.1857 13.1465 20.8056 13.0679L29.3679 11.9683C30.981 11.7605 32.6183 12.1025 34.0139 12.9374L39.3789 16.1468C40.0375 16.5636 41.6796 17.4832 42.9749 17.72C43.9198 17.8928 44.9191 17.7043 45.8737 17.401L51.3873 15.5692C51.693 15.4725 51.7861 15.423 51.7583 15.3831C51.7571 15.3807 51.7547 15.3795 51.7535 15.377C51.6326 15.2635 51.5251 15.2055 51.4357 15.2103C51.403 15.2127 51.3692 15.2175 51.3281 15.2284L45.8725 17.0409C44.9179 17.343 43.9186 17.5315 42.9737 17.3587C41.6784 17.1231 40.0362 16.2023 39.3777 15.7855L34.0127 12.5761C32.6171 11.7412 30.9798 11.3992 29.3667 11.607L20.8044 12.7066C20.1845 12.7864 19.619 13.103 19.2275 13.5899L13.8335 20.307C13.7212 20.4472 13.6475 20.6055 13.61 20.7686C13.6088 20.7771 13.61 20.7843 13.6088 20.7904Z" fill="#754934"/>
</g>
<path id="Vector_61" opacity="0.08" d="M19.2424 16.2339C21.9926 14.3815 24.7439 13.6565 25.3892 14.6135C26.0344 15.5705 24.3283 17.8483 21.5781 19.7006C18.8279 21.553 16.0766 22.278 15.4313 21.321C14.7861 20.364 16.4922 18.0863 19.2424 16.2339Z" fill="url(#paint56_radial_2230_13837)"/>
<path id="Vector_62" opacity="0.08" d="M26.3272 13.6566C29.7601 13.4464 32.5996 14.2101 32.6697 15.3628C32.7398 16.5156 30.015 17.6188 26.5821 17.829C23.1493 18.0393 20.3097 17.2756 20.2396 16.1229C20.1695 14.9701 22.8955 13.8657 26.3272 13.6566Z" fill="url(#paint57_radial_2230_13837)"/>
</g>
<defs>
<radialGradient id="paint0_radial_2230_13837" cx="0" cy="0" r="1" gradientUnits="userSpaceOnUse" gradientTransform="translate(25.0019 29.2815) rotate(25.9706) scale(24.4537 20.1304)">
<stop stop-color="#CD9C71"/>
<stop offset="0.629" stop-color="#B68161"/>
<stop offset="0.713" stop-color="#B17C5D"/>
<stop offset="0.816" stop-color="#A16F53"/>
<stop offset="0.931" stop-color="#885941"/>
<stop offset="1" stop-color="#754934"/>
</radialGradient>
<linearGradient id="paint1_linear_2230_13837" x1="1.65026" y1="27.8461" x2="14.9395" y2="27.8461" gradientUnits="userSpaceOnUse">
<stop stop-color="#754934"/>
<stop offset="0.519" stop-color="#CD9C71" stop-opacity="0.58"/>
<stop offset="0.609" stop-color="#C8976D" stop-opacity="0.659"/>
<stop offset="0.721" stop-color="#B88863" stop-opacity="0.757"/>
<stop offset="0.845" stop-color="#9F7051" stop-opacity="0.866"/>
<stop offset="0.977" stop-color="#7C4F39" stop-opacity="0.981"/>
<stop offset="0.999" stop-color="#754934"/>
</linearGradient>
<linearGradient id="paint2_linear_2230_13837" x1="1.65897" y1="28.1493" x2="14.686" y2="28.1493" gradientUnits="userSpaceOnUse">
<stop stop-color="#754934"/>
<stop offset="0.519" stop-color="#C5946B" stop-opacity="0.618"/>
<stop offset="0.614" stop-color="#C08F67" stop-opacity="0.694"/>
<stop offset="0.733" stop-color="#B0815D" stop-opacity="0.788"/>
<stop offset="0.865" stop-color="#97694B" stop-opacity="0.893"/>
<stop offset="0.999" stop-color="#754934"/>
</linearGradient>
<linearGradient id="paint3_linear_2230_13837" x1="1.66866" y1="28.4526" x2="14.4335" y2="28.4526" gradientUnits="userSpaceOnUse">
<stop stop-color="#754934"/>
<stop offset="0.519" stop-color="#BD8D66" stop-opacity="0.656"/>
<stop offset="0.62" stop-color="#B88862" stop-opacity="0.729"/>
<stop offset="0.747" stop-color="#A87958" stop-opacity="0.82"/>
<stop offset="0.886" stop-color="#8F6246" stop-opacity="0.919"/>
<stop offset="0.999" stop-color="#754934"/>
</linearGradient>
<linearGradient id="paint4_linear_2230_13837" x1="1.67869" y1="28.7548" x2="14.1813" y2="28.7548" gradientUnits="userSpaceOnUse">
<stop stop-color="#754934"/>
<stop offset="0.519" stop-color="#B58560" stop-opacity="0.695"/>
<stop offset="0.628" stop-color="#B0805C" stop-opacity="0.764"/>
<stop offset="0.764" stop-color="#A07252" stop-opacity="0.85"/>
<stop offset="0.913" stop-color="#875A40" stop-opacity="0.945"/>
<stop offset="0.999" stop-color="#754934"/>
</linearGradient>
<linearGradient id="paint5_linear_2230_13837" x1="1.68845" y1="29.058" x2="13.9301" y2="29.058" gradientUnits="userSpaceOnUse">
<stop stop-color="#754934"/>
<stop offset="0.519" stop-color="#AD7E5B" stop-opacity="0.733"/>
<stop offset="0.637" stop-color="#A87957" stop-opacity="0.798"/>
<stop offset="0.784" stop-color="#986A4D" stop-opacity="0.88"/>
<stop offset="0.946" stop-color="#7F523B" stop-opacity="0.97"/>
<stop offset="0.999" stop-color="#754934"/>
</linearGradient>
<linearGradient id="paint6_linear_2230_13837" x1="1.69785" y1="29.3613" x2="13.6785" y2="29.3613" gradientUnits="userSpaceOnUse">
<stop stop-color="#754934"/>
<stop offset="0.519" stop-color="#A57655" stop-opacity="0.771"/>
<stop offset="0.648" stop-color="#A07151" stop-opacity="0.833"/>
<stop offset="0.81" stop-color="#906347" stop-opacity="0.909"/>
<stop offset="0.987" stop-color="#774B35" stop-opacity="0.994"/>
<stop offset="0.999" stop-color="#754934"/>
</linearGradient>
<linearGradient id="paint7_linear_2230_13837" x1="1.70422" y1="29.6646" x2="13.4251" y2="29.6646" gradientUnits="userSpaceOnUse">
<stop stop-color="#754934"/>
<stop offset="0.519" stop-color="#9D6F50" stop-opacity="0.809"/>
<stop offset="0.663" stop-color="#986A4C" stop-opacity="0.866"/>
<stop offset="0.843" stop-color="#885B42" stop-opacity="0.938"/>
<stop offset="0.999" stop-color="#754934"/>
</linearGradient>
<linearGradient id="paint8_linear_2230_13837" x1="1.71027" y1="29.9666" x2="13.1737" y2="29.9666" gradientUnits="userSpaceOnUse">
<stop stop-color="#754934"/>
<stop offset="0.519" stop-color="#95674A" stop-opacity="0.847"/>
<stop offset="0.684" stop-color="#906246" stop-opacity="0.9"/>
<stop offset="0.889" stop-color="#80543C" stop-opacity="0.965"/>
<stop offset="0.999" stop-color="#754934"/>
</linearGradient>
<linearGradient id="paint9_linear_2230_13837" x1="1.71394" y1="30.27" x2="12.9212" y2="30.27" gradientUnits="userSpaceOnUse">
<stop stop-color="#754934"/>
<stop offset="0.519" stop-color="#8D6045" stop-opacity="0.885"/>
<stop offset="0.715" stop-color="#885B41" stop-opacity="0.932"/>
<stop offset="0.959" stop-color="#784C36" stop-opacity="0.99"/>
<stop offset="0.999" stop-color="#754934"/>
</linearGradient>
<linearGradient id="paint10_linear_2230_13837" x1="1.71347" y1="30.5733" x2="12.6694" y2="30.5733" gradientUnits="userSpaceOnUse">
<stop stop-color="#754934"/>
<stop offset="0.519" stop-color="#85583F" stop-opacity="0.924"/>
<stop offset="0.768" stop-color="#80533B" stop-opacity="0.963"/>
<stop offset="0.999" stop-color="#754934"/>
</linearGradient>
<linearGradient id="paint11_linear_2230_13837" x1="1.70018" y1="30.8754" x2="12.4169" y2="30.8754" gradientUnits="userSpaceOnUse">
<stop stop-color="#754934"/>
<stop offset="0.519" stop-color="#7D513A" stop-opacity="0.962"/>
<stop offset="0.897" stop-color="#784C36" stop-opacity="0.992"/>
<stop offset="0.999" stop-color="#754934"/>
</linearGradient>
<radialGradient id="paint12_radial_2230_13837" cx="0" cy="0" r="1" gradientUnits="userSpaceOnUse" gradientTransform="translate(33.6686 40.2114) rotate(-55.1975) scale(1.6892 4.97751)">
<stop offset="0.425" stop-color="white"/>
<stop offset="1" stop-color="white" stop-opacity="0"/>
</radialGradient>
<linearGradient id="paint13_linear_2230_13837" x1="32.1728" y1="42.3799" x2="31.7801" y2="42.9394" gradientUnits="userSpaceOnUse">
<stop stop-color="#754934"/>
<stop offset="0.252" stop-color="#916148" stop-opacity="0.748"/>
<stop offset="0.504" stop-color="#A67356" stop-opacity="0.496"/>
<stop offset="0.754" stop-color="#B27D5E" stop-opacity="0.246"/>
<stop offset="1" stop-color="#B68161" stop-opacity="0"/>
</linearGradient>
<linearGradient id="paint14_linear_2230_13837" x1="11.6915" y1="37.0222" x2="32.1124" y2="37.0222" gradientUnits="userSpaceOnUse">
<stop stop-color="#C5946B" stop-opacity="0.545"/>
<stop offset="1" stop-color="#B07C5D"/>
</linearGradient>
<linearGradient id="paint15_linear_2230_13837" x1="11.8575" y1="37.1164" x2="31.9533" y2="37.1164" gradientUnits="userSpaceOnUse">
<stop stop-color="#BD8D66" stop-opacity="0.591"/>
<stop offset="1" stop-color="#AA7759"/>
</linearGradient>
<linearGradient id="paint16_linear_2230_13837" x1="12.0031" y1="37.207" x2="31.7956" y2="37.207" gradientUnits="userSpaceOnUse">
<stop stop-color="#B58560" stop-opacity="0.636"/>
<stop offset="1" stop-color="#A47255"/>
</linearGradient>
<linearGradient id="paint17_linear_2230_13837" x1="12.1131" y1="37.2965" x2="31.6373" y2="37.2965" gradientUnits="userSpaceOnUse">
<stop stop-color="#AD7E5B" stop-opacity="0.682"/>
<stop offset="1" stop-color="#9E6D51"/>
</linearGradient>
<linearGradient id="paint18_linear_2230_13837" x1="12.173" y1="37.3823" x2="31.481" y2="37.3823" gradientUnits="userSpaceOnUse">
<stop stop-color="#A57655" stop-opacity="0.727"/>
<stop offset="1" stop-color="#98684D"/>
</linearGradient>
<linearGradient id="paint19_linear_2230_13837" x1="12.1504" y1="37.4668" x2="31.3254" y2="37.4668" gradientUnits="userSpaceOnUse">
<stop stop-color="#9D6F50" stop-opacity="0.773"/>
<stop offset="1" stop-color="#936248"/>
</linearGradient>
<linearGradient id="paint20_linear_2230_13837" x1="12.0945" y1="37.5502" x2="31.1692" y2="37.5502" gradientUnits="userSpaceOnUse">
<stop stop-color="#95674A" stop-opacity="0.818"/>
<stop offset="1" stop-color="#8D5D44"/>
</linearGradient>
<linearGradient id="paint21_linear_2230_13837" x1="12.043" y1="37.6311" x2="31.0174" y2="37.6311" gradientUnits="userSpaceOnUse">
<stop stop-color="#8D6045" stop-opacity="0.864"/>
<stop offset="1" stop-color="#875840"/>
</linearGradient>
<linearGradient id="paint22_linear_2230_13837" x1="11.9883" y1="37.7121" x2="30.8649" y2="37.7121" gradientUnits="userSpaceOnUse">
<stop stop-color="#85583F" stop-opacity="0.909"/>
<stop offset="1" stop-color="#81533C"/>
</linearGradient>
<linearGradient id="paint23_linear_2230_13837" x1="11.9336" y1="37.7919" x2="30.7147" y2="37.7919" gradientUnits="userSpaceOnUse">
<stop stop-color="#7D513A" stop-opacity="0.955"/>
<stop offset="1" stop-color="#7B4E38"/>
</linearGradient>
<radialGradient id="paint24_radial_2230_13837" cx="0" cy="0" r="1" gradientUnits="userSpaceOnUse" gradientTransform="translate(19.3149 36.7017) rotate(-52.7497) scale(4.71009 2.87924)">
<stop stop-color="#CD9C71"/>
<stop offset="0.629" stop-color="#B68161"/>
<stop offset="0.712" stop-color="#B17C5D"/>
<stop offset="0.816" stop-color="#A16F53"/>
<stop offset="0.93" stop-color="#885941"/>
<stop offset="0.999" stop-color="#754934"/>
</radialGradient>
<radialGradient id="paint25_radial_2230_13837" cx="0" cy="0" r="1" gradientUnits="userSpaceOnUse" gradientTransform="translate(24.1401 39.0149) rotate(-52.7416) scale(5.01691 2.78109)">
<stop stop-color="#CD9C71"/>
<stop offset="0.629" stop-color="#B68161"/>
<stop offset="0.712" stop-color="#B17C5D"/>
<stop offset="0.816" stop-color="#A16F53"/>
<stop offset="0.93" stop-color="#885941"/>
<stop offset="0.999" stop-color="#754934"/>
</radialGradient>
<radialGradient id="paint26_radial_2230_13837" cx="0" cy="0" r="1" gradientUnits="userSpaceOnUse" gradientTransform="translate(27.8281 42.1696) rotate(30.6916) scale(2.02873 3.32546)">
<stop stop-color="#CD9C71"/>
<stop offset="0.629" stop-color="#B68161"/>
<stop offset="0.712" stop-color="#B17C5D"/>
<stop offset="0.816" stop-color="#A16F53"/>
<stop offset="0.93" stop-color="#885941"/>
<stop offset="0.999" stop-color="#754934"/>
</radialGradient>
<radialGradient id="paint27_radial_2230_13837" cx="0" cy="0" r="1" gradientUnits="userSpaceOnUse" gradientTransform="translate(15.0483 34.0141) rotate(42.8441) scale(2.0904 2.86253)">
<stop stop-color="#CD9C71"/>
<stop offset="0.578" stop-color="#B68161"/>
<stop offset="0.671" stop-color="#B17C5D"/>
<stop offset="0.788" stop-color="#A16F53"/>
<stop offset="0.917" stop-color="#885941"/>
<stop offset="0.995" stop-color="#754934"/>
</radialGradient>
<linearGradient id="paint28_linear_2230_13837" x1="38.0799" y1="34.1282" x2="37.4117" y2="34.9764" gradientUnits="userSpaceOnUse">
<stop stop-color="#754934"/>
<stop offset="0.252" stop-color="#916148" stop-opacity="0.748"/>
<stop offset="0.504" stop-color="#A67356" stop-opacity="0.496"/>
<stop offset="0.754" stop-color="#B27D5E" stop-opacity="0.246"/>
<stop offset="1" stop-color="#B68161" stop-opacity="0"/>
</linearGradient>
<linearGradient id="paint29_linear_2230_13837" x1="35.291" y1="38.6582" x2="34.7642" y2="39.3011" gradientUnits="userSpaceOnUse">
<stop stop-color="#754934"/>
<stop offset="0.252" stop-color="#916148" stop-opacity="0.748"/>
<stop offset="0.504" stop-color="#A67356" stop-opacity="0.496"/>
<stop offset="0.754" stop-color="#B27D5E" stop-opacity="0.246"/>
<stop offset="1" stop-color="#B68161" stop-opacity="0"/>
</linearGradient>
<radialGradient id="paint30_radial_2230_13837" cx="0" cy="0" r="1" gradientUnits="userSpaceOnUse" gradientTransform="translate(24.5923 38.3307) rotate(-147.484) scale(2.00235 2.97828)">
<stop offset="0.425" stop-color="white"/>
<stop offset="1" stop-color="white" stop-opacity="0"/>
</radialGradient>
<radialGradient id="paint31_radial_2230_13837" cx="0" cy="0" r="1" gradientUnits="userSpaceOnUse" gradientTransform="translate(28.0623 41.9105) rotate(-147.475) scale(1.62561 2.19049)">
<stop offset="0.425" stop-color="white"/>
<stop offset="1" stop-color="white" stop-opacity="0"/>
</radialGradient>
<radialGradient id="paint32_radial_2230_13837" cx="0" cy="0" r="1" gradientUnits="userSpaceOnUse" gradientTransform="translate(19.2487 36.7349) rotate(-145.188) scale(1.80866 3.28276)">
<stop offset="0.425" stop-color="white"/>
<stop offset="1" stop-color="white" stop-opacity="0"/>
</radialGradient>
<radialGradient id="paint33_radial_2230_13837" cx="0" cy="0" r="1" gradientUnits="userSpaceOnUse" gradientTransform="translate(38.4046 30.6184) rotate(-57.4828) scale(2.18434 7.54356)">
<stop offset="0.425" stop-color="white"/>
<stop offset="1" stop-color="white" stop-opacity="0"/>
</radialGradient>
<radialGradient id="paint34_radial_2230_13837" cx="0" cy="0" r="1" gradientUnits="userSpaceOnUse" gradientTransform="translate(33.2634 16.3661) rotate(4.73224) scale(27.6397 14.4994)">
<stop stop-color="#CD9C71"/>
<stop offset="0.629" stop-color="#B68161"/>
<stop offset="0.713" stop-color="#B17C5D"/>
<stop offset="0.816" stop-color="#A16F53"/>
<stop offset="0.931" stop-color="#885941"/>
<stop offset="1" stop-color="#754934"/>
</radialGradient>
<radialGradient id="paint35_radial_2230_13837" cx="0" cy="0" r="1" gradientUnits="userSpaceOnUse" gradientTransform="translate(34.903 34.8497) rotate(-55.1943) scale(2.18419 7.15262)">
<stop offset="0.425" stop-color="white"/>
<stop offset="1" stop-color="white" stop-opacity="0"/>
</radialGradient>
<linearGradient id="paint36_linear_2230_13837" x1="14.0559" y1="26.1358" x2="48.6364" y2="25.3885" gradientUnits="userSpaceOnUse">
<stop stop-color="#C5946B" stop-opacity="0.545"/>
<stop offset="1" stop-color="#B07C5D"/>
</linearGradient>
<linearGradient id="paint37_linear_2230_13837" x1="14.03" y1="26.2901" x2="48.5199" y2="25.6001" gradientUnits="userSpaceOnUse">
<stop stop-color="#BD8D66" stop-opacity="0.591"/>
<stop offset="1" stop-color="#AA7759"/>
</linearGradient>
<linearGradient id="paint38_linear_2230_13837" x1="14.0548" y1="26.1849" x2="48.4533" y2="25.5899" gradientUnits="userSpaceOnUse">
<stop stop-color="#B58560" stop-opacity="0.636"/>
<stop offset="1" stop-color="#A47255"/>
</linearGradient>
<linearGradient id="paint39_linear_2230_13837" x1="14.0956" y1="25.956" x2="48.4006" y2="25.471" gradientUnits="userSpaceOnUse">
<stop stop-color="#AD7E5B" stop-opacity="0.682"/>
<stop offset="1" stop-color="#9E6D51"/>
</linearGradient>
<linearGradient id="paint40_linear_2230_13837" x1="13.9958" y1="26.5322" x2="48.209" y2="26.0485" gradientUnits="userSpaceOnUse">
<stop stop-color="#A57655" stop-opacity="0.727"/>
<stop offset="1" stop-color="#98684D"/>
</linearGradient>
<linearGradient id="paint41_linear_2230_13837" x1="14.0486" y1="26.264" x2="48.176" y2="25.8953" gradientUnits="userSpaceOnUse">
<stop stop-color="#9D6F50" stop-opacity="0.773"/>
<stop offset="1" stop-color="#936248"/>
</linearGradient>
<linearGradient id="paint42_linear_2230_13837" x1="14.0454" y1="26.2914" x2="48.0828" y2="25.9985" gradientUnits="userSpaceOnUse">
<stop stop-color="#95674A" stop-opacity="0.818"/>
<stop offset="1" stop-color="#8D5D44"/>
</linearGradient>
<linearGradient id="paint43_linear_2230_13837" x1="13.8829" y1="26.4069" x2="47.8277" y2="26.4069" gradientUnits="userSpaceOnUse">
<stop stop-color="#8D6045" stop-opacity="0.864"/>
<stop offset="1" stop-color="#875840"/>
</linearGradient>
<linearGradient id="paint44_linear_2230_13837" x1="13.9065" y1="26.3996" x2="47.786" y2="26.3996" gradientUnits="userSpaceOnUse">
<stop stop-color="#85583F" stop-opacity="0.909"/>
<stop offset="1" stop-color="#81533C"/>
</linearGradient>
<linearGradient id="paint45_linear_2230_13837" x1="13.9306" y1="26.396" x2="47.7507" y2="26.396" gradientUnits="userSpaceOnUse">
<stop stop-color="#7D513A" stop-opacity="0.955"/>
<stop offset="1" stop-color="#7B4E38"/>
</linearGradient>
<linearGradient id="paint46_linear_2230_13837" x1="13.5874" y1="16.9178" x2="52.5779" y2="16.9178" gradientUnits="userSpaceOnUse">
<stop stop-color="#B07C5D"/>
<stop offset="0.519" stop-color="#C5946B" stop-opacity="0.545"/>
<stop offset="0.715" stop-color="#C08F68" stop-opacity="0.731"/>
<stop offset="0.959" stop-color="#B37F5F" stop-opacity="0.962"/>
<stop offset="0.999" stop-color="#B07C5D"/>
</linearGradient>
<linearGradient id="paint47_linear_2230_13837" x1="13.6049" y1="16.8368" x2="52.4589" y2="16.8368" gradientUnits="userSpaceOnUse">
<stop stop-color="#AA7759"/>
<stop offset="0.519" stop-color="#BD8D66" stop-opacity="0.591"/>
<stop offset="0.725" stop-color="#B88863" stop-opacity="0.767"/>
<stop offset="0.982" stop-color="#AB785A" stop-opacity="0.986"/>
<stop offset="0.999" stop-color="#AA7759"/>
</linearGradient>
<linearGradient id="paint48_linear_2230_13837" x1="13.6183" y1="16.7559" x2="52.3502" y2="16.7559" gradientUnits="userSpaceOnUse">
<stop stop-color="#A47255"/>
<stop offset="0.519" stop-color="#B58560" stop-opacity="0.636"/>
<stop offset="0.744" stop-color="#B0805D" stop-opacity="0.807"/>
<stop offset="0.999" stop-color="#A47255"/>
</linearGradient>
<linearGradient id="paint49_linear_2230_13837" x1="13.6278" y1="16.675" x2="52.2607" y2="16.675" gradientUnits="userSpaceOnUse">
<stop stop-color="#9E6D51"/>
<stop offset="0.519" stop-color="#AD7E5B" stop-opacity="0.682"/>
<stop offset="0.759" stop-color="#A87958" stop-opacity="0.841"/>
<stop offset="0.999" stop-color="#9E6D51"/>
</linearGradient>
<linearGradient id="paint50_linear_2230_13837" x1="13.6337" y1="16.6121" x2="52.1808" y2="16.6121" gradientUnits="userSpaceOnUse">
<stop stop-color="#98684D"/>
<stop offset="0.519" stop-color="#A57655" stop-opacity="0.727"/>
<stop offset="0.789" stop-color="#A07152" stop-opacity="0.881"/>
<stop offset="0.999" stop-color="#98684D"/>
</linearGradient>
<linearGradient id="paint51_linear_2230_13837" x1="13.6356" y1="16.5783" x2="52.1053" y2="16.5783" gradientUnits="userSpaceOnUse">
<stop stop-color="#936248"/>
<stop offset="0.519" stop-color="#9D6F50" stop-opacity="0.773"/>
<stop offset="0.801" stop-color="#996A4D" stop-opacity="0.906"/>
<stop offset="0.999" stop-color="#936248"/>
</linearGradient>
<linearGradient id="paint52_linear_2230_13837" x1="13.6338" y1="16.5444" x2="52.0347" y2="16.5444" gradientUnits="userSpaceOnUse">
<stop stop-color="#8D5D44"/>
<stop offset="0.519" stop-color="#95674A" stop-opacity="0.818"/>
<stop offset="0.849" stop-color="#916247" stop-opacity="0.943"/>
<stop offset="0.999" stop-color="#8D5D44"/>
</linearGradient>
<linearGradient id="paint53_linear_2230_13837" x1="13.6277" y1="16.5118" x2="51.9645" y2="16.5118" gradientUnits="userSpaceOnUse">
<stop stop-color="#875840"/>
<stop offset="0.519" stop-color="#8D6045" stop-opacity="0.864"/>
<stop offset="0.897" stop-color="#895B42" stop-opacity="0.971"/>
<stop offset="0.999" stop-color="#875840"/>
</linearGradient>
<linearGradient id="paint54_linear_2230_13837" x1="13.6181" y1="16.4779" x2="51.8969" y2="16.4779" gradientUnits="userSpaceOnUse">
<stop stop-color="#81533C"/>
<stop offset="0.519" stop-color="#85583F" stop-opacity="0.909"/>
<stop offset="0.999" stop-color="#81533C"/>
</linearGradient>
<linearGradient id="paint55_linear_2230_13837" x1="13.6019" y1="16.4441" x2="51.8288" y2="16.4441" gradientUnits="userSpaceOnUse">
<stop stop-color="#7B4E38"/>
<stop offset="0.519" stop-color="#7D513A" stop-opacity="0.955"/>
<stop offset="0.999" stop-color="#7B4E38"/>
</linearGradient>
<radialGradient id="paint56_radial_2230_13837" cx="0" cy="0" r="1" gradientUnits="userSpaceOnUse" gradientTransform="translate(20.4099 17.9643) rotate(-123.96) scale(1.87759 5.28087)">
<stop offset="0.425" stop-color="white"/>
<stop offset="1" stop-color="white" stop-opacity="0"/>
</radialGradient>
<radialGradient id="paint57_radial_2230_13837" cx="0" cy="0" r="1" gradientUnits="userSpaceOnUse" gradientTransform="translate(26.4516 15.7472) rotate(-93.5021) scale(1.87773 5.4776)">
<stop offset="0.425" stop-color="white"/>
<stop offset="1" stop-color="white" stop-opacity="0"/>
</radialGradient>
</defs>
</svg>
