<svg width="40" height="40" viewBox="0 0 40 40" fill="none" xmlns="http://www.w3.org/2000/svg">
<g id="fluent:info-20-regular" clip-path="url(#clip0_1214_17074)">
<path id="Vector" d="M20.9034 17.384C20.8486 17.089 20.6825 16.8246 20.4377 16.643C20.193 16.4614 19.8874 16.3757 19.5811 16.4027C19.2748 16.4298 18.99 16.5678 18.7828 16.7894C18.5756 17.011 18.461 17.3002 18.4615 17.6V28.4049L18.4812 28.6208C18.536 28.9159 18.7021 29.1803 18.9469 29.3619C19.1916 29.5435 19.4972 29.6292 19.8035 29.6022C20.1098 29.5751 20.3946 29.4371 20.6018 29.2155C20.809 28.9939 20.9236 28.7047 20.9231 28.4049V17.6L20.9034 17.384ZM21.6591 12.2C21.6591 11.7227 21.4646 11.2648 21.1184 10.9273C20.7721 10.5897 20.3026 10.4 19.8129 10.4C19.3233 10.4 18.8537 10.5897 18.5075 10.9273C18.1613 11.2648 17.9668 11.7227 17.9668 12.2C17.9668 12.6774 18.1613 13.1353 18.5075 13.4728C18.8537 13.8104 19.3233 14 19.8129 14C20.3026 14 20.7721 13.8104 21.1184 13.4728C21.4646 13.1353 21.6591 12.6774 21.6591 12.2ZM39.3846 20C39.3846 14.9079 37.3099 10.0243 33.6169 6.4236C29.9239 2.8229 24.915 0.800049 19.6923 0.800049C14.4696 0.800049 9.46077 2.8229 5.76774 6.4236C2.07472 10.0243 0 14.9079 0 20C0 25.0922 2.07472 29.9758 5.76774 33.5765C9.46077 37.1772 14.4696 39.2001 19.6923 39.2001C24.915 39.2001 29.9239 37.1772 33.6169 33.5765C37.3099 29.9758 39.3846 25.0922 39.3846 20ZM2.46154 20C2.46154 17.7938 2.90723 15.6092 3.77315 13.571C4.63908 11.5327 5.90829 9.68068 7.50831 8.12066C9.10834 6.56063 11.0078 5.32315 13.0984 4.47887C15.1889 3.63459 17.4295 3.20005 19.6923 3.20005C21.9551 3.20005 24.1957 3.63459 26.2862 4.47887C28.3768 5.32315 30.2763 6.56063 31.8763 8.12066C33.4763 9.68068 34.7455 11.5327 35.6115 13.571C36.4774 15.6092 36.9231 17.7938 36.9231 20C36.9231 24.4557 35.1077 28.7288 31.8763 31.8794C28.6449 35.0301 24.2622 36.8 19.6923 36.8C15.1224 36.8 10.7397 35.0301 7.50831 31.8794C4.27692 28.7288 2.46154 24.4557 2.46154 20Z" fill="#0F63FB"/>
</g>
<defs>
<clipPath id="clip0_1214_17074">
<rect width="40" height="40" fill="white"/>
</clipPath>
</defs>
</svg>
