<svg width="18" height="18" viewBox="0 0 18 18" fill="none" xmlns="http://www.w3.org/2000/svg">
<path d="M5.84311 7.57287C5.62201 7.33168 5.24012 7.31156 4.99889 7.53267C4.7577 7.75378 4.73758 8.13566 4.95868 8.37689L7.99386 11.6734C8.11448 11.794 8.25518 11.8744 8.41596 11.8744C8.41596 11.8744 8.41596 11.8744 8.43604 11.8744C8.59686 11.8744 8.75764 11.8141 8.85813 11.6935L16.5366 4.03519C16.7778 3.794 16.7778 3.41207 16.5366 3.19096C16.2954 2.94977 15.9135 2.94977 15.6923 3.19096L8.4562 10.407L5.84311 7.57287Z" fill="#FE9C5B" stroke="#FFB628" stroke-width="0.6"/>
<path d="M16.397 8.39709C16.0552 8.39709 15.794 8.6584 15.794 9.00008C15.794 12.7388 12.7387 15.7941 9 15.7941C5.26129 15.7941 2.20603 12.7388 2.20603 9.00012C2.20603 5.26145 5.26129 2.20615 9 2.20615C9.34172 2.20615 9.603 1.94484 9.603 1.60316C9.603 1.26147 9.34168 1.00012 9 1.00012C4.59797 1.00012 1 4.59809 1 9.00012C1 13.4022 4.59797 17.0001 9 17.0001C13.402 17.0001 17 13.4022 17 9.00012C17 8.6584 16.7387 8.39709 16.397 8.39709Z" fill="#FE9C5B" stroke="#FFB628" stroke-width="0.6"/>
</svg>
