<svg width="72" height="65" viewBox="0 0 72 65" fill="none" xmlns="http://www.w3.org/2000/svg">
<path fill-rule="evenodd" clip-rule="evenodd" d="M5.17374 18.2912H3.70792L1.23598 23.1173H70.4504L67.9784 18.2912H66.5131L35.8434 0.400513L5.17374 18.2912ZM13.5965 23.1174V26.737C13.5965 27.403 13.0428 27.9435 12.3605 27.9435C11.6782 27.9435 11.1245 28.4841 11.1245 29.1501V48.4548C11.1245 49.1208 11.6782 49.6613 12.3605 49.6613C13.0428 49.6613 13.5965 50.2019 13.5965 50.8679V54.4875H17.304V50.8679C17.304 50.2019 17.8577 49.6613 18.5399 49.6613C19.2222 49.6613 19.7759 49.1208 19.7759 48.4548V29.1501C19.7759 28.4841 19.2222 27.9435 18.5399 27.9435C17.8577 27.9435 17.304 27.403 17.304 26.737V23.1174H21.0119H23.4838H27.1917V26.737C27.1917 27.403 26.638 27.9435 25.9558 27.9435C25.2735 27.9435 24.7198 28.4841 24.7198 29.1501V48.4548C24.7198 49.1208 25.2735 49.6613 25.9558 49.6613C26.638 49.6613 27.1917 50.2019 27.1917 50.8679V54.4875H30.8992V50.8679C30.8992 50.2019 31.4529 49.6613 32.1352 49.6613C32.8175 49.6613 33.3712 49.1208 33.3712 48.4548V29.1501C33.3712 28.4841 32.8175 27.9435 32.1352 27.9435C31.4529 27.9435 30.8992 27.403 30.8992 26.737V23.1174H34.6071H37.0791H40.787V26.737C40.787 27.403 40.2333 27.9435 39.551 27.9435C38.8688 27.9435 38.3151 28.4841 38.3151 29.1501V48.4548C38.3151 49.1208 38.8688 49.6613 39.551 49.6613C40.2333 49.6613 40.787 50.2019 40.787 50.8679V54.4875H44.4948V50.8679C44.4948 50.2019 45.0485 49.6613 45.7308 49.6613C46.413 49.6613 46.9667 49.1208 46.9667 48.4548V29.1501C46.9667 28.4841 46.413 27.9435 45.7308 27.9435C45.0485 27.9435 44.4948 27.403 44.4948 26.737V23.1174H48.2027H50.6747H54.3826V26.737C54.3826 27.403 53.8289 27.9435 53.1466 27.9435C52.4643 27.9435 51.9106 28.4841 51.9106 29.1501V48.4548C51.9106 49.1208 52.4643 49.6613 53.1466 49.6613C53.8289 49.6613 54.3826 50.2019 54.3826 50.8679V54.4875H58.0913V50.8679C58.0913 50.2019 58.645 49.6613 59.3273 49.6613C60.0095 49.6613 60.5633 49.1208 60.5633 48.4548V29.1501C60.5633 28.4841 60.0095 27.9435 59.3273 27.9435C58.645 27.9435 58.0913 27.403 58.0913 26.737V23.1174H61.7992H64.2712H67.9791V26.737C67.9791 27.403 67.4254 27.9435 66.7431 27.9435C66.0609 27.9435 65.5071 28.4841 65.5071 29.1501V48.4548C65.5071 49.1208 66.0609 49.6613 66.7431 49.6613C67.4254 49.6613 67.9791 50.2019 67.9791 50.8679V54.4875L70.4504 54.4875V59.3137H1.23598V54.4875L3.7087 54.4875V50.8679C3.7087 50.2019 4.26241 49.6613 4.94467 49.6613C5.62692 49.6613 6.18064 49.1208 6.18064 48.4548V29.1501C6.18064 28.4841 5.62692 27.9435 4.94467 27.9435C4.26241 27.9435 3.7087 27.403 3.7087 26.737V23.1174H7.41661H9.88855H13.5965ZM71.6866 64.1399V59.3137H0.000244141V64.1399H71.6866Z" fill="url(#paint0_linear)"/>
<defs>
<linearGradient id="paint0_linear" x1="9.76305" y1="16.5909" x2="-3.00634" y2="60.2406" gradientUnits="userSpaceOnUse">
<stop stop-color="#3B8DF2"/>
<stop offset="1" stop-color="#3B43F2"/>
</linearGradient>
</defs>
</svg>
