<svg width="139" height="47" viewBox="0 0 139 47" fill="none" xmlns="http://www.w3.org/2000/svg">
<path opacity="0.8" d="M9.80947 45.1893C9.45556 45.1893 9.1102 45.1848 8.75906 45.177C8.03166 45.1676 7.30595 45.1049 6.5879 44.9894C5.91835 44.8753 5.26974 44.6629 4.66345 44.3594C4.06273 44.0583 3.51482 43.6636 3.04072 43.1903C2.55975 42.7225 2.15933 42.1801 1.85531 41.5843C1.54794 40.9847 1.33523 40.342 1.22457 39.6785C1.10507 38.9656 1.04042 38.2448 1.03117 37.5223C1.0238 37.2797 1.01416 36.4722 1.01416 36.4722V9.90656C1.01416 9.90656 1.02443 9.11143 1.03122 8.87783C1.04008 8.15642 1.10436 7.43671 1.2235 6.72495C1.33436 6.0597 1.54724 5.41512 1.85478 4.81354C2.15768 4.2182 2.55588 3.6753 3.03395 3.2059C3.51148 2.73203 4.06114 2.33526 4.66288 2.03005C5.26777 1.72747 5.91516 1.51661 6.58336 1.40452C7.30377 1.28787 8.03199 1.22481 8.76192 1.21585L9.81004 1.20181H129.184L130.245 1.21642C130.968 1.22493 131.69 1.28743 132.404 1.4034C133.079 1.51688 133.733 1.72922 134.345 2.03342C135.55 2.6485 136.531 3.6216 137.15 4.81634C137.453 5.41378 137.662 6.0531 137.772 6.7126C137.892 7.4302 137.96 8.15556 137.973 8.88289C137.977 9.20857 137.977 9.5584 137.977 9.90656C137.986 10.3378 137.986 10.7483 137.986 11.1621V35.2301C137.986 35.6479 137.986 36.0556 137.977 36.4666C137.977 36.8405 137.977 37.1831 137.972 37.5357C137.959 38.2501 137.892 38.9625 137.774 39.6673C137.665 40.3355 137.454 40.9832 137.147 41.5877C136.84 42.177 136.442 42.7148 135.967 43.1813C135.492 43.6572 134.943 44.0542 134.341 44.3572C133.731 44.6631 133.078 44.8762 132.404 44.9894C131.686 45.1056 130.96 45.1683 130.233 45.177C129.892 45.1848 129.536 45.1893 129.19 45.1893L127.931 45.1916L9.80947 45.1893Z" fill="#3C68F3"/>
<path d="M28.7713 23.5414C28.7838 22.5815 29.0414 21.6404 29.52 20.8055C29.9986 19.9707 30.6827 19.2692 31.5087 18.7665C30.984 18.0245 30.2917 17.414 29.4869 16.9832C28.6822 16.5525 27.787 16.3135 26.8726 16.2851C24.922 16.0825 23.031 17.4407 22.0371 17.4407C21.0238 17.4407 19.4934 16.3053 17.8455 16.3388C16.7795 16.3729 15.7407 16.6798 14.8301 17.2296C13.9196 17.7794 13.1684 18.5533 12.6498 19.4759C10.4033 23.3266 12.079 28.9858 14.2309 32.0984C15.3076 33.6225 16.5659 35.3251 18.2124 35.2647C19.8236 35.1985 20.4254 34.2475 22.3702 34.2475C24.297 34.2475 24.8616 35.2647 26.5415 35.2263C28.2703 35.1985 29.3596 33.6954 30.3985 32.1568C31.1721 31.0708 31.7674 29.8705 32.1623 28.6004C31.1579 28.1798 30.3007 27.4758 29.6977 26.5762C29.0947 25.6765 28.7725 24.6211 28.7713 23.5414Z" fill="white"/>
<path d="M25.5983 14.2381C26.541 13.1178 27.0054 11.6777 26.8929 10.2239C25.4527 10.3736 24.1224 11.0551 23.167 12.1324C22.6999 12.6587 22.3421 13.271 22.1142 13.9343C21.8862 14.5976 21.7926 15.2989 21.8385 15.998C22.5589 16.0054 23.2715 15.8508 23.9228 15.5459C24.574 15.2411 25.1469 14.7939 25.5983 14.2381Z" fill="white"/>
<path d="M49.138 31.4062H43.6397L42.3193 35.2661H39.9905L45.1983 20.9854H47.6179L52.8258 35.2661H50.4572L49.138 31.4062ZM44.2092 29.625H48.5674L46.4189 23.3607H46.3588L44.2092 29.625Z" fill="white"/>
<path d="M64.0729 30.0608C64.0729 33.2963 62.3237 35.375 59.6841 35.375C59.0154 35.4096 58.3504 35.2571 57.7652 34.935C57.18 34.6128 56.6983 34.134 56.3751 33.5534H56.3252V38.7104H54.1665V24.8543H56.256V26.586H56.2957C56.6337 26.0082 57.1236 25.5319 57.7132 25.2078C58.3029 24.8836 58.9703 24.7238 59.6444 24.7454C62.3135 24.7454 64.0729 26.8342 64.0729 30.0608ZM61.8541 30.0608C61.8541 27.9528 60.7538 26.5669 59.0749 26.5669C57.4256 26.5669 56.3161 27.982 56.3161 30.0608C56.3161 32.1586 57.4256 33.5635 59.0749 33.5635C60.7538 33.5635 61.8541 32.1878 61.8541 30.0608Z" fill="white"/>
<path d="M75.6479 30.0607C75.6479 33.2962 73.8987 35.375 71.259 35.375C70.5903 35.4096 69.9253 35.2571 69.3401 34.935C68.7549 34.6128 68.2732 34.134 67.9501 33.5534H67.9001V38.7104H65.7415V24.8543H67.8309V26.586H67.8706C68.2086 26.0082 68.6985 25.5319 69.2881 25.2078C69.8778 24.8836 70.5452 24.7238 71.2193 24.7454C73.8885 24.7454 75.6479 26.8342 75.6479 30.0607ZM73.429 30.0607C73.429 27.9528 72.3287 26.5669 70.6499 26.5669C69.0005 26.5669 67.8911 27.982 67.8911 30.0607C67.8911 32.1586 69.0005 33.5635 70.6499 33.5635C72.3287 33.5635 73.4291 32.1878 73.4291 30.0607H73.429Z" fill="white"/>
<path d="M83.2981 31.2871C83.4581 32.7033 84.8477 33.6331 86.7466 33.6331C88.5661 33.6331 89.8752 32.7032 89.8752 31.4263C89.8752 30.3179 89.0857 29.6542 87.2162 29.1993L85.3468 28.7535C82.6981 28.1201 81.4684 26.8937 81.4684 24.9037C81.4684 22.4397 83.6373 20.7473 86.7171 20.7473C89.7651 20.7473 91.8546 22.4397 91.925 24.9037H89.7458C89.6154 23.4785 88.4254 22.6183 86.6865 22.6183C84.9475 22.6183 83.7575 23.4886 83.7575 24.7554C83.7575 25.765 84.5176 26.3591 86.3768 26.8139L87.966 27.2002C90.9256 27.8932 92.1552 29.0701 92.1552 31.159C92.1552 33.8307 90.0056 35.5041 86.5866 35.5041C83.3877 35.5041 81.2279 33.87 81.0884 31.287L83.2981 31.2871Z" fill="white"/>
<path d="M96.814 22.3903V24.8543H98.8138V26.5467H96.814V32.2866C96.814 33.1783 97.2144 33.5938 98.0935 33.5938C98.3309 33.5897 98.568 33.5732 98.8036 33.5444V35.2267C98.4084 35.2998 98.0066 35.3329 97.6046 35.3255C95.4754 35.3255 94.6451 34.5338 94.6451 32.5146V26.5467H93.116V24.8543H94.645V22.3903H96.814Z" fill="white"/>
<path d="M99.9722 30.0608C99.9722 26.7848 101.921 24.7263 104.96 24.7263C108.009 24.7263 109.949 26.7848 109.949 30.0608C109.949 33.3457 108.019 35.3952 104.96 35.3952C101.902 35.3952 99.9722 33.3457 99.9722 30.0608ZM107.749 30.0608C107.749 27.8135 106.709 26.4872 104.96 26.4872C103.211 26.4872 102.172 27.8237 102.172 30.0608C102.172 32.317 103.211 33.6332 104.96 33.6332C106.709 33.6332 107.749 32.317 107.749 30.0608H107.749Z" fill="white"/>
<path d="M111.729 24.8543H113.787V26.6264H113.837C113.977 26.073 114.304 25.5838 114.765 25.2413C115.225 24.8987 115.791 24.7236 116.367 24.7453C116.616 24.7445 116.864 24.7712 117.107 24.8251V26.8241C116.793 26.7291 116.465 26.6855 116.137 26.695C115.823 26.6824 115.51 26.7371 115.22 26.8554C114.93 26.9737 114.669 27.1528 114.455 27.3804C114.242 27.608 114.08 27.8786 113.982 28.1738C113.884 28.469 113.852 28.7817 113.887 29.0904V35.266H111.729L111.729 24.8543Z" fill="white"/>
<path d="M127.059 32.208C126.769 34.0981 124.91 35.3952 122.531 35.3952C119.472 35.3952 117.573 33.3659 117.573 30.1101C117.573 26.8443 119.482 24.7263 122.44 24.7263C125.35 24.7263 127.18 26.7051 127.18 29.8619V30.5942H119.752V30.7233C119.718 31.1065 119.766 31.4925 119.894 31.8557C120.022 32.219 120.227 32.5511 120.494 32.83C120.762 33.1089 121.086 33.3283 121.446 33.4735C121.806 33.6188 122.193 33.6866 122.581 33.6724C123.091 33.7198 123.603 33.6028 124.041 33.3389C124.478 33.0751 124.818 32.6784 125.01 32.208L127.059 32.208ZM119.762 29.1005H125.02C125.039 28.756 124.986 28.4112 124.865 28.0878C124.743 27.7644 124.555 27.4694 124.313 27.2213C124.071 26.9731 123.78 26.7773 123.457 26.6459C123.135 26.5146 122.789 26.4506 122.44 26.458C122.089 26.4559 121.74 26.5228 121.415 26.6547C121.09 26.7867 120.794 26.9811 120.545 27.2268C120.296 27.4725 120.099 27.7645 119.964 28.0861C119.83 28.4077 119.761 28.7525 119.762 29.1005V29.1005Z" fill="white"/>
<path d="M43.9383 10.2362C44.3909 10.2041 44.845 10.2717 45.268 10.4344C45.6909 10.597 46.0722 10.8506 46.3841 11.1768C46.6961 11.5029 46.9311 11.8936 47.0721 12.3205C47.2131 12.7475 47.2567 13.2001 47.1996 13.6458C47.1996 15.838 46.0029 17.0981 43.9383 17.0981H41.4348V10.2362H43.9383ZM42.5113 16.1277H43.8181C44.1415 16.1468 44.4651 16.0943 44.7654 15.974C45.0657 15.8537 45.3352 15.6686 45.5541 15.4322C45.7731 15.1958 45.936 14.914 46.0311 14.6074C46.1262 14.3008 46.1511 13.9771 46.1038 13.6598C46.1476 13.3437 46.1203 13.022 46.0237 12.7176C45.9272 12.4132 45.7638 12.1338 45.5454 11.8993C45.3269 11.6647 45.0588 11.481 44.7602 11.3611C44.4615 11.2412 44.1398 11.1882 43.8181 11.2059H42.5113V16.1277Z" fill="white"/>
<path d="M48.4157 14.5065C48.3828 14.1662 48.4222 13.8229 48.5312 13.4985C48.6402 13.1741 48.8164 12.8759 49.0487 12.6229C49.2809 12.3699 49.564 12.1678 49.8798 12.0295C50.1956 11.8912 50.5371 11.8197 50.8824 11.8197C51.2277 11.8197 51.5692 11.8912 51.885 12.0295C52.2007 12.1678 52.4838 12.3699 52.7161 12.6229C52.9483 12.8759 53.1246 13.1741 53.2336 13.4985C53.3426 13.8229 53.3819 14.1662 53.349 14.5065C53.3826 14.8472 53.3437 15.191 53.235 15.5159C53.1263 15.8408 52.9501 16.1396 52.7178 16.3931C52.4855 16.6466 52.2022 16.8491 51.8861 16.9877C51.57 17.1264 51.2281 17.198 50.8824 17.198C50.5367 17.198 50.1948 17.1264 49.8787 16.9877C49.5626 16.8491 49.2793 16.6466 49.047 16.3931C48.8147 16.1396 48.6385 15.8408 48.5298 15.5159C48.4211 15.191 48.3822 14.8472 48.4157 14.5065ZM52.2873 14.5065C52.2873 13.3841 51.7779 12.7276 50.8841 12.7276C49.9868 12.7276 49.4821 13.3841 49.4821 14.5065C49.4821 15.638 49.9868 16.2894 50.8841 16.2894C51.778 16.2894 52.2873 15.6335 52.2873 14.5065H52.2873Z" fill="white"/>
<path d="M59.9067 17.098H58.8359L57.7548 13.2841H57.6732L56.5966 17.098H55.536L54.0942 11.9196H55.1413L56.0782 15.871H56.1554L57.2308 11.9196H58.221L59.2964 15.871H59.3781L60.3105 11.9196H61.3428L59.9067 17.098Z" fill="white"/>
<path d="M62.5554 11.9196H63.5491V12.7422H63.6263C63.7571 12.4468 63.9778 12.1991 64.2576 12.0337C64.5374 11.8683 64.8623 11.7935 65.1871 11.8196C65.4416 11.8007 65.6972 11.8387 65.9348 11.9308C66.1725 12.0229 66.3862 12.1668 66.56 12.3518C66.7339 12.5367 66.8635 12.7581 66.9393 12.9993C67.015 13.2406 67.0349 13.4957 66.9976 13.7457V17.0979H65.9653V14.0023C65.9653 13.1701 65.6 12.7563 64.8366 12.7563C64.6638 12.7483 64.4913 12.7774 64.331 12.8416C64.1706 12.9058 64.0262 13.0036 63.9075 13.1282C63.7889 13.2529 63.6989 13.4015 63.6437 13.5638C63.5885 13.7261 63.5694 13.8983 63.5877 14.0685V17.098H62.5554L62.5554 11.9196Z" fill="white"/>
<path d="M68.6423 9.8981H69.6746V17.098H68.6423V9.8981Z" fill="white"/>
<path d="M71.1098 14.5065C71.0769 14.1662 71.1163 13.8228 71.2253 13.4984C71.3343 13.1741 71.5106 12.8758 71.7429 12.6228C71.9752 12.3698 72.2583 12.1677 72.5741 12.0294C72.8899 11.8911 73.2314 11.8196 73.5767 11.8196C73.9221 11.8196 74.2636 11.8911 74.5794 12.0294C74.8952 12.1677 75.1783 12.3698 75.4105 12.6228C75.6428 12.8758 75.8191 13.1741 75.9281 13.4984C76.0372 13.8228 76.0765 14.1662 76.0437 14.5065C76.0771 14.8472 76.0382 15.191 75.9295 15.5159C75.8207 15.8408 75.6445 16.1396 75.4122 16.3931C75.1799 16.6466 74.8966 16.8491 74.5805 16.9877C74.2643 17.1263 73.9225 17.1979 73.5767 17.1979C73.231 17.1979 72.8891 17.1263 72.573 16.9877C72.2569 16.8491 71.9736 16.6466 71.7412 16.3931C71.5089 16.1396 71.3327 15.8408 71.224 15.5159C71.1152 15.191 71.0763 14.8472 71.1098 14.5065ZM74.9813 14.5065C74.9813 13.3841 74.472 12.7276 73.5781 12.7276C72.6809 12.7276 72.1761 13.3841 72.1761 14.5066C72.1761 15.638 72.6809 16.2894 73.5781 16.2894C74.472 16.2894 74.9813 15.6335 74.9813 14.5065H74.9813Z" fill="white"/>
<path d="M77.1304 15.6335C77.1304 14.7014 77.8314 14.164 79.0758 14.0877L80.4926 14.0068V13.5598C80.4926 13.0129 80.1274 12.7041 79.4218 12.7041C78.8455 12.7041 78.4462 12.9135 78.3317 13.2796H77.3323C77.4378 12.3902 78.2829 11.8197 79.4694 11.8197C80.7807 11.8197 81.5203 12.466 81.5203 13.5598V17.098H80.5266V16.3703H80.445C80.2792 16.6313 80.0464 16.8441 79.7704 16.9869C79.4944 17.1298 79.185 17.1975 78.8739 17.1833C78.6543 17.2059 78.4324 17.1827 78.2224 17.1152C78.0124 17.0477 77.8191 16.9374 77.6548 16.7914C77.4905 16.6454 77.359 16.4669 77.2687 16.2675C77.1784 16.068 77.1312 15.8521 77.1304 15.6335ZM80.4926 15.191V14.7581L79.2153 14.839C78.495 14.8867 78.1683 15.1293 78.1683 15.5858C78.1683 16.0519 78.5767 16.3231 79.1382 16.3231C79.3028 16.3396 79.469 16.3231 79.6269 16.2747C79.7849 16.2263 79.9315 16.1469 80.0578 16.0413C80.1842 15.9357 80.2878 15.806 80.3625 15.6599C80.4372 15.5139 80.4814 15.3544 80.4926 15.191Z" fill="white"/>
<path d="M82.877 14.5065C82.877 12.8703 83.7266 11.8337 85.0481 11.8337C85.375 11.8188 85.6994 11.8963 85.9835 12.0572C86.2675 12.218 86.4994 12.4556 86.6521 12.7422H86.7293V9.8981H87.7615V17.098H86.7724V16.2798H86.6907C86.5262 16.5644 86.2862 16.7991 85.9967 16.9583C85.7071 17.1176 85.3791 17.1954 85.0481 17.1833C83.7175 17.1834 82.877 16.1468 82.877 14.5065ZM83.9433 14.5065C83.9433 15.6049 84.4662 16.2658 85.3408 16.2658C86.2109 16.2658 86.7486 15.5954 86.7486 14.511C86.7486 13.4318 86.2052 12.7518 85.3408 12.7518C84.4719 12.7518 83.9433 13.4172 83.9433 14.5065H83.9433Z" fill="white"/>
<path d="M92.0324 14.5065C91.9995 14.1662 92.0389 13.8229 92.1479 13.4985C92.2569 13.1741 92.4331 12.8759 92.6654 12.6229C92.8976 12.3699 93.1807 12.1678 93.4965 12.0295C93.8123 11.8912 94.1538 11.8197 94.4991 11.8197C94.8444 11.8197 95.1859 11.8912 95.5016 12.0295C95.8174 12.1678 96.1005 12.3699 96.3328 12.6229C96.565 12.8759 96.7413 13.1741 96.8503 13.4985C96.9593 13.8229 96.9986 14.1662 96.9657 14.5065C96.9992 14.8472 96.9604 15.191 96.8517 15.5159C96.743 15.8408 96.5668 16.1396 96.3345 16.3931C96.1022 16.6466 95.8189 16.8491 95.5028 16.9877C95.1867 17.1264 94.8448 17.198 94.4991 17.198C94.1534 17.198 93.8115 17.1264 93.4954 16.9877C93.1793 16.8491 92.896 16.6466 92.6637 16.3931C92.4314 16.1396 92.2552 15.8408 92.1465 15.5159C92.0378 15.191 91.9989 14.8472 92.0324 14.5065ZM95.904 14.5065C95.904 13.3841 95.3946 12.7276 94.5008 12.7276C93.6035 12.7276 93.0988 13.3841 93.0988 14.5065C93.0988 15.638 93.6035 16.2894 94.5008 16.2894C95.3947 16.2894 95.904 15.6335 95.904 14.5065Z" fill="white"/>
<path d="M98.3508 11.9196H99.3445V12.7422H99.4217C99.5525 12.4468 99.7732 12.1991 100.053 12.0337C100.333 11.8683 100.658 11.7935 100.983 11.8196C101.237 11.8007 101.493 11.8387 101.73 11.9308C101.968 12.0229 102.182 12.1668 102.355 12.3518C102.529 12.5367 102.659 12.7581 102.735 12.9993C102.81 13.2406 102.83 13.4957 102.793 13.7457V17.0979H101.761V14.0023C101.761 13.1701 101.395 12.7563 100.632 12.7563C100.459 12.7483 100.287 12.7774 100.126 12.8416C99.966 12.9058 99.8216 13.0036 99.7029 13.1282C99.5843 13.2529 99.4943 13.4015 99.4391 13.5638C99.3839 13.7261 99.3648 13.8983 99.3831 14.0685V17.098H98.3508V11.9196Z" fill="white"/>
<path d="M108.626 10.6303V11.9432H109.759V12.804H108.626V15.4667C108.626 16.0092 108.851 16.2467 109.365 16.2467C109.497 16.2463 109.628 16.2384 109.759 16.2231V17.0744C109.574 17.1072 109.386 17.1247 109.197 17.1266C108.049 17.1266 107.592 16.7268 107.592 15.7284V12.804H106.762V11.9431H107.592V10.6303H108.626Z" fill="white"/>
<path d="M111.169 9.8981H112.192V12.7518H112.274C112.411 12.4536 112.638 12.2045 112.923 12.0385C113.209 11.8725 113.539 11.7976 113.869 11.8241C114.122 11.8105 114.375 11.8523 114.61 11.9467C114.845 12.041 115.056 12.1856 115.228 12.3699C115.4 12.5543 115.529 12.774 115.605 13.0134C115.682 13.2528 115.704 13.5059 115.67 13.7546V17.098H114.637V14.0068C114.637 13.1796 114.248 12.7607 113.518 12.7607C113.341 12.7463 113.162 12.7705 112.995 12.8315C112.828 12.8925 112.677 12.9889 112.551 13.114C112.426 13.239 112.33 13.3897 112.269 13.5554C112.209 13.7212 112.185 13.898 112.201 14.0736V17.0979H111.169L111.169 9.8981Z" fill="white"/>
<path d="M121.689 15.6998C121.549 16.173 121.245 16.5824 120.831 16.8563C120.416 17.1302 119.918 17.2511 119.423 17.1979C119.078 17.2069 118.736 17.1416 118.419 17.0064C118.102 16.8712 117.819 16.6695 117.59 16.4152C117.36 16.1609 117.188 15.8601 117.088 15.5337C116.987 15.2073 116.959 14.8631 117.006 14.5251C116.961 14.1859 116.989 13.841 117.089 13.5136C117.19 13.1863 117.36 12.8841 117.589 12.6276C117.817 12.371 118.099 12.1661 118.415 12.0267C118.73 11.8873 119.072 11.8167 119.418 11.8196C120.873 11.8196 121.751 12.804 121.751 14.4301V14.7867H118.058V14.844C118.042 15.034 118.066 15.2253 118.129 15.4056C118.192 15.5858 118.292 15.7511 118.423 15.8908C118.554 16.0305 118.713 16.1415 118.89 16.2167C119.067 16.2919 119.258 16.3296 119.451 16.3275C119.698 16.3569 119.948 16.3128 120.17 16.201C120.391 16.0893 120.574 15.9148 120.695 15.6997L121.689 15.6998ZM118.058 14.0309H120.7C120.713 13.8571 120.689 13.6825 120.63 13.5184C120.571 13.3543 120.477 13.2042 120.356 13.0779C120.235 12.9516 120.088 12.8517 119.926 12.7848C119.763 12.7179 119.588 12.6854 119.412 12.6894C119.234 12.6872 119.057 12.7204 118.891 12.787C118.726 12.8537 118.576 12.9524 118.449 13.0774C118.323 13.2025 118.224 13.3512 118.156 13.515C118.089 13.6787 118.056 13.8542 118.058 14.0309H118.058Z" fill="white"/>
</svg>
