<svg width="77" height="71" viewBox="0 0 77 71" fill="none" xmlns="http://www.w3.org/2000/svg">
<path d="M47.0257 54.003C48.6398 55.5095 49.5007 57.5541 49.5007 59.7063V62.9346H0.000244141V59.7063C0.000244141 56.478 2.04483 53.5725 5.0579 52.3888L15.6036 48.4073C17.3254 47.7616 18.4015 46.1475 18.4015 44.4257V42.2735C18.4015 41.0898 17.8634 39.9061 17.0026 39.0452C14.3123 36.7854 12.9134 33.4495 13.021 30.006C13.021 29.8984 13.021 29.6832 13.021 29.5756H11.9449C10.1156 29.5756 8.71663 28.1767 8.71663 26.3473V23.119C8.71663 21.8277 9.46989 20.644 10.6536 20.1059C10.0079 18.169 9.68511 16.232 9.68511 14.1874C9.68511 6.22431 14.7428 0.520996 21.7374 0.520996C27.4407 0.520996 33.4668 2.99602 34.7582 8.48411C38.2017 9.23738 40.8919 13.8646 39.3854 19.8907L39.1702 20.3212C40.2463 20.8592 40.8919 21.9353 40.8919 23.119V26.3473C40.8919 28.1767 39.493 29.5756 37.6636 29.5756H36.5875V30.006C36.8027 33.4495 35.2962 36.7854 32.606 39.0452C31.6375 39.9061 31.207 41.0898 31.207 42.2735V44.4257C31.207 46.2551 32.2831 47.8692 34.0049 48.4073C37.9864 49.9138 35.1886 48.7301 47.0257 54.003Z" fill="url(#paint0_linear)"/>
<path d="M56.912 70.9273L66.8454 65.2497C71.7279 62.4109 74.9268 57.2342 75.2635 51.7236L76.2737 34.1897C63.3098 34.1897 56.912 27.5101 56.912 27.5101C56.912 27.5101 50.5142 34.1897 37.5503 34.1897L38.5605 51.7236C38.8972 57.4012 42.0961 62.5778 46.9786 65.2497L56.912 70.9273Z" fill="url(#paint1_linear)"/>
<path d="M49.0757 61.6255C45.4589 59.6221 43.2487 55.8156 43.0477 51.8087L42.244 38.5861C47.4682 37.7847 52.4915 35.9817 56.912 33.3772C61.3325 35.9817 66.3557 37.7847 71.5799 38.7865L70.7762 52.0091C70.5753 56.016 68.3651 59.8225 64.7483 61.8259L56.912 66.2334L49.0757 61.6255Z" fill="#FAFAFA"/>
<defs>
<linearGradient id="paint0_linear" x1="6.7416" y1="16.3747" x2="-9.68088" y2="55.9615" gradientUnits="userSpaceOnUse">
<stop stop-color="#3B8DF2"/>
<stop offset="1" stop-color="#3B43F2"/>
</linearGradient>
<linearGradient id="paint1_linear" x1="42.824" y1="38.5385" x2="32.3432" y2="66.9495" gradientUnits="userSpaceOnUse">
<stop stop-color="#3B8DF2"/>
<stop offset="1" stop-color="#3B43F2"/>
</linearGradient>
</defs>
</svg>
