<svg width="47" height="50" viewBox="0 0 47 50" fill="none" xmlns="http://www.w3.org/2000/svg">
<path d="M46.341 6.38748C46.3306 6.08597 46.1834 5.8058 45.9414 5.6276C45.6994 5.44951 45.3895 5.39296 45.1009 5.47439C43.1484 6.025 41.122 6.30419 39.078 6.30419C33.4113 6.30419 28.011 4.15947 23.8721 0.265078C23.4966 -0.0883592 22.9132 -0.0883592 22.5376 0.265078C18.3986 4.15947 12.9983 6.30419 7.33158 6.30419C5.43522 6.30419 3.55107 6.06374 1.7315 5.58945C1.44404 5.51441 1.1384 5.57519 0.900963 5.75427C0.663331 5.93334 0.519502 6.21135 0.510024 6.51001C0.49312 7.04007 0.484619 7.57357 0.484619 8.09576C0.484619 16.4337 2.61304 24.6621 6.63989 31.8917C10.5428 38.8989 16.1664 44.8885 22.9023 49.2128C23.0626 49.3157 23.2452 49.3671 23.4278 49.3671C23.6104 49.3671 23.7931 49.3157 23.9533 49.2128C30.6893 44.8884 36.3128 38.8989 40.2157 31.8917C44.2426 24.6622 46.371 16.4337 46.371 8.09576C46.3708 7.54122 46.3607 6.96632 46.341 6.38748ZM23.4276 47.2125C10.2723 38.5203 2.43863 23.9454 2.43863 8.09596C2.43863 7.98886 2.43902 7.88118 2.4398 7.7732C4.04294 8.10392 5.6832 8.2712 7.33148 8.2712C13.1953 8.2712 18.797 6.15972 23.2047 2.30722C27.6124 6.15972 33.2141 8.2712 39.0779 8.2712C40.8798 8.2712 42.6696 8.07147 44.4146 7.67653C44.4159 7.81755 44.4166 7.9573 44.4166 8.09596C44.4166 23.9454 36.583 38.5203 23.4276 47.2125Z" fill="#FFAC75"/>
<path d="M16.4428 9.80282C16.2727 9.28742 15.7198 9.00842 15.2075 9.17973C12.7291 10.0085 10.1366 10.3868 7.50096 10.3055C6.96423 10.2887 6.51086 10.7153 6.49425 11.2582C6.47764 11.801 6.90141 12.2547 7.44077 12.2714C7.6954 12.2793 7.94955 12.2833 8.2034 12.2833C10.8064 12.2833 13.3664 11.868 15.8237 11.0462C16.3358 10.8748 16.613 10.3181 16.4428 9.80282Z" fill="#FFAC75"/>
<path d="M19.2797 9.45093C19.4375 9.45093 19.5976 9.41239 19.7459 9.33116C20.5663 8.88184 21.3699 8.37872 22.1343 7.83598C22.5753 7.52296 22.6806 6.90941 22.3695 6.4655C22.0585 6.02169 21.4488 5.91558 21.0078 6.2288C20.3049 6.72788 19.566 7.19037 18.8116 7.6035C18.3376 7.86312 18.1625 8.46035 18.4204 8.9374C18.5979 9.26527 18.9334 9.45093 19.2797 9.45093Z" fill="#FFAC75"/>
<path d="M34.0714 16.023L21.0339 29.1444L14.4454 22.5134C14.0639 22.1293 13.4452 22.1293 13.0635 22.5134C12.682 22.8974 12.682 23.5201 13.0635 23.9042L20.3429 31.2306C20.5338 31.4226 20.7838 31.5186 21.0338 31.5186C21.2839 31.5186 21.534 31.4226 21.7248 31.2306L35.4531 17.4137C35.8346 17.0297 35.8346 16.407 35.4531 16.0229C35.0716 15.6388 34.4529 15.6388 34.0714 16.023Z" fill="#FFAC75"/>
</svg>
