<svg width="104" height="26" viewBox="0 0 104 26" fill="none" xmlns="http://www.w3.org/2000/svg">
<g id="Frame 828">
<path id="Vector" d="M34.4058 3.68537C34.4058 4.43665 34.1858 5.03534 33.7458 5.48145C33.2465 6.012 32.596 6.27728 31.7942 6.27728C31.4257 6.28386 31.0595 6.21604 30.7171 6.07779C30.3747 5.93953 30.063 5.73361 29.8 5.47204C29.5371 5.21046 29.3283 4.89848 29.1857 4.5543C29.0432 4.21012 28.9697 3.84063 28.9697 3.46741C28.9697 3.09419 29.0432 2.7247 29.1857 2.38052C29.3283 2.03634 29.5371 1.72436 29.8 1.46278C30.063 1.20121 30.3747 0.995289 30.7171 0.857035C31.0595 0.71878 31.4257 0.650961 31.7942 0.657541C32.1691 0.656338 32.5403 0.733049 32.8848 0.882926C33.2044 1.01466 33.4889 1.22053 33.7156 1.48395L33.2488 1.95743C32.8968 1.5317 32.412 1.31884 31.7942 1.31884C31.5252 1.31561 31.2583 1.36681 31.0091 1.46941C30.7599 1.57202 30.5335 1.72398 30.343 1.91637C29.9352 2.31472 29.7313 2.83188 29.7313 3.46785C29.7313 4.10381 29.9352 4.62097 30.343 5.01933C30.7374 5.40286 31.263 5.61705 31.8097 5.61705C32.3565 5.61705 32.8821 5.40286 33.2765 5.01933C33.5353 4.75725 33.682 4.39559 33.7216 3.9291H31.7925V3.28352H34.367C34.3917 3.41604 34.4047 3.55052 34.4058 3.68537Z" fill="white"/>
<path id="Vector_2" d="M38.4869 1.4395H36.0711V3.14472H38.2522V3.79118H36.0711V5.4964H38.4869V6.15683H35.3809V0.778198H38.4869V1.4395Z" fill="white"/>
<path id="Vector_3" d="M41.3652 6.15683H40.6819V1.4395H39.1987V0.778198H42.8491V1.4395H41.3652V6.15683Z" fill="white"/>
<path id="Vector_4" d="M45.49 6.15683V0.778198H46.1759V6.15683H45.49Z" fill="white"/>
<path id="Vector_5" d="M49.2007 6.15683H48.5174V1.4395H47.0334V0.778198H50.6847V1.4395H49.2007V6.15683Z" fill="white"/>
<path id="Vector_6" d="M57.595 5.46233C57.0777 5.98351 56.3775 6.27609 55.6477 6.27609C54.9179 6.27609 54.2178 5.98351 53.7004 5.46233C53.1979 4.92294 52.918 4.20946 52.918 3.46794C52.918 2.72643 53.1979 2.01295 53.7004 1.47356C53.9556 1.21434 54.2589 1.00867 54.5927 0.868334C54.9266 0.727999 55.2845 0.655762 55.646 0.655762C56.0075 0.655762 56.3654 0.727999 56.6993 0.868334C57.0331 1.00867 57.3364 1.21434 57.5916 1.47356C58.0952 2.01167 58.3759 2.72483 58.3759 3.4662C58.3759 4.20757 58.0952 4.92073 57.5916 5.45883L57.595 5.46233ZM54.2043 5.01156C54.5872 5.39869 55.1062 5.61613 55.6473 5.61613C56.1884 5.61613 56.7074 5.39869 57.0903 5.01156C57.4837 4.60855 57.6807 4.09401 57.6813 3.46794C57.6819 2.84188 57.4849 2.32705 57.0903 1.92346C56.7074 1.53633 56.1884 1.31889 55.6473 1.31889C55.1062 1.31889 54.5872 1.53633 54.2043 1.92346C53.8114 2.32705 53.6147 2.84188 53.6142 3.46794C53.6136 4.09401 53.8103 4.60855 54.2043 5.01156Z" fill="white"/>
<path id="Vector_7" d="M59.3357 6.15683V0.778198H60.1665L62.748 4.96264H62.7773L62.748 3.9257V0.780819H63.4313V6.15945H62.7186L60.0173 1.77233H59.988L60.0173 2.80927V6.15945L59.3357 6.15683Z" fill="white"/>
<path id="Vector_8" d="M52.7481 14.0024C51.7438 13.9923 50.7765 14.3855 50.058 15.0961C49.6999 15.4667 49.4188 15.9063 49.2312 16.3888C49.0436 16.8713 48.9534 17.3869 48.9658 17.9053C48.9783 18.4236 49.0932 18.9342 49.3037 19.4069C49.5143 19.8795 49.8162 20.3047 50.1917 20.6573C50.8779 21.2644 51.7532 21.6077 52.6643 21.6272C53.5753 21.6467 54.4642 21.3411 55.1751 20.7639C55.6042 20.4062 55.9485 19.9557 56.1828 19.4454C56.4171 18.9352 56.5353 18.3782 56.5288 17.8155C56.5364 17.3114 56.4437 16.8109 56.2562 16.3438C56.0687 15.8767 55.7903 15.4526 55.4375 15.0967C55.0847 14.7409 54.6648 14.4606 54.2027 14.2726C53.7407 14.0846 53.246 13.9927 52.7481 14.0024ZM52.7481 20.1261C51.6075 20.1261 50.6231 19.1731 50.6231 17.8155C50.6231 16.4431 51.6075 15.5049 52.7481 15.5049C53.8887 15.5049 54.874 16.4431 54.874 17.8155C54.874 19.1731 53.8896 20.1261 52.7481 20.1261ZM44.5026 14.0024C43.7538 13.9983 43.0201 14.2154 42.3914 14.627C41.3854 15.29 40.7219 16.4344 40.7219 17.8155C40.7161 18.3227 40.8114 18.8259 41.002 19.2949C41.1927 19.764 41.4747 20.1893 41.8314 20.5455C42.4911 21.1805 43.3501 21.5607 44.2584 21.6196C45.1668 21.6785 46.0667 21.4124 46.801 20.8678C47.2676 20.5129 47.645 20.0515 47.9024 19.5211C48.1598 18.9908 48.29 18.4064 48.2824 17.8155C48.2881 17.1271 48.1111 16.4498 47.7699 15.8543C47.1142 14.7187 45.8942 14.0024 44.5026 14.0024ZM44.5026 20.1261C43.3611 20.1261 42.3767 19.1731 42.3767 17.8155C42.3767 16.4431 43.3611 15.5049 44.5026 15.5049C45.644 15.5049 46.6276 16.4431 46.6276 17.8155C46.6276 19.1731 45.6432 20.1261 44.5026 20.1261ZM34.6928 15.1764V16.7934H38.5158C38.4019 17.7037 38.1025 18.3659 37.6461 18.8298C37.0896 19.3932 36.2191 20.0143 34.6928 20.0143C32.3392 20.0143 30.4997 18.0925 30.4997 15.7102C30.4997 13.328 32.3392 11.4069 34.6928 11.4069C35.7661 11.3924 36.8018 11.8074 37.5745 12.5618L38.7013 11.4201C37.7462 10.4958 36.4762 9.78821 34.6928 9.78821C33.6301 9.78915 32.5872 10.0791 31.6731 10.6277C29.9424 11.6638 28.7612 13.5542 28.7612 15.7093C28.7612 17.9326 30.0183 19.8746 31.8388 20.887C32.7135 21.375 33.6958 21.6311 34.6945 21.6313C36.4348 21.6313 37.7479 21.0539 38.7746 19.9715C39.8298 18.9023 40.155 17.4006 40.155 16.1872C40.1589 15.8482 40.13 15.5097 40.0688 15.1764H34.6911H34.6928ZM74.8119 16.4327C74.4978 15.5809 73.5419 14.0058 71.5877 14.0058C70.7795 14.0014 69.9949 14.2819 69.3686 14.7991C68.5593 15.47 68.0365 16.527 68.0365 17.819C68.0365 19.9567 69.6335 21.6322 71.7732 21.6322C72.3929 21.6344 73.0035 21.4809 73.5502 21.1854C74.097 20.8899 74.5628 20.4618 74.9059 19.9392L73.6229 19.0726C73.1916 19.7077 72.6101 20.1261 71.768 20.1261C70.9259 20.1261 70.3272 19.7365 69.9424 18.9713L74.9775 16.8625L74.8119 16.4327ZM69.6766 17.7037C69.6335 16.2309 70.8034 15.4796 71.6446 15.4796C72.3012 15.4796 72.8577 15.8115 73.0432 16.2885L71.2822 17.0241L69.6766 17.7037ZM65.5828 21.4007H67.2376V10.1901H65.5828V21.4007ZM62.8728 14.8585H62.8158C62.4449 14.4103 61.7313 14.0058 60.8315 14.0058C59.9554 14.0183 59.1153 14.3609 58.4752 14.9668C58.0505 15.3568 57.7181 15.8389 57.5029 16.3771C57.2877 16.9153 57.1953 17.4957 57.2324 18.075C57.2696 18.6544 57.4354 19.2179 57.7175 19.7233C57.9996 20.2288 58.3907 20.6633 58.8617 20.9945C59.4392 21.4046 60.1261 21.6273 60.8315 21.6331C61.7296 21.6331 62.4431 21.2286 62.8158 20.7665H62.8728V21.3151C62.8728 22.774 62.1023 23.5541 60.8616 23.5541C59.8487 23.5541 59.2224 22.8176 58.9635 22.1965L57.5227 22.8028C57.936 23.8135 59.0343 25.0558 60.8608 25.0558C62.8003 25.0558 64.4404 23.9009 64.4404 21.0845V14.2339H62.8702L62.8728 14.8585ZM60.9747 20.1296C59.8332 20.1296 58.8781 19.1626 58.8781 17.8339C58.8781 16.4903 59.8332 15.5084 60.9747 15.5084C62.1015 15.5084 62.9858 16.4903 62.9858 17.8339C62.9841 19.1591 62.0997 20.1261 60.9729 20.1261L60.9747 20.1296ZM82.5613 10.1936H78.6029V21.3972H80.2551V17.1516H82.5622C83.0861 17.1539 83.6048 17.046 84.0854 16.8347C84.566 16.6235 84.9981 16.3134 85.3541 15.9242C85.8915 15.3058 86.1897 14.5113 86.1936 13.6876C86.1976 12.8639 85.9071 12.0665 85.3757 11.4428C85.0193 11.0456 84.5844 10.7289 84.0993 10.513C83.6141 10.2972 83.0895 10.1872 82.5596 10.1901L82.5613 10.1936ZM82.6044 15.5949H80.2551V11.7511H82.6053C82.8571 11.7486 83.1069 11.7963 83.3404 11.8915C83.574 11.9867 83.7867 12.1276 83.9665 12.3061C84.1463 12.4845 84.2896 12.6971 84.3882 12.9316C84.4869 13.1662 84.5389 13.4181 84.5414 13.673C84.5388 14.5396 83.8373 15.5914 82.6027 15.5914L82.6044 15.5949ZM92.8145 13.9858C91.6179 13.9858 90.3789 14.5195 89.8664 15.7015L91.3331 16.3217C91.6463 15.7015 92.2304 15.4997 92.843 15.4997C93.6971 15.4997 94.5686 16.0186 94.5798 16.9411V17.0564C94.0489 16.769 93.4562 16.619 92.8542 16.6196C92.1831 16.6137 91.5212 16.7786 90.9294 17.0992C90.1874 17.5176 89.6645 18.206 89.6645 19.1434C89.6618 19.5151 89.7479 19.882 89.9154 20.2128C90.0829 20.5437 90.3269 20.8286 90.6265 21.0434C91.1485 21.4176 91.7738 21.6154 92.4133 21.6086C93.5237 21.6086 94.1389 21.1037 94.5202 20.5131H94.5772V21.3789H96.1724V17.0817C96.1724 15.9006 95.6548 15.0297 94.8395 14.5169C94.2812 14.1657 93.5824 13.9823 92.8128 13.9823L92.8145 13.9858ZM92.6152 20.1279C92.0743 20.1279 91.3211 19.8536 91.3211 19.1766C91.3211 18.3108 92.2606 17.9798 93.0725 17.9798C93.799 17.9798 94.1406 18.1379 94.5815 18.3545C94.5202 18.8406 94.287 19.2877 93.9252 19.6131C93.5634 19.9385 93.0974 20.1201 92.6135 20.1244L92.6152 20.1279ZM101.985 14.2304L101.201 16.2396L100.091 19.0875H100.034L98.0688 14.2277H96.2889L97.7108 17.5037L99.2362 21.0181L97.5555 24.7963H99.281L102.504 17.2984L103.824 14.2269L101.985 14.2304ZM87.1038 21.4007H88.756V10.1901H87.1038V21.4007Z" fill="white"/>
<path id="Vector_9" d="M16.2376 8.20622L3.0803 0.389434C2.7748 0.207547 2.41352 0.146879 2.06639 0.219176C1.71926 0.291472 1.41097 0.49159 1.20117 0.780796L12.3448 12.1295L16.2376 8.20622Z" fill="url(#paint0_linear_2482_922)"/>
<path id="Vector_10" d="M0.919948 22.553C0.918159 22.8489 1.00675 23.1382 1.1736 23.3811L12.3414 12.1294L1.19776 0.780762C1.01558 1.02923 0.91808 1.33091 0.919948 1.64036V22.553Z" fill="url(#paint1_linear_2482_922)"/>
<path id="Vector_11" d="M16.1677 16.0265L20.6774 13.3481C20.8927 13.2199 21.0711 13.037 21.1951 12.8175C21.3191 12.598 21.3843 12.3495 21.3843 12.0967C21.3843 11.8438 21.3191 11.5953 21.1951 11.3759C21.0711 11.1564 20.8927 10.9735 20.6774 10.8453L16.2376 8.20618L12.3447 12.1294L16.1677 16.0265Z" fill="url(#paint2_linear_2482_922)"/>
<path id="Vector_12" d="M1.17334 23.3812C1.37965 23.6814 1.6903 23.8918 2.04317 23.9702C2.39604 24.0486 2.76512 23.9892 3.07663 23.804L16.1675 16.0291L12.3411 12.1321L1.17334 23.3812Z" fill="url(#paint3_linear_2482_922)"/>
</g>
<defs>
<linearGradient id="paint0_linear_2482_922" x1="-16.6298" y1="-15.5516" x2="10.7803" y2="6.68962" gradientUnits="userSpaceOnUse">
<stop stop-color="#32A071"/>
<stop offset="0.07" stop-color="#2DA771"/>
<stop offset="0.48" stop-color="#15CF74"/>
<stop offset="0.8" stop-color="#06E775"/>
<stop offset="1" stop-color="#00F076"/>
</linearGradient>
<linearGradient id="paint1_linear_2482_922" x1="20.1253" y1="11.9678" x2="-0.138695" y2="12.0854" gradientUnits="userSpaceOnUse">
<stop stop-color="#00A0FF"/>
<stop offset="0.01" stop-color="#00A1FF"/>
<stop offset="0.26" stop-color="#00BEFF"/>
<stop offset="0.51" stop-color="#00D2FF"/>
<stop offset="0.76" stop-color="#00DFFF"/>
<stop offset="1" stop-color="#00E3FF"/>
</linearGradient>
<linearGradient id="paint2_linear_2482_922" x1="22.9638" y1="12.6536" x2="4.6693" y2="11.2363" gradientUnits="userSpaceOnUse">
<stop stop-color="#FFE000"/>
<stop offset="0.41" stop-color="#FFBD00"/>
<stop offset="0.78" stop-color="#FFA500"/>
<stop offset="1" stop-color="#FF9C00"/>
</linearGradient>
<linearGradient id="paint3_linear_2482_922" x1="20.5815" y1="9.82496" x2="-14.8934" y2="33.0834" gradientUnits="userSpaceOnUse">
<stop stop-color="#FF3A44"/>
<stop offset="1" stop-color="#C31162"/>
</linearGradient>
</defs>
</svg>
