<svg width="90" height="18" viewBox="0 0 90 18" fill="none" xmlns="http://www.w3.org/2000/svg">
<path d="M5.3814 15.4395C5.00312 15.6677 4.53643 15.3291 4.63599 14.8987L5.52064 11.0743C5.56237 10.8939 5.50096 10.7052 5.36103 10.5839L2.39346 8.01107C2.0597 7.7217 2.23767 7.17336 2.67776 7.13515L6.60091 6.7946C6.7855 6.77858 6.9461 6.66179 7.01823 6.49113L8.54042 2.88951C8.71249 2.48238 9.28946 2.48238 9.46153 2.88951L10.9837 6.49113C11.0559 6.66179 11.2164 6.77858 11.401 6.7946L15.3242 7.13515C15.7643 7.17336 15.9423 7.7217 15.6085 8.01107L12.6409 10.5839C12.501 10.7052 12.4396 10.8939 12.4813 11.0743L13.366 14.8987C13.4655 15.3291 12.9988 15.6677 12.6206 15.4395L9.25924 13.4119C9.1004 13.316 8.90155 13.316 8.74271 13.4119L5.3814 15.4395Z" fill="#FFA928"/>
<path d="M23.3814 15.4395C23.0031 15.6677 22.5364 15.3291 22.636 14.8987L23.5206 11.0743C23.5624 10.8939 23.501 10.7052 23.361 10.5839L20.3935 8.01107C20.0597 7.7217 20.2377 7.17336 20.6778 7.13515L24.6009 6.7946C24.7855 6.77858 24.9461 6.66179 25.0182 6.49113L26.5404 2.88951C26.7125 2.48238 27.2895 2.48238 27.4615 2.88951L28.9837 6.49113C29.0559 6.66179 29.2164 6.77858 29.401 6.7946L33.3242 7.13515C33.7643 7.17336 33.9423 7.7217 33.6085 8.01107L30.6409 10.5839C30.501 10.7052 30.4396 10.8939 30.4813 11.0743L31.366 14.8987C31.4655 15.3291 30.9988 15.6677 30.6206 15.4395L27.2592 13.4119C27.1004 13.316 26.9016 13.316 26.7427 13.4119L23.3814 15.4395Z" fill="#FFA928"/>
<path d="M41.3814 15.4395C41.0031 15.6677 40.5364 15.3291 40.636 14.8987L41.5206 11.0743C41.5624 10.8939 41.501 10.7052 41.361 10.5839L38.3935 8.01107C38.0597 7.7217 38.2377 7.17336 38.6778 7.13515L42.6009 6.7946C42.7855 6.77858 42.9461 6.66179 43.0182 6.49113L44.5404 2.88951C44.7125 2.48238 45.2895 2.48238 45.4615 2.88951L46.9837 6.49113C47.0559 6.66179 47.2164 6.77858 47.401 6.7946L51.3242 7.13515C51.7643 7.17336 51.9423 7.7217 51.6085 8.01107L48.6409 10.5839C48.501 10.7052 48.4396 10.8939 48.4813 11.0743L49.366 14.8987C49.4655 15.3291 48.9988 15.6677 48.6206 15.4395L45.2592 13.4119C45.1004 13.316 44.9016 13.316 44.7427 13.4119L41.3814 15.4395Z" fill="#FFA928"/>
<path d="M59.3814 15.4395C59.0031 15.6677 58.5364 15.3291 58.636 14.8987L59.5206 11.0743C59.5624 10.8939 59.501 10.7052 59.361 10.5839L56.3935 8.01107C56.0597 7.7217 56.2377 7.17336 56.6778 7.13515L60.6009 6.7946C60.7855 6.77858 60.9461 6.66179 61.0182 6.49113L62.5404 2.88951C62.7125 2.48238 63.2895 2.48238 63.4615 2.88951L64.9837 6.49113C65.0559 6.66179 65.2164 6.77858 65.401 6.7946L69.3242 7.13515C69.7643 7.17336 69.9423 7.7217 69.6085 8.01107L66.6409 10.5839C66.501 10.7052 66.4396 10.8939 66.4813 11.0743L67.366 14.8987C67.4655 15.3291 66.9988 15.6677 66.6206 15.4395L63.2592 13.4119C63.1004 13.316 62.9016 13.316 62.7427 13.4119L59.3814 15.4395Z" fill="#FFA928"/>
<path d="M82.5232 6.68578L82.9837 6.49113L82.5232 6.68578C82.6674 7.02711 82.9886 7.26068 83.3578 7.29273L87.281 7.63328L84.3134 10.2061C84.0335 10.4487 83.9107 10.8262 83.9942 11.187L84.8788 15.0114L81.5175 12.9837C81.1998 12.7921 80.8021 12.7921 80.4844 12.9837L77.1231 15.0114L78.0078 11.187C78.0912 10.8262 77.9684 10.4487 77.6886 10.2061L74.721 7.63328L78.6442 7.29273L78.6009 6.7946L78.6442 7.29273C79.0133 7.26068 79.3345 7.02711 79.4788 6.68578L81.001 3.08416L82.5232 6.68578Z" stroke="#DAE3F2"/>
<g clip-path="url(#clip0_1093_7658)">
<path d="M77.3804 15.4395C77.0021 15.6677 76.5355 15.3291 76.635 14.8987L77.5197 11.0743C77.5614 10.8939 77.5 10.7052 77.3601 10.5839L74.3925 8.01107C74.0587 7.7217 74.2367 7.17336 74.6768 7.13515L78.5999 6.7946C78.7845 6.77858 78.9451 6.66179 79.0173 6.49113L80.5394 2.88951C80.7115 2.48238 81.2885 2.48238 81.4606 2.88951L82.9827 6.49113C83.0549 6.66179 83.2155 6.77858 83.4001 6.7946L87.3232 7.13515C87.7633 7.17336 87.9413 7.7217 87.6075 8.01107L84.6399 10.5839C84.5 10.7052 84.4386 10.8939 84.4803 11.0743L85.365 14.8987C85.4645 15.3291 84.9979 15.6677 84.6196 15.4395L81.2583 13.4119C81.0994 13.316 80.9006 13.316 80.7417 13.4119L77.3804 15.4395Z" fill="#FFA928"/>
</g>
<defs>
<clipPath id="clip0_1093_7658">
<rect width="9" height="18" fill="white" transform="translate(72)"/>
</clipPath>
</defs>
</svg>
