<svg width="124" height="24" viewBox="0 0 124 24" fill="none" xmlns="http://www.w3.org/2000/svg">
<path d="M11.3444 19.7414C10.8607 20.0332 10.264 19.6002 10.3913 19.0499L11.5224 14.16C11.5758 13.9293 11.4972 13.688 11.3183 13.5329L7.52396 10.2433C7.0972 9.87331 7.32476 9.17219 7.88745 9.12334L12.9036 8.68791C13.1397 8.66742 13.345 8.5181 13.4372 8.29988L15.3835 3.69482C15.6035 3.17426 16.3412 3.17426 16.5613 3.69482L18.5075 8.29988C18.5998 8.5181 18.8051 8.66742 19.0411 8.68791L24.0573 9.12334C24.62 9.17219 24.8476 9.87331 24.4208 10.2433L20.6264 13.5329C20.4475 13.688 20.369 13.9293 20.4224 14.16L21.5535 19.0499C21.6808 19.6002 21.0841 20.0332 20.6004 19.7414L16.3026 17.1488C16.0995 17.0263 15.8453 17.0263 15.6422 17.1488L11.3444 19.7414Z" fill="#FFA216"/>
<path d="M34.36 19.7414C33.8763 20.0332 33.2796 19.6002 33.4069 19.0499L34.538 14.16C34.5914 13.9293 34.5129 13.688 34.3339 13.5329L30.5396 10.2433C30.1128 9.87331 30.3404 9.17219 30.9031 9.12334L35.9193 8.68791C36.1553 8.66742 36.3606 8.5181 36.4528 8.29988L38.3991 3.69482C38.6191 3.17426 39.3569 3.17426 39.5769 3.69482L41.5232 8.29988C41.6154 8.5181 41.8207 8.66742 42.0567 8.68791L47.0729 9.12334C47.6356 9.17219 47.8632 9.87331 47.4364 10.2433L43.6421 13.5329C43.4632 13.688 43.3846 13.9293 43.438 14.16L44.5691 19.0499C44.6964 19.6002 44.0997 20.0332 43.616 19.7414L39.3182 17.1488C39.1151 17.0263 38.8609 17.0263 38.6578 17.1488L34.36 19.7414Z" fill="#FFA216"/>
<path d="M57.3737 19.7414C56.89 20.0332 56.2933 19.6002 56.4206 19.0499L57.5517 14.16C57.605 13.9293 57.5265 13.688 57.3476 13.5329L53.5533 10.2433C53.1265 9.87331 53.3541 9.17219 53.9168 9.12334L58.9329 8.68791C59.169 8.66742 59.3743 8.5181 59.4665 8.29988L61.4128 3.69482C61.6328 3.17426 62.3705 3.17426 62.5905 3.69482L64.5368 8.29988C64.6291 8.5181 64.8344 8.66742 65.0704 8.68791L70.0866 9.12334C70.6493 9.17219 70.8769 9.87331 70.4501 10.2433L66.6557 13.5329C66.4768 13.688 66.3983 13.9293 66.4517 14.16L67.5828 19.0499C67.7101 19.6002 67.1134 20.0332 66.6297 19.7414L62.3319 17.1488C62.1288 17.0263 61.8746 17.0263 61.6715 17.1488L57.3737 19.7414Z" fill="#FFA216"/>
<path d="M80.3893 19.7414C79.9056 20.0332 79.3089 19.6002 79.4362 19.0499L80.5673 14.16C80.6207 13.9293 80.5421 13.688 80.3632 13.5329L76.5689 10.2433C76.1421 9.87331 76.3697 9.17219 76.9324 9.12334L81.9486 8.68791C82.1846 8.66742 82.3899 8.5181 82.4821 8.29988L84.4284 3.69482C84.6484 3.17426 85.3862 3.17426 85.6062 3.69482L87.5525 8.29988C87.6447 8.5181 87.85 8.66742 88.086 8.68791L93.1022 9.12334C93.6649 9.17219 93.8925 9.87331 93.4657 10.2433L89.6714 13.5329C89.4925 13.688 89.4139 13.9293 89.4673 14.16L90.5984 19.0499C90.7257 19.6002 90.129 20.0332 89.6453 19.7414L85.3475 17.1488C85.1444 17.0263 84.8902 17.0263 84.6871 17.1488L80.3893 19.7414Z" fill="#FFA216"/>
<path d="M103.403 19.7414C102.919 20.0332 102.323 19.6002 102.45 19.0499L103.581 14.16C103.634 13.9293 103.556 13.688 103.377 13.5329L99.5825 10.2433C99.1558 9.87331 99.3834 9.17219 99.946 9.12334L104.962 8.68791C105.198 8.66742 105.404 8.5181 105.496 8.29988L107.442 3.69482C107.662 3.17426 108.4 3.17426 108.62 3.69482L110.566 8.29988C110.658 8.5181 110.864 8.66742 111.1 8.68791L116.116 9.12334C116.679 9.17219 116.906 9.87331 116.479 10.2433L112.685 13.5329C112.506 13.688 112.428 13.9293 112.481 14.16L113.612 19.0499C113.739 19.6002 113.143 20.0332 112.659 19.7414L108.361 17.1488C108.158 17.0263 107.904 17.0263 107.701 17.1488L103.403 19.7414Z" fill="#FFA216"/>
</svg>
