<svg width="90" height="90" viewBox="0 0 90 90" fill="none" xmlns="http://www.w3.org/2000/svg">
<path d="M74.6204 51.124C73.985 45.1899 72.2058 39.5031 69.9183 34.0635C67.5037 28.3766 65.3433 22.8134 63.0558 17.1266C62.8017 16.632 62.6746 16.0139 62.4204 15.2722C60.7683 17.3738 59.6246 19.3518 59.1162 21.7008C58.6079 24.1733 58.6079 26.7695 58.3538 29.242C58.2267 30.8492 57.5913 32.2091 55.9392 32.8272C54.4142 33.4453 53.2704 32.5799 52.1267 31.7146C51.6183 31.22 51.11 30.7255 50.7288 30.1074C49.585 28.0057 48.1871 26.0277 47.2975 23.8024C45.01 18.1156 43.2308 12.3051 43.6121 6.00012C43.2308 6.24738 42.8496 6.371 42.4683 6.61826C38.1475 9.46168 35.9871 13.665 34.8433 18.4865C34.0808 22.0716 34.7163 25.6568 34.9704 29.3656C35.2246 33.9398 34.8433 38.6377 33.4454 43.0882C33.0642 44.2009 32.3017 45.1899 31.5392 46.1789C31.285 46.5498 30.5225 46.7971 30.1413 46.7971C29.76 46.6734 29.2517 46.0553 29.1246 45.6844C28.9975 44.819 28.8704 43.83 28.9975 42.9646C29.6329 38.514 30.5225 34.1871 30.3954 29.7365C30.2683 26.5222 29.1246 23.6788 27.3454 21.0826C27.0913 20.7117 26.8371 20.5881 26.3288 20.0936C26.3288 23.926 24.6767 27.0167 23.0246 30.1074C21.3725 33.0744 19.5933 36.0415 18.1954 39.1322C15.6538 44.6954 13.7475 50.3822 14.3829 56.5636C14.3829 57.0581 14.51 57.429 14.51 57.9235C15.2725 63.1158 17.3058 68.1845 20.61 72.2642C22.2621 74.2423 24.1683 76.2203 26.4558 77.5802C27.9808 78.5692 29.6329 79.311 31.285 80.0527C36.8767 82.4016 43.2308 83.267 49.3308 82.5253C53.0163 82.0308 56.8288 81.1654 60.26 79.5582C65.2163 77.2093 69.5371 73.7477 71.9517 68.9263C74.7475 63.2395 75.2558 57.1817 74.6204 51.124ZM69.0288 67.3191C67.1225 71.028 63.8183 74.1186 58.8621 76.4675C56.0662 77.8274 52.7621 78.6928 48.9496 79.1873C43.485 79.8055 37.6392 79.0637 32.5558 76.9621C31.0308 76.3439 29.5058 75.6022 28.235 74.7368C26.5829 73.6241 24.9308 72.1406 23.1517 70.0389C20.2288 66.4538 18.4496 62.1268 17.6871 57.3054C17.6871 56.9345 17.56 56.5636 17.56 56.0691C16.9246 50.3822 19.085 44.819 21.1183 40.2448C22.135 38.0195 23.2788 35.9179 24.5496 33.569C24.9308 32.8272 25.3121 32.0854 25.8204 31.3437C26.2017 30.6019 26.5829 29.9838 26.9642 29.242C26.9642 29.3656 26.9642 29.3656 26.9642 29.4893C27.0913 32.8272 26.5829 36.0415 26.0746 39.5031C25.9475 40.3684 25.8204 41.3575 25.6933 42.2229C25.5663 43.4591 25.5663 44.6954 25.8204 46.0553C26.0746 47.5388 27.4725 49.2696 29.3788 49.7641C31.0308 50.135 33.1913 49.3932 34.2079 48.0333L34.335 47.9097C35.0975 46.9207 36.1142 45.5608 36.6225 43.9536C38.0204 39.5031 38.6558 34.6816 38.2746 29.1184C38.2746 28.1294 38.1475 27.1404 38.0204 26.275C37.7663 23.8024 37.6392 21.3299 38.1475 19.2282C38.6558 16.7557 39.5454 14.654 40.6892 12.9232C41.3246 17.3738 42.8496 21.3299 44.2475 24.9151C45.01 26.8931 46.0267 28.6239 47.0433 30.3547C47.2975 30.7255 47.5517 31.22 47.8058 31.5909C48.4412 32.5799 49.2038 33.3217 49.8392 33.9398C50.7288 34.6816 53.3975 37.1541 57.0829 35.7942C58.9892 35.0525 61.2767 33.4453 61.5308 29.4893C61.6579 28.7475 61.6579 28.0057 61.6579 27.264C61.785 26.0277 61.785 24.9151 62.0392 23.6788C63.5642 27.5112 65.0892 31.3437 66.7412 35.1761C69.1558 41.1102 70.6808 46.4262 71.1892 51.3713C71.9517 57.5526 71.1892 62.9922 69.0288 67.3191Z" fill="#0F63FB"/>
<path d="M52.763 55.3273C50.2213 54.4619 49.0776 53.9674 48.9505 52.6075C48.8234 51.6185 49.5859 50.6294 50.6026 50.2586C51.8734 49.8877 53.6526 50.0113 55.3047 50.7531C56.0672 51.124 57.0838 50.6294 57.338 49.8877C57.7192 49.1459 57.2109 48.1569 56.4484 47.9096C55.5588 47.5388 54.5422 47.2915 53.6526 47.1679V45.9316C53.6526 45.0662 52.8901 44.3245 52.0005 44.3245C51.1109 44.3245 50.3484 45.0662 50.3484 45.9316V47.1679C50.0942 47.1679 49.713 47.2915 49.4588 47.4151C46.9172 48.1569 45.138 50.6294 45.5192 53.102C46.0276 56.4399 49.0776 57.5526 51.4922 58.2943C52.6359 58.6652 53.9067 59.1597 54.5422 59.7778C55.0505 60.2724 55.3047 60.8905 55.3047 61.5086C55.3047 62.1268 55.0505 62.7449 54.4151 63.2394C53.7797 63.8575 52.8901 64.1048 51.7463 64.2284C50.8567 64.2284 49.713 64.2284 48.4422 63.9812C48.188 63.9812 47.8067 63.8575 47.5526 63.7339C46.663 63.4867 45.7734 63.9812 45.5192 64.7229C45.2651 65.5883 45.7734 66.4537 46.5359 66.701C46.9172 66.8246 47.4255 66.9482 47.8067 66.9482C48.6963 67.0718 49.4588 67.1955 50.2213 67.1955V68.3081C50.2213 69.1735 50.9838 69.9153 51.8734 69.9153C52.763 69.9153 53.5255 69.1735 53.5255 68.3081V66.9482C54.7963 66.701 55.813 66.2065 56.7026 65.4647C57.8463 64.4757 58.6088 62.9922 58.6088 61.5086C58.6088 60.0251 57.9734 58.5416 56.8297 57.5526C55.813 56.4399 54.288 55.8218 52.763 55.3273Z" fill="#FFCC00"/>
</svg>
