<svg width="56" height="24" viewBox="0 0 56 24" fill="none" xmlns="http://www.w3.org/2000/svg">
<g clip-path="url(#clip0_1200_9896)">
<path fill-rule="evenodd" clip-rule="evenodd" d="M44.8245 0.507324L41.8719 5.12453H43.4004V16.3542C43.4004 17.448 42.9196 17.9806 41.8946 17.9806C40.8695 17.9806 40.3887 17.4439 40.3887 16.3542V5.12453H37.5586V16.2558C37.5586 18.8123 39.2005 20.2134 41.8946 20.2134C44.5886 20.2134 46.2305 18.8123 46.2305 16.2558V5.12453H47.7772L44.8245 0.507324ZM53.0474 16.518C53.0474 17.9806 52.4986 18.3124 51.8138 18.3124C51.3103 18.3124 50.8567 18.0666 50.3533 17.7348V11.1797C50.8567 10.8479 51.3103 10.6021 51.8138 10.6021C52.4986 10.6021 53.0474 10.9298 53.0474 12.3965V16.518ZM53.0066 8.7093C51.7276 8.7093 51.1108 9.1026 50.2671 10.0695H50.2218V8.91417H47.8044V23.5073H50.3579V19.054C51.3603 19.7955 51.8864 20.2093 53.0066 20.2093C54.6032 20.2093 55.6055 19.1359 55.6055 17.1161V11.7984C55.6055 9.77862 54.6032 8.7093 53.0066 8.7093Z" fill="#5D5E86"/>
<path fill-rule="evenodd" clip-rule="evenodd" d="M23.9651 8.75028C22.4484 8.75028 21.8871 9.25403 20.7924 10.0908V8.95843H18.3201V20.2243H20.9316V11.3898C21.5392 10.9901 22.0494 10.6779 22.6107 10.6779C23.172 10.6779 23.5431 10.9277 23.5431 11.4939V20.2284H26.1545V11.115C26.1545 9.64958 25.3382 8.75028 23.9651 8.75028ZM33.2237 17.922C32.7088 18.2592 32.245 18.5089 31.7301 18.5089C31.0297 18.5089 30.4684 18.1759 30.4684 16.6855V12.4972C30.4684 11.0109 31.0297 10.6737 31.7301 10.6737C32.245 10.6737 32.7088 10.9235 33.2237 11.2607V17.922ZM33.2237 9.92431C32.1986 9.17077 31.6605 8.75028 30.5194 8.75028C28.8867 8.75028 27.8569 9.84105 27.8569 11.8936V17.2975C27.8569 19.35 28.882 20.4408 30.5194 20.4408C31.8275 20.4408 32.4583 20.0452 33.3211 19.0585H33.3675V20.2326H35.8398V5.10742H33.2283V9.92431H33.2237ZM14.2567 13.105H11.3622V12.518C11.3622 11.2191 11.8771 10.6737 12.8094 10.6737C13.7418 10.6737 14.2567 11.2191 14.2567 12.518V13.105ZM12.8094 8.75028C9.82222 8.75028 8.75077 10.4656 8.75077 12.9385V16.2483C8.75077 18.7213 9.82222 20.4366 12.8094 20.4366C15.7271 20.4366 16.8218 18.8046 16.8682 16.4149H14.2567V16.6647C14.2567 17.9636 13.7418 18.5089 12.8094 18.5089C11.8771 18.5089 11.3622 17.9636 11.3622 16.6647V15.0326H16.8682V12.9385C16.8728 10.4656 15.7967 8.75028 12.8094 8.75028ZM3.49992 5.10742H0.605469V20.2243H7.72561V17.9636H3.49992V5.10742Z" fill="#5D5E86"/>
</g>
<defs>
<clipPath id="clip0_1200_9896">
<rect width="55" height="23" fill="white" transform="translate(0.605469 0.507324)"/>
</clipPath>
</defs>
</svg>
