<svg width="109" height="26" viewBox="0 0 109 26" fill="none" xmlns="http://www.w3.org/2000/svg">
<g id="Frame 831">
<path id="Vector" d="M37.3004 0.600342C39.0838 0.600342 40.1381 1.72639 40.1381 3.64127C40.1381 5.55616 39.0881 6.68744 37.3004 6.68744H35.2798V0.600342H37.3004ZM36.0304 6.00343H37.2504C38.6127 6.00343 39.3711 5.16043 39.3711 3.65001C39.3711 2.13959 38.617 1.28348 37.2504 1.28348H36.0304V6.00343Z" fill="white"/>
<path id="Vector_2" d="M41.168 4.49384C41.168 3.09611 41.9764 2.22253 43.1765 2.22253C44.3766 2.22253 45.1799 3.09175 45.1799 4.49384C45.1799 5.89594 44.3715 6.76515 43.1765 6.76515C41.9816 6.76515 41.168 5.88982 41.168 4.49384ZM44.4465 4.49384C44.4465 3.4604 43.9461 2.86986 43.18 2.86986C42.4138 2.86986 41.9091 3.4604 41.9091 4.49384C41.9091 5.52729 42.413 6.11783 43.18 6.11783C43.947 6.11783 44.4431 5.52729 44.4431 4.49384H44.4465Z" fill="white"/>
<path id="Vector_3" d="M50.6396 6.68729H49.902L48.9227 3.29168H48.9063L47.9314 6.68729H47.1937L45.9858 2.30017H46.7063L47.5733 5.86874H47.5897L48.5647 2.30279H49.2644L50.248 5.87136H50.2643L51.1271 2.30279H51.8441L50.6396 6.68729Z" fill="white"/>
<path id="Vector_4" d="M52.8652 2.30283H53.5485V3.00169H53.5649C53.8065 2.52996 54.269 2.22595 54.9394 2.22595C55.8884 2.22595 56.4397 2.84619 56.4397 3.8412V6.68907H55.715V3.97224C55.715 3.26376 55.3854 2.8759 54.7193 2.8759C54.036 2.8759 53.59 3.3651 53.59 4.10764V6.68907H52.8652V2.30283Z" fill="white"/>
<path id="Vector_5" d="M57.8247 0.600342H58.5494V6.68744H57.8247V0.600342Z" fill="white"/>
<path id="Vector_6" d="M59.7427 4.49384C59.7427 3.09611 60.5502 2.22253 61.7504 2.22253C62.9505 2.22253 63.7546 3.09175 63.7546 4.49384C63.7546 5.89594 62.9462 6.76515 61.7504 6.76515C60.5545 6.76515 59.7427 5.88982 59.7427 4.49384ZM63.0212 4.49384C63.0212 3.4604 62.5217 2.86986 61.7547 2.86986C60.9877 2.86986 60.4838 3.4604 60.4838 4.49384C60.4838 5.52729 60.9885 6.11783 61.7547 6.11783C62.5208 6.11783 63.0169 5.52729 63.0169 4.49384H63.0212Z" fill="white"/>
<path id="Vector_7" d="M64.7349 5.44778C64.7349 4.69737 65.306 4.22477 66.306 4.16536L67.5475 4.09373V3.72683C67.5475 3.19132 67.1972 2.87072 66.5985 2.87072C66.0402 2.87072 65.69 3.13279 65.5985 3.56958H64.8997C64.9497 2.81044 65.5899 2.22864 66.6166 2.22864C67.6433 2.22864 68.2748 2.78511 68.2748 3.65869V6.69176H67.5846V5.93611H67.5682C67.4316 6.18868 67.2302 6.39925 66.9853 6.54562C66.7404 6.69199 66.461 6.76873 66.1766 6.76776C65.3138 6.76339 64.7349 6.234 64.7349 5.44778ZM67.5475 5.02147V4.66156L66.3888 4.73319C65.8056 4.77076 65.4725 5.03283 65.4725 5.44603C65.4725 5.85924 65.8177 6.13791 66.3353 6.13791C67.0221 6.13878 67.5475 5.65394 67.5475 5.0206V5.02147Z" fill="white"/>
<path id="Vector_8" d="M69.4062 4.49388C69.4062 3.11887 70.1517 2.22258 71.2431 2.22258C71.8643 2.22258 72.3647 2.53008 72.6235 3.0088H72.6399V0.600342H73.3647V6.68744H72.6744V5.9449H72.6641C72.5275 6.19824 72.3247 6.40863 72.0778 6.55301C71.831 6.69739 71.5497 6.7702 71.2647 6.76344C70.156 6.76344 69.4062 5.8689 69.4062 4.49388ZM70.1474 4.49388C70.1474 5.48889 70.6314 6.11787 71.3975 6.11787C72.143 6.11787 72.6434 5.47666 72.6434 4.49388C72.6434 3.51111 72.143 2.8699 71.3975 2.8699C70.6314 2.8699 70.1474 3.50237 70.1474 4.49388Z" fill="white"/>
<path id="Vector_9" d="M76.7334 4.49384C76.7334 3.09611 77.5418 2.22253 78.7419 2.22253C79.942 2.22253 80.7453 3.09175 80.7453 4.49384C80.7453 5.89594 79.9377 6.76515 78.7419 6.76515C77.5461 6.76515 76.7334 5.88982 76.7334 4.49384ZM80.0119 4.49384C80.0119 3.4604 79.5115 2.86986 78.7454 2.86986C77.9792 2.86986 77.4745 3.4604 77.4745 4.49384C77.4745 5.52729 77.9784 6.11783 78.7454 6.11783C79.5124 6.11783 80.0085 5.52729 80.0085 4.49384H80.0119Z" fill="white"/>
<path id="Vector_10" d="M81.9014 2.30283H82.5864V3.00169H82.6028C82.8444 2.52996 83.3068 2.22595 83.9772 2.22595C84.9263 2.22595 85.4776 2.84619 85.4776 3.8412V6.68907H84.7528V3.97224C84.7528 3.26376 84.4233 2.8759 83.7563 2.8759C83.0739 2.8759 82.6278 3.3651 82.6278 4.10764V6.68907H81.9031L81.9014 2.30283Z" fill="white"/>
<path id="Vector_11" d="M89.9574 1.24133V2.30273H90.7994V2.9055H89.9574V5.51226C89.9574 5.91324 90.1239 6.09494 90.4949 6.09494C90.5953 6.09307 90.6955 6.08608 90.7951 6.07398V6.68985C90.6437 6.71455 90.4904 6.72566 90.337 6.72304C89.5406 6.72304 89.2326 6.39458 89.2326 5.5507V2.90288H88.5864V2.30273H89.2301V1.24133H89.9574Z" fill="white"/>
<path id="Vector_12" d="M92.0337 0.600342H92.7584V3.00181H92.7748C93.0164 2.51261 93.4918 2.22607 94.1501 2.22607C95.0991 2.22607 95.6746 2.87602 95.6746 3.85443V6.68919H94.9499V3.98721C94.9499 3.28835 94.6048 2.87427 93.9249 2.87427C93.2045 2.87427 92.7584 3.37133 92.7584 4.13135V6.68744H92.0337V0.600342Z" fill="white"/>
<path id="Vector_13" d="M100.609 5.43028C100.484 6.19816 99.7465 6.76336 98.8052 6.76336C97.5636 6.76336 96.8096 5.88978 96.8096 4.5104C96.8096 3.14762 97.5766 2.22424 98.7715 2.22424C99.9423 2.22424 100.664 3.08472 100.664 4.41343V4.69211H97.5576V4.73404C97.5576 5.57355 98.0451 6.12565 98.8242 6.12565C99.3746 6.12565 99.7784 5.84348 99.8992 5.42679L100.609 5.43028ZM97.5593 4.11991H99.913C99.8966 3.3861 99.4428 2.86283 98.7594 2.86283C98.0761 2.86283 97.6051 3.38872 97.5593 4.11816V4.11991Z" fill="white"/>
<path id="Vector_14" d="M39.016 11.5629H40.8908L44.9519 22.8853H43.1306L42.1082 19.8278H37.7952L36.7599 22.8853H34.9429L39.016 11.5629ZM38.2646 18.4126H41.6354L39.9651 13.4393H39.934L38.2646 18.4126Z" fill="white"/>
<path id="Vector_15" d="M46.7725 14.6326H48.4462V16.0522H48.4851C48.9734 15.072 49.8724 14.4797 51.0346 14.4797C53.1113 14.4797 54.4443 16.1273 54.4443 18.7603V18.7681C54.4443 21.3967 53.1035 23.0487 51.0579 23.0487C49.9035 23.0487 48.9656 22.4529 48.4851 21.4955H48.4462V25.6301H46.7725V14.6326ZM52.7394 18.7673V18.7594C52.7394 17.0018 51.9103 15.9273 50.6006 15.9273C49.3297 15.9273 48.4385 17.0411 48.4385 18.7594V18.7673C48.4385 20.4777 49.3375 21.5924 50.6006 21.5924C51.9181 21.5924 52.7394 20.5092 52.7394 18.7673Z" fill="white"/>
<path id="Vector_16" d="M56.5303 14.6326H58.2041V16.0522H58.2429C58.7312 15.072 59.6302 14.4797 60.7924 14.4797C62.8699 14.4797 64.2021 16.1273 64.2021 18.7603V18.7681C64.2021 21.3967 62.8622 23.0487 60.8157 23.0487C59.6613 23.0487 58.7234 22.4529 58.2429 21.4955H58.2041V25.6301H56.5303V14.6326ZM62.4972 18.7673V18.7594C62.4972 17.0018 61.6681 15.9273 60.3584 15.9273C59.0875 15.9273 58.1963 17.0411 58.1963 18.7594V18.7673C58.1963 20.4777 59.0953 21.5924 60.3584 21.5924C61.6776 21.5924 62.499 20.5092 62.499 18.7673H62.4972Z" fill="white"/>
<path id="Vector_17" d="M70.0083 19.8731L70.0005 19.756H71.6898L71.7053 19.8582C71.8606 20.9013 72.8908 21.553 74.3868 21.553C75.8829 21.553 76.8276 20.8699 76.8276 19.8111V19.8032C76.8276 18.8929 76.2151 18.3985 74.7354 18.0692L73.5189 17.8071C71.3257 17.3362 70.2636 16.3168 70.2636 14.6377V14.6299C70.2714 12.6993 71.953 11.3732 74.3187 11.3732C76.6482 11.3732 78.2478 12.6599 78.3634 14.5591L78.3711 14.6919H76.6818L76.674 14.5827C76.5196 13.5344 75.6206 12.8958 74.2954 12.8958C72.908 12.9037 72.0246 13.5702 72.0246 14.5556V14.5635C72.0246 15.4109 72.6604 15.9289 74.0547 16.2346L75.2798 16.4967C77.5886 16.9912 78.5808 17.9407 78.5808 19.6905V19.6984C78.5808 21.7618 76.9691 23.0721 74.3187 23.0721C71.8063 23.0748 70.148 21.871 70.0083 19.8731Z" fill="white"/>
<path id="Vector_18" d="M81.2061 20.7135V15.9814H80.0361V14.6325H81.2061V12.4827H82.9187V14.6325H84.4449V15.9814H82.9144V20.6113C82.9144 21.4508 83.2862 21.7015 83.992 21.7015C84.142 21.7009 84.2919 21.6904 84.4406 21.6701V22.9805C84.1587 23.0261 83.8737 23.0498 83.5882 23.0512C81.9765 23.0512 81.2061 22.3611 81.2061 20.7135Z" fill="white"/>
<path id="Vector_19" d="M86.0566 18.7594V18.7436C86.0566 16.1072 87.5984 14.4753 89.9158 14.4753C92.2332 14.4753 93.7906 16.0993 93.7906 18.7436V18.7594C93.7906 21.4194 92.2557 23.0513 89.9236 23.0513C87.5915 23.0513 86.0566 21.4116 86.0566 18.7594ZM92.078 18.7594V18.7436C92.078 16.9388 91.2255 15.8958 89.9158 15.8958C88.6294 15.8958 87.7692 16.9388 87.7692 18.7436V18.7594C87.7692 20.5878 88.6217 21.6308 89.9314 21.6308C91.2411 21.6308 92.0771 20.5799 92.0771 18.7594H92.078Z" fill="white"/>
<path id="Vector_20" d="M95.8784 14.6327H97.5522V16.0444H97.591C97.8499 15.0834 98.5401 14.4719 99.4658 14.4719C99.6612 14.475 99.8558 14.4961 100.047 14.5348V16.1116C99.9153 16.0566 99.6211 16.0173 99.2959 16.0173C98.2183 16.0173 97.5522 16.7319 97.5522 17.9636V22.8836H95.8784V14.6327Z" fill="white"/>
<path id="Vector_21" d="M101.166 18.7908V18.783C101.166 16.2015 102.639 14.4753 104.925 14.4753C107.211 14.4753 108.613 16.1351 108.613 18.6179V19.1909H102.841C102.871 20.7529 103.716 21.6623 105.049 21.6623C106.041 21.6623 106.7 21.1451 106.909 20.5266L106.932 20.4637H108.52L108.505 20.5511C108.242 21.8615 106.986 23.0539 105.011 23.0539C102.615 23.0513 101.166 21.3958 101.166 18.7908ZM102.864 17.9906H106.955C106.815 16.5623 106.025 15.8643 104.933 15.8643C103.841 15.8643 103.011 16.6095 102.861 17.9906H102.864Z" fill="white"/>
<path id="Vector_22" d="M20.0292 9.3204C18.9852 10.0548 18.2757 10.7927 17.9007 11.534C17.5244 12.2784 17.3311 13.1037 17.3373 13.9399C17.3297 14.5809 17.443 15.2175 17.6712 15.8155C17.9043 16.3992 18.2244 16.9434 18.6203 17.429C19.0275 17.9386 19.7082 18.4444 20.6625 18.9464C20.2932 20.0418 19.7206 21.1597 18.9447 22.3C18.1688 23.4404 17.4656 24.249 16.8352 24.726C16.2054 25.2029 15.604 25.4414 15.0311 25.4414C14.571 25.4414 13.9538 25.2932 13.1796 24.9968L12.8164 24.8614L12.2245 24.6098C11.7719 24.4765 11.3025 24.4115 10.8312 24.4167C10.3095 24.4167 9.72392 24.5332 9.07454 24.7662L8.61641 24.9409L8.04266 25.1706C7.60532 25.3473 7.1391 25.4391 6.66826 25.4414C5.70023 25.4414 4.66288 24.7551 3.55623 23.3824C2.47826 22.0612 1.62934 20.5645 1.04556 18.956C0.485968 17.4245 0.196843 15.8052 0.191406 14.1723C0.191406 12.0978 0.773491 10.371 1.93766 8.99193C3.10183 7.61284 4.68359 6.92358 6.68293 6.92417C7.38363 6.91907 8.07817 7.05693 8.72511 7.32951L9.16427 7.50423L9.6224 7.69816C10.0296 7.86589 10.3543 7.94946 10.5965 7.94888C10.9632 7.94667 11.3261 7.87435 11.6663 7.73572L12.2772 7.50335L12.7163 7.32863C13.4746 7.05011 14.2764 6.91279 15.0829 6.9233C17.1334 6.92388 18.7822 7.72291 20.0292 9.3204ZM15.1804 0.109375C15.2054 0.393288 15.2184 0.611682 15.2184 0.766306C15.2184 1.56534 14.9883 2.39029 14.5281 3.24116C14.1093 4.04764 13.491 4.73031 12.7336 5.22244C12.0029 5.69017 11.1546 5.93491 10.2902 5.92741C10.2583 5.70331 10.239 5.47757 10.2324 5.25126C10.2324 4.56812 10.4337 3.84975 10.8363 3.09614C11.2368 2.34357 11.7938 1.68789 12.4687 1.17427C13.1506 0.648333 13.9512 0.302759 14.7982 0.168778L15.1804 0.109375Z" fill="white"/>
</g>
</svg>
