<svg width="126" height="23" viewBox="0 0 126 23" fill="none" xmlns="http://www.w3.org/2000/svg">
<rect x="0.998047" y="0.183838" width="22.9541" height="22.6323" rx="11.3161" fill="#F06A22"/>
<g clip-path="url(#clip0_1119_13076)">
<path d="M15.0984 12.9519L16.5145 17.0593C16.5788 17.2458 16.3681 17.4064 16.2053 17.2949L12.4782 14.7434L15.0984 12.9519ZM18.7906 10.4248C18.9567 10.3111 18.8763 10.0511 18.675 10.0511H14.0967L12.672 5.91584C12.6086 5.7319 12.3485 5.73176 12.2849 5.91565L10.8551 10.0522L6.27789 10.0465C6.07652 10.0463 5.99582 10.3064 6.16195 10.4202L9.85855 12.9519L8.43755 17.0585C8.37303 17.245 8.58366 17.4058 8.74655 17.2945L12.4782 14.7434L15.0984 12.9519L18.7906 10.4248Z" fill="white"/>
</g>
<rect x="26.2598" y="0.183838" width="22.9541" height="22.6323" rx="11.3161" fill="#F06A22"/>
<g clip-path="url(#clip1_1119_13076)">
<path d="M40.3601 12.9519L41.7762 17.0593C41.8405 17.2458 41.6298 17.4064 41.467 17.2949L37.7399 14.7434L40.3601 12.9519ZM44.0523 10.4248C44.2184 10.3111 44.138 10.0511 43.9367 10.0511H39.3584L37.9337 5.91584C37.8703 5.7319 37.6102 5.73176 37.5467 5.91565L36.1168 10.0522L31.5396 10.0465C31.3382 10.0463 31.2575 10.3064 31.4237 10.4202L35.1203 12.9519L33.6993 17.0585C33.6347 17.245 33.8454 17.4058 34.0083 17.2945L37.7399 14.7434L40.3601 12.9519L44.0523 10.4248Z" fill="white"/>
</g>
<rect x="51.5234" y="0.183838" width="22.9541" height="22.6323" rx="11.3161" fill="#F06A22"/>
<g clip-path="url(#clip2_1119_13076)">
<path d="M65.6238 12.9519L67.0399 17.0593C67.1042 17.2458 66.8935 17.4064 66.7307 17.2949L63.0036 14.7434L65.6238 12.9519ZM69.316 10.4248C69.4821 10.3111 69.4016 10.0511 69.2004 10.0511H64.6221L63.1974 5.91584C63.134 5.7319 62.8739 5.73176 62.8103 5.91565L61.3805 10.0522L56.8033 10.0465C56.6019 10.0463 56.5212 10.3064 56.6873 10.4202L60.3839 12.9519L58.9629 17.0585C58.8984 17.245 59.1091 17.4058 59.2719 17.2945L63.0036 14.7434L65.6238 12.9519L69.316 10.4248Z" fill="white"/>
</g>
<rect x="76.7852" y="0.183838" width="22.9541" height="22.6323" rx="11.3161" fill="#F06A22"/>
<g clip-path="url(#clip3_1119_13076)">
<path d="M90.8855 12.9519L92.3016 17.0593C92.3659 17.2458 92.1552 17.4064 91.9924 17.2949L88.2653 14.7434L90.8855 12.9519ZM94.5777 10.4248C94.7438 10.3111 94.6634 10.0511 94.4621 10.0511H89.8838L88.4591 5.91584C88.3957 5.7319 88.1356 5.73176 88.0721 5.91565L86.6422 10.0522L82.065 10.0465C81.8636 10.0463 81.7829 10.3064 81.9491 10.4202L85.6457 12.9519L84.2247 17.0585C84.1601 17.245 84.3708 17.4058 84.5337 17.2945L88.2653 14.7434L90.8855 12.9519L94.5777 10.4248Z" fill="white"/>
</g>
<g clip-path="url(#clip4_1119_13076)">
<rect x="102.055" y="0.183838" width="23.2248" height="22.4119" fill="#A5A8AB" fill-opacity="0.25"/>
<rect x="102.055" y="0.183838" width="11.5959" height="22.4119" fill="#F06A22"/>
<g clip-path="url(#clip5_1119_13076)">
<path d="M116.147 12.9519L117.563 17.0593C117.628 17.2458 117.417 17.4064 117.254 17.2949L113.527 14.7434L116.147 12.9519ZM119.839 10.4248C120.006 10.3111 119.925 10.0511 119.724 10.0511H115.146L113.721 5.91584C113.657 5.7319 113.397 5.73176 113.334 5.91565L111.904 10.0522L107.327 10.0465C107.125 10.0463 107.045 10.3064 107.211 10.4202L110.907 12.9519L109.486 17.0585C109.422 17.245 109.632 17.4058 109.795 17.2945L113.527 14.7434L116.147 12.9519L119.839 10.4248Z" fill="white"/>
</g>
</g>
<defs>
<clipPath id="clip0_1119_13076">
<rect width="13.7213" height="13.3995" fill="white" transform="translate(5.61523 4.80017)"/>
</clipPath>
<clipPath id="clip1_1119_13076">
<rect width="13.7213" height="13.3995" fill="white" transform="translate(30.877 4.80017)"/>
</clipPath>
<clipPath id="clip2_1119_13076">
<rect width="13.7213" height="13.3995" fill="white" transform="translate(56.1406 4.80017)"/>
</clipPath>
<clipPath id="clip3_1119_13076">
<rect width="13.7213" height="13.3995" fill="white" transform="translate(81.4023 4.80017)"/>
</clipPath>
<clipPath id="clip4_1119_13076">
<rect x="102.047" y="0.183838" width="22.9541" height="22.6323" rx="11.3161" fill="white"/>
</clipPath>
<clipPath id="clip5_1119_13076">
<rect width="13.7213" height="13.3995" fill="white" transform="translate(106.664 4.80017)"/>
</clipPath>
</defs>
</svg>
