<svg width="90" height="90" viewBox="0 0 90 90" fill="none" xmlns="http://www.w3.org/2000/svg">
<path d="M72.0918 22.0834C71.7309 22.0834 71.37 22.2027 71.1293 22.4414L60.7825 29.9608L57.7747 26.8576C57.4137 26.4995 57.0528 26.3801 56.5715 26.3801C56.0903 26.3801 55.7293 26.4995 55.3684 26.8576C54.7668 27.4543 54.6465 28.5285 55.3684 29.2447L58.6168 32.4672C59.2184 33.064 59.9403 33.4221 60.7825 33.4221C61.384 33.4221 62.1059 33.1834 62.5872 32.8253L73.1747 25.1866C73.5356 24.9479 73.7762 24.5898 73.8965 24.1124C74.0168 23.635 73.8965 23.2769 73.6559 22.9189C73.0543 22.3221 72.5731 22.0834 72.0918 22.0834Z" fill="#FFCC00"/>
<path d="M80.6357 17.6675C77.1466 11.9385 70.8904 8.47717 64.0325 8.47717C60.5435 8.47717 57.0544 9.43201 54.0466 11.2223C49.8357 13.7288 46.8279 17.6675 45.5044 22.3223C45.3841 22.3223 45.2638 22.3223 45.1435 22.3223L41.7747 21.9643C40.4513 21.8449 39.8497 22.4417 39.4888 23.0385C38.8872 23.9933 39.0075 25.1868 39.97 26.6191L40.0904 26.7385C40.9325 28.0514 41.7747 29.2449 42.7372 30.0804L42.9779 30.3191C43.0982 30.4385 43.3388 30.6772 43.5794 30.9159C44.181 31.3933 44.7825 31.8707 45.3841 32.2288C45.8654 34.1385 46.5872 36.0481 47.67 37.7191C51.1591 43.4481 57.4154 46.9094 64.2732 46.9094C67.7622 46.9094 71.2513 45.9546 74.2591 44.1643C78.7107 41.5385 81.7185 37.2417 83.0419 32.3481C84.1247 27.2159 83.2825 22.0836 80.6357 17.6675ZM79.9138 31.5127C78.831 35.6901 76.3044 39.2707 72.5747 41.5385C70.0482 43.0901 67.1607 43.9256 64.1529 43.9256C58.3779 43.9256 53.2044 41.061 50.1966 36.1675C49.2341 34.7352 48.6325 33.0643 48.2716 31.3933L48.031 30.4385L47.0685 29.7223C46.4669 29.3643 45.9857 29.0062 45.5044 28.5288C45.3841 28.4094 45.1435 28.2901 45.0232 28.0514L44.7825 27.8127C44.0607 27.0965 43.3388 26.261 42.6169 25.0675L42.4966 24.9481L44.9029 25.1869C45.2638 25.1869 45.5044 25.1869 45.6247 25.3062H47.7904L48.3919 23.2772C49.4747 19.3385 52.1216 15.8772 55.6107 13.7288C58.1372 12.1772 61.145 11.3417 64.0325 11.3417C69.8075 11.3417 75.1013 14.2062 77.9888 19.0998C80.2747 22.9191 80.9966 27.3352 79.9138 31.5127Z" fill="#FFCC00"/>
<path d="M38.6434 38.3159C38.6434 37.9579 38.523 37.4804 38.523 36.7643V36.4063C38.4027 35.9288 38.4027 35.4514 38.4027 35.2127C38.2824 33.6611 37.3199 32.5869 35.6355 32.1095H35.5152C34.3121 31.7514 33.109 31.3933 31.9059 31.0353C31.7855 31.0353 31.6652 30.9159 31.4246 30.9159L30.9434 30.6772C30.3418 30.4385 29.8605 30.3192 29.6199 30.3192L28.6574 30.0804L23.123 36.1675L17.5887 30.0804L16.7465 30.1998C16.5059 30.3192 16.0246 30.4385 15.423 30.6772L14.9418 30.7966C14.7012 30.7966 14.5809 30.9159 14.4605 30.9159C13.2574 31.274 12.0543 31.6321 10.8512 31.9901H10.7309C9.04648 32.4675 8.08398 33.6611 7.96367 35.0933C7.96367 35.3321 7.96367 35.8095 7.84336 36.2869V36.645C7.72305 37.4804 7.72305 37.9579 7.72305 38.1966C7.60273 42.1353 7.60273 46.4321 7.72305 51.445C7.72305 52.6385 7.96367 53.7127 8.56523 54.7869C9.04648 55.7417 9.76836 56.8159 10.7309 57.7708C10.7309 57.7708 10.7309 57.8901 10.8512 57.8901V58.845C10.9715 61.1127 11.2121 70.7804 11.2121 72.3321C11.2121 75.1966 12.5355 77.8224 14.8215 79.4933C16.6262 80.8062 18.7918 81.403 21.3184 81.403H23.3637H25.409C27.8152 81.403 30.1012 80.6869 31.9059 79.4933C34.1918 77.8224 35.5152 75.3159 35.5152 72.3321C35.5152 70.7804 35.7559 61.1127 35.8762 58.845V57.8901L35.9965 57.6514C36.959 56.6966 37.6809 55.6224 38.0418 54.6675C38.523 53.5933 38.7637 52.5192 38.884 51.3256C38.7637 46.5514 38.7637 42.1353 38.6434 38.3159ZM35.7559 51.445C35.7559 52.1611 35.5152 52.8772 35.2746 53.5933C34.9137 54.3095 34.4324 55.145 33.5902 55.8611L33.4699 55.9804C33.3496 56.2192 33.2293 56.3385 32.9887 56.5772L32.748 56.9353L32.6277 58.845C32.5074 61.1127 32.2668 70.8998 32.2668 72.4514C32.2668 74.3611 31.4246 76.0321 29.9809 77.1063C28.7777 77.9417 27.0934 78.4192 25.2887 78.4192H23.2434H21.198C19.3934 78.4192 17.709 77.9417 16.5059 77.1063C14.9418 76.0321 14.2199 74.3611 14.2199 72.3321C14.2199 70.7804 13.9793 60.9933 13.859 58.7256L13.498 56.9353L13.2574 56.5772C13.1371 56.4579 13.0168 56.2192 12.8965 56.0998L12.7762 55.9804C12.0543 55.145 11.4527 54.4288 11.0918 53.7127C10.8512 52.8772 10.6105 52.1611 10.6105 51.445C10.4902 46.4321 10.4902 42.2546 10.6105 38.3159C10.6105 38.1966 10.7309 37.4804 10.7309 37.1224V36.7643C10.8512 36.1675 10.8512 35.5708 10.8512 35.3321C10.8512 35.0933 11.2121 34.974 11.4527 34.974H11.573C12.7762 34.6159 13.9793 34.2579 15.3027 33.8998C15.423 33.8998 15.423 33.7804 15.5434 33.7804L16.1449 33.5417C16.2652 33.5417 16.3855 33.5417 16.3855 33.4224L21.3184 38.9127C21.6793 39.3901 22.1605 39.6288 22.7621 39.7482H22.8824H23.0027C23.6043 39.7482 24.2059 39.3901 24.4465 38.9127L29.3793 33.4224C29.4996 33.4224 29.4996 33.4224 29.6199 33.5417L30.3418 33.7804C30.4621 33.7804 30.5824 33.8998 30.7027 33.8998C31.9059 34.2579 33.109 34.6159 34.3121 34.974H34.5527C34.7934 35.0933 35.1543 35.2127 35.1543 35.3321C35.1543 35.5708 35.2746 36.1675 35.2746 36.7643V37.1224C35.2746 37.5998 35.3949 38.1966 35.3949 38.3159C35.7559 42.1353 35.7559 46.4321 35.7559 51.445Z" fill="#0F63FB"/>
<path d="M23.1236 27.3351H23.2439C25.4095 27.3351 27.6955 26.3802 29.3799 24.7093C31.1845 23.0383 32.1471 20.6512 32.2674 18.3835C32.2674 15.9964 31.3049 13.848 29.6205 12.0577C27.9361 10.2673 25.6502 9.3125 23.2439 9.3125C23.2439 9.3125 23.2439 9.3125 23.1236 9.3125C18.3111 9.3125 14.2205 13.2512 14.1002 18.1448C13.9799 22.919 18.1908 27.2157 23.1236 27.3351ZM23.2439 12.2964C24.808 12.2964 26.372 13.0125 27.4549 14.0867C28.658 15.2802 29.2595 16.7125 29.2595 18.2641C29.2595 19.8157 28.5377 21.3673 27.3345 22.4415C26.1314 23.6351 24.5674 24.2319 23.1236 24.2319C19.9955 24.2319 17.108 21.248 17.108 18.1448C17.2283 15.0415 19.9955 12.2964 23.2439 12.2964Z" fill="#0F63FB"/>
</svg>
