<?xml version="1.0" encoding="UTF-8" standalone="no"?>
<svg
   width="262.31866"
   height="252.14175"
   viewBox="0 0 262.31866 252.14175"
   fill="none"
   version="1.1"
   id="svg6"
   sodipodi:docname="img-touch-01.svg"
   inkscape:version="1.1 (c68e22c387, 2021-05-23)"
   xmlns:inkscape="http://www.inkscape.org/namespaces/inkscape"
   xmlns:sodipodi="http://sodipodi.sourceforge.net/DTD/sodipodi-0.dtd"
   xmlns="http://www.w3.org/2000/svg"
   xmlns:svg="http://www.w3.org/2000/svg">
  <defs
     id="defs10" />
  <sodipodi:namedview
     id="namedview8"
     pagecolor="#ffffff"
     bordercolor="#666666"
     borderopacity="1.0"
     inkscape:pageshadow="2"
     inkscape:pageopacity="0.0"
     inkscape:pagecheckerboard="0"
     showgrid="false"
     inkscape:zoom="1.3311475"
     inkscape:cx="-47.703202"
     inkscape:cy="169.40271"
     inkscape:window-width="1920"
     inkscape:window-height="1001"
     inkscape:window-x="-9"
     inkscape:window-y="-9"
     inkscape:window-maximized="1"
     inkscape:current-layer="svg6" />
  <path
     d="m 12.365012,48.663798 c 4.087,-1.0858 17.6208,-3.908 33.2633,-10.1036 1.6154,0.7828 2.6799,0.9892 4.2771,1.7873 l 0.1504,0.0752 c 0.1586,-0.0264 3.3144,-0.5174 3.7902,-0.5937 1.0187,0.6181 2.1655,0.0305 2.3414,-0.8489 0.5652,-2.8416 0.614,-6.7395 1.6439,-9.4082 0.6354,-1.646 0.9963,-1.2231 3.0653,-1.9815 2.5762,-0.9445 5.1463,-1.8646 7.7775,-2.6535 0.7147,-0.2135 1.0278,-0.7788 1.1183,-1.4691 0.2603,-1.9978 -1.281,-4.6665 -1.8758,-6.5168 -1.1945,-3.7271 -2.3525,-7.4644002 -3.5552,-11.1885002 -1.584,-4.90840005 -1.277,-6.8482 -6.4813,-5.17070005 -13.7382,4.42750005 -27.6116,8.39760005 -41.4851,12.37480025 -1.8839,0.5399 -1.0827,3.4842 0.8103,2.9413 2.8558,-0.8185 40.139,-11.4681002 42.9399,-12.9229002 0.7056,-0.4473 0.7727,-0.3477 0.2024,0.2989 0.7564,0.6263 1.0583,3.2452 1.345,4.1378 0.9221,2.8742002 1.8229,5.7554002 2.7379,8.6315002 0.4575,1.4376 1.9032,4.331 2.2438,6.3237 -3.5207,1.1183 -6.9601,2.4522 -10.4554,3.6539 -0.4677,0.1596 -0.9811,0.5338 -1.0655,1.0645 -0.4665,2.9891 -0.9729,5.972 -1.5189,8.9476 -2.3892,-1.6419 -5.1138,-3.6803 -7.5081,-4.3635 -2.259,-0.6446 -4.1653,0.5561 -6.4822,1.3186 -0.7981,0.2633 -1.6013,0.5124 -2.4004,0.7686 -5.8479,0.8459 -12.0109,3.0856 -17.2528,5.0152 -0.2745,-3.8247 -5.3457,-18.9801 -6.3339,-20.8447 -0.1169,-0.7218 -0.2429,-1.4406 -0.3558,-2.1624 -0.3019,-1.9358 -3.2787,-1.1285 -2.93,0.8784 -1.8198998,1.1813 -3.2431998,4.5607 -4.0666998,5.8336 l -0.121,0.185 c 7.1573998,30.1005 1.5931,6.9185 6.1813998,25.9921 z M 5.4689122,119.8228 c 2.6484,7.328 7.1715998,13.003 12.7347998,15.976 5.8051,3.104 11.6103,2.857 18.117,1.773 22.5923,-3.765 27.8587,-3.065 54.0157,-14.305 3.693,-1.586 6.526,-4.727 8.333,-6.952 2.538998,-3.122 3.887998,-6.708 3.798998,-10.095 l -0.004,-0.166 c 4.304,-7.752002 3.863,-18.493002 2.229,-27.262002 0.831,-0.495 4.614,-3.254 9.109,-5.5968 3.437,-0.8835 6.685,-2.2438 10.358,-2.4756 4.762,-0.3009 9.779,0.8286 13.384,3.9544 4.875,4.23 6.323,11.397 5.262,17.763 -0.787,4.722 -2.745,9.124002 -4.987,13.383002 -29.729,43.391 -90.356098,57.45 -112.900598,87.397 -8.8888,11.807 -8.0754,27.089 1.8076,38.636 4.4937,6.478 10.9037,11.755 17.8293,14.856 14.0483,6.29 28.3507,7.538 42.5157,1.517 6.839,-2.908 14.676998,-9.02 18.976998,-15.082 4.081,-5.751 5.962,-13.318 6.61,-17.951 4.016,-17.911 0.378,-41.098 10.129,-55.169 8.469,-7.564 17.006,4.987 25.633,2.206 3.103,-1.002 5.31,-3.941 6.113,-7.101 0.368,-1.447 0.671,-3.7 0.814,-6.021 0.235,-1.186 0.361,-2.391 0.376,-3.599 0.069,-5.795 -1.257,-14.553 7.122,-14.956 5.498,-0.266 9.728,3.694 13.354,7.397 -8.496,7.277 -17.351,18.175 -15.779,29.209 -1.413,4.374 -0.361,11.468 1.29,14.766 4.207,8.41 30.79,37.171 30.901,37.287 8.197,8.412 15.67,15.49 27.263,15.49 8.37,0 17.68,-3.53 25.136,-9.78 7.971,-6.684 13.582,-16.703 15.799,-28.212 l 0.389,-2.019 c 1.917,-6.46 1.666,-13.215 -3.067,-18.567 -0.261,-0.294 -0.555,-0.438 -0.848,-0.477 -0.069,-0.124 -0.153,-0.237 -0.251,-0.339 -12.668,-12.959 -25.234,-26.019 -37.902,-38.979 -1.374,-1.405 -3.531,0.753 -2.157,2.158 11.026,11.278 21.98,22.623 32.987,33.922 -7.767,-1.671 -16.176,1.665 -22.957,6.54 -10.149,7.294 -20.409,18.574 -21.969,31.479 -0.162,1.363 -0.179,2.739 -0.051,4.105 -4.788,-5.5 -9.651,-10.935 -14.538,-16.348 0.09,-0.044 0.169,-0.107 0.233,-0.184 0.064,-0.077 0.111,-0.167 0.139,-0.263 1.465,-4.713 4.15,-8.755 7.893,-11.964 0.747,-0.641 -0.336,-1.714 -1.077,-1.078 -3.871,3.317 -6.639,7.533 -8.196,12.375 -2.724,-3.014 -5.449,-6.027 -8.171,-9.043 0.143,-0.086 0.253,-0.215 0.316,-0.368 2.101,-5.291 5.227,-9.954 9.29,-13.939 0.701,-0.689 -0.376,-1.767 -1.078,-1.079 -4.168,4.089 -7.338,8.869 -9.536,14.267 -2.504,-2.78 -4.997,-5.571 -7.478,-8.372 0.3,-0.655 3.799,-17.497 19.676,-27.781 0.82,-0.532 0.057,-1.853 -0.77,-1.318 -9.946,6.444 -16.818,16.447 -20.099,27.75 -4.88,-5.528 -7.585,-8.708 -7.841,-9.006 -2.503,-10.242 5.988,-20.385 13.488,-27.095 10.012,-8.958 22.865,-15.351 35.403,-7.313 1.657,1.063 3.188,-1.577 1.539,-2.633 -12.335,-7.91 -25.122,-3.312 -35.609,4.872 -4.564,-4.626 -10.059,-9.416 -17.019,-8.377 -6.212,0.925 -8.89,5.945 -9.052,11.815 -0.109,3.881 1.213,9.195 -1.317,12.609 -3.812,5.144 -10.237,0.27 -14.736,-0.942 -6.323,-1.706 -11.763,1.257 -15.566,6.315 -14.591,19.41 -3.507,50.16 -16.512,70.536 -4.778998,7.485 -12.454998,12.367 -20.870998,14.834 -16.6636,4.887 -38.2931,1.97 -51.4803,-9.89 -13.7098,-12.331 -16.4446,-30.256 6.0227,-48.448 29.3766,-23.785 66.866598,-36.427 92.671598,-64.825 9.922,-10.919 25.459,-31.296002 14.694,-46.279102 -10.201,-14.1947 -29.974,-5.3172 -41.375,2.2261 -2.244,-9.7748 -6.360998,-18.3728 -14.436998,-22.5106 -0.244,-0.3294 -0.628,-0.5592 -1.164,-0.5592 l -0.014,10e-4 c -2.696,-1.1824 -5.802,-1.8971 -9.39,-2.0343 -1.9619,-0.0753 -1.9598,2.9747 0,3.05 14.594,0.5602 19.857,11.9062 22.455998,24.6721 1.965,9.646 2.972,23.407002 -4.765998,30.432002 -0.581,0.285 -1.168,0.556 -1.76,0.818 -3.555,0.738 -7.114,1.461 -10.677,2.168 0.019,-0.031 0.045,-0.053 0.059,-0.089 4.546,-10.996 4.853,-22.879002 0.904,-34.099002 -0.324,-0.921 -1.798,-0.525 -1.471,0.404 3.867,10.989 3.546,22.526002 -0.903,33.290002 -0.134,0.325 -0.026,0.581 0.179,0.738 -3.924,0.778 -7.8515,1.546 -11.7809,2.301 1.6002,-5.665 2.0232,-11.372 1.2454,-17.214002 -0.1281,-0.959 -1.6551,-0.972 -1.525,0 0.7625,5.726002 0.3701,11.330002 -1.2119,16.892002 -0.0322,0.099 -0.0418,0.203 -0.0281,0.307 0.0137,0.103 0.0504,0.201 0.1074,0.288 -4.0951,0.787 -8.1912,1.568 -12.2874,2.351 1.6368,-4.897 2.3241,-10.224 1.34,-15.311 -0.1861,-0.962 -1.6562,-0.554 -1.4701,0.407 0.9811,5.071 0.1332,10.403 -1.5901,15.233 -6.9739,1.326 -13.9415,2.685 -20.9027,4.076 7.2346,-7.831 7.5996,-23.234002 6.3491,-32.373002 -1.4589,-10.656 -6.0197,-24.0925 -15.8915,-28.9614 15.2022,-1.893 30.4624,-3.2919 45.6433,-5.368 1.9357,-0.2643 1.1112,-3.2035 -0.8113,-2.9412 -17.014,2.3262 -51.479,5.732 -53.1158,6.3928 -0.3065,-0.1521 -0.6549,-0.1978 -0.9902,-0.1301 -15.15239977,2.8243 -17.3676998,23.1479 -15.61499977,35.3569 0.467,3.213 1.13969997,6.393 2.01399997,9.521002 -0.793,1.612 -0.2277,4.14 0.2074,6.059 0.486,2.14 0.9638,6.161 2.7369,11.069 z m 204.1774978,84.586 c 0.615,2.034 2.474,2.691 4.585,2.691 4.909,0 12.897,-3.633 20.886,-9.868 10.804,-8.433 16.97,-18.009 14.221,-21.984 4.375,1.013 6.792,3.592 7.315,3.871 8.006,10.482 -2.738,25.886 -10.496,33.171 -9.09,8.536 -23.784,18.436 -33.736,10.899 -1.284,-0.972 -2.265,-2.058 -3.012,-3.221 -0.092,-0.478 -0.339,-0.71 -0.553,-0.959 -2.19,-4.295 -1.362,-9.543 0.79,-14.6 z M 15.594912,61.071198 c 0.0864,0.0082 0.1728,0.0163 0.2674,0.0102 5.2755,-0.3182 9.4143,1.6053 12.6331,4.7438 -0.1924,-0.009 -0.3853,-0.0015 -0.5765,0.0223 -4.8718,0.6599 -7.2305,11.9543 -5.369,25.7143 1.8046,13.341002 6.8178,23.394002 11.5626,23.394002 0.426,0 0.793,-0.075 1.1956,-0.228 -2.375,4.534 -6.1244,8.305 -11.5514,8.293 -13.1801,-0.027 -18.2968998,-18.618 -20.0262998,-28.862002 -1.7954,-10.641 -0.916,-29.4926 11.8644998,-33.0876 z M 201.35541,102.9388 c 2.879,0.273 5.731,0.92 8.604,1.166 2.13,0.183 1.914,-0.091 3.025,1.184 1.689,1.936 2.448,6.305 3.14,8.702 0.08,0.281 0.241,0.533 0.463,0.724 0.221,0.191 0.494,0.312 0.784,0.35 l -0.013,0.017 c 0.005,0.003 1.532,1.061 2.526,1.777 1.907,-1.883 4.002,-4.038 6.64,-5.943 10.961,2.145 22.789,3.361 34.219,3.519 l 0.516,0.007 -0.041,-23.418002 c -2.921,-6.852 -4.063,-7.404 -4.447,-8.031 -0.325,-1.694 -3.09,-1.621 -3.014,0.254 0.439,10.57 0.189,3.856 -0.651,18.917002 -0.105,1.894 -0.205,3.701 -0.295,4.442 -0.104,-0.007 -24.149,-1.662 -27.139,-2.071 -0.604,-0.082 -1.439,0.039 -1.722,0.701 -0.815,1.915 -3.39,3.942 -5.494,5.635 -0.749,-2.931 -1.716,-6.548 -3.492,-8.379 -2.216,-2.285 -8.428,-2.297 -12.284,-2.511002 -0.055,-1.802 0.728,-4.348 0.893,-5.803 0.031,-0.274 1.448,-13.188 1.509,-13.369 0.125,-0.363 0.157,-0.605 0.144,-0.772 0.204,-0.004 0.485,-0.039 0.893,-0.139 2.368,-0.575 6.621,0.752 9.122,1.017 11.591,1.225 23.211,2.156 34.827,3.119 1.956,0.163 1.946,-2.888 0,-3.05 -14.672,-1.216 -29.303,-2.637 -43.949,-4.136 -4.805,-0.491 -3.72,0.794 -5.596,17.33 -0.247,2.177 -1.364,5.497 -0.639,7.640002 0.235,0.695 0.762,1.053 1.471,1.121 z"
     fill="#0f63fb"
     id="path2" />
  <path
     d="m 28.443512,22.016998 c -1.9621,0 -1.9652,3.05 0,3.05 1.9622,0 1.9653,-3.05 0,-3.05 z m 10.8448,-4.4062 c -1.9621,0 -1.9662,3.05 0,3.05 1.9622,0 1.9652,-3.05 0,-3.05 z m 13.2167,-4.4052 c -1.9622,0 -1.9662,3.05 0,3.05 1.9622,0 1.9652,-3.05 0,-3.05 z m 189.948398,75.1352 -31.014,-2.472 c -1.957,-0.156 -1.947,2.895 0,3.05 l 31.013,2.472 c 1.958,0.156 1.947,-2.895 0,-3.05 z m -21.435,5.546 c -1.919,-0.319 -2.745,2.619 -0.81,2.942 6.257,1.051 12.595,1.547 18.94,1.483 1.961,-0.022 1.967,-3.072 0,-3.05 -6.091,0.067 -12.118,-0.374 -18.13,-1.375 z"
     fill="#0f63fb"
     id="path4" />
</svg>
