<svg width="25" height="25" viewBox="0 0 25 25" fill="none" xmlns="http://www.w3.org/2000/svg">
<g clip-path="url(#clip0_910_315)">
<path d="M14.1674 12.0492C14.1674 13.2189 13.2191 14.1673 12.0494 14.1673C10.8797 14.1673 9.93134 13.2189 9.93134 12.0492C9.93134 10.8795 10.8797 9.93115 12.0494 9.93115C13.2191 9.93115 14.1674 10.8795 14.1674 12.0492Z" fill="#585858"/>
<path d="M15.6265 5.64795H8.47222C6.91494 5.64795 5.64815 6.91474 5.64815 8.47202V15.6263C5.64815 17.1836 6.91494 18.4504 8.47222 18.4504H15.6265C17.1838 18.4504 18.4506 17.1836 18.4506 15.6263V8.47202C18.4506 6.91474 17.1838 5.64795 15.6265 5.64795ZM12.0494 15.5793C10.1029 15.5793 8.51929 13.9957 8.51929 12.0492C8.51929 10.1027 10.1029 8.51909 12.0494 8.51909C13.9959 8.51909 15.5795 10.1027 15.5795 12.0492C15.5795 13.9957 13.9959 15.5793 12.0494 15.5793ZM16.0972 8.70736C15.7073 8.70736 15.3912 8.39131 15.3912 8.00134C15.3912 7.61138 15.7073 7.29533 16.0972 7.29533C16.4872 7.29533 16.8032 7.61138 16.8032 8.00134C16.8032 8.39131 16.4872 8.70736 16.0972 8.70736Z" fill="#585858"/>
<path d="M17.7446 0H6.35417C2.85055 0 0 2.85055 0 6.35417V17.7446C0 21.2482 2.85055 24.0988 6.35417 24.0988H17.7446C21.2482 24.0988 24.0988 21.2482 24.0988 17.7446V6.35417C24.0988 2.85055 21.2482 0 17.7446 0ZM19.8627 15.6265C19.8627 17.9623 17.9623 19.8627 15.6265 19.8627H8.47222C6.13648 19.8627 4.23611 17.9623 4.23611 15.6265V8.47222C4.23611 6.13648 6.13648 4.23611 8.47222 4.23611H15.6265C17.9623 4.23611 19.8627 6.13648 19.8627 8.47222V15.6265Z" fill="#585858"/>
</g>
<defs>
<clipPath id="clip0_910_315">
<rect width="24.0988" height="24.0988" fill="white"/>
</clipPath>
</defs>
</svg>
