<svg width="70" height="70" viewBox="0 0 70 70" fill="none" xmlns="http://www.w3.org/2000/svg">
<path d="M66.3428 45.733C65.8963 44.7151 64.6463 44.3328 63.7067 44.9284C62.607 45.6255 61.1595 46.3626 60.4683 46.6536C60.443 46.6317 60.4008 46.5748 60.4475 46.4601C65.4628 34.1277 52.7336 25.637 52.7258 25.6249C52.7993 35.6672 39.7328 34.7589 34.5361 46.1747C30.7362 54.522 36.7315 65.1622 44.2602 65.1622C45.3616 65.1622 46.2059 64.1906 46.0605 63.1046C45.615 59.7787 46.1288 57.1376 47.5881 55.236C46.8643 63.2179 55.4877 68.3967 62.0939 63.8927C65.5568 61.5318 67.5828 58.0449 67.9529 53.8091C68.1689 51.3379 67.6423 48.6962 66.3428 45.733V45.733Z" fill="white"/>
<path d="M9.63281 35.5303H6V44.6123C6 45.6154 6.81327 46.4287 7.81641 46.4287H16.8984V42.7959C16.8984 38.7896 13.6391 35.5303 9.63281 35.5303V35.5303Z" fill="#6495FB"/>
<path d="M56.9395 19.1826H60.6133V10.1006C60.6133 9.09745 59.8 8.28418 58.7969 8.28418H49.6738V11.917C49.6738 15.9233 52.9332 19.1826 56.9395 19.1826Z" fill="#6495FB"/>
<path d="M16.8984 11.917V8.28418H7.81641C6.81327 8.28418 6 9.09745 6 10.1006V19.1826H9.63281C13.6391 19.1826 16.8984 15.9233 16.8984 11.917V11.917Z" fill="#6495FB"/>
<path d="M54.6509 22.5728C54.6644 22.5833 57.569 24.3243 60.6134 28.2137V22.8152C57.5093 22.7653 56.4381 22.9563 54.6509 22.5728V22.5728Z" fill="#6495FB"/>
<path d="M48.621 28.0292C49.3064 26.7337 49.0608 26.2545 49.0102 19.3857C47.1704 17.4335 46.0408 14.8048 46.0408 11.917V8.28418H20.5312V11.917C20.5312 17.9264 15.6422 22.8154 9.63281 22.8154H6V31.8975H9.63281C15.6422 31.8975 20.5312 36.7865 20.5312 42.7959V46.4287H30.5521C30.7445 45.8307 30.9689 45.2428 31.2299 44.6696C36.0126 34.1636 46.1875 32.63 48.621 28.0292V28.0292ZM44.2051 25.54C45.2082 25.54 46.0215 26.3533 46.0215 27.3564C46.0215 28.3596 45.2082 29.1728 44.2051 29.1728C43.2019 29.1728 42.3886 28.3596 42.3886 27.3564C42.3886 26.3533 43.2019 25.54 44.2051 25.54ZM22.4082 29.1728C21.4051 29.1728 20.5918 28.3596 20.5918 27.3564C20.5918 26.3533 21.4051 25.54 22.4082 25.54C23.4113 25.54 24.2246 26.3533 24.2246 27.3564C24.2246 28.3596 23.4113 29.1728 22.4082 29.1728ZM35.042 35.233V35.5998C35.042 36.6029 34.2287 37.4162 33.2256 37.4162C32.2225 37.4162 31.4092 36.6029 31.4092 35.5998V35.3728C30.4451 35.1658 29.5457 34.7944 28.8419 34.3341C28.0024 33.7848 27.7671 32.6591 28.3162 31.8196C28.8655 30.9801 29.9912 30.7446 30.8307 31.294C31.733 31.8844 33.2353 32.1017 33.9826 31.7502C34.7866 31.3718 35.5074 30.2174 34.3589 29.3223C33.0577 28.3082 30.2589 28.1732 28.9144 25.7457C27.6376 23.4406 28.7889 20.3647 31.4093 19.381V19.1131C31.4093 18.11 32.2226 17.2967 33.2257 17.2967C34.2289 17.2967 35.0421 18.11 35.0421 19.1131V19.2593C35.8135 19.4759 36.5271 19.8462 37.0897 20.3652C37.827 21.0454 37.8735 22.1945 37.1934 22.9319C36.5132 23.6693 35.3642 23.7158 34.6267 23.0356C34.2139 22.6547 33.0389 22.5092 32.4896 22.8785C32.1043 23.1375 31.915 23.665 32.0923 23.9852C32.5976 24.8976 34.8553 25.1033 36.592 26.4566C39.8057 28.9611 38.9168 33.4432 35.5293 35.0371C35.3705 35.1119 35.2074 35.1756 35.042 35.233V35.233Z" fill="#6495FB"/>
</svg>
