<svg width="180" height="56" viewBox="0 0 180 56" fill="none" xmlns="http://www.w3.org/2000/svg">
<path d="M0 7C0 3.13401 3.08474 0 6.88995 0H173.11C176.915 0 180 3.13401 180 7V49C180 52.866 176.915 56 173.11 56H6.88995C3.08474 56 0 52.866 0 49V7Z" fill="#F8F9FC"/>
<path d="M70.7704 14.1123C72.7642 14.1123 73.9429 15.3735 73.9429 17.5181C73.9429 19.6628 72.769 20.9299 70.7704 20.9299H68.5113V14.1123H70.7704ZM69.3505 20.1638H70.7144C72.2375 20.1638 73.0854 19.2196 73.0854 17.5279C73.0854 15.8363 72.2423 14.8774 70.7144 14.8774H69.3505V20.1638Z" fill="#333333"/>
<path d="M75.0947 18.4736C75.0947 16.9081 75.9985 15.9297 77.3402 15.9297C78.682 15.9297 79.58 16.9032 79.58 18.4736C79.58 20.0439 78.6762 21.0174 77.3402 21.0174C76.0043 21.0174 75.0947 20.037 75.0947 18.4736ZM78.7601 18.4736C78.7601 17.3161 78.2007 16.6547 77.3441 16.6547C76.4875 16.6547 75.9233 17.3161 75.9233 18.4736C75.9233 19.631 76.4866 20.2924 77.3441 20.2924C78.2016 20.2924 78.7563 19.631 78.7563 18.4736H78.7601Z" fill="#333333"/>
<path d="M85.684 20.9302H84.8593L83.7645 17.1271H83.7462L82.6562 20.9302H81.8314L80.481 16.0166H81.2865L82.2559 20.0134H82.2742L83.3642 16.0195H84.1465L85.2461 20.0163H85.2644L86.229 16.0195H87.0306L85.684 20.9302Z" fill="#333333"/>
<path d="M88.1726 16.0187H88.9366V16.8014H88.9549C89.225 16.2731 89.742 15.9326 90.4915 15.9326C91.5525 15.9326 92.1689 16.6273 92.1689 17.7417V20.9313H91.3587V17.8885C91.3587 17.095 90.9902 16.6606 90.2455 16.6606C89.4816 16.6606 88.9829 17.2085 88.9829 18.0401V20.9313H88.1726V16.0187Z" fill="#333333"/>
<path d="M93.7171 14.1123H94.5273V20.9299H93.7171V14.1123Z" fill="#333333"/>
<path d="M95.8614 18.4736C95.8614 16.9081 96.7642 15.9297 98.106 15.9297C99.4477 15.9297 100.347 16.9032 100.347 18.4736C100.347 20.0439 99.4429 21.0174 98.106 21.0174C96.769 21.0174 95.8614 20.037 95.8614 18.4736ZM99.5268 18.4736C99.5268 17.3161 98.9683 16.6547 98.1108 16.6547C97.2533 16.6547 96.6899 17.3161 96.6899 18.4736C96.6899 19.631 97.2542 20.2924 98.1108 20.2924C98.9674 20.2924 99.522 19.631 99.522 18.4736H99.5268Z" fill="#333333"/>
<path d="M101.443 19.542C101.443 18.7015 102.081 18.1722 103.199 18.1057L104.587 18.0254V17.6145C104.587 17.0147 104.195 16.6557 103.526 16.6557C102.902 16.6557 102.51 16.9492 102.408 17.4384H101.627C101.683 16.5881 102.398 15.9365 103.546 15.9365C104.694 15.9365 105.4 16.5598 105.4 17.5382V20.9352H104.629V20.0889H104.61C104.458 20.3718 104.232 20.6076 103.959 20.7715C103.685 20.9355 103.372 21.0214 103.054 21.0203C102.09 21.0154 101.443 20.4225 101.443 19.542ZM104.587 19.0645V18.6614L103.292 18.7416C102.64 18.7837 102.267 19.0772 102.267 19.54C102.267 20.0028 102.653 20.3149 103.232 20.3149C104 20.3159 104.587 19.7729 104.587 19.0635V19.0645Z" fill="#333333"/>
<path d="M106.666 18.4731C106.666 16.9331 107.499 15.9292 108.719 15.9292C109.414 15.9292 109.973 16.2736 110.263 16.8098H110.281V14.1123H111.091V20.9299H110.32V20.0982H110.308C110.155 20.382 109.929 20.6176 109.653 20.7793C109.377 20.941 109.062 21.0225 108.744 21.015C107.504 21.015 106.666 20.0131 106.666 18.4731ZM107.494 18.4731C107.494 19.5875 108.036 20.2919 108.892 20.2919C109.725 20.2919 110.285 19.5738 110.285 18.4731C110.285 17.3724 109.725 16.6542 108.892 16.6542C108.036 16.6542 107.494 17.3626 107.494 18.4731Z" fill="#333333"/>
<path d="M114.857 18.4736C114.857 16.9081 115.761 15.9297 117.103 15.9297C118.444 15.9297 119.343 16.9032 119.343 18.4736C119.343 20.0439 118.44 21.0174 117.103 21.0174C115.766 21.0174 114.857 20.037 114.857 18.4736ZM118.523 18.4736C118.523 17.3161 117.963 16.6547 117.107 16.6547C116.25 16.6547 115.686 17.3161 115.686 18.4736C115.686 19.631 116.249 20.2924 117.107 20.2924C117.964 20.2924 118.519 19.631 118.519 18.4736H118.523Z" fill="#333333"/>
<path d="M120.635 16.0187H121.401V16.8014H121.419C121.689 16.2731 122.206 15.9326 122.956 15.9326C124.017 15.9326 124.633 16.6273 124.633 17.7417V20.9313H123.823V17.8885C123.823 17.095 123.455 16.6606 122.709 16.6606C121.946 16.6606 121.447 17.2085 121.447 18.0401V20.9313H120.637L120.635 16.0187Z" fill="#333333"/>
<path d="M129.641 14.8301V16.0188H130.583V16.6939H129.641V19.6135C129.641 20.0626 129.828 20.2661 130.242 20.2661C130.355 20.264 130.467 20.2562 130.578 20.2426V20.9324C130.409 20.9601 130.237 20.9725 130.066 20.9696C129.176 20.9696 128.831 20.6017 128.831 19.6566V16.691H128.109V16.0188H128.828V14.8301H129.641Z" fill="#333333"/>
<path d="M131.963 14.1123H132.774V16.802H132.792C133.062 16.254 133.593 15.9331 134.329 15.9331C135.39 15.9331 136.034 16.6611 136.034 17.7569V20.9318H135.224V17.9056C135.224 17.1229 134.838 16.6591 134.078 16.6591C133.272 16.6591 132.774 17.2158 132.774 18.067V20.9299H131.963V14.1123Z" fill="#333333"/>
<path d="M141.55 19.5224C141.411 20.3824 140.586 21.0155 139.533 21.0155C138.145 21.0155 137.302 20.037 137.302 18.4921C137.302 16.9658 138.16 15.9316 139.496 15.9316C140.805 15.9316 141.611 16.8954 141.611 18.3835V18.6956H138.139V18.7426C138.139 19.6829 138.684 20.3012 139.555 20.3012C140.17 20.3012 140.621 19.9852 140.757 19.5185L141.55 19.5224ZM138.141 18.0548H140.772C140.754 17.2329 140.246 16.6469 139.482 16.6469C138.718 16.6469 138.192 17.2359 138.141 18.0528V18.0548Z" fill="#333333"/>
<path d="M72.689 26.3906H74.785L79.3254 39.0718H77.2891L76.1461 35.6474H71.3241L70.1665 39.0718H68.1351L72.689 26.3906ZM71.8488 34.0623H75.6175L73.75 28.4922H73.7153L71.8488 34.0623Z" fill="#333333"/>
<path d="M81.3607 29.8284H83.232V31.4184H83.2754C83.8213 30.3206 84.8264 29.6572 86.1258 29.6572C88.4475 29.6572 89.9378 31.5025 89.9378 34.4514V34.4602C89.9378 37.4043 88.4388 39.2544 86.1518 39.2544C84.8612 39.2544 83.8127 38.5872 83.2754 37.5148H83.232V42.1456H81.3607V29.8284ZM88.0318 34.4593V34.4505C88.0318 32.4819 87.1048 31.2785 85.6406 31.2785C84.2197 31.2785 83.2233 32.5259 83.2233 34.4505V34.4593C83.2233 36.375 84.2284 37.6234 85.6406 37.6234C87.1135 37.6234 88.0318 36.4102 88.0318 34.4593Z" fill="#333333"/>
<path d="M92.2702 29.8284H94.1415V31.4184H94.1849C94.7309 30.3206 95.736 29.6572 97.0353 29.6572C99.3581 29.6572 100.847 31.5025 100.847 34.4514V34.4602C100.847 37.4043 99.3494 39.2544 97.0614 39.2544C95.7707 39.2544 94.7222 38.5872 94.1849 37.5148H94.1415V42.1456H92.2702V29.8284ZM98.9414 34.4593V34.4505C98.9414 32.4819 98.0144 31.2785 96.5501 31.2785C95.1293 31.2785 94.1329 32.5259 94.1329 34.4505V34.4593C94.1329 36.375 95.138 37.6234 96.5501 37.6234C98.025 37.6234 98.9433 36.4102 98.9433 34.4593H98.9414Z" fill="#333333"/>
<path d="M107.338 35.6977L107.329 35.5665H109.218L109.236 35.681C109.409 36.8492 110.561 37.5791 112.233 37.5791C113.906 37.5791 114.962 36.814 114.962 35.6282V35.6194C114.962 34.5999 114.277 34.0461 112.623 33.6772L111.263 33.3837C108.811 32.8564 107.624 31.7146 107.624 29.834V29.8252C107.632 27.663 109.512 26.1777 112.157 26.1777C114.762 26.1777 116.55 27.6189 116.679 29.746L116.688 29.8947H114.799L114.791 29.7724C114.618 28.5983 113.613 27.8831 112.131 27.8831C110.58 27.8919 109.592 28.6384 109.592 29.7421V29.7509C109.592 30.6999 110.303 31.2801 111.862 31.6226L113.232 31.9161C115.813 32.4699 116.922 33.5334 116.922 35.4932V35.502C116.922 37.813 115.121 39.2806 112.157 39.2806C109.348 39.2835 107.494 37.9353 107.338 35.6977Z" fill="#333333"/>
<path d="M119.858 36.6395V31.3394H118.55V29.8288H119.858V27.4209H121.772V29.8288H123.479V31.3394H121.768V36.525C121.768 37.4652 122.183 37.746 122.972 37.746C123.14 37.7453 123.308 37.7335 123.474 37.7108V39.1784C123.159 39.2296 122.84 39.2561 122.521 39.2577C120.719 39.2577 119.858 38.4847 119.858 36.6395Z" fill="#333333"/>
<path d="M125.281 34.4505V34.4328C125.281 31.48 127.004 29.6523 129.595 29.6523C132.186 29.6523 133.927 31.4712 133.927 34.4328V34.4505C133.927 37.4297 132.211 39.2574 129.604 39.2574C126.997 39.2574 125.281 37.4209 125.281 34.4505ZM132.012 34.4505V34.4328C132.012 32.4115 131.059 31.2432 129.595 31.2432C128.157 31.2432 127.195 32.4115 127.195 34.4328V34.4505C127.195 36.4983 128.148 37.6665 129.613 37.6665C131.077 37.6665 132.011 36.4895 132.011 34.4505H132.012Z" fill="#333333"/>
<path d="M136.262 29.8285H138.133V31.4096H138.176C138.466 30.3333 139.237 29.6484 140.272 29.6484C140.491 29.6519 140.708 29.6755 140.922 29.7189V31.4849C140.775 31.4233 140.446 31.3792 140.082 31.3792C138.877 31.3792 138.133 32.1796 138.133 33.5591V39.0695H136.262V29.8285Z" fill="#333333"/>
<path d="M142.173 34.4857V34.4769C142.173 31.5857 143.82 29.6523 146.376 29.6523C148.932 29.6523 150.5 31.5113 150.5 34.292V34.9338H144.046C144.079 36.6832 145.025 37.7017 146.514 37.7017C147.623 37.7017 148.36 37.1225 148.594 36.4298L148.62 36.3593H150.396L150.378 36.4572C150.084 37.9248 148.681 39.2603 146.472 39.2603C143.794 39.2574 142.173 37.4033 142.173 34.4857ZM144.072 33.5895H148.646C148.49 31.9898 147.606 31.208 146.385 31.208C145.164 31.208 144.236 32.0426 144.069 33.5895H144.072Z" fill="#333333"/>
<path d="M51.4612 23.8788C50.294 24.7014 49.5008 25.5278 49.0815 26.3581C48.6608 27.1918 48.4447 28.1162 48.4517 29.0527C48.4431 29.7706 48.5698 30.4836 48.825 31.1533C49.0856 31.8071 49.4434 32.4166 49.886 32.9604C50.3413 33.5312 51.1024 34.0977 52.1692 34.6599C51.7564 35.8869 51.1162 37.1389 50.2487 38.416C49.3812 39.6932 48.5951 40.5989 47.8903 41.1331C47.1861 41.6673 46.5138 41.9344 45.8733 41.9344C45.3589 41.9344 44.6689 41.7684 43.8033 41.4364L43.3972 41.2847L42.7355 41.003C42.2295 40.8537 41.7046 40.7809 41.1777 40.7867C40.5944 40.7867 39.9398 40.9172 39.2138 41.1781L38.7016 41.3738L38.0601 41.6311C37.5712 41.8289 37.0499 41.9318 36.5235 41.9344C35.4412 41.9344 34.2815 41.1657 33.0442 39.6283C31.839 38.1486 30.8899 36.4723 30.2373 34.6707C29.6116 32.9554 29.2884 31.1418 29.2823 29.3129C29.2823 26.9895 29.9331 25.0555 31.2346 23.511C32.5362 21.9664 34.3046 21.1944 36.5399 21.1951C37.3233 21.1894 38.0998 21.3438 38.8231 21.6491L39.3141 21.8447L39.8263 22.0619C40.2816 22.2498 40.6446 22.3434 40.9153 22.3427C41.3253 22.3403 41.7311 22.2593 42.1114 22.104L42.7943 21.8438L43.2853 21.6481C44.1331 21.3361 45.0294 21.1823 45.9312 21.1941C48.2237 21.1947 50.067 22.0897 51.4612 23.8788ZM46.0402 13.5625C46.0682 13.8805 46.0826 14.1251 46.0826 14.2983C46.0826 15.1932 45.8254 16.1171 45.3109 17.0701C44.8427 17.9734 44.1514 18.7379 43.3046 19.2891C42.4877 19.813 41.5393 20.0871 40.5729 20.0787C40.5373 19.8277 40.5157 19.5749 40.5082 19.3214C40.5082 18.5563 40.7333 17.7517 41.1835 16.9077C41.6312 16.0648 42.2539 15.3304 43.0085 14.7552C43.7709 14.1661 44.666 13.7791 45.6129 13.629L46.0402 13.5625Z" fill="#333333"/>
</svg>
