<svg width="84" height="40" viewBox="0 0 84 40" fill="none" xmlns="http://www.w3.org/2000/svg">
<path fill-rule="evenodd" clip-rule="evenodd" d="M67.5345 0L63.0251 8.02993H65.3595V27.5597C65.3595 29.4621 64.6252 30.3883 63.0597 30.3883C61.4942 30.3883 60.7599 29.4549 60.7599 27.5597V8.02993H56.4375V27.3887C56.4375 31.8347 58.9451 34.2715 63.0597 34.2715C67.1743 34.2715 69.6819 31.8347 69.6819 27.3887V8.02993H72.0441L67.5345 0ZM80.0932 27.8447C80.0932 30.3883 79.255 30.9654 78.2091 30.9654C77.4401 30.9654 76.7474 30.5379 75.9785 29.9608V18.5607C76.7474 17.9836 77.4401 17.5561 78.2091 17.5561C79.255 17.5561 80.0932 18.1261 80.0932 20.6769V27.8447ZM80.0308 14.2643C78.0774 14.2643 77.1354 14.9483 75.8469 16.6299H75.7777V14.6206H72.0856V40H75.9855V32.2551C77.5164 33.5447 78.3199 34.2643 80.0308 34.2643C82.4692 34.2643 84 32.3976 84 28.8849V19.6366C84 16.124 82.4692 14.2643 80.0308 14.2643Z" fill="#D5D5D5"/>
<path fill-rule="evenodd" clip-rule="evenodd" d="M35.6766 14.3354C33.3601 14.3354 32.5029 15.2115 30.831 16.6668V14.6974H27.055V34.2902H31.0435V18.9259C31.9715 18.2308 32.7508 17.6878 33.608 17.6878C34.4652 17.6878 35.032 18.1222 35.032 19.1069V34.2974H39.0204V18.448C39.0204 15.8994 37.7736 14.3354 35.6766 14.3354ZM49.8169 30.2862C49.0306 30.8726 48.3222 31.307 47.5358 31.307C46.4661 31.307 45.6089 30.7278 45.6089 28.1358V20.8518C45.6089 18.267 46.4661 17.6805 47.5358 17.6805C48.3222 17.6805 49.0306 18.1149 49.8169 18.7014V30.2862ZM49.8169 16.3772C48.2513 15.0667 47.4295 14.3354 45.6868 14.3354C43.1931 14.3354 41.6204 16.2324 41.6204 19.802V29.2001C41.6204 32.7697 43.186 34.6667 45.6868 34.6667C47.6846 34.6667 48.648 33.9788 49.9657 32.2628H50.0366V34.3046H53.8125V8H49.824V16.3772H49.8169ZM20.8492 21.9089H16.4285V20.888C16.4285 18.629 17.2149 17.6805 18.6388 17.6805C20.0628 17.6805 20.8492 18.629 20.8492 20.888V21.9089ZM18.6388 14.3354C14.0765 14.3354 12.4401 17.3185 12.4401 21.6193V27.3755C12.4401 31.6763 14.0765 34.6594 18.6388 34.6594C23.0949 34.6594 24.7668 31.8212 24.8376 27.6651H20.8492V28.0996C20.8492 30.3586 20.0628 31.307 18.6388 31.307C17.2149 31.307 16.4285 30.3586 16.4285 28.0996V25.2612H24.8376V21.6193C24.8447 17.3185 23.2012 14.3354 18.6388 14.3354ZM4.42062 8H0V34.2902H10.8744V30.3586H4.42062V8Z" fill="#233142"/>
</svg>
