<svg width="113" height="25" viewBox="0 0 113 25" fill="none" xmlns="http://www.w3.org/2000/svg">
<g clip-path="url(#clip0)">
<path d="M62.4831 17.6086V19.3346H50.4786V0.30957H52.2098V17.6086H62.4831ZM112.396 13.4848C112.903 14.0843 113.164 14.8673 113.123 15.6653C113.151 16.5066 112.867 17.327 112.333 17.9578C111.805 18.5717 111.129 19.0266 110.375 19.2753C109.594 19.5516 108.774 19.6897 107.949 19.6837C106.903 19.7085 105.861 19.5206 104.884 19.1304C104.07 18.7865 103.327 18.2809 102.698 17.6416L102.553 17.4835L103.633 16.245L103.798 16.4163C104.291 16.9326 104.877 17.3423 105.522 17.6218C106.262 17.9189 107.049 18.0621 107.841 18.0435C108.446 18.05 109.049 17.9635 109.629 17.7865C110.102 17.649 110.536 17.3935 110.892 17.0421C111.04 16.8852 111.155 16.6985 111.232 16.4935C111.308 16.2885 111.343 16.0695 111.335 15.8498C111.356 15.6126 111.329 15.3736 111.259 15.1472C111.189 14.9208 111.075 14.7116 110.925 14.5322C110.545 14.1756 110.087 13.9222 109.591 13.7945C108.959 13.5968 108.188 13.386 107.279 13.1356C106.585 12.9728 105.904 12.7525 105.244 12.4769C104.657 12.239 104.144 11.838 103.76 11.3175C103.362 10.7252 103.166 10.0106 103.203 9.28846C103.177 8.51521 103.427 7.75933 103.905 7.16727C104.382 6.59551 104.997 6.16777 105.686 5.92881C106.432 5.65967 107.217 5.52597 108.005 5.53355C108.924 5.5199 109.836 5.72019 110.672 6.11985C111.397 6.47471 112.042 6.98413 112.567 7.61523L112.706 7.78652L111.544 8.87346L111.398 8.70879C110.988 8.2417 110.499 7.85563 109.958 7.56912C109.349 7.27239 108.683 7.12802 108.012 7.14752C107.503 7.14699 106.997 7.20667 106.501 7.32538C106.06 7.43124 105.655 7.65876 105.326 7.98414C105.166 8.17291 105.045 8.39329 104.969 8.63212C104.894 8.87096 104.865 9.12337 104.884 9.37412C104.875 9.58754 104.915 9.80021 104.999 9.99479C105.083 10.1894 105.211 10.3605 105.371 10.494C105.783 10.8293 106.256 11.0756 106.761 11.2186C107.355 11.4031 107.967 11.5744 108.586 11.7193C109.284 11.8764 109.97 12.0833 110.64 12.3385C111.301 12.5743 111.9 12.9666 112.39 13.4848H112.396ZM100.165 7.18704C100.955 8.47254 101.339 9.98371 101.264 11.5085V19.3346H99.5955V11.9104C99.6351 10.914 99.4914 9.91887 99.1726 8.97887C98.9708 8.38112 98.56 7.88472 98.0224 7.58888C97.4276 7.30864 96.7802 7.17132 96.1272 7.18704C95.2426 7.15449 94.3741 7.43549 93.663 7.98414C93.0173 8.51462 92.5129 9.20854 92.1973 9.99996C91.8865 10.7628 91.7235 11.5822 91.717 12.411V19.3346H90.0616V7.25292C90.0616 6.92353 90.0616 6.54804 90.0051 6.1462V5.89587H91.5968V6.10008C91.6347 6.52169 91.6541 6.89718 91.667 7.23316C91.667 7.43078 91.667 7.69429 91.667 8.05002C91.8179 7.83262 91.989 7.61523 92.1844 7.39126C92.6477 6.86365 93.2005 6.4303 93.8148 6.11326C94.5864 5.73459 95.4331 5.55174 96.2854 5.57967C98.1177 5.57967 99.4446 6.13302 100.171 7.21339L100.165 7.18704ZM82.0943 12.3451C82.8158 12.3386 83.5374 12.3716 84.2558 12.444C84.6674 12.4863 85.0767 12.5523 85.481 12.6416V14.2885C85.4738 14.9358 85.2728 15.5646 84.9063 16.0869C84.5068 16.681 83.9789 17.1685 83.3647 17.5099C82.7093 17.8859 81.9708 18.0766 81.2225 18.0632C80.4491 18.0972 79.6839 17.8835 79.0303 17.4505C78.7524 17.2376 78.532 16.9536 78.3904 16.6258C78.2486 16.298 78.1905 15.9377 78.2216 15.5796C78.2282 15.2341 78.2663 14.89 78.3353 14.552C78.4239 14.174 78.5947 13.8225 78.8345 13.5243C79.1546 13.1524 79.5584 12.8694 80.0096 12.7009C80.6836 12.4486 81.3977 12.3345 82.1136 12.3649L82.0943 12.3451ZM87.168 18.2938C87.168 18.0632 87.168 17.7865 87.168 17.4505V10.415C87.168 8.68904 86.6942 7.43738 85.7716 6.67979C84.6247 5.85859 83.242 5.47047 81.8545 5.57967C80.1682 5.54308 78.5267 6.14716 77.2359 7.27927L77.0906 7.4242L78.0004 8.64946L78.1774 8.49796C78.5939 8.15592 79.0478 7.86627 79.5294 7.635C80.2712 7.30603 81.0748 7.15518 81.8796 7.19363C82.8255 7.12247 83.7683 7.37453 84.5649 7.91168C85.1969 8.39912 85.456 9.30162 85.456 10.639V11.1001C85.0831 11.0408 84.6537 10.9881 84.192 10.942C83.5923 10.8893 82.9288 10.8564 82.1387 10.8564C81.0264 10.8184 79.9207 11.0436 78.9039 11.5151C78.1358 11.8775 77.4952 12.4809 77.0716 13.241C76.6867 13.9758 76.4908 14.8019 76.503 15.639C76.4625 16.5173 76.7099 17.3838 77.2043 18.0961C77.6629 18.6875 78.2815 19.1214 78.9797 19.3412C79.6627 19.5644 80.3743 19.6777 81.0902 19.6771C81.6269 19.671 82.1613 19.598 82.6819 19.4598C83.2945 19.3006 83.8756 19.0333 84.4011 18.6693C84.8281 18.3785 85.209 18.0207 85.5319 17.6086V18.2279C85.5319 18.5639 85.5319 18.8866 85.5698 19.1304V19.3412H87.168V18.2938ZM68.3463 18.0632C67.4723 18.0685 66.6159 17.8075 65.8822 17.3122C65.1375 16.8171 64.5212 16.1384 64.0879 15.336C63.6444 14.5135 63.4136 13.585 63.4182 12.6416C63.404 11.6851 63.6213 10.7403 64.0499 9.89454C64.4666 9.08579 65.0786 8.40454 65.8254 7.91827C66.583 7.42732 67.4608 7.17564 68.3527 7.19363C69.2327 7.18754 70.0954 7.44847 70.8357 7.94462C71.5721 8.44387 72.1814 9.12204 72.6111 9.92087C73.0553 10.7454 73.2862 11.6762 73.2807 12.6218C73.2941 13.5761 73.0769 14.5185 72.649 15.3623C72.2323 16.171 71.6204 16.8523 70.8736 17.3385C70.1152 17.8263 69.2371 18.0735 68.3463 18.05V18.0632ZM74.0895 9.05796C73.5094 8.01408 72.6885 7.13778 71.7012 6.50852C70.688 5.88762 69.5342 5.56025 68.359 5.56025C67.1838 5.56025 66.0299 5.88762 65.0167 6.50852C64.0203 7.13227 63.192 8.00945 62.6094 9.05796C62.0135 10.1394 61.7079 11.3681 61.7249 12.6152C61.7079 13.8623 62.0135 15.0911 62.6094 16.1725C63.179 17.229 63.9963 18.1176 64.9851 18.7549C65.9982 19.3758 67.1521 19.7031 68.3274 19.7031C69.5026 19.7031 70.6565 19.3758 71.6697 18.7549C72.6569 18.1256 73.4778 17.2493 74.0579 16.2055C74.6529 15.1234 74.9604 13.8955 74.9488 12.6482C74.9604 11.401 74.6529 10.173 74.0579 9.09087" fill="#256FF6"/>
<path d="M38.7932 12.3187V15.8365C39.4768 16.2336 40.255 16.4186 41.0361 16.3701C41.4625 16.393 41.8882 16.3134 42.2803 16.1375C42.6725 15.9616 43.0207 15.6941 43.298 15.3556C43.87 14.6103 44.164 13.6743 44.1257 12.7206C44.1317 12.1601 44.044 11.6028 43.8666 11.0736C43.7097 10.5797 43.4203 10.1431 43.0326 9.81539C42.5818 9.47597 42.0338 9.30639 41.4784 9.33455C41.0984 9.30905 40.718 9.37822 40.3685 9.5363C40.0192 9.69439 39.711 9.9368 39.4692 10.2436C39.0228 10.8276 38.78 11.5522 38.7805 12.299L38.7932 12.3187ZM34.9202 24.9933V6.10001H38.6542C38.692 6.33058 38.7174 6.5809 38.7363 6.81806L38.7932 7.55587C39.2161 7.00581 39.7631 6.57353 40.3853 6.29764C41.2181 5.93805 42.123 5.79802 43.0201 5.88994C43.9172 5.98186 44.7786 6.3029 45.5283 6.82465C46.3712 7.46171 47.0275 8.33075 47.4238 9.33455C47.8431 10.3775 48.058 11.4975 48.0555 12.6283C48.0783 13.724 47.8803 14.8125 47.4743 15.8233C47.1199 16.6759 46.5892 17.4362 45.92 18.05C45.297 18.6295 44.5716 19.077 43.7845 19.3675C43.0276 19.6474 42.2309 19.7921 41.4278 19.7956C40.9174 19.8079 40.4076 19.7503 39.9115 19.6244C39.5135 19.5124 39.1533 19.3938 38.8311 19.2884V25.0262L34.9202 24.9933ZM24.1098 12.3187V15.8365C24.7954 16.2344 25.5758 16.4196 26.3591 16.3701C26.7852 16.3915 27.2105 16.3112 27.6025 16.1355C27.9944 15.9596 28.3428 15.693 28.621 15.3556C29.1907 14.6094 29.4825 13.6735 29.4423 12.7206C29.4473 12.1607 29.3619 11.604 29.1896 11.0736C29.0313 10.5732 28.7399 10.1301 28.3493 9.79564C27.8985 9.45622 27.3504 9.28664 26.795 9.3148C26.4152 9.29214 26.0359 9.36464 25.6885 9.52622C25.3412 9.68789 25.036 9.9338 24.7984 10.2436C24.3498 10.8266 24.1048 11.5515 24.1035 12.299L24.1098 12.3187ZM20.2368 24.9933V6.10001H23.9771C24.0087 6.33058 24.034 6.5809 24.053 6.81806L24.1098 7.55587C24.5338 7.00415 25.0832 6.57163 25.7083 6.29764C26.353 6.00927 27.0475 5.86132 27.749 5.86285C28.8584 5.81882 29.9508 6.15681 30.8576 6.82465C31.701 7.4612 32.3573 8.3304 32.753 9.33455C33.1722 10.3776 33.387 11.4975 33.3848 12.6283C33.4076 13.724 33.2096 14.8125 32.8036 15.8233C32.4492 16.6759 31.9184 17.4362 31.2493 18.05C30.624 18.6296 29.8965 19.0771 29.1075 19.3675C28.3507 19.6479 27.5539 19.7926 26.7508 19.7956C26.2403 19.8075 25.7306 19.7499 25.2345 19.6244C24.8427 19.5146 24.4826 19.4026 24.154 19.2884V25.0262L20.2368 24.9933ZM9.38855 15.8101C10.3632 15.8371 11.3224 15.5521 12.137 14.9933C12.8995 14.4496 13.5065 13.7006 13.8934 12.826C14.3161 11.9003 14.5321 10.8867 14.5252 9.86155C14.5326 8.84047 14.3165 7.83113 13.8934 6.91029C13.5082 6.03978 12.9005 5.29673 12.137 4.76272C11.32 4.21093 10.3616 3.93068 9.38855 3.95904C8.42192 3.93469 7.4707 4.21477 6.65909 4.76272C5.89327 5.29395 5.27975 6.03153 4.88369 6.89711C4.46034 7.81788 4.24424 8.8273 4.25187 9.84839C4.24542 10.8736 4.46141 11.887 4.88369 12.8128C5.27672 13.6911 5.89016 14.4422 6.65909 14.9867C7.47362 15.5455 8.43282 15.8306 9.40744 15.8036L9.38855 15.8101ZM9.40744 19.8088C8.13587 19.8226 6.87456 19.5695 5.69873 19.0645C4.57369 18.5754 3.55341 17.8574 2.69749 16.9526C1.84157 16.0476 1.16718 14.9741 0.713716 13.7943C0.235856 12.5595 -0.00664515 11.2393 -0.000233568 9.90764C-0.0123189 8.5703 0.2259 7.24341 0.701081 6.00119C1.15597 4.82657 1.8279 3.75665 2.67866 2.85231C3.53038 1.94626 4.54907 1.22921 5.67346 0.744276C6.85438 0.24159 8.11932 -0.0114431 9.39485 -0.000124681C10.6642 -0.0112809 11.9229 0.241794 13.0973 0.744276C14.2218 1.23549 15.242 1.95411 16.0987 2.85866C16.9554 3.76321 17.6317 4.83576 18.0886 6.01437C18.5638 7.25659 18.802 8.58355 18.7899 9.9208C18.802 11.256 18.5638 12.5808 18.0886 13.8207C17.6332 15.0002 16.9574 16.0736 16.1005 16.9783C15.2436 17.8831 14.2228 18.6011 13.0973 19.0908C11.9214 19.5959 10.6601 19.849 9.38855 19.8352" fill="url(#paint0_linear)"/>
</g>
<defs>
<linearGradient id="paint0_linear" x1="-0.000671384" y1="12.5129" x2="46.007" y2="12.5129" gradientUnits="userSpaceOnUse">
<stop stop-color="#082C9A"/>
<stop offset="1" stop-color="#256FF6"/>
</linearGradient>
<clipPath id="clip0">
<rect width="113" height="25" fill="white"/>
</clipPath>
</defs>
</svg>
