<svg width="117" height="153" viewBox="0 0 117 153" fill="none" xmlns="http://www.w3.org/2000/svg">
<path d="M85.8193 11.4376L43.8151 0.913032C40.0094 -0.0266586 36.1097 2.27558 35.123 6.08133L19.9 66.6444H21.0746L85.7723 40.8969L90.9876 20.0827C91.9743 16.277 89.672 12.3773 85.8193 11.4376Z" fill="#3B8DF2"/>
<path d="M79.0066 43.622L82.7184 28.7279C77.5031 25.9558 74.1672 20.5526 73.9793 14.6795L53.0712 9.41724C50.0641 14.6795 44.379 17.8745 38.271 17.6865L26.4779 64.5771L79.0066 43.622Z" fill="white"/>
<path d="M72.7107 46.1592C74.1672 37.3261 68.576 28.6809 59.7429 26.4727C50.393 24.1234 40.9021 29.8086 38.5529 39.1585C36.8145 46.1592 39.5396 53.2069 44.8958 57.2945L72.7107 46.1592Z" fill="#3B8DF2"/>
<path d="M44.7078 43.9509C44.8018 44.8436 45.0367 45.6423 45.4126 46.3941C45.7885 47.1459 46.3053 47.7567 46.9631 48.2735C47.6208 48.7903 48.4196 49.1662 49.3593 49.4011C50.158 49.636 50.9098 49.683 51.5206 49.5421C52.1783 49.4481 52.7422 49.1662 53.306 48.7903C53.8698 48.4144 54.3866 47.8506 54.9035 47.1928C55.4203 46.4881 55.9371 45.6893 56.4539 44.7496C56.5009 44.6557 56.5949 44.5147 56.6419 44.4207C56.6889 44.2798 56.7828 44.1858 56.8298 44.0919L62.8438 45.6423C62.6089 46.3001 62.28 46.9579 61.9042 47.5687C61.5283 48.1795 61.1524 48.6963 60.7765 49.1662C60.4007 49.636 60.0248 50.0589 59.6019 50.3878C59.226 50.7167 58.8971 50.9516 58.6152 51.1395L59.1321 51.6094L64.3474 49.5421C64.8642 48.6494 65.334 47.6627 65.6629 46.629L68.7639 47.4278L69.1398 45.9243L66.0858 45.1255C66.3207 44.1388 66.4147 43.1991 66.4147 42.2595C66.4147 41.3198 66.2267 40.474 65.8978 39.7223C65.5689 38.9705 65.0991 38.2658 64.4883 37.7489C63.8775 37.1851 63.0318 36.7623 61.9981 36.5273C61.0584 36.2924 60.2597 36.2454 59.5079 36.3864C58.7562 36.5273 58.0984 36.8562 57.5346 37.3261C56.9238 37.7959 56.36 38.4067 55.8432 39.1585C55.3263 39.9102 54.8095 40.8029 54.2457 41.7426L53.9638 42.2595L47.9497 40.709C48.1377 40.1451 48.3726 39.6283 48.6545 39.1585C48.9364 38.6886 49.2183 38.2188 49.5472 37.8429C49.8761 37.467 50.158 37.1381 50.4869 36.8562C50.8158 36.5743 51.0507 36.3864 51.3326 36.2454L49.0774 34.0841C48.2786 34.7419 47.5269 35.5407 46.8221 36.4804C46.1173 37.42 45.5535 38.5007 45.1777 39.7693L42.2646 39.0175L41.8887 40.521L44.8018 41.2728C44.6608 42.1655 44.6138 43.1052 44.7078 43.9509ZM59.32 40.568C59.9308 40.0042 60.6826 39.8163 61.5283 40.0512C62.374 40.2861 62.9378 40.7559 63.2197 41.5547C63.5016 42.3534 63.4547 43.3401 63.1727 44.6087L57.4406 43.1052C58.0514 41.9306 58.7092 41.1318 59.32 40.568ZM47.8088 41.6956L53.4939 43.1991C52.8831 44.2798 52.3193 45.0315 51.7555 45.5014C51.1917 45.9712 50.5339 46.1122 49.6882 45.8773C48.8424 45.6423 48.2786 45.2195 47.9028 44.5147C47.6208 43.8569 47.5739 42.9172 47.8088 41.6956Z" fill="url(#paint0_linear)"/>
<path d="M102.875 38.7036L67.7771 13.332C64.5822 11.0297 60.1186 11.7345 57.8164 14.9295L21.1685 65.5788L21.8732 66.0486H91.9272L104.519 48.6644C106.774 45.5164 106.07 41.0059 102.875 38.7036Z" fill="#3B8DF2"/>
<path d="M84.5978 66.0486L93.5718 53.6446C89.7191 49.1341 88.6385 42.8852 90.7058 37.341L73.2275 24.7021C68.4821 28.4609 61.9982 29.3536 56.4071 26.9104L28.0754 66.0486H84.5978Z" fill="white"/>
<path d="M77.8319 66.0487C82.4364 58.3432 80.51 48.2885 73.0865 42.9323C65.2871 37.2941 54.3867 39.0325 48.7015 46.832C44.4729 52.6581 44.379 60.2226 47.8558 66.0487H77.8319V66.0487Z" fill="#3B8DF2"/>
<path d="M51.9902 53.5037C51.7083 54.3964 51.6613 55.2891 51.7083 56.1819C51.8023 57.0746 52.0372 57.8733 52.4601 58.672C52.8829 59.4238 53.5407 60.1286 54.3864 60.7394C55.0912 61.2562 55.796 61.5851 56.4537 61.726C57.1115 61.867 57.8163 61.867 58.5211 61.679C59.2258 61.4911 59.9776 61.2092 60.7293 60.6924C61.4811 60.2225 62.3268 59.6117 63.2195 58.86C63.3135 58.766 63.4544 58.719 63.5484 58.6251C63.6424 58.5311 63.7833 58.4371 63.8773 58.3901L69.1865 62.2898C68.6697 62.8537 68.1059 63.3705 67.4951 63.7934C66.8843 64.2162 66.3205 64.6391 65.7567 64.921C65.1929 65.2499 64.629 65.4848 64.1592 65.6727C63.6424 65.8607 63.2195 65.9546 62.8906 66.0016L63.2195 66.6594H69.1865C70.0793 66.0016 70.878 65.2029 71.6297 64.3102L74.3548 66.3305L75.3415 65.015L72.6634 63.0416C73.2742 62.1489 73.791 61.2562 74.1199 60.3635C74.4488 59.4238 74.6368 58.5311 74.6368 57.6384C74.6368 56.7457 74.4488 55.8999 74.0259 55.1012C73.6031 54.3025 72.9923 53.5507 72.0526 52.8929C71.2539 52.2821 70.4551 51.9063 69.6564 51.7653C68.8577 51.6244 68.1059 51.6713 67.3072 51.9063C66.5554 52.1412 65.7567 52.5171 64.911 53.0339C64.1122 53.5977 63.2195 54.2085 62.3268 54.9603L61.857 55.3831L56.5477 51.4834C56.9706 51.0136 57.3934 50.5907 57.8633 50.2148C58.3331 49.8389 58.803 49.5101 59.2728 49.2751C59.7427 48.9932 60.1655 48.8053 60.5884 48.6643C61.0112 48.5234 61.3401 48.4294 61.622 48.3824L60.2125 45.3284C59.1319 45.6573 58.0982 46.1272 57.0176 46.8319C55.9369 47.4897 54.9502 48.3354 54.1045 49.4161L51.5204 47.4897L50.5337 48.8053L53.1178 50.7317C52.648 51.6713 52.2251 52.611 51.9902 53.5037ZM67.73 55.9C68.5757 55.5711 69.3275 55.712 70.0793 56.2758C70.831 56.8396 71.2069 57.5444 71.1599 58.4371C71.1129 59.3298 70.6901 60.3165 69.8913 61.3971L64.817 57.6384C65.9446 56.7927 66.9313 56.1819 67.73 55.9ZM55.8899 52.5171L60.9173 56.2288C59.8836 57.0746 58.9909 57.5914 58.2861 57.8263C57.5344 58.0612 56.8296 57.9203 56.1249 57.4035C55.3731 56.8396 54.9972 56.1819 54.9033 55.3831C54.8563 54.5374 55.1852 53.5507 55.8899 52.5171Z" fill="white"/>
<path fill-rule="evenodd" clip-rule="evenodd" d="M86.8527 50.3877C86.8527 50.3877 7.44881 62.9796 6.13324 66.3625C4.77069 69.7454 9.18724 70.779 19.4299 70.873C27.2763 70.967 77.6907 70.92 101.23 70.873C107.855 70.873 113.258 76.2292 113.258 82.901V99.3928L113.211 99.3926H84.5037C78.8186 99.3926 74.2141 103.997 74.2141 109.682C74.2141 115.367 78.8186 119.972 84.5037 119.972H113.211L113.258 119.972V140.974C113.258 147.599 107.902 152.955 101.277 152.955H12.5701C5.9453 152.955 0.542077 147.599 0.542077 140.927V70.6851C0.542077 70.6851 -0.820474 61.711 7.11991 59.5027C9.22252 58.918 13.8355 57.5162 19.6329 55.7545L19.6329 55.7545L19.6331 55.7544L19.6332 55.7544C35.7294 50.8632 60.9553 43.1976 66.9312 42.5413C70.737 42.1184 75.2005 42.3534 79.0063 44.2797C83.3758 46.441 86.8527 50.3877 86.8527 50.3877ZM98.5519 66.6444H12.6642C12.6642 66.6444 78.4895 55.8849 87.3226 55.9789C96.1557 56.1199 98.5519 66.6444 98.5519 66.6444ZM113.305 116.824H85.4903C81.5436 116.824 78.3017 113.629 78.3017 109.635C78.3017 105.689 81.4966 102.447 85.4903 102.447H113.305C115.044 102.447 116.453 103.856 116.453 105.595V113.629C116.453 115.414 115.044 116.824 113.305 116.824ZM87.7929 114.099C90.2321 114.099 92.2095 112.121 92.2095 109.682C92.2095 107.243 90.2321 105.266 87.7929 105.266C85.3537 105.266 83.3764 107.243 83.3764 109.682C83.3764 112.121 85.3537 114.099 87.7929 114.099Z" fill="url(#paint1_linear)"/>
<defs>
<linearGradient id="paint0_linear" x1="44.4428" y1="46.6743" x2="66.0202" y2="38.0401" gradientUnits="userSpaceOnUse">
<stop stop-color="#3B8DF2"/>
<stop offset="1" stop-color="#3B43F2"/>
</linearGradient>
<linearGradient id="paint1_linear" x1="56.8346" y1="63.739" x2="56.8346" y2="145.52" gradientUnits="userSpaceOnUse">
<stop stop-color="#3B8DF2"/>
<stop offset="1" stop-color="#3151DC"/>
</linearGradient>
</defs>
</svg>
