<svg width="105" height="20" viewBox="0 0 105 20" fill="none" xmlns="http://www.w3.org/2000/svg">
<path d="M5.32471 0.337911C7.10864 0.337911 8.44338 0.726141 9.32893 1.5026C10.2209 2.27906 10.6669 3.38279 10.6669 4.81379C10.6669 5.45549 10.5738 6.07152 10.3877 6.66189C10.2081 7.25225 9.90967 7.77845 9.49256 8.24048C9.08187 8.7025 8.53322 9.06827 7.8466 9.33779C7.16639 9.6073 6.32576 9.74206 5.32471 9.74206H4.25627V14.4104H0.454185V0.337911H5.32471ZM5.23808 3.40846H4.25627V6.64264H5.00706C5.33433 6.64264 5.63914 6.58809 5.92149 6.479C6.20384 6.3635 6.42843 6.18061 6.59528 5.93035C6.76854 5.67367 6.85517 5.33356 6.85517 4.91004C6.85517 4.46727 6.72362 4.10791 6.46052 3.83198C6.19742 3.54963 5.78994 3.40846 5.23808 3.40846ZM18.0112 3.3122C19.3908 3.3122 20.4689 3.65551 21.2453 4.34213C22.0218 5.02234 22.41 5.99452 22.41 7.25867V14.4104H19.8015L19.0796 12.9666H19.0026C18.6946 13.3516 18.3769 13.6661 18.0497 13.9099C17.7288 14.1473 17.3598 14.3206 16.9427 14.4297C16.5256 14.5452 16.0155 14.603 15.4123 14.603C14.7834 14.603 14.2187 14.4746 13.7182 14.2179C13.2176 13.9613 12.823 13.573 12.5342 13.0532C12.2455 12.5335 12.1011 11.8757 12.1011 11.08C12.1011 9.91211 12.5054 9.04581 13.3139 8.48112C14.1224 7.91642 15.2936 7.59877 16.8272 7.52819L18.6465 7.47043V7.31643C18.6465 6.82873 18.5245 6.48221 18.2807 6.27687C18.0432 6.07152 17.7224 5.96885 17.3181 5.96885C16.8882 5.96885 16.4069 6.04585 15.8743 6.19986C15.3481 6.34745 14.8187 6.53997 14.2861 6.7774L13.1984 4.29401C13.8273 3.97316 14.5396 3.72931 15.3353 3.56247C16.131 3.39562 17.0229 3.3122 18.0112 3.3122ZM18.6657 9.53992L17.7994 9.57843C17.1064 9.60409 16.6187 9.72602 16.3363 9.9442C16.0604 10.156 15.9224 10.4608 15.9224 10.8586C15.9224 11.2308 16.0219 11.5067 16.2208 11.6864C16.4197 11.8597 16.6828 11.9463 17.0101 11.9463C17.4657 11.9463 17.8539 11.8019 18.1748 11.5132C18.5021 11.2244 18.6657 10.849 18.6657 10.387V9.53992ZM23.6517 3.50471H27.6175L29.4656 9.76131C29.4912 9.85115 29.5169 9.96345 29.5426 10.0982C29.5682 10.2265 29.5907 10.3645 29.6099 10.5121C29.6292 10.6597 29.642 10.8041 29.6484 10.9453H29.7254C29.7575 10.6822 29.7928 10.4544 29.8313 10.2618C29.8762 10.0629 29.918 9.90249 29.9565 9.78056L31.8527 3.50471H35.6933L31.381 15.1035C31.0474 15.989 30.6591 16.7302 30.2163 17.327C29.78 17.9302 29.2377 18.3826 28.5896 18.6842C27.9479 18.9922 27.149 19.1462 26.1929 19.1462C25.8464 19.1462 25.548 19.127 25.2977 19.0885C25.0538 19.0564 24.8389 19.0211 24.6528 18.9826V16.0275C24.794 16.0532 24.9672 16.0789 25.1726 16.1045C25.3779 16.1302 25.5929 16.143 25.8175 16.143C26.2346 16.143 26.5715 16.0596 26.8282 15.8928C27.0913 15.7259 27.3062 15.5045 27.4731 15.2286C27.6399 14.9591 27.7843 14.6671 27.9062 14.3527L27.9447 14.2564L23.6517 3.50471ZM49.169 7.07579C49.169 8.71213 48.8642 10.0725 48.2546 11.157C47.645 12.2415 46.7851 13.0565 45.675 13.6019C44.5712 14.1409 43.2718 14.4104 41.7766 14.4104H37.2237V0.337911H42.0943C43.6087 0.337911 44.8921 0.5978 45.9445 1.11758C46.9969 1.63736 47.7958 2.39778 48.3412 3.39883C48.8931 4.39989 49.169 5.62554 49.169 7.07579ZM45.2226 7.21054C45.2226 6.35708 45.1071 5.65121 44.876 5.09293C44.6514 4.52823 44.3113 4.10791 43.8557 3.83198C43.4001 3.54963 42.8258 3.40846 42.1328 3.40846H41.0258V11.2918H41.8729C43.0279 11.2918 43.875 10.9581 44.414 10.2907C44.953 9.61693 45.2226 8.5902 45.2226 7.21054ZM56.8021 3.3122C58.1817 3.3122 59.2598 3.65551 60.0363 4.34213C60.8127 5.02234 61.201 5.99452 61.201 7.25867V14.4104H58.5924L57.8705 12.9666H57.7935C57.4855 13.3516 57.1679 13.6661 56.8406 13.9099C56.5197 14.1473 56.1508 14.3206 55.7336 14.4297C55.3165 14.5452 54.8064 14.603 54.2032 14.603C53.5743 14.603 53.0096 14.4746 52.5091 14.2179C52.0086 13.9613 51.6139 13.573 51.3251 13.0532C51.0364 12.5335 50.892 11.8757 50.892 11.08C50.892 9.91211 51.2963 9.04581 52.1048 8.48112C52.9134 7.91642 54.0845 7.59877 55.6181 7.52819L57.4374 7.47043V7.31643C57.4374 6.82873 57.3154 6.48221 57.0716 6.27687C56.8342 6.07152 56.5133 5.96885 56.109 5.96885C55.6791 5.96885 55.1978 6.04585 54.6652 6.19986C54.139 6.34745 53.6096 6.53997 53.077 6.7774L51.9893 4.29401C52.6182 3.97316 53.3305 3.72931 54.1262 3.56247C54.9219 3.39562 55.8139 3.3122 56.8021 3.3122ZM57.4566 9.53992L56.5903 9.57843C55.8973 9.60409 55.4096 9.72602 55.1272 9.9442C54.8513 10.156 54.7133 10.4608 54.7133 10.8586C54.7133 11.2308 54.8128 11.5067 55.0117 11.6864C55.2107 11.8597 55.4738 11.9463 55.801 11.9463C56.2566 11.9463 56.6449 11.8019 56.9657 11.5132C57.293 11.2244 57.4566 10.849 57.4566 10.387V9.53992ZM62.4426 3.50471H66.4084L68.2565 9.76131C68.2821 9.85115 68.3078 9.96345 68.3335 10.0982C68.3591 10.2265 68.3816 10.3645 68.4009 10.5121C68.4201 10.6597 68.4329 10.8041 68.4394 10.9453H68.5164C68.5484 10.6822 68.5837 10.4544 68.6222 10.2618C68.6672 10.0629 68.7089 9.90249 68.7474 9.78056L70.6436 3.50471H74.4842L70.172 15.1035C69.8383 15.989 69.45 16.7302 69.0073 17.327C68.5709 17.9302 68.0287 18.3826 67.3805 18.6842C66.7388 18.9922 65.9399 19.1462 64.9838 19.1462C64.6373 19.1462 64.3389 19.127 64.0886 19.0885C63.8448 19.0564 63.6298 19.0211 63.4437 18.9826V16.0275C63.5849 16.0532 63.7581 16.0789 63.9635 16.1045C64.1688 16.1302 64.3838 16.143 64.6084 16.143C65.0255 16.143 65.3624 16.0596 65.6191 15.8928C65.8822 15.7259 66.0971 15.5045 66.264 15.2286C66.4308 14.9591 66.5752 14.6671 66.6971 14.3527L66.7356 14.2564L62.4426 3.50471ZM84.2252 10.7816C84.2252 11.6222 84.0135 12.3281 83.59 12.8992C83.1664 13.4639 82.5921 13.8907 81.867 14.1794C81.1419 14.4618 80.3205 14.603 79.4028 14.603C78.8317 14.603 78.3119 14.5741 77.8435 14.5163C77.3815 14.465 76.9612 14.3944 76.5826 14.3046C76.2104 14.2147 75.8703 14.1121 75.5623 13.9965V13.0051C76.0628 13.1976 76.6403 13.3677 77.2949 13.5153C77.9558 13.6564 78.6745 13.727 79.451 13.727C80.1825 13.727 80.8306 13.6212 81.3953 13.4094C81.9664 13.1976 82.4156 12.8768 82.7429 12.4468C83.0702 12.0169 83.2338 11.4747 83.2338 10.8201C83.2338 10.2426 83.0958 9.77094 82.8199 9.40517C82.5504 9.03298 82.1429 8.71534 81.5975 8.45224C81.052 8.18272 80.3654 7.91 79.5376 7.63407C78.9601 7.43514 78.4339 7.22659 77.959 7.00841C77.4906 6.78381 77.0895 6.52713 76.7558 6.23836C76.4221 5.94318 76.1655 5.59025 75.9858 5.17956C75.8125 4.76245 75.7259 4.27155 75.7259 3.70685C75.7259 2.93039 75.9216 2.27906 76.313 1.75286C76.7109 1.22025 77.2467 0.819187 77.9205 0.549672C78.6007 0.27374 79.3643 0.135774 80.2114 0.135774C80.8852 0.135774 81.5237 0.199945 82.1269 0.328285C82.7365 0.450209 83.3236 0.636302 83.8883 0.886566L83.5418 1.74324C82.9771 1.49939 82.4124 1.31972 81.8477 1.20421C81.283 1.0887 80.7248 1.03095 80.1729 1.03095C79.5119 1.03095 78.9216 1.13041 78.4018 1.32934C77.8884 1.52185 77.4809 1.81383 77.1793 2.20526C76.8777 2.5967 76.7269 3.09081 76.7269 3.6876C76.7269 4.30363 76.8649 4.80095 77.1408 5.17956C77.4232 5.55816 77.821 5.87259 78.3344 6.12286C78.8542 6.37312 79.467 6.61697 80.1729 6.8544C81.0071 7.13675 81.7258 7.43514 82.329 7.74957C82.9322 8.05759 83.3974 8.44903 83.7247 8.92389C84.0584 9.39875 84.2252 10.018 84.2252 10.7816ZM90.6455 3.7646C91.7941 3.7646 92.654 4.05337 93.2251 4.6309C93.7962 5.20843 94.0818 6.12928 94.0818 7.39343V14.4104H93.331L93.1577 12.5816H93.1C92.8754 12.973 92.6027 13.3228 92.2818 13.6308C91.961 13.9324 91.5663 14.1698 91.0979 14.3431C90.6358 14.5163 90.0711 14.603 89.4038 14.603C88.73 14.603 88.1525 14.4907 87.6712 14.2661C87.1963 14.0415 86.8273 13.7142 86.5642 13.2843C86.3076 12.8543 86.1792 12.3313 86.1792 11.7153C86.1792 10.6757 86.6092 9.88644 87.469 9.34741C88.3289 8.80197 89.5642 8.49395 91.1749 8.42336L93.1192 8.32711V7.56669C93.1192 6.49505 92.9075 5.73142 92.4839 5.27581C92.0604 4.8202 91.4348 4.5924 90.607 4.5924C90.0679 4.5924 89.5482 4.66299 89.0476 4.80416C88.5535 4.93892 88.0498 5.13464 87.5364 5.39132L87.2284 4.58277C87.7289 4.34534 88.2647 4.14962 88.8359 3.99561C89.4134 3.84161 90.0166 3.7646 90.6455 3.7646ZM93.1096 9.08752L91.2808 9.16453C89.9524 9.2287 88.9417 9.46613 88.2487 9.87682C87.5557 10.2875 87.2091 10.9035 87.2091 11.7249C87.2091 12.3859 87.4145 12.8928 87.8252 13.2458C88.2423 13.5987 88.8198 13.7752 89.5578 13.7752C90.7064 13.7752 91.5824 13.4479 92.1856 12.7934C92.7952 12.1388 93.1032 11.2469 93.1096 10.1175V9.08752ZM95.7181 3.94749H96.7481L99.2892 10.5891C99.4432 10.9805 99.578 11.3431 99.6935 11.6768C99.8154 12.0041 99.9213 12.3057 100.011 12.5816C100.101 12.8511 100.175 13.0982 100.233 13.3228H100.29C100.387 13.0276 100.515 12.649 100.675 12.1869C100.836 11.7185 101.019 11.1987 101.224 10.6276L103.736 3.94749H104.776L100.001 16.3741C99.7705 16.9773 99.517 17.4874 99.2411 17.9045C98.9651 18.328 98.6411 18.6457 98.2689 18.8574C97.8967 19.0756 97.4475 19.1847 96.9213 19.1847C96.6839 19.1847 96.4689 19.1655 96.2764 19.127C96.0839 19.0949 95.8978 19.05 95.7181 18.9922V18.1548C95.885 18.2061 96.055 18.2478 96.2283 18.2799C96.408 18.3184 96.6037 18.3377 96.8154 18.3377C97.1812 18.3377 97.4956 18.2607 97.7587 18.1067C98.0283 17.9591 98.2689 17.728 98.4807 17.4136C98.6924 17.0992 98.8913 16.6981 99.0774 16.2104L99.7897 14.3527L95.7181 3.94749Z" fill="#084C8D"/>
</svg>
