<svg width="189" height="32" viewBox="0 0 189 32" fill="none" xmlns="http://www.w3.org/2000/svg">
<path fill-rule="evenodd" clip-rule="evenodd" d="M17.3633 0.186196L17.3902 0.179218C18.1538 -0.0110271 19.4032 -0.254754 20.3276 0.657084C20.7254 1.04954 20.9127 1.52603 21.0202 1.86597C21.1272 2.20454 21.2102 2.59966 21.2862 2.96183L21.2917 2.98812C21.298 3.0177 21.3033 3.04745 21.3077 3.07735L21.6258 5.22811H20.1024L19.8169 3.29781C19.4874 1.72857 19.3735 1.23809 17.7546 1.64147L3.62222 5.44129C3.15322 5.57783 2.78166 5.70926 2.48957 5.84523C2.40059 5.87268 2.33594 5.95557 2.33594 6.05356C2.33594 6.17395 2.43353 6.27155 2.55392 6.27155C2.56993 6.27155 2.58553 6.26982 2.60056 6.26655L20.256 6.26654H21.7793L23.8878 6.26655C25.8083 6.26655 26.7685 6.26655 27.4994 6.64621C28.1153 6.96615 28.6175 7.46834 28.9374 8.08426C29.3171 8.81514 29.3171 9.77537 29.3171 11.6958V21.2964C29.3171 23.2168 29.3171 24.1771 28.9374 24.908C28.6175 25.5239 28.1153 26.0261 27.4994 26.346C26.7685 26.7257 25.8083 26.7257 23.8878 26.7257H5.43373C3.51328 26.7257 2.55306 26.7257 1.82217 26.346C1.20626 26.0261 0.704069 25.5239 0.384128 24.908C0.00446215 24.1771 0.00446216 23.2168 0.00446216 21.2964V13.4488C0.00150607 13.3943 0 13.3391 0 13.2833L1.37091e-05 7.17139C1.37091e-05 6.84035 0.0427334 6.45362 0.204908 6.05719C0.372278 5.64806 0.632907 5.31129 0.955118 5.03773C1.53587 4.54466 2.33895 4.24537 3.20098 3.9944C3.21094 3.9915 3.22092 3.98871 3.23093 3.98602L17.3633 0.186196ZM41.8636 7.59017C41.7808 7.59017 41.7136 7.65732 41.7136 7.74017V26.3514C41.7136 26.4342 41.7808 26.5014 41.8636 26.5014H45.2918C45.3747 26.5014 45.4418 26.4342 45.4418 26.3514V20.4377C45.4418 20.3548 45.509 20.2877 45.5918 20.2877H48.7648C50.5659 20.2877 52.0968 19.6753 53.3575 18.4506C54.6003 17.2259 55.2216 15.722 55.2216 13.9389C55.2216 12.1559 54.6003 10.652 53.3575 9.42725C52.0968 8.20253 50.5659 7.59017 48.7648 7.59017H41.8636ZM45.5918 16.8026C45.509 16.8026 45.4418 16.7355 45.4418 16.6526V11.2252C45.4418 11.1424 45.509 11.0752 45.5918 11.0752H48.7648C49.5573 11.0752 50.2147 11.3454 50.737 11.8857C51.2593 12.426 51.5204 13.1104 51.5204 13.9389C51.5204 14.7494 51.2593 15.4338 50.737 15.9921C50.2147 16.5325 49.5573 16.8026 48.7648 16.8026H45.5918ZM68.1448 14.2613C68.2416 14.3652 68.4251 14.2994 68.4251 14.1574V13.1434C68.4251 13.0605 68.4922 12.9934 68.5751 12.9934H71.7601C71.843 12.9934 71.9101 13.0605 71.9101 13.1434V26.3514C71.9101 26.4342 71.843 26.5014 71.7601 26.5014H68.5751C68.4922 26.5014 68.4251 26.4342 68.4251 26.3514V25.3373C68.4251 25.1953 68.2416 25.1295 68.1448 25.2335C67.1236 26.3309 65.7492 26.8796 64.0215 26.8796C62.2204 26.8796 60.6715 26.1952 59.3747 24.8264C58.096 23.4395 57.4566 21.7465 57.4566 19.7474C57.4566 17.7662 58.096 16.0822 59.3747 14.6954C60.6715 13.3086 62.2204 12.6151 64.0215 12.6151C65.7492 12.6151 67.1236 13.1638 68.1448 14.2613ZM61.9953 22.503C62.6977 23.2054 63.5892 23.5566 64.6698 23.5566C65.7505 23.5566 66.642 23.2054 67.3444 22.503C68.0648 21.7826 68.4251 20.864 68.4251 19.7474C68.4251 18.6307 68.0648 17.7212 67.3444 17.0187C66.642 16.2983 65.7505 15.9381 64.6698 15.9381C63.5892 15.9381 62.6977 16.2983 61.9953 17.0187C61.2928 17.7212 60.9416 18.6307 60.9416 19.7474C60.9416 20.864 61.2928 21.7826 61.9953 22.503ZM81.5504 21.6733C81.5063 21.807 81.3189 21.8117 81.2681 21.6804L77.9441 13.0892C77.9218 13.0315 77.8662 12.9934 77.8042 12.9934H74.3242C74.2168 12.9934 74.1442 13.103 74.1861 13.2019L79.6134 26.0155C79.628 26.05 79.6292 26.0888 79.6164 26.124C79.2941 27.0142 78.8594 27.6623 78.3123 28.0683C77.7853 28.4593 77.0979 28.6577 76.25 28.6636C76.166 28.6642 76.097 28.7316 76.097 28.8156V31.7622C76.097 31.842 76.1596 31.908 76.2393 31.9109C77.9052 31.9724 79.2986 31.574 80.4195 30.7159C81.5902 29.8513 82.5268 28.4465 83.2292 26.5014L88.0728 13.1947C88.1084 13.0968 88.036 12.9934 87.9319 12.9934H84.5263C84.4616 12.9934 84.4042 13.0349 84.3839 13.0963L81.5504 21.6733ZM90.639 7.74017C90.639 7.65732 90.7061 7.59017 90.789 7.59017H98.1494C100.743 7.59017 102.904 8.4997 104.633 10.3188C106.38 12.1198 107.254 14.3622 107.254 17.0458C107.254 19.7294 106.38 21.9717 104.633 23.7727C102.904 25.5918 100.743 26.5014 98.1494 26.5014H90.789C90.7061 26.5014 90.639 26.4342 90.639 26.3514V7.74017ZM94.3672 22.7853C94.3672 22.8681 94.4343 22.9353 94.5172 22.9353H98.1494C99.7884 22.9353 101.121 22.3949 102.148 21.3143C103.174 20.1976 103.688 18.7748 103.688 17.0458C103.688 15.2987 103.174 13.8849 102.148 12.8043C101.121 11.7056 99.7884 11.1563 98.1494 11.1563H94.5172C94.4343 11.1563 94.3672 11.2234 94.3672 11.3063V22.7853ZM120.675 14.1574C120.675 14.2994 120.491 14.3652 120.394 14.2613C119.373 13.1638 117.999 12.6151 116.271 12.6151C114.47 12.6151 112.921 13.3086 111.624 14.6954C110.346 16.0822 109.706 17.7662 109.706 19.7474C109.706 21.7465 110.346 23.4395 111.624 24.8264C112.921 26.1952 114.47 26.8796 116.271 26.8796C117.999 26.8796 119.373 26.3309 120.394 25.2335C120.491 25.1295 120.675 25.1953 120.675 25.3373V26.3514C120.675 26.4342 120.742 26.5014 120.825 26.5014H124.01C124.093 26.5014 124.16 26.4342 124.16 26.3514V13.1434C124.16 13.0605 124.093 12.9934 124.01 12.9934H120.825C120.742 12.9934 120.675 13.0605 120.675 13.1434V14.1574ZM116.919 23.5566C115.839 23.5566 114.947 23.2054 114.245 22.503C113.542 21.7826 113.191 20.864 113.191 19.7474C113.191 18.6307 113.542 17.7212 114.245 17.0187C114.947 16.2983 115.839 15.9381 116.919 15.9381C118 15.9381 118.892 16.2983 119.594 17.0187C120.314 17.7212 120.675 18.6307 120.675 19.7474C120.675 20.864 120.314 21.7826 119.594 22.503C118.892 23.2054 118 23.5566 116.919 23.5566ZM133.518 21.6804C133.568 21.8117 133.756 21.807 133.8 21.6733L136.633 13.0963C136.654 13.0349 136.711 12.9934 136.776 12.9934H140.181C140.286 12.9934 140.358 13.0968 140.322 13.1947L135.479 26.5014C134.776 28.4465 133.84 29.8513 132.669 30.7159C131.548 31.574 130.155 31.9724 128.489 31.9109C128.409 31.908 128.347 31.842 128.347 31.7622V28.8156C128.347 28.7316 128.416 28.6642 128.5 28.6636C129.347 28.6577 130.035 28.4593 130.562 28.0683C131.109 27.6623 131.544 27.0142 131.866 26.124C131.879 26.0888 131.878 26.05 131.863 26.0155L126.436 13.2019C126.394 13.103 126.466 12.9934 126.574 12.9934H130.054C130.116 12.9934 130.171 13.0315 130.194 13.0892L133.518 21.6804ZM144.726 25.6369C145.986 26.4473 147.499 26.8526 149.264 26.8526C151.191 26.8526 152.767 26.3663 153.992 25.3937C155.199 24.4031 155.802 23.0793 155.802 21.4224C155.802 20.1616 155.487 19.216 154.857 18.5857C154.37 18.0273 153.884 17.6131 153.398 17.3429C152.713 16.9647 152.083 16.6675 151.507 16.4514C151.453 16.4334 151.119 16.3073 150.507 16.0732L149.399 15.722C147.959 15.2717 146.932 14.8214 146.32 14.3712C145.725 13.9389 145.428 13.3086 145.428 12.4801C145.428 11.6155 145.743 10.9311 146.374 10.4268C147.004 9.92255 147.832 9.6704 148.859 9.6704C150.856 9.6704 152.266 10.5907 153.087 12.4313C153.124 12.5139 153.224 12.5481 153.302 12.5029L155.146 11.4394C155.212 11.4013 155.239 11.3194 155.207 11.2499C154.649 10.0291 153.83 9.06131 152.749 8.34661C151.633 7.60818 150.336 7.23896 148.859 7.23896C147.202 7.23896 145.797 7.72525 144.645 8.69782C143.492 9.63438 142.916 10.9311 142.916 12.5881C142.916 13.8309 143.312 14.8845 144.104 15.749C144.392 16.0732 144.852 16.3974 145.482 16.7216C146.13 17.0278 146.653 17.2619 147.049 17.424L148.859 18.0183C150.534 18.5587 151.678 19.0359 152.29 19.4502C152.974 19.9185 153.317 20.5939 153.317 21.4764C153.317 22.3769 152.965 23.0883 152.263 23.6107C151.579 24.133 150.597 24.3941 149.318 24.3941C146.74 24.3941 145.076 23.3096 144.325 21.1406C144.294 21.05 144.188 21.0083 144.105 21.0561L142.213 22.144C142.15 22.1799 142.122 22.2551 142.147 22.3228C142.657 23.7259 143.516 24.8306 144.726 25.6369ZM170.099 14.9001C170.19 15.0193 170.391 14.9579 170.391 14.8084V13.1434C170.391 13.0605 170.458 12.9934 170.541 12.9934H172.591C172.674 12.9934 172.741 13.0605 172.741 13.1434V26.3514C172.741 26.4342 172.674 26.5014 172.591 26.5014H170.541C170.458 26.5014 170.391 26.4342 170.391 26.3514V24.6863C170.391 24.5368 170.19 24.4754 170.099 24.5946C168.958 26.0999 167.354 26.8526 165.285 26.8526C163.376 26.8526 161.764 26.1682 160.449 24.7994C159.116 23.4125 158.45 21.7285 158.45 19.7474C158.45 17.7842 159.116 16.1092 160.449 14.7224C161.782 13.3356 163.394 12.6422 165.285 12.6422C167.354 12.6422 168.958 13.3948 170.099 14.9001ZM165.582 24.5832C166.951 24.5832 168.095 24.124 169.013 23.2054C169.932 22.2508 170.391 21.0982 170.391 19.7474C170.391 18.3786 169.932 17.2349 169.013 16.3163C168.095 15.3798 166.951 14.9115 165.582 14.9115C164.231 14.9115 163.097 15.3798 162.178 16.3163C161.26 17.2349 160.8 18.3786 160.8 19.7474C160.8 21.0982 161.26 22.2508 162.178 23.2054C163.097 24.124 164.231 24.5832 165.582 24.5832ZM182.51 23.2317C182.464 23.3588 182.286 23.3639 182.232 23.2397L177.828 13.0837C177.804 13.0289 177.75 12.9934 177.69 12.9934H175.505C175.397 12.9934 175.324 13.1044 175.368 13.2035L181.138 26.3847C181.155 26.4245 181.155 26.4699 181.136 26.5091L180.922 26.9606C180.173 28.8594 179.011 29.7809 177.437 29.7253C177.349 29.7222 177.275 29.7908 177.275 29.8781V31.7644C177.275 31.8433 177.336 31.9089 177.415 31.9124C178.691 31.9687 179.824 31.6059 180.814 30.8239C181.859 30.0315 182.678 28.8698 183.273 27.3389L188.706 13.1972C188.743 13.0989 188.671 12.9934 188.566 12.9934H186.376C186.313 12.9934 186.257 13.0326 186.235 13.0916L182.51 23.2317Z" fill="url(#paint0_linear_766_1932)"/>
<defs>
<linearGradient id="paint0_linear_766_1932" x1="88.5" y1="-8.5" x2="85.5602" y2="29.6546" gradientUnits="userSpaceOnUse">
<stop stop-color="#1FA0FD"/>
<stop offset="0.936026" stop-color="#0E62FB"/>
<stop offset="1" stop-color="#0B62FF"/>
</linearGradient>
</defs>
</svg>
