<svg width="70" height="70" viewBox="0 0 70 70" fill="none" xmlns="http://www.w3.org/2000/svg">
<path d="M23.0767 42.173V45.6246C23.0767 46.6025 23.8695 47.3953 24.8474 47.3953H33.111C34.0889 47.3953 34.8818 46.6025 34.8818 45.6246V42.173C31.0943 43.6262 26.872 43.6291 23.0767 42.173Z" fill="#6495FB"/>
<path d="M28.9789 39.7218C36.1392 39.7218 41.9645 33.8965 41.9645 26.7362V22.5416C40.4544 23.6944 38.5704 24.3811 36.5283 24.3811H27.1627C25.9857 24.3811 24.8968 23.9963 24.0153 23.3459C20.7913 24.572 18.0913 24.3551 17.7639 24.3811C17.1432 24.3811 16.5474 24.2731 15.9932 24.0765V26.7362C15.9933 33.8965 21.8186 39.7218 28.9789 39.7218ZM23.8397 30.1399C24.5677 29.4872 25.6872 29.5477 26.3402 30.276C27.7551 31.8537 30.2076 31.8485 31.6177 30.276C32.2705 29.548 33.3901 29.4868 34.1183 30.1399C34.8464 30.7929 34.9073 31.9124 34.2544 32.6405C31.4308 35.7893 26.5177 35.7788 23.7036 32.6405C23.0506 31.9124 23.1115 30.7928 23.8397 30.1399Z" fill="#6495FB"/>
<path d="M17.7644 20.8398C18.0673 20.7974 21.6945 21.2007 25.3923 18.6495V19.069C25.3923 20.0469 26.1851 20.8398 27.1631 20.8398H36.5286C39.5262 20.8398 41.9649 18.4011 41.9649 15.4035C41.9649 9.54512 37.1987 4.77893 31.3403 4.77893H26.6136C20.7577 4.77893 15.9937 9.543 15.9937 15.399V19.069C15.9937 20.0469 16.7865 20.8398 17.7644 20.8398Z" fill="#6495FB"/>
<path d="M32.9579 50.9372H24.8475C21.9183 50.9372 19.5352 48.5541 19.5352 45.6249V40.6608L14.0976 41.9766C8.61086 43.3043 4.77881 48.1742 4.77881 53.8194V63.4506C4.77881 64.4286 5.57164 65.2214 6.54957 65.2214H37.6629C33.0775 61.7284 31.7413 55.6548 32.9579 50.9372Z" fill="#6495FB"/>
<path d="M56.0596 38.5307C56.9929 38.4809 57.7351 37.7105 57.7351 36.7648C57.7351 35.7868 56.9423 34.994 55.9643 34.994H54.9445C55.3344 33.8632 56.1548 33.4071 56.3286 33.3216C57.3584 32.919 58.0958 31.0223 57.1563 29.3948C56.5801 28.3968 55.548 27.8009 54.3956 27.8009H46.9085C45.7561 27.8009 44.7241 28.3968 44.1479 29.3948C43.2084 31.022 43.9451 32.9188 44.9754 33.3216C45.149 33.407 45.9698 33.8632 46.3597 34.994H45.3397C44.3618 34.994 43.569 35.7868 43.569 36.7648C43.569 37.7101 44.3105 38.4803 45.2433 38.5307C42.3992 42.221 36.083 48.3607 36.083 54.0811C36.083 60.5002 40.0213 65.221 50.652 65.221C61.286 65.221 65.2211 60.4975 65.2211 54.0811C65.2211 48.3793 58.9088 42.244 56.0596 38.5307Z" fill="white"/>
</svg>
