<svg xmlns="http://www.w3.org/2000/svg" viewBox="0 0 179.34 286.22"><defs><style>.cls-1{fill:#084c8d;}.cls-2{fill:#5cbb16;}</style></defs><title>personal_money_vertical</title><g id="Layer_2" data-name="Layer 2"><g id="Layer_1-2" data-name="Layer 1"><path class="cls-1" d="M0,159.6a57.77,57.77,0,0,1,10.2-.76c4.88,0,8.46,1,10.79,3a10.33,10.33,0,0,1,3.58,8.08,11.08,11.08,0,0,1-3.15,8.3c-2.66,2.66-6.83,3.91-11.55,3.91a18.75,18.75,0,0,1-3.25-.22v13.78H0Zm6.62,17a13.47,13.47,0,0,0,3.25.27c5,0,8-2.44,8-6.73,0-4.07-2.82-6.24-7.43-6.24a18.39,18.39,0,0,0-3.85.33Z"/><path class="cls-1" d="M31.25,184.34c.16,4.77,3.91,6.83,8.14,6.83A19.87,19.87,0,0,0,46.71,190l1,4.61a24.76,24.76,0,0,1-9.22,1.68c-8.57,0-13.62-5.32-13.62-13.4,0-7.32,4.45-14.21,12.91-14.21,8.63,0,11.39,7.05,11.39,12.86a16.42,16.42,0,0,1-.22,2.82Zm11.61-4.67c.05-2.44-1-6.46-5.48-6.46-4.12,0-5.86,3.74-6.13,6.46Z"/><path class="cls-1" d="M52.35,177.77c0-3.58-.05-6.13-.22-8.52h5.8l.22,5h.22a7.88,7.88,0,0,1,7.21-5.64,7,7,0,0,1,1.57.16v6.29a9.27,9.27,0,0,0-2-.22,5.88,5.88,0,0,0-6,5A11.37,11.37,0,0,0,59,182v13.67H52.35Z"/><path class="cls-1" d="M69.16,189.54a14.87,14.87,0,0,0,6.78,1.9c2.93,0,4.23-1.19,4.23-2.93s-1.08-2.71-4.34-3.85c-5.15-1.79-7.32-4.61-7.27-7.7,0-4.67,3.85-8.3,10-8.3a15.51,15.51,0,0,1,7,1.57L84.24,175a11.87,11.87,0,0,0-5.59-1.52c-2.39,0-3.69,1.14-3.69,2.77s1.25,2.5,4.61,3.69c4.77,1.74,7,4.18,7.05,8.08,0,4.77-3.74,8.3-10.74,8.3a17,17,0,0,1-8-1.9Z"/><path class="cls-1" d="M115.06,182.22c0,9.71-6.83,14-13.56,14-7.49,0-13.24-5.15-13.24-13.62,0-8.68,5.7-14,13.67-14S115.06,174.19,115.06,182.22Zm-19.91.27c0,5.1,2.5,9,6.56,9,3.8,0,6.46-3.74,6.46-9.06,0-4.12-1.84-8.84-6.4-8.84C97,173.54,95.15,178.1,95.15,182.49Z"/><path class="cls-1" d="M118.37,177.12c0-3-.05-5.59-.22-7.87H124l.33,4h.16a9.52,9.52,0,0,1,8.41-4.56c4.61,0,9.38,3,9.38,11.34v15.68h-6.67V180.76c0-3.8-1.41-6.67-5-6.67a5.6,5.6,0,0,0-5.21,3.91,6.78,6.78,0,0,0-.27,2.17v15.51h-6.73Z"/><path class="cls-1" d="M167.73,189.33a42.35,42.35,0,0,0,.38,6.35h-6l-.43-2.93h-.16a9.81,9.81,0,0,1-7.81,3.53c-5.32,0-8.3-3.85-8.3-7.87,0-6.67,5.91-10,15.68-10V178c0-1.74-.71-4.61-5.37-4.61a14,14,0,0,0-7.11,2l-1.3-4.34a19,19,0,0,1,9.55-2.33c8.46,0,10.9,5.37,10.9,11.12Zm-6.51-6.56c-4.72-.11-9.22.92-9.22,4.94a3.5,3.5,0,0,0,3.8,3.8,5.4,5.4,0,0,0,5.21-3.63,4.78,4.78,0,0,0,.22-1.46Z"/><path class="cls-1" d="M172.61,157.16h6.73v38.51h-6.73Z"/><path d="M47.76,225.76c-.22-4.72-.49-10.42-.43-15.41h-.16c-1.19,4.5-2.71,9.44-4.34,14l-5.32,15.84H32.36l-4.88-15.62c-1.41-4.67-2.71-9.66-3.69-14.27h-.11C23.52,215.18,23.3,221,23,226l-.81,14.7H16l2.44-36.56H27.2L32,218.81c1.3,4.29,2.44,8.63,3.36,12.69h.16c1-4,2.22-8.46,3.63-12.75l5-14.65h8.68L55,240.67H48.47Z"/><path d="M84.7,227.22c0,9.71-6.83,14-13.56,14-7.49,0-13.24-5.15-13.24-13.62,0-8.68,5.7-14,13.67-14S84.7,219.19,84.7,227.22Zm-19.91.27c0,5.1,2.5,9,6.56,9,3.8,0,6.46-3.74,6.46-9.06,0-4.12-1.84-8.84-6.4-8.84C66.7,218.54,64.8,223.1,64.8,227.49Z"/><path d="M88,222.12c0-3-.05-5.59-.22-7.87h5.86l.33,4h.16a9.52,9.52,0,0,1,8.41-4.56c4.61,0,9.38,3,9.38,11.34v15.68h-6.67V225.76c0-3.8-1.41-6.67-5-6.67A5.6,5.6,0,0,0,95,223a6.78,6.78,0,0,0-.27,2.17v15.51H88Z"/><path d="M121.59,229.34c.16,4.77,3.91,6.83,8.14,6.83a19.87,19.87,0,0,0,7.32-1.19l1,4.61a24.76,24.76,0,0,1-9.22,1.68c-8.57,0-13.62-5.32-13.62-13.4,0-7.32,4.45-14.21,12.91-14.21,8.63,0,11.39,7.05,11.39,12.86a16.42,16.42,0,0,1-.22,2.82Zm11.61-4.67c.05-2.44-1-6.46-5.48-6.46-4.12,0-5.86,3.74-6.13,6.46Z"/><path d="M146.71,214.26l4.77,14.16c.54,1.63,1.08,3.63,1.46,5.15h.16c.43-1.52.92-3.47,1.41-5.21l4.12-14.1h7.16l-6.62,18c-3.63,9.87-6.08,14.27-9.22,17a13.43,13.43,0,0,1-7,3.42L141.45,247a11.41,11.41,0,0,0,3.91-1.84A11.65,11.65,0,0,0,149,241a2.68,2.68,0,0,0,.43-1.19,2.83,2.83,0,0,0-.38-1.3l-9.66-24.25Z"/><path d="M17.9,279.92a16.73,16.73,0,0,0,8.46,2.39c4.83,0,7.65-2.55,7.65-6.24,0-3.42-2-5.37-6.89-7.27-6-2.12-9.66-5.21-9.66-10.36,0-5.7,4.72-9.93,11.83-9.93a16.6,16.6,0,0,1,8.08,1.79l-1.3,3.85a14.56,14.56,0,0,0-6.94-1.74c-5,0-6.89,3-6.89,5.48,0,3.42,2.22,5.1,7.27,7.05,6.18,2.39,9.33,5.37,9.33,10.74,0,5.64-4.18,10.52-12.8,10.52-3.53,0-7.38-1-9.33-2.33Z"/><path d="M45.95,273.41c.11,6.46,4.23,9.11,9,9.11a17.26,17.26,0,0,0,7.27-1.36l.81,3.42a21.26,21.26,0,0,1-8.73,1.63c-8.08,0-12.91-5.32-12.91-13.24s4.67-14.16,12.31-14.16c8.57,0,10.85,7.54,10.85,12.37a18.15,18.15,0,0,1-.16,2.22Zm14-3.42c.05-3-1.25-7.76-6.62-7.76-4.83,0-6.94,4.45-7.32,7.76Z"/><path d="M68.3,267.61c0-3.09-.05-5.75-.22-8.19h4.18l.16,5.15h.22c1.19-3.53,4.07-5.75,7.27-5.75a5.22,5.22,0,0,1,1.36.16v4.5a7.18,7.18,0,0,0-1.63-.16c-3.36,0-5.75,2.55-6.4,6.13a13.44,13.44,0,0,0-.22,2.22v14H68.3Z"/><path d="M87.07,259.42l5.15,14.75a67.59,67.59,0,0,1,2.12,6.73h.16c.6-2.17,1.36-4.34,2.22-6.73l5.1-14.75h5L96.5,285.67H91.95L82,259.42Z"/><path d="M114.46,252a3,3,0,0,1-5.91,0,2.91,2.91,0,0,1,3-3A2.83,2.83,0,0,1,114.46,252Zm-5.32,33.63V259.42h4.77v26.25Z"/><path d="M138.38,284.7a17.6,17.6,0,0,1-7.54,1.52c-7.92,0-13.07-5.37-13.07-13.4s5.53-13.94,14.1-13.94a16,16,0,0,1,6.62,1.36l-1.08,3.69a11.07,11.07,0,0,0-5.53-1.25c-6,0-9.28,4.45-9.28,9.93,0,6.08,3.91,9.82,9.11,9.82a13.57,13.57,0,0,0,5.86-1.3Z"/><path d="M144.13,273.41c.11,6.46,4.23,9.11,9,9.11a17.26,17.26,0,0,0,7.27-1.36l.81,3.42a21.26,21.26,0,0,1-8.73,1.63c-8.08,0-12.91-5.32-12.91-13.24s4.67-14.16,12.31-14.16c8.57,0,10.85,7.54,10.85,12.37a18.15,18.15,0,0,1-.16,2.22Zm14-3.42c.05-3-1.25-7.76-6.62-7.76-4.83,0-6.94,4.45-7.32,7.76Z"/><path class="cls-2" d="M120.4,55.35h25.12a7.08,7.08,0,0,1,7.08,7.08v77.09a7.08,7.08,0,0,1-7.08,7.09H44.45c-12.93,0-6.3-7.35.69-12.52,3.75-2.78,13.48-8.33,13.48-8.33l72.4-2L65.09,121.3l20.53-12.5,53.73-2.44-46.28-2.09,18.72-11.41a15.2,15.2,0,0,0,1.82-1.31l32.73-2.08-29.14-1.85a16.28,16.28,0,0,0,3.22-9Z"/><path class="cls-1" d="M26.37,136.68V58.05c0-3.83,3.1-8.85,6.93-11.22L108.21,1.22C112-1.15,115.15,0,115.15,3.85v73c0,3.83-3.11,8.85-6.94,11.22L44.3,127c-22.65,15.1-11,19.57-11,19.57a6.92,6.92,0,0,1-6.93-6.92Z"/></g></g></svg>