<svg width="114" height="114" viewBox="0 0 114 114" fill="none" xmlns="http://www.w3.org/2000/svg">
<path d="M70.3234 71.191L89.1025 56.9196C94.478 52.7244 97.9328 46.1848 97.9328 38.8392C97.9328 26.1811 87.6728 15.9185 75.0121 15.9185C62.3541 15.9185 52.0914 26.1798 52.0914 38.8392C52.0914 49.8972 59.9051 59.1271 70.3234 61.2838V71.191V71.191Z" stroke="#084C8D" stroke-width="2.5" stroke-miterlimit="10" stroke-linecap="round" stroke-linejoin="round"/>
<path d="M68.9942 44.9803C68.9942 48.0784 71.6954 50.5877 75.0242 50.5877C78.3556 50.5877 81.0554 48.0784 81.0554 44.9803C81.0554 41.8822 77.8366 40.5276 75.0107 39.0925C72.1849 37.6575 68.9674 36.3042 68.9674 33.2061C68.9674 30.108 71.6659 27.5986 74.9973 27.5986C78.3275 27.5986 81.0273 30.1093 81.0273 33.2061" stroke="#084C8D" stroke-width="2.5" stroke-miterlimit="10" stroke-linecap="round"/>
<path d="M74.9987 27.5719V24.2686" stroke="#084C8D" stroke-width="2.5" stroke-miterlimit="10" stroke-linecap="round"/>
<path d="M74.9987 53.9221V50.6174" stroke="#084C8D" stroke-width="2.5" stroke-miterlimit="10" stroke-linecap="round"/>
<path d="M64.465 95.5697L53.1133 83.8157" stroke="#084C8D" stroke-width="2.5" stroke-miterlimit="10"/>
<path d="M26.9859 43.65L21.027 28.5162C20.339 28.9105 19.9045 29.1707 19.9045 29.1707C15.9587 31.4051 16.1398 34.1411 16.1398 34.1411C14.9756 50.3867 28.2949 69.1512 29.2779 70.7472C30.6473 72.7039 41.9641 92.1537 57.2495 97.7692C57.2495 97.7692 59.6703 99.0607 63.3317 96.3811L64.4664 95.5697C65.9216 94.317 70.9 90.1218 71.1173 89.2876C71.1173 89.2876 71.8442 87.713 70.2039 85.9132L60.2672 75.6867C60.2672 75.6867 58.6363 73.408 55.447 74.3603L47.6172 76.7221C47.6172 76.7221 41.8005 69.6393 38.8191 64.5831C35.4339 59.7871 31.3661 51.5723 31.3661 51.5723L36.7389 45.4083C38.9156 42.8909 37.5101 40.4687 37.5101 40.4687L32.2688 27.2045C31.3045 24.9741 29.569 24.9862 29.569 24.9862C28.7039 24.8427 26.9631 25.4945 25.1914 26.3274" stroke="#084C8D" stroke-width="2.5" stroke-miterlimit="10"/>
</svg>
