<svg width="114" height="115" viewBox="0 0 114 115" fill="none" xmlns="http://www.w3.org/2000/svg">
<path d="M70.3234 72.0835L89.1025 57.812C94.478 53.6168 97.9328 47.0772 97.9328 39.7316C97.9328 27.0736 87.6728 16.8109 75.0121 16.8109C62.3541 16.8109 52.0914 27.0723 52.0914 39.7316C52.0914 50.7896 59.9051 60.0196 70.3234 62.1762V72.0835V72.0835Z" stroke="#197FFF" stroke-width="4" stroke-miterlimit="10" stroke-linecap="round" stroke-linejoin="round"/>
<path d="M68.9942 45.8729C68.9942 48.971 71.6954 51.4803 75.0242 51.4803C78.3556 51.4803 81.0554 48.971 81.0554 45.8729C81.0554 42.7747 77.8366 41.4202 75.0107 39.9851C72.1849 38.55 68.9674 37.1968 68.9674 34.0987C68.9674 31.0006 71.6659 28.4912 74.9973 28.4912C78.3275 28.4912 81.0273 31.0019 81.0273 34.0987" stroke="#0F66CD" stroke-width="4" stroke-miterlimit="10" stroke-linecap="round"/>
<path d="M74.9987 28.4644V25.1611" stroke="#0F66CD" stroke-width="4" stroke-miterlimit="10" stroke-linecap="round"/>
<path d="M74.9987 54.8145V51.5098" stroke="#0F66CD" stroke-width="4" stroke-miterlimit="10" stroke-linecap="round"/>
<path d="M64.465 96.4621L53.1133 84.708" stroke="#0F66CD" stroke-width="4" stroke-miterlimit="10" stroke-linecap="round"/>
<path d="M26.9859 44.5424L21.027 29.4086C20.339 29.8029 19.9045 30.0631 19.9045 30.0631C15.9587 32.2975 16.1398 35.0335 16.1398 35.0335C14.9756 51.2791 28.2949 70.0435 29.2779 71.6395C30.6473 73.5963 41.9641 93.0461 57.2495 98.6616C57.2495 98.6616 59.6703 99.9531 63.3317 97.2735L64.4664 96.462C65.9216 95.2094 70.9 91.0142 71.1173 90.18C71.1173 90.18 71.8442 88.6054 70.2039 86.8056L60.2672 76.5791C60.2672 76.5791 58.6363 74.3004 55.447 75.2527L47.6172 77.6145C47.6172 77.6145 41.8005 70.5317 38.8191 65.4755C35.4339 60.6794 31.3661 52.4647 31.3661 52.4647L36.7389 46.3007C38.9156 43.7833 37.5101 41.3611 37.5101 41.3611L32.2688 28.0969C31.3045 25.8665 29.569 25.8786 29.569 25.8786C28.7039 25.7351 26.9631 26.3869 25.1914 27.2198" stroke="#024892" stroke-width="4" stroke-miterlimit="10" stroke-linecap="round"/>
</svg>
