<svg width="114" height="115" viewBox="0 0 114 115" fill="none" xmlns="http://www.w3.org/2000/svg">
<path d="M24.6952 42.2021H51.7829" stroke="#197FFF" stroke-width="4" stroke-miterlimit="10" stroke-linecap="round" stroke-linejoin="round"/>
<path d="M19.2487 54.8252H51.7829" stroke="#197FFF" stroke-width="4" stroke-miterlimit="10" stroke-linecap="round" stroke-linejoin="round"/>
<path d="M18.861 67.4512H44.7618" stroke="#197FFF" stroke-width="4" stroke-miterlimit="10" stroke-linecap="round" stroke-linejoin="round"/>
<path d="M30.3199 88.0529C36.1769 93.0582 43.7371 96.1281 52.0095 96.273C52.2147 96.2783 52.4185 96.2891 52.6224 96.2891C71.5853 96.2891 86.9538 80.9179 86.9538 61.9576H52.0095V25.8746" stroke="#0F66CD" stroke-width="4" stroke-miterlimit="10" stroke-linecap="round" stroke-linejoin="round"/>
<path d="M45.3023 28.4188C29.8587 31.7718 18.2924 45.5094 18.2924 61.9576C18.2924 70.0784 21.1129 77.5381 25.8244 83.4164L52.0082 61.9576" stroke="#024892" stroke-width="4" stroke-miterlimit="10" stroke-linecap="round" stroke-linejoin="round"/>
<path d="M63.6667 19.4986C63.8528 19.4946 63.4792 19.4986 63.6667 19.4986V19.4986Z" stroke="white" stroke-width="4" stroke-miterlimit="10" stroke-linecap="round" stroke-linejoin="round"/>
<path d="M95.7078 51.2478C95.7078 33.7079 80.924 19.4982 63.3828 19.4982V51.2478H95.7078Z" stroke="#197FFF" stroke-width="4" stroke-miterlimit="10" stroke-linecap="round" stroke-linejoin="round"/>
</svg>
