<svg width="115" height="115" viewBox="0 0 115 115" fill="none" xmlns="http://www.w3.org/2000/svg">
<path d="M16.4316 41.3735H43.5194" stroke="#084C8D" stroke-width="2.5" stroke-miterlimit="10" stroke-linecap="round" stroke-linejoin="round"/>
<path d="M10.9851 53.9966H43.5194" stroke="#084C8D" stroke-width="2.5" stroke-miterlimit="10" stroke-linecap="round" stroke-linejoin="round"/>
<path d="M10.5974 66.6226H36.4982" stroke="#084C8D" stroke-width="2.5" stroke-miterlimit="10" stroke-linecap="round" stroke-linejoin="round"/>
<path d="M22.0564 87.2242C27.9133 92.2295 35.4735 95.2995 43.7459 95.4443C43.9511 95.4497 44.155 95.4604 44.3588 95.4604C63.3217 95.4604 78.6903 80.0892 78.6903 61.129H43.7459V25.046" stroke="#084C8D" stroke-width="2.5" stroke-miterlimit="10" stroke-linecap="round" stroke-linejoin="round"/>
<path d="M37.0388 27.5902C21.5951 30.9431 10.0288 44.6808 10.0288 61.129C10.0288 69.2498 12.8493 76.7094 17.5609 82.5878L43.7446 61.129" stroke="#084C8D" stroke-width="2.5" stroke-miterlimit="10" stroke-linecap="round" stroke-linejoin="round"/>
<path d="M55.4031 18.67C55.5892 18.666 55.2157 18.67 55.4031 18.67V18.67Z" stroke="#084C8D" stroke-width="2.5" stroke-miterlimit="10" stroke-linecap="round" stroke-linejoin="round"/>
<path d="M87.4442 50.4192C87.4442 32.8793 72.6604 18.6695 55.1192 18.6695V50.4192H87.4442Z" stroke="#084C8D" stroke-width="2.5" stroke-miterlimit="10" stroke-linecap="round" stroke-linejoin="round"/>
</svg>
