<svg width="114" height="114" viewBox="0 0 114 114" fill="none" xmlns="http://www.w3.org/2000/svg">
<path d="M24.6952 41.3096H51.7829" stroke="#197FFF" stroke-width="4" stroke-miterlimit="10" stroke-linecap="round" stroke-linejoin="round"/>
<path d="M19.2487 53.9326H51.7829" stroke="#197FFF" stroke-width="4" stroke-miterlimit="10" stroke-linecap="round" stroke-linejoin="round"/>
<path d="M18.861 66.5586H44.7618" stroke="#197FFF" stroke-width="4" stroke-miterlimit="10" stroke-linecap="round" stroke-linejoin="round"/>
<path d="M30.3199 87.1602C36.1769 92.1655 43.7371 95.2354 52.0095 95.3803C52.2147 95.3856 52.4185 95.3964 52.6224 95.3964C71.5853 95.3964 86.9538 80.0252 86.9538 61.0649H52.0095V24.9819" stroke="#0F66CD" stroke-width="4" stroke-miterlimit="10" stroke-linecap="round" stroke-linejoin="round"/>
<path d="M45.3023 27.5261C29.8587 30.8791 18.2924 44.6167 18.2924 61.0649C18.2924 69.1857 21.1129 76.6454 25.8244 82.5237L52.0082 61.0649" stroke="#024892" stroke-width="4" stroke-miterlimit="10" stroke-linecap="round" stroke-linejoin="round"/>
<path d="M63.6667 18.606C63.8528 18.602 63.4792 18.606 63.6667 18.606V18.606Z" stroke="white" stroke-width="4" stroke-miterlimit="10" stroke-linecap="round" stroke-linejoin="round"/>
<path d="M95.7078 50.3551C95.7078 32.8152 80.924 18.6055 63.3828 18.6055V50.3551H95.7078Z" stroke="#197FFF" stroke-width="4" stroke-miterlimit="10" stroke-linecap="round" stroke-linejoin="round"/>
</svg>
