<?xml version="1.0" encoding="UTF-8"?>
<svg width="90px" height="90px" viewBox="0 0 90 90" version="1.1" xmlns="http://www.w3.org/2000/svg" xmlns:xlink="http://www.w3.org/1999/xlink">
    <!-- Generator: Sketch 46.2 (44496) - http://www.bohemiancoding.com/sketch -->
    <title>maximised_savings</title>
    <desc>Created with Sketch.</desc>
    <defs></defs>
    <g id="Page-1" stroke="none" stroke-width="1" fill="none" fill-rule="evenodd">
        <g id="maximised_savings" fill-rule="nonzero">
            <g id="if_1-07_2137601" transform="translate(14.000000, 6.000000)">
                <path d="M60.61875,45.1238825 C59.9833333,39.1897829 58.2041667,33.5029374 55.9166667,28.0633461 C53.5020833,22.3765006 51.3416667,16.8132822 49.0541667,11.1264368 C48.8,10.6319285 48.6729167,10.0137931 48.41875,9.27203065 C46.7666667,11.3736909 45.6229167,13.3517241 45.1145833,15.7006386 C44.60625,18.1731801 44.60625,20.7693487 44.3520833,23.2418902 C44.225,24.8490421 43.5895833,26.20894 41.9375,26.8270754 C40.4125,27.4452107 39.26875,26.5798212 38.125,25.7144317 C37.6166667,25.2199234 37.1083333,24.7254151 36.7270833,24.1072797 C35.5833333,22.0056194 34.1854167,20.0275862 33.2958333,17.8022989 C31.0083333,12.1154534 29.2291667,6.30498084 29.6104167,0 C29.2291667,0.247254151 28.8479167,0.370881226 28.4666667,0.618135377 C24.1458333,3.46155811 21.9854167,7.66487867 20.8416667,12.4863346 C20.0791667,16.0715198 20.7145833,19.656705 20.96875,23.3655172 C21.2229167,27.939719 20.8416667,32.6375479 19.44375,37.0881226 C19.0625,38.2007663 18.3,39.1897829 17.5375,40.1787995 C17.2833333,40.5496807 16.5208333,40.7969349 16.1395833,40.7969349 C15.7583333,40.6733078 15.25,40.0551724 15.1229167,39.6842912 C14.9958333,38.8189017 14.86875,37.8298851 14.9958333,36.9644955 C15.63125,32.5139208 16.5208333,28.1869732 16.39375,23.7363985 C16.2666667,20.5220945 15.1229167,17.6786718 13.34375,15.0825032 C13.0895833,14.711622 12.8354167,14.5879949 12.3270833,14.0934866 C12.3270833,17.9259259 10.675,21.0166028 9.02291667,24.1072797 C7.37083333,27.0743295 5.59166667,30.0413793 4.19375,33.1320562 C1.65208333,38.6952746 -0.254166667,44.3821201 0.38125,50.5634738 C0.38125,51.0579821 0.508333333,51.4288633 0.508333333,51.9233716 C1.27083333,57.1157088 3.30416667,62.1844189 6.60833333,66.2641124 C8.26041667,68.2421456 10.1666667,70.2201788 12.4541667,71.5800766 C13.9791667,72.5690932 15.63125,73.3108557 17.2833333,74.0526181 C22.875,76.4015326 29.2291667,77.2669221 35.3291667,76.5251596 C39.0145833,76.0306513 42.8270833,75.1652618 46.2583333,73.5581098 C51.2145833,71.2091954 55.5354167,67.7476373 57.95,62.9261814 C60.7458333,57.2393359 61.2541667,51.1816092 60.61875,45.1238825 Z M55.0270833,61.3190294 C53.1208333,65.0278416 49.8166667,68.1185185 44.8604167,70.467433 C42.0645833,71.8273308 38.7604167,72.6927203 34.9479167,73.1872286 C29.4833333,73.805364 23.6375,73.0636015 18.5541667,70.9619413 C17.0291667,70.3438059 15.5041667,69.6020434 14.2333333,68.7366539 C12.58125,67.6240102 10.9291667,66.1404853 9.15,64.038825 C6.22708333,60.4536398 4.44791667,56.1266922 3.68541667,51.3052363 C3.68541667,50.934355 3.55833333,50.5634738 3.55833333,50.0689655 C2.92291667,44.3821201 5.08333333,38.8189017 7.11666667,34.2446999 C8.13333333,32.0194125 9.27708333,29.9177522 10.5479167,27.5688378 C10.9291667,26.8270754 11.3104167,26.0853129 11.81875,25.3435504 C12.2,24.601788 12.58125,23.9836526 12.9625,23.2418902 C12.9625,23.3655172 12.9625,23.3655172 12.9625,23.4891443 C13.0895833,26.8270754 12.58125,30.0413793 12.0729167,33.5029374 C11.9458333,34.3683269 11.81875,35.3573436 11.6916667,36.2227331 C11.5645833,37.4590038 11.5645833,38.6952746 11.81875,40.0551724 C12.0729167,41.5386973 13.4708333,43.2694764 15.3770833,43.7639847 C17.0291667,44.1348659 19.1895833,43.3931034 20.20625,42.0332056 L20.3333333,41.9095785 C21.0958333,40.9205619 22.1125,39.5606641 22.6208333,37.9535121 C24.01875,33.5029374 24.6541667,28.6814815 24.2729167,23.1182631 C24.2729167,22.1292465 24.1458333,21.1402299 24.01875,20.2748404 C23.7645833,17.8022989 23.6375,15.3297573 24.1458333,13.2280971 C24.6541667,10.7555556 25.54375,8.65389527 26.6875,6.92311622 C27.3229167,11.3736909 28.8479167,15.3297573 30.2458333,18.9149425 C31.0083333,20.8929757 32.025,22.6237548 33.0416667,24.3545338 C33.2958333,24.7254151 33.55,25.2199234 33.8041667,25.5908046 C34.4395833,26.5798212 35.2020833,27.3215837 35.8375,27.939719 C36.7270833,28.6814815 39.3958333,31.154023 43.08125,29.7941252 C44.9875,29.0523627 47.275,27.4452107 47.5291667,23.4891443 C47.65625,22.7473819 47.65625,22.0056194 47.65625,21.263857 C47.7833333,20.0275862 47.7833333,18.9149425 48.0375,17.6786718 C49.5625,21.5111111 51.0875,25.3435504 52.7395833,29.1759898 C55.1541667,35.1100894 56.6791667,40.4260536 57.1875,45.3711367 C57.95,51.5524904 57.1875,56.9920817 55.0270833,61.3190294 Z" id="Shape" fill="#446AAB"></path>
                <path d="M38.7604167,49.3272031 C36.21875,48.4618135 35.075,47.9673052 34.9479167,46.6074074 C34.8208333,45.6183908 35.5833333,44.6293742 36.6,44.258493 C37.8708333,43.8876117 39.65,44.0112388 41.3020833,44.7530013 C42.0645833,45.1238825 43.08125,44.6293742 43.3354167,43.8876117 C43.7166667,43.1458493 43.2083333,42.1568327 42.4458333,41.9095785 C41.55625,41.5386973 40.5395833,41.2914432 39.65,41.1678161 L39.65,39.9315453 C39.65,39.0661558 38.8875,38.3243934 37.9979167,38.3243934 C37.1083333,38.3243934 36.3458333,39.0661558 36.3458333,39.9315453 L36.3458333,41.1678161 C36.0916667,41.1678161 35.7104167,41.2914432 35.45625,41.4150702 C32.9145833,42.1568327 31.1354167,44.6293742 31.5166667,47.1019157 C32.025,50.4398467 35.075,51.5524904 37.4895833,52.2942529 C38.6333333,52.6651341 39.9041667,53.1596424 40.5395833,53.7777778 C41.0479167,54.2722861 41.3020833,54.8904215 41.3020833,55.5085568 C41.3020833,56.1266922 41.0479167,56.7448276 40.4125,57.2393359 C39.7770833,57.8574713 38.8875,58.1047254 37.74375,58.2283525 C36.8541667,58.2283525 35.7104167,58.2283525 34.4395833,57.9810983 C34.1854167,57.9810983 33.8041667,57.8574713 33.55,57.7338442 C32.6604167,57.48659 31.7708333,57.9810983 31.5166667,58.7228608 C31.2625,59.5882503 31.7708333,60.4536398 32.5333333,60.700894 C32.9145833,60.8245211 33.4229167,60.9481481 33.8041667,60.9481481 C34.69375,61.0717752 35.45625,61.1954023 36.21875,61.1954023 L36.21875,62.308046 C36.21875,63.1734355 36.98125,63.915198 37.8708333,63.915198 C38.7604167,63.915198 39.5229167,63.1734355 39.5229167,62.308046 L39.5229167,60.9481481 C40.79375,60.700894 41.8104167,60.2063857 42.7,59.4646232 C43.84375,58.4756066 44.60625,56.9920817 44.60625,55.5085568 C44.60625,54.0250319 43.9708333,52.541507 42.8270833,51.5524904 C41.8104167,50.4398467 40.2854167,49.8217114 38.7604167,49.3272031 Z" id="Shape" fill="#24BE00"></path>
            </g>
        </g>
    </g>
</svg>