<?xml version="1.0" encoding="UTF-8"?>
<svg width="90px" height="90px" viewBox="0 0 90 90" version="1.1" xmlns="http://www.w3.org/2000/svg" xmlns:xlink="http://www.w3.org/1999/xlink">
    <!-- Generator: Sketch 46.2 (44496) - http://www.bohemiancoding.com/sketch -->
    <title>improve_credit_score</title>
    <desc>Created with Sketch.</desc>
    <defs></defs>
    <g id="Page-1" stroke="none" stroke-width="1" fill="none" fill-rule="evenodd">
        <g id="improve_credit_score" fill-rule="nonzero">
            <g id="2138760---analysis-anal" transform="translate(6.000000, 10.000000)">
                <path d="M63.9596774,37.875 C58.8677419,36 53.9,34.375 53.2790323,29.375 C52.7822581,25.875 55.3903226,22.25 58.9919355,21.25 C62.5935484,20.125 67.3129032,20.625 71.783871,22.375 C72.5290323,22.75 73.5225806,22.25 73.7709677,21.5 C74.1435484,20.75 73.6467742,19.75 72.9016129,19.5 C70.1693548,18.375 67.4370968,17.75 64.8290323,17.625 L64.8290323,12.625 C64.8290323,11.75 64.083871,11 63.2145161,11 C62.3451613,11 61.6,11.75 61.6,12.625 L61.6,17.625 C60.3580645,17.75 59.116129,17.875 57.8741935,18.25 C52.7822581,19.75 49.3048387,24.875 50.05,29.875 C50.9193548,36.75 57.2532258,39 62.8419355,41 C66.0709677,42.125 69.0516129,43.25 70.9145161,45 C72.6532258,46.625 73.5225806,48.75 73.5225806,51 C73.5225806,53.25 72.5290323,55.25 70.7903226,56.875 C68.9274194,58.625 66.3193548,59.625 63.0903226,59.75 C60.7306452,59.875 57.9983871,59.625 54.6451613,59 C53.7758065,58.875 53.0306452,58.625 52.1612903,58.5 C51.2919355,58.25 50.4225806,58.75 50.1741935,59.5 C49.9258065,60.375 50.4225806,61.25 51.1677419,61.5 C52.0370968,61.75 53.0306452,62 53.9,62.125 C56.7564516,62.625 59.2403226,62.875 61.4758065,63 L61.4758065,68 C61.4758065,68.875 62.2209677,69.625 63.0903226,69.625 C63.9596774,69.625 64.7048387,68.875 64.7048387,68 L64.7048387,62.875 C68.0580645,62.375 70.7903226,61.25 72.9016129,59.25 C75.2612903,57.125 76.6274194,54.25 76.6274194,51.125 C76.6274194,48 75.3854839,45.125 73.0258065,42.875 C70.9145161,40.375 67.4370968,39.125 63.9596774,37.875 Z" id="Shape" fill="#24BE00"></path>
                <path d="M75.2612903,7 C76.1306452,7 76.8758065,6.25 76.8758065,5.375 C76.8758065,4.5 76.1306452,3.75 75.2612903,3.75 L53.9,3.75 C52.9064516,3.75 51.9129032,4.25 51.416129,5.25 L40.983871,24.375 L32.166129,2.5 C31.7935484,1.5 30.9241935,0.875 29.8064516,0.75 C28.8129032,0.625 27.6951613,1.125 27.1983871,2 L19.3741935,13.75 L15.2758065,4.25 C14.9032258,3.375 14.1580645,2.875 13.2887097,2.625 C12.4193548,2.375 11.55,2.625 10.8048387,3.25 L9.06612903,4.75 L1.73870968,4.75 C1.73870968,4.75 1.73870968,4.75 1.73870968,4.75 C0.869354839,4.75 0.124193548,5.375 0.124193548,6.25 C0.124193548,7.125 0.869354839,7.875 1.61451613,7.875 L8.81774194,7.875 C9.56290323,8 10.3080645,7.75 10.8048387,7.25 L12.5435484,5.75 L16.6419355,15.375 C17.0145161,16.375 17.883871,17 19.0016129,17.125 C19.9951613,17.25 20.9887097,16.75 21.6096774,15.875 L29.433871,4.125 L38.2516129,26 C38.6241935,27 39.6177419,27.75 40.7354839,27.75 C40.7354839,27.75 40.8596774,27.75 40.8596774,27.75 C41.8532258,27.75 42.8467742,27.25 43.3435484,26.25 L54.0241935,6.875 L75.2612903,6.875 L75.2612903,7 Z" id="Shape" fill="#446AAB"></path>
            </g>
        </g>
    </g>
</svg>