<svg width="13" height="15" viewBox="0 0 13 15" fill="none" xmlns="http://www.w3.org/2000/svg">
<path d="M9.52574 5.65918H12.0687C12.2604 5.65918 12.4444 5.73606 12.58 5.87292C12.7156 6.00977 12.7918 6.19538 12.7918 6.38892V14.2702C12.7918 14.4637 12.7156 14.6493 12.58 14.7862C12.4444 14.923 12.2604 14.9999 12.0687 14.9999H1.83188C0.523054 14.9999 1.19313 14.2483 1.90178 13.7204C2.28261 13.4358 3.26845 12.8691 3.26845 12.8691L10.6056 12.6501L3.92166 12.4069L6.0018 11.1298L11.4444 10.8866L6.74901 10.6604L8.65078 9.48791C8.715 9.44789 8.77622 9.40317 8.83397 9.35412L12.1482 9.14006L9.19552 8.95033C9.39221 8.68425 9.50553 8.36488 9.52092 8.03328L9.52574 5.65918Z" fill="#5CBB16"/>
<path opacity="0.8" d="M0 13.9735V5.94632C0.0236073 5.71397 0.0989592 5.49001 0.220421 5.29119C0.341884 5.09237 0.506313 4.92384 0.701414 4.79819L8.28922 0.125388C8.67729 -0.11786 8.99304 0.00376401 8.99304 0.395394V7.86068C8.96829 8.09201 8.89215 8.31473 8.77029 8.51225C8.64843 8.70977 8.48399 8.87701 8.28922 9.00152L1.81741 12.9859C-0.482071 14.5306 0.701414 14.9854 0.701414 14.9854C0.515804 14.9854 0.337761 14.9112 0.20629 14.779C0.0748181 14.6467 0.000637834 14.4673 0 14.28L0 13.9735Z" fill="#084C8D"/>
</svg>
