<svg width="50" height="51" viewBox="0 0 50 51" fill="none" xmlns="http://www.w3.org/2000/svg">
<path fill-rule="evenodd" clip-rule="evenodd" d="M25 50.1956C38.8071 50.1956 50 39.0027 50 25.1956C50 11.3884 38.8071 0.195557 25 0.195557C11.1929 0.195557 0 11.3884 0 25.1956C0 39.0027 11.1929 50.1956 25 50.1956Z" fill="#3C68F3"/>
<path fill-rule="evenodd" clip-rule="evenodd" d="M24.5508 22.3877L24.5822 22.9068L24.0576 22.8432C22.148 22.5996 20.4798 21.7734 19.0633 20.3858L18.3709 19.6972L18.1925 20.2057C17.8148 21.3391 18.0561 22.536 18.843 23.3411C19.2627 23.786 19.1683 23.8495 18.4443 23.5847C18.1925 23.5 17.9721 23.4364 17.9512 23.4682C17.8777 23.5423 18.1295 24.5062 18.3289 24.8876C18.6017 25.4172 19.1578 25.9362 19.7663 26.2434L20.2804 26.4871L19.6719 26.4976C19.0843 26.4976 19.0633 26.5082 19.1263 26.7307C19.3361 27.4192 20.165 28.1501 21.0883 28.4679L21.7388 28.6903L21.1723 29.0293C20.3329 29.5165 19.3466 29.7919 18.3604 29.8131C17.8882 29.8237 17.5 29.8661 17.5 29.8978C17.5 30.0038 18.78 30.597 19.525 30.83C21.7598 31.5185 24.4144 31.2219 26.4079 30.0461C27.8243 29.2093 29.2408 27.5463 29.9018 25.9362C30.2585 25.0782 30.6152 23.5106 30.6152 22.7585C30.6152 22.2712 30.6467 22.2077 31.2343 21.6251C31.5805 21.2861 31.9058 20.9154 31.9687 20.8095C32.0737 20.6082 32.0632 20.6082 31.5281 20.7883C30.6362 21.106 30.5103 21.0637 30.951 20.587C31.2762 20.2481 31.6645 19.6337 31.6645 19.4536C31.6645 19.4218 31.5071 19.4748 31.3287 19.5701C31.1398 19.6761 30.7202 19.8349 30.4054 19.9303L29.8388 20.1104L29.3247 19.7608C29.0414 19.5701 28.6427 19.3583 28.4329 19.2947C27.8978 19.1464 27.0794 19.1676 26.5967 19.3371C25.2852 19.8138 24.4563 21.0425 24.5508 22.3877Z" fill="black"/>
<mask id="mask0" mask-type="alpha" maskUnits="userSpaceOnUse" x="17" y="19" width="16" height="13">
<path fill-rule="evenodd" clip-rule="evenodd" d="M24.5508 22.3877L24.5822 22.9068L24.0576 22.8432C22.148 22.5996 20.4798 21.7734 19.0633 20.3858L18.3709 19.6972L18.1925 20.2057C17.8148 21.3391 18.0561 22.536 18.843 23.3411C19.2627 23.786 19.1683 23.8495 18.4443 23.5847C18.1925 23.5 17.9721 23.4364 17.9512 23.4682C17.8777 23.5423 18.1295 24.5062 18.3289 24.8876C18.6017 25.4172 19.1578 25.9362 19.7663 26.2434L20.2804 26.4871L19.6719 26.4976C19.0843 26.4976 19.0633 26.5082 19.1263 26.7307C19.3361 27.4192 20.165 28.1501 21.0883 28.4679L21.7388 28.6903L21.1723 29.0293C20.3329 29.5165 19.3466 29.7919 18.3604 29.8131C17.8882 29.8237 17.5 29.8661 17.5 29.8978C17.5 30.0038 18.78 30.597 19.525 30.83C21.7598 31.5185 24.4144 31.2219 26.4079 30.0461C27.8243 29.2093 29.2408 27.5463 29.9018 25.9362C30.2585 25.0782 30.6152 23.5106 30.6152 22.7585C30.6152 22.2712 30.6467 22.2077 31.2343 21.6251C31.5805 21.2861 31.9058 20.9154 31.9687 20.8095C32.0737 20.6082 32.0632 20.6082 31.5281 20.7883C30.6362 21.106 30.5103 21.0637 30.951 20.587C31.2762 20.2481 31.6645 19.6337 31.6645 19.4536C31.6645 19.4218 31.5071 19.4748 31.3287 19.5701C31.1398 19.6761 30.7202 19.8349 30.4054 19.9303L29.8388 20.1104L29.3247 19.7608C29.0414 19.5701 28.6427 19.3583 28.4329 19.2947C27.8978 19.1464 27.0794 19.1676 26.5967 19.3371C25.2852 19.8138 24.4563 21.0425 24.5508 22.3877Z" fill="white"/>
</mask>
<g mask="url(#mask0)">
<rect x="10" y="10.1956" width="30" height="30" fill="white"/>
</g>
</svg>
