<svg width="15" height="15" viewBox="0 0 15 15" fill="none" xmlns="http://www.w3.org/2000/svg">
<path d="M10.6801 12.2522L10.4863 12.5731C10.57 12.6237 10.6701 12.6395 10.7653 12.6173L10.6801 12.2522ZM10.6801 12.2522L10.6801 12.2521L10.6801 12.2522ZM7.75849 10.3419L7.50004 10.1859L7.24159 10.3419L4.50893 11.992L5.23373 8.88317L5.30228 8.58915L5.07401 8.39157L2.66033 6.30253L5.84096 6.03118L6.14178 6.00552L6.25914 5.72735L7.50004 2.78623L8.74094 5.72735L8.8583 6.00552L9.15911 6.03118L12.3397 6.30253L9.92607 8.39158L9.6978 8.58915L9.76635 8.88316L10.4911 11.992L7.75849 10.3419ZM4.25526 12.1451C4.25539 12.145 4.25553 12.145 4.25566 12.1449L4.2553 12.1451L4.25526 12.1451Z" stroke="#FFAF12"/>
</svg>
