<svg width="85" height="85" viewBox="0 0 85 85" fill="none" xmlns="http://www.w3.org/2000/svg">
<path d="M45.062 48.646C40.21 48.646 36.275 46.662 36.275 44.216C36.275 41.766 40.211 39.782 45.062 39.782C49.179 39.782 52.633 41.207 53.589 43.138" stroke="#084C8D" stroke-width="2.5" stroke-miterlimit="10"/>
<path d="M45.062 48.656C49.916 48.656 53.851 50.64 53.851 53.088C53.851 55.536 49.915 57.52 45.062 57.52C40.726 57.52 37.118 55.934 36.403 53.85" stroke="#084C8D" stroke-width="2.5" stroke-miterlimit="10"/>
<path d="M45.185 35.197V62.16" stroke="#084C8D" stroke-width="2.5" stroke-miterlimit="10"/>
<path d="M37.368 19.99V15.813C37.368 13.613 39.167 11.813 41.368 11.813H49.093C51.294 11.813 53.093 13.613 53.093 15.813V19.99" stroke="#084C8D" stroke-width="2.5" stroke-miterlimit="10" stroke-linecap="round" stroke-linejoin="round"/>
<path d="M62.196 22.522C65.05 24.379 67.579 26.691 69.684 29.353" stroke="#084C8D" stroke-width="2.5" stroke-miterlimit="10" stroke-linejoin="round"/>
<path d="M45.231 17.357V24.389" stroke="#084C8D" stroke-width="2.5" stroke-miterlimit="10" stroke-linejoin="round"/>
<path d="M21.707 41.918C24.65 31.704 34.066 24.231 45.231 24.231C58.748 24.231 69.708 35.189 69.708 48.71C69.708 62.228 58.748 73.187 45.231 73.187C31.71 73.187 20.752 62.228 20.752 48.71" stroke="#084C8D" stroke-width="2.5" stroke-miterlimit="10" stroke-linejoin="round"/>
<path d="M15.293 53.809L20.803 47.805" stroke="#084C8D" stroke-width="2.5" stroke-miterlimit="10" stroke-linecap="round" stroke-linejoin="round"/>
<path d="M20.848 47.797L26.852 53.305" stroke="#084C8D" stroke-width="2.5" stroke-miterlimit="10" stroke-linecap="round" stroke-linejoin="round"/>
</svg>
