<svg width="85" height="86" viewBox="0 0 85 86" fill="none" xmlns="http://www.w3.org/2000/svg">
<path d="M45.062 49.5924C40.21 49.5924 36.275 47.6084 36.275 45.1624C36.275 42.7124 40.211 40.7284 45.062 40.7284C49.179 40.7284 52.633 42.1534 53.589 44.0844" stroke="#197FFF" stroke-width="3" stroke-miterlimit="10"/>
<path d="M45.062 49.6024C49.916 49.6024 53.851 51.5864 53.851 54.0344C53.851 56.4824 49.915 58.4664 45.062 58.4664C40.726 58.4664 37.118 56.8804 36.403 54.7964" stroke="#197FFF" stroke-width="3" stroke-miterlimit="10"/>
<path d="M45.185 36.1434V63.1064" stroke="#197FFF" stroke-width="3" stroke-miterlimit="10"/>
<path d="M37.368 20.9364V16.7594C37.368 14.5594 39.167 12.7594 41.368 12.7594H49.093C51.294 12.7594 53.093 14.5594 53.093 16.7594V20.9364" stroke="#197FFF" stroke-width="3" stroke-miterlimit="10" stroke-linecap="round" stroke-linejoin="round"/>
<path d="M62.196 23.4684C65.05 25.3254 67.579 27.6374 69.684 30.2994" stroke="#0F66CD" stroke-width="3" stroke-miterlimit="10" stroke-linejoin="round"/>
<path d="M45.231 18.3034V25.3354" stroke="#0F66CD" stroke-width="3" stroke-miterlimit="10" stroke-linejoin="round"/>
<path d="M21.707 42.8644C24.65 32.6504 34.066 25.1774 45.231 25.1774C58.748 25.1774 69.708 36.1354 69.708 49.6564C69.708 63.1744 58.748 74.1334 45.231 74.1334C31.71 74.1334 20.752 63.1744 20.752 49.6564" stroke="#024892" stroke-width="3" stroke-miterlimit="10" stroke-linejoin="round"/>
<path d="M15.293 54.7554L20.803 48.7514" stroke="#024892" stroke-width="3" stroke-miterlimit="10" stroke-linecap="round" stroke-linejoin="round"/>
<path d="M20.848 48.7434L26.852 54.2514" stroke="#024892" stroke-width="3" stroke-miterlimit="10" stroke-linecap="round" stroke-linejoin="round"/>
</svg>
