<svg width="85" height="86" viewBox="0 0 85 86" fill="none" xmlns="http://www.w3.org/2000/svg">
<path d="M42.499 49.2234C38.502 49.2234 35.257 47.5884 35.257 45.5734C35.257 43.5554 38.502 41.9204 42.499 41.9204C45.893 41.9204 48.74 43.0944 49.529 44.6854" stroke="#0F66CD" stroke-width="3" stroke-miterlimit="10"/>
<path d="M42.4989 49.2334C46.5019 49.2334 49.7439 50.8684 49.7439 52.8854C49.7439 54.9014 46.5019 56.5374 42.4989 56.5374C38.9259 56.5374 35.9519 55.2304 35.3619 53.5124" stroke="#0F66CD" stroke-width="3" stroke-miterlimit="10"/>
<path d="M42.6019 37.8374V60.6634" stroke="#0F66CD" stroke-width="3" stroke-miterlimit="10"/>
<path d="M23.05 41.1694H31.76" stroke="#197FFF" stroke-width="3" stroke-miterlimit="10" stroke-linecap="round" stroke-linejoin="round"/>
<path d="M23.05 57.1204H31.76" stroke="#197FFF" stroke-width="3" stroke-miterlimit="10" stroke-linecap="round" stroke-linejoin="round"/>
<path d="M23.05 49.1454H31.76" stroke="#197FFF" stroke-width="3" stroke-miterlimit="10" stroke-linecap="round" stroke-linejoin="round"/>
<path d="M53.241 41.1694H61.951" stroke="#197FFF" stroke-width="3" stroke-miterlimit="10" stroke-linecap="round" stroke-linejoin="round"/>
<path d="M53.241 57.1204H61.951" stroke="#197FFF" stroke-width="3" stroke-miterlimit="10" stroke-linecap="round" stroke-linejoin="round"/>
<path d="M53.241 49.1454H61.951" stroke="#197FFF" stroke-width="3" stroke-miterlimit="10" stroke-linecap="round" stroke-linejoin="round"/>
<path d="M71.312 65.9114C71.312 67.5614 69.962 68.9114 68.312 68.9114H16.688C15.039 68.9114 13.688 67.5614 13.688 65.9114V32.3694C13.688 30.7194 15.039 29.3694 16.688 29.3694H68.313C69.963 29.3694 71.313 30.7194 71.313 32.3694V65.9114H71.312Z" stroke="#024892" stroke-width="3" stroke-miterlimit="10" stroke-linejoin="round"/>
<path d="M32.875 25.1134V21.0104C32.875 19.3324 34.226 17.9824 35.875 17.9824H49.125C50.775 17.9824 52.125 19.3324 52.125 21.0104V25.1134" stroke="#197FFF" stroke-width="3" stroke-miterlimit="10" stroke-linejoin="round"/>
</svg>
