<svg width="85" height="85" viewBox="0 0 85 85" fill="none" xmlns="http://www.w3.org/2000/svg">
<path d="M42.499 48.277C38.502 48.277 35.257 46.642 35.257 44.627C35.257 42.609 38.502 40.974 42.499 40.974C45.893 40.974 48.74 42.148 49.529 43.739" stroke="#084C8D" stroke-width="2.5" stroke-miterlimit="10"/>
<path d="M42.4989 48.287C46.5019 48.287 49.7439 49.922 49.7439 51.939C49.7439 53.955 46.5019 55.591 42.4989 55.591C38.9259 55.591 35.9519 54.284 35.3619 52.566" stroke="#084C8D" stroke-width="2.5" stroke-miterlimit="10"/>
<path d="M42.6019 36.891V59.717" stroke="#084C8D" stroke-width="2.5" stroke-miterlimit="10"/>
<path d="M23.05 40.223H31.76" stroke="#084C8D" stroke-width="2.5" stroke-miterlimit="10" stroke-linecap="round" stroke-linejoin="round"/>
<path d="M23.05 56.174H31.76" stroke="#084C8D" stroke-width="2.5" stroke-miterlimit="10" stroke-linecap="round" stroke-linejoin="round"/>
<path d="M23.05 48.199H31.76" stroke="#084C8D" stroke-width="2.5" stroke-miterlimit="10" stroke-linecap="round" stroke-linejoin="round"/>
<path d="M53.241 40.223H61.951" stroke="#084C8D" stroke-width="2.5" stroke-miterlimit="10" stroke-linecap="round" stroke-linejoin="round"/>
<path d="M53.241 56.174H61.951" stroke="#084C8D" stroke-width="2.5" stroke-miterlimit="10" stroke-linecap="round" stroke-linejoin="round"/>
<path d="M53.241 48.199H61.951" stroke="#084C8D" stroke-width="2.5" stroke-miterlimit="10" stroke-linecap="round" stroke-linejoin="round"/>
<path d="M71.312 64.965C71.312 66.615 69.962 67.965 68.312 67.965H16.688C15.039 67.965 13.688 66.615 13.688 64.965V31.423C13.688 29.773 15.039 28.423 16.688 28.423H68.313C69.963 28.423 71.313 29.773 71.313 31.423V64.965H71.312Z" stroke="#084C8D" stroke-width="2.5" stroke-miterlimit="10" stroke-linejoin="round"/>
<path d="M32.875 24.167V20.064C32.875 18.386 34.226 17.036 35.875 17.036H49.125C50.775 17.036 52.125 18.386 52.125 20.064V24.167" stroke="#084C8D" stroke-width="2.5" stroke-miterlimit="10" stroke-linejoin="round"/>
</svg>
