<svg width="16" height="9" viewBox="0 0 16 9" fill="none" xmlns="http://www.w3.org/2000/svg">
<path d="M15.0276 2.07151C15.3432 1.78016 15.3629 1.28809 15.0715 0.972449C14.7802 0.65681 14.2881 0.637128 13.9724 0.928486L15.0276 2.07151ZM8 7.5L7.47245 8.07151L8 8.55848L8.52755 8.07151L8 7.5ZM2.02755 0.928486C1.71191 0.637128 1.21984 0.65681 0.928486 0.972449C0.637128 1.28809 0.65681 1.78016 0.972449 2.07151L2.02755 0.928486ZM13.9724 0.928486L7.47245 6.92849L8.52755 8.07151L15.0276 2.07151L13.9724 0.928486ZM8.52755 6.92849L2.02755 0.928486L0.972449 2.07151L7.47245 8.07151L8.52755 6.92849Z" fill="#084C8D"/>
</svg>
