<svg width="119" height="123" viewBox="0 0 119 123" fill="none" xmlns="http://www.w3.org/2000/svg">
<path d="M59.5017 15.709C59.7375 15.709 59.971 15.6622 60.1889 15.5714C60.4067 15.4805 60.6045 15.3474 60.7711 15.1796C60.9377 15.0118 61.0698 14.8127 61.1597 14.5935C61.2497 14.3743 61.2958 14.1395 61.2953 13.9024V1.73051C61.2758 1.26496 61.0782 0.824994 60.7436 0.502518C60.4091 0.180042 59.9636 0 59.5001 0C59.0367 0 58.5912 0.180042 58.2566 0.502518C57.9221 0.824994 57.7244 1.26496 57.7049 1.73051V13.9024C57.7045 14.1397 57.7507 14.3749 57.8408 14.5942C57.931 14.8136 58.0633 15.0129 58.2303 15.1808C58.3972 15.3486 58.5954 15.4817 58.8136 15.5723C59.0318 15.6629 59.2657 15.7094 59.5017 15.709Z" fill="#FFE600"/>
<path d="M25.99 28.6081C26.328 28.9479 26.7864 29.1388 27.2644 29.1388C27.7423 29.1388 28.2007 28.9479 28.5387 28.6081C28.8767 28.2683 29.0665 27.8074 29.0665 27.3268C29.0665 26.8463 28.8767 26.3854 28.5387 26.0456L19.9688 17.4452C19.8016 17.2767 19.603 17.143 19.3843 17.0518C19.1657 16.9605 18.9313 16.9136 18.6945 16.9136C18.4578 16.9136 18.2233 16.9605 18.0047 17.0518C17.786 17.143 17.5874 17.2767 17.4202 17.4452C17.2522 17.6131 17.1189 17.8127 17.0279 18.0326C16.9369 18.2525 16.8901 18.4883 16.8901 18.7264C16.8901 18.9646 16.9369 19.2004 17.0279 19.4203C17.1189 19.6402 17.2522 19.8398 17.4202 20.0077L25.99 28.6081Z" fill="#FFE600"/>
<path d="M13.9062 57.9419H1.80003C1.56288 57.9411 1.32791 57.9875 1.10873 58.0785C0.889546 58.1696 0.690497 58.3034 0.5231 58.4723C0.355703 58.6412 0.223282 58.8418 0.1335 59.0625C0.0437189 59.2832 -0.0016411 59.5196 4.53552e-05 59.7581C-0.000374339 59.9954 0.0458147 60.2305 0.135964 60.4499C0.226113 60.6693 0.358448 60.8686 0.525381 61.0364C0.692313 61.2043 0.890557 61.3373 1.10875 61.428C1.32693 61.5186 1.56077 61.5651 1.79685 61.5646H13.903C14.1392 61.5651 14.3732 61.5186 14.5916 61.428C14.8099 61.3374 15.0084 61.2044 15.1756 61.0366C15.3427 60.8688 15.4754 60.6695 15.5659 60.4502C15.6564 60.2308 15.703 59.9956 15.703 59.7581C15.7021 59.2795 15.5124 58.8208 15.1756 58.4827C14.8387 58.1446 14.3821 57.9547 13.9062 57.9547V57.9419Z" fill="#FFE600"/>
<path d="M25.9901 90.8862L17.4266 99.493C17.2586 99.6609 17.1253 99.8605 17.0343 100.08C16.9433 100.3 16.8965 100.536 16.8965 100.774C16.8965 101.012 16.9433 101.248 17.0343 101.468C17.1253 101.688 17.2586 101.888 17.4266 102.055C17.5934 102.225 17.7918 102.359 18.0106 102.451C18.2293 102.543 18.4639 102.59 18.7009 102.59C18.9379 102.59 19.1725 102.543 19.3913 102.451C19.61 102.359 19.8085 102.225 19.9753 102.055L28.5356 93.4487C28.7029 93.2804 28.8357 93.0807 28.9262 92.8608C29.0168 92.641 29.0634 92.4054 29.0634 92.1674C29.0634 91.9295 29.0168 91.6939 28.9262 91.474C28.8357 91.2542 28.7029 91.0544 28.5356 90.8862C28.3682 90.7179 28.1695 90.5845 27.9509 90.4934C27.7322 90.4023 27.4979 90.3555 27.2612 90.3555C27.0246 90.3555 26.7902 90.4023 26.5716 90.4934C26.3529 90.5845 26.1542 90.7179 25.9869 90.8862H25.9901Z" fill="#FFE600"/>
<path d="M93.0261 90.8862C92.6881 90.5464 92.2298 90.3555 91.7518 90.3555C91.2738 90.3555 90.8154 90.5464 90.4775 90.8862C90.1395 91.226 89.9496 91.6869 89.9496 92.1674C89.9496 92.648 90.1395 93.1089 90.4775 93.4487L99.0346 102.039C99.3726 102.379 99.8309 102.57 100.309 102.57C100.787 102.57 101.245 102.379 101.583 102.039C101.921 101.7 102.111 101.239 102.111 100.758C102.111 100.278 101.921 99.8168 101.583 99.477L93.0261 90.8862Z" fill="#FFE600"/>
<path d="M117.206 57.9424H105.1C104.637 57.962 104.2 58.1607 103.879 58.4971C103.558 58.8334 103.379 59.2814 103.379 59.7473C103.379 60.2133 103.558 60.6613 103.879 60.9976C104.2 61.334 104.637 61.5327 105.1 61.5523H117.206C117.67 61.5327 118.107 61.334 118.428 60.9976C118.749 60.6613 118.928 60.2133 118.928 59.7473C118.928 59.2814 118.749 58.8334 118.428 58.4971C118.107 58.1607 117.67 57.962 117.206 57.9424Z" fill="#FFE600"/>
<path d="M99.0346 17.445L90.4775 26.0518C90.1395 26.3917 89.9496 26.8525 89.9496 27.3331C89.9496 27.8137 90.1395 28.2745 90.4775 28.6143C90.8154 28.9542 91.2738 29.1451 91.7518 29.1451C92.2298 29.1451 92.6881 28.9542 93.0261 28.6143L101.59 20.0043C101.757 19.8361 101.89 19.6363 101.98 19.4165C102.071 19.1967 102.117 18.961 102.117 18.7231C102.117 18.4851 102.071 18.2495 101.98 18.0297C101.89 17.8098 101.757 17.6101 101.59 17.4418C101.422 17.2736 101.224 17.1401 101.005 17.0491C100.786 16.958 100.552 16.9111 100.315 16.9111C100.079 16.9111 99.8443 16.958 99.6256 17.0491C99.407 17.1401 99.2083 17.2736 99.041 17.4418L99.0346 17.445Z" fill="#FFE600"/>
<path d="M94.9822 56.0972C94.9822 36.1417 79.0531 19.9019 59.5017 19.9019C52.6673 19.894 45.9802 21.8984 40.2657 25.6675C34.6743 29.3553 30.2179 34.5392 27.3982 40.6357C27.2062 41.0684 27.191 41.5596 27.3558 42.0035C27.5206 42.4473 27.8522 42.8084 28.2792 43.0087C28.7062 43.2091 29.1944 43.2328 29.6386 43.0747C30.0829 42.9167 30.4475 42.5894 30.6541 42.1636C35.9075 30.8373 47.2204 23.5182 59.489 23.5182C77.0715 23.5182 91.3791 38.1341 91.3791 56.0972C91.4065 64.5575 88.1688 72.6986 82.3473 78.8074C78.9926 82.3308 76.1349 85.7005 75.4022 90.4187H44.0569C43.1298 85.5179 39.807 82.0906 36.8218 78.9963C30.8865 72.8713 27.5793 64.6487 27.6116 56.0972C27.6117 53.9708 27.8133 51.8493 28.2138 49.7614C28.2923 49.2963 28.1868 48.8188 27.9198 48.4309C27.6528 48.043 27.2455 47.7755 26.7849 47.6855C26.3243 47.5956 25.847 47.6904 25.455 47.9496C25.063 48.2088 24.7874 48.6119 24.687 49.0727C24.2421 51.3875 24.0181 53.7396 24.018 56.0972C23.9841 65.5907 27.6573 74.7185 34.2477 81.5172C38.0356 85.4314 40.7181 88.5641 40.7181 93.1349V93.183L40.8201 103.779C40.8212 105.413 41.2402 107.018 42.0369 108.442C42.8337 109.866 43.9813 111.06 45.3694 111.908V113.891C45.3728 116.285 46.3205 118.581 48.0047 120.273C49.6889 121.966 51.972 122.918 54.3534 122.921H65.3668C67.7479 122.918 70.0307 121.966 71.7144 120.273C73.3981 118.58 74.3451 116.285 74.3476 113.891V111.905C75.7368 111.057 76.8854 109.864 77.6827 108.44C78.4801 107.016 78.8994 105.41 78.9002 103.776C78.9002 103.776 78.9002 91.9722 78.862 91.8569C79.2028 87.6704 81.7292 84.6947 84.9564 81.2866C91.4186 74.5058 95.0126 65.469 94.9822 56.078V56.0972ZM70.7572 113.891C70.7547 115.327 70.1859 116.704 69.1754 117.72C68.165 118.735 66.7954 119.306 65.3668 119.308H54.3534C52.9249 119.306 51.5553 118.735 50.5448 117.72C49.5344 116.704 48.9655 115.327 48.963 113.891V113.193C49.3999 113.256 49.8406 113.288 50.2819 113.289H69.451C69.8924 113.288 70.3331 113.256 70.77 113.193L70.7572 113.891ZM69.451 109.679H50.2819C48.7261 109.677 47.2345 109.055 46.1343 107.949C45.0342 106.843 44.4153 105.343 44.4137 103.779V103.66H62.6143C63.0908 103.66 63.5478 103.47 63.8848 103.131C64.2218 102.792 64.4111 102.333 64.4111 101.854C64.4111 101.375 64.2218 100.915 63.8848 100.576C63.5478 100.238 63.0908 100.047 62.6143 100.047H44.4137V94.0318H75.2492L75.3066 100.05H70.9962C70.7602 100.05 70.5266 100.097 70.3086 100.188C70.0906 100.279 69.8925 100.412 69.7256 100.58C69.5588 100.747 69.4264 100.947 69.3361 101.166C69.2458 101.385 69.1994 101.62 69.1994 101.857C69.1994 102.094 69.2458 102.329 69.3361 102.548C69.4264 102.768 69.5588 102.967 69.7256 103.134C69.8925 103.302 70.0906 103.435 70.3086 103.526C70.5266 103.617 70.7602 103.664 70.9962 103.664H75.3066V103.782C75.3041 105.344 74.6866 106.841 73.5893 107.946C72.492 109.051 71.0041 109.674 69.451 109.679Z" fill="white"/>
<path d="M71.1777 56.334C71.033 56.5214 70.9264 56.7357 70.8639 56.9645C70.8015 57.1933 70.7846 57.4323 70.814 57.6677C70.8434 57.9031 70.9187 58.1304 71.0355 58.3366C71.1523 58.5427 71.3083 58.7238 71.4947 58.8693C71.6811 59.0149 71.8942 59.1221 72.1218 59.1848C72.3494 59.2476 72.587 59.2646 72.8212 59.235C73.0553 59.2054 73.2814 59.1298 73.4864 59.0123C73.6915 58.8949 73.8716 58.738 74.0163 58.5506L77.5717 53.9445C78.5066 52.7344 78.9251 51.2004 78.7351 49.68C78.5451 48.1596 77.7622 46.7774 76.5586 45.8374C75.355 44.8974 73.8293 44.4766 72.3171 44.6677C70.805 44.8587 69.4302 45.6458 68.4953 46.856L56.8957 61.8786L50.2342 54.473C49.7281 53.91 49.1168 53.4527 48.435 53.1272C47.7532 52.8017 47.0143 52.6145 46.2605 52.5761C45.5068 52.5377 44.7528 52.649 44.0418 52.9036C43.3308 53.1582 42.6767 53.5511 42.1167 54.0598C41.5567 54.5686 41.1019 55.1833 40.7781 55.8688C40.4544 56.5543 40.2682 57.2971 40.23 58.055C40.1918 58.8129 40.3025 59.5709 40.5557 60.2858C40.8089 61.0006 41.1997 61.6584 41.7057 62.2214L52.9612 74.7424C55.2263 77.385 59.7056 77.2216 61.7668 74.4221L68.8744 65.2035C69.0191 65.0161 69.1258 64.8019 69.1882 64.573C69.2506 64.3442 69.2676 64.1053 69.2381 63.8698C69.2087 63.6344 69.1334 63.4071 69.0166 63.201C68.8998 62.9948 68.7438 62.8138 68.5574 62.6682C68.371 62.5227 68.1579 62.4155 67.9304 62.3527C67.7028 62.29 67.4651 62.2729 67.231 62.3025C66.9968 62.3321 66.7708 62.4078 66.5657 62.5252C66.3606 62.6426 66.1806 62.7995 66.0358 62.9869L58.9378 72.1959C58.7436 72.4443 58.498 72.6472 58.218 72.7905C57.938 72.9339 57.6303 73.0143 57.3163 73.0262C57.0023 73.0381 56.6895 72.9812 56.3996 72.8594C56.1096 72.7376 55.8495 72.5538 55.6373 72.3208L44.3691 59.7998C44.0357 59.3682 43.8767 58.8259 43.9238 58.2815C43.971 57.7371 44.2209 57.2306 44.6235 56.8635C45.0261 56.4963 45.5517 56.2956 46.0953 56.3013C46.6388 56.3071 47.1601 56.519 47.5549 56.8946L55.65 65.8986C55.8275 66.092 56.0444 66.2446 56.2861 66.3457C56.5277 66.4468 56.7882 66.4941 57.0498 66.4844C57.3113 66.4746 57.5677 66.4081 57.8012 66.2893C58.0347 66.1704 58.2399 66.0022 58.4026 65.7961L71.3179 49.0725C71.4915 48.8479 71.7075 48.6599 71.9534 48.5192C72.1993 48.3784 72.4703 48.2878 72.7511 48.2524C73.0318 48.217 73.3167 48.2376 73.5896 48.3129C73.8624 48.3882 74.1179 48.5168 74.3413 48.6914C74.5647 48.8659 74.7517 49.083 74.8917 49.3303C75.0316 49.5775 75.1218 49.8501 75.157 50.1323C75.1922 50.4146 75.1717 50.7011 75.0968 50.9754C75.0219 51.2497 74.894 51.5065 74.7204 51.7311L71.1777 56.334Z" fill="#FFE600"/>
</svg>
