<svg width="91" height="123" viewBox="0 0 91 123" fill="none" xmlns="http://www.w3.org/2000/svg">
<g clip-path="url(#clip0_1072_8)">
<path d="M85.3679 1.01145e-05H4.62003C3.39657 0.00190971 2.22365 0.485212 1.35785 1.3442C0.492047 2.20319 0.00383383 3.36794 0 4.58368V90.5684C0 92.8914 3.6264 92.8914 3.6264 90.5684V4.58368C3.63208 4.32217 3.74047 4.07325 3.9284 3.89009C4.11633 3.70694 4.36889 3.60409 4.63212 3.60353H53.3395V25.7051C53.3405 26.002 53.4154 26.294 53.5576 26.5552C53.6997 26.8163 53.9047 27.0384 54.1542 27.2017L64.6708 34.1685C64.9695 34.3637 65.3191 34.4678 65.6765 34.4678C66.034 34.4678 66.3836 34.3637 66.6823 34.1685L77.1988 27.2017C77.4471 27.0378 77.6508 26.8153 77.7917 26.5542C77.9326 26.2931 78.0063 26.0014 78.0063 25.7051V3.60353H85.3751C85.6384 3.60409 85.8909 3.70694 86.0789 3.89009C86.2668 4.07325 86.3752 4.32217 86.3809 4.58368V92.6104H64.4992C63.2738 92.6097 62.0981 93.0918 61.2299 93.951C60.3616 94.8102 59.8715 95.9764 59.867 97.194V119.396H4.63212C4.36867 119.395 4.1161 119.292 3.92824 119.108C3.74038 118.925 3.63207 118.676 3.6264 118.414V99.9375C3.6264 97.612 0 97.612 0 99.9375V118.414C0.00384041 119.632 0.493638 120.799 1.36198 121.659C2.23033 122.518 3.40634 123.001 4.63212 123H61.6875C62.1737 122.997 62.6389 122.803 62.9809 122.459L89.4851 95.6734C89.8194 95.3376 90.007 94.8844 90.0073 94.4121V4.58368C90.0028 3.36481 89.5117 2.19751 88.6419 1.33811C87.772 0.478714 86.5945 -0.00254399 85.3679 1.01145e-05ZM74.3726 24.7442L65.6693 30.5098L56.9659 24.7442V3.72364H74.3726V24.7442ZM64.4992 96.2139H83.8593L63.4934 116.795V97.194C63.4991 96.9325 63.6075 96.6836 63.7954 96.5004C63.9834 96.3173 64.2359 96.2144 64.4992 96.2139Z" fill="white"/>
<path d="M16.2293 25.1045H40.8889C43.2267 25.1045 43.2267 21.501 40.8889 21.501H16.2293C13.8915 21.501 13.8915 25.1045 16.2293 25.1045Z" fill="#FFE600"/>
<path d="M16.2293 42.1611H73.7683C76.1085 42.1611 76.1085 38.5576 73.7683 38.5576H16.2293C13.8915 38.5576 13.8915 42.1611 16.2293 42.1611Z" fill="white"/>
<path d="M16.2293 53.9326H73.7683C76.1085 53.9326 76.1085 50.3291 73.7683 50.3291H16.2293C13.8915 50.3291 13.8915 53.9326 16.2293 53.9326Z" fill="white"/>
<path d="M16.2293 70.5088H73.7683C76.1085 70.5088 76.1085 66.9053 73.7683 66.9053H16.2293C13.8915 66.9053 13.8915 70.5088 16.2293 70.5088Z" fill="white"/>
<path d="M15.3252 107.437C15.7425 107.672 16.236 107.734 16.6991 107.611C17.1622 107.487 17.5579 107.188 17.8008 106.777C17.8395 106.712 18.1223 106.222 18.5672 105.419C19.3907 106.346 20.4635 107.02 21.6593 107.361C25.0004 108.307 27.2198 106.107 28.4987 104.091C29.8525 101.95 30.88 98.9908 31.8833 96.1296C31.8833 96.1128 31.8833 96.096 31.9002 96.0815C31.9752 96.3482 32.0477 96.6101 32.113 96.8551C33.0631 100.355 34.2477 104.713 37.1077 106.183C37.6989 106.481 38.3472 106.65 39.0093 106.678C39.6714 106.707 40.332 106.595 40.9469 106.349C43.1397 105.544 41.8873 102.164 39.6922 102.967C39.2086 103.147 38.9524 103.075 38.7711 102.981C37.3205 102.241 36.2567 98.2821 35.6137 95.9158C34.7409 92.699 34.1631 90.573 32.1347 90.5057C30.1813 90.436 29.282 92.5717 28.4552 94.9548C26.4969 100.598 24.9351 104.54 22.665 103.896C21.7197 103.627 21.0162 102.868 20.5037 101.823C21.5021 99.9013 22.6457 97.5878 23.707 95.1951C27.7492 86.0902 28.2811 81.1654 25.438 79.2315C24.8415 78.8066 24.1293 78.5715 23.3954 78.5573C22.6616 78.5432 21.9407 78.7506 21.3281 79.1522C17.2931 81.6314 15.0109 92.1345 15.9683 98.9908C16.0872 99.87 16.2731 100.739 16.5243 101.59C15.4436 103.62 14.6748 104.953 14.6579 104.977C14.4182 105.392 14.3538 105.883 14.4789 106.345C14.604 106.806 14.9084 107.199 15.3252 107.437ZM19.3843 94.7434C19.6116 87.5917 22.2323 82.4915 23.3178 82.1672L23.3806 82.2032C23.3951 82.2176 24.7393 83.9761 20.3006 93.9242C19.996 94.5993 19.6865 95.272 19.3771 95.9302C19.3771 95.5314 19.3771 95.135 19.3771 94.7434H19.3843Z" fill="#FFE600"/>
</g>
<defs>
<clipPath id="clip0_1072_8">
<rect width="91" height="123" fill="white"/>
</clipPath>
</defs>
</svg>
