<svg width="109" height="124" viewBox="0 0 109 124" fill="none" xmlns="http://www.w3.org/2000/svg">
<path d="M56.4158 68.1143C56.1892 68.0651 55.9556 68.0574 55.7262 68.0915C54.6146 67.9617 53.5892 67.4272 52.8442 66.5893C52.0991 65.7514 51.6863 64.6684 51.684 63.5455C51.684 63.0097 51.4719 62.4958 51.0942 62.1168C50.7166 61.7379 50.2045 61.5251 49.6704 61.5251C49.1364 61.5251 48.6243 61.7379 48.2466 62.1168C47.869 62.4958 47.6569 63.0097 47.6569 63.5455C47.6598 65.4342 48.2801 67.2698 49.4226 68.7707C50.5651 70.2716 52.1668 71.355 53.982 71.8546V73.8751C53.982 74.4109 54.1941 74.9248 54.5717 75.3038C54.9493 75.6827 55.4615 75.8955 55.9955 75.8955C56.5295 75.8955 57.0417 75.6827 57.4193 75.3038C57.7969 74.9248 58.0091 74.4109 58.0091 73.8751V71.9809C60.0891 71.5451 61.9342 70.3509 63.1874 68.629C64.4407 66.9072 65.0131 64.7802 64.7939 62.6594C64.5747 60.5386 63.5795 58.5748 62.0008 57.1476C60.4221 55.7205 58.3721 54.9316 56.2472 54.9333C55.3442 54.9333 54.4615 54.6647 53.7106 54.1612C52.9598 53.6578 52.3746 52.9423 52.029 52.1052C51.6835 51.2681 51.593 50.3469 51.7692 49.4582C51.9454 48.5695 52.3802 47.7532 53.0187 47.1125C53.6573 46.4717 54.4708 46.0354 55.3565 45.8586C56.2421 45.6819 57.1602 45.7726 57.9944 46.1193C58.8287 46.4661 59.5418 47.0533 60.0435 47.8067C60.5452 48.5601 60.8129 49.4459 60.8129 50.352C60.8129 50.8878 61.0251 51.4017 61.4027 51.7807C61.7803 52.1596 62.2925 52.3724 62.8265 52.3724C63.3605 52.3724 63.8727 52.1596 64.2503 51.7807C64.6279 51.4017 64.84 50.8878 64.84 50.352C64.8369 48.3741 64.1569 46.4573 62.9139 44.9223C61.6709 43.3873 59.9403 42.3271 58.0116 41.9191V40.0805C58.0116 39.5447 57.7994 39.0307 57.4218 38.6518C57.0442 38.2729 56.5321 38.0601 55.998 38.0601C55.464 38.0601 54.9518 38.2729 54.5742 38.6518C54.1966 39.0307 53.9845 39.5447 53.9845 40.0805V42.0403C51.9816 42.5928 50.2462 43.8552 49.1 45.5935C47.9539 47.3318 47.4746 49.4281 47.7512 51.4938C48.0277 53.5596 49.0413 55.4547 50.604 56.8279C52.1667 58.201 54.1725 58.9591 56.2497 58.9616C57.4381 58.9725 58.5754 59.4481 59.4197 60.2874C60.2639 61.1267 60.7486 62.2633 60.7706 63.4556C60.7925 64.6479 60.3501 65.8018 59.5373 66.6718C58.7245 67.5418 57.6055 68.0593 56.4184 68.1143H56.4158Z" fill="#FFE600"/>
<path d="M27.0935 57.0955C27.0935 62.8819 28.8036 68.5384 32.0074 73.3496C35.2112 78.1608 39.765 81.9106 45.0927 84.1249C50.4205 86.3391 56.2829 86.9183 61.9388 85.7893C67.5946 84.6602 72.7897 81.8736 76.8672 77.7818C80.9447 73.69 83.7213 68.4768 84.846 62.8015C85.9707 57.1262 85.393 51.2437 83.1858 45.8979C80.9787 40.5521 77.2413 35.9831 72.4462 32.7687C67.6512 29.5543 62.0139 27.8389 56.2472 27.8394C52.4185 27.8394 48.6272 28.5961 45.09 30.0664C41.5527 31.5367 38.3387 33.6917 35.6315 36.4084C32.9243 39.1251 30.7769 42.3503 29.312 45.8998C27.847 49.4493 27.0932 53.2536 27.0935 57.0955ZM56.2472 31.8752C61.2184 31.8747 66.0781 33.3534 70.2117 36.1244C74.3453 38.8953 77.5672 42.834 79.4699 47.4424C81.3727 52.0507 81.8708 57.1218 80.9012 62.0142C79.9317 66.9066 77.5381 71.4007 74.0232 74.928C70.5082 78.4554 66.0297 80.8576 61.1541 81.831C56.2785 82.8043 51.2247 82.305 46.6319 80.3962C42.0391 78.4874 38.1135 75.2549 35.3516 71.1074C32.5897 66.9599 31.1156 62.0837 31.1156 57.0955C31.1156 50.4071 33.7633 43.9926 38.4763 39.2629C43.1893 34.5333 49.5817 31.8759 56.2472 31.8752Z" fill="#FFE600"/>
<path d="M95.3151 91.3243L79.5667 98.7924C78.4976 96.7982 76.9236 95.122 75.0032 93.9328C73.0827 92.7436 70.8838 92.0835 68.628 92.0189L54.0902 91.6173C51.7871 91.5522 49.5281 90.9679 47.4807 89.9075L46.0008 89.1372C42.2696 87.1864 38.1236 86.1699 33.9164 86.1743C29.7091 86.1787 25.5652 87.2039 21.8381 89.1625L21.9237 85.7934C21.9373 85.2587 21.739 84.7405 21.3724 84.3523C21.0058 83.9641 20.5008 83.7376 19.9681 83.7224L4.02576 83.2829C3.49295 83.2687 2.97624 83.467 2.58889 83.8343C2.20154 84.2017 1.97515 84.7082 1.95935 85.2428L0.997878 120.348C0.983661 120.883 1.18161 121.402 1.54827 121.791C1.91493 122.18 2.42033 122.406 2.95354 122.422L18.8958 122.864H18.9487C19.4733 122.864 19.9772 122.659 20.3533 122.292C20.7293 121.925 20.9478 121.425 20.9622 120.899L21.0075 119.219L25.1504 116.992C26.7751 116.115 28.6761 115.906 30.4511 116.411L55.1926 123.384L55.3235 123.417C60.9298 124.586 66.762 123.924 71.9655 121.525C72.0534 121.486 72.1376 121.44 72.2172 121.386L108.079 98.1105C108.509 97.8309 108.816 97.3973 108.939 96.898C109.061 96.3987 108.989 95.8714 108.738 95.4233C107.456 93.1411 105.347 91.4419 102.85 90.6786C100.352 89.9154 97.6574 90.1466 95.3252 91.3243H95.3151ZM5.0728 118.449L5.92353 87.3845L17.8488 87.7128L16.9955 118.777L5.0728 118.449ZM70.1458 117.921C65.7761 119.9 60.8964 120.447 56.1994 119.484L31.5334 112.534C28.7573 111.748 25.7855 112.075 23.2451 113.446L21.1309 114.582L21.6972 93.9206C24.9901 91.7232 28.8103 90.4528 32.7593 90.2418C36.7083 90.0308 40.6414 90.8869 44.1483 92.721L45.6282 93.4786C48.215 94.8195 51.0692 95.5593 53.9795 95.6431L68.5324 96.0547C70.5166 96.1103 72.4239 96.8367 73.9451 98.1161C75.4664 99.3955 76.5125 101.153 76.9138 103.104L55.2555 102.505C54.7215 102.49 54.2035 102.689 53.8155 103.058C53.4275 103.426 53.2013 103.934 53.1866 104.47C53.1719 105.006 53.37 105.526 53.7372 105.915C54.1044 106.304 54.6108 106.531 55.1448 106.546L79.0557 107.208H79.1035C79.6277 107.208 80.1313 107.003 80.5072 106.637C80.8832 106.27 81.102 105.771 81.1171 105.245C81.1412 104.368 81.0754 103.49 80.9208 102.626L97.077 94.9662L97.1223 94.9435C98.2413 94.376 99.5066 94.1654 100.748 94.3401C101.99 94.5148 103.149 95.0664 104.069 95.9209L70.1458 117.921Z" fill="white"/>
<path d="M58.2582 22.1669V3.00043C58.2582 2.46457 58.0461 1.95066 57.6685 1.57176C57.2909 1.19285 56.7787 0.97998 56.2447 0.97998C55.7107 0.97998 55.1985 1.19285 54.8209 1.57176C54.4433 1.95066 54.2311 2.46457 54.2311 3.00043V22.1669C54.2311 22.7028 54.4433 23.2167 54.8209 23.5956C55.1985 23.9745 55.7107 24.1874 56.2447 24.1874C56.7787 24.1874 57.2909 23.9745 57.6685 23.5956C58.0461 23.2167 58.2582 22.7028 58.2582 22.1669Z" fill="white"/>
<path d="M73.3372 22.1672V13.0903C73.3372 12.5544 73.1251 12.0405 72.7475 11.6616C72.3699 11.2827 71.8577 11.0698 71.3237 11.0698C70.7896 11.0698 70.2775 11.2827 69.8999 11.6616C69.5223 12.0405 69.3101 12.5544 69.3101 13.0903V22.1672C69.3101 22.703 69.5223 23.2169 69.8999 23.5958C70.2775 23.9747 70.7896 24.1876 71.3237 24.1876C71.8577 24.1876 72.3699 23.9747 72.7475 23.5958C73.1251 23.2169 73.3372 22.703 73.3372 22.1672Z" fill="white"/>
<path d="M43.1793 22.1672V13.0903C43.1793 12.5544 42.9671 12.0405 42.5895 11.6616C42.2119 11.2827 41.6997 11.0698 41.1657 11.0698C40.6317 11.0698 40.1195 11.2827 39.7419 11.6616C39.3643 12.0405 39.1522 12.5544 39.1522 13.0903V22.1672C39.1522 22.703 39.3643 23.2169 39.7419 23.5958C40.1195 23.9747 40.6317 24.1876 41.1657 24.1876C41.6997 24.1876 42.2119 23.9747 42.5895 23.5958C42.9671 23.2169 43.1793 22.703 43.1793 22.1672Z" fill="white"/>
</svg>
