<svg width="123" height="124" viewBox="0 0 123 124" fill="none" xmlns="http://www.w3.org/2000/svg">
<path d="M30.8224 40.5634C30.6551 40.396 30.4564 40.2632 30.2377 40.1725C30.019 40.0819 29.7846 40.0353 29.5479 40.0353C29.3112 40.0353 29.0768 40.0819 28.8581 40.1725C28.6395 40.2632 28.4408 40.396 28.2735 40.5634L13.8617 55.0039C13.3943 55.48 13.1325 56.1205 13.1325 56.7876C13.1325 57.4547 13.3943 58.0952 13.8617 58.5713L23.0627 67.7531C23.5397 68.2187 24.1799 68.4793 24.8465 68.4793C25.5131 68.4793 26.1532 68.2187 26.6302 67.7531L27.1107 67.2726C28.0298 72.685 30.6305 77.6704 34.5437 81.5209C36.5616 83.5389 55.3554 102.376 55.3554 102.376C58.7019 105.715 64.6333 104.057 65.7192 99.4351C66.5532 99.6945 67.4323 99.776 68.2998 99.6746C69.1673 99.5731 70.0038 99.2908 70.7554 98.8459C71.507 98.4011 72.157 97.8036 72.6633 97.0919C73.1697 96.3803 73.5212 95.5704 73.6951 94.7145C74.5078 94.8995 75.3494 94.9193 76.1699 94.7728C76.9905 94.6263 77.7732 94.3163 78.4716 93.8615C79.1701 93.4066 79.77 92.816 80.2358 92.1248C80.7016 91.4336 81.0238 90.6559 81.1833 89.8378C86.0384 90.9501 90.2354 85.91 88.215 81.3383C93.2191 76.3342 94.9849 70.9146 95.5879 67.287L96.0419 67.7435C96.519 68.2098 97.1597 68.4709 97.8269 68.4709C98.494 68.4709 99.1347 68.2098 99.6118 67.7435L108.827 58.5617C109.296 58.0873 109.559 57.4473 109.559 56.7804C109.559 56.1135 109.296 55.4735 108.827 54.9991L84.8036 30.9469C84.3302 30.4743 83.6887 30.2089 83.0199 30.2089C82.351 30.2089 81.7095 30.4743 81.2361 30.9469L72.0326 40.1382C71.6702 40.5076 71.4298 40.9794 71.3439 41.4897C71.258 42 71.3307 42.5244 71.5522 42.9922C68.2586 43.1167 65.0122 43.8159 61.9595 45.0582C58.5097 43.3285 54.3176 42.7904 51.3002 42.6559C51.4305 42.2177 51.4406 41.7526 51.3295 41.3093C51.2183 40.8659 50.99 40.4606 50.6684 40.1358L41.4481 30.9444C40.9747 30.4719 40.3332 30.2065 39.6643 30.2065C38.9954 30.2065 38.3539 30.4719 37.8805 30.9444L34.6373 34.1972C32.9965 35.8404 35.5551 38.3893 37.1887 36.7461L39.6655 34.2597L47.3267 41.9159L24.8357 64.4403L17.1745 56.7816L30.8248 43.1123C30.9922 42.945 31.125 42.7463 31.2157 42.5276C31.3063 42.3089 31.3529 42.0746 31.3529 41.8379C31.3529 41.6011 31.3063 41.3668 31.2157 41.1481C31.125 40.9294 30.9922 40.7307 30.8248 40.5634H30.8224ZM85.9568 78.5011L63.2688 55.8159C62.9587 55.5101 62.5489 55.3262 62.1143 55.298C61.6797 55.2697 61.2495 55.399 60.9025 55.6621C58.2598 57.6008 56.3235 59.8158 55.0046 62.4343C53.4263 65.4396 52.2251 65.6751 51.4395 65.5886C51.1464 65.5573 50.666 65.2715 50.2744 64.558C49.5921 63.3112 49.6425 61.6511 50.4185 60.1161C53.0081 55.0464 57.2666 51.0247 62.476 48.729C62.5409 48.7025 62.6057 48.6737 62.6682 48.6425C66.5507 46.9369 70.8113 46.2745 75.0284 46.7206L92.2846 64.0006C92.2846 66.0234 91.7537 72.5193 85.9568 78.5084V78.5011ZM83.0067 34.2573L105.498 56.7816L97.8269 64.4379L75.3359 41.9159L83.0067 34.2573ZM47.2113 58.4969C45.8852 61.089 45.8588 64.003 47.1153 66.2949C48.0185 67.9405 49.5008 69.0167 51.0623 69.1777C55.2977 69.6581 57.4839 65.4733 58.2022 64.1015L58.2166 64.0727C59.1114 62.3225 60.3491 60.7702 61.8562 59.5083L84.3808 82.0326C86.6991 84.3484 83.0787 87.9832 80.7532 85.6601L66.3702 71.2605C64.7294 69.6197 62.1781 72.1662 63.8237 73.8094L77.116 87.1159C79.0548 89.5399 75.5041 92.7398 73.2987 90.5345L60.5109 77.7492C58.8676 76.1084 56.3163 78.6525 57.9619 80.2981L69.4453 91.7765C71.7467 94.0731 68.1 97.6862 65.7961 95.38L53.5224 83.1112C51.8792 81.4704 49.3302 84.0145 50.9759 85.6601L61.5199 96.2016C63.8382 98.5174 60.2178 102.152 57.8923 99.8315C57.8923 99.8315 45.4552 87.3394 37.0806 78.9792C31.0746 72.9734 30.4476 66.069 30.402 63.9838L48.1122 46.2473C49.5849 46.1849 53.7866 46.1344 57.6208 47.2419C53.17 49.9561 49.5618 53.8546 47.1993 58.5017L47.2113 58.4969Z" fill="white"/>
<path d="M84.3952 40.8036C84.1574 40.5745 83.8616 40.4145 83.5397 40.3408C83.2178 40.2671 82.8819 40.2824 82.568 40.3851C82.2541 40.4879 81.9742 40.6741 81.7582 40.9239C81.5421 41.1737 81.3982 41.4776 81.3418 41.803C81.1905 42.7639 81.9016 43.4702 82.5622 44.066C83.6169 45.0269 85.3922 44.5705 85.6228 43.0738C85.7814 42.0552 85.0391 41.4474 84.3952 40.8036Z" fill="white"/>
<path d="M104.984 19.0114C99.2869 13.2825 92.5105 8.74023 85.0467 5.64753C77.5829 2.55483 69.5798 0.97309 61.5007 0.993854C45.1897 0.993854 29.5467 7.47329 18.0131 19.0068C6.47952 30.5402 0 46.183 0 62.4937C0 78.8045 6.47952 94.4473 18.0131 105.981C29.5467 117.514 45.1897 123.994 61.5007 123.994C65.8422 123.994 70.1719 123.538 74.4182 122.634C76.6908 122.153 75.9365 118.624 73.6663 119.11C69.6675 119.964 65.5897 120.395 61.5007 120.395C46.1454 120.395 31.419 114.295 20.5612 103.437C9.70341 92.5798 3.60355 77.8536 3.60355 62.4986C3.60355 47.1435 9.70341 32.4173 20.5612 21.5596C31.419 10.702 46.1454 4.60217 61.5007 4.60217C76.8559 4.60217 91.5823 10.702 102.44 21.5596C113.298 32.4173 119.398 47.1435 119.398 62.4986C119.421 71.2643 117.436 79.9188 113.594 87.7976C112.575 89.8876 115.816 91.4636 116.832 89.3735C122.412 77.8678 124.269 64.9099 122.146 52.3002C120.022 39.6905 114.024 28.0553 104.984 19.0114Z" fill="#FFE600"/>
<path d="M107.905 94.5654L85.4739 116.996L76.9647 108.487C75.3215 106.846 72.7701 109.39 74.4182 111.036L84.2006 120.828C84.3676 120.995 84.566 121.128 84.7845 121.219C85.003 121.31 85.2373 121.357 85.4739 121.357C85.7105 121.357 85.9447 121.31 86.1632 121.219C86.3817 121.128 86.5802 120.995 86.7471 120.828L110.454 97.1239C112.095 95.4807 109.55 92.9294 107.905 94.575V94.5654Z" fill="white"/>
</svg>
